<svg width="42" height="49" viewBox="0 0 42 49" fill="none" xmlns="http://www.w3.org/2000/svg">
<path d="M37.0065 0.373047H4.91049C2.20374 0.373047 0 2.57663 0 5.30728V37.691C0 40.4216 2.20358 42.6252 4.91033 42.6252H32.0724L30.8028 38.194L33.8688 41.0443L36.7669 43.727L41.9168 48.2779V5.30728C41.9168 2.57663 39.7132 0.373047 37.0065 0.373047ZM27.7609 31.6551C27.7609 31.6551 26.8986 30.625 26.18 29.7148C29.3179 28.8285 30.5154 26.8645 30.5154 26.8645C29.5333 27.5112 28.5992 27.9664 27.7609 28.2775C26.5633 28.7807 25.4135 29.1159 24.2879 29.3076C21.9883 29.7387 19.8805 29.619 18.0842 29.2837C16.7188 29.0201 15.5451 28.6369 14.5631 28.2538C14.0122 28.0382 13.4134 27.7747 12.8144 27.4394C12.7427 27.3914 12.6708 27.3675 12.599 27.3195C12.5511 27.2956 12.5271 27.2717 12.5032 27.2478C12.072 27.0082 11.8325 26.8406 11.8325 26.8406C11.8325 26.8406 12.9823 28.7568 16.0242 29.6669C15.3057 30.5772 14.4194 31.655 14.4194 31.655C9.12575 31.4873 7.11391 28.0142 7.11391 28.0142C7.11391 20.3015 10.563 14.0499 10.563 14.0499C14.0122 11.463 17.2936 11.5349 17.2936 11.5349L17.5332 11.8224C13.2218 13.0676 11.2337 14.9601 11.2337 14.9601C11.2337 14.9601 11.7606 14.6727 12.6468 14.2655C15.2097 13.1397 17.2458 12.8284 18.0842 12.7565C18.2278 12.7325 18.3476 12.7085 18.4914 12.7085C20.0965 12.4994 21.7209 12.4834 23.3298 12.6607C25.6051 12.9242 28.0484 13.5949 30.5394 14.9601C30.5394 14.9601 28.6472 13.1637 24.5752 11.9182L24.9105 11.535C24.9105 11.535 28.192 11.463 31.6411 14.05C31.6411 14.05 35.0904 20.3015 35.0904 28.0142C35.0904 28.0142 33.0544 31.4873 27.7609 31.655V31.6551ZM16.623 20.4692C15.2577 20.4692 14.18 21.6668 14.18 23.1278C14.18 24.589 15.2816 25.7866 16.623 25.7866C17.9884 25.7866 19.0661 24.589 19.0661 23.1278C19.0902 21.6668 17.9884 20.4692 16.6231 20.4692H16.623ZM25.3657 20.4692C24.0003 20.4692 22.9224 21.6668 22.9224 23.1278C22.9224 24.589 24.0244 25.7866 25.3657 25.7866C26.731 25.7866 27.8087 24.589 27.8087 23.1278C27.8087 21.6668 26.731 20.4692 25.3657 20.4692Z" fill="#7289DA"/>
</svg>
