<svg width="48" height="49" viewBox="0 0 48 49" fill="none" xmlns="http://www.w3.org/2000/svg">
<g clip-path="url(#clip0)">
<path d="M16.0006 24.0009C16.0006 22.4186 16.4698 20.8718 17.3489 19.5562C18.228 18.2406 19.4775 17.2151 20.9394 16.6096C22.4012 16.0041 24.0098 15.8457 25.5617 16.1543C27.1136 16.463 28.5392 17.225 29.658 18.3439C30.7769 19.4627 31.5388 20.8882 31.8475 22.4402C32.1562 23.9921 31.9978 25.6007 31.3923 27.0625C30.7867 28.5244 29.7613 29.7739 28.4457 30.653C27.13 31.532 25.5833 32.0013 24.0009 32.0013C21.8791 32.0013 19.8442 31.1584 18.3439 29.658C16.8435 28.1577 16.0006 26.1228 16.0006 24.0009ZM11.6753 24.0009C11.6753 26.4384 12.398 28.8211 13.7522 30.8478C15.1063 32.8745 17.031 34.4541 19.2829 35.3869C21.5348 36.3198 24.0127 36.5639 26.4034 36.0885C28.794 35.6131 30.99 34.4394 32.7136 32.716C34.4372 30.9926 35.6111 28.7967 36.0868 26.4061C36.5625 24.0156 36.3186 21.5376 35.3861 19.2856C34.4535 17.0336 32.8741 15.1088 30.8475 13.7544C28.821 12.4 26.4384 11.677 24.0009 11.6767C22.3825 11.6766 20.7799 11.9954 19.2846 12.6147C17.7893 13.234 16.4307 14.1418 15.2862 15.2862C14.1418 16.4307 13.234 17.7893 12.6147 19.2846C11.9954 20.7799 11.6766 22.3825 11.6767 24.0009H11.6753ZM33.9307 11.1882C33.9306 11.7578 34.0993 12.3147 34.4156 12.7885C34.7319 13.2622 35.1816 13.6315 35.7078 13.8497C36.234 14.0678 36.8131 14.125 37.3718 14.0141C37.9305 13.9032 38.4438 13.629 38.8467 13.2264C39.2497 12.8237 39.5241 12.3106 39.6354 11.7519C39.7468 11.1933 39.6899 10.6142 39.4721 10.0878C39.2543 9.5615 38.8853 9.11157 38.4117 8.79494C37.9382 8.47831 37.3814 8.30922 36.8118 8.30903C36.0482 8.30941 35.316 8.61284 34.776 9.15268C34.236 9.69252 33.9323 10.4246 33.9317 11.1882H33.9307ZM14.3064 43.5372C12.7844 43.5199 11.2767 43.2406 9.84933 42.7118C8.80687 42.3265 7.8637 41.7131 7.08875 40.9164C6.29091 40.1432 5.6773 39.2003 5.29338 38.1577C4.76367 36.7306 4.4838 35.2228 4.46606 33.7006C4.34982 31.1706 4.32488 30.4106 4.32488 24.0014C4.32488 17.5922 4.34982 16.8341 4.46606 14.3022C4.48518 12.7803 4.76435 11.2729 5.2915 9.84509C5.67682 8.80264 6.29023 7.85946 7.08687 7.08451C7.86046 6.28623 8.80404 5.67257 9.84744 5.28915C11.2753 4.7597 12.7837 4.48031 14.3064 4.46323C16.8364 4.34699 17.5965 4.32205 24.0009 4.32205C30.4054 4.32205 31.1683 4.34699 33.7001 4.46323C35.222 4.48234 36.7295 4.76151 38.1573 5.28868C39.2001 5.67328 40.1434 6.28678 40.9178 7.08404C41.7151 7.85848 42.3286 8.80181 42.7132 9.84462C43.2423 11.2719 43.5215 12.7797 43.5386 14.3017C43.6549 16.8336 43.6798 17.5917 43.6798 24.0009C43.6798 30.4101 43.6568 31.1683 43.5386 33.7001C43.5203 35.2221 43.2411 36.7297 42.7132 38.1573C42.3138 39.1923 41.702 40.1323 40.9174 40.9166C40.1327 41.701 39.1925 42.3123 38.1573 42.7113C36.73 43.2404 35.2222 43.5196 33.7001 43.5368C31.1702 43.653 30.4101 43.6779 24.0009 43.6779C17.5917 43.6779 16.8336 43.6549 14.3064 43.5368V43.5372ZM14.106 0.145417C12.115 0.184805 10.1452 0.561779 8.28032 1.26028C6.67866 1.86297 5.22766 2.80761 4.02839 4.02839C2.80635 5.22654 1.86138 6.67765 1.25981 8.27985C0.561479 10.1449 0.184665 12.1149 0.145417 14.106C0.0272952 16.6651 0 17.483 0 24.0009C0 30.5188 0.0272952 31.3368 0.145417 33.8959C0.184851 35.8869 0.561823 37.8567 1.26028 39.7216C1.86183 41.3238 2.80662 42.775 4.02839 43.9735C5.22806 45.1937 6.67874 46.1384 8.27985 46.7421C10.1448 47.4403 12.1146 47.8173 14.1055 47.8569C16.6661 47.9732 17.4826 48.0023 24.0005 48.0023C30.5184 48.0023 31.3363 47.9751 33.8954 47.8569C35.8864 47.8175 37.8562 47.4405 39.7211 46.7421C41.3158 46.1255 42.7641 45.1825 43.9731 43.9735C45.1821 42.7646 46.1251 41.3163 46.7416 39.7216C47.441 37.857 47.818 35.887 47.8565 33.8959C47.9727 31.3349 47.9976 30.5188 47.9976 24.0009C47.9976 17.483 47.9704 16.6651 47.8565 14.106C47.8171 12.115 47.4402 10.1451 46.7416 8.28032C46.138 6.67911 45.1935 5.22828 43.9735 4.02839C42.7755 2.80702 41.3252 1.86213 39.7239 1.25981C37.859 0.56095 35.8889 0.184119 33.8978 0.145417C31.3391 0.0291776 30.5207 0 24.0009 0C17.4812 0 16.6642 0.0272952 14.1041 0.145417" fill="url(#paint0_radial)"/>
<path d="M16.0006 24.0009C16.0006 22.4186 16.4698 20.8718 17.3489 19.5562C18.228 18.2406 19.4775 17.2151 20.9394 16.6096C22.4012 16.0041 24.0098 15.8457 25.5617 16.1543C27.1136 16.463 28.5392 17.225 29.658 18.3439C30.7769 19.4627 31.5388 20.8882 31.8475 22.4402C32.1562 23.9921 31.9978 25.6007 31.3923 27.0625C30.7867 28.5244 29.7613 29.7739 28.4457 30.653C27.13 31.532 25.5833 32.0013 24.0009 32.0013C21.8791 32.0013 19.8442 31.1584 18.3439 29.658C16.8435 28.1577 16.0006 26.1228 16.0006 24.0009ZM11.6753 24.0009C11.6753 26.4384 12.398 28.8211 13.7522 30.8478C15.1063 32.8745 17.031 34.4541 19.2829 35.3869C21.5348 36.3198 24.0127 36.5639 26.4034 36.0885C28.794 35.6131 30.99 34.4394 32.7136 32.716C34.4372 30.9926 35.6111 28.7967 36.0868 26.4061C36.5625 24.0156 36.3186 21.5376 35.3861 19.2856C34.4535 17.0336 32.8741 15.1088 30.8475 13.7544C28.821 12.4 26.4384 11.677 24.0009 11.6767C22.3825 11.6766 20.7799 11.9954 19.2846 12.6147C17.7893 13.234 16.4307 14.1418 15.2862 15.2862C14.1418 16.4307 13.234 17.7893 12.6147 19.2846C11.9954 20.7799 11.6766 22.3825 11.6767 24.0009H11.6753ZM33.9307 11.1882C33.9306 11.7578 34.0993 12.3147 34.4156 12.7885C34.7319 13.2622 35.1816 13.6315 35.7078 13.8497C36.234 14.0678 36.8131 14.125 37.3718 14.0141C37.9305 13.9032 38.4438 13.629 38.8467 13.2264C39.2497 12.8237 39.5241 12.3106 39.6354 11.7519C39.7468 11.1933 39.6899 10.6142 39.4721 10.0878C39.2543 9.5615 38.8853 9.11157 38.4117 8.79494C37.9382 8.47831 37.3814 8.30922 36.8118 8.30903C36.0482 8.30941 35.316 8.61284 34.776 9.15268C34.236 9.69252 33.9323 10.4246 33.9317 11.1882H33.9307ZM14.3064 43.5372C12.7844 43.5199 11.2767 43.2406 9.84933 42.7118C8.80687 42.3265 7.8637 41.7131 7.08875 40.9164C6.29091 40.1432 5.6773 39.2003 5.29338 38.1577C4.76367 36.7306 4.4838 35.2228 4.46606 33.7006C4.34982 31.1706 4.32488 30.4106 4.32488 24.0014C4.32488 17.5922 4.34982 16.8341 4.46606 14.3022C4.48518 12.7803 4.76435 11.2729 5.2915 9.84509C5.67682 8.80264 6.29023 7.85946 7.08687 7.08451C7.86046 6.28623 8.80404 5.67257 9.84744 5.28915C11.2753 4.7597 12.7837 4.48031 14.3064 4.46323C16.8364 4.34699 17.5965 4.32205 24.0009 4.32205C30.4054 4.32205 31.1683 4.34699 33.7001 4.46323C35.222 4.48234 36.7295 4.76151 38.1573 5.28868C39.2001 5.67328 40.1434 6.28678 40.9178 7.08404C41.7151 7.85848 42.3286 8.80181 42.7132 9.84462C43.2423 11.2719 43.5215 12.7797 43.5386 14.3017C43.6549 16.8336 43.6798 17.5917 43.6798 24.0009C43.6798 30.4101 43.6568 31.1683 43.5386 33.7001C43.5203 35.2221 43.2411 36.7297 42.7132 38.1573C42.3138 39.1923 41.702 40.1323 40.9174 40.9166C40.1327 41.701 39.1925 42.3123 38.1573 42.7113C36.73 43.2404 35.2222 43.5196 33.7001 43.5368C31.1702 43.653 30.4101 43.6779 24.0009 43.6779C17.5917 43.6779 16.8336 43.6549 14.3064 43.5368V43.5372ZM14.106 0.145417C12.115 0.184805 10.1452 0.561779 8.28032 1.26028C6.67866 1.86297 5.22766 2.80761 4.02839 4.02839C2.80635 5.22654 1.86138 6.67765 1.25981 8.27985C0.561479 10.1449 0.184665 12.1149 0.145417 14.106C0.0272952 16.6651 0 17.483 0 24.0009C0 30.5188 0.0272952 31.3368 0.145417 33.8959C0.184851 35.8869 0.561823 37.8567 1.26028 39.7216C1.86183 41.3238 2.80662 42.775 4.02839 43.9735C5.22806 45.1937 6.67874 46.1384 8.27985 46.7421C10.1448 47.4403 12.1146 47.8173 14.1055 47.8569C16.6661 47.9732 17.4826 48.0023 24.0005 48.0023C30.5184 48.0023 31.3363 47.9751 33.8954 47.8569C35.8864 47.8175 37.8562 47.4405 39.7211 46.7421C41.3158 46.1255 42.7641 45.1825 43.9731 43.9735C45.1821 42.7646 46.1251 41.3163 46.7416 39.7216C47.441 37.857 47.818 35.887 47.8565 33.8959C47.9727 31.3349 47.9976 30.5188 47.9976 24.0009C47.9976 17.483 47.9704 16.6651 47.8565 14.106C47.8171 12.115 47.4402 10.1451 46.7416 8.28032C46.138 6.67911 45.1935 5.22828 43.9735 4.02839C42.7755 2.80702 41.3252 1.86213 39.7239 1.25981C37.859 0.56095 35.8889 0.184119 33.8978 0.145417C31.3391 0.0291776 30.5207 0 24.0009 0C17.4812 0 16.6642 0.0272952 14.1041 0.145417" fill="url(#paint1_radial)"/>
</g>
<defs>
<radialGradient id="paint0_radial" cx="0" cy="0" r="1" gradientUnits="userSpaceOnUse" gradientTransform="translate(6.37719 48.2287) scale(62.6599)">
<stop offset="0.09" stop-color="#FA8F21"/>
<stop offset="0.78" stop-color="#D82D7E"/>
</radialGradient>
<radialGradient id="paint1_radial" cx="0" cy="0" r="1" gradientUnits="userSpaceOnUse" gradientTransform="translate(29.1113 50.3789) scale(49.3845)">
<stop offset="0.64" stop-color="#8C3AAA" stop-opacity="0"/>
<stop offset="1" stop-color="#8C3AAA"/>
</radialGradient>
<clipPath id="clip0">
<rect width="48" height="48.0019" fill="white"/>
</clipPath>
</defs>
</svg>
