<svg width="49" height="49" viewBox="0 0 49 49" fill="none" xmlns="http://www.w3.org/2000/svg">
<path d="M13.2892 41.4639L14.0714 41.8551C17.3314 43.8109 20.9822 44.7237 24.6332 44.7237C36.1074 44.7237 45.4955 35.3356 45.4955 23.8613C45.4955 18.3851 43.2788 13.039 39.3672 9.1273C35.4555 5.21556 30.2397 2.99902 24.6332 2.99902C13.1589 2.99902 3.77065 12.3871 3.90112 23.9918C3.90112 27.9034 5.07463 31.6848 7.03041 34.9444L7.55192 35.7269L5.46586 43.4199L13.2892 41.4639Z" fill="#00E676"/>
<path d="M41.5837 7.04103C37.1505 2.47748 31.0222 0 24.7634 0C11.4638 0 0.77183 10.8223 0.902115 23.9916C0.902115 28.1641 2.07562 32.2063 4.03158 35.8571L0.641357 48.2442L13.2891 44.9844C16.8097 46.9404 20.7212 47.8531 24.6331 47.8531C37.8025 47.8531 48.4945 37.0306 48.4945 23.8615C48.4945 17.4723 46.017 11.4743 41.5839 7.04103H41.5837ZM24.7634 43.8111C21.2429 43.8111 17.7224 42.8985 14.7234 41.073L13.9411 40.6818L6.37859 42.6376L8.33437 35.2055L7.81286 34.423C2.07562 25.1655 4.81386 12.9085 14.2019 7.17131C23.5899 1.43426 35.7162 4.1725 41.4534 13.5605C47.1905 22.9486 44.4523 35.0748 35.0644 40.8121C32.0652 42.7679 28.4144 43.8109 24.7634 43.8109V43.8111ZM36.2377 29.338L34.8035 28.686C34.8035 28.686 32.7174 27.7733 31.4134 27.1213C31.2829 27.1213 31.1527 26.9908 31.0222 26.9908C30.631 26.9908 30.3702 27.1213 30.1094 27.2517C30.1094 27.2517 29.9792 27.382 28.1537 29.4683C28.0232 29.729 27.7624 29.8595 27.5017 29.8595H27.3712C27.2409 29.8595 26.9802 29.729 26.8497 29.5987L26.1977 29.338C24.7634 28.686 23.4596 27.9035 22.4164 26.8605C22.1557 26.5997 21.7644 26.339 21.5037 26.0782C20.5909 25.1655 19.6782 24.1223 19.0264 22.9488L18.8959 22.688C18.7656 22.5575 18.7656 22.4272 18.6352 22.1665C18.6352 21.9057 18.6352 21.645 18.7656 21.5145C18.7656 21.5145 19.2871 20.8625 19.6782 20.4715C19.9391 20.2105 20.0694 19.8195 20.3302 19.5587C20.5909 19.1675 20.7214 18.646 20.5909 18.2547C20.4606 17.6028 18.8959 14.0822 18.5049 13.3C18.2439 12.9087 17.9834 12.7785 17.5921 12.648H16.1579C15.8969 12.648 15.6363 12.7785 15.3754 12.7785L15.2449 12.9087C14.9842 13.0392 14.7234 13.3 14.4627 13.4303C14.2019 13.6912 14.0714 13.9518 13.8107 14.2127C12.8979 15.3862 12.3764 16.8205 12.3764 18.2547C12.3764 19.2978 12.6372 20.341 13.0284 21.2537L13.1589 21.645C14.3324 24.1223 15.8969 26.339 17.9834 28.2948L18.5049 28.8163C18.8959 29.2075 19.2871 29.4683 19.5479 29.8593C22.2861 32.2065 25.4154 33.9015 28.9359 34.8143C29.3272 34.9446 29.8487 34.9446 30.2399 35.075H31.5437C32.1957 35.075 32.978 34.8143 33.4997 34.5535C33.8907 34.2928 34.1515 34.2928 34.4122 34.032L34.6732 33.7711C34.9339 33.5103 35.1947 33.38 35.4554 33.1193C35.7162 32.8585 35.977 32.5977 36.1074 32.3368C36.3682 31.8153 36.4985 31.1633 36.629 30.5115V29.5987C36.629 29.5987 36.4985 29.4683 36.2377 29.338Z" fill="white"/>
</svg>
