<svg width="453" height="327" viewBox="0 0 453 327" fill="none" xmlns="http://www.w3.org/2000/svg">
<path d="M0 0H453V327H0V0Z" fill="#541A8A"/>
<path d="M0 0H453V29H0V0Z" fill="#541A8A"/>
<circle cx="15.5697" cy="14" r="4" fill="white"/>
<circle cx="28.9194" cy="14" r="4" fill="white"/>
<circle cx="42.2691" cy="14" r="4" fill="white"/>
<g clip-path="url(#clip0)">
<path d="M239.125 222.387H-2.48279V298.287H239.125V222.387Z" fill="url(#paint0_radial)"/>
<path d="M440.453 222.387H213.109V298.287H440.453V222.387Z" fill="url(#paint1_radial)"/>
<path d="M385.762 225.913H385.014H372.538L376.959 261.04C377.284 263.624 379.483 265.563 382.089 265.563H385.014H385.762H388.616C391.173 265.563 393.33 263.624 393.648 261.04L397.987 225.913H385.762Z" fill="#541A8A"/>
<path d="M388.616 265.563C391.173 265.563 393.33 263.624 393.648 261.04L397.987 225.913H388.342L379.823 265.041C380.509 265.376 381.28 265.563 382.089 265.563H385.014H385.762H388.616Z" fill="url(#paint2_radial)"/>
<path d="M387.367 230.389C387.367 230.389 389.064 215.811 392.059 207.833C395.055 199.854 395.052 196.611 395.052 196.611" stroke="#0061FE" stroke-width="0.385417" stroke-miterlimit="10"/>
<path d="M394.991 197.359C394.991 197.359 390.934 178.78 398.42 163.569C398.42 163.569 400.284 170.775 401.413 175.041C403.661 183.519 398.549 194.241 394.991 197.359Z" fill="#FB8F8F"/>
<path d="M398.528 163.986C398.418 165.905 397.818 176.924 398.045 184.641C398.186 189.46 396.557 194.114 395.123 197.237C398.673 193.976 403.633 183.416 401.413 175.041C400.448 171.384 398.941 165.574 398.528 163.986Z" fill="url(#paint3_radial)"/>
<path d="M385.321 227.283C385.321 227.283 381.33 202.095 379.832 190.127C378.334 178.157 376.839 171.176 376.839 171.176" stroke="#0061FE" stroke-width="0.385417" stroke-miterlimit="10"/>
<path d="M386.444 227.906C386.444 227.906 383.699 204.466 384.198 194.489C384.698 184.514 381.205 145.862 381.205 145.862" stroke="#0061FE" stroke-width="0.385417" stroke-miterlimit="10"/>
<path d="M376.963 171.3C376.963 171.3 379.832 168.681 374.343 162.946C368.727 157.078 365.734 150.851 363.988 147.86C362.242 144.868 350.516 142.624 347.521 138.632C347.523 138.632 350.516 154.093 376.963 171.3Z" fill="#FB8F8F"/>
<path d="M381.081 146.239C381.081 146.239 370.851 132.773 369.855 120.803C368.859 108.832 368.357 107.837 368.357 107.837C368.357 107.837 376.541 121.14 380.083 127.039C383.826 133.27 383.327 143.992 381.081 146.239Z" fill="#FB8F8F"/>
<path d="M374.345 162.946C368.73 157.078 365.737 150.851 363.991 147.86C362.245 144.868 350.519 142.624 347.523 138.632C347.523 138.632 347.535 138.698 347.566 138.82C348.555 140.628 353.943 149.907 363.367 155.963C373.818 162.679 377.671 169.557 377.692 169.592C377.835 168.236 377.312 166.048 374.345 162.946Z" fill="url(#paint4_radial)"/>
<path d="M376.839 131.274C379.963 135.735 381.056 141.699 381.431 145.791C383.366 142.83 383.62 132.928 380.083 127.034C376.541 121.135 368.357 107.832 368.357 107.832C368.357 107.832 368.434 107.987 368.589 108.902C369.416 112.604 372.416 124.961 376.839 131.274Z" fill="url(#paint5_radial)"/>
<path d="M358.705 165.15H324.367L304.213 206.933L279.951 211.037L280.698 220.487L330.339 224.343L331.9 222.912L358.705 165.15Z" stroke="#0061FE" stroke-width="0.385417" stroke-miterlimit="10"/>
<path d="M358.705 165.15H324.367L304.213 206.933L279.951 211.037L280.698 220.487L330.339 224.343L331.9 222.912L358.705 165.15Z" fill="url(#paint6_radial)"/>
<path d="M292.091 225.784L285.937 263.745C285.784 264.617 285.027 265.254 284.144 265.254C283.185 265.254 282.391 264.512 282.327 263.556L279.705 224.465" stroke="#0061FE" stroke-width="0.385417" stroke-miterlimit="10"/>
<path d="M354.613 173.97L337.551 263.329C337.337 264.446 336.36 265.254 335.223 265.254C334.059 265.254 333.067 264.408 332.882 263.261L327.081 226.604" stroke="#0061FE" stroke-width="0.385417" stroke-miterlimit="10"/>
<path d="M322.253 223.72L315.299 263.745C315.147 264.617 314.39 265.254 313.506 265.254C312.548 265.254 311.753 264.512 311.69 263.556L309.067 224.465" stroke="#0061FE" stroke-width="0.385417" stroke-miterlimit="10"/>
<path d="M325.652 219.602H282.316V224.575H330.339V224.287C330.339 221.701 328.241 219.602 325.652 219.602Z" fill="#0061FE"/>
<path d="M331.584 223.596L358.705 165.15C355.551 165.001 352.623 166.788 351.318 169.662L330.543 215.43C329.627 217.449 329.671 219.773 330.663 221.757L331.584 223.596Z" fill="#0061FE"/>
<path d="M252.953 200.217L279.33 246.975C279.33 246.975 292.766 244.986 295.752 236.033C295.752 236.033 283.187 217.006 280.947 214.022C278.706 211.037 272.734 200.84 272.734 200.84L258.053 199.844L252.953 200.217Z" fill="#FB8F8F"/>
<path d="M252.953 200.217L279.33 246.975C279.33 246.975 292.766 244.986 295.752 236.033C295.752 236.033 283.187 217.006 280.947 214.022C278.706 211.037 272.734 200.84 272.734 200.84L258.053 199.844L252.953 200.217Z" fill="url(#paint7_radial)"/>
<path d="M278.582 238.021C278.582 238.021 277.586 255.68 277.089 257.42C276.848 258.261 277.131 259.337 277.347 260.447C277.694 262.23 276.916 264.041 275.38 265.01C274.197 265.758 272.341 266.357 270.37 267.367C267.03 269.077 263.097 271.167 259.609 271.338C259.279 271.354 259.108 270.949 259.354 270.726C261.21 269.044 266.575 264.277 271.614 260.651C271.614 260.651 271.614 240.256 270.866 238.764C270.123 237.274 278.582 238.021 278.582 238.021Z" fill="#FFDE99"/>
<path d="M292.15 241.322C292.15 241.322 296.997 249.214 299.237 251.203C301.478 253.192 301.975 254.436 297.993 260.904C295.23 265.392 292.577 269.208 290.137 270.464C289.778 270.649 289.394 270.265 289.57 269.902C290.031 268.951 290.781 267.145 291.773 263.888C293.514 258.168 294.51 256.427 293.266 254.188C292.021 251.948 286.49 244.831 286.49 244.831C286.49 244.831 290.289 243.131 292.15 241.322Z" fill="#FFDE99"/>
<path d="M321.878 196.487C321.878 196.487 328.846 206.188 323.868 213.649C318.89 221.11 287.54 218.622 282.562 213.649L288.285 239.514C288.285 239.514 271.614 244.239 263.901 240.01V198.973H294.756L296.498 196.984L321.381 196.487" fill="#FB8F8F"/>
<path d="M321.878 196.487H321.381L316.434 196.586L315.925 196.717C315.925 196.717 321.381 211.407 306.948 212.155C292.516 212.902 280.572 205.689 280.572 205.689L283.298 216.973L282.562 213.647C287.537 218.62 318.89 221.108 323.868 213.647C328.846 206.186 321.878 196.487 321.878 196.487Z" fill="url(#paint8_radial)"/>
<path d="M310.523 218.198C309.714 216.153 308.828 214.134 308.123 212.059C307.745 212.101 307.356 212.136 306.948 212.157C292.516 212.904 280.572 205.691 280.572 205.691L283.298 216.976L282.562 213.649C285.733 216.814 299.587 218.972 310.523 218.198Z" fill="url(#paint9_radial)"/>
<path d="M297.245 177.088C297.245 177.088 294.756 183.805 292.27 183.554C289.78 183.306 275.35 164.155 273.857 164.155C272.364 164.155 270.123 163.658 270.123 163.658L264.4 160.674V159.678C264.4 159.678 259.424 158.931 258.925 157.689H273.606C273.606 157.689 277.588 159.929 278.085 161.17L292.019 173.856L294.133 168.259C294.135 168.259 299.608 172.237 297.245 177.088Z" fill="#FFDE99"/>
<path d="M275.411 165.415C276.337 163.918 277.15 162.358 277.797 160.721C276.747 159.453 273.606 157.689 273.606 157.689H258.925C259.422 158.933 264.4 159.678 264.4 159.678V160.674L270.123 163.658C270.123 163.658 272.364 164.155 273.857 164.155C274.089 164.155 274.64 164.623 275.411 165.415Z" fill="url(#paint10_radial)"/>
<path d="M272.859 158.434H266.139C266.139 158.434 266.139 159.678 270.121 160.175C270.121 160.175 272.111 162.164 274.352 161.667C276.592 161.17 272.859 158.434 272.859 158.434Z" fill="url(#paint11_radial)"/>
<path d="M264.4 159.182L263.373 160.001C263.242 160.107 263.191 160.283 263.245 160.442L263.404 160.922L263.212 161.883C263.177 162.058 263.233 162.241 263.359 162.37L263.901 162.663L263.793 163.347C263.718 163.644 263.917 163.942 264.222 163.984C265.682 164.188 269.223 164.251 269.624 164.651C269.624 164.651 269.873 163.904 269.376 163.408H270.123C270.123 163.408 270.62 162.412 269.376 161.915H270.123C270.123 161.915 271.368 160.423 265.893 159.676C263.317 159.327 264.4 159.182 264.4 159.182Z" fill="#FFDE99"/>
<path d="M297.304 172.176L293.823 169.632H293.615L292.019 173.856L291.742 173.605L292.227 174.083C293.139 174.98 293.695 176.177 293.786 177.454C293.912 179.206 293.774 181.371 292.267 181.068C290.786 180.773 286.389 177.123 283.077 174.219C287.057 178.883 291.062 183.434 292.267 183.554C294.756 183.802 297.243 177.088 297.243 177.088C298.129 175.275 297.916 173.584 297.304 172.176Z" fill="url(#paint12_radial)"/>
<path d="M293.484 120.278C293.484 120.278 292.019 117.151 289.78 118.891C287.54 120.632 285.302 129.585 288.536 133.317C291.77 137.049 289.78 142.519 286.794 146.002C283.809 149.483 291.273 150.727 294.508 149.483C297.742 148.239 302.221 151.224 302.72 150.975C303.217 150.727 306.97 140.919 306.97 140.919L306.292 130.342L293.484 120.278Z" fill="#F9C1DA"/>
<path d="M293.484 120.278C293.484 120.278 292.019 117.151 289.78 118.891C287.54 120.632 285.302 129.585 288.536 133.317C291.77 137.049 289.78 142.519 286.794 146.002C283.809 149.483 291.273 150.727 294.508 149.483C297.742 148.239 302.221 151.224 302.72 150.975C303.217 150.727 306.97 140.919 306.97 140.919L306.292 130.342L293.484 120.278Z" fill="url(#paint13_radial)"/>
<path d="M298.738 142.02C298.738 142.02 300.48 144.259 298.738 150.725C296.997 157.19 294.011 160.175 292.766 163.907C291.522 167.638 309.686 164.403 309.686 164.403L315.906 153.958L312.672 150.973C312.672 150.973 308.441 151.221 307.945 148.984C307.448 146.745 306.203 140.279 306.948 134.807C307.696 129.335 298.239 141.771 298.239 141.771L298.738 142.02Z" fill="#FFDE99"/>
<path d="M296.535 156.504C296.535 156.504 290.774 165.399 290.774 167.388C290.774 169.377 298.487 179.077 298.736 183.554C298.984 188.031 295.75 197.232 295.75 197.232C295.75 197.232 312.67 203.201 322.872 196.736C322.872 196.736 319.513 191.638 322 187.658C324.489 183.678 331.705 185.918 331.705 185.918C331.705 185.918 333.198 186.166 334.691 185.173C336.184 184.177 334.691 182.436 334.691 182.436C334.691 182.436 335.687 182.685 334.443 179.949C333.198 177.212 321.503 153.585 316.776 152.341C312.048 151.097 309.311 151.097 309.311 151.097C309.311 151.097 300.602 162.04 296.62 161.046C293.549 160.278 296.535 156.504 296.535 156.504Z" fill="#9B51E0"/>
<path d="M307.956 152.716C309.902 153.714 313.877 155.15 318.28 153.248C317.727 152.772 317.223 152.458 316.778 152.341C312.051 151.097 309.313 151.097 309.313 151.097C309.313 151.097 308.795 151.748 307.956 152.716Z" fill="url(#paint14_radial)"/>
<path d="M322.86 186.66L310.431 187.035L299.732 188.527L300.48 190.516C300.48 190.516 305.467 192.568 312.062 192.734C315.419 192.819 318.266 195.168 319.084 198.422C319.091 198.45 319.098 198.479 319.105 198.504C320.427 198.062 321.695 197.481 322.874 196.736C322.874 196.736 319.516 191.638 322.002 187.658C322.248 187.267 322.537 186.939 322.86 186.66Z" fill="url(#paint15_radial)"/>
<path d="M298.738 142.02C298.738 142.02 300.48 144.259 298.738 150.725C296.997 157.19 294.011 160.175 292.766 163.907C291.522 167.638 309.686 164.403 309.686 164.403L315.906 153.958L312.672 150.973C312.672 150.973 308.441 151.221 307.945 148.984C307.448 146.745 306.203 140.279 306.948 134.807C307.696 129.335 298.239 141.771 298.239 141.771L298.738 142.02Z" fill="url(#paint16_radial)"/>
<path d="M292.766 122.372C292.766 122.621 286.705 144.102 291.77 145.252C297.245 146.496 301.724 143.264 303.963 141.521C306.203 139.78 307.945 135.303 307.945 135.303L304.71 125.603L297.245 120.379L293.512 119.882L292.766 122.372Z" fill="#FFDE99"/>
<path d="M300.48 131.574C295.823 129.829 292.223 130.351 290.866 130.668C290.073 134.765 289.436 139.448 289.916 142.387L292.764 142.516C292.766 142.516 306.452 133.811 300.48 131.574Z" fill="url(#paint17_radial)"/>
<path d="M293.127 121.166C293.127 121.166 295.504 120.629 296.249 122.869C296.997 125.109 300.728 137.543 305.704 137.046L306.7 137.543C306.7 137.543 301.225 151.47 308.69 152.465C316.155 153.461 314.91 150.476 320.137 150.476C325.363 150.476 330.836 145.503 326.605 141.275C322.375 137.046 319.637 136.301 318.393 129.834C317.148 123.368 309.187 116.403 305.453 117.647L303.463 117.896L298.487 118.144C298.487 118.144 298.745 116.694 295.75 117.397C291.522 118.392 293.127 121.166 293.127 121.166Z" fill="#F9C1DA"/>
<path d="M293.127 121.166C293.127 121.166 295.504 120.629 296.249 122.869C296.997 125.109 300.728 137.543 305.704 137.046L306.7 137.543C306.7 137.543 301.225 151.47 308.69 152.465C316.155 153.461 314.91 150.476 320.137 150.476C325.363 150.476 330.836 145.503 326.605 141.275C322.375 137.046 319.637 136.301 318.393 129.834C317.148 123.368 309.187 116.403 305.453 117.647L303.463 117.896L298.487 118.144C298.487 118.144 298.745 116.694 295.75 117.397C291.522 118.392 293.127 121.166 293.127 121.166Z" fill="url(#paint18_radial)"/>
<path d="M307.82 134.931C307.82 134.931 309.065 140.403 308.317 145.625C308.317 145.625 308.146 149.963 310.471 150.53" stroke="#FB8F8F" stroke-width="0.385417" stroke-miterlimit="10"/>
<path d="M293.484 120.278C293.484 120.278 295.877 116.528 297.866 121.501C299.856 126.474 300.604 132.195 303.838 132.942" stroke="#FB8F8F" stroke-width="0.385417" stroke-miterlimit="10"/>
<path d="M307.448 138.787C310.745 138.787 313.42 136.114 313.42 132.818C313.42 129.521 310.745 126.849 307.448 126.849C304.15 126.849 301.476 129.521 301.476 132.818C301.476 136.114 304.15 138.787 307.448 138.787Z" fill="#241921"/>
<path d="M306.576 138.911C309.873 138.911 312.548 136.239 312.548 132.942C312.548 129.646 309.873 126.973 306.576 126.973C303.278 126.973 300.604 129.646 300.604 132.942C300.604 136.239 303.278 138.911 306.576 138.911Z" stroke="#241921" stroke-width="0.385417" stroke-miterlimit="10"/>
<path d="M305.835 127.582C305.549 124.446 303.963 121.534 301.48 119.592L299.69 118.238C299.533 118.118 299.608 117.87 299.805 117.856L302.057 117.699C302.711 117.654 303.351 117.884 303.836 118.327C306.384 120.662 308.001 123.897 308.315 127.357L305.835 127.582Z" fill="#241921"/>
<path d="M303.963 136.547L301.291 138.836C299.643 140.249 297.543 141.024 295.373 141.024H291.77" stroke="#241921" stroke-width="0.385417" stroke-miterlimit="10"/>
<path d="M292.766 142.268C293.591 142.268 294.259 141.6 294.259 140.776C294.259 139.952 293.591 139.284 292.766 139.284C291.941 139.284 291.273 139.952 291.273 140.776C291.273 141.6 291.941 142.268 292.766 142.268Z" fill="#241921"/>
<path d="M323.123 178.082C318.892 178.33 320.882 176.589 320.385 174.35C319.888 172.11 317.648 171.365 317.151 167.884C316.654 164.403 316.654 162.412 316.654 162.412C316.654 162.412 309.686 164.651 308.692 171.862C307.935 177.348 299.983 178.229 295.56 176.039C297.189 178.824 298.633 181.656 298.738 183.552C298.773 184.177 298.738 184.899 298.654 185.672L302.47 186.288L310.431 187.78L319.389 186.039L322.623 181.563C322.623 181.563 320.134 181.563 321.379 179.822C321.379 179.822 325.113 178.082 328.098 179.822C331.087 181.565 327.353 177.833 323.123 178.082Z" fill="url(#paint19_radial)"/>
<path d="M323.56 178.67C319.33 178.918 321.32 177.177 320.823 174.938C320.326 172.698 318.085 171.953 317.588 168.472C317.091 164.991 317.091 163 317.091 163C317.091 163 317.052 163.019 316.972 163.056C315.263 163.888 313.878 165.261 313.004 166.947C312.425 168.062 311.874 169.196 311.244 170.321C310.299 172.005 309.071 173.492 307.276 174.284C305.877 174.9 299.063 177.578 296 176.627C297.629 179.412 299.073 182.244 299.178 184.14C299.213 184.765 299.178 185.487 299.094 186.26L302.909 186.876L310.871 188.368L319.829 186.627L323.063 182.151C323.063 182.151 320.574 182.151 321.819 180.41C321.819 180.41 325.552 178.67 328.538 180.41C331.524 182.153 327.791 178.421 323.56 178.67Z" fill="url(#paint20_radial)"/>
<path d="M296.566 189.207L300.229 192.259C300.229 192.259 300.726 192.011 300.477 191.015L300.974 191.263C300.974 191.263 301.471 190.518 301.223 189.771H301.97L301.223 188.031L298.982 187.035L298.234 187.78L296.566 189.207Z" fill="#FFDE99"/>
<path d="M296.566 189.207L300.229 192.259C300.229 192.259 300.726 192.011 300.477 191.015L300.974 191.263C300.974 191.263 301.471 190.518 301.223 189.771H301.97L301.223 188.031L298.982 187.035L298.234 187.78L296.566 189.207Z" fill="url(#paint21_radial)"/>
<path d="M332.587 183.552C333.142 184.147 332.945 185.112 332.202 185.447C329.193 186.803 321.679 189.827 314.167 190.019C307.286 190.195 304.408 190.373 303.316 190.46C302.922 190.493 302.528 190.39 302.2 190.169L299.734 188.527H298.49C298.49 188.527 297.245 189.523 297.245 189.771L295.752 188.527L300.784 183.268C301.047 182.994 301.457 182.924 301.792 183.099C302.931 183.697 304.708 185.791 305.952 186.288C305.952 186.288 312.311 186.349 322.623 181.563C327.564 179.272 331.002 181.853 332.587 183.552Z" fill="#FFDE99"/>
<path d="M332.587 183.552C333.142 184.147 332.945 185.112 332.202 185.447C329.193 186.803 321.679 189.827 314.167 190.019C307.286 190.195 304.408 190.373 303.316 190.46C302.922 190.493 302.528 190.39 302.2 190.169L299.734 188.527H298.49C298.49 188.527 297.245 189.523 297.245 189.771L295.752 188.527L300.784 183.268C301.047 182.994 301.457 182.924 301.792 183.099C302.931 183.697 304.708 185.791 305.952 186.288C305.952 186.288 312.311 186.349 322.623 181.563C327.564 179.272 331.002 181.853 332.587 183.552Z" fill="url(#paint22_radial)"/>
<path d="M266.141 204.445V236.03" stroke="#F9C1DA" stroke-width="0.385417" stroke-miterlimit="10"/>
<path d="M270.248 239.638C270.248 239.638 278.46 239.886 285.426 236.653" stroke="#F9C1DA" stroke-width="0.385417" stroke-miterlimit="10"/>
<path d="M280.45 245.358C280.45 245.358 290.901 243.119 293.638 236.653" stroke="#F9C1DA" stroke-width="0.385417" stroke-miterlimit="10"/>
<path d="M299.859 172.736C299.859 172.736 302.845 174.725 307.075 170.995" stroke="#F9C1DA" stroke-width="0.385417" stroke-miterlimit="10"/>
<path d="M307.073 145.377C307.073 145.377 305.58 150.102 309.063 151.097" stroke="#FB8F8F" stroke-width="0.385417" stroke-miterlimit="10"/>
<path d="M317.027 149.605C317.027 149.605 318.52 148.858 320.261 149.108C322.002 149.357 324.491 148.86 325.237 146.621" stroke="#FB8F8F" stroke-width="0.385417" stroke-miterlimit="10"/>
<path d="M310.155 136.992C311.521 136.105 312.423 134.568 312.423 132.818C312.423 132.171 312.299 131.553 312.074 130.984" stroke="#0061FE" stroke-width="0.385417" stroke-miterlimit="10"/>
<path d="M327.081 226.604L325.267 215.139C324.721 211.691 321.747 209.151 318.255 209.151H300.829C297.346 209.151 294.379 211.677 293.821 215.111L292.091 225.784" stroke="#0061FE" stroke-width="0.385417" stroke-miterlimit="10"/>
<path d="M249.081 165.893H226.713V177.196H249.081V165.893Z" fill="#FFDE99"/>
<path d="M226.703 177.196H249.088V165.893H226.703V177.196Z" fill="url(#paint23_radial)"/>
<path d="M226.713 165.893L237.77 171.419L249.079 165.893H226.713Z" fill="#FFDE99"/>
<path d="M221.92 174.214C222.496 173.029 224.12 172.494 225.29 173.106C225.85 173.399 226.277 173.895 226.809 174.235C227.561 174.718 228.52 174.863 229.382 174.624C230.242 174.387 230.992 173.769 231.391 172.97" stroke="#FA404B" stroke-width="0.385417" stroke-miterlimit="10"/>
<path d="M264.203 110.88H230.453V131.729H264.203V110.88Z" fill="url(#paint24_radial)"/>
<path d="M247.534 145.081H217.122C216.072 145.081 215.219 144.231 215.219 143.179V121.681C215.219 120.632 216.07 119.779 217.122 119.779H247.537C248.587 119.779 249.44 120.629 249.44 121.681V143.179C249.437 144.231 248.587 145.081 247.534 145.081Z" stroke="#0061FE" stroke-width="0.385417" stroke-miterlimit="10"/>
<path d="M248.941 143.179H218.528C217.478 143.179 216.625 142.329 216.625 141.277V119.779C216.625 118.73 217.476 117.877 218.528 117.877H248.943C249.993 117.877 250.846 118.727 250.846 119.779V141.277C250.844 142.327 249.993 143.179 248.941 143.179Z" fill="#0061FE"/>
<path d="M248.941 117.879H244.244C235.759 126.292 227.303 134.734 218.849 143.179H248.941C249.991 143.179 250.844 142.329 250.844 141.277V119.779C250.844 118.73 249.993 117.879 248.941 117.879Z" fill="url(#paint25_radial)"/>
<path d="M234.944 135.332H225.494C224.608 135.332 223.891 134.615 223.891 133.729V127.329C223.891 126.444 224.608 125.727 225.494 125.727H234.944C235.83 125.727 236.547 126.444 236.547 127.329V133.729C236.547 134.612 235.83 135.332 234.944 135.332Z" fill="white"/>
<path d="M237.719 128.655V130.295V130.764V132.403L243.578 135.683V130.764V130.295V125.376L237.719 128.655Z" fill="white"/>
<path d="M196.352 135.36C192.339 135.36 189.086 138.611 189.086 142.622C189.086 144.59 189.871 146.375 191.141 147.682L189.555 149.268H193.424C194.32 149.664 195.311 149.884 196.354 149.884C200.366 149.884 203.62 146.632 203.62 142.622C203.62 138.611 200.364 135.36 196.352 135.36Z" fill="#FB8F8F"/>
<path d="M204.116 146.56C204.838 145.431 205.258 144.091 205.258 142.65C205.258 141.146 204.801 139.75 204.018 138.59" stroke="#FB8F8F" stroke-width="0.385417" stroke-miterlimit="10"/>
<path d="M205.523 146.56C206.245 145.431 206.664 144.091 206.664 142.65C206.664 141.146 206.207 139.75 205.424 138.59" stroke="#FB8F8F" stroke-width="0.385417" stroke-miterlimit="10"/>
<path d="M193.07 143.559C193.588 143.559 194.008 143.139 194.008 142.622C194.008 142.104 193.588 141.685 193.07 141.685C192.553 141.685 192.133 142.104 192.133 142.622C192.133 143.139 192.553 143.559 193.07 143.559Z" fill="white"/>
<path d="M196.352 143.559C196.869 143.559 197.289 143.139 197.289 142.622C197.289 142.104 196.869 141.685 196.352 141.685C195.834 141.685 195.414 142.104 195.414 142.622C195.414 143.139 195.834 143.559 196.352 143.559Z" fill="white"/>
<path d="M199.633 143.559C200.151 143.559 200.57 143.139 200.57 142.622C200.57 142.104 200.151 141.685 199.633 141.685C199.115 141.685 198.695 142.104 198.695 142.622C198.695 143.139 199.115 143.559 199.633 143.559Z" fill="white"/>
<path d="M249.789 149.624C252.96 149.624 255.531 152.151 255.531 155.272C255.531 156.801 254.91 158.191 253.907 159.207L255.161 160.442H252.102C251.395 160.749 250.612 160.922 249.787 160.922C246.616 160.922 244.045 158.394 244.045 155.274C244.045 152.154 246.618 149.624 249.789 149.624Z" fill="#F9C1DA"/>
<path d="M252.381 156C252.791 156 253.122 155.674 253.122 155.272C253.122 154.869 252.791 154.543 252.381 154.543C251.973 154.543 251.641 154.869 251.641 155.272C251.641 155.674 251.973 156 252.381 156Z" fill="white"/>
<path d="M249.789 156C250.199 156 250.53 155.674 250.53 155.272C250.53 154.869 250.199 154.543 249.789 154.543C249.381 154.543 249.048 154.869 249.048 155.272C249.048 155.674 249.381 156 249.789 156Z" fill="white"/>
<path d="M247.197 156C247.607 156 247.938 155.674 247.938 155.272C247.938 154.869 247.607 154.543 247.197 154.543C246.787 154.543 246.456 154.869 246.456 155.272C246.456 155.674 246.787 156 247.197 156Z" fill="white"/>
<path d="M228.578 113.691V109.24H232.328" stroke="#0061FE" stroke-width="0.385417" stroke-miterlimit="10"/>
<path d="M261.273 109.591H265.727V113.339" stroke="#0061FE" stroke-width="0.385417" stroke-miterlimit="10"/>
<path d="M229.516 152.109H235.141" stroke="#F9C1DA" stroke-width="0.385417" stroke-miterlimit="10"/>
<path d="M229.516 153.163H235.141" stroke="#F9C1DA" stroke-width="0.385417" stroke-miterlimit="10"/>
<path d="M229.516 154.218H235.141" stroke="#F9C1DA" stroke-width="0.385417" stroke-miterlimit="10"/>
<path d="M215.683 116.495H207.515C206.866 116.495 206.338 115.968 206.338 115.319V109.188C206.338 108.539 206.866 108.012 207.515 108.012H215.683C216.332 108.012 216.859 108.539 216.859 109.188V115.319C216.859 115.968 216.332 116.495 215.683 116.495Z" fill="url(#paint26_radial)"/>
<path d="M214.745 115.558H206.577C205.928 115.558 205.401 115.031 205.401 114.382V108.251C205.401 107.602 205.928 107.075 206.577 107.075H214.745C215.395 107.075 215.922 107.602 215.922 108.251V114.382C215.922 115.031 215.395 115.558 214.745 115.558Z" fill="#EECFF8"/>
<path d="M208.394 113.585L212.929 109.05" stroke="#0061FE" stroke-width="0.385417" stroke-miterlimit="10"/>
<path d="M208.394 109.05L212.929 113.585" stroke="#0061FE" stroke-width="0.385417" stroke-miterlimit="10"/>
<path d="M250.061 200.378H294.306C294.761 200.378 295.129 200.011 295.129 199.556C295.129 199.102 294.761 198.734 294.306 198.734H250.061C249.606 198.734 249.238 199.102 249.238 199.556C249.238 200.008 249.606 200.378 250.061 200.378Z" fill="#241921"/>
<path d="M250.061 200.378H279.777C280.232 200.378 280.6 200.011 280.6 199.556C280.6 199.102 280.232 198.734 279.777 198.734H250.061C249.606 198.734 249.238 199.102 249.238 199.556C249.238 200.008 249.606 200.378 250.061 200.378Z" fill="#0061FE"/>
<path d="M242.153 172.958H271.581C271.977 172.958 272.329 173.214 272.453 173.591L280.202 197.113C280.398 197.708 279.956 198.322 279.33 198.322H249.902C249.505 198.322 249.154 198.066 249.03 197.689L241.281 174.167C241.084 173.572 241.527 172.958 242.153 172.958Z" fill="#9B51E0"/>
<path d="M284.092 199.966H286.42C286.609 199.966 286.762 199.811 286.762 199.624C286.762 199.434 286.607 199.282 286.42 199.282H284.092C283.902 199.282 283.75 199.437 283.75 199.624C283.75 199.814 283.905 199.966 284.092 199.966Z" stroke="#F2F6FF" stroke-width="0.385417" stroke-miterlimit="10"/>
<path d="M251.291 200.034H253.619C253.809 200.034 253.961 199.879 253.961 199.692C253.961 199.502 253.806 199.35 253.619 199.35H251.291C251.102 199.35 250.949 199.505 250.949 199.692C250.949 199.882 251.104 200.034 251.291 200.034Z" stroke="#F2F6FF" stroke-width="0.385417" stroke-miterlimit="10"/>
<path d="M282.243 200.034C282.433 200.034 282.585 199.882 282.585 199.692C282.585 199.502 282.433 199.35 282.243 199.35C282.053 199.35 281.901 199.502 281.901 199.692C281.901 199.882 282.055 200.034 282.243 200.034Z" stroke="#F2F6FF" stroke-width="0.385417" stroke-miterlimit="10"/>
<path d="M241.614 173.134C241.764 173.024 241.949 172.958 242.153 172.958H271.581C271.977 172.958 272.329 173.214 272.453 173.591L280.11 196.836L241.614 173.134Z" fill="url(#paint27_radial)"/>
<path d="M261.995 186.632C262.448 185.972 262.127 184.964 261.276 184.382C260.427 183.8 259.37 183.864 258.918 184.525C258.466 185.185 258.787 186.193 259.638 186.775C260.486 187.357 261.543 187.293 261.995 186.632Z" fill="#0144B9"/>
<path d="M246.559 174.755L255.873 180.513" stroke="#BDD9FF" stroke-width="0.385417" stroke-miterlimit="10"/>
<path d="M166.884 256.823H165.28L159.438 212.782H161.39L166.884 256.823Z" fill="#FB8F8F"/>
<path d="M165.072 213.017L168.916 256.589H167.09L161.669 213.017H165.072ZM165.288 212.782H161.404L166.884 256.823H169.171L165.288 212.782Z" fill="white"/>
<path d="M127.914 256.706H129.555L135.538 212.665H133.539L127.914 256.706Z" fill="#FB8F8F"/>
<path d="M133.26 212.9L127.708 256.472H125.828L129.763 212.9H133.26ZM133.525 212.665H129.548L125.57 256.706H127.914L133.525 212.665Z" fill="white"/>
<path d="M154.499 228.361L166.469 219.81L168.812 210.206L153.812 207.394L121.703 211.377L112.094 211.845L104.359 215.828L99.0859 225.784V228.361H154.499Z" fill="white"/>
<path d="M124.595 188.213L119.205 165.49L119.177 165.371L119.127 165.256C119.012 164.991 116.198 158.774 105.627 158.774V160.179V158.774C104.387 158.774 103.075 158.861 101.723 159.034C94.5719 159.943 91.0609 162.85 89.3734 165.127C87.4961 167.664 87.3766 169.974 87.3695 170.227L87.3648 170.393L87.4 170.557L98.4156 222.563L99.0883 225.742L100.945 223.073C103.802 218.967 114.766 214.624 118.75 213.298L119.425 213.073L119.643 212.396L122.221 204.431L122.256 204.323L122.273 204.211L124.616 188.75L124.656 188.48L124.595 188.213Z" fill="white" stroke="#FA404B" stroke-width="0.385417" stroke-miterlimit="10"/>
<path d="M158.68 272.401H157.077L151.234 228.361H153.187L158.68 272.401Z" fill="#FB8F8F"/>
<path d="M156.869 228.595L160.713 272.167H158.887L153.466 228.595H156.869ZM157.084 228.361H153.201L158.68 272.401H160.968L157.084 228.361Z" fill="white"/>
<path d="M105.414 272.401H107.055L113.038 228.361H111.039L105.414 272.401Z" fill="#FB8F8F"/>
<path d="M127.68 193.222L161.835 194.801C165.412 194.967 168.227 197.912 168.227 201.491V201.655H170.336V201.491C170.336 197.912 167.521 194.967 163.945 194.801L129.789 193.222" stroke="#FA404B" stroke-width="0.385417" stroke-miterlimit="10"/>
<path d="M127.68 193.222L161.835 194.801C165.412 194.967 168.227 197.912 168.227 201.491V201.655H170.336V201.491C170.336 197.912 167.521 194.967 163.945 194.801L129.789 193.222" fill="#FA404B"/>
<path d="M99.0859 225.784V228.361H154.499" stroke="#FA404B" stroke-width="0.385417" stroke-miterlimit="10"/>
<path d="M99.6414 224.945H157.328" stroke="#FA404B" stroke-width="0.385417" stroke-miterlimit="10"/>
<path d="M99.7891 222.27L88.7734 170.264C88.7734 170.264 89.0078 162.065 101.898 160.425C114.789 158.786 117.836 165.813 117.836 165.813L123.227 188.537L120.883 203.998L118.305 211.962C118.305 211.962 103.539 216.882 99.7891 222.27Z" fill="#FB8F8F"/>
<path d="M137.064 255.172C137.064 255.172 133.22 259.377 130.551 262.654C129.039 264.509 128.317 266.906 128.645 269.274C128.812 270.478 129.227 271.49 130.138 271.581C132.482 271.816 151.232 271.581 151.232 271.581C151.232 271.581 151.232 269.707 146.31 268.536C141.388 267.365 138.107 266.428 138.107 266.428L144.67 258.229L137.064 255.172Z" fill="#FFDE99"/>
<path d="M137.064 255.172C137.064 255.172 133.22 259.377 130.551 262.654C129.039 264.509 128.317 266.906 128.645 269.274C128.812 270.478 129.227 271.49 130.138 271.581C132.482 271.816 151.232 271.581 151.232 271.581C151.232 271.581 151.232 269.707 146.31 268.536C141.388 267.365 138.107 266.428 138.107 266.428L144.67 258.229L137.064 255.172Z" fill="url(#paint28_radial)"/>
<path d="M174.789 259.049C174.789 259.049 176.664 269.356 179.008 271.464C181.352 273.573 201.977 272.87 201.977 272.87C201.977 272.87 203.617 271.933 197.055 270.527C190.492 269.122 186.156 268.302 185.453 267.131C184.75 265.959 182.992 258.112 182.992 258.112L174.789 259.049Z" fill="#FFDE99"/>
<path d="M174.789 259.049C174.789 259.049 176.664 269.356 179.008 271.464C181.352 273.573 201.977 272.87 201.977 272.87C201.977 272.87 203.617 271.933 197.055 270.527C190.492 269.122 186.156 268.302 185.453 267.131C184.75 265.959 182.992 258.112 182.992 258.112L174.789 259.049Z" fill="url(#paint29_radial)"/>
<path d="M135.241 254.408L138.4 249.795H139.099C139.877 248.528 153.264 226.85 163.003 219.831C165.48 218.046 166.581 216.303 166.279 214.647C165.574 210.794 157.497 208.582 157.415 208.559L157.246 208.514L163.729 200.114L163.804 200.135C163.973 200.182 180.714 204.796 186.717 208.097C187.806 208.697 188.575 209.751 188.824 210.99C189.07 212.225 188.763 213.499 187.982 214.485C182.153 221.829 162.473 246.235 153.996 251.883L148.242 256.945L149.16 257.863L147.405 260.367L135.241 254.408Z" fill="white"/>
<path d="M163.773 200.25C163.773 200.25 180.599 204.869 186.66 208.2C187.727 208.786 188.47 209.821 188.709 211.014C188.948 212.213 188.65 213.455 187.889 214.413C182.758 220.876 162.491 246.08 153.927 251.784L148.068 256.938L149.005 257.875L147.365 260.218L135.412 254.361L138.459 249.91H139.162C139.162 249.91 152.99 227.187 163.068 219.925C173.146 212.663 157.443 208.446 157.443 208.446L163.773 200.25ZM163.684 199.982L163.589 200.107L157.26 208.306L157.045 208.584L157.384 208.676C157.464 208.697 165.471 210.892 166.164 214.671C166.457 216.275 165.372 217.981 162.934 219.738C153.299 226.681 140.109 247.933 139.033 249.678H138.461H138.337L138.266 249.781L135.22 254.232L135.067 254.455L135.311 254.574L147.264 260.431L147.445 260.52L147.559 260.356L149.2 258.013L149.312 257.852L149.174 257.713L148.413 256.952L154.073 251.974C162.571 246.3 182.242 221.907 188.073 214.56C188.877 213.548 189.194 212.239 188.938 210.969C188.683 209.695 187.895 208.613 186.773 207.996C180.756 204.691 164.003 200.071 163.834 200.025L163.684 199.982Z" fill="#0061FE"/>
<path d="M167.289 233.749V216.528L165.766 217.275C165.234 218.107 164.366 218.99 163.07 219.927C152.992 227.189 139.164 249.912 139.164 249.912H138.461L135.414 254.363L147.367 260.22L149.008 257.877L148.07 256.94L143.383 252.724L147.367 245.93C152.055 236.794 167.289 233.749 167.289 233.749Z" fill="url(#paint30_radial)"/>
<path d="M167.289 233.749V216.528L165.766 217.275C165.234 218.107 164.366 218.99 163.07 219.927C152.992 227.189 139.164 249.912 139.164 249.912H138.461L135.414 254.363L147.367 260.22L149.008 257.877L148.07 256.94L143.383 252.724L147.367 245.93C152.055 236.794 167.289 233.749 167.289 233.749Z" fill="url(#paint31_radial)"/>
<path d="M170.413 256.12H172.262C160.987 231.778 161.022 217.578 161.071 215.875C153.374 218.407 141.196 220.103 130.689 220.103C130.687 220.103 130.687 220.103 130.687 220.103C122.181 220.103 115.68 218.995 112.384 216.98C103.947 211.827 110.172 200.948 110.235 200.838L110.268 200.781L149.62 200.149C150.663 200.313 174.667 204.18 175.141 208.669C175.593 212.96 184.019 251.379 184.495 253.541H185.427L186.655 258.208L171.66 260.349L170.413 256.12Z" fill="white"/>
<path d="M149.622 200.268C149.622 200.268 174.555 204.232 175.023 208.683C175.492 213.134 184.398 253.661 184.398 253.661H185.336L186.508 258.112L171.742 260.22L170.57 256.237H172.445C160.258 230 161.195 215.711 161.195 215.711C153.491 218.278 141.273 219.986 130.687 219.986C122.912 219.986 116.02 219.063 112.445 216.882C104.008 211.728 110.336 200.898 110.336 200.898L149.622 200.268ZM149.638 200.034H149.617L110.334 200.664L110.202 200.667L110.137 200.781C110.071 200.894 108.527 203.564 107.997 206.921C107.291 211.407 108.787 214.921 112.323 217.081C115.637 219.105 122.158 220.22 130.687 220.22C141.137 220.22 153.236 218.545 160.952 216.039C160.93 217.093 160.963 220.557 162.023 226.18C163.192 232.392 165.885 242.594 172.082 256.006H170.575H170.261L170.35 256.305L171.522 260.288L171.578 260.482L171.78 260.454L186.545 258.346L186.805 258.308L186.737 258.053L185.566 253.602L185.519 253.426H185.338H184.588C183.934 250.449 175.703 212.893 175.258 208.659C175.141 207.537 173.73 206.429 170.948 205.274C168.81 204.387 165.869 203.48 162.203 202.58C155.973 201.048 149.72 200.048 149.659 200.039L149.638 200.034Z" fill="#0061FE"/>
<path d="M157.328 212.782C157.328 212.782 153.812 212.314 135.297 214.188C127.722 214.954 123.205 213.565 120.515 211.653C117.463 209.489 118.6 204.698 122.287 204.068L137.917 201.393L131.048 200.566L110.336 200.898C110.336 200.898 104.008 211.728 112.445 216.882C120.133 221.576 143.186 220.438 157.328 216.833V212.782Z" fill="url(#paint32_radial)"/>
<path d="M178.188 194.979L178.959 194.824C179.976 194.62 180.895 194.077 181.56 193.283C185.308 188.806 198.278 173.319 203.266 167.336C204.027 166.27 205.105 165.469 206.345 165.045L214.75 162.182C214.75 162.182 216.625 160.308 217.797 158.434V157.029L219.203 154.92V153.983L215.453 156.326L219.906 152.344C219.906 152.344 220.609 151.406 218.031 152.344C215.453 153.281 212.875 155.623 211.469 156.092C210.063 156.56 206.781 157.029 206.781 157.029C206.781 157.029 208.656 155.389 208.891 154.218C209.125 153.046 208.656 152.578 208.656 152.578C208.656 152.578 205.609 155.623 203.734 156.092C201.859 156.56 199.047 159.137 199.047 159.137L198.578 164.056C198.578 164.056 194.594 168.742 190.141 172.49C185.688 176.238 181.22 177.252 179.821 181.312C178.422 185.374 178.188 194.979 178.188 194.979Z" fill="#FFDE99"/>
<path d="M178.188 194.979L178.959 194.824C179.976 194.62 180.895 194.077 181.56 193.283C185.308 188.806 198.278 173.319 203.266 167.336C204.027 166.27 205.105 165.469 206.345 165.045L214.75 162.182C214.75 162.182 216.625 160.308 217.797 158.434V157.029L219.203 154.92V153.983L215.453 156.326L219.906 152.344C219.906 152.344 220.609 151.406 218.031 152.344C215.453 153.281 212.875 155.623 211.469 156.092C210.063 156.56 206.781 157.029 206.781 157.029C206.781 157.029 208.656 155.389 208.891 154.218C209.125 153.046 208.656 152.578 208.656 152.578C208.656 152.578 205.609 155.623 203.734 156.092C201.859 156.56 199.047 159.137 199.047 159.137L198.578 164.056C198.578 164.056 194.594 168.742 190.141 172.49C185.688 176.238 181.22 177.252 179.821 181.312C178.422 185.374 178.188 194.979 178.188 194.979Z" fill="url(#paint33_radial)"/>
<path d="M212.781 162.852C213.109 162.885 215.688 161.948 215.688 161.948L216.625 158.2C216.625 158.2 215.453 158.2 214.047 160.543C214.047 160.543 210.531 161.011 209.594 161.714C208.656 162.417 208.288 164.384 208.288 164.384L212.781 162.852Z" fill="url(#paint34_radial)"/>
<path d="M165.766 133.837L166.356 135.606" stroke="#241921" stroke-width="0.385417" stroke-miterlimit="10"/>
<path d="M154.516 145.081C156.156 141.099 157.094 139.459 157.094 139.459L156.391 134.54L153.095 129.848L146.781 131.494V131.963C146.781 131.963 147.953 138.054 146.078 140.631C144.203 143.207 141.859 146.253 139.75 146.019C137.641 145.784 139.281 146.019 139.281 146.019L144.672 155.155L152.641 154.218L155.922 151.406C155.922 151.406 152.875 149.064 154.516 145.081Z" fill="#FFDE99"/>
<path d="M154.516 145.081C156.156 141.099 157.094 139.459 157.094 139.459L156.391 134.54L153.095 129.848L146.781 131.494V131.963C146.781 131.963 147.953 138.054 146.078 140.631C144.203 143.207 141.859 146.253 139.75 146.019C137.641 145.784 139.281 146.019 139.281 146.019L144.672 155.155L152.641 154.218L155.922 151.406C155.922 151.406 152.875 149.064 154.516 145.081Z" fill="url(#paint35_radial)"/>
<path d="M167.641 125.638C167.641 125.638 165.531 142.27 161.547 144.379C161.547 144.379 150.063 142.505 152.406 131.963C154.75 121.421 167.641 125.638 167.641 125.638Z" fill="#FFDE99"/>
<path d="M166.396 132.83C162.588 131.499 157.797 131.963 157.797 131.963L157.094 140.12L163.091 142.753C164.526 140.462 165.632 136.414 166.396 132.83Z" fill="url(#paint36_radial)"/>
<path d="M151.234 132.431C151.234 132.431 149.125 139.693 150.766 141.099C150.766 141.099 152.406 142.739 153.578 142.739C153.578 142.739 155.922 144.613 158.031 144.379C158.031 144.379 159.672 145.55 160.844 145.081C160.844 145.081 162.25 145.081 162.953 143.91C163.656 142.739 165.145 138.138 165.145 138.138C165.145 138.138 157.563 136.648 157.094 135.008C156.625 133.368 156.859 131.026 156.859 131.026L154.19 128.027L157.563 126.341C157.563 126.341 159.203 128.449 162.016 127.981C162.016 127.981 164.594 128.449 166 126.809C166 126.809 168.109 127.746 170.219 125.404C172.328 123.061 172.094 121.421 172.094 121.421C172.094 121.421 175.375 121.421 175.141 119.313C174.906 117.205 172.797 114.393 169.516 114.862C166.234 115.331 162.484 116.033 162.484 116.033C162.016 115.799 159.906 115.096 159.906 115.096C159.906 115.096 159.672 114.393 158.969 114.393C158.266 114.393 155.219 115.096 153.813 114.393C152.406 113.691 149.125 113.456 148.188 114.393C147.25 115.331 146.313 119.079 146.313 119.079C146.313 119.079 142.094 120.953 143.031 124.232C143.969 127.512 144.438 126.809 144.438 128.918C144.438 131.026 143.031 131.963 144.438 132.666C145.844 133.368 147.953 133.837 147.953 133.837L151.234 132.431Z" fill="#FB8F8F"/>
<path d="M151.234 132.431C151.234 132.431 149.125 139.693 150.766 141.099C150.766 141.099 152.406 142.739 153.578 142.739C153.578 142.739 155.922 144.613 158.031 144.379C158.031 144.379 159.672 145.55 160.844 145.081C160.844 145.081 162.25 145.081 162.953 143.91C163.656 142.739 165.145 138.138 165.145 138.138C165.145 138.138 157.563 136.648 157.094 135.008C156.625 133.368 156.859 131.026 156.859 131.026L154.19 128.027L157.563 126.341C157.563 126.341 159.203 128.449 162.016 127.981C162.016 127.981 164.594 128.449 166 126.809C166 126.809 168.109 127.746 170.219 125.404C172.328 123.061 172.094 121.421 172.094 121.421C172.094 121.421 175.375 121.421 175.141 119.313C174.906 117.205 172.797 114.393 169.516 114.862C166.234 115.331 162.484 116.033 162.484 116.033C162.016 115.799 159.906 115.096 159.906 115.096C159.906 115.096 159.672 114.393 158.969 114.393C158.266 114.393 155.219 115.096 153.813 114.393C152.406 113.691 149.125 113.456 148.188 114.393C147.25 115.331 146.313 119.079 146.313 119.079C146.313 119.079 142.094 120.953 143.031 124.232C143.969 127.512 144.438 126.809 144.438 128.918C144.438 131.026 143.031 131.963 144.438 132.666C145.844 133.368 147.953 133.837 147.953 133.837L151.234 132.431Z" fill="url(#paint37_radial)"/>
<path d="M151.117 136.297C154.483 136.297 157.211 133.57 157.211 130.206C157.211 126.842 154.483 124.115 151.117 124.115C147.752 124.115 145.023 126.842 145.023 130.206C145.023 133.57 147.752 136.297 151.117 136.297Z" fill="#241921"/>
<path d="M151.938 136.414C155.303 136.414 158.031 133.687 158.031 130.323C158.031 126.959 155.303 124.232 151.938 124.232C148.572 124.232 145.844 126.959 145.844 130.323C145.844 133.687 148.572 136.414 151.938 136.414Z" stroke="#241921" stroke-width="0.385417" stroke-miterlimit="10"/>
<path d="M153.339 125.982L151.708 125.059L153.187 122.452C154.856 119.51 157.279 117.076 160.213 115.396C160.405 115.286 160.631 115.253 160.849 115.3L162.541 115.663C162.773 115.712 162.824 116.022 162.621 116.143L161.413 116.872C158.652 118.388 156.37 120.637 154.818 123.377L153.339 125.982Z" fill="#241921"/>
<path d="M166.356 135.606L166.511 136.072C166.933 137.339 166.834 138.724 166.237 139.921L165.766 140.865" stroke="#241921" stroke-width="0.385417" stroke-miterlimit="10"/>
<path d="M165.531 141.568C166.049 141.568 166.469 141.148 166.469 140.631C166.469 140.113 166.049 139.694 165.531 139.694C165.014 139.694 164.594 140.113 164.594 140.631C164.594 141.148 165.014 141.568 165.531 141.568Z" fill="#241921"/>
<path d="M171.039 242.885C167.992 231.406 167.055 212.9 167.055 212.9L159.32 215.476L159.205 216.327C159.897 216.128 160.563 215.921 161.195 215.711C161.195 215.711 160.258 230 172.445 256.237L182.992 254.363C182.992 254.363 174.086 254.363 171.039 242.885Z" fill="url(#paint38_radial)"/>
<path d="M139.75 146.019C139.75 146.019 134.125 144.144 127.797 146.019C127.797 146.019 111.156 174.364 108.109 174.832C105.063 175.301 108.109 177.878 108.109 177.878C108.109 177.878 106 177.878 106.703 179.049C106.703 179.049 116.781 176.472 119.828 176.941C122.875 177.409 121.234 179.986 121.234 179.986L115.375 187.717C115.375 187.717 108.813 196.384 108.578 199.898C108.344 203.412 155.219 200.601 155.219 200.601L157.328 197.321C157.328 197.321 157.797 191.231 159.906 185.14C162.016 179.049 162.719 176.238 162.719 176.238C162.719 176.238 168.344 187.717 172.094 190.996C175.844 194.276 175.844 192.87 175.844 192.87C175.844 192.87 176.312 195.447 178.187 195.213C178.187 195.213 178.422 182.094 181 179.049C181 179.049 180.766 175.535 178.891 176.238L177.484 176.941C177.484 176.941 177.953 175.535 176.547 175.301C176.547 175.301 168.435 160.917 166.703 157.263C164.594 152.812 155.922 151.406 155.922 151.406C155.922 151.406 146.547 156.56 139.75 146.019Z" fill="#833CC5"/>
<path d="M156.091 219.693C155.113 219.693 154.199 219.255 153.583 218.494L140.465 202.276C140.123 201.852 140.013 201.287 140.174 200.765C140.336 200.247 140.739 199.844 141.257 199.69L157.642 194.798C157.942 194.709 158.252 194.665 158.561 194.665C159.539 194.665 160.453 195.103 161.069 195.864L174.192 212.08C174.534 212.504 174.644 213.068 174.48 213.591C174.318 214.108 173.915 214.511 173.397 214.666L157.01 219.557C156.712 219.649 156.402 219.693 156.091 219.693Z" fill="white"/>
<path d="M158.563 194.78C159.505 194.78 160.387 195.201 160.98 195.937L174.098 212.155C174.416 212.548 174.517 213.073 174.367 213.558C174.215 214.045 173.849 214.41 173.362 214.556L156.974 219.447C156.686 219.534 156.388 219.576 156.088 219.576C155.146 219.576 154.267 219.154 153.672 218.419L140.554 202.201C140.235 201.807 140.134 201.283 140.284 200.798C140.437 200.31 140.802 199.945 141.29 199.8L157.675 194.908C157.966 194.824 158.266 194.78 158.563 194.78ZM158.563 194.545C158.245 194.545 157.926 194.59 157.609 194.686L141.224 199.577C140.038 199.931 139.593 201.383 140.373 202.348L153.491 218.566C154.138 219.365 155.099 219.81 156.091 219.81C156.407 219.81 156.728 219.766 157.042 219.67L173.43 214.778C174.616 214.425 175.061 212.972 174.28 212.007L161.163 195.789C160.518 194.99 159.557 194.545 158.563 194.545Z" fill="#0061FE"/>
<path d="M157.734 193.749L141.107 198.68C139.905 199.036 139.452 200.503 140.245 201.475L153.555 217.819C154.422 218.883 155.842 219.321 157.159 218.932L173.786 214.001C174.988 213.644 175.441 212.178 174.648 211.206L161.338 194.862C160.471 193.798 159.048 193.36 157.734 193.749Z" fill="#0061FE"/>
<path d="M156.782 203.499L156.194 205.434L157.68 207.455L159.749 207.542L160.337 205.607L158.852 203.585L156.782 203.499Z" fill="url(#paint39_radial)"/>
<path d="M161.24 217.721L173.784 214.001C174.986 213.644 175.438 212.178 174.646 211.206L163.286 197.256L161.24 217.721Z" fill="url(#paint40_radial)"/>
<path d="M106.586 179.166L105.013 184.058C104.695 185.053 105.06 186.138 105.918 186.735C107.249 187.66 109.188 188.991 110.336 189.71C111.494 190.434 124.164 194.161 134.008 195.332C143.852 196.504 147.367 197.441 147.367 197.441C147.367 197.441 151.328 202.606 153.346 204.375C153.773 204.747 154.396 204.782 154.867 204.469C154.867 204.469 156.039 205.64 158.148 205.64L158.383 205.171C158.662 204.893 158.732 204.464 158.556 204.11L155.57 198.141C155.57 198.141 159.32 204.466 161.195 203.763C161.195 203.763 157.445 196.97 156.508 195.33C155.57 193.69 154.867 193.222 154.867 193.222C154.867 193.222 150.648 193.69 149.242 192.987C147.836 192.285 124.237 182.771 119.514 182.258C119.514 182.258 121.736 180.333 121.661 178.344C121.586 176.355 117.14 177.009 114.442 177.383C111.742 177.761 106.586 179.166 106.586 179.166Z" fill="#FFDE99"/>
<path d="M106.586 179.166L105.013 184.058C104.695 185.053 105.06 186.138 105.918 186.735C107.249 187.66 109.188 188.991 110.336 189.71C111.494 190.434 124.164 194.161 134.008 195.332C143.852 196.504 147.367 197.441 147.367 197.441C147.367 197.441 151.328 202.606 153.346 204.375C153.773 204.747 154.396 204.782 154.867 204.469C154.867 204.469 156.039 205.64 158.148 205.64L158.383 205.171C158.662 204.893 158.732 204.464 158.556 204.11L155.57 198.141C155.57 198.141 159.32 204.466 161.195 203.763C161.195 203.763 157.445 196.97 156.508 195.33C155.57 193.69 154.867 193.222 154.867 193.222C154.867 193.222 150.648 193.69 149.242 192.987C147.836 192.285 124.237 182.771 119.514 182.258C119.514 182.258 121.736 180.333 121.661 178.344C121.586 176.355 117.14 177.009 114.442 177.383C111.742 177.761 106.586 179.166 106.586 179.166Z" fill="url(#paint41_radial)"/>
<path d="M161.195 203.763C161.195 203.763 157.445 196.97 156.508 195.33C155.57 193.69 154.867 193.222 154.867 193.222C154.867 193.222 154.848 193.224 154.816 193.226C154.792 193.264 154.769 193.297 154.75 193.339C153.578 195.681 151.234 198.024 151.234 198.024L154.729 204.543C154.776 204.52 154.823 204.497 154.867 204.466C154.867 204.466 156.039 205.637 158.148 205.637L158.383 205.169C158.662 204.89 158.732 204.461 158.556 204.108L155.57 198.141C155.57 198.141 159.32 204.466 161.195 203.763Z" fill="url(#paint42_radial)"/>
<path d="M173.896 255.98L182.992 254.363" stroke="#0061FE" stroke-width="0.385417" stroke-miterlimit="10"/>
<path d="M141.273 251.084L147.29 256.237" stroke="#0061FE" stroke-width="0.385417" stroke-miterlimit="10"/>
<path d="M180.883 220.396C180.883 220.396 186.977 213.837 186.977 211.728C186.977 209.62 185.57 209.151 185.57 209.151" stroke="#0061FE" stroke-width="0.385417" stroke-miterlimit="10"/>
<path d="M115.727 215.945C115.727 215.945 122.289 219.225 133.07 218.053" stroke="#0061FE" stroke-width="0.385417" stroke-miterlimit="10"/>
<path d="M177.367 177.995C177.367 177.995 175.258 183.149 175.492 189.474" stroke="#DEF4FF" stroke-width="0.385417" stroke-miterlimit="10"/>
<path d="M175.727 175.652C175.727 175.652 174.32 178.463 173.852 183.383" stroke="#DEF4FF" stroke-width="0.385417" stroke-miterlimit="10"/>
<path d="M108.695 177.058C108.695 177.058 118.305 173.544 121.352 175.652C124.398 177.761 124.398 174.95 124.398 174.95C124.398 174.95 124.164 174.012 121.586 173.31" stroke="#DEF4FF" stroke-width="0.385417" stroke-miterlimit="10"/>
<path d="M121.654 178.913C121.654 178.913 125.336 178.932 125.57 176.355C125.805 173.778 125.805 174.012 128.148 170.967C130.492 167.922 132.602 161.831 132.602 161.831" stroke="#DEF4FF" stroke-width="0.385417" stroke-miterlimit="10"/>
<path d="M92.7578 195.447L126.913 197.026C130.49 197.192 133.305 200.137 133.305 203.717V203.881H135.414V203.717C135.414 200.137 132.599 197.192 129.023 197.026L94.8672 195.447" stroke="#FA404B" stroke-width="0.385417" stroke-miterlimit="10"/>
<path d="M92.7578 195.447L126.913 197.026C130.49 197.192 133.305 200.137 133.305 203.717V203.881H135.414V203.717C135.414 200.137 132.599 197.192 129.023 197.026L94.8672 195.447" fill="#FA404B"/>
<path d="M144.32 224.847V228.361" stroke="#FA404B" stroke-width="0.385417" stroke-miterlimit="10"/>
<path d="M110.76 228.595L105.208 272.167H103.328L107.263 228.595H110.76ZM111.025 228.361H107.048L103.07 272.401H105.414L111.025 228.361Z" fill="white"/>
</g>
<defs>
<radialGradient id="paint0_radial" cx="0" cy="0" r="1" gradientUnits="userSpaceOnUse" gradientTransform="translate(96.9648 213.493) rotate(-0.425116) scale(144.927 77.6813)">
<stop offset="0.131" stop-color="#9B51E0"/>
<stop offset="1" stop-color="white" stop-opacity="0"/>
</radialGradient>
<radialGradient id="paint1_radial" cx="0" cy="0" r="1" gradientUnits="userSpaceOnUse" gradientTransform="translate(340.729 198.905) rotate(-0.471554) scale(112.281 78.1112)">
<stop offset="0.131" stop-color="#BB6BD9"/>
<stop offset="1" stop-color="white" stop-opacity="0"/>
</radialGradient>
<radialGradient id="paint2_radial" cx="0" cy="0" r="1" gradientUnits="userSpaceOnUse" gradientTransform="translate(381.367 218.903) scale(37.9454 37.9266)">
<stop offset="0.0775" stop-color="#541A8A"/>
<stop offset="1" stop-color="#0060FB" stop-opacity="0"/>
<stop offset="1" stop-color="#9B51E0"/>
</radialGradient>
<radialGradient id="paint3_radial" cx="0" cy="0" r="1" gradientUnits="userSpaceOnUse" gradientTransform="translate(388.942 149.289) scale(49.2132 49.1888)">
<stop offset="0.0775" stop-color="#0144B9"/>
<stop offset="1" stop-color="#FB8F8F" stop-opacity="0"/>
</radialGradient>
<radialGradient id="paint4_radial" cx="0" cy="0" r="1" gradientUnits="userSpaceOnUse" gradientTransform="translate(389.423 133.674) scale(52.0725 52.0468)">
<stop offset="0.0775" stop-color="#0144B9"/>
<stop offset="1" stop-color="#FB8F8F" stop-opacity="0"/>
</radialGradient>
<radialGradient id="paint5_radial" cx="0" cy="0" r="1" gradientUnits="userSpaceOnUse" gradientTransform="translate(355.133 152.196) scale(50.7542 50.7288)">
<stop offset="0.0775" stop-color="#0144B9"/>
<stop offset="1" stop-color="#FB8F8F" stop-opacity="0"/>
</radialGradient>
<radialGradient id="paint6_radial" cx="0" cy="0" r="1" gradientUnits="userSpaceOnUse" gradientTransform="translate(299.552 157.963) scale(119.281 119.223)">
<stop stop-color="#335BFC"/>
<stop offset="0.1457" stop-color="#6886FD"/>
<stop offset="0.2916" stop-color="#96ABFD"/>
<stop offset="0.4383" stop-color="#BCC9FE"/>
<stop offset="0.5833" stop-color="#D9E1FE"/>
<stop offset="0.7263" stop-color="#EEF1FF"/>
<stop offset="0.8663" stop-color="#FBFCFF"/>
<stop offset="1" stop-color="white"/>
</radialGradient>
<radialGradient id="paint7_radial" cx="0" cy="0" r="1" gradientUnits="userSpaceOnUse" gradientTransform="translate(274.352 223.409) scale(22.5144 22.5033)">
<stop offset="0.0775" stop-color="#0144B9"/>
<stop offset="1" stop-color="#FB8F8F" stop-opacity="0"/>
</radialGradient>
<radialGradient id="paint8_radial" cx="0" cy="0" r="1" gradientUnits="userSpaceOnUse" gradientTransform="translate(345.063 197.403) scale(43.0655 43.0442)">
<stop offset="0.0775" stop-color="#0144B9"/>
<stop offset="1" stop-color="#FB8F8F" stop-opacity="0"/>
</radialGradient>
<radialGradient id="paint9_radial" cx="0" cy="0" r="1" gradientUnits="userSpaceOnUse" gradientTransform="translate(261.707 192.879) scale(44.1652 44.1434)">
<stop offset="0.0775" stop-color="#0144B9"/>
<stop offset="1" stop-color="#FB8F8F" stop-opacity="0"/>
</radialGradient>
<radialGradient id="paint10_radial" cx="0" cy="0" r="1" gradientUnits="userSpaceOnUse" gradientTransform="translate(267.742 163.773) scale(8.44245 8.43827)">
<stop stop-color="#FA404B"/>
<stop offset="0.025" stop-color="#FA484F" stop-opacity="0.975"/>
<stop offset="0.1916" stop-color="#FC7565" stop-opacity="0.8084"/>
<stop offset="0.3589" stop-color="#FD9B78" stop-opacity="0.6411"/>
<stop offset="0.5244" stop-color="#FEB886" stop-opacity="0.4756"/>
<stop offset="0.6876" stop-color="#FECD91" stop-opacity="0.3124"/>
<stop offset="0.8474" stop-color="#FFDA97" stop-opacity="0.1526"/>
<stop offset="1" stop-color="#FFDE99" stop-opacity="0"/>
</radialGradient>
<radialGradient id="paint11_radial" cx="0" cy="0" r="1" gradientUnits="userSpaceOnUse" gradientTransform="translate(265.054 161.275) scale(9.94565 9.94074)">
<stop stop-color="#FA404B"/>
<stop offset="0.025" stop-color="#FA484F" stop-opacity="0.975"/>
<stop offset="0.1916" stop-color="#FC7565" stop-opacity="0.8084"/>
<stop offset="0.3589" stop-color="#FD9B78" stop-opacity="0.6411"/>
<stop offset="0.5244" stop-color="#FEB886" stop-opacity="0.4756"/>
<stop offset="0.6876" stop-color="#FECD91" stop-opacity="0.3124"/>
<stop offset="0.8474" stop-color="#FFDA97" stop-opacity="0.1526"/>
<stop offset="1" stop-color="#FFDE99" stop-opacity="0"/>
</radialGradient>
<radialGradient id="paint12_radial" cx="0" cy="0" r="1" gradientUnits="userSpaceOnUse" gradientTransform="translate(299.298 176.103) scale(17.4266 17.418)">
<stop stop-color="#FA404B"/>
<stop offset="0.025" stop-color="#FA484F" stop-opacity="0.975"/>
<stop offset="0.1916" stop-color="#FC7565" stop-opacity="0.8084"/>
<stop offset="0.3589" stop-color="#FD9B78" stop-opacity="0.6411"/>
<stop offset="0.5244" stop-color="#FEB886" stop-opacity="0.4756"/>
<stop offset="0.6876" stop-color="#FECD91" stop-opacity="0.3124"/>
<stop offset="0.8474" stop-color="#FFDA97" stop-opacity="0.1526"/>
<stop offset="1" stop-color="#FFDE99" stop-opacity="0"/>
</radialGradient>
<radialGradient id="paint13_radial" cx="0" cy="0" r="1" gradientUnits="userSpaceOnUse" gradientTransform="translate(299.99 139.504) scale(30.0854 30.0705)">
<stop stop-color="#FA404B"/>
<stop offset="0.025" stop-color="#FA484F" stop-opacity="0.975"/>
<stop offset="0.1916" stop-color="#FC7565" stop-opacity="0.8084"/>
<stop offset="0.3589" stop-color="#FD9B78" stop-opacity="0.6411"/>
<stop offset="0.5244" stop-color="#FEB886" stop-opacity="0.4756"/>
<stop offset="0.6876" stop-color="#FECD91" stop-opacity="0.3124"/>
<stop offset="0.8474" stop-color="#FFDA97" stop-opacity="0.1526"/>
<stop offset="1" stop-color="#FFDE99" stop-opacity="0"/>
</radialGradient>
<radialGradient id="paint14_radial" cx="0" cy="0" r="1" gradientUnits="userSpaceOnUse" gradientTransform="translate(314.746 144.216) scale(15.6775 15.6697)">
<stop offset="0.0775" stop-color="#0144B9"/>
<stop offset="1" stop-color="#0060FB" stop-opacity="0"/>
</radialGradient>
<radialGradient id="paint15_radial" cx="0" cy="0" r="1" gradientUnits="userSpaceOnUse" gradientTransform="translate(317.528 183.517) scale(20.5363 20.5262)">
<stop offset="0.0775" stop-color="#BB6BD9"/>
<stop offset="1" stop-color="#9B51E0"/>
</radialGradient>
<radialGradient id="paint16_radial" cx="0" cy="0" r="1" gradientUnits="userSpaceOnUse" gradientTransform="translate(306.088 130.425) scale(30.8782 30.863)">
<stop stop-color="#FA404B"/>
<stop offset="0.025" stop-color="#FA484F" stop-opacity="0.975"/>
<stop offset="0.1916" stop-color="#FC7565" stop-opacity="0.8084"/>
<stop offset="0.3589" stop-color="#FD9B78" stop-opacity="0.6411"/>
<stop offset="0.5244" stop-color="#FEB886" stop-opacity="0.4756"/>
<stop offset="0.6876" stop-color="#FECD91" stop-opacity="0.3124"/>
<stop offset="0.8474" stop-color="#FFDA97" stop-opacity="0.1526"/>
<stop offset="1" stop-color="#FFDE99" stop-opacity="0"/>
</radialGradient>
<radialGradient id="paint17_radial" cx="0" cy="0" r="1" gradientUnits="userSpaceOnUse" gradientTransform="translate(293.98 128.71) scale(12.0383 12.0323)">
<stop stop-color="#FA404B"/>
<stop offset="0.025" stop-color="#FA484F" stop-opacity="0.975"/>
<stop offset="0.1916" stop-color="#FC7565" stop-opacity="0.8084"/>
<stop offset="0.3589" stop-color="#FD9B78" stop-opacity="0.6411"/>
<stop offset="0.5244" stop-color="#FEB886" stop-opacity="0.4756"/>
<stop offset="0.6876" stop-color="#FECD91" stop-opacity="0.3124"/>
<stop offset="0.8474" stop-color="#FFDA97" stop-opacity="0.1526"/>
<stop offset="1" stop-color="#FFDE99" stop-opacity="0"/>
</radialGradient>
<radialGradient id="paint18_radial" cx="0" cy="0" r="1" gradientUnits="userSpaceOnUse" gradientTransform="translate(326.298 132.152) scale(36.8351 36.8169)">
<stop stop-color="#BB6BD9"/>
<stop offset="0.025" stop-color="#FA484F" stop-opacity="0.975"/>
<stop offset="0.1916" stop-color="#FC7565" stop-opacity="0.8084"/>
<stop offset="0.3589" stop-color="#FD9B78" stop-opacity="0.6411"/>
<stop offset="0.5244" stop-color="#FEB886" stop-opacity="0.4756"/>
<stop offset="0.6876" stop-color="#FECD91" stop-opacity="0.3124"/>
<stop offset="0.8474" stop-color="#FFDA97" stop-opacity="0.1526"/>
<stop offset="1" stop-color="#9B51E0"/>
</radialGradient>
<radialGradient id="paint19_radial" cx="0" cy="0" r="1" gradientUnits="userSpaceOnUse" gradientTransform="translate(325.764 177.548) scale(17.7674 17.7586)">
<stop offset="0.0775" stop-color="#9B51E0"/>
<stop offset="1" stop-color="#BB6BD9"/>
</radialGradient>
<radialGradient id="paint20_radial" cx="0" cy="0" r="1" gradientUnits="userSpaceOnUse" gradientTransform="translate(305.959 163.748) scale(17.097 17.0885)">
<stop offset="0.0775" stop-color="#BB6BD9"/>
<stop offset="1" stop-color="#DF39FA" stop-opacity="0"/>
</radialGradient>
<radialGradient id="paint21_radial" cx="0" cy="0" r="1" gradientUnits="userSpaceOnUse" gradientTransform="translate(301.122 188.104) scale(5.51085 5.50808)">
<stop stop-color="#FA404B"/>
<stop offset="0.025" stop-color="#FA484F" stop-opacity="0.975"/>
<stop offset="0.1916" stop-color="#FC7565" stop-opacity="0.8084"/>
<stop offset="0.3589" stop-color="#FD9B78" stop-opacity="0.6411"/>
<stop offset="0.5244" stop-color="#FEB886" stop-opacity="0.4756"/>
<stop offset="0.6876" stop-color="#FECD91" stop-opacity="0.3124"/>
<stop offset="0.8474" stop-color="#FFDA97" stop-opacity="0.1526"/>
<stop offset="1" stop-color="#FFDE99" stop-opacity="0"/>
</radialGradient>
<radialGradient id="paint22_radial" cx="0" cy="0" r="1" gradientUnits="userSpaceOnUse" gradientTransform="translate(311.305 202.304) scale(32.4178 32.4019)">
<stop stop-color="#FA404B"/>
<stop offset="0.025" stop-color="#FA484F" stop-opacity="0.975"/>
<stop offset="0.1916" stop-color="#FC7565" stop-opacity="0.8084"/>
<stop offset="0.3589" stop-color="#FD9B78" stop-opacity="0.6411"/>
<stop offset="0.5244" stop-color="#FEB886" stop-opacity="0.4756"/>
<stop offset="0.6876" stop-color="#FECD91" stop-opacity="0.3124"/>
<stop offset="0.8474" stop-color="#FFDA97" stop-opacity="0.1526"/>
<stop offset="1" stop-color="#FFDE99" stop-opacity="0"/>
</radialGradient>
<radialGradient id="paint23_radial" cx="0" cy="0" r="1" gradientUnits="userSpaceOnUse" gradientTransform="translate(244.56 160.927) rotate(180) scale(28.9687 28.9313)">
<stop stop-color="#FA404B"/>
<stop offset="0.025" stop-color="#FA484F" stop-opacity="0.975"/>
<stop offset="0.1916" stop-color="#FC7565" stop-opacity="0.8084"/>
<stop offset="0.3589" stop-color="#FD9B78" stop-opacity="0.6411"/>
<stop offset="0.5244" stop-color="#FEB886" stop-opacity="0.4756"/>
<stop offset="0.6876" stop-color="#FECD91" stop-opacity="0.3124"/>
<stop offset="0.8474" stop-color="#FFDA97" stop-opacity="0.1526"/>
<stop offset="1" stop-color="#FFDE99" stop-opacity="0"/>
</radialGradient>
<radialGradient id="paint24_radial" cx="0" cy="0" r="1" gradientUnits="userSpaceOnUse" gradientTransform="translate(253.049 90.938) scale(73.2801 73.244)">
<stop stop-color="#335BFC"/>
<stop offset="0.1457" stop-color="#6886FD" stop-opacity="0.8543"/>
<stop offset="0.2916" stop-color="#96ABFD" stop-opacity="0.7084"/>
<stop offset="0.4383" stop-color="#BCC9FE" stop-opacity="0.5617"/>
<stop offset="0.5833" stop-color="#D9E1FE" stop-opacity="0.4167"/>
<stop offset="0.7263" stop-color="#EEF1FF" stop-opacity="0.2737"/>
<stop offset="0.8663" stop-color="#FBFCFF" stop-opacity="0.1337"/>
<stop offset="1" stop-color="white" stop-opacity="0"/>
</radialGradient>
<radialGradient id="paint25_radial" cx="0" cy="0" r="1" gradientUnits="userSpaceOnUse" gradientTransform="translate(265.762 116.854) scale(64.7112 64.6792)">
<stop stop-color="#FA404B"/>
<stop offset="0.025" stop-color="#FA484F" stop-opacity="0.975"/>
<stop offset="0.1916" stop-color="#FC7565" stop-opacity="0.8084"/>
<stop offset="0.3589" stop-color="#FD9B78" stop-opacity="0.6411"/>
<stop offset="0.5244" stop-color="#FEB886" stop-opacity="0.4756"/>
<stop offset="0.6876" stop-color="#FECD91" stop-opacity="0.3124"/>
<stop offset="0.8474" stop-color="#FFDA97" stop-opacity="0.1526"/>
<stop offset="1" stop-color="#FFDE99" stop-opacity="0"/>
</radialGradient>
<radialGradient id="paint26_radial" cx="0" cy="0" r="1" gradientUnits="userSpaceOnUse" gradientTransform="translate(209.853 121.214) scale(17.755 17.7462)">
<stop stop-color="#335BFC"/>
<stop offset="0.1457" stop-color="#6886FD" stop-opacity="0.8543"/>
<stop offset="0.2916" stop-color="#96ABFD" stop-opacity="0.7084"/>
<stop offset="0.4383" stop-color="#BCC9FE" stop-opacity="0.5617"/>
<stop offset="0.5833" stop-color="#D9E1FE" stop-opacity="0.4167"/>
<stop offset="0.7263" stop-color="#EEF1FF" stop-opacity="0.2737"/>
<stop offset="0.8663" stop-color="#FBFCFF" stop-opacity="0.1337"/>
<stop offset="1" stop-color="white" stop-opacity="0"/>
</radialGradient>
<radialGradient id="paint27_radial" cx="0" cy="0" r="1" gradientUnits="userSpaceOnUse" gradientTransform="translate(255.477 164.161) rotate(180) scale(30.2944 30.3249)">
<stop offset="0.1096" stop-color="#BDD9FF"/>
<stop offset="1" stop-color="#0061FE" stop-opacity="0"/>
</radialGradient>
<radialGradient id="paint28_radial" cx="0" cy="0" r="1" gradientUnits="userSpaceOnUse" gradientTransform="translate(121.831 247.002) scale(41.1401 41.1198)">
<stop stop-color="#FA404B"/>
<stop offset="0.025" stop-color="#FA484F" stop-opacity="0.975"/>
<stop offset="0.1916" stop-color="#FC7565" stop-opacity="0.8084"/>
<stop offset="0.3589" stop-color="#FD9B78" stop-opacity="0.6411"/>
<stop offset="0.5244" stop-color="#FEB886" stop-opacity="0.4756"/>
<stop offset="0.6876" stop-color="#FECD91" stop-opacity="0.3124"/>
<stop offset="0.8474" stop-color="#FFDA97" stop-opacity="0.1526"/>
<stop offset="1" stop-color="#FFDE99" stop-opacity="0"/>
</radialGradient>
<radialGradient id="paint29_radial" cx="0" cy="0" r="1" gradientUnits="userSpaceOnUse" gradientTransform="translate(173.522 252.328) scale(28.203 28.1891)">
<stop stop-color="#FA404B"/>
<stop offset="0.025" stop-color="#FA484F" stop-opacity="0.975"/>
<stop offset="0.1916" stop-color="#FC7565" stop-opacity="0.8084"/>
<stop offset="0.3589" stop-color="#FD9B78" stop-opacity="0.6411"/>
<stop offset="0.5244" stop-color="#FEB886" stop-opacity="0.4756"/>
<stop offset="0.6876" stop-color="#FECD91" stop-opacity="0.3124"/>
<stop offset="0.8474" stop-color="#FFDA97" stop-opacity="0.1526"/>
<stop offset="1" stop-color="#FFDE99" stop-opacity="0"/>
</radialGradient>
<radialGradient id="paint30_radial" cx="0" cy="0" r="1" gradientUnits="userSpaceOnUse" gradientTransform="translate(158.779 220.903) scale(36.8367 36.8185)">
<stop offset="0.0829" stop-color="#F2F6FF"/>
<stop offset="0.484" stop-color="#FBFCFF" stop-opacity="0.5627"/>
<stop offset="1" stop-color="white" stop-opacity="0"/>
</radialGradient>
<radialGradient id="paint31_radial" cx="0" cy="0" r="1" gradientUnits="userSpaceOnUse" gradientTransform="translate(140.394 254.369) scale(29.1406 29.1261)">
<stop offset="0.0829" stop-color="#F2F6FF"/>
<stop offset="0.484" stop-color="#FBFCFF" stop-opacity="0.5627"/>
<stop offset="1" stop-color="white" stop-opacity="0"/>
</radialGradient>
<radialGradient id="paint32_radial" cx="0" cy="0" r="1" gradientUnits="userSpaceOnUse" gradientTransform="translate(107.473 197.141) scale(104.547 104.496)">
<stop offset="0.0829" stop-color="#F2F6FF"/>
<stop offset="0.484" stop-color="#FBFCFF" stop-opacity="0.5627"/>
<stop offset="1" stop-color="white" stop-opacity="0"/>
</radialGradient>
<radialGradient id="paint33_radial" cx="0" cy="0" r="1" gradientUnits="userSpaceOnUse" gradientTransform="translate(181.427 200.041) scale(30.5482 30.5331)">
<stop stop-color="#FA404B"/>
<stop offset="0.025" stop-color="#FA484F" stop-opacity="0.975"/>
<stop offset="0.1916" stop-color="#FC7565" stop-opacity="0.8084"/>
<stop offset="0.3589" stop-color="#FD9B78" stop-opacity="0.6411"/>
<stop offset="0.5244" stop-color="#FEB886" stop-opacity="0.4756"/>
<stop offset="0.6876" stop-color="#FECD91" stop-opacity="0.3124"/>
<stop offset="0.8474" stop-color="#FFDA97" stop-opacity="0.1526"/>
<stop offset="1" stop-color="#FFDE99" stop-opacity="0"/>
</radialGradient>
<radialGradient id="paint34_radial" cx="0" cy="0" r="1" gradientUnits="userSpaceOnUse" gradientTransform="translate(233.162 157.386) scale(24.624 24.6117)">
<stop stop-color="#FA404B"/>
<stop offset="0.138" stop-color="#FB635C"/>
<stop offset="0.3337" stop-color="#FC8F72"/>
<stop offset="0.5231" stop-color="#FEB183"/>
<stop offset="0.7018" stop-color="#FECA8F"/>
<stop offset="0.8654" stop-color="#FFD996"/>
<stop offset="1" stop-color="#FFDE99"/>
</radialGradient>
<radialGradient id="paint35_radial" cx="0" cy="0" r="1" gradientUnits="userSpaceOnUse" gradientTransform="translate(157.624 142.073) scale(16.4163 16.4082)">
<stop stop-color="#FA404B"/>
<stop offset="0.025" stop-color="#FA484F" stop-opacity="0.975"/>
<stop offset="0.1916" stop-color="#FC7565" stop-opacity="0.8084"/>
<stop offset="0.3589" stop-color="#FD9B78" stop-opacity="0.6411"/>
<stop offset="0.5244" stop-color="#FEB886" stop-opacity="0.4756"/>
<stop offset="0.6876" stop-color="#FECD91" stop-opacity="0.3124"/>
<stop offset="0.8474" stop-color="#FFDA97" stop-opacity="0.1526"/>
<stop offset="1" stop-color="#FFDE99" stop-opacity="0"/>
</radialGradient>
<radialGradient id="paint36_radial" cx="0" cy="0" r="1" gradientUnits="userSpaceOnUse" gradientTransform="translate(164.818 128.935) scale(11.7055 11.6997)">
<stop stop-color="#FA404B"/>
<stop offset="0.025" stop-color="#FA484F" stop-opacity="0.975"/>
<stop offset="0.1916" stop-color="#FC7565" stop-opacity="0.8084"/>
<stop offset="0.3589" stop-color="#FD9B78" stop-opacity="0.6411"/>
<stop offset="0.5244" stop-color="#FEB886" stop-opacity="0.4756"/>
<stop offset="0.6876" stop-color="#FECD91" stop-opacity="0.3124"/>
<stop offset="0.8474" stop-color="#FFDA97" stop-opacity="0.1526"/>
<stop offset="1" stop-color="#FFDE99" stop-opacity="0"/>
</radialGradient>
<radialGradient id="paint37_radial" cx="0" cy="0" r="1" gradientUnits="userSpaceOnUse" gradientTransform="translate(138.262 128.964) scale(26.9316 26.9183)">
<stop stop-color="#FA404B"/>
<stop offset="0.025" stop-color="#FA484F" stop-opacity="0.975"/>
<stop offset="0.1916" stop-color="#FC7565" stop-opacity="0.8084"/>
<stop offset="0.3589" stop-color="#FD9B78" stop-opacity="0.6411"/>
<stop offset="0.5244" stop-color="#FEB886" stop-opacity="0.4756"/>
<stop offset="0.6876" stop-color="#FECD91" stop-opacity="0.3124"/>
<stop offset="0.8474" stop-color="#FFDA97" stop-opacity="0.1526"/>
<stop offset="1" stop-color="#FFDE99" stop-opacity="0"/>
</radialGradient>
<radialGradient id="paint38_radial" cx="0" cy="0" r="1" gradientUnits="userSpaceOnUse" gradientTransform="translate(159.667 229.425) scale(80.3829 80.3432)">
<stop offset="0.0829" stop-color="#F2F6FF"/>
<stop offset="0.484" stop-color="#FBFCFF" stop-opacity="0.5627"/>
<stop offset="1" stop-color="white" stop-opacity="0"/>
</radialGradient>
<radialGradient id="paint39_radial" cx="0" cy="0" r="1" gradientUnits="userSpaceOnUse" gradientTransform="translate(149.878 192.385) rotate(-73.1227) scale(39.2733 45.0217)">
<stop offset="0.0775" stop-color="#0144B9"/>
<stop offset="1" stop-color="#0060FB" stop-opacity="0"/>
</radialGradient>
<radialGradient id="paint40_radial" cx="0" cy="0" r="1" gradientUnits="userSpaceOnUse" gradientTransform="translate(177.608 200.219) scale(25.5368 25.5242)">
<stop offset="0.0775" stop-color="#0144B9"/>
<stop offset="1" stop-color="#0060FB" stop-opacity="0"/>
</radialGradient>
<radialGradient id="paint41_radial" cx="0" cy="0" r="1" gradientUnits="userSpaceOnUse" gradientTransform="translate(107.177 169.092) scale(36.1751 36.1572)">
<stop stop-color="#FA404B"/>
<stop offset="0.025" stop-color="#FA484F" stop-opacity="0.975"/>
<stop offset="0.1916" stop-color="#FC7565" stop-opacity="0.8084"/>
<stop offset="0.3589" stop-color="#FD9B78" stop-opacity="0.6411"/>
<stop offset="0.5244" stop-color="#FEB886" stop-opacity="0.4756"/>
<stop offset="0.6876" stop-color="#FECD91" stop-opacity="0.3124"/>
<stop offset="0.8474" stop-color="#FFDA97" stop-opacity="0.1526"/>
<stop offset="1" stop-color="#FFDE99" stop-opacity="0"/>
</radialGradient>
<radialGradient id="paint42_radial" cx="0" cy="0" r="1" gradientUnits="userSpaceOnUse" gradientTransform="translate(150.341 191.696) scale(13.0329 13.0265)">
<stop stop-color="#FA404B"/>
<stop offset="0.025" stop-color="#FA484F" stop-opacity="0.975"/>
<stop offset="0.1916" stop-color="#FC7565" stop-opacity="0.8084"/>
<stop offset="0.3589" stop-color="#FD9B78" stop-opacity="0.6411"/>
<stop offset="0.5244" stop-color="#FEB886" stop-opacity="0.4756"/>
<stop offset="0.6876" stop-color="#FECD91" stop-opacity="0.3124"/>
<stop offset="0.8474" stop-color="#FFDA97" stop-opacity="0.1526"/>
<stop offset="1" stop-color="#FFDE99" stop-opacity="0"/>
</radialGradient>
<clipPath id="clip0">
<rect width="450" height="253" fill="white" transform="translate(1 57)"/>
</clipPath>
</defs>
</svg>
