<svg width="72" height="72" viewBox="0 0 72 72" fill="none" xmlns="http://www.w3.org/2000/svg">
<circle cx="36" cy="36" r="36" fill="url(#paint0_linear_911_91)"/>
<g clip-path="url(#clip0_911_91)">
<path d="M25.1393 17.0011C25.1062 17.0006 25.0735 17.0088 25.0445 17.0249C25.0156 17.041 24.9913 17.0644 24.9743 17.0928L14.0256 35.9083C14.0085 35.9371 13.9995 35.9701 13.9995 36.0036C13.9995 36.0372 14.0085 36.0701 14.0256 36.099L25.0971 54.909C25.1705 55.0336 25.3538 55.0336 25.4271 54.909L36.3758 36.0953C36.3924 36.0661 36.4007 36.033 36.4001 35.9995C36.3995 35.9659 36.3898 35.9332 36.3721 35.9046L25.3043 17.0928C25.2873 17.0644 25.263 17.041 25.2341 17.0249C25.2051 17.0088 25.1724 17.0006 25.1393 17.0011V17.0011ZM30.3881 17.0011C30.355 17.001 30.3224 17.0095 30.2936 17.0259C30.2648 17.0424 30.2409 17.0661 30.2242 17.0947C30.2074 17.1233 30.1985 17.1558 30.1984 17.1889C30.1982 17.2221 30.2067 17.2547 30.2231 17.2835L39.7308 33.723C39.7474 33.7521 39.7714 33.7765 39.8004 33.7935C39.8293 33.8106 39.8622 33.8197 39.8958 33.8201H45.6103C45.757 33.8201 45.8486 33.6588 45.7753 33.5323L36.2676 17.0946C36.2507 17.066 36.2265 17.0423 36.1976 17.0259C36.1686 17.0095 36.1359 17.001 36.1026 17.0011H30.39H30.3881ZM41.1883 17.0011C41.1553 17.001 41.1228 17.0097 41.0942 17.0263C41.0656 17.0428 41.0419 17.0667 41.0255 17.0953C41.0091 17.124 41.0006 17.1566 41.0009 17.1896C41.0011 17.2226 41.0101 17.255 41.027 17.2835L51.8693 36L41.027 54.7165C41.0101 54.7449 41.0011 54.7773 41.0009 54.8103C41.0006 54.8434 41.0091 54.8759 41.0255 54.9046C41.0419 54.9333 41.0656 54.9571 41.0942 54.9736C41.1228 54.9902 41.1553 54.9989 41.1883 54.9988H46.9138C46.9464 54.9992 46.9786 54.991 47.0069 54.9749C47.0353 54.9588 47.0588 54.9354 47.0751 54.9071L57.9743 36.0935C57.9911 36.0652 57.9999 36.0329 57.9999 36C57.9999 35.9671 57.9911 35.9348 57.9743 35.9065L47.0751 17.0946C47.0591 17.066 47.0356 17.0423 47.0072 17.0258C46.9789 17.0094 46.9466 17.0009 46.9138 17.0011H41.1883ZM39.74 38.4511C39.7067 38.4507 39.6739 38.4593 39.6452 38.4761C39.6164 38.4929 39.5928 38.5172 39.5768 38.5465L30.225 54.7165C30.1516 54.843 30.2433 54.9988 30.39 54.9988H36.1045C36.1376 54.9991 36.1702 54.9909 36.1991 54.9748C36.228 54.9587 36.2523 54.9354 36.2695 54.9071L45.6195 38.7371C45.6363 38.7083 45.6453 38.6755 45.6453 38.6421C45.6454 38.6087 45.6365 38.5758 45.6198 38.547C45.603 38.5181 45.5789 38.4941 45.5498 38.4776C45.5208 38.4611 45.4879 38.4526 45.4545 38.453H39.7381L39.74 38.4511Z" fill="black"/>
<path d="M25.1393 17.0011C25.1062 17.0006 25.0735 17.0088 25.0445 17.0249C25.0156 17.041 24.9913 17.0644 24.9743 17.0928L14.0256 35.9083C14.0085 35.9371 13.9995 35.9701 13.9995 36.0036C13.9995 36.0372 14.0085 36.0701 14.0256 36.099L25.0971 54.909C25.1705 55.0336 25.3538 55.0336 25.4271 54.909L36.3758 36.0953C36.3924 36.0661 36.4007 36.033 36.4001 35.9995C36.3995 35.9659 36.3898 35.9332 36.3721 35.9046L25.3043 17.0928C25.2873 17.0644 25.263 17.041 25.2341 17.0249C25.2051 17.0088 25.1724 17.0006 25.1393 17.0011V17.0011ZM30.3881 17.0011C30.355 17.001 30.3224 17.0095 30.2936 17.0259C30.2648 17.0424 30.2409 17.0661 30.2242 17.0947C30.2074 17.1233 30.1985 17.1558 30.1984 17.1889C30.1982 17.2221 30.2067 17.2547 30.2231 17.2835L39.7308 33.723C39.7474 33.7521 39.7714 33.7765 39.8004 33.7935C39.8293 33.8106 39.8622 33.8197 39.8958 33.8201H45.6103C45.757 33.8201 45.8486 33.6588 45.7753 33.5323L36.2676 17.0946C36.2507 17.066 36.2265 17.0423 36.1976 17.0259C36.1686 17.0095 36.1359 17.001 36.1026 17.0011H30.39H30.3881ZM41.1883 17.0011C41.1553 17.001 41.1228 17.0097 41.0942 17.0263C41.0656 17.0428 41.0419 17.0667 41.0255 17.0953C41.0091 17.124 41.0006 17.1566 41.0009 17.1896C41.0011 17.2226 41.0101 17.255 41.027 17.2835L51.8693 36L41.027 54.7165C41.0101 54.7449 41.0011 54.7773 41.0009 54.8103C41.0006 54.8434 41.0091 54.8759 41.0255 54.9046C41.0419 54.9333 41.0656 54.9571 41.0942 54.9736C41.1228 54.9902 41.1553 54.9989 41.1883 54.9988H46.9138C46.9464 54.9992 46.9786 54.991 47.0069 54.9749C47.0353 54.9588 47.0588 54.9354 47.0751 54.9071L57.9743 36.0935C57.9911 36.0652 57.9999 36.0329 57.9999 36C57.9999 35.9671 57.9911 35.9348 57.9743 35.9065L47.0751 17.0946C47.0591 17.066 47.0356 17.0423 47.0072 17.0258C46.9789 17.0094 46.9466 17.0009 46.9138 17.0011H41.1883ZM39.74 38.4511C39.7067 38.4507 39.6739 38.4593 39.6452 38.4761C39.6164 38.4929 39.5928 38.5172 39.5768 38.5465L30.225 54.7165C30.1516 54.843 30.2433 54.9988 30.39 54.9988H36.1045C36.1376 54.9991 36.1702 54.9909 36.1991 54.9748C36.228 54.9587 36.2523 54.9354 36.2695 54.9071L45.6195 38.7371C45.6363 38.7083 45.6453 38.6755 45.6453 38.6421C45.6454 38.6087 45.6365 38.5758 45.6198 38.547C45.603 38.5181 45.5789 38.4941 45.5498 38.4776C45.5208 38.4611 45.4879 38.4526 45.4545 38.453H39.7381L39.74 38.4511Z" fill="url(#paint1_linear_911_91)"/>
</g>
<defs>
<linearGradient id="paint0_linear_911_91" x1="36" y1="0" x2="36" y2="72" gradientUnits="userSpaceOnUse">
<stop stop-color="#8808FC"/>
<stop offset="1" stop-color="#9525FA" stop-opacity="0.67"/>
</linearGradient>
<linearGradient id="paint1_linear_911_91" x1="35.9997" y1="17.0011" x2="35.9997" y2="55.0025" gradientUnits="userSpaceOnUse">
<stop offset="0.128125" stop-color="#FFF7F9"/>
<stop offset="1" stop-color="#DDB8FF"/>
</linearGradient>
<clipPath id="clip0_911_91">
<rect width="44" height="44" fill="white" transform="translate(14 14)"/>
</clipPath>
</defs>
</svg>
