<svg width="72" height="72" viewBox="0 0 72 72" fill="none" xmlns="http://www.w3.org/2000/svg">
<circle cx="36" cy="36" r="36" fill="url(#paint0_linear_911_57)"/>
<path d="M26.8332 34.1666C25.7498 34.1666 24.677 33.9532 23.676 33.5386C22.6751 33.124 21.7656 32.5163 20.9995 31.7503C20.2335 30.9842 19.6258 30.0747 19.2112 29.0738C18.7966 28.0728 18.5832 27 18.5832 25.9166C18.5832 24.8332 18.7966 23.7604 19.2112 22.7595C19.6258 21.7586 20.2335 20.8491 20.9995 20.083C21.7656 19.3169 22.6751 18.7092 23.676 18.2946C24.677 17.88 25.7498 17.6666 26.8332 17.6666C29.0212 17.6666 31.1196 18.5358 32.6668 20.083C34.214 21.6302 35.0832 23.7286 35.0832 25.9166C35.0832 28.1047 34.214 30.2031 32.6668 31.7503C31.1196 33.2974 29.0212 34.1666 26.8332 34.1666V34.1666ZM46.0832 41.5C44.1383 41.5 42.273 40.7273 40.8977 39.3521C39.5225 37.9768 38.7498 36.1115 38.7498 34.1666C38.7498 32.2217 39.5225 30.3564 40.8977 28.9812C42.273 27.6059 44.1383 26.8333 46.0832 26.8333C48.0281 26.8333 49.8934 27.6059 51.2686 28.9812C52.6439 30.3564 53.4165 32.2217 53.4165 34.1666C53.4165 36.1115 52.6439 37.9768 51.2686 39.3521C49.8934 40.7273 48.0281 41.5 46.0832 41.5ZM46.0832 43.3333C48.2712 43.3333 50.3696 44.2025 51.9168 45.7497C53.464 47.2968 54.3332 49.3953 54.3332 51.5833V52.5H37.8332V51.5833C37.8332 49.3953 38.7024 47.2968 40.2495 45.7497C41.7967 44.2025 43.8951 43.3333 46.0832 43.3333V43.3333ZM26.8332 36C28.037 36 29.229 36.2371 30.3411 36.6977C31.4533 37.1584 32.4638 37.8336 33.315 38.6848C34.1662 39.536 34.8414 40.5465 35.3021 41.6587C35.7627 42.7708 35.9998 43.9628 35.9998 45.1666V52.5H17.6665V45.1666C17.6665 42.7355 18.6323 40.4039 20.3514 38.6848C22.0704 36.9657 24.402 36 26.8332 36V36Z" fill="black"/>
<path d="M26.8332 34.1666C25.7498 34.1666 24.677 33.9532 23.676 33.5386C22.6751 33.124 21.7656 32.5163 20.9995 31.7503C20.2335 30.9842 19.6258 30.0747 19.2112 29.0738C18.7966 28.0728 18.5832 27 18.5832 25.9166C18.5832 24.8332 18.7966 23.7604 19.2112 22.7595C19.6258 21.7586 20.2335 20.8491 20.9995 20.083C21.7656 19.3169 22.6751 18.7092 23.676 18.2946C24.677 17.88 25.7498 17.6666 26.8332 17.6666C29.0212 17.6666 31.1196 18.5358 32.6668 20.083C34.214 21.6302 35.0832 23.7286 35.0832 25.9166C35.0832 28.1047 34.214 30.2031 32.6668 31.7503C31.1196 33.2974 29.0212 34.1666 26.8332 34.1666V34.1666ZM46.0832 41.5C44.1383 41.5 42.273 40.7273 40.8977 39.3521C39.5225 37.9768 38.7498 36.1115 38.7498 34.1666C38.7498 32.2217 39.5225 30.3564 40.8977 28.9812C42.273 27.6059 44.1383 26.8333 46.0832 26.8333C48.0281 26.8333 49.8934 27.6059 51.2686 28.9812C52.6439 30.3564 53.4165 32.2217 53.4165 34.1666C53.4165 36.1115 52.6439 37.9768 51.2686 39.3521C49.8934 40.7273 48.0281 41.5 46.0832 41.5ZM46.0832 43.3333C48.2712 43.3333 50.3696 44.2025 51.9168 45.7497C53.464 47.2968 54.3332 49.3953 54.3332 51.5833V52.5H37.8332V51.5833C37.8332 49.3953 38.7024 47.2968 40.2495 45.7497C41.7967 44.2025 43.8951 43.3333 46.0832 43.3333V43.3333ZM26.8332 36C28.037 36 29.229 36.2371 30.3411 36.6977C31.4533 37.1584 32.4638 37.8336 33.315 38.6848C34.1662 39.536 34.8414 40.5465 35.3021 41.6587C35.7627 42.7708 35.9998 43.9628 35.9998 45.1666V52.5H17.6665V45.1666C17.6665 42.7355 18.6323 40.4039 20.3514 38.6848C22.0704 36.9657 24.402 36 26.8332 36V36Z" fill="url(#paint1_linear_911_57)"/>
<defs>
<linearGradient id="paint0_linear_911_57" x1="36" y1="0" x2="36" y2="72" gradientUnits="userSpaceOnUse">
<stop stop-color="#8808FC"/>
<stop offset="1" stop-color="#9525FA" stop-opacity="0.67"/>
</linearGradient>
<linearGradient id="paint1_linear_911_57" x1="35.9998" y1="17.6666" x2="35.9998" y2="52.5" gradientUnits="userSpaceOnUse">
<stop offset="0.128125" stop-color="#FFF7F9"/>
<stop offset="1" stop-color="#DDB8FF"/>
</linearGradient>
</defs>
</svg>
