<svg width="72" height="72" viewBox="0 0 72 72" fill="none" xmlns="http://www.w3.org/2000/svg">
<circle cx="36" cy="36" r="36" fill="url(#paint0_linear_911_52)"/>
<path d="M37.2221 50.6667H18.8888C18.2405 50.6667 17.6187 50.4092 17.1603 49.9507C16.7019 49.4923 16.4443 48.8706 16.4443 48.2223V23.7778C16.4443 23.1295 16.7019 22.5078 17.1603 22.0493C17.6187 21.5909 18.2405 21.3334 18.8888 21.3334H53.111C53.7593 21.3334 54.3811 21.5909 54.8395 22.0493C55.2979 22.5078 55.5554 23.1295 55.5554 23.7778V36.4523C53.9272 34.3784 51.5587 33.0162 48.9473 32.6517C46.336 32.2872 43.6849 32.9487 41.551 34.4973C39.417 36.046 37.9662 38.3613 37.5032 40.957C37.0401 43.5527 37.6009 46.2268 39.0677 48.4178L37.931 49.8111L37.2221 50.6667ZM22.5554 28.6667V30.6223H43.3332V28.6667H22.5554ZM22.5554 35.5112H35.9999V33.5556H22.5554V35.5112ZM22.5554 44.0667H34.7777V42.1111H22.5554V44.0667Z" fill="black"/>
<path d="M37.2221 50.6667H18.8888C18.2405 50.6667 17.6187 50.4092 17.1603 49.9507C16.7019 49.4923 16.4443 48.8706 16.4443 48.2223V23.7778C16.4443 23.1295 16.7019 22.5078 17.1603 22.0493C17.6187 21.5909 18.2405 21.3334 18.8888 21.3334H53.111C53.7593 21.3334 54.3811 21.5909 54.8395 22.0493C55.2979 22.5078 55.5554 23.1295 55.5554 23.7778V36.4523C53.9272 34.3784 51.5587 33.0162 48.9473 32.6517C46.336 32.2872 43.6849 32.9487 41.551 34.4973C39.417 36.046 37.9662 38.3613 37.5032 40.957C37.0401 43.5527 37.6009 46.2268 39.0677 48.4178L37.931 49.8111L37.2221 50.6667ZM22.5554 28.6667V30.6223H43.3332V28.6667H22.5554ZM22.5554 35.5112H35.9999V33.5556H22.5554V35.5112ZM22.5554 44.0667H34.7777V42.1111H22.5554V44.0667Z" fill="url(#paint1_linear_911_52)"/>
<path d="M55.3479 42.8322C55.3512 41.5435 55.0345 40.2741 54.4263 39.1379C53.8181 38.0018 52.9373 37.0344 51.8631 36.3225C50.7888 35.6106 49.5547 35.1765 48.2713 35.0592C46.9879 34.9419 45.6955 35.1449 44.51 35.6502C43.3244 36.1554 42.2829 36.9471 41.4787 37.9541C40.6745 38.9611 40.1329 40.152 39.9024 41.4199C39.6719 42.6879 39.7598 43.9932 40.1581 45.2188C40.5564 46.4444 41.2527 47.552 42.1846 48.4422L39.8135 51.3388L40.9135 55.7511L45.3868 50.2999C46.8028 50.7186 48.3097 50.7186 49.7257 50.2999L54.1991 55.7511L55.2991 51.3388L52.9279 48.4422C53.6905 47.7199 54.2982 46.8501 54.7142 45.8857C55.1302 44.9214 55.3458 43.8825 55.3479 42.8322V42.8322ZM42.2213 42.8322C42.2067 41.7728 42.5076 40.733 43.0855 39.8451C43.6635 38.9572 44.4925 38.2612 45.4671 37.8456C46.4417 37.4301 47.5178 37.3138 48.5587 37.5116C49.5996 37.7093 50.5581 38.2121 51.3124 38.9561C52.0667 39.7 52.5828 40.6515 52.7949 41.6896C53.007 42.7276 52.9056 43.8052 52.5036 44.7855C52.1015 45.7657 51.4171 46.6043 50.5372 47.1945C49.6574 47.7847 48.6219 48.0998 47.5624 48.0999C46.1586 48.1032 44.8105 47.5512 43.8122 46.5644C42.8139 45.5775 42.2464 44.2359 42.2335 42.8322H42.2213Z" fill="black"/>
<path d="M55.3479 42.8322C55.3512 41.5435 55.0345 40.2741 54.4263 39.1379C53.8181 38.0018 52.9373 37.0344 51.8631 36.3225C50.7888 35.6106 49.5547 35.1765 48.2713 35.0592C46.9879 34.9419 45.6955 35.1449 44.51 35.6502C43.3244 36.1554 42.2829 36.9471 41.4787 37.9541C40.6745 38.9611 40.1329 40.152 39.9024 41.4199C39.6719 42.6879 39.7598 43.9932 40.1581 45.2188C40.5564 46.4444 41.2527 47.552 42.1846 48.4422L39.8135 51.3388L40.9135 55.7511L45.3868 50.2999C46.8028 50.7186 48.3097 50.7186 49.7257 50.2999L54.1991 55.7511L55.2991 51.3388L52.9279 48.4422C53.6905 47.7199 54.2982 46.8501 54.7142 45.8857C55.1302 44.9214 55.3458 43.8825 55.3479 42.8322V42.8322ZM42.2213 42.8322C42.2067 41.7728 42.5076 40.733 43.0855 39.8451C43.6635 38.9572 44.4925 38.2612 45.4671 37.8456C46.4417 37.4301 47.5178 37.3138 48.5587 37.5116C49.5996 37.7093 50.5581 38.2121 51.3124 38.9561C52.0667 39.7 52.5828 40.6515 52.7949 41.6896C53.007 42.7276 52.9056 43.8052 52.5036 44.7855C52.1015 45.7657 51.4171 46.6043 50.5372 47.1945C49.6574 47.7847 48.6219 48.0998 47.5624 48.0999C46.1586 48.1032 44.8105 47.5512 43.8122 46.5644C42.8139 45.5775 42.2464 44.2359 42.2335 42.8322H42.2213Z" fill="url(#paint2_linear_911_52)"/>
<defs>
<linearGradient id="paint0_linear_911_52" x1="36" y1="0" x2="36" y2="72" gradientUnits="userSpaceOnUse">
<stop stop-color="#8808FC"/>
<stop offset="1" stop-color="#9525FA" stop-opacity="0.67"/>
</linearGradient>
<linearGradient id="paint1_linear_911_52" x1="35.9999" y1="21.3334" x2="35.9999" y2="50.6667" gradientUnits="userSpaceOnUse">
<stop offset="0.128125" stop-color="#FFF7F9"/>
<stop offset="1" stop-color="#DDB8FF"/>
</linearGradient>
<linearGradient id="paint2_linear_911_52" x1="47.5624" y1="35.0269" x2="47.5624" y2="55.7511" gradientUnits="userSpaceOnUse">
<stop offset="0.128125" stop-color="#FFF7F9"/>
<stop offset="1" stop-color="#DDB8FF"/>
</linearGradient>
</defs>
</svg>
