<svg width="72" height="72" viewBox="0 0 72 72" fill="none" xmlns="http://www.w3.org/2000/svg">
<circle cx="36" cy="36" r="36" fill="url(#paint0_linear_911_95)"/>
<path d="M54 22.0035H18C16.8956 22.0035 16 22.9007 16 24.007V48.0488C16 49.1551 16.8956 50.0523 18 50.0523H54C55.1044 50.0523 56 49.1551 56 48.0488V24.007C56 22.9007 55.1044 22.0035 54 22.0035ZM27 40.5283V41.5375C27 41.8142 26.7763 42.0384 26.5 42.0384H25.5C25.2237 42.0384 25 41.8142 25 41.5375V40.5176C24.2944 40.4813 23.6081 40.2346 23.0394 39.807C22.7956 39.6236 22.7831 39.2579 23.0037 39.0469L23.7381 38.3451C23.9112 38.1798 24.1688 38.1723 24.3713 38.2994C24.6131 38.4509 24.8875 38.5323 25.1725 38.5323H26.9294C27.3356 38.5323 27.6669 38.1616 27.6669 37.7065C27.6669 37.334 27.4412 37.0059 27.1187 36.9095L24.3062 36.0642C23.1444 35.7149 22.3325 34.5979 22.3325 33.3476C22.3325 31.8125 23.5231 30.5653 24.9994 30.5259V29.5166C24.9994 29.2399 25.2231 29.0157 25.4994 29.0157H26.4994C26.7756 29.0157 26.9994 29.2399 26.9994 29.5166V30.5365C27.705 30.5728 28.3913 30.8189 28.96 31.2471C29.2038 31.4306 29.2162 31.7962 28.9956 32.0072L28.2612 32.709C28.0881 32.8743 27.8306 32.8818 27.6281 32.7547C27.3863 32.6026 27.1119 32.5218 26.8269 32.5218H25.07C24.6637 32.5218 24.3325 32.8925 24.3325 33.3476C24.3325 33.7202 24.5581 34.0482 24.8806 34.1447L27.6931 34.9899C28.855 35.3392 29.6669 36.4562 29.6669 37.7065C29.6669 39.2423 28.4763 40.4888 27 40.5283V40.5283ZM42 39.534C42 39.8108 41.7763 40.0349 41.5 40.0349H34.5C34.2237 40.0349 34 39.8108 34 39.534V38.5323C34 38.2556 34.2237 38.0314 34.5 38.0314H41.5C41.7763 38.0314 42 38.2556 42 38.5323V39.534ZM52 39.534C52 39.8108 51.7763 40.0349 51.5 40.0349H46.5C46.2237 40.0349 46 39.8108 46 39.534V38.5323C46 38.2556 46.2237 38.0314 46.5 38.0314H51.5C51.7763 38.0314 52 38.2556 52 38.5323V39.534ZM52 33.5236C52 33.8003 51.7763 34.0244 51.5 34.0244H34.5C34.2237 34.0244 34 33.8003 34 33.5236V32.5218C34 32.2451 34.2237 32.021 34.5 32.021H51.5C51.7763 32.021 52 32.2451 52 32.5218V33.5236Z" fill="black"/>
<path d="M54 22.0035H18C16.8956 22.0035 16 22.9007 16 24.007V48.0488C16 49.1551 16.8956 50.0523 18 50.0523H54C55.1044 50.0523 56 49.1551 56 48.0488V24.007C56 22.9007 55.1044 22.0035 54 22.0035ZM27 40.5283V41.5375C27 41.8142 26.7763 42.0384 26.5 42.0384H25.5C25.2237 42.0384 25 41.8142 25 41.5375V40.5176C24.2944 40.4813 23.6081 40.2346 23.0394 39.807C22.7956 39.6236 22.7831 39.2579 23.0037 39.0469L23.7381 38.3451C23.9112 38.1798 24.1688 38.1723 24.3713 38.2994C24.6131 38.4509 24.8875 38.5323 25.1725 38.5323H26.9294C27.3356 38.5323 27.6669 38.1616 27.6669 37.7065C27.6669 37.334 27.4412 37.0059 27.1187 36.9095L24.3062 36.0642C23.1444 35.7149 22.3325 34.5979 22.3325 33.3476C22.3325 31.8125 23.5231 30.5653 24.9994 30.5259V29.5166C24.9994 29.2399 25.2231 29.0157 25.4994 29.0157H26.4994C26.7756 29.0157 26.9994 29.2399 26.9994 29.5166V30.5365C27.705 30.5728 28.3913 30.8189 28.96 31.2471C29.2038 31.4306 29.2162 31.7962 28.9956 32.0072L28.2612 32.709C28.0881 32.8743 27.8306 32.8818 27.6281 32.7547C27.3863 32.6026 27.1119 32.5218 26.8269 32.5218H25.07C24.6637 32.5218 24.3325 32.8925 24.3325 33.3476C24.3325 33.7202 24.5581 34.0482 24.8806 34.1447L27.6931 34.9899C28.855 35.3392 29.6669 36.4562 29.6669 37.7065C29.6669 39.2423 28.4763 40.4888 27 40.5283V40.5283ZM42 39.534C42 39.8108 41.7763 40.0349 41.5 40.0349H34.5C34.2237 40.0349 34 39.8108 34 39.534V38.5323C34 38.2556 34.2237 38.0314 34.5 38.0314H41.5C41.7763 38.0314 42 38.2556 42 38.5323V39.534ZM52 39.534C52 39.8108 51.7763 40.0349 51.5 40.0349H46.5C46.2237 40.0349 46 39.8108 46 39.534V38.5323C46 38.2556 46.2237 38.0314 46.5 38.0314H51.5C51.7763 38.0314 52 38.2556 52 38.5323V39.534ZM52 33.5236C52 33.8003 51.7763 34.0244 51.5 34.0244H34.5C34.2237 34.0244 34 33.8003 34 33.5236V32.5218C34 32.2451 34.2237 32.021 34.5 32.021H51.5C51.7763 32.021 52 32.2451 52 32.5218V33.5236Z" fill="url(#paint1_linear_911_95)"/>
<defs>
<linearGradient id="paint0_linear_911_95" x1="36" y1="0" x2="36" y2="72" gradientUnits="userSpaceOnUse">
<stop stop-color="#8808FC"/>
<stop offset="1" stop-color="#9525FA" stop-opacity="0.67"/>
</linearGradient>
<linearGradient id="paint1_linear_911_95" x1="36" y1="22.0035" x2="36" y2="50.0523" gradientUnits="userSpaceOnUse">
<stop offset="0.128125" stop-color="#FFF7F9"/>
<stop offset="1" stop-color="#DDB8FF"/>
</linearGradient>
</defs>
</svg>
