<svg width="503" height="503" viewBox="0 0 503 503" fill="none" xmlns="http://www.w3.org/2000/svg">
<path opacity="0.07" d="M441.217 253.719C441.217 342.911 389.014 385.037 324.655 347.917C260.296 310.797 208.159 208.343 208.159 119.215C208.159 30.0228 260.361 -12.1031 324.72 25.0171C389.079 62.1373 441.217 164.527 441.217 253.719Z" fill="url(#paint0_linear)"/>
<path opacity="0.4" d="M271.803 66.1682C256.461 57.327 241.314 52.7763 227.207 52.7106C213.1 52.6463 200.228 57.132 189.372 65.9082C178.515 74.6844 169.934 87.4912 164.083 103.678C158.232 119.866 155.177 139.173 155.177 160.366L271.738 227.586L271.803 66.1682Z" fill="url(#paint1_linear)"/>
<path opacity="0.2" d="M181.18 138.003C181.18 169.922 188.006 205.092 200.813 239.027C213.62 272.961 231.822 304.166 253.08 328.674C274.338 353.183 297.806 369.89 320.43 376.716C343.053 383.542 363.791 380.161 380.108 366.965C396.425 353.768 407.477 331.405 412.027 302.736C416.513 274.002 414.238 240.197 405.396 205.612C396.555 171.027 381.668 137.157 362.49 108.358C343.313 79.5594 320.82 57.0663 297.741 43.8044V205.287L181.18 138.003Z" fill="url(#paint2_linear)"/>
<path opacity="0.3" d="M214.01 121.621L20.6079 10L20.6729 110.829L197.043 212.633L214.14 237.922L214.01 121.621Z" fill="url(#paint3_linear)"/>
<path fill-rule="evenodd" clip-rule="evenodd" d="M0 49.2655V21.8967L73.0052 64.0226V91.3914L0 49.2655Z" fill="url(#paint4_linear)"/>
<path fill-rule="evenodd" clip-rule="evenodd" d="M0 49.2655V21.8967L73.0052 64.0226V91.3914L0 49.2655Z" fill="url(#paint5_linear)"/>
<path opacity="0.15" d="M164.278 117.46L121.892 93.0164V101.858L164.278 126.301V117.46Z" fill="white"/>
<path opacity="0.15" d="M164.343 135.208L82.627 88.0762V96.9174L164.343 144.049V135.208Z" fill="white"/>
<path opacity="0.15" d="M164.343 152.89L65.334 95.8118V104.653L164.343 161.796V152.89Z" fill="white"/>
<path fill-rule="evenodd" clip-rule="evenodd" d="M174.744 132.737C174.744 141.058 179.685 150.614 185.731 154.125C191.777 157.635 196.717 153.735 196.717 145.414C196.717 137.092 191.777 127.536 185.731 124.026C179.62 120.515 174.744 124.416 174.744 132.737Z" fill="url(#paint6_linear)"/>
<path fill-rule="evenodd" clip-rule="evenodd" d="M174.744 132.737C174.744 141.058 179.685 150.614 185.731 154.125C191.777 157.635 196.717 153.735 196.717 145.414C196.717 137.092 191.777 127.536 185.731 124.026C179.62 120.515 174.744 124.416 174.744 132.737Z" fill="url(#paint7_linear)"/>
<path opacity="0.3" d="M291.826 277.577L485.293 389.263L485.358 490.092L308.988 388.288L291.956 393.878L291.826 277.577Z" fill="url(#paint8_linear)"/>
<path fill-rule="evenodd" clip-rule="evenodd" d="M428.995 407.01V379.642L502 421.767V449.136L428.995 407.01Z" fill="#F2994A"/>
<path fill-rule="evenodd" clip-rule="evenodd" d="M428.995 407.01V379.642L502 421.767V449.136L428.995 407.01Z" fill="url(#paint9_linear)"/>
<path opacity="0.15" d="M341.623 330.884L384.008 355.328V364.169L341.623 339.726V330.884Z" fill="white"/>
<path opacity="0.15" d="M341.623 348.567L418.138 392.709V401.55L341.623 357.474V348.567Z" fill="white"/>
<path opacity="0.15" d="M341.623 366.314L440.631 423.457V432.299L341.623 375.156V366.314Z" fill="white"/>
<path fill-rule="evenodd" clip-rule="evenodd" d="M331.156 334.071C331.156 342.392 326.215 346.292 320.17 342.782C314.124 339.271 309.183 329.715 309.183 321.394C309.183 313.073 314.124 309.172 320.17 312.683C326.215 316.193 331.156 325.749 331.156 334.071Z" fill="#F2994A"/>
<path fill-rule="evenodd" clip-rule="evenodd" d="M331.156 334.071C331.156 342.392 326.215 346.292 320.17 342.782C314.124 339.271 309.183 329.715 309.183 321.394C309.183 313.073 314.124 309.172 320.17 312.683C326.215 316.193 331.156 325.749 331.156 334.071Z" fill="url(#paint10_linear)"/>
<path opacity="0.3" d="M155.762 227.65L264.717 290.514V492.367L155.762 429.504V227.65Z" fill="url(#paint11_linear)"/>
<path opacity="0.15" d="M166.488 347.462L253.99 397.974V406.815L166.488 356.303V347.462Z" fill="white"/>
<path opacity="0.15" d="M172.599 368.265L247.815 411.691V420.532L172.599 377.106V368.265Z" fill="white"/>
<path fill-rule="evenodd" clip-rule="evenodd" d="M204.388 404.345L128.588 360.594V383.152L204.388 426.903V404.345Z" fill="#F2C94C"/>
<path fill-rule="evenodd" clip-rule="evenodd" d="M204.388 404.345L128.588 360.594V383.152L204.388 426.903V404.345Z" fill="url(#paint12_linear)"/>
<path fill-rule="evenodd" clip-rule="evenodd" d="M222.656 307.026C222.656 316.778 217 321.393 210.044 317.363C203.088 313.332 197.433 302.086 197.433 292.269C197.433 282.518 203.088 277.902 210.044 281.933C217 286.029 222.656 297.275 222.656 307.026ZM210.044 325.229C198.798 318.663 189.502 324.839 187.876 338.946C187.616 341.416 189.437 344.667 191.712 345.967L228.377 367.42C230.652 368.72 232.473 367.68 232.213 364.885C230.587 348.762 221.291 331.795 210.044 325.229Z" fill="#F2C94C"/>
<path fill-rule="evenodd" clip-rule="evenodd" d="M222.656 307.026C222.656 316.778 217 321.393 210.044 317.363C203.088 313.332 197.433 302.086 197.433 292.269C197.433 282.518 203.088 277.902 210.044 281.933C217 286.029 222.656 297.275 222.656 307.026ZM210.044 325.229C198.798 318.663 189.502 324.839 187.876 338.946C187.616 341.416 189.437 344.667 191.712 345.967L228.377 367.42C230.652 368.72 232.473 367.68 232.213 364.885C230.587 348.762 221.291 331.795 210.044 325.229Z" fill="url(#paint13_linear)"/>
<path opacity="0.2" d="M95.1085 211.138L67.2847 195.081V185.719L95.1085 201.777C97.3839 203.077 100.699 205.742 103.495 209.838C106.55 214.193 108.695 219.719 108.695 225.7C108.695 232.331 107.005 236.102 103.82 237.142C100.829 238.117 97.2538 236.427 95.1085 235.191L83.6669 228.56L83.6019 228.495C82.6268 227.91 81.0666 227.325 79.8314 227.715C78.7913 228.04 77.6861 229.016 77.6861 232.721C77.6861 236.427 78.8563 238.637 79.7664 240.002C80.9366 241.692 82.4968 242.862 83.4719 243.383L83.6019 243.448L118.577 263.665V273.027L83.862 252.939C81.4566 251.704 78.0112 249.038 75.0207 244.878C71.7703 240.262 69.56 234.476 69.56 228.04C69.56 221.604 71.7703 218.354 74.9557 217.444C77.9462 216.599 81.3916 217.834 83.797 219.264L95.1085 225.83C96.7338 226.805 97.9689 227.195 98.8141 226.935C99.4642 226.74 100.634 225.83 100.634 221.084C100.634 217.964 99.6592 215.949 98.684 214.649C97.5139 212.893 96.0187 211.658 95.1085 211.138Z" fill="white"/>
<path fill-rule="evenodd" clip-rule="evenodd" d="M72.3549 193.066C72.3549 201.452 67.4142 205.417 61.3684 201.972C55.3225 198.461 50.3818 188.84 50.3818 180.389C50.3818 172.003 55.3225 168.037 61.3684 171.483C67.4142 174.993 72.3549 184.679 72.3549 193.066Z" fill="white" fill-opacity="0.5"/>
<path fill-rule="evenodd" clip-rule="evenodd" d="M72.3549 193.066C72.3549 201.452 67.4142 205.417 61.3684 201.972C55.3225 198.461 50.3818 188.84 50.3818 180.389C50.3818 172.003 55.3225 168.037 61.3684 171.483C67.4142 174.993 72.3549 184.679 72.3549 193.066Z" fill="url(#paint14_linear)"/>
<path fill-rule="evenodd" clip-rule="evenodd" d="M72.3549 193.066C72.3549 201.452 67.4142 205.417 61.3684 201.972C55.3225 198.461 50.3818 188.84 50.3818 180.389C50.3818 172.003 55.3225 168.037 61.3684 171.483C67.4142 174.993 72.3549 184.679 72.3549 193.066Z" fill="url(#paint15_linear)"/>
<path fill-rule="evenodd" clip-rule="evenodd" d="M132.814 276.277C132.814 284.663 127.873 288.629 121.827 285.184C115.782 281.673 110.841 272.052 110.841 263.6C110.841 255.214 115.782 251.249 121.827 254.694C127.873 258.205 132.814 267.891 132.814 276.277Z" fill="url(#paint16_linear)"/>
<defs>
<linearGradient id="paint0_linear" x1="386.786" y1="117.042" x2="267.333" y2="176.298" gradientUnits="userSpaceOnUse">
<stop stop-color="white"/>
<stop offset="1" stop-color="white" stop-opacity="0"/>
</linearGradient>
<linearGradient id="paint1_linear" x1="261.455" y1="103.037" x2="190.226" y2="136.579" gradientUnits="userSpaceOnUse">
<stop stop-color="white"/>
<stop offset="1" stop-color="white" stop-opacity="0"/>
</linearGradient>
<linearGradient id="paint2_linear" x1="338.28" y1="147.996" x2="266.795" y2="221.803" gradientUnits="userSpaceOnUse">
<stop stop-color="white"/>
<stop offset="1" stop-color="white" stop-opacity="0"/>
</linearGradient>
<linearGradient id="paint3_linear" x1="156.669" y1="81.2871" x2="74.0598" y2="145.969" gradientUnits="userSpaceOnUse">
<stop stop-color="white"/>
<stop offset="1" stop-color="white" stop-opacity="0"/>
</linearGradient>
<linearGradient id="paint4_linear" x1="-3.48611" y1="23.7726" x2="88.8958" y2="110.925" gradientUnits="userSpaceOnUse">
<stop stop-color="#F07BFF"/>
<stop offset="1" stop-color="#B71CFF" stop-opacity="0"/>
</linearGradient>
<linearGradient id="paint5_linear" x1="-3.48611" y1="23.7726" x2="88.8958" y2="110.925" gradientUnits="userSpaceOnUse">
<stop stop-color="#F07BFF"/>
<stop offset="1" stop-color="#B71CFF"/>
</linearGradient>
<linearGradient id="paint6_linear" x1="173.695" y1="123.618" x2="212.205" y2="146.871" gradientUnits="userSpaceOnUse">
<stop stop-color="#F07BFF"/>
<stop offset="1" stop-color="#B71CFF" stop-opacity="0"/>
</linearGradient>
<linearGradient id="paint7_linear" x1="173.695" y1="123.618" x2="212.205" y2="146.871" gradientUnits="userSpaceOnUse">
<stop stop-color="#F07BFF"/>
<stop offset="1" stop-color="#B71CFF"/>
</linearGradient>
<linearGradient id="paint8_linear" x1="377.299" y1="280.858" x2="402.244" y2="483.187" gradientUnits="userSpaceOnUse">
<stop stop-color="white"/>
<stop offset="1" stop-color="white" stop-opacity="0"/>
</linearGradient>
<linearGradient id="paint9_linear" x1="425.509" y1="381.517" x2="517.891" y2="468.67" gradientUnits="userSpaceOnUse">
<stop stop-color="#F07BFF"/>
<stop offset="1" stop-color="#B71CFF"/>
</linearGradient>
<linearGradient id="paint10_linear" x1="308.134" y1="312.275" x2="346.644" y2="335.528" gradientUnits="userSpaceOnUse">
<stop stop-color="#F07BFF"/>
<stop offset="1" stop-color="#B71CFF"/>
</linearGradient>
<linearGradient id="paint11_linear" x1="221.443" y1="245.434" x2="144.803" y2="378.205" gradientUnits="userSpaceOnUse">
<stop stop-color="white"/>
<stop offset="1" stop-color="white" stop-opacity="0"/>
</linearGradient>
<linearGradient id="paint12_linear" x1="124.968" y1="362.384" x2="213.235" y2="452.996" gradientUnits="userSpaceOnUse">
<stop stop-color="#F07BFF"/>
<stop offset="1" stop-color="#B71CFF"/>
</linearGradient>
<linearGradient id="paint13_linear" x1="185.732" y1="282.838" x2="273.643" y2="322.885" gradientUnits="userSpaceOnUse">
<stop stop-color="#F07BFF"/>
<stop offset="1" stop-color="#B71CFF"/>
</linearGradient>
<linearGradient id="paint14_linear" x1="49.3326" y1="171.131" x2="88.0264" y2="194.287" gradientUnits="userSpaceOnUse">
<stop stop-color="#F07BFF"/>
<stop offset="1" stop-color="#B71CFF" stop-opacity="0"/>
</linearGradient>
<linearGradient id="paint15_linear" x1="49.3326" y1="171.131" x2="88.0264" y2="194.287" gradientUnits="userSpaceOnUse">
<stop stop-color="#F07BFF"/>
<stop offset="1" stop-color="#B71CFF"/>
</linearGradient>
<linearGradient id="paint16_linear" x1="109.792" y1="254.342" x2="148.485" y2="277.499" gradientUnits="userSpaceOnUse">
<stop stop-color="#F07BFF"/>
<stop offset="1" stop-color="#B71CFF"/>
</linearGradient>
</defs>
</svg>
