<svg width="72" height="72" viewBox="0 0 72 72" fill="none" xmlns="http://www.w3.org/2000/svg">
<circle cx="36" cy="36" r="36" fill="url(#paint0_linear_912_103)"/>
<path d="M19.317 25.4157C19.407 25.2406 19.5371 25.0893 19.6966 24.974C19.8562 24.8587 20.0407 24.7828 20.2352 24.7523C20.4297 24.7219 20.6286 24.7378 20.8158 24.7987C21.0029 24.8597 21.1731 24.964 21.3123 25.1032L26.1123 29.9063C26.3479 30.1385 26.6654 30.2687 26.9963 30.2687C27.3271 30.2687 27.6446 30.1385 27.8802 29.9063L29.9552 27.8282C30.0714 27.7121 30.1635 27.5743 30.2263 27.4226C30.2891 27.2709 30.3215 27.1083 30.3215 26.9442C30.3215 26.78 30.2891 26.6174 30.2263 26.4658C30.1635 26.3141 30.0714 26.1763 29.9552 26.0602L25.1756 21.2797C25.0323 21.1365 24.926 20.9605 24.8658 20.767C24.8056 20.5735 24.7934 20.3683 24.8301 20.1691C24.8669 19.9698 24.9515 19.7825 25.0767 19.6232C25.202 19.4639 25.364 19.3374 25.549 19.2547C29.1592 17.6407 33.6654 18.4828 36.5068 21.3032C38.9209 23.7 39.6404 27.4453 38.4795 31.5789C38.4169 31.7994 38.4165 32.0328 38.4784 32.2534C38.5403 32.4741 38.6621 32.6733 38.8302 32.8289L51.8365 44.7078C52.3432 45.1628 52.7519 45.7162 53.0376 46.3342C53.3234 46.9523 53.4803 47.6221 53.4987 48.3029C53.517 48.9836 53.3966 49.6609 53.1446 50.2935C52.8925 50.9261 52.5143 51.5007 52.0329 51.9823C51.5515 52.4639 50.9771 52.8424 50.3446 53.0947C49.7121 53.347 49.0348 53.4678 48.3541 53.4497C47.6734 53.4316 47.0035 53.275 46.3853 52.9895C45.7671 52.704 45.2135 52.2956 44.7584 51.7891L32.7521 38.7539C32.5987 38.588 32.4029 38.467 32.1858 38.4041C31.9687 38.3412 31.7385 38.3387 31.5201 38.3969C30.3433 38.7194 29.1293 38.8867 27.9092 38.8946C25.2998 38.8946 23.0099 38.05 21.3584 36.4227C18.2998 33.4094 17.8334 28.2985 19.317 25.4157V25.4157ZM48.2279 50.9336C48.7424 50.9898 49.2617 50.8849 49.7141 50.6333C50.1664 50.3818 50.5296 49.9961 50.7534 49.5294C50.9772 49.0627 51.0506 48.538 50.9635 48.0278C50.8765 47.5176 50.6332 47.047 50.2672 46.6809C49.9013 46.3149 49.4308 46.0714 48.9206 45.9842C48.4104 45.8969 47.8858 45.9702 47.419 46.1938C46.9522 46.4174 46.5663 46.7804 46.3146 47.2327C46.063 47.685 45.9579 48.2042 46.0138 48.7188C46.0754 49.2849 46.3285 49.8131 46.7311 50.2158C47.1337 50.6186 47.6618 50.8718 48.2279 50.9336V50.9336Z" fill="black"/>
<path d="M19.317 25.4157C19.407 25.2406 19.5371 25.0893 19.6966 24.974C19.8562 24.8587 20.0407 24.7828 20.2352 24.7523C20.4297 24.7219 20.6286 24.7378 20.8158 24.7987C21.0029 24.8597 21.1731 24.964 21.3123 25.1032L26.1123 29.9063C26.3479 30.1385 26.6654 30.2687 26.9963 30.2687C27.3271 30.2687 27.6446 30.1385 27.8802 29.9063L29.9552 27.8282C30.0714 27.7121 30.1635 27.5743 30.2263 27.4226C30.2891 27.2709 30.3215 27.1083 30.3215 26.9442C30.3215 26.78 30.2891 26.6174 30.2263 26.4658C30.1635 26.3141 30.0714 26.1763 29.9552 26.0602L25.1756 21.2797C25.0323 21.1365 24.926 20.9605 24.8658 20.767C24.8056 20.5735 24.7934 20.3683 24.8301 20.1691C24.8669 19.9698 24.9515 19.7825 25.0767 19.6232C25.202 19.4639 25.364 19.3374 25.549 19.2547C29.1592 17.6407 33.6654 18.4828 36.5068 21.3032C38.9209 23.7 39.6404 27.4453 38.4795 31.5789C38.4169 31.7994 38.4165 32.0328 38.4784 32.2534C38.5403 32.4741 38.6621 32.6733 38.8302 32.8289L51.8365 44.7078C52.3432 45.1628 52.7519 45.7162 53.0376 46.3342C53.3234 46.9523 53.4803 47.6221 53.4987 48.3029C53.517 48.9836 53.3966 49.6609 53.1446 50.2935C52.8925 50.9261 52.5143 51.5007 52.0329 51.9823C51.5515 52.4639 50.9771 52.8424 50.3446 53.0947C49.7121 53.347 49.0348 53.4678 48.3541 53.4497C47.6734 53.4316 47.0035 53.275 46.3853 52.9895C45.7671 52.704 45.2135 52.2956 44.7584 51.7891L32.7521 38.7539C32.5987 38.588 32.4029 38.467 32.1858 38.4041C31.9687 38.3412 31.7385 38.3387 31.5201 38.3969C30.3433 38.7194 29.1293 38.8867 27.9092 38.8946C25.2998 38.8946 23.0099 38.05 21.3584 36.4227C18.2998 33.4094 17.8334 28.2985 19.317 25.4157V25.4157ZM48.2279 50.9336C48.7424 50.9898 49.2617 50.8849 49.7141 50.6333C50.1664 50.3818 50.5296 49.9961 50.7534 49.5294C50.9772 49.0627 51.0506 48.538 50.9635 48.0278C50.8765 47.5176 50.6332 47.047 50.2672 46.6809C49.9013 46.3149 49.4308 46.0714 48.9206 45.9842C48.4104 45.8969 47.8858 45.9702 47.419 46.1938C46.9522 46.4174 46.5663 46.7804 46.3146 47.2327C46.063 47.685 45.9579 48.2042 46.0138 48.7188C46.0754 49.2849 46.3285 49.8131 46.7311 50.2158C47.1337 50.6186 47.6618 50.8718 48.2279 50.9336V50.9336Z" fill="url(#paint1_linear_912_103)"/>
<defs>
<linearGradient id="paint0_linear_912_103" x1="36" y1="0" x2="36" y2="72" gradientUnits="userSpaceOnUse">
<stop stop-color="#8808FC"/>
<stop offset="1" stop-color="#9525FA" stop-opacity="0.67"/>
</linearGradient>
<linearGradient id="paint1_linear_912_103" x1="36.0016" y1="18.4414" x2="36.0016" y2="53.4515" gradientUnits="userSpaceOnUse">
<stop offset="0.128125" stop-color="#FFF7F9"/>
<stop offset="1" stop-color="#DDB8FF"/>
</linearGradient>
</defs>
</svg>
