<svg width="29" height="29" viewBox="0 0 29 29" fill="none" xmlns="http://www.w3.org/2000/svg">
<path fill-rule="evenodd" clip-rule="evenodd" d="M14.4999 1.2085C7.15929 1.2085 1.20825 7.15954 1.20825 14.5002C1.20825 21.8408 7.15929 27.7918 14.4999 27.7918C21.8405 27.7918 27.7916 21.8408 27.7916 14.5002C27.7916 7.15954 21.8405 1.2085 14.4999 1.2085ZM20.2612 12.2527C20.3673 12.1314 20.4481 11.9901 20.4988 11.8372C20.5495 11.6843 20.5691 11.5227 20.5564 11.3621C20.5438 11.2015 20.4991 11.045 20.4251 10.9019C20.351 10.7588 20.2491 10.6319 20.1254 10.5288C20.0016 10.4256 19.8584 10.3483 19.7043 10.3013C19.5502 10.2543 19.3883 10.2386 19.228 10.2551C19.0677 10.2716 18.9124 10.32 18.7711 10.3974C18.6298 10.4749 18.5054 10.5798 18.4053 10.706L13.2094 16.9398L10.5209 14.25C10.293 14.0299 9.98775 13.9081 9.67093 13.9109C9.35411 13.9136 9.05105 14.0407 8.82701 14.2648C8.60298 14.4888 8.4759 14.7919 8.47315 15.1087C8.47039 15.4255 8.59219 15.7307 8.81229 15.9586L12.4373 19.5836C12.556 19.7023 12.6982 19.7949 12.8547 19.8556C13.0112 19.9162 13.1786 19.9436 13.3463 19.936C13.514 19.9284 13.6782 19.8859 13.8286 19.8113C13.9789 19.7367 14.1121 19.6316 14.2196 19.5027L20.2612 12.2527Z" fill="#1FDE00"/>
</svg>
