<svg width="72" height="72" viewBox="0 0 72 72" fill="none" xmlns="http://www.w3.org/2000/svg">
<circle cx="36" cy="36" r="36" fill="url(#paint0_linear_12_31)"/>
<circle cx="36" cy="36" r="36" fill="url(#paint1_linear_12_31)"/>
<path d="M30.5141 38.6435C30.5141 37.9504 30.037 37.4282 29.4047 37.4282H21.1104C20.4766 37.4282 20 37.9504 20 38.6435C20 39.3183 20.4829 39.8284 21.1251 39.8284H24.0061V49.1676C24.0061 49.8486 24.523 50.32 25.2628 50.32C26.0052 50.32 26.5243 49.8486 26.5243 49.1676V39.8284H29.4052C30.0265 39.8284 30.5141 39.3078 30.5141 38.6435" fill="#25333A"/>
<path d="M30.5141 38.6435C30.5141 37.9504 30.037 37.4282 29.4047 37.4282H21.1104C20.4766 37.4282 20 37.9504 20 38.6435C20 39.3183 20.4829 39.8284 21.1251 39.8284H24.0061V49.1676C24.0061 49.8486 24.523 50.32 25.2628 50.32C26.0052 50.32 26.5243 49.8486 26.5243 49.1676V39.8284H29.4052C30.0265 39.8284 30.5141 39.3078 30.5141 38.6435" fill="url(#paint2_linear_12_31)"/>
<path d="M35.5006 37.2017C31.9732 37.2017 29.6915 39.8006 29.6915 43.8208C29.6915 47.8605 31.9711 50.4709 35.5006 50.4709C39.0107 50.4709 41.2783 47.8668 41.2783 43.8381C41.2783 39.8058 39.0128 37.2017 35.5006 37.2017V37.2017ZM35.5006 48.087C33.5005 48.087 32.2584 46.4596 32.2584 43.8381C32.2584 41.2062 33.5005 39.5694 35.5006 39.5694C37.4824 39.5694 38.7129 41.1716 38.7129 43.7458C38.7145 46.5047 37.5427 48.087 35.5006 48.087" fill="#25333A"/>
<path d="M35.5006 37.2017C31.9732 37.2017 29.6915 39.8006 29.6915 43.8208C29.6915 47.8605 31.9711 50.4709 35.5006 50.4709C39.0107 50.4709 41.2783 47.8668 41.2783 43.8381C41.2783 39.8058 39.0128 37.2017 35.5006 37.2017V37.2017ZM35.5006 48.087C33.5005 48.087 32.2584 46.4596 32.2584 43.8381C32.2584 41.2062 33.5005 39.5694 35.5006 39.5694C37.4824 39.5694 38.7129 41.1716 38.7129 43.7458C38.7145 46.5047 37.5427 48.087 35.5006 48.087" fill="url(#paint3_linear_12_31)"/>
<path d="M47.7428 37.4271H44.3999C43.0268 37.4271 42.3295 38.1543 42.3295 39.5898V49.1356C42.3295 49.8444 42.8302 50.3194 43.5747 50.3194C44.3055 50.3194 44.8177 49.8391 44.8177 49.1513V45.4257H47.6846C50.3862 45.4257 52 43.8927 52 41.3215C52 38.8846 50.4082 37.4271 47.7428 37.4271V37.4271ZM49.4509 41.3525C49.4509 42.5211 48.8632 43.0894 47.6515 43.0894H44.8172V39.7801H47.6515C48.8632 39.7807 49.4509 40.2945 49.4509 41.3525" fill="#25333A"/>
<path d="M47.7428 37.4271H44.3999C43.0268 37.4271 42.3295 38.1543 42.3295 39.5898V49.1356C42.3295 49.8444 42.8302 50.3194 43.5747 50.3194C44.3055 50.3194 44.8177 49.8391 44.8177 49.1513V45.4257H47.6846C50.3862 45.4257 52 43.8927 52 41.3215C52 38.8846 50.4082 37.4271 47.7428 37.4271V37.4271ZM49.4509 41.3525C49.4509 42.5211 48.8632 43.0894 47.6515 43.0894H44.8172V39.7801H47.6515C48.8632 39.7807 49.4509 40.2945 49.4509 41.3525" fill="url(#paint4_linear_12_31)"/>
<path d="M39.0527 34.1829V28.7796H40.5663C41.456 28.7796 42.1879 27.9276 42.275 26.8355L35.4629 19L28.6959 26.8324C28.7839 27.9245 29.5148 28.779 30.4056 28.779H31.9192V34.1824L39.0527 34.1829" fill="#25333A"/>
<path d="M39.0527 34.1829V28.7796H40.5663C41.456 28.7796 42.1879 27.9276 42.275 26.8355L35.4629 19L28.6959 26.8324C28.7839 27.9245 29.5148 28.779 30.4056 28.779H31.9192V34.1824L39.0527 34.1829" fill="url(#paint5_linear_12_31)"/>
<defs>
<linearGradient id="paint0_linear_12_31" x1="36" y1="0" x2="36" y2="72" gradientUnits="userSpaceOnUse">
<stop stop-color="#8808FC"/>
<stop offset="1" stop-color="#9525FA" stop-opacity="0.67"/>
</linearGradient>
<linearGradient id="paint1_linear_12_31" x1="7.5" y1="-5.5" x2="72" y2="89" gradientUnits="userSpaceOnUse">
<stop stop-color="#E6007A"/>
<stop offset="1" stop-color="#7407FF" stop-opacity="0.67"/>
</linearGradient>
<linearGradient id="paint2_linear_12_31" x1="25.257" y1="37.4282" x2="25.257" y2="50.32" gradientUnits="userSpaceOnUse">
<stop offset="0.128125" stop-color="#FFF7F9"/>
<stop offset="1" stop-color="#DDB8FF"/>
</linearGradient>
<linearGradient id="paint3_linear_12_31" x1="35.4849" y1="37.2017" x2="35.4849" y2="50.4709" gradientUnits="userSpaceOnUse">
<stop offset="0.128125" stop-color="#FFF7F9"/>
<stop offset="1" stop-color="#DDB8FF"/>
</linearGradient>
<linearGradient id="paint4_linear_12_31" x1="47.1647" y1="37.4271" x2="47.1647" y2="50.3194" gradientUnits="userSpaceOnUse">
<stop offset="0.128125" stop-color="#FFF7F9"/>
<stop offset="1" stop-color="#DDB8FF"/>
</linearGradient>
<linearGradient id="paint5_linear_12_31" x1="35.4854" y1="19" x2="35.4854" y2="34.1829" gradientUnits="userSpaceOnUse">
<stop offset="0.128125" stop-color="#FFF7F9"/>
<stop offset="1" stop-color="#DDB8FF"/>
</linearGradient>
</defs>
</svg>
