<svg width="72" height="72" viewBox="0 0 72 72" fill="none" xmlns="http://www.w3.org/2000/svg">
<circle cx="36" cy="36" r="36" fill="url(#paint0_linear_12_315)"/>
<circle cx="36" cy="36" r="36" fill="url(#paint1_linear_12_315)"/>
<path d="M38.4976 19H27.25C26.1228 19 25.0418 19.4478 24.2448 20.2448C23.4478 21.0418 23 22.1228 23 23.25V48.75C23 49.8772 23.4478 50.9582 24.2448 51.7552C25.0418 52.5522 26.1228 53 27.25 53H44.25C45.3772 53 46.4582 52.5522 47.2552 51.7552C48.0522 50.9582 48.5 49.8772 48.5 48.75V29.0024C48.4999 28.4388 48.2759 27.8984 47.8774 27.5L40 19.6226C39.6016 19.2241 39.0612 19.0001 38.4976 19V19ZM38.9375 26.4375V22.1875L45.3125 28.5625H41.0625C40.4989 28.5625 39.9584 28.3386 39.5599 27.9401C39.1614 27.5416 38.9375 27.0011 38.9375 26.4375ZM32.8727 35.2477C32.9715 35.149 33.0888 35.0706 33.2179 35.0171C33.347 34.9637 33.4853 34.9362 33.625 34.9362C33.7647 34.9362 33.903 34.9637 34.0321 35.0171C34.1612 35.0706 34.2785 35.149 34.3773 35.2477C34.476 35.3465 34.5544 35.4638 34.6079 35.5929C34.6613 35.722 34.6888 35.8603 34.6888 36C34.6888 36.1397 34.6613 36.278 34.6079 36.4071C34.5544 36.5362 34.476 36.6535 34.3773 36.7523L30.8774 40.25L34.3773 43.7477C34.5768 43.9473 34.6888 44.2179 34.6888 44.5C34.6888 44.7821 34.5768 45.0527 34.3773 45.2523C34.1777 45.4518 33.9071 45.5638 33.625 45.5638C33.3429 45.5638 33.0723 45.4518 32.8727 45.2523L28.6227 41.0023C28.5238 40.9036 28.4453 40.7863 28.3917 40.6572C28.3382 40.5281 28.3106 40.3898 28.3106 40.25C28.3106 40.1102 28.3382 39.9719 28.3917 39.8428C28.4453 39.7137 28.5238 39.5964 28.6227 39.4977L32.8727 35.2477V35.2477ZM38.6273 35.2477L42.8773 39.4977C42.9762 39.5964 43.0547 39.7137 43.1083 39.8428C43.1618 39.9719 43.1894 40.1102 43.1894 40.25C43.1894 40.3898 43.1618 40.5281 43.1083 40.6572C43.0547 40.7863 42.9762 40.9036 42.8773 41.0023L38.6273 45.2523C38.4277 45.4518 38.1571 45.5638 37.875 45.5638C37.5929 45.5638 37.3223 45.4518 37.1227 45.2523C36.9232 45.0527 36.8112 44.7821 36.8112 44.5C36.8112 44.2179 36.9232 43.9473 37.1227 43.7477L40.6226 40.25L37.1227 36.7523C37.024 36.6535 36.9456 36.5362 36.8921 36.4071C36.8387 36.278 36.8112 36.1397 36.8112 36C36.8112 35.8603 36.8387 35.722 36.8921 35.5929C36.9456 35.4638 37.024 35.3465 37.1227 35.2477C37.2215 35.149 37.3388 35.0706 37.4679 35.0171C37.597 34.9637 37.7353 34.9362 37.875 34.9362C38.0147 34.9362 38.153 34.9637 38.2821 35.0171C38.4112 35.0706 38.5285 35.149 38.6273 35.2477V35.2477Z" fill="black"/>
<path d="M38.4976 19H27.25C26.1228 19 25.0418 19.4478 24.2448 20.2448C23.4478 21.0418 23 22.1228 23 23.25V48.75C23 49.8772 23.4478 50.9582 24.2448 51.7552C25.0418 52.5522 26.1228 53 27.25 53H44.25C45.3772 53 46.4582 52.5522 47.2552 51.7552C48.0522 50.9582 48.5 49.8772 48.5 48.75V29.0024C48.4999 28.4388 48.2759 27.8984 47.8774 27.5L40 19.6226C39.6016 19.2241 39.0612 19.0001 38.4976 19V19ZM38.9375 26.4375V22.1875L45.3125 28.5625H41.0625C40.4989 28.5625 39.9584 28.3386 39.5599 27.9401C39.1614 27.5416 38.9375 27.0011 38.9375 26.4375ZM32.8727 35.2477C32.9715 35.149 33.0888 35.0706 33.2179 35.0171C33.347 34.9637 33.4853 34.9362 33.625 34.9362C33.7647 34.9362 33.903 34.9637 34.0321 35.0171C34.1612 35.0706 34.2785 35.149 34.3773 35.2477C34.476 35.3465 34.5544 35.4638 34.6079 35.5929C34.6613 35.722 34.6888 35.8603 34.6888 36C34.6888 36.1397 34.6613 36.278 34.6079 36.4071C34.5544 36.5362 34.476 36.6535 34.3773 36.7523L30.8774 40.25L34.3773 43.7477C34.5768 43.9473 34.6888 44.2179 34.6888 44.5C34.6888 44.7821 34.5768 45.0527 34.3773 45.2523C34.1777 45.4518 33.9071 45.5638 33.625 45.5638C33.3429 45.5638 33.0723 45.4518 32.8727 45.2523L28.6227 41.0023C28.5238 40.9036 28.4453 40.7863 28.3917 40.6572C28.3382 40.5281 28.3106 40.3898 28.3106 40.25C28.3106 40.1102 28.3382 39.9719 28.3917 39.8428C28.4453 39.7137 28.5238 39.5964 28.6227 39.4977L32.8727 35.2477V35.2477ZM38.6273 35.2477L42.8773 39.4977C42.9762 39.5964 43.0547 39.7137 43.1083 39.8428C43.1618 39.9719 43.1894 40.1102 43.1894 40.25C43.1894 40.3898 43.1618 40.5281 43.1083 40.6572C43.0547 40.7863 42.9762 40.9036 42.8773 41.0023L38.6273 45.2523C38.4277 45.4518 38.1571 45.5638 37.875 45.5638C37.5929 45.5638 37.3223 45.4518 37.1227 45.2523C36.9232 45.0527 36.8112 44.7821 36.8112 44.5C36.8112 44.2179 36.9232 43.9473 37.1227 43.7477L40.6226 40.25L37.1227 36.7523C37.024 36.6535 36.9456 36.5362 36.8921 36.4071C36.8387 36.278 36.8112 36.1397 36.8112 36C36.8112 35.8603 36.8387 35.722 36.8921 35.5929C36.9456 35.4638 37.024 35.3465 37.1227 35.2477C37.2215 35.149 37.3388 35.0706 37.4679 35.0171C37.597 34.9637 37.7353 34.9362 37.875 34.9362C38.0147 34.9362 38.153 34.9637 38.2821 35.0171C38.4112 35.0706 38.5285 35.149 38.6273 35.2477V35.2477Z" fill="url(#paint2_linear_12_315)"/>
<defs>
<linearGradient id="paint0_linear_12_315" x1="36" y1="0" x2="36" y2="72" gradientUnits="userSpaceOnUse">
<stop stop-color="#8808FC"/>
<stop offset="1" stop-color="#9525FA" stop-opacity="0.67"/>
</linearGradient>
<linearGradient id="paint1_linear_12_315" x1="7.5" y1="-5.5" x2="72" y2="89" gradientUnits="userSpaceOnUse">
<stop stop-color="#E6007A"/>
<stop offset="1" stop-color="#7407FF" stop-opacity="0.67"/>
</linearGradient>
<linearGradient id="paint2_linear_12_315" x1="35.75" y1="19" x2="35.75" y2="53" gradientUnits="userSpaceOnUse">
<stop offset="0.128125" stop-color="#FFF7F9"/>
<stop offset="1" stop-color="#DDB8FF"/>
</linearGradient>
</defs>
</svg>
