<svg width="72" height="72" viewBox="0 0 72 72" fill="none" xmlns="http://www.w3.org/2000/svg">
<circle cx="36" cy="36" r="36" fill="url(#paint0_linear_12_37)"/>
<circle cx="36" cy="36" r="36" fill="url(#paint1_linear_12_37)"/>
<path d="M38.3994 19.6881C39.8265 19.1391 41.4065 19.1391 42.8336 19.6881L49.9584 22.426C51.1524 22.8871 51.9388 24.0317 51.9388 25.3101V41.3259C51.9388 41.4783 51.9264 41.6306 51.9038 41.7788C51.7106 39.5554 50.7213 37.4764 49.1176 35.9242C47.514 34.372 45.4039 33.4509 43.1753 33.3304C42.6036 32.1675 41.614 31.2632 40.4045 30.7983L33.2797 28.0604C32.0116 27.5721 30.6425 27.4052 29.2942 27.5745V25.3101C29.2943 24.6858 29.4836 24.0762 29.8372 23.5617C30.1907 23.0472 30.6919 22.652 31.2746 22.428L38.3973 19.6881H38.3994ZM48.0069 24.7131C47.9585 24.5868 47.8857 24.4713 47.7927 24.3732C47.6997 24.275 47.5883 24.1962 47.4648 24.1411C47.3413 24.0861 47.2081 24.0559 47.073 24.0523C46.9378 24.0487 46.8033 24.0718 46.677 24.1202L40.9829 26.3106C40.7451 26.402 40.4818 26.402 40.2439 26.3106L34.5519 24.1223C34.4256 24.0737 34.2911 24.0506 34.1559 24.054C34.0207 24.0575 33.8875 24.0876 33.7639 24.1426C33.6403 24.1975 33.5287 24.2763 33.4356 24.3743C33.3425 24.4724 33.2695 24.5879 33.221 24.7141C33.1725 24.8404 33.1493 24.9749 33.1528 25.1101C33.1563 25.2454 33.1863 25.3785 33.2413 25.5021C33.2963 25.6257 33.375 25.7373 33.4731 25.8304C33.5712 25.9236 33.6866 25.9965 33.8129 26.045L39.5069 28.2333C40.2205 28.5077 41.0105 28.5077 41.724 28.2333L47.4181 26.045C47.6727 25.9469 47.878 25.7517 47.9888 25.5024C48.0996 25.253 48.1068 24.9698 48.0089 24.7151L48.0069 24.7131ZM40.8224 33.5033C40.5024 33.157 40.1074 32.8887 39.6675 32.719L32.5407 29.981C31.1135 29.4321 29.5335 29.4321 28.1064 29.981L20.9816 32.719C20.3986 32.943 19.8972 33.3386 19.5436 33.8535C19.19 34.3684 19.0009 34.9784 19.0013 35.603V45.4431C19.0014 46.0674 19.1907 46.677 19.5442 47.1915C19.8977 47.706 20.3989 48.1013 20.9816 48.3252L28.1044 51.0651C29.5321 51.6146 31.1129 51.6146 32.5407 51.0651L36.5426 49.5253C35.5572 48.6569 34.7682 47.5884 34.2283 46.3911C33.6884 45.1938 33.4099 43.8951 33.4114 42.5817C33.4114 41.0563 33.782 39.6173 34.4325 38.3472L31.3528 39.535V44.6609C31.3528 44.9338 31.2444 45.1956 31.0514 45.3887C30.8583 45.5817 30.5965 45.6902 30.3235 45.6902C30.0506 45.6902 29.7888 45.5817 29.5957 45.3887C29.4027 45.1956 29.2942 44.9338 29.2942 44.6609V39.535L23.5199 37.3117C23.3938 37.263 23.2785 37.19 23.1806 37.0968C23.0827 37.0036 23.0041 36.892 22.9494 36.7684C22.8946 36.6448 22.8647 36.5116 22.8614 36.3765C22.8581 36.2414 22.8814 36.1069 22.9301 35.9808C22.9788 35.8547 23.0518 35.7394 23.145 35.6415C23.2382 35.5436 23.3498 35.465 23.4734 35.4103C23.597 35.3555 23.7301 35.3256 23.8653 35.3223C24.0004 35.319 24.1349 35.3423 24.261 35.391L30.3235 37.7234L36.3861 35.391C36.5518 35.3269 36.7313 35.307 36.9069 35.3334C38.0488 34.4219 39.3907 33.7947 40.8224 33.5033V33.5033ZM48.4474 46.8944C49.5383 45.4356 50.0361 43.6177 49.8407 41.8066C49.6452 39.9955 48.771 38.3257 47.3941 37.1332C46.0171 35.9406 44.2395 35.3139 42.4191 35.3792C40.5986 35.4444 38.8705 36.1968 37.5824 37.4849C36.2943 38.7729 35.542 40.5011 35.4767 42.3215C35.4115 44.1419 36.0382 45.9195 37.2307 47.2965C38.4232 48.6735 40.0931 49.5477 41.9042 49.7431C43.7152 49.9385 45.5331 49.4407 46.992 48.3499L52.2414 53.5993C52.337 53.695 52.4504 53.7709 52.5753 53.8228C52.7003 53.8746 52.8342 53.9013 52.9694 53.9014C53.1047 53.9015 53.2386 53.875 53.3636 53.8233C53.4886 53.7716 53.6021 53.6959 53.6978 53.6003C53.7935 53.5047 53.8695 53.3913 53.9213 53.2663C53.9732 53.1414 53.9999 53.0075 54 52.8723C54.0001 52.737 53.9736 52.6031 53.9219 52.4781C53.8702 52.3531 53.7944 52.2395 53.6989 52.1438L48.4495 46.8944H48.4474ZM47.8216 42.5817C47.8216 43.9466 47.2794 45.2556 46.3142 46.2208C45.3491 47.1859 44.04 47.7282 42.6751 47.7282C41.3102 47.7282 40.0011 47.1859 39.036 46.2208C38.0708 45.2556 37.5286 43.9466 37.5286 42.5817C37.5286 41.2167 38.0708 39.9077 39.036 38.9426C40.0011 37.9774 41.3102 37.4352 42.6751 37.4352C44.04 37.4352 45.3491 37.9774 46.3142 38.9426C47.2794 39.9077 47.8216 41.2167 47.8216 42.5817V42.5817Z" fill="black"/>
<path d="M38.3994 19.6881C39.8265 19.1391 41.4065 19.1391 42.8336 19.6881L49.9584 22.426C51.1524 22.8871 51.9388 24.0317 51.9388 25.3101V41.3259C51.9388 41.4783 51.9264 41.6306 51.9038 41.7788C51.7106 39.5554 50.7213 37.4764 49.1176 35.9242C47.514 34.372 45.4039 33.4509 43.1753 33.3304C42.6036 32.1675 41.614 31.2632 40.4045 30.7983L33.2797 28.0604C32.0116 27.5721 30.6425 27.4052 29.2942 27.5745V25.3101C29.2943 24.6858 29.4836 24.0762 29.8372 23.5617C30.1907 23.0472 30.6919 22.652 31.2746 22.428L38.3973 19.6881H38.3994ZM48.0069 24.7131C47.9585 24.5868 47.8857 24.4713 47.7927 24.3732C47.6997 24.275 47.5883 24.1962 47.4648 24.1411C47.3413 24.0861 47.2081 24.0559 47.073 24.0523C46.9378 24.0487 46.8033 24.0718 46.677 24.1202L40.9829 26.3106C40.7451 26.402 40.4818 26.402 40.2439 26.3106L34.5519 24.1223C34.4256 24.0737 34.2911 24.0506 34.1559 24.054C34.0207 24.0575 33.8875 24.0876 33.7639 24.1426C33.6403 24.1975 33.5287 24.2763 33.4356 24.3743C33.3425 24.4724 33.2695 24.5879 33.221 24.7141C33.1725 24.8404 33.1493 24.9749 33.1528 25.1101C33.1563 25.2454 33.1863 25.3785 33.2413 25.5021C33.2963 25.6257 33.375 25.7373 33.4731 25.8304C33.5712 25.9236 33.6866 25.9965 33.8129 26.045L39.5069 28.2333C40.2205 28.5077 41.0105 28.5077 41.724 28.2333L47.4181 26.045C47.6727 25.9469 47.878 25.7517 47.9888 25.5024C48.0996 25.253 48.1068 24.9698 48.0089 24.7151L48.0069 24.7131ZM40.8224 33.5033C40.5024 33.157 40.1074 32.8887 39.6675 32.719L32.5407 29.981C31.1135 29.4321 29.5335 29.4321 28.1064 29.981L20.9816 32.719C20.3986 32.943 19.8972 33.3386 19.5436 33.8535C19.19 34.3684 19.0009 34.9784 19.0013 35.603V45.4431C19.0014 46.0674 19.1907 46.677 19.5442 47.1915C19.8977 47.706 20.3989 48.1013 20.9816 48.3252L28.1044 51.0651C29.5321 51.6146 31.1129 51.6146 32.5407 51.0651L36.5426 49.5253C35.5572 48.6569 34.7682 47.5884 34.2283 46.3911C33.6884 45.1938 33.4099 43.8951 33.4114 42.5817C33.4114 41.0563 33.782 39.6173 34.4325 38.3472L31.3528 39.535V44.6609C31.3528 44.9338 31.2444 45.1956 31.0514 45.3887C30.8583 45.5817 30.5965 45.6902 30.3235 45.6902C30.0506 45.6902 29.7888 45.5817 29.5957 45.3887C29.4027 45.1956 29.2942 44.9338 29.2942 44.6609V39.535L23.5199 37.3117C23.3938 37.263 23.2785 37.19 23.1806 37.0968C23.0827 37.0036 23.0041 36.892 22.9494 36.7684C22.8946 36.6448 22.8647 36.5116 22.8614 36.3765C22.8581 36.2414 22.8814 36.1069 22.9301 35.9808C22.9788 35.8547 23.0518 35.7394 23.145 35.6415C23.2382 35.5436 23.3498 35.465 23.4734 35.4103C23.597 35.3555 23.7301 35.3256 23.8653 35.3223C24.0004 35.319 24.1349 35.3423 24.261 35.391L30.3235 37.7234L36.3861 35.391C36.5518 35.3269 36.7313 35.307 36.9069 35.3334C38.0488 34.4219 39.3907 33.7947 40.8224 33.5033V33.5033ZM48.4474 46.8944C49.5383 45.4356 50.0361 43.6177 49.8407 41.8066C49.6452 39.9955 48.771 38.3257 47.3941 37.1332C46.0171 35.9406 44.2395 35.3139 42.4191 35.3792C40.5986 35.4444 38.8705 36.1968 37.5824 37.4849C36.2943 38.7729 35.542 40.5011 35.4767 42.3215C35.4115 44.1419 36.0382 45.9195 37.2307 47.2965C38.4232 48.6735 40.0931 49.5477 41.9042 49.7431C43.7152 49.9385 45.5331 49.4407 46.992 48.3499L52.2414 53.5993C52.337 53.695 52.4504 53.7709 52.5753 53.8228C52.7003 53.8746 52.8342 53.9013 52.9694 53.9014C53.1047 53.9015 53.2386 53.875 53.3636 53.8233C53.4886 53.7716 53.6021 53.6959 53.6978 53.6003C53.7935 53.5047 53.8695 53.3913 53.9213 53.2663C53.9732 53.1414 53.9999 53.0075 54 52.8723C54.0001 52.737 53.9736 52.6031 53.9219 52.4781C53.8702 52.3531 53.7944 52.2395 53.6989 52.1438L48.4495 46.8944H48.4474ZM47.8216 42.5817C47.8216 43.9466 47.2794 45.2556 46.3142 46.2208C45.3491 47.1859 44.04 47.7282 42.6751 47.7282C41.3102 47.7282 40.0011 47.1859 39.036 46.2208C38.0708 45.2556 37.5286 43.9466 37.5286 42.5817C37.5286 41.2167 38.0708 39.9077 39.036 38.9426C40.0011 37.9774 41.3102 37.4352 42.6751 37.4352C44.04 37.4352 45.3491 37.9774 46.3142 38.9426C47.2794 39.9077 47.8216 41.2167 47.8216 42.5817V42.5817Z" fill="url(#paint2_linear_12_37)"/>
<defs>
<linearGradient id="paint0_linear_12_37" x1="36" y1="0" x2="36" y2="72" gradientUnits="userSpaceOnUse">
<stop stop-color="#8808FC"/>
<stop offset="1" stop-color="#9525FA" stop-opacity="0.67"/>
</linearGradient>
<linearGradient id="paint1_linear_12_37" x1="7.5" y1="-5.5" x2="72" y2="89" gradientUnits="userSpaceOnUse">
<stop stop-color="#E6007A"/>
<stop offset="1" stop-color="#7407FF" stop-opacity="0.67"/>
</linearGradient>
<linearGradient id="paint2_linear_12_37" x1="36.5006" y1="19.2764" x2="36.5006" y2="53.9014" gradientUnits="userSpaceOnUse">
<stop offset="0.128125" stop-color="#FFF7F9"/>
<stop offset="1" stop-color="#DDB8FF"/>
</linearGradient>
</defs>
</svg>
