<svg width="72" height="72" viewBox="0 0 72 72" fill="none" xmlns="http://www.w3.org/2000/svg">
<circle cx="36" cy="36" r="36" fill="url(#paint0_linear_12_34)"/>
<circle cx="36" cy="36" r="36" fill="url(#paint1_linear_12_34)"/>
<path d="M36.1881 17C28.3653 17.0314 22.0314 23.3573 22 31.1701C22 32.7348 22.2529 34.289 22.7482 35.7729C23.1178 36.7832 24.2146 37.3271 25.244 37.0148C26.2391 36.6337 26.7673 35.5473 26.4501 34.5311C26.0296 33.3744 25.8425 32.1475 25.8979 30.9191C26.0685 25.2761 30.7864 20.8392 36.4365 21.0095C42.0866 21.1799 46.5292 25.8918 46.3586 31.5348C46.1985 36.8175 42.0327 41.108 36.7492 41.4293C36.7492 41.4293 34.7576 41.5504 33.7671 41.6714C33.4019 41.7237 33.0398 41.7955 32.6822 41.8866C32.6313 41.9389 32.549 41.9389 32.4967 41.8881L32.4952 41.8866C32.4593 41.8403 32.4593 41.7745 32.4952 41.7282L32.8034 40.0485L34.6738 31.6468C34.8983 30.5978 34.2294 29.5651 33.179 29.3409C32.1286 29.1168 31.0946 29.7848 30.8702 30.8339C30.8702 30.8339 26.4216 51.3986 26.4216 51.5854C26.1672 52.5852 26.7718 53.6014 27.7728 53.8555C27.7833 53.8584 27.7952 53.8614 27.8057 53.8629H27.909C28.9085 54.1215 29.929 53.5207 30.1864 52.5224C30.1908 52.506 30.1953 52.4896 30.1983 52.4716C30.1953 52.4402 30.1953 52.4089 30.1983 52.379C30.2537 52.1369 30.8148 49.4006 30.8148 49.4006C31.2398 47.3353 32.9067 45.7527 34.9925 45.4329C35.422 45.3671 37.2265 45.2461 37.2265 45.2461C45.0194 44.4705 50.7069 37.5319 49.9288 29.7489C49.2195 22.6504 43.3315 17.1853 36.1881 17Z" fill="#E6007A"/>
<path d="M36.1881 17C28.3653 17.0314 22.0314 23.3573 22 31.1701C22 32.7348 22.2529 34.289 22.7482 35.7729C23.1178 36.7832 24.2146 37.3271 25.244 37.0148C26.2391 36.6337 26.7673 35.5473 26.4501 34.5311C26.0296 33.3744 25.8425 32.1475 25.8979 30.9191C26.0685 25.2761 30.7864 20.8392 36.4365 21.0095C42.0866 21.1799 46.5292 25.8918 46.3586 31.5348C46.1985 36.8175 42.0327 41.108 36.7492 41.4293C36.7492 41.4293 34.7576 41.5504 33.7671 41.6714C33.4019 41.7237 33.0398 41.7955 32.6822 41.8866C32.6313 41.9389 32.549 41.9389 32.4967 41.8881L32.4952 41.8866C32.4593 41.8403 32.4593 41.7745 32.4952 41.7282L32.8034 40.0485L34.6738 31.6468C34.8983 30.5978 34.2294 29.5651 33.179 29.3409C32.1286 29.1168 31.0946 29.7848 30.8702 30.8339C30.8702 30.8339 26.4216 51.3986 26.4216 51.5854C26.1672 52.5852 26.7718 53.6014 27.7728 53.8555C27.7833 53.8584 27.7952 53.8614 27.8057 53.8629H27.909C28.9085 54.1215 29.929 53.5207 30.1864 52.5224C30.1908 52.506 30.1953 52.4896 30.1983 52.4716C30.1953 52.4402 30.1953 52.4089 30.1983 52.379C30.2537 52.1369 30.8148 49.4006 30.8148 49.4006C31.2398 47.3353 32.9067 45.7527 34.9925 45.4329C35.422 45.3671 37.2265 45.2461 37.2265 45.2461C45.0194 44.4705 50.7069 37.5319 49.9288 29.7489C49.2195 22.6504 43.3315 17.1853 36.1881 17Z" fill="url(#paint2_linear_12_34)"/>
<path d="M37.0485 49.6725C35.7691 49.4065 34.5182 50.2269 34.2519 51.5032C34.2489 51.5151 34.2474 51.5271 34.2444 51.539C33.9676 52.8078 34.7726 54.0616 36.0445 54.3381C36.046 54.3381 36.0475 54.3381 36.049 54.3396H36.1148C37.3597 54.64 38.6122 53.8748 38.9114 52.633C38.9144 52.624 38.9159 52.6135 38.9189 52.6046V52.4746C39.1389 51.1923 38.3189 49.9624 37.0485 49.6725Z" fill="#E6007A"/>
<path d="M37.0485 49.6725C35.7691 49.4065 34.5182 50.2269 34.2519 51.5032C34.2489 51.5151 34.2474 51.5271 34.2444 51.539C33.9676 52.8078 34.7726 54.0616 36.0445 54.3381C36.046 54.3381 36.0475 54.3381 36.049 54.3396H36.1148C37.3597 54.64 38.6122 53.8748 38.9114 52.633C38.9144 52.624 38.9159 52.6135 38.9189 52.6046V52.4746C39.1389 51.1923 38.3189 49.9624 37.0485 49.6725Z" fill="url(#paint3_linear_12_34)"/>
<defs>
<linearGradient id="paint0_linear_12_34" x1="36" y1="0" x2="36" y2="72" gradientUnits="userSpaceOnUse">
<stop stop-color="#8808FC"/>
<stop offset="1" stop-color="#9525FA" stop-opacity="0.67"/>
</linearGradient>
<linearGradient id="paint1_linear_12_34" x1="7.5" y1="-5.5" x2="72" y2="89" gradientUnits="userSpaceOnUse">
<stop stop-color="#E6007A"/>
<stop offset="1" stop-color="#7407FF" stop-opacity="0.67"/>
</linearGradient>
<linearGradient id="paint2_linear_12_34" x1="36" y1="17" x2="36" y2="53.9229" gradientUnits="userSpaceOnUse">
<stop offset="0.128125" stop-color="#FFF7F9"/>
<stop offset="1" stop-color="#DDB8FF"/>
</linearGradient>
<linearGradient id="paint3_linear_12_34" x1="36.5722" y1="49.6224" x2="36.5722" y2="54.4049" gradientUnits="userSpaceOnUse">
<stop offset="0.128125" stop-color="#FFF7F9"/>
<stop offset="1" stop-color="#DDB8FF"/>
</linearGradient>
</defs>
</svg>
