<svg width="72" height="72" viewBox="0 0 72 72" fill="none" xmlns="http://www.w3.org/2000/svg">
<circle cx="36" cy="36" r="36" fill="url(#paint0_linear_12_323)"/>
<circle cx="36" cy="36" r="36" fill="url(#paint1_linear_12_323)"/>
<path d="M41.04 41.12C41.04 41.12 44.8533 37.3334 46.1467 36C50.24 32 48.2 23.76 48.2 23.76C48.2 23.76 40 21.72 36 25.8134C32.88 28.8534 30.8533 30.96 30.8533 30.96C30.8533 30.96 25.7333 29.8934 22.6667 32.96L39 49.3334C42.0667 46.2267 41.04 41.12 41.04 41.12ZM39.04 29.12C39.2877 28.8721 39.5818 28.6754 39.9055 28.5412C40.2292 28.407 40.5762 28.3379 40.9267 28.3379C41.2771 28.3379 41.6241 28.407 41.9478 28.5412C42.2716 28.6754 42.5657 28.8721 42.8133 29.12C43.186 29.4931 43.4397 29.9683 43.5423 30.4855C43.645 31.0027 43.592 31.5387 43.3901 32.0258C43.1881 32.5129 42.8464 32.9292 42.4079 33.2221C41.9694 33.515 41.454 33.6713 40.9267 33.6713C40.3994 33.6713 39.8839 33.515 39.4455 33.2221C39.007 32.9292 38.6652 32.5129 38.4633 32.0258C38.2614 31.5387 38.2084 31.0027 38.311 30.4855C38.4137 29.9683 38.6674 29.4931 39.04 29.12ZM24 48C26.4681 47.9296 28.8309 46.9845 30.6667 45.3334L26.6667 41.3334C24 42.6667 24 48 24 48Z" fill="url(#paint2_linear_12_323)"/>
<defs>
<linearGradient id="paint0_linear_12_323" x1="36" y1="0" x2="36" y2="72" gradientUnits="userSpaceOnUse">
<stop stop-color="#8808FC"/>
<stop offset="1" stop-color="#9525FA" stop-opacity="0.67"/>
</linearGradient>
<linearGradient id="paint1_linear_12_323" x1="7.5" y1="-5.5" x2="72" y2="89" gradientUnits="userSpaceOnUse">
<stop stop-color="#E6007A"/>
<stop offset="1" stop-color="#7407FF" stop-opacity="0.67"/>
</linearGradient>
<linearGradient id="paint2_linear_12_323" x1="35.6875" y1="23.2517" x2="35.6875" y2="49.3334" gradientUnits="userSpaceOnUse">
<stop offset="0.128125" stop-color="#FFF7F9"/>
<stop offset="1" stop-color="#DDB8FF"/>
</linearGradient>
</defs>
</svg>
