<svg width="72" height="72" viewBox="0 0 72 72" fill="none" xmlns="http://www.w3.org/2000/svg">
<circle cx="36" cy="36" r="36" fill="url(#paint0_linear_12_95)"/>
<path d="M37.1344 29C31.5467 29.0224 27.0224 33.5409 27 39.1215C27 40.2391 27.1806 41.3493 27.5344 42.4092C27.7984 43.1308 28.5818 43.5194 29.3172 43.2963C30.0279 43.0241 30.4052 42.2481 30.1786 41.5222C29.8783 40.696 29.7447 39.8196 29.7842 38.9422C29.9061 34.9115 33.276 31.7423 37.3118 31.864C41.3476 31.9856 44.5208 35.3513 44.399 39.382C44.2846 43.1554 41.3091 46.22 37.5352 46.4495C37.5352 46.4495 36.1126 46.536 35.405 46.6225C35.1443 46.6598 34.8856 46.711 34.6302 46.7762C34.5938 46.8135 34.535 46.8135 34.4976 46.7772L34.4966 46.7762C34.4709 46.7431 34.4709 46.6961 34.4966 46.663L34.7167 45.4632L36.0527 39.462C36.213 38.7127 35.7353 37.9751 34.985 37.815C34.2347 37.6548 33.4962 38.132 33.3358 38.8813C33.3358 38.8813 30.1583 53.5705 30.1583 53.7039C29.9766 54.418 30.4084 55.1439 31.1234 55.3253C31.1309 55.3275 31.1395 55.3296 31.1469 55.3307H31.2207C31.9346 55.5153 32.6636 55.0862 32.8474 54.3732C32.8506 54.3614 32.8538 54.3497 32.856 54.3369C32.8538 54.3145 32.8538 54.292 32.856 54.2707C32.8955 54.0978 33.2963 52.1433 33.2963 52.1433C33.5998 50.6681 34.7905 49.5376 36.2804 49.3092C36.5871 49.2622 37.8761 49.1758 37.8761 49.1758C43.4424 48.6218 47.5049 43.6656 46.9491 38.1064C46.4425 33.036 42.2368 29.1324 37.1344 29Z" fill="#E6007A"/>
<path d="M37.1344 29C31.5467 29.0224 27.0224 33.5409 27 39.1215C27 40.2391 27.1806 41.3493 27.5344 42.4092C27.7984 43.1308 28.5818 43.5194 29.3172 43.2963C30.0279 43.0241 30.4052 42.2481 30.1786 41.5222C29.8783 40.696 29.7447 39.8196 29.7842 38.9422C29.9061 34.9115 33.276 31.7423 37.3118 31.864C41.3476 31.9856 44.5208 35.3513 44.399 39.382C44.2846 43.1554 41.3091 46.22 37.5352 46.4495C37.5352 46.4495 36.1126 46.536 35.405 46.6225C35.1443 46.6598 34.8856 46.711 34.6302 46.7762C34.5938 46.8135 34.535 46.8135 34.4976 46.7772L34.4966 46.7762C34.4709 46.7431 34.4709 46.6961 34.4966 46.663L34.7167 45.4632L36.0527 39.462C36.213 38.7127 35.7353 37.9751 34.985 37.815C34.2347 37.6548 33.4962 38.132 33.3358 38.8813C33.3358 38.8813 30.1583 53.5705 30.1583 53.7039C29.9766 54.418 30.4084 55.1439 31.1234 55.3253C31.1309 55.3275 31.1395 55.3296 31.1469 55.3307H31.2207C31.9346 55.5153 32.6636 55.0862 32.8474 54.3732C32.8506 54.3614 32.8538 54.3497 32.856 54.3369C32.8538 54.3145 32.8538 54.292 32.856 54.2707C32.8955 54.0978 33.2963 52.1433 33.2963 52.1433C33.5998 50.6681 34.7905 49.5376 36.2804 49.3092C36.5871 49.2622 37.8761 49.1758 37.8761 49.1758C43.4424 48.6218 47.5049 43.6656 46.9491 38.1064C46.4425 33.036 42.2368 29.1324 37.1344 29Z" fill="url(#paint1_linear_12_95)"/>
<path d="M37.7489 52.3375C36.8351 52.1475 35.9416 52.7335 35.7513 53.6451C35.7492 53.6537 35.7481 53.6622 35.746 53.6708C35.5483 54.577 36.1233 55.4726 37.0318 55.6701C37.0328 55.6701 37.0339 55.6701 37.035 55.6712H37.082C37.9712 55.8857 38.8658 55.3392 39.0796 54.4521C39.0817 54.4457 39.0828 54.4383 39.0849 54.4318V54.339C39.242 53.4231 38.6563 52.5446 37.7489 52.3375Z" fill="#E6007A"/>
<path d="M37.7489 52.3375C36.8351 52.1475 35.9416 52.7335 35.7513 53.6451C35.7492 53.6537 35.7481 53.6622 35.746 53.6708C35.5483 54.577 36.1233 55.4726 37.0318 55.6701C37.0328 55.6701 37.0339 55.6701 37.035 55.6712H37.082C37.9712 55.8857 38.8658 55.3392 39.0796 54.4521C39.0817 54.4457 39.0828 54.4383 39.0849 54.4318V54.339C39.242 53.4231 38.6563 52.5446 37.7489 52.3375Z" fill="url(#paint2_linear_12_95)"/>
<path d="M36.5 10L36.1901 10.0886L23.8139 13.9962L21 14.8705L22.6386 15.365V23.5291C22.0475 23.8529 21.6485 24.4435 21.6485 25.1339C21.6485 25.6288 21.8571 26.1035 22.2285 26.4534C22.5999 26.8034 23.1035 27 23.6287 27C24.1539 27 24.6576 26.8034 25.0289 26.4534C25.4003 26.1035 25.6089 25.6288 25.6089 25.1339C25.6089 24.4435 25.2099 23.8529 24.6188 23.5291V16.0088L26.599 16.6199V21.4018C26.599 22.1668 27.0941 22.8013 27.6822 23.2398C28.2703 23.6756 29.001 23.9835 29.8782 24.2597C31.6347 24.8102 33.9495 25.1339 36.5 25.1339C39.0505 25.1339 41.3653 24.8111 43.1218 24.2587C43.999 23.9835 44.7297 23.6756 45.3178 23.2389C45.9059 22.8013 46.401 22.1668 46.401 21.4018V16.6199L49.1861 15.7447L52 14.8705L49.1851 13.9953L36.8089 10.0886L36.5 10ZM36.5 11.9547L45.7822 14.8705L36.5 17.7862L27.2178 14.8705L36.5 11.9547ZM28.5792 17.2619L36.1911 19.6523L36.5 19.74L36.8099 19.6514L44.4208 17.2609V21.4018C44.4208 21.4111 44.4248 21.5193 44.1109 21.7516C43.798 21.9849 43.2366 22.2788 42.502 22.5102C41.0347 22.9702 38.8713 23.2678 36.5 23.2678C34.1287 23.2678 31.9653 22.9711 30.497 22.5093C29.7644 22.2788 29.202 21.984 28.8891 21.7516C28.5743 21.5184 28.5792 21.4111 28.5792 21.4018V17.2609V17.2619Z" fill="url(#paint3_linear_12_95)"/>
<defs>
<linearGradient id="paint0_linear_12_95" x1="7.5" y1="-5.5" x2="72" y2="89" gradientUnits="userSpaceOnUse">
<stop stop-color="#E6007A"/>
<stop offset="1" stop-color="#7407FF" stop-opacity="0.67"/>
</linearGradient>
<linearGradient id="paint1_linear_12_95" x1="37" y1="29" x2="37" y2="55.3735" gradientUnits="userSpaceOnUse">
<stop offset="0.128125" stop-color="#FFF7F9"/>
<stop offset="1" stop-color="#DDB8FF"/>
</linearGradient>
<linearGradient id="paint2_linear_12_95" x1="37.4087" y1="52.3018" x2="37.4087" y2="55.7178" gradientUnits="userSpaceOnUse">
<stop offset="0.128125" stop-color="#FFF7F9"/>
<stop offset="1" stop-color="#DDB8FF"/>
</linearGradient>
<linearGradient id="paint3_linear_12_95" x1="17.8002" y1="8.4628" x2="34.1737" y2="44.2117" gradientUnits="userSpaceOnUse">
<stop stop-color="white"/>
<stop offset="1" stop-color="#D19FFF"/>
</linearGradient>
</defs>
</svg>
