<svg width="72" height="72" viewBox="0 0 72 72" fill="none" xmlns="http://www.w3.org/2000/svg">
<circle cx="36" cy="36" r="36" fill="url(#paint0_linear_12_92)"/>
<path d="M48.4444 21.6H41.0133C40.2667 19.512 38.3111 18 36 18C33.6889 18 31.7333 19.512 30.9867 21.6H23.5556C21.6 21.6 20 23.22 20 25.2V50.4C20 52.38 21.6 54 23.5556 54H48.4444C50.4 54 52 52.38 52 50.4V25.2C52 23.22 50.4 21.6 48.4444 21.6ZM36 21.6C36.9778 21.6 37.7778 22.41 37.7778 23.4C37.7778 24.39 36.9778 25.2 36 25.2C35.0222 25.2 34.2222 24.39 34.2222 23.4C34.2222 22.41 35.0222 21.6 36 21.6ZM39.5556 46.8H27.1111V43.2H39.5556V46.8ZM44.8889 39.6H27.1111V36H44.8889V39.6ZM44.8889 32.4H27.1111V28.8H44.8889V32.4Z" fill="black"/>
<path d="M48.4444 21.6H41.0133C40.2667 19.512 38.3111 18 36 18C33.6889 18 31.7333 19.512 30.9867 21.6H23.5556C21.6 21.6 20 23.22 20 25.2V50.4C20 52.38 21.6 54 23.5556 54H48.4444C50.4 54 52 52.38 52 50.4V25.2C52 23.22 50.4 21.6 48.4444 21.6ZM36 21.6C36.9778 21.6 37.7778 22.41 37.7778 23.4C37.7778 24.39 36.9778 25.2 36 25.2C35.0222 25.2 34.2222 24.39 34.2222 23.4C34.2222 22.41 35.0222 21.6 36 21.6ZM39.5556 46.8H27.1111V43.2H39.5556V46.8ZM44.8889 39.6H27.1111V36H44.8889V39.6ZM44.8889 32.4H27.1111V28.8H44.8889V32.4Z" fill="url(#paint1_linear_12_92)"/>
<defs>
<linearGradient id="paint0_linear_12_92" x1="7.5" y1="-5.5" x2="72" y2="89" gradientUnits="userSpaceOnUse">
<stop stop-color="#E6007A"/>
<stop offset="1" stop-color="#7407FF" stop-opacity="0.67"/>
</linearGradient>
<linearGradient id="paint1_linear_12_92" x1="36" y1="18" x2="36" y2="54" gradientUnits="userSpaceOnUse">
<stop offset="0.128125" stop-color="#FFF7F9"/>
<stop offset="1" stop-color="#DDB8FF"/>
</linearGradient>
</defs>
</svg>
