<svg width="72" height="72" viewBox="0 0 72 72" fill="none" xmlns="http://www.w3.org/2000/svg">
<circle cx="36" cy="36" r="36" fill="url(#paint0_linear_12_25)"/>
<circle cx="36" cy="36" r="36" fill="url(#paint1_linear_12_25)"/>
<path d="M51.532 27H20.468C19.9195 27 19.3935 27.2161 19.0057 27.6007C18.6178 27.9853 18.4 28.507 18.4 29.0509V48.9491C18.4 49.493 18.6178 50.0147 19.0057 50.3993C19.3935 50.7839 19.9195 51 20.468 51H51.532C52.0804 51 52.6064 50.7839 52.9943 50.3993C53.3821 50.0147 53.6 49.493 53.6 48.9491V29.0509C53.6 28.507 53.3821 27.9853 52.9943 27.6007C52.6064 27.2161 52.0804 27 51.532 27V27ZM42.798 39.9055L32.051 44.6618C31.8836 44.7364 31.7001 44.7683 31.5172 44.7546C31.3342 44.7409 31.1576 44.6821 31.0035 44.5834C30.8493 44.4847 30.7225 44.3494 30.6346 44.1897C30.5466 44.03 30.5003 43.851 30.5 43.6691V34.1564C30.5003 33.9744 30.5466 33.7954 30.6346 33.6357C30.7225 33.4761 30.8493 33.3407 31.0035 33.242C31.1576 33.1434 31.3342 33.0845 31.5172 33.0708C31.7001 33.0571 31.8836 33.089 32.051 33.1636L42.798 37.9091C42.9932 37.9944 43.1591 38.1343 43.2756 38.3115C43.3921 38.4887 43.4542 38.6957 43.4542 38.9073C43.4542 39.1188 43.3921 39.3258 43.2756 39.5031C43.1591 39.6803 42.9932 39.8201 42.798 39.9055V39.9055Z" fill="url(#paint2_linear_12_25)"/>
<path d="M48.8 19.8C48.8 19.5878 48.6876 19.3843 48.4876 19.2343C48.2875 19.0843 48.0162 19 47.7333 19H24.2666C23.9838 19 23.7124 19.0843 23.5124 19.2343C23.3124 19.3843 23.2 19.5878 23.2 19.8V20.6H48.8V19.8Z" fill="url(#paint3_linear_12_25)"/>
<path d="M51.1999 23.8C51.1999 23.5878 51.0886 23.3843 50.8903 23.2343C50.6921 23.0843 50.4232 23 50.1428 23H22.6571C22.3767 23 22.1078 23.0843 21.9096 23.2343C21.7113 23.3843 21.5999 23.5878 21.5999 23.8V24.6H51.1999V23.8Z" fill="url(#paint4_linear_12_25)"/>
<defs>
<linearGradient id="paint0_linear_12_25" x1="36" y1="0" x2="36" y2="72" gradientUnits="userSpaceOnUse">
<stop stop-color="#8808FC"/>
<stop offset="1" stop-color="#9525FA" stop-opacity="0.67"/>
</linearGradient>
<linearGradient id="paint1_linear_12_25" x1="7.5" y1="-5.5" x2="72" y2="89" gradientUnits="userSpaceOnUse">
<stop stop-color="#E6007A"/>
<stop offset="1" stop-color="#7407FF" stop-opacity="0.67"/>
</linearGradient>
<linearGradient id="paint2_linear_12_25" x1="36" y1="27" x2="36" y2="51" gradientUnits="userSpaceOnUse">
<stop offset="0.128125" stop-color="#FFF7F9"/>
<stop offset="1" stop-color="#DDB8FF"/>
</linearGradient>
<linearGradient id="paint3_linear_12_25" x1="36" y1="19" x2="36" y2="20.6" gradientUnits="userSpaceOnUse">
<stop offset="0.128125" stop-color="#FFF7F9"/>
<stop offset="1" stop-color="#DDB8FF"/>
</linearGradient>
<linearGradient id="paint4_linear_12_25" x1="36.3999" y1="23" x2="36.3999" y2="24.6" gradientUnits="userSpaceOnUse">
<stop offset="0.128125" stop-color="#FFF7F9"/>
<stop offset="1" stop-color="#DDB8FF"/>
</linearGradient>
</defs>
</svg>
