<svg width="453" height="327" viewBox="0 0 453 327" fill="none" xmlns="http://www.w3.org/2000/svg">
<path d="M0 0H453V327H0V0Z" fill="#541A8A"/>
<path d="M0 0H453V29H0V0Z" fill="#541A8A"/>
<circle cx="15.5698" cy="14" r="4" fill="white"/>
<circle cx="28.9194" cy="14" r="4" fill="white"/>
<circle cx="42.2692" cy="14" r="4" fill="white"/>
<path d="M308.212 205.856C308.212 205.856 330.426 204.59 361.984 231.682L384.085 255.938L317.462 259.951L261.433 262.076L241.893 243.896L244.483 224.771L308.212 205.856Z" fill="url(#paint0_radial)"/>
<path d="M175.145 203.693C175.145 203.693 154.433 196.201 114.154 213.572L76.5105 232.563L108.056 264.674L183.625 256.174L210.463 235.16V211.549L175.145 203.693Z" fill="url(#paint1_radial)"/>
<path d="M367.439 134.236C366.956 133.084 366.436 131.946 365.88 130.829C359.67 118.334 347.668 110.096 335.676 103.535C324.894 97.6344 313.257 93.427 301.343 90.5015C289.93 87.6989 278.479 86.4428 267.271 82.8208C252.216 77.9546 237.797 70.5879 222.37 66.9707C205.74 63.0725 187.672 62.2107 170.748 64.3074C151.116 66.7393 126.774 73.6692 114.872 90.6385C104.815 104.978 97.5309 121.064 87.4786 135.386C80.1972 145.759 71.3361 154.941 64.0712 165.325C56.8062 175.709 51.0667 187.092 51.3022 199.776H173.978C180.416 200.097 189.428 199.106 192.095 206.685C193.998 212.089 190.577 219.354 189.084 224.702C187.933 228.818 186.784 232.936 185.633 237.051L167.035 243.898C167.035 243.898 185.398 241.773 200.935 234.218C200.935 234.218 210.117 237.523 214.472 238.35L220.946 237.759L214.59 265.62C214.59 265.62 218.121 262.551 222.711 251.808L229.303 252.516L235.895 255.35L274.143 240.201C278.665 238.409 283.108 236.423 287.46 234.244C297.517 229.212 318.225 219.626 326.537 221.52C323.63 219.888 317.024 215.742 321.603 212.115C324.018 210.203 327.131 210.623 329.965 210.337C350.044 208.319 366.205 188.204 370.572 169.509C373.3 157.812 372.069 145.293 367.439 134.236Z" fill="url(#paint2_radial)"/>
<path d="M367.439 134.236C366.956 133.084 366.436 131.946 365.88 130.829C359.67 118.334 347.668 110.096 335.676 103.535C324.894 97.6344 313.257 93.427 301.343 90.5015C289.93 87.6989 278.479 86.4428 267.271 82.8208C252.216 77.9546 237.797 70.5879 222.37 66.9707C205.74 63.0725 187.672 62.2107 170.748 64.3074C151.116 66.7393 126.774 73.6692 114.872 90.6385C104.815 104.978 97.5309 121.064 87.4786 135.386C80.1972 145.759 71.3361 154.941 64.0712 165.325C56.8062 175.709 51.0667 187.092 51.3022 199.776H173.978C180.416 200.097 189.428 199.106 192.095 206.685C193.998 212.089 190.577 219.354 189.084 224.702C187.933 228.818 186.784 232.936 185.633 237.051L167.035 243.898C167.035 243.898 185.398 241.773 200.935 234.218C200.935 234.218 210.117 237.523 214.472 238.35L220.946 237.759L214.59 265.62C214.59 265.62 218.121 262.551 222.711 251.808L229.303 252.516L235.895 255.35L274.143 240.201C278.665 238.409 283.108 236.423 287.46 234.244C297.517 229.212 318.225 219.626 326.537 221.52C323.63 219.888 317.024 215.742 321.603 212.115C324.018 210.203 327.131 210.623 329.965 210.337C350.044 208.319 366.205 188.204 370.572 169.509C373.3 157.812 372.069 145.293 367.439 134.236Z" fill="url(#paint3_radial)"/>
<path d="M367.439 134.236C366.956 133.084 366.436 131.946 365.88 130.829C359.67 118.334 347.668 110.096 335.676 103.535C324.894 97.6344 313.257 93.427 301.343 90.5015C289.93 87.6989 278.479 86.4428 267.271 82.8208C252.216 77.9546 237.797 70.5879 222.37 66.9707C205.74 63.0725 187.672 62.2107 170.748 64.3074C151.116 66.7393 126.774 73.6692 114.872 90.6385C104.815 104.978 97.5309 121.064 87.4786 135.386C80.1972 145.759 71.3361 154.941 64.0712 165.325C56.8062 175.709 51.0667 187.092 51.3022 199.776H173.978C180.416 200.097 189.428 199.106 192.095 206.685C193.998 212.089 190.577 219.354 189.084 224.702C187.933 228.818 186.784 232.936 185.633 237.051L167.035 243.898C167.035 243.898 185.398 241.773 200.935 234.218C200.935 234.218 210.117 237.523 214.472 238.35L220.946 237.759L214.59 265.62C214.59 265.62 218.121 262.551 222.711 251.808L229.303 252.516L235.895 255.35L237.778 256.766C242.3 254.974 283.11 236.423 287.46 234.246C297.517 229.214 318.225 219.628 326.537 221.522C323.63 219.89 317.024 215.744 321.603 212.118C324.018 210.205 327.131 210.625 329.965 210.34C350.044 208.321 366.205 188.207 370.572 169.511C373.3 157.812 372.069 145.293 367.439 134.236Z" fill="url(#paint4_radial)"/>
<path d="M308.212 205.856C308.212 205.856 330.426 204.59 361.984 231.682" stroke="#9B51E0" stroke-width="0.385648" stroke-miterlimit="10"/>
<path d="M280.365 222.337C281.639 222.145 309.02 215.107 331.636 223.047" stroke="#9B51E0" stroke-width="0.385648" stroke-miterlimit="10"/>
<path d="M138.823 211.678C138.823 211.678 165.583 200.791 181.233 211.678" stroke="#9B51E0" stroke-width="0.385648" stroke-miterlimit="10"/>
<path d="M45.7957 199.653H125.063" stroke="#0061FE" stroke-width="0.385648" stroke-miterlimit="10"/>
<path d="M63.5932 204.083H137.182" stroke="#0061FE" stroke-width="0.385648" stroke-miterlimit="10"/>
<path d="M175.028 204.165C175.028 204.165 154.44 195.302 114.036 214.044" stroke="#9B51E0" stroke-width="0.385648" stroke-miterlimit="10"/>
<path d="M90.6214 147.928H82.0664H80.9411H72.3837L69.2314 149.961H80.9411H82.0664H93.7736L90.6214 147.928Z" fill="#EECFF8"/>
<path d="M90.6214 147.928H82.0664H80.9411H72.3837L69.2314 149.961H80.9411H82.0664H93.7736L90.6214 147.928Z" fill="url(#paint5_radial)"/>
<path d="M81.5626 147.928C82.4325 147.928 83.1376 147.221 83.1376 146.349C83.1376 145.476 82.4325 144.769 81.5626 144.769C80.6927 144.769 79.9877 145.476 79.9877 146.349C79.9877 147.221 80.6927 147.928 81.5626 147.928Z" fill="url(#paint6_radial)"/>
<path d="M102.039 164.957C99.0799 171.419 96.7328 175.008 95.0661 176.998L93.6206 157.623L97.0836 155.489L104.968 155.534C105.431 155.536 105.752 156.001 105.587 156.438C104.805 158.499 103.562 161.632 102.039 164.957ZM106.472 152.552H96.2549L90.5673 156.058L92.4553 181.338H94.7859C101.043 176.776 107.442 159.944 108.932 155.838C109.135 155.279 109.022 154.655 108.635 154.204L107.722 153.132C107.409 152.764 106.952 152.552 106.472 152.552Z" fill="url(#paint7_radial)"/>
<path d="M69.4127 197.819L70.618 199.559H92.4623L93.5876 197.932C93.8348 197.573 93.9784 197.162 93.9996 196.737L96.3938 149.855H66.6136L69.0007 196.624C69.0243 197.049 69.1655 197.46 69.4127 197.819Z" fill="#EECFF8"/>
<path d="M69.4127 197.819L70.618 199.559H92.4623L93.5876 197.932C93.8348 197.573 93.9784 197.162 93.9996 196.737L96.3938 149.855H66.6136L69.0007 196.624C69.0243 197.049 69.1655 197.46 69.4127 197.819Z" fill="url(#paint8_radial)"/>
<path d="M61.9759 149.855L66.7007 155.833L67.2539 162.397L71.8681 149.855H61.9759Z" fill="url(#paint9_radial)"/>
<path d="M66.3453 148.561C65.6108 148.401 65.1635 147.584 65.1847 146.828C65.2059 146.073 65.5825 145.378 65.9827 144.741C66.3829 144.101 66.8279 143.468 67.0115 142.736C67.3764 141.28 66.6466 139.797 65.938 138.475" stroke="#C0D8F0" stroke-width="0.385648" stroke-miterlimit="10"/>
<path d="M68.165 153.236L69.9659 181.917" stroke="white" stroke-width="0.385648" stroke-miterlimit="10"/>
<path d="M101.601 153.463H105.801C106.279 153.463 106.736 153.673 107.046 154.037L107.906 155.043" stroke="white" stroke-width="0.385648" stroke-miterlimit="10"/>
<path d="M82.1793 166.033H80.8281V167.427H82.1793V166.033Z" fill="#B0B0F8"/>
<path d="M82.1793 169.271H80.8281V170.664H82.1793V169.271Z" fill="#B0B0F8"/>
<path d="M82.1793 167.651H80.8281V169.044H82.1793V167.651Z" fill="#B0B0F8"/>
<path d="M82.1793 170.888H80.8281V172.281H82.1793V170.888Z" fill="#808CC6"/>
<path d="M82.1793 175.742H80.8281V177.135H82.1793V175.742Z" fill="#808CC6"/>
<path d="M82.1793 172.505H80.8281V173.898H82.1793V172.505Z" fill="#808CC6"/>
<path d="M82.1793 174.125H80.8281V175.518H82.1793V174.125Z" fill="#808CC6"/>
<path d="M82.1793 164.414H80.8281V165.807H82.1793V164.414Z" fill="#B0B0F8"/>
<path d="M82.1793 177.362H80.8281V178.755H82.1793V177.362Z" fill="#808CC6"/>
<path d="M81.5037 179.657C81.8756 179.657 82.1793 179.355 82.1793 178.979H80.8281C80.8281 179.355 81.1294 179.657 81.5037 179.657Z" fill="#808CC6"/>
<path d="M81.5037 158.655C81.1317 158.655 80.8281 158.957 80.8281 159.333H82.1793C82.1793 158.96 81.8756 158.655 81.5037 158.655Z" fill="#B0B0F8"/>
<path d="M82.1793 162.796H80.8281V164.189H82.1793V162.796Z" fill="#B0B0F8"/>
<path d="M82.1793 159.559H80.8281V160.952H82.1793V159.559Z" fill="#B0B0F8"/>
<path d="M82.1793 161.177H80.8281V162.57H82.1793V161.177Z" fill="#B0B0F8"/>
<path d="M294.327 124.582L290.794 124.834C286.25 122.809 244.596 124.329 214.556 122.556C184.517 120.783 154.222 129.646 154.222 129.646L151.837 128.251C151.526 128.069 151.13 128.26 151.079 128.617C150.53 132.397 148.282 149.822 151.192 163.068C154.473 178.007 154.203 202.992 154.203 202.992C167.186 201.559 173.912 204.085 173.912 204.085L176.327 205.528L201.679 207.374L243.08 205.856L290.033 202.694C290.033 202.694 291.298 168.89 294.327 153.699C297.357 138.508 294.327 124.582 294.327 124.582Z" fill="#ECBAFF"/>
<path d="M289.278 153.699C289.278 153.699 293.318 142.559 290.791 127.115C290.791 127.115 277.158 125.85 264.538 126.863" stroke="white" stroke-width="0.385648" stroke-miterlimit="10"/>
<path d="M153.843 133.065C153.843 133.065 171.009 126.988 186.66 126.988" stroke="white" stroke-width="0.385648" stroke-miterlimit="10"/>
<path d="M153.715 146.864C153.715 146.864 152.957 155.472 155.987 164.841" stroke="white" stroke-width="0.385648" stroke-miterlimit="10"/>
<path d="M388.362 104.961H325.252V142.432H388.362V104.961Z" fill="url(#paint10_radial)"/>
<path d="M375.487 119.9H312.377V157.371H375.487V119.9Z" fill="#DEF4FF"/>
<path d="M369.59 127.748H321.556C320.529 127.748 319.698 126.915 319.698 125.885V123.283C319.698 122.254 320.529 121.42 321.556 121.42H369.59C370.617 121.42 371.448 122.254 371.448 123.283V125.885C371.448 126.912 370.617 127.748 369.59 127.748Z" stroke="#0061FE" stroke-width="0.385648" stroke-miterlimit="10"/>
<path d="M338.251 130.152H370.313" stroke="#0061FE" stroke-width="0.385648" stroke-miterlimit="10"/>
<path d="M338.379 133.19H370.438" stroke="#0061FE" stroke-width="0.385648" stroke-miterlimit="10"/>
<path d="M338.379 135.977H370.438" stroke="#0061FE" stroke-width="0.385648" stroke-miterlimit="10"/>
<path d="M319.526 143.572H310.15C309.498 143.572 308.968 143.041 308.968 142.387V135.261C308.968 134.607 309.498 134.076 310.15 134.076H319.526C320.179 134.076 320.708 134.607 320.708 135.261V142.387C320.708 143.041 320.179 143.572 319.526 143.572Z" fill="#EECFF8"/>
<path d="M312.125 138.635L313.674 141.077C313.778 141.239 314.015 141.247 314.126 141.086L317.426 136.357" stroke="#0061FE" stroke-width="0.385648" stroke-miterlimit="10"/>
<path d="M391.14 100.657H368.672V112.049H391.14V100.657Z" fill="#FFDE99"/>
<path d="M368.663 112.049H391.147V100.657H368.663V112.049Z" fill="url(#paint11_radial)"/>
<path d="M368.672 100.657L379.779 106.227L391.138 100.657H368.672Z" fill="#FFDE99"/>
<path d="M388.576 107.391C389.156 106.196 390.787 105.657 391.962 106.274C392.524 106.569 392.953 107.069 393.487 107.412C394.243 107.898 395.206 108.045 396.072 107.804C396.936 107.565 397.689 106.942 398.09 106.137" stroke="#FA404B" stroke-width="0.385648" stroke-miterlimit="10"/>
<path d="M356.786 123.696H317.949C317.24 123.696 316.666 123.12 316.666 122.41V117.132C316.666 116.422 317.24 115.846 317.949 115.846H356.786C357.494 115.846 358.069 116.422 358.069 117.132V122.41C358.069 123.12 357.494 123.696 356.786 123.696Z" fill="#FFDE99"/>
<path d="M321.97 120.91C322.667 120.91 323.232 120.344 323.232 119.645C323.232 118.946 322.667 118.379 321.97 118.379C321.273 118.379 320.708 118.946 320.708 119.645C320.708 120.344 321.273 120.91 321.97 120.91Z" stroke="#FA404B" stroke-width="0.385648" stroke-miterlimit="10"/>
<path d="M325.377 119.772H354.283" stroke="#FA404B" stroke-width="0.385648" stroke-miterlimit="10"/>
<path d="M225.284 222.188L224.526 226.745C224.526 226.745 230.08 261.432 237.149 255.102C244.219 248.772 235.636 230.289 235.636 230.289L230.586 223.706L225.284 222.188Z" fill="#9B51E0"/>
<path d="M229.381 226.672L215.02 232.659C213.989 233.089 213.252 234.022 213.08 235.127C212.466 239.058 211.465 249.367 214.175 265.481C214.175 265.481 216.699 269.278 220.99 241.934C220.99 241.934 224.272 237.124 238.409 234.085C252.548 231.049 229.381 226.672 229.381 226.672Z" fill="#FFDE99"/>
<path d="M229.381 226.672L215.02 232.659C213.989 233.089 213.252 234.022 213.08 235.127C212.466 239.058 211.465 249.367 214.175 265.481C214.175 265.481 216.699 269.278 220.99 241.934C220.99 241.934 224.272 237.124 238.409 234.085C252.548 231.049 229.381 226.672 229.381 226.672Z" fill="url(#paint12_radial)"/>
<path d="M196.281 213.05C196.281 213.05 196.721 225.437 197.025 230.914C197.089 232.05 196.455 233.106 195.424 233.58C189.835 236.149 172.132 244.014 164.909 244.014C164.909 244.014 161.456 242.918 184.769 230.038C184.769 230.038 187.072 221.817 185.346 213.05C183.616 204.281 196.281 213.05 196.281 213.05Z" fill="#FFDE99"/>
<path d="M196.281 213.05C196.281 213.05 196.721 225.437 197.025 230.914C197.089 232.05 196.455 233.106 195.424 233.58C189.835 236.149 172.132 244.014 164.909 244.014C164.909 244.014 161.456 242.918 184.769 230.038C184.769 230.038 187.072 221.817 185.346 213.05C183.616 204.281 196.281 213.05 196.281 213.05Z" fill="url(#paint13_radial)"/>
<path d="M126.073 182.689L121.922 183.876L122.033 184.967L115.566 187.72C114.356 188.235 113.511 189.359 113.36 190.667C113.327 190.955 113.299 191.255 113.28 191.55H114.208L114.151 191.588C113.483 192.029 113.155 192.865 113.412 193.625C113.48 193.828 113.574 193.987 113.702 194.083L121.275 191.805L127.838 189.019L128.848 187.501L126.073 182.689Z" fill="#FFDE99"/>
<path d="M126.073 182.689L121.922 183.876L122.033 184.967L115.566 187.72C114.356 188.235 113.511 189.359 113.36 190.667C113.327 190.955 113.299 191.255 113.28 191.55H114.208L114.151 191.588C113.483 192.029 113.155 192.865 113.412 193.625C113.48 193.828 113.574 193.987 113.702 194.083L121.275 191.805L127.838 189.019L128.848 187.501L126.073 182.689Z" fill="url(#paint14_radial)"/>
<path d="M120.267 179.65L116.986 182.689L117.49 185.98L121.275 190.032C121.275 190.032 122.537 188.006 120.771 185.727C119.003 183.449 120.267 184.209 120.267 184.209L125.317 183.196V181.171L120.267 179.65Z" fill="#FFDE99"/>
<path d="M120.267 179.65L116.986 182.689L117.49 185.98L121.275 190.032C121.275 190.032 122.537 188.006 120.771 185.727C119.003 183.449 120.267 184.209 120.267 184.209L125.317 183.196V181.171L120.267 179.65Z" fill="url(#paint15_radial)"/>
<path d="M116.607 182.689C118.624 182.689 120.267 184.164 120.267 185.98C120.267 187.796 118.624 189.272 116.607 189.272C114.589 189.272 112.946 187.796 112.946 185.98C112.946 184.167 114.589 182.689 116.607 182.689ZM116.607 180.918C113.61 180.918 111.18 183.185 111.18 185.983C111.18 188.78 113.61 191.047 116.607 191.047C119.604 191.047 122.035 188.78 122.035 185.983C122.035 183.185 119.604 180.918 116.607 180.918Z" fill="#0144B9"/>
<path d="M161.668 173.067C161.668 173.067 136.928 183.194 132.636 183.194L128.596 178.129L118.245 179.142C118.245 179.142 119.003 181.673 124.557 181.928C124.557 181.928 123.295 186.485 127.08 188.006C127.08 188.006 116.225 193.323 113.702 195.854C113.702 195.854 122.789 193.068 126.828 192.058C129.75 191.326 131.878 190.858 133.312 190.273C134.734 189.692 136.207 189.255 137.719 188.993L169.491 183.451C169.493 183.449 170.251 169.776 161.668 173.067Z" fill="#FFDE99"/>
<path d="M161.668 173.067C161.668 173.067 136.928 183.194 132.636 183.194L128.596 178.129L118.245 179.142C118.245 179.142 119.003 181.673 124.557 181.928C124.557 181.928 123.295 186.485 127.08 188.006C127.08 188.006 116.225 193.323 113.702 195.854C113.702 195.854 122.789 193.068 126.828 192.058C130.868 191.045 133.392 190.539 134.654 189.527L169.491 183.449C169.493 183.449 170.251 169.776 161.668 173.067Z" fill="url(#paint16_radial)"/>
<path d="M191.961 100.149C191.961 100.149 181.864 112.302 196.505 129.519C196.505 129.519 198.777 132.558 199.283 136.102C199.283 136.102 218.836 132.709 220.35 127.139C221.864 121.569 206.856 108.758 206.856 108.758L202.816 102.175L194.233 100.149H191.961Z" fill="url(#paint17_radial)"/>
<path d="M212.158 128.253C212.158 128.253 217.459 137.115 213.926 141.419H209.13L215.19 151.546L226.549 152.051L231.598 145.468L233.618 134.581L230.84 134.076C230.84 134.076 221.596 130.806 221.548 110.033L210.646 119.642L212.158 128.253Z" fill="#FFDE99"/>
<path d="M212.158 128.253C212.158 128.253 217.459 137.115 213.926 141.419H209.13L215.19 151.546L226.549 152.051L231.598 145.468L233.618 134.581L230.84 134.076C230.84 134.076 221.596 130.806 221.548 110.033L210.646 119.642L212.158 128.253Z" fill="url(#paint18_radial)"/>
<path d="M212.158 128.253C212.158 128.253 217.459 137.115 213.926 141.419H209.13L215.19 151.546L226.549 152.051L231.598 145.468L233.618 134.581L230.84 134.076C230.84 134.076 221.596 130.806 221.548 110.033L210.646 119.642L212.158 128.253Z" fill="url(#paint19_radial)"/>
<path d="M194.739 100.657C194.739 100.657 195.175 125.741 204.118 131.37C205.281 132.102 206.752 132.135 207.979 131.512C211.15 129.901 218.001 126.093 219.731 122.431C222.003 117.621 221.499 109.518 221.499 109.518L194.739 100.657Z" fill="#FFDE99"/>
<path d="M237.653 102.175C231.848 93.8189 223.265 82.4265 216.447 83.9447C210.651 85.2363 198.287 90.3717 194.713 91.8804C194.087 92.1449 193.604 92.6667 193.39 93.3136L192.971 94.5768L192.731 94.4965C191.549 94.1022 190.261 94.6949 189.795 95.8518C187.618 101.245 182.956 116.36 192.722 129.009L193.48 128.756C193.48 128.756 188.43 122.934 188.684 113.312C188.854 106.885 191.5 103.282 193.239 101.599C193.816 101.042 194.777 101.429 194.803 102.232C194.803 102.232 202.065 108.753 209.639 110.021C217.212 111.286 219.232 118.122 219.232 118.122L219.99 117.869C219.99 117.869 218.98 114.578 215.95 111.792C212.92 109.006 212.165 108.5 212.165 108.5C212.165 108.5 216.263 110.427 218.728 113.31C223.272 118.627 225.04 130.274 221 133.058C221 133.058 226.195 132.251 231.346 130.518C231.754 129.509 232.481 126.9 232.109 121.666H232.613C232.613 121.666 233.272 126.083 232.33 130.175C234.096 129.538 235.815 128.789 237.274 127.925C237.43 126.884 237.578 125.67 237.703 124.258L238.004 124.298C238.004 124.298 237.945 125.715 237.698 127.668C239.395 126.598 240.688 125.361 241.196 123.947C243.459 117.619 243.459 110.531 237.653 102.175Z" fill="url(#paint20_radial)"/>
<path d="M214.175 140.914C214.175 140.914 210.135 140.661 200.542 143.952L161.92 170.789C161.92 170.789 159.396 190.284 168.231 197.88L205.088 176.866L216.447 201.932L250.526 199.401C250.526 199.401 247.244 185.475 248.506 181.678C249.768 177.882 254.566 172.057 254.566 169.526C254.566 169.526 262.139 181.173 271.984 188.261L275.77 168.005C275.77 168.005 258.099 140.661 252.798 138.888C247.496 137.115 237.651 133.571 230.836 134.078C230.836 134.078 227.554 148.762 220.99 149.017C214.429 149.27 214.175 140.914 214.175 140.914Z" fill="#F9C1DA"/>
<path d="M214.175 140.914C214.175 140.914 210.135 140.661 200.542 143.952L161.92 170.789C161.92 170.789 159.396 190.284 168.231 197.88L205.088 176.866L216.447 201.932L250.526 199.401C250.526 199.401 247.244 185.475 248.506 181.678C249.768 177.882 254.566 172.057 254.566 169.526C254.566 169.526 262.139 181.173 271.984 188.261L275.77 168.005C275.77 168.005 258.099 140.661 252.798 138.888C247.496 137.115 237.651 133.571 230.836 134.078C230.836 134.078 227.554 148.762 220.99 149.017C214.429 149.27 214.175 140.914 214.175 140.914Z" fill="url(#paint21_radial)"/>
<path d="M214.175 140.914C214.175 140.914 210.135 140.661 200.542 143.952L161.92 170.789C161.92 170.789 159.396 190.284 168.231 197.88L205.088 176.866L216.447 201.932L250.526 199.401C250.526 199.401 247.244 185.475 248.506 181.678C249.768 177.882 254.566 172.057 254.566 169.526C254.566 169.526 262.139 181.173 271.984 188.261L275.77 168.005C275.77 168.005 258.099 140.661 252.798 138.888C247.496 137.115 237.651 133.571 230.836 134.078C230.836 134.078 227.554 148.762 220.99 149.017C214.429 149.27 214.175 140.914 214.175 140.914Z" fill="url(#paint22_radial)"/>
<path d="M103.353 178.892L91.0852 179.152C90.9345 187.26 98.8092 195.602 98.8092 195.602L99.0611 196.362H103.353H107.713L107.969 195.602C107.969 195.602 115.971 187.26 115.818 179.152L103.353 178.892Z" fill="#0061FE"/>
<path d="M103.353 178.892L91.0852 179.152C90.9345 187.26 98.8092 195.602 98.8092 195.602L99.0611 196.362H103.353H107.713L107.969 195.602C107.969 195.602 115.971 187.26 115.818 179.152L103.353 178.892Z" fill="url(#paint23_radial)"/>
<path d="M254.568 169.523L251.034 165.471C251.034 165.471 251.157 183.074 236.898 186.74C227.052 189.272 222.923 196.296 220.993 201.679L224.526 203.197L250.528 199.401C250.528 199.401 247.246 185.475 248.508 181.678C249.77 177.879 254.568 172.054 254.568 169.523Z" fill="url(#paint24_radial)"/>
<path d="M120.771 185.727C120.272 185.085 120.015 184.684 119.902 184.438C119.895 184.434 119.891 184.427 119.884 184.422C119.516 184.318 119.159 184.174 118.777 184.035C118.24 183.839 117.678 183.73 117.122 183.6L117.487 185.982L121.273 190.034C121.277 190.032 122.539 188.006 120.771 185.727Z" fill="#FFDE99"/>
<path d="M221.497 200.414C221.497 200.414 198.273 149.27 190.445 145.726C190.445 145.726 183.376 144.965 179.842 146.738C176.308 148.512 174.037 219.404 174.037 219.404H200.038C200.038 219.404 203.32 228.013 224.526 226.494C224.526 226.494 224.778 222.698 227.05 222.95C229.322 223.203 238.663 253.586 236.643 255.612L311.821 217.56C316.009 215.44 318.505 207.632 316.92 203.202C315.969 200.543 312.306 198.296 309.347 197.885C302.026 196.872 250.401 199.278 250.401 199.278C250.401 199.278 227.935 201.804 221.497 200.414Z" fill="#E0E0E0"/>
<path d="M316.92 203.197C315.969 200.539 312.306 198.291 309.347 197.88C306.192 197.443 294.812 197.642 282.879 198.01C282.159 199.257 281.483 200.532 280.848 201.823C278.693 206.21 276.998 210.814 275.591 215.489C274.162 220.233 272.956 225.061 272.335 229.982C272.005 232.584 271.822 235.202 271.786 237.818L311.824 217.553C316.009 215.435 318.505 207.627 316.92 203.197Z" fill="url(#paint25_radial)"/>
<path d="M186.504 178.543C190.97 177.572 195.314 176.054 199.483 174.184C202.018 173.048 204.467 171.778 206.729 170.203C200.526 158.412 193.946 147.31 190.447 145.723C190.447 145.723 183.378 144.963 179.844 146.736C178.213 147.555 176.85 163.108 175.856 179.615C179.428 179.707 183.008 179.303 186.504 178.543Z" fill="url(#paint26_radial)"/>
<path d="M250.401 199.273C250.401 199.273 228.87 201.7 221.925 200.494L221.624 200.539L221.551 200.423C221.534 200.418 221.515 200.416 221.499 200.414C221.499 200.414 221.459 200.324 221.381 200.156L200.926 167.88L206.479 219.277H199.916V219.404H200.043C200.043 219.404 203.325 228.013 224.531 226.494C224.531 226.494 224.701 223.963 226 223.172C226.111 223.104 226.233 223.05 226.36 223.012L285.118 205.736L269.719 201.939L269.467 200.673L313.391 199.408L250.401 199.273Z" fill="url(#paint27_radial)"/>
<path d="M250.401 199.273C250.401 199.273 228.87 201.7 221.925 200.494L221.624 200.539L221.551 200.423C221.534 200.418 221.515 200.416 221.499 200.414C221.499 200.414 221.459 200.324 221.381 200.156L200.926 167.88L206.479 219.277H199.916V219.404H200.043C200.043 219.404 203.325 228.013 224.531 226.494C224.531 226.494 224.701 223.963 226 223.172C226.111 223.104 226.233 223.05 226.36 223.012L285.118 205.736L269.719 201.939L269.467 200.673L313.391 199.408L250.401 199.273Z" fill="url(#paint28_radial)"/>
<path d="M204.572 124.254C205.17 123.432 205.766 122.613 206.364 121.791C206.486 121.623 206.682 121.432 206.87 121.522C206.988 121.578 207.033 121.72 207.066 121.848C207.27 122.7 207.357 123.581 207.322 124.454C207.301 124.983 207.167 125.607 206.677 125.807C206.26 125.98 205.785 125.746 205.444 125.451C205.06 125.122 204.749 124.707 204.537 124.247" fill="url(#paint29_radial)"/>
<path d="M212.986 99.1857C219.173 100.506 224.322 105.287 226.909 111.076C229.496 116.866 229.715 123.531 228.385 129.734" stroke="#0144B9" stroke-width="0.385648" stroke-miterlimit="10"/>
<path d="M226.704 105.735C228.75 107.263 229.849 109.747 230.584 112.195C231.481 115.185 231.963 118.299 232.017 121.42" stroke="#0144B9" stroke-width="0.385648" stroke-miterlimit="10"/>
<path d="M210.354 105.452C215.293 107.003 219.514 110.599 222.047 115.123C224.583 119.647 225.452 125.045 224.705 130.18" stroke="#0144B9" stroke-width="0.385648" stroke-miterlimit="10"/>
<path d="M252.164 139.877C250.09 140.144 248.235 141.69 247.595 143.688" stroke="#FA404B" stroke-width="0.385648" stroke-miterlimit="10"/>
<path d="M231.231 183.718C233.929 184.438 236.872 184.306 239.433 183.194C241.994 182.082 244.137 179.964 245.14 177.353" stroke="#FA404B" stroke-width="0.385648" stroke-miterlimit="10"/>
<path d="M212.977 143.058C213.777 146.245 214.881 149.801 217.812 151.269C219.952 152.341 222.61 151.952 224.677 150.748C226.744 149.543 228.305 147.624 229.607 145.612C231.69 142.392 233.23 138.819 234.143 135.093" stroke="#FA404B" stroke-width="0.385648" stroke-miterlimit="10"/>
<path d="M163.85 171.044C163.648 175.251 163.633 179.501 164.427 183.638C165.218 187.775 166.861 191.824 169.651 194.971" stroke="#FA404B" stroke-width="0.385648" stroke-miterlimit="10"/>
<path d="M200.38 144.576C200.693 144.547 200.893 144.894 200.997 145.192C201.576 146.831 201.75 148.611 201.5 150.33" stroke="#FA404B" stroke-width="0.385648" stroke-miterlimit="10"/>
<path d="M192.988 152.351C196.884 153.954 200.165 161.042 200.923 167.372" stroke="#B0B0F8" stroke-width="0.385648" stroke-miterlimit="10"/>
<path d="M285.005 205.568C290.768 202.928 297.298 202.005 303.565 202.945" stroke="#B0B0F8" stroke-width="0.385648" stroke-miterlimit="10"/>
<path d="M290.74 205.766C293.607 205.056 296.63 204.985 299.525 205.566" stroke="#B0B0F8" stroke-width="0.385648" stroke-miterlimit="10"/>
<path d="M230.249 223.234C235.285 232.171 238.569 242.097 239.857 252.28" stroke="#B0B0F8" stroke-width="0.385648" stroke-miterlimit="10"/>
<path d="M175.885 216.854C175.969 216.854 176.054 216.854 176.139 216.854H203.315" stroke="#B0B0F8" stroke-width="0.385648" stroke-miterlimit="10"/>
<path d="M103.353 181.171C110.184 181.171 115.721 180.264 115.721 179.145C115.721 178.026 110.184 177.119 103.353 177.119C96.5216 177.119 90.9839 178.026 90.9839 179.145C90.9839 180.264 96.5216 181.171 103.353 181.171Z" fill="#DEF4FF"/>
<path d="M103.353 181.171C110.184 181.171 115.721 180.264 115.721 179.145C115.721 178.026 110.184 177.119 103.353 177.119C96.5216 177.119 90.9839 178.026 90.9839 179.145C90.9839 180.264 96.5216 181.171 103.353 181.171Z" fill="url(#paint30_radial)"/>
<path d="M94.6988 178.795C96.9611 178.387 100.226 178.132 103.859 178.132C104.29 178.132 104.713 178.137 105.132 178.141" stroke="white" stroke-width="0.385648" stroke-miterlimit="10"/>
<path d="M93.9737 183.279C94.7576 186.027 96.0218 188.636 97.6956 190.948" stroke="#BDD9FF" stroke-width="0.385648" stroke-miterlimit="10"/>
<path d="M212.986 111.072C203.402 111.336 198.212 114.077 196.338 115.319C197.326 120.363 198.925 125.573 201.5 128.912H208.226C208.226 128.91 225.412 110.729 212.986 111.072Z" fill="url(#paint31_radial)"/>
<path d="M319.133 199.339L225.675 199.486C225.063 199.486 224.566 198.99 224.564 198.376L224.562 197.561C224.562 196.948 225.056 196.449 225.668 196.447L319.126 196.301C319.738 196.301 320.235 196.796 320.237 197.41L320.24 198.225C320.24 198.839 319.745 199.337 319.133 199.339Z" fill="#241921"/>
<path d="M319.133 199.339L263.542 199.427C262.93 199.427 262.433 198.931 262.431 198.317L262.428 197.502C262.428 196.888 262.923 196.39 263.535 196.388L319.126 196.301C319.738 196.301 320.235 196.796 320.237 197.41L320.24 198.225C320.24 198.839 319.745 199.337 319.133 199.339Z" fill="#0061FE"/>
<path d="M333.221 148.679L278.978 148.764C278.246 148.764 277.599 149.237 277.37 149.933L263.156 193.396C262.796 194.497 263.615 195.625 264.769 195.625L319.011 195.54C319.743 195.54 320.39 195.068 320.619 194.372L334.833 150.908C335.191 149.808 334.374 148.677 333.221 148.679Z" fill="#BF7BFF"/>
<path d="M256.037 198.678L251.661 198.685C251.336 198.685 251.072 198.421 251.072 198.095V198.01C251.072 197.684 251.336 197.42 251.661 197.42L256.037 197.413C256.362 197.413 256.625 197.677 256.625 198.003V198.088C256.625 198.411 256.362 198.676 256.037 198.678Z" stroke="#F2F6FF" stroke-width="0.385648" stroke-miterlimit="10"/>
<path d="M316.497 198.709L312.12 198.716C311.795 198.716 311.532 198.452 311.532 198.126V198.041C311.532 197.715 311.795 197.45 312.12 197.45L316.497 197.443C316.822 197.443 317.085 197.708 317.085 198.034V198.119C317.085 198.444 316.822 198.709 316.497 198.709Z" stroke="#F2F6FF" stroke-width="0.385648" stroke-miterlimit="10"/>
<path d="M246.823 198.818L242.446 198.825C242.121 198.825 241.858 198.56 241.858 198.234V198.149C241.858 197.824 242.121 197.559 242.446 197.559L246.823 197.552C247.148 197.552 247.411 197.816 247.411 198.142V198.227C247.411 198.553 247.148 198.818 246.823 198.818Z" stroke="#F2F6FF" stroke-width="0.385648" stroke-miterlimit="10"/>
<path d="M259.443 198.799H259.359C259.034 198.799 258.77 198.534 258.77 198.208V198.123C258.77 197.798 259.034 197.533 259.359 197.533H259.443C259.768 197.533 260.032 197.798 260.032 198.123V198.208C260.032 198.534 259.771 198.799 259.443 198.799Z" stroke="#F2F6FF" stroke-width="0.385648" stroke-miterlimit="10"/>
<path d="M334.216 149.003C333.941 148.8 333.6 148.677 333.221 148.679L278.978 148.764C278.246 148.764 277.599 149.237 277.37 149.933L263.323 192.886L334.216 149.003Z" fill="url(#paint32_radial)"/>
<path d="M301.006 174.249C302.572 173.175 303.167 171.315 302.336 170.093C301.503 168.871 299.558 168.75 297.993 169.823C296.425 170.896 295.832 172.757 296.663 173.979C297.496 175.201 299.441 175.322 301.006 174.249Z" fill="#0144B9"/>
<path d="M325.106 152.011L307.956 162.671" stroke="#BDD9FF" stroke-width="0.385648" stroke-miterlimit="10"/>
<path d="M322.709 187.798L325.892 187.26L324.823 183.008L324.028 181.945L322.709 187.798Z" fill="#FFDE99"/>
<path d="M322.709 187.798L325.892 187.26L324.823 183.008L324.028 181.945L322.709 187.798Z" fill="url(#paint33_radial)"/>
<path d="M325.539 172.921L322.716 166.628C322.716 166.628 321.855 169.679 322.608 173.164C322.1 171.887 321.64 170.753 321.64 170.753C321.64 170.753 319.705 178.788 321.228 184.866C321.69 186.71 322.071 188.03 322.38 188.979L326.502 176.375L325.539 172.921Z" fill="url(#paint34_radial)"/>
<path d="M322.676 166.522C322.676 166.522 321.888 170.512 326.139 176.89L321.622 170.779L321.179 175.445C320.958 177.768 321.499 180.101 322.719 182.089L325.89 187.262L329.061 180.077L329.586 176.885L322.676 166.522Z" fill="#FFDE99"/>
<path d="M322.676 166.522C322.676 166.522 321.888 170.512 326.139 176.89L321.622 170.779L321.179 175.445C320.958 177.768 321.499 180.101 322.719 182.089L325.89 187.262L329.061 180.077L329.586 176.885L322.676 166.522Z" fill="url(#paint35_radial)"/>
<path d="M116.609 79.9072C115.437 81.4585 115.484 83.8172 116.72 85.3189C118.146 87.0519 120.736 87.5124 122.082 89.3068C123.109 90.6739 123.154 92.7021 122.188 94.114" stroke="#0061FE" stroke-width="0.385648" stroke-miterlimit="10"/>
<path d="M61.1708 230.87C61.5404 232.99 63.0753 234.867 65.0787 235.646C67.0821 236.425 69.4763 236.073 71.1736 234.756" stroke="#0061FE" stroke-width="0.385648" stroke-miterlimit="10"/>
<path d="M272.377 100.104C273.352 100.104 274.143 99.3113 274.143 98.3333C274.143 97.3554 273.352 96.5625 272.377 96.5625C271.403 96.5625 270.612 97.3554 270.612 98.3333C270.612 99.3113 271.403 100.104 272.377 100.104Z" stroke="#0061FE" stroke-width="0.385648" stroke-miterlimit="10"/>
<path d="M308.278 238.938L313.457 243.896" stroke="#0061FE" stroke-width="0.385648" stroke-miterlimit="10"/>
<path d="M365.595 172.796L363.323 173.409L363.933 175.689L366.207 175.076L365.595 172.796Z" stroke="#FA404B" stroke-width="0.385648" stroke-miterlimit="10"/>
<defs>
<radialGradient id="paint0_radial" cx="0" cy="0" r="1" gradientUnits="userSpaceOnUse" gradientTransform="translate(314.587 206.048) rotate(18.9687) scale(80.091 41.6999)">
<stop stop-color="#DE86FF"/>
<stop offset="0.9011" stop-color="white" stop-opacity="0"/>
</radialGradient>
<radialGradient id="paint1_radial" cx="0" cy="0" r="1" gradientUnits="userSpaceOnUse" gradientTransform="translate(163.626 207.943) rotate(-1.91976) scale(72.0304 41.8754)">
<stop stop-color="#D871FF"/>
<stop offset="0.9011" stop-color="white" stop-opacity="0"/>
</radialGradient>
<radialGradient id="paint2_radial" cx="0" cy="0" r="1" gradientUnits="userSpaceOnUse" gradientTransform="translate(349.902 67.0201) scale(209.169 209.786)">
<stop stop-color="#DCE9FC"/>
<stop offset="0.7754" stop-color="#F7F8FC" stop-opacity="0"/>
</radialGradient>
<radialGradient id="paint3_radial" cx="0" cy="0" r="1" gradientUnits="userSpaceOnUse" gradientTransform="translate(34.096 87.0621) scale(244.852 245.574)">
<stop stop-color="#DCE9FC"/>
<stop offset="0.7754" stop-color="#F7F8FC" stop-opacity="0"/>
</radialGradient>
<radialGradient id="paint4_radial" cx="0" cy="0" r="1" gradientUnits="userSpaceOnUse" gradientTransform="translate(234.809 234.251) rotate(-4.85017) scale(215.199 60.454)">
<stop stop-color="#DCE9FC"/>
<stop offset="0.7754" stop-color="#F7F8FC" stop-opacity="0"/>
</radialGradient>
<radialGradient id="paint5_radial" cx="0" cy="0" r="1" gradientUnits="userSpaceOnUse" gradientTransform="translate(81.5336 156.225) scale(15.9275 15.9746)">
<stop stop-color="#B2B1F8"/>
<stop offset="0.1471" stop-color="#B0B0F8"/>
<stop offset="1" stop-color="#EECFF8" stop-opacity="0"/>
</radialGradient>
<radialGradient id="paint6_radial" cx="0" cy="0" r="1" gradientUnits="userSpaceOnUse" gradientTransform="translate(83.4071 150.678) scale(6.483 6.50208)">
<stop stop-color="#B2B1F8"/>
<stop offset="0.1471" stop-color="#B0B0F8"/>
<stop offset="1" stop-color="#EECFF8"/>
</radialGradient>
<radialGradient id="paint7_radial" cx="0" cy="0" r="1" gradientUnits="userSpaceOnUse" gradientTransform="translate(92.1497 164.636) scale(21.7791 21.8433)">
<stop stop-color="#B2B1F8"/>
<stop offset="0.1471" stop-color="#B0B0F8"/>
<stop offset="1" stop-color="#EECFF8"/>
</radialGradient>
<radialGradient id="paint8_radial" cx="0" cy="0" r="1" gradientUnits="userSpaceOnUse" gradientTransform="translate(98.2159 190.852) scale(42.7142 42.8402)">
<stop stop-color="#B2B1F8"/>
<stop offset="0.1471" stop-color="#B0B0F8"/>
<stop offset="1" stop-color="#EECFF8"/>
</radialGradient>
<radialGradient id="paint9_radial" cx="0" cy="0" r="1" gradientUnits="userSpaceOnUse" gradientTransform="translate(64.5836 163.204) scale(16.5172 16.5659)">
<stop stop-color="#B2B1F8"/>
<stop offset="0.1471" stop-color="#B0B0F8"/>
<stop offset="1" stop-color="#EECFF8"/>
</radialGradient>
<radialGradient id="paint10_radial" cx="0" cy="0" r="1" gradientUnits="userSpaceOnUse" gradientTransform="translate(350.616 164.009) scale(76.4292 76.6546)">
<stop offset="0.131" stop-color="#B0B0F8"/>
<stop offset="0.1759" stop-color="#B7B7F9"/>
<stop offset="0.3876" stop-color="#D3D4FB"/>
<stop offset="0.5977" stop-color="#E8E9FD"/>
<stop offset="0.8034" stop-color="#F4F6FE"/>
<stop offset="1" stop-color="#F8FAFE"/>
</radialGradient>
<radialGradient id="paint11_radial" cx="0" cy="0" r="1" gradientUnits="userSpaceOnUse" gradientTransform="translate(386.599 95.6516) rotate(180) scale(29.0975 29.16)">
<stop stop-color="#FA404B"/>
<stop offset="0.025" stop-color="#FA484F" stop-opacity="0.975"/>
<stop offset="0.1916" stop-color="#FC7565" stop-opacity="0.8084"/>
<stop offset="0.3589" stop-color="#FD9B78" stop-opacity="0.6411"/>
<stop offset="0.5244" stop-color="#FEB886" stop-opacity="0.4756"/>
<stop offset="0.6876" stop-color="#FECD91" stop-opacity="0.3124"/>
<stop offset="0.8474" stop-color="#FFDA97" stop-opacity="0.1526"/>
<stop offset="1" stop-color="#FFDE99" stop-opacity="0"/>
</radialGradient>
<radialGradient id="paint12_radial" cx="0" cy="0" r="1" gradientUnits="userSpaceOnUse" gradientTransform="translate(238.032 244.894) scale(46.6852 46.823)">
<stop stop-color="#FA404B"/>
<stop offset="0.025" stop-color="#FA484F" stop-opacity="0.975"/>
<stop offset="0.1916" stop-color="#FC7565" stop-opacity="0.8084"/>
<stop offset="0.3589" stop-color="#FD9B78" stop-opacity="0.6411"/>
<stop offset="0.5244" stop-color="#FEB886" stop-opacity="0.4756"/>
<stop offset="0.6876" stop-color="#FECD91" stop-opacity="0.3124"/>
<stop offset="0.8474" stop-color="#FFDA97" stop-opacity="0.1526"/>
<stop offset="1" stop-color="#FFDE99" stop-opacity="0"/>
</radialGradient>
<radialGradient id="paint13_radial" cx="0" cy="0" r="1" gradientUnits="userSpaceOnUse" gradientTransform="translate(205.6 220.896) scale(42.4835 40.4489)">
<stop stop-color="#FA404B"/>
<stop offset="0.025" stop-color="#FA484F" stop-opacity="0.975"/>
<stop offset="0.1916" stop-color="#FC7565" stop-opacity="0.8084"/>
<stop offset="0.3589" stop-color="#FD9B78" stop-opacity="0.6411"/>
<stop offset="0.5244" stop-color="#FEB886" stop-opacity="0.4756"/>
<stop offset="0.6876" stop-color="#FECD91" stop-opacity="0.3124"/>
<stop offset="0.8474" stop-color="#FFDA97" stop-opacity="0.1526"/>
<stop offset="1" stop-color="#FFDE99" stop-opacity="0"/>
</radialGradient>
<radialGradient id="paint14_radial" cx="0" cy="0" r="1" gradientUnits="userSpaceOnUse" gradientTransform="translate(128.54 190.852) scale(15.9345 15.9815)">
<stop stop-color="#FA404B"/>
<stop offset="0.025" stop-color="#FA484F" stop-opacity="0.975"/>
<stop offset="0.1916" stop-color="#FC7565" stop-opacity="0.8084"/>
<stop offset="0.3589" stop-color="#FD9B78" stop-opacity="0.6411"/>
<stop offset="0.5244" stop-color="#FEB886" stop-opacity="0.4756"/>
<stop offset="0.6876" stop-color="#FECD91" stop-opacity="0.3124"/>
<stop offset="0.8474" stop-color="#FFDA97" stop-opacity="0.1526"/>
<stop offset="1" stop-color="#FFDE99" stop-opacity="0"/>
</radialGradient>
<radialGradient id="paint15_radial" cx="0" cy="0" r="1" gradientUnits="userSpaceOnUse" gradientTransform="translate(121.641 180.473) scale(4.5613 4.57475)">
<stop stop-color="#FA404B"/>
<stop offset="0.025" stop-color="#FA484F" stop-opacity="0.975"/>
<stop offset="0.1916" stop-color="#FC7565" stop-opacity="0.8084"/>
<stop offset="0.3589" stop-color="#FD9B78" stop-opacity="0.6411"/>
<stop offset="0.5244" stop-color="#FEB886" stop-opacity="0.4756"/>
<stop offset="0.6876" stop-color="#FECD91" stop-opacity="0.3124"/>
<stop offset="0.8474" stop-color="#FFDA97" stop-opacity="0.1526"/>
<stop offset="1" stop-color="#FFDE99" stop-opacity="0"/>
</radialGradient>
<radialGradient id="paint16_radial" cx="0" cy="0" r="1" gradientUnits="userSpaceOnUse" gradientTransform="translate(173.621 185.245) scale(42.4395 42.5646)">
<stop stop-color="#FA404B"/>
<stop offset="0.025" stop-color="#FA484F" stop-opacity="0.975"/>
<stop offset="0.1916" stop-color="#FC7565" stop-opacity="0.8084"/>
<stop offset="0.3589" stop-color="#FD9B78" stop-opacity="0.6411"/>
<stop offset="0.5244" stop-color="#FEB886" stop-opacity="0.4756"/>
<stop offset="0.6876" stop-color="#FECD91" stop-opacity="0.3124"/>
<stop offset="0.8474" stop-color="#FFDA97" stop-opacity="0.1526"/>
<stop offset="1" stop-color="#FFDE99" stop-opacity="0"/>
</radialGradient>
<radialGradient id="paint17_radial" cx="0" cy="0" r="1" gradientUnits="userSpaceOnUse" gradientTransform="translate(203.596 106.389) scale(36.6911 36.7993)">
<stop offset="0.0775" stop-color="#9B51E0"/>
<stop offset="1" stop-color="#BB6BD9"/>
</radialGradient>
<radialGradient id="paint18_radial" cx="0" cy="0" r="1" gradientUnits="userSpaceOnUse" gradientTransform="translate(211.625 127.683) scale(14.7874 14.8311)">
<stop stop-color="#FA404B"/>
<stop offset="0.025" stop-color="#FA484F" stop-opacity="0.975"/>
<stop offset="0.1916" stop-color="#FC7565" stop-opacity="0.8084"/>
<stop offset="0.3589" stop-color="#FD9B78" stop-opacity="0.6411"/>
<stop offset="0.5244" stop-color="#FEB886" stop-opacity="0.4756"/>
<stop offset="0.6876" stop-color="#FECD91" stop-opacity="0.3124"/>
<stop offset="0.8474" stop-color="#FFDA97" stop-opacity="0.1526"/>
<stop offset="1" stop-color="#FFDE99" stop-opacity="0"/>
</radialGradient>
<radialGradient id="paint19_radial" cx="0" cy="0" r="1" gradientUnits="userSpaceOnUse" gradientTransform="translate(228.691 128.574) rotate(72.608) scale(28.2522 17.6581)">
<stop stop-color="#FA404B"/>
<stop offset="0.025" stop-color="#FA484F" stop-opacity="0.975"/>
<stop offset="0.1916" stop-color="#FC7565" stop-opacity="0.8084"/>
<stop offset="0.3589" stop-color="#FD9B78" stop-opacity="0.6411"/>
<stop offset="0.5244" stop-color="#FEB886" stop-opacity="0.4756"/>
<stop offset="0.6876" stop-color="#FECD91" stop-opacity="0.3124"/>
<stop offset="0.8474" stop-color="#FFDA97" stop-opacity="0.1526"/>
<stop offset="1" stop-color="#FFDE99" stop-opacity="0"/>
</radialGradient>
<radialGradient id="paint20_radial" cx="0" cy="0" r="1" gradientUnits="userSpaceOnUse" gradientTransform="translate(231.786 86.1675) scale(40.3254 40.4444)">
<stop offset="0.0775" stop-color="#9B51E0"/>
<stop offset="1" stop-color="#AC33D9"/>
</radialGradient>
<radialGradient id="paint21_radial" cx="0" cy="0" r="1" gradientUnits="userSpaceOnUse" gradientTransform="translate(181.026 205.794) scale(35.6925 35.7977)">
<stop offset="0.0989" stop-color="#FA404B"/>
<stop offset="1" stop-color="#F9C1DA" stop-opacity="0"/>
</radialGradient>
<radialGradient id="paint22_radial" cx="0" cy="0" r="1" gradientUnits="userSpaceOnUse" gradientTransform="translate(272.815 146.636) rotate(60.6769) scale(29.1431 18.6043)">
<stop offset="0.0989" stop-color="#FA404B"/>
<stop offset="1" stop-color="#F9C1DA" stop-opacity="0"/>
</radialGradient>
<radialGradient id="paint23_radial" cx="0" cy="0" r="1" gradientUnits="userSpaceOnUse" gradientTransform="translate(97.7922 174.746) scale(38.5003 38.6139)">
<stop stop-color="#9B51E0"/>
<stop offset="0.9225" stop-color="#BB6BD9"/>
</radialGradient>
<radialGradient id="paint24_radial" cx="0" cy="0" r="1" gradientUnits="userSpaceOnUse" gradientTransform="translate(260.512 213.936) scale(61.6347 61.8165)">
<stop offset="0.0989" stop-color="#FA404B"/>
<stop offset="1" stop-color="#F9C1DA" stop-opacity="0"/>
</radialGradient>
<radialGradient id="paint25_radial" cx="0" cy="0" r="1" gradientUnits="userSpaceOnUse" gradientTransform="translate(319.034 230.757) scale(68.7645 68.9674)">
<stop stop-color="#F9C1DA"/>
<stop offset="0.1462" stop-color="#F2CEE4" stop-opacity="0.8538"/>
<stop offset="0.4384" stop-color="#E7E3F3" stop-opacity="0.5616"/>
<stop offset="0.7256" stop-color="#E0F0FC" stop-opacity="0.2744"/>
<stop offset="1" stop-color="#DEF4FF" stop-opacity="0"/>
</radialGradient>
<radialGradient id="paint26_radial" cx="0" cy="0" r="1" gradientUnits="userSpaceOnUse" gradientTransform="translate(172.729 153.094) scale(38.6091 38.7229)">
<stop stop-color="#F9C1DA"/>
<stop offset="0.1462" stop-color="#F2CEE4" stop-opacity="0.8538"/>
<stop offset="0.4384" stop-color="#E7E3F3" stop-opacity="0.5616"/>
<stop offset="0.7256" stop-color="#E0F0FC" stop-opacity="0.2744"/>
<stop offset="1" stop-color="#DEF4FF" stop-opacity="0"/>
</radialGradient>
<radialGradient id="paint27_radial" cx="0" cy="0" r="1" gradientUnits="userSpaceOnUse" gradientTransform="translate(189.501 198.546) scale(43.1236 43.2508)">
<stop offset="0.1096" stop-color="#BDD9FF"/>
<stop offset="1" stop-color="#DEF4FF" stop-opacity="0"/>
</radialGradient>
<radialGradient id="paint28_radial" cx="0" cy="0" r="1" gradientUnits="userSpaceOnUse" gradientTransform="translate(235.883 222.526) rotate(-13.8852) scale(64.5384 33.0636)">
<stop offset="0.1096" stop-color="#BDD9FF"/>
<stop offset="1" stop-color="#DEF4FF" stop-opacity="0"/>
</radialGradient>
<radialGradient id="paint29_radial" cx="0" cy="0" r="1" gradientUnits="userSpaceOnUse" gradientTransform="translate(208.116 120.227) scale(12.2376 12.2738)">
<stop stop-color="#FA404B"/>
<stop offset="0.025" stop-color="#FA484F" stop-opacity="0.975"/>
<stop offset="0.1916" stop-color="#FC7565" stop-opacity="0.8084"/>
<stop offset="0.3589" stop-color="#FD9B78" stop-opacity="0.6411"/>
<stop offset="0.5244" stop-color="#FEB886" stop-opacity="0.4756"/>
<stop offset="0.6876" stop-color="#FECD91" stop-opacity="0.3124"/>
<stop offset="0.8474" stop-color="#FFDA97" stop-opacity="0.1526"/>
<stop offset="1" stop-color="#FFDE99" stop-opacity="0"/>
</radialGradient>
<radialGradient id="paint30_radial" cx="0" cy="0" r="1" gradientUnits="userSpaceOnUse" gradientTransform="translate(111.62 181.904) scale(14.0239 14.0653)">
<stop stop-color="#BDD9FF"/>
<stop offset="1" stop-color="#DEF4FF"/>
</radialGradient>
<radialGradient id="paint31_radial" cx="0" cy="0" r="1" gradientUnits="userSpaceOnUse" gradientTransform="translate(197.083 102.989) scale(20.8426 20.9041)">
<stop offset="0.0989" stop-color="#FA404B"/>
<stop offset="1" stop-color="#F9C1DA" stop-opacity="0"/>
</radialGradient>
<radialGradient id="paint32_radial" cx="0" cy="0" r="1" gradientUnits="userSpaceOnUse" gradientTransform="translate(308.622 132.47) rotate(-0.0892434) scale(55.8392 56.0039)">
<stop offset="0.1096" stop-color="#6C0DC6"/>
<stop offset="1" stop-color="#D870FF"/>
</radialGradient>
<radialGradient id="paint33_radial" cx="0" cy="0" r="1" gradientUnits="userSpaceOnUse" gradientTransform="translate(326.987 182.367) rotate(-0.0892462) scale(10.2542 10.2847)">
<stop stop-color="#FA404B"/>
<stop offset="0.025" stop-color="#FA484F" stop-opacity="0.975"/>
<stop offset="0.1916" stop-color="#FC7565" stop-opacity="0.8084"/>
<stop offset="0.3589" stop-color="#FD9B78" stop-opacity="0.6411"/>
<stop offset="0.5244" stop-color="#FEB886" stop-opacity="0.4756"/>
<stop offset="0.6876" stop-color="#FECD91" stop-opacity="0.3124"/>
<stop offset="0.8474" stop-color="#FFDA97" stop-opacity="0.1526"/>
<stop offset="1" stop-color="#FFDE99" stop-opacity="0"/>
</radialGradient>
<radialGradient id="paint34_radial" cx="0" cy="0" r="1" gradientUnits="userSpaceOnUse" gradientTransform="translate(324.475 173.066) rotate(-0.0892442) scale(20.0851 20.1445)">
<stop offset="0.0989" stop-color="#0144B9"/>
<stop offset="1" stop-color="#0061FE" stop-opacity="0"/>
</radialGradient>
<radialGradient id="paint35_radial" cx="0" cy="0" r="1" gradientUnits="userSpaceOnUse" gradientTransform="translate(333.138 180.032) rotate(-0.089243) scale(13.4116 13.4511)">
<stop stop-color="#FA404B"/>
<stop offset="0.025" stop-color="#FA484F" stop-opacity="0.975"/>
<stop offset="0.1916" stop-color="#FC7565" stop-opacity="0.8084"/>
<stop offset="0.3589" stop-color="#FD9B78" stop-opacity="0.6411"/>
<stop offset="0.5244" stop-color="#FEB886" stop-opacity="0.4756"/>
<stop offset="0.6876" stop-color="#FECD91" stop-opacity="0.3124"/>
<stop offset="0.8474" stop-color="#FFDA97" stop-opacity="0.1526"/>
<stop offset="1" stop-color="#FFDE99" stop-opacity="0"/>
</radialGradient>
</defs>
</svg>
