<svg width="453" height="327" viewBox="0 0 453 327" fill="none" xmlns="http://www.w3.org/2000/svg">
<path d="M0 0H453V327H0V0Z" fill="#541A8A"/>
<path d="M0 0H453V29H0V0Z" fill="#541A8A"/>
<circle cx="15.5698" cy="15" r="4" fill="white"/>
<circle cx="28.9194" cy="15" r="4" fill="white"/>
<circle cx="42.2692" cy="15" r="4" fill="white"/>
<g clip-path="url(#clip0)">
<path d="M62.0272 165.165C64.0139 153.939 68.1807 142.572 76.1505 134.213C83.8993 126.085 95.2946 122.445 106.11 120.785C113.288 119.683 121.294 118.539 128.507 118.786C137.377 119.09 145.835 120.386 154.799 119.734C172.882 118.417 190.511 113.778 208.06 109.479C239.631 101.746 269.993 97.8793 301.529 108.904C347.838 125.094 378.013 165.146 392.266 210.87C395.489 221.208 397.936 231.784 399.694 242.465C388.78 242.465 377.868 242.465 366.954 242.465C340.747 242.465 314.543 242.465 288.336 242.465C256.597 242.465 224.86 242.465 193.122 242.465C165.614 242.465 138.104 242.465 110.597 242.465C96.9222 242.465 83.2478 242.488 69.5734 242.454C70.4137 238.949 69.4583 235.295 68.5651 231.804C63.0815 210.395 58.1113 187.273 62.0272 165.165Z" fill="url(#paint0_radial)"/>
<path d="M449.532 223.675H7.53229V291.689H449.532V223.675Z" fill="url(#paint1_radial)"/>
<path d="M272.963 234.626H356.298" stroke="#0061FE" stroke-width="0.385417" stroke-miterlimit="10"/>
<path d="M240.964 230.938H324.299" stroke="#9B51E0" stroke-width="0.385417" stroke-miterlimit="10"/>
<path d="M146.923 245.924H99.2703" stroke="#0061FE" stroke-width="0.385417" stroke-miterlimit="10"/>
<path d="M248.791 132.144C248.791 132.144 247.179 144.825 251.553 145.747C255.927 146.669 263.754 146.9 263.754 146.9L265.826 156.583L258.92 172.031L248.56 176.872L235.208 171.569L220.475 154.508L217.712 143.211C217.712 143.211 225.309 145.517 227.611 143.442C229.914 141.367 231.297 130.155 227.611 120.315C223.926 110.475 232.906 115.083 232.906 115.083L250.632 129.839L248.791 132.144Z" fill="#FFDE99"/>
<path d="M248.791 132.144C248.791 132.144 247.179 144.825 251.553 145.747C255.927 146.669 263.754 146.9 263.754 146.9L265.826 156.583L258.92 172.031L248.56 176.872L235.208 171.569L220.475 154.508L217.712 143.211C217.712 143.211 225.309 145.517 227.611 143.442C229.914 141.367 231.297 130.155 227.611 120.315C223.926 110.475 232.906 115.083 232.906 115.083L250.632 129.839L248.791 132.144Z" fill="url(#paint2_radial)"/>
<path d="M248.791 132.144C248.791 132.144 247.179 144.825 251.553 145.747C255.927 146.669 263.754 146.9 263.754 146.9L265.826 156.583L258.92 172.031L248.56 176.872L235.208 171.569L220.475 154.508L217.712 143.211C217.712 143.211 225.309 145.517 227.611 143.442C229.914 141.367 231.297 130.155 227.611 120.315C223.926 110.475 232.906 115.083 232.906 115.083L250.632 129.839L248.791 132.144Z" fill="url(#paint3_radial)"/>
<path d="M259.265 101.365C259.265 101.365 264.143 126.24 253.66 136.098C253.28 136.456 252.762 136.633 252.241 136.594C249.366 136.38 239.61 135.211 235.899 129.147C231.525 122 228.532 119.464 228.532 119.464C228.532 119.464 223.123 125.112 221.281 120.501C219.439 115.89 220.59 110.126 226.115 110.126L238.546 89.3764L250.978 90.7597L259.265 101.365Z" fill="#FFDE99"/>
<path d="M241.654 113.008L237.05 113.931L241.769 122.461L253.395 133.528C253.395 133.528 255.119 132.423 257.437 130.717C260.066 125.078 260.55 117.875 260.361 112.015C248.689 110.119 241.654 113.008 241.654 113.008Z" fill="url(#paint4_radial)"/>
<path d="M243.726 93.1805C243.726 93.1805 243.035 111.394 228.532 113.008C228.532 113.008 238.201 110.703 240.503 97.5611C240.503 97.5611 233.367 113.931 226 111.394C223.7 110.601 222.324 112.215 221.511 114C220.383 116.48 221.347 119.478 223.82 120.619C225.148 121.232 226.783 121.216 228.532 119.464C228.532 119.464 232.216 139.753 225.079 138.6C225.079 138.6 229.683 138.831 228.532 127.994C228.532 127.994 222.777 126.611 217.022 128.225C211.267 129.839 201.598 118.081 206.202 93.1805L215.41 80.9611C215.41 80.9611 239.313 74.0306 251.3 83.4188C252.267 84.1751 253.291 84.8552 254.334 85.503C256.848 87.0708 261.855 92.4312 261.682 110.242C261.682 110.242 261.912 103.786 258.229 99.8667C258.229 99.8667 259.601 100.517 259.951 106.186C259.951 106.186 256.157 96.8694 243.726 93.1805Z" fill="#241921"/>
<path d="M210.576 79.8083C210.346 79.3472 209.885 64.8222 194.001 67.8194C190.454 68.488 187.686 69.6523 185.529 71.0564C178.025 75.9396 177.886 83.7278 177.886 83.7278L188.936 70.3555C188.936 70.3555 202.979 63.9 206.202 75.6583C206.202 75.6583 197.031 63.1899 183.075 72.4467C179.238 74.992 176.293 78.6763 174.514 82.9277C171.648 89.7752 165.773 101.801 160.619 99.6361C160.619 99.6361 164.59 106.463 171.669 107.475C179.726 108.628 191.908 105.787 198.232 92.4382C198.898 91.0341 200.009 89.8767 201.414 89.215C202.569 88.6709 203.923 88.4657 205.049 89.4917C207.581 91.7972 210.574 80.7305 210.574 80.7305V79.8083H210.576Z" fill="#241921"/>
<path d="M215.41 80.9611C215.41 80.9611 214.95 77.0417 211.957 76.8111C208.965 76.5806 197.224 93.8722 206.202 93.1806C206.202 93.1806 213.339 85.8028 215.41 80.9611Z" fill="#0061FE"/>
<path d="M215.41 80.9611C215.41 80.9611 214.95 77.0417 211.957 76.8111C208.965 76.5806 197.224 93.8722 206.202 93.1806C206.202 93.1806 213.339 85.8028 215.41 80.9611Z" fill="url(#paint5_radial)"/>
<path d="M204.959 87.0109L207.65 89.1781" stroke="#0144B9" stroke-width="0.385417" stroke-miterlimit="10"/>
<path d="M206.474 85.1249L209.163 87.2922" stroke="#0144B9" stroke-width="0.385417" stroke-miterlimit="10"/>
<path d="M209.934 80.8136L212.625 82.9808" stroke="#0144B9" stroke-width="0.385417" stroke-miterlimit="10"/>
<path d="M205.608 86.2039L208.299 88.3712" stroke="#0144B9" stroke-width="0.385417" stroke-miterlimit="10"/>
<path d="M208.06 83.1491L210.751 85.3163" stroke="#0144B9" stroke-width="0.385417" stroke-miterlimit="10"/>
<path d="M207.929 111.279C207.929 111.279 210.921 126.957 217.828 124.19" stroke="#0144B9" stroke-width="0.385417" stroke-miterlimit="10"/>
<path d="M243.841 90.5292C243.841 90.5292 251.898 90.9903 258.114 99.0597" stroke="#0144B9" stroke-width="0.385417" stroke-miterlimit="10"/>
<path d="M176.16 167.074C176.16 167.074 192.73 165.291 202.107 165.849C205.382 166.045 208.14 168.365 208.893 171.563C209.936 175.994 211.743 182.558 213.914 185.746C216.642 189.753 214.34 213.77 213.253 223.673H258.922C261.864 217.171 267.325 204.707 269.624 196.813C272.847 185.746 267.783 184.363 267.092 174.91C267.092 174.91 276.531 183.21 279.293 186.438C279.293 186.438 278.142 187.13 278.603 188.052C279.063 188.974 279.293 190.357 279.293 190.357C279.293 190.357 293.566 187.13 296.559 190.819L297.94 188.744L296.098 184.824L293.796 182.749C293.796 182.749 275.61 152.546 269.394 148.627C263.179 144.707 256.689 146.455 256.689 146.455C256.689 146.455 259.495 172.144 247.755 170.991C236.014 169.838 223.41 144.276 223.41 144.276C223.41 144.276 222.201 142.174 217.597 141.943C212.993 141.712 159.355 150.243 151.758 157.16C151.758 157.16 147.844 156.929 147.154 160.157C147.154 160.157 141.398 160.618 143.24 167.304L176.16 167.074Z" fill="#541A8A"/>
<path d="M296.559 190.821C296.559 190.821 293.336 209.496 289.192 215.721C289.192 215.721 285.969 212.724 281.365 212.954C281.365 212.954 282.714 197.961 280.428 190.125C280.428 190.125 292.645 187.132 296.559 190.821Z" fill="#FFDE99"/>
<path d="M296.559 190.821C296.559 190.821 293.336 209.496 289.192 215.721C289.192 215.721 285.969 212.724 281.365 212.954C281.365 212.954 282.714 197.961 280.428 190.125C280.428 190.125 292.645 187.132 296.559 190.821Z" fill="url(#paint6_radial)"/>
<path d="M281.328 212.129L275.265 208.458C275.265 208.458 270.43 219.525 270.43 222.983C270.43 222.983 271.811 224.828 274.574 218.372L275.265 220.908L278.718 221.369L279.639 220.447L280.099 221.6L281.25 221.831L283.322 220.908L284.243 221.831L286.775 221.6C286.775 221.6 289.307 219.064 289.307 215.606C289.307 212.147 281.328 212.129 281.328 212.129Z" fill="#FFDE99"/>
<path d="M276.876 213.531L274.574 218.372L275.265 220.908L278.718 221.369L279.639 220.447L280.099 221.6L281.25 221.831L283.322 220.908L284.243 221.831L286.775 221.6C286.775 221.6 289.307 219.064 289.307 215.606C282.861 212.147 276.876 213.531 276.876 213.531Z" fill="url(#paint7_radial)"/>
<path d="M211.966 181.861C212.056 182.09 212.148 182.313 212.24 182.532C212.259 182.574 212.275 182.613 212.293 182.655C212.385 182.874 212.48 183.088 212.577 183.295C212.59 183.328 212.606 183.358 212.62 183.39C212.722 183.609 212.823 183.821 212.924 184.029C212.989 184.158 213.053 184.282 213.118 184.407C213.311 184.776 213.511 185.124 213.711 185.442C213.778 185.548 213.845 185.652 213.914 185.751C213.953 185.806 213.988 185.868 214.025 185.931C214.031 185.945 214.041 185.958 214.048 185.975C214.082 186.039 214.117 186.106 214.149 186.175C214.153 186.187 214.158 186.198 214.163 186.207C214.193 186.274 214.223 186.341 214.25 186.413C214.257 186.426 214.262 186.443 214.269 186.456C214.299 186.535 214.328 186.618 214.358 186.705C214.365 186.724 214.37 186.742 214.377 186.761C214.404 186.841 214.43 186.927 214.455 187.014C214.457 187.024 214.462 187.035 214.464 187.044C214.492 187.139 214.517 187.238 214.543 187.339C214.549 187.362 214.554 187.388 214.561 187.411C214.586 187.515 214.612 187.621 214.635 187.729C214.637 187.738 214.639 187.748 214.639 187.757C214.662 187.86 214.683 187.969 214.704 188.077C214.708 188.103 214.713 188.128 214.717 188.151C214.738 188.266 214.759 188.386 214.78 188.506C214.784 188.529 214.787 188.552 214.791 188.575C214.81 188.686 214.826 188.799 214.842 188.914C214.844 188.937 214.849 188.958 214.851 188.981C214.869 189.11 214.886 189.242 214.902 189.375C214.906 189.405 214.909 189.435 214.913 189.465C214.929 189.597 214.943 189.73 214.957 189.866C214.957 189.876 214.959 189.882 214.959 189.892C214.973 190.035 214.987 190.18 215.001 190.327C215.003 190.362 215.008 190.394 215.01 190.429C215.021 190.574 215.035 190.724 215.047 190.874C215.049 190.897 215.049 190.92 215.051 190.941C215.061 191.079 215.07 191.217 215.079 191.358C215.081 191.393 215.084 191.425 215.086 191.459C215.095 191.616 215.104 191.773 215.113 191.932C215.116 191.967 215.116 192.001 215.118 192.036C215.125 192.183 215.132 192.331 215.139 192.483C215.139 192.506 215.141 192.532 215.141 192.555C215.148 192.721 215.155 192.891 215.159 193.062C215.162 193.101 215.162 193.14 215.164 193.182C215.169 193.355 215.173 193.53 215.178 193.71C215.178 193.717 215.178 193.726 215.178 193.733C215.183 193.906 215.185 194.079 215.187 194.256C215.187 194.298 215.189 194.339 215.189 194.383C215.192 194.56 215.194 194.74 215.196 194.922C215.196 194.955 215.196 194.989 215.196 195.022C215.196 195.185 215.199 195.349 215.199 195.513C215.199 195.55 215.199 195.586 215.199 195.626C215.199 195.812 215.199 195.999 215.196 196.188C215.196 196.23 215.196 196.271 215.196 196.313C215.196 196.49 215.194 196.668 215.192 196.848C215.192 196.868 215.192 196.891 215.192 196.912C215.189 197.106 215.187 197.304 215.183 197.5C215.183 197.546 215.18 197.592 215.18 197.638C215.176 197.834 215.173 198.033 215.169 198.233C215.169 198.259 215.166 198.284 215.166 198.307C215.162 198.489 215.157 198.674 215.153 198.86C215.15 198.906 215.15 198.95 215.148 198.996C215.143 199.197 215.136 199.397 215.13 199.6C215.127 199.64 215.127 199.681 215.125 199.72C215.118 199.902 215.113 200.085 215.107 200.267C215.104 200.304 215.104 200.34 215.102 200.377C215.095 200.58 215.086 200.785 215.079 200.991C215.077 201.041 215.074 201.092 215.072 201.143C215.063 201.346 215.056 201.549 215.047 201.754C215.047 201.763 215.047 201.775 215.044 201.784C215.035 201.994 215.026 202.206 215.014 202.418C215.012 202.468 215.01 202.519 215.008 202.572C214.998 202.782 214.987 202.994 214.975 203.204C214.973 203.234 214.973 203.262 214.971 203.292C214.962 203.485 214.95 203.679 214.941 203.873C214.938 203.919 214.936 203.965 214.934 204.011C214.922 204.218 214.911 204.428 214.899 204.638C214.897 204.686 214.892 204.737 214.89 204.786C214.879 204.982 214.867 205.175 214.856 205.371C214.853 205.397 214.853 205.424 214.851 205.45C214.837 205.664 214.826 205.878 214.812 206.093C214.81 206.144 214.805 206.197 214.803 206.247C214.789 206.464 214.775 206.683 214.761 206.9C214.761 206.907 214.761 206.914 214.759 206.921C214.745 207.135 214.731 207.349 214.715 207.564C214.713 207.608 214.708 207.654 214.706 207.697C214.692 207.912 214.676 208.126 214.66 208.341C214.658 208.38 214.655 208.417 214.651 208.456C214.637 208.65 214.623 208.841 214.609 209.035C214.607 209.074 214.605 209.111 214.6 209.15C214.584 209.362 214.568 209.574 214.552 209.784C214.547 209.832 214.545 209.879 214.54 209.927C214.524 210.141 214.508 210.356 214.49 210.568C214.49 210.57 214.49 210.57 214.49 210.573C214.473 210.789 214.455 211.004 214.439 211.218C214.434 211.266 214.432 211.317 214.427 211.366C214.411 211.578 214.393 211.79 214.377 212C214.374 212.018 214.374 212.037 214.372 212.055C214.356 212.258 214.338 212.458 214.322 212.659C214.319 212.696 214.315 212.733 214.312 212.767C214.294 212.977 214.278 213.185 214.259 213.392C214.257 213.431 214.252 213.471 214.25 213.507C214.234 213.701 214.216 213.895 214.2 214.088C214.197 214.107 214.197 214.125 214.195 214.146C214.176 214.358 214.158 214.568 214.14 214.778C214.137 214.812 214.133 214.845 214.13 214.879C214.094 215.301 214.054 215.716 214.018 216.127C214.015 216.157 214.013 216.187 214.008 216.214C213.99 216.415 213.972 216.615 213.953 216.814C213.951 216.839 213.949 216.864 213.946 216.89C213.928 217.081 213.909 217.268 213.893 217.457C213.891 217.473 213.891 217.487 213.889 217.503C213.87 217.701 213.85 217.897 213.831 218.091C213.829 218.121 213.824 218.151 213.822 218.183C213.804 218.372 213.785 218.559 213.767 218.743C213.767 218.748 213.767 218.75 213.767 218.755C213.748 218.946 213.73 219.135 213.709 219.324C213.707 219.352 213.705 219.38 213.7 219.407C213.663 219.783 213.624 220.152 213.587 220.512C213.585 220.53 213.583 220.549 213.583 220.565C213.564 220.745 213.546 220.924 213.527 221.1C213.527 221.109 213.525 221.118 213.525 221.13C213.507 221.307 213.488 221.482 213.47 221.655C213.47 221.658 213.47 221.66 213.47 221.665C213.451 221.833 213.435 221.999 213.417 222.163C213.415 222.188 213.412 222.211 213.41 222.236C213.375 222.559 213.341 222.873 213.309 223.175C213.306 223.191 213.306 223.207 213.304 223.221C213.288 223.375 213.272 223.527 213.253 223.675H258.922C258.934 223.65 258.945 223.624 258.957 223.599C259.023 223.451 259.092 223.299 259.162 223.147C259.185 223.094 259.21 223.041 259.235 222.986C259.316 222.806 259.399 222.621 259.484 222.435C259.509 222.377 259.534 222.319 259.562 222.262C259.624 222.121 259.689 221.978 259.753 221.833C259.788 221.757 259.822 221.678 259.857 221.6C259.937 221.42 260.02 221.236 260.103 221.051C260.142 220.964 260.181 220.876 260.22 220.786C260.276 220.662 260.331 220.537 260.386 220.413C260.435 220.307 260.481 220.198 260.529 220.09C260.589 219.954 260.649 219.818 260.709 219.682C260.775 219.527 260.844 219.373 260.913 219.218C260.964 219.103 261.015 218.988 261.065 218.87C261.121 218.746 261.176 218.619 261.231 218.492C261.275 218.391 261.321 218.289 261.365 218.188C261.457 217.976 261.551 217.759 261.645 217.542C261.692 217.438 261.735 217.335 261.781 217.231C261.839 217.095 261.899 216.961 261.959 216.825C262 216.728 262.044 216.629 262.085 216.532C262.191 216.288 262.297 216.041 262.403 215.792C262.44 215.705 262.479 215.617 262.516 215.529C262.58 215.377 262.647 215.225 262.711 215.071C262.746 214.99 262.78 214.912 262.815 214.831C262.932 214.554 263.05 214.278 263.169 213.999C263.204 213.92 263.236 213.842 263.271 213.761C263.34 213.6 263.409 213.436 263.476 213.272C263.508 213.199 263.538 213.122 263.57 213.049C263.692 212.756 263.816 212.463 263.938 212.168C263.971 212.092 264.001 212.018 264.033 211.942C264.102 211.776 264.171 211.61 264.24 211.444C264.272 211.366 264.304 211.287 264.337 211.211C264.459 210.914 264.581 210.616 264.703 210.319C264.733 210.245 264.763 210.171 264.792 210.098C264.861 209.929 264.931 209.761 264.997 209.59C265.03 209.514 265.059 209.436 265.092 209.36C265.211 209.065 265.331 208.767 265.449 208.472C265.481 208.394 265.513 208.313 265.543 208.235C265.61 208.069 265.676 207.903 265.741 207.737C265.773 207.654 265.805 207.573 265.838 207.49C265.95 207.202 266.065 206.914 266.176 206.628C266.208 206.545 266.24 206.462 266.275 206.376C266.337 206.217 266.399 206.056 266.461 205.897C266.496 205.805 266.533 205.715 266.567 205.622C266.671 205.35 266.775 205.081 266.878 204.811C266.913 204.721 266.947 204.629 266.982 204.539C267.039 204.384 267.097 204.232 267.154 204.08C267.191 203.983 267.228 203.884 267.263 203.787C267.355 203.543 267.444 203.301 267.532 203.059C267.571 202.95 267.612 202.842 267.652 202.734C267.705 202.591 267.755 202.45 267.806 202.309C267.845 202.203 267.882 202.097 267.919 201.994C267.997 201.777 268.073 201.565 268.147 201.35C268.19 201.228 268.234 201.106 268.275 200.984C268.322 200.852 268.368 200.721 268.411 200.589C268.448 200.481 268.487 200.37 268.524 200.262C268.584 200.085 268.644 199.907 268.704 199.732C268.752 199.589 268.8 199.446 268.846 199.303C268.886 199.183 268.925 199.063 268.964 198.943C269.001 198.828 269.037 198.715 269.074 198.602C269.111 198.489 269.146 198.376 269.182 198.265C268.559 198.621 267.981 198.858 266.054 199.015C257.536 199.706 257.536 196.018 246.256 198.323C234.976 200.629 224.847 200.398 223.005 187.026C221.212 174.006 214.487 161.895 200.445 160.973C186.402 160.051 172.882 164.346 172.882 164.346L175.016 167.09L176.155 167.083C176.155 167.083 176.162 167.083 176.171 167.081C176.176 167.081 176.181 167.081 176.188 167.078C176.194 167.078 176.201 167.076 176.211 167.076C176.22 167.076 176.229 167.074 176.238 167.074C176.252 167.071 176.27 167.071 176.289 167.069C176.303 167.067 176.316 167.067 176.333 167.064C176.346 167.062 176.362 167.062 176.379 167.06C176.402 167.057 176.422 167.055 176.445 167.053C176.484 167.048 176.528 167.044 176.574 167.039C176.588 167.037 176.604 167.037 176.62 167.034C176.662 167.03 176.705 167.025 176.752 167.021C176.765 167.018 176.781 167.018 176.798 167.016C176.846 167.011 176.894 167.007 176.947 167C176.968 166.998 176.989 166.995 177.012 166.993C177.06 166.988 177.108 166.984 177.161 166.979C177.191 166.977 177.221 166.972 177.253 166.97C177.318 166.963 177.385 166.956 177.456 166.949C177.472 166.947 177.484 166.947 177.5 166.944C177.587 166.935 177.677 166.926 177.771 166.919C177.799 166.917 177.829 166.915 177.859 166.91C177.928 166.903 177.999 166.896 178.071 166.889C178.105 166.887 178.142 166.882 178.179 166.88C178.257 166.873 178.338 166.864 178.418 166.857C178.444 166.855 178.471 166.852 178.497 166.85C178.589 166.841 178.685 166.832 178.784 166.822C178.81 166.82 178.835 166.818 178.86 166.815C178.982 166.804 179.109 166.792 179.238 166.781C179.24 166.781 179.245 166.781 179.247 166.781C179.364 166.769 179.486 166.76 179.608 166.749C179.654 166.744 179.703 166.739 179.751 166.735C179.843 166.725 179.938 166.719 180.034 166.709C180.078 166.705 180.119 166.702 180.163 166.698C180.264 166.689 180.368 166.679 180.474 166.67C180.515 166.666 180.557 166.663 180.598 166.659C180.727 166.647 180.858 166.636 180.994 166.624C181.013 166.622 181.031 166.622 181.05 166.619C181.201 166.606 181.356 166.594 181.512 166.58C181.554 166.576 181.595 166.573 181.637 166.569C181.754 166.559 181.871 166.548 181.993 166.539C182.046 166.534 182.099 166.529 182.15 166.525C182.265 166.516 182.382 166.506 182.5 166.497C182.55 166.493 182.601 166.488 182.652 166.486C182.776 166.476 182.9 166.465 183.027 166.456C183.075 166.451 183.124 166.449 183.172 166.444C183.517 166.417 183.87 166.389 184.231 166.363C184.282 166.359 184.33 166.357 184.381 166.352C184.51 166.343 184.636 166.334 184.767 166.324C184.832 166.32 184.899 166.315 184.965 166.31C185.09 166.301 185.214 166.292 185.341 166.283C185.403 166.278 185.465 166.274 185.527 166.269C185.674 166.257 185.824 166.248 185.974 166.237C186.013 166.234 186.052 166.232 186.091 166.227C186.282 166.214 186.473 166.202 186.667 166.188C186.706 166.186 186.745 166.184 186.784 166.181C186.938 166.172 187.095 166.161 187.251 166.151C187.311 166.147 187.371 166.144 187.429 166.14C187.564 166.131 187.703 166.121 187.838 166.114C187.907 166.11 187.974 166.105 188.043 166.101C188.181 166.091 188.319 166.085 188.46 166.075C188.52 166.071 188.582 166.068 188.642 166.064C190.958 165.928 193.379 165.819 195.7 165.773C195.877 165.769 196.052 165.766 196.229 165.764C196.234 165.764 196.239 165.764 196.241 165.764C196.471 165.759 196.699 165.757 196.927 165.755C196.982 165.755 197.04 165.755 197.095 165.753C197.558 165.748 198.016 165.748 198.465 165.75C198.52 165.75 198.573 165.75 198.628 165.75C199.075 165.753 199.515 165.759 199.945 165.771C199.998 165.773 200.051 165.773 200.104 165.776C200.532 165.787 200.949 165.801 201.354 165.819C201.405 165.822 201.455 165.824 201.504 165.826C201.706 165.836 201.906 165.847 202.102 165.859C202.922 165.907 203.707 166.089 204.439 166.384C204.607 166.451 204.772 166.527 204.934 166.608C204.954 166.619 204.977 166.629 204.998 166.638C205.152 166.714 205.302 166.797 205.449 166.885C205.475 166.901 205.502 166.917 205.528 166.931C205.673 167.018 205.813 167.113 205.951 167.21C205.974 167.226 205.997 167.242 206.02 167.26C206.161 167.362 206.299 167.468 206.432 167.581C206.444 167.59 206.455 167.602 206.467 167.611C206.598 167.724 206.727 167.839 206.851 167.961C206.863 167.973 206.872 167.982 206.884 167.991C207.008 168.113 207.125 168.24 207.24 168.372C207.259 168.392 207.277 168.413 207.296 168.436C207.406 168.565 207.512 168.697 207.613 168.835C207.632 168.86 207.65 168.883 207.669 168.909C207.77 169.047 207.866 169.19 207.959 169.338C207.97 169.358 207.984 169.379 207.995 169.398C208.09 169.552 208.182 169.711 208.265 169.873C208.345 170.032 208.421 170.195 208.49 170.361C208.511 170.41 208.529 170.46 208.55 170.509C208.601 170.633 208.647 170.758 208.688 170.887C208.707 170.938 208.723 170.988 208.739 171.041C208.794 171.217 208.845 171.392 208.886 171.572C208.93 171.756 208.974 171.945 209.02 172.134C209.031 172.183 209.043 172.231 209.054 172.28C209.1 172.471 209.146 172.665 209.197 172.861C209.199 172.867 209.199 172.874 209.202 172.879C209.25 173.075 209.301 173.273 209.351 173.474C209.365 173.525 209.377 173.575 209.39 173.626C209.496 174.036 209.605 174.458 209.72 174.885C209.733 174.938 209.75 174.993 209.763 175.046C209.879 175.475 209.998 175.908 210.125 176.344C210.141 176.397 210.155 176.453 210.171 176.506C210.233 176.725 210.297 176.946 210.364 177.165C210.461 177.492 210.562 177.822 210.664 178.149C210.765 178.477 210.871 178.804 210.977 179.127C211.082 179.45 211.193 179.773 211.303 180.091V180.093C211.414 180.411 211.527 180.725 211.642 181.034C211.734 181.28 211.828 181.523 211.923 181.762C211.939 181.792 211.953 181.827 211.966 181.861Z" fill="url(#paint8_radial)"/>
<path d="M179.749 242.472H114.098C112.648 242.472 111.471 241.294 111.471 239.842V172.953H182.375V239.842C182.375 241.294 181.199 242.472 179.749 242.472Z" fill="#8946A2"/>
<path d="M212.323 173.061H182.375V239.839C182.375 241.292 181.199 242.47 179.749 242.47H145.927C146.164 242.539 146.412 242.578 146.672 242.578H212.323C213.774 242.578 214.95 241.4 214.95 239.948V175.692C214.95 174.239 213.774 173.061 212.323 173.061Z" fill="#BB6BD9"/>
<path d="M213.946 179.033C213.946 179.033 218.173 182.867 219.324 184.942C220.475 187.017 220.475 189.553 221.396 193.011C221.396 193.011 218.173 192.55 216.331 186.094C214.49 179.639 213.946 179.033 213.946 179.033Z" fill="url(#paint9_radial)"/>
<path opacity="0.57" d="M176.505 178.256L182.375 179.033V175.775L177.426 176.181L176.505 178.256Z" fill="url(#paint10_radial)"/>
<path d="M170.29 187.708H99.3854L111.586 172.953H182.491L170.29 187.708Z" fill="#BB6BD9"/>
<path d="M258.818 223.906C261.565 217.847 266.659 206.259 269.185 198.256C268.561 198.611 267.983 198.849 266.056 199.006C257.538 199.697 257.538 196.008 246.258 198.314C234.978 200.619 224.849 200.389 223.007 187.017C221.214 173.997 214.49 161.886 200.447 160.964C186.404 160.042 172.884 164.337 172.884 164.337L175.018 167.081L176.158 167.074C176.158 167.074 182.311 166.412 189.24 166.02C189.952 165.981 190.67 165.942 191.39 165.909C191.752 165.893 192.113 165.877 192.472 165.863C193.554 165.819 194.636 165.785 195.698 165.764C195.875 165.759 196.05 165.757 196.227 165.755C198.333 165.723 200.346 165.746 202.102 165.849C202.922 165.898 203.707 166.08 204.439 166.375C206.082 167.039 207.447 168.275 208.262 169.866C208.534 170.396 208.746 170.965 208.886 171.565C209.278 173.227 209.775 175.189 210.36 177.16C210.456 177.488 210.558 177.817 210.659 178.145C210.76 178.472 210.866 178.8 210.972 179.122C211.078 179.448 211.188 179.768 211.299 180.086C211.409 180.404 211.522 180.718 211.637 181.027C212.04 182.108 212.468 183.127 212.915 184.026C213.17 184.541 213.433 185.015 213.702 185.44C213.769 185.546 213.836 185.649 213.905 185.749C214.856 187.143 215.194 190.964 215.189 195.769C215.199 204.783 213.96 217.395 213.246 223.906H258.818Z" fill="url(#paint11_radial)"/>
<path d="M198.835 173.414H183.411L182.375 175.719V179.178C182.375 179.178 194.461 179.408 199.296 184.711C204.13 190.014 207.123 214.453 214.95 212.608V186.459L198.835 173.414Z" fill="url(#paint12_radial)"/>
<path d="M175.584 181.253L182.491 172.953H144.506C144.506 172.953 139.442 181.714 175.584 181.253Z" fill="url(#paint13_radial)"/>
<path d="M147.209 163.145C145.312 163.403 143.744 164.814 143.369 166.693C143.031 168.395 143.206 170.739 144.967 173.644C148.721 179.839 180.453 175.42 197.659 178.514C199.001 178.756 200.196 179.519 200.99 180.63C202.998 183.436 206.867 189.145 208.044 193.011C209.655 198.314 211.497 205.922 212.648 208.919C212.648 208.919 213.454 209.265 213.684 206.729V196.815L215.526 203.04L216.446 209.035C216.446 209.035 217.597 209.035 218.518 206.499C218.518 206.499 219.439 207.19 219.899 204.193V200.504L221.281 197.276L219.439 186.671C219.439 186.671 212.427 175.821 209.372 173.522C206.317 171.224 187.67 168.457 173.628 164.537C162.898 161.543 151.834 162.518 147.209 163.145Z" fill="#FFDE99"/>
<path d="M202.777 183.21C202.777 183.21 202.779 183.21 202.777 183.21C205.311 180.259 207.523 176.838 208.626 173.089C204.017 170.875 186.798 168.215 173.628 164.537C162.898 161.543 151.834 162.518 147.209 163.145C145.312 163.403 143.744 164.814 143.369 166.693C143.031 168.395 143.206 170.739 144.967 173.644C148.528 179.519 177.258 175.846 194.89 178.092C197.951 178.481 200.705 180.153 202.44 182.71C202.551 182.874 202.664 183.04 202.777 183.21Z" fill="url(#paint14_radial)"/>
<path d="M216.446 209.035C216.446 209.035 217.597 209.035 218.518 206.499C218.518 206.499 219.439 207.19 219.899 204.193V200.504L221.281 197.276L219.589 187.718C219.589 187.718 214.259 191.397 211.267 190.475L213.799 196.7L213.859 197.405L215.526 203.04L216.446 209.035Z" fill="url(#paint15_radial)"/>
<path d="M285.624 184.942C278.027 183.789 266.977 167.189 266.977 167.189V174.797L267.104 175.046C267.099 175.002 267.097 174.959 267.092 174.912C267.092 174.912 276.531 183.212 279.293 186.44C279.293 186.44 278.142 187.132 278.603 188.054C279.063 188.976 279.293 190.36 279.293 190.36C279.293 190.36 280.221 190.15 281.653 189.899C281.662 189.297 281.957 188.504 283.092 187.708C285.394 186.094 294.832 187.708 294.832 187.708C294.832 187.708 293.221 186.094 285.624 184.942Z" fill="url(#paint16_radial)"/>
<path d="M207.814 145.517C207.814 145.517 220.245 142.519 222.317 147.131" stroke="#0061FE" stroke-width="0.385417" stroke-miterlimit="10"/>
<path d="M261.797 147.707C261.797 147.707 267.783 148.86 270.545 151.857" stroke="#0061FE" stroke-width="0.385417" stroke-miterlimit="10"/>
<path d="M246.272 192.624C246.272 192.624 239.934 196.107 234.389 192.714" stroke="#0061FE" stroke-width="0.385417" stroke-miterlimit="10"/>
<path d="M204.015 86.3792C204.015 86.3792 200.332 84.3042 194.807 93.2958C189.208 102.407 182.375 102.518 175.93 101.826" stroke="#0061FE" stroke-width="0.385417" stroke-miterlimit="10"/>
<path d="M373.649 130.876H365.999L368.421 123.217H376.07L373.649 130.876Z" stroke="#0061FE" stroke-width="0.385417" stroke-miterlimit="10"/>
<path d="M337.702 143.294C338.636 142.127 340.4 141.602 341.355 142.204C341.813 142.492 342.078 142.981 342.495 143.315C343.084 143.79 343.982 143.933 344.9 143.698C345.821 143.465 346.749 142.856 347.389 142.07" stroke="#FA404B" stroke-width="0.385417" stroke-miterlimit="10"/>
<path d="M378.713 107.59H371.064L373.485 99.9312H381.135L378.713 107.59Z" fill="url(#paint17_radial)"/>
<path d="M375.638 117.315H367.99L370.412 109.654H378.06L375.638 117.315Z" fill="url(#paint18_radial)"/>
<path d="M372.564 127.038H364.917L367.339 119.376H374.986L372.564 127.038Z" fill="url(#paint19_radial)"/>
<path d="M374.075 103.735L374.883 105.76L379.733 101.711" stroke="white" stroke-width="0.385417" stroke-miterlimit="10"/>
<path d="M347.785 137.447H318.394C317.411 137.447 316.849 136.649 317.139 135.665L321.912 119.489C322.202 118.505 323.233 117.707 324.216 117.707H353.607C354.59 117.707 355.151 118.505 354.861 119.489L350.089 135.665C349.799 136.649 348.768 137.447 347.785 137.447Z" fill="#BB6BD9"/>
<path d="M354.792 132.144H324.078C323.095 132.144 322.533 131.347 322.823 130.362L327.828 113.393C328.118 112.409 329.149 111.611 330.132 111.611H360.847C361.83 111.611 362.391 112.409 362.101 113.393L357.097 130.362C356.807 131.347 355.775 132.144 354.792 132.144Z" stroke="#FB8F8F" stroke-width="0.385417" stroke-miterlimit="10"/>
<path d="M350.867 133.027H317.92L318.875 129.786H351.825L350.867 133.027Z" fill="url(#paint20_linear)"/>
<path d="M328.892 125.615H325.148C324.64 125.615 324.347 125.202 324.499 124.691L325.229 122.214C325.379 121.705 325.915 121.29 326.424 121.29H330.167C330.676 121.29 330.968 121.703 330.816 122.214L330.086 124.691C329.937 125.202 329.4 125.615 328.892 125.615Z" fill="url(#paint21_radial)"/>
<path d="M326.753 121.29L326.161 123.298L326.702 124.534L326.385 125.615" stroke="#F9C1DA" stroke-width="0.385417" stroke-miterlimit="10"/>
<path d="M326.702 124.534L328.084 123.298H330.496" stroke="#F9C1DA" stroke-width="0.385417" stroke-miterlimit="10"/>
<path d="M329.594 121.29L329 123.298" stroke="#F9C1DA" stroke-width="0.385417" stroke-miterlimit="10"/>
<path d="M347.785 137.447C348.768 137.447 349.799 136.649 350.089 135.665L354.861 119.489C355.151 118.505 354.59 117.707 353.607 117.707H348.36L333.655 137.447H347.785Z" fill="url(#paint22_radial)"/>
<path d="M360.773 171.108H295.666L311.083 123.153H376.19L360.773 171.108Z" fill="url(#paint23_radial)"/>
<path d="M361.708 153.932H306.228L307.839 149.551H363.319L361.708 153.932Z" stroke="white" stroke-width="0.385417" stroke-miterlimit="10"/>
<path d="M359.175 159.926H303.695L305.307 155.546H360.787L359.175 159.926Z" stroke="white" stroke-width="0.385417" stroke-miterlimit="10"/>
<path d="M357.104 165.921H301.623L303.235 161.54H358.715L357.104 165.921Z" stroke="white" stroke-width="0.385417" stroke-miterlimit="10"/>
<path d="M357.288 225.531H241.528C240.929 225.531 240.443 225.044 240.443 224.445V222.877C240.443 222.278 240.929 221.791 241.528 221.791H357.288C357.886 221.791 358.372 222.278 358.372 222.877V224.445C358.372 225.044 357.886 225.531 357.288 225.531Z" fill="#FB8F8F"/>
<path d="M357.288 225.531H288.202C287.604 225.531 287.118 225.044 287.118 224.445V222.877C287.118 222.278 287.604 221.791 288.202 221.791H357.29C357.889 221.791 358.374 222.278 358.374 222.877V224.445C358.372 225.044 357.886 225.531 357.288 225.531Z" fill="#F9C1DA"/>
<path d="M374.466 163.205H307.609C306.709 163.205 305.908 163.784 305.627 164.641L288.023 218.112C287.578 219.465 288.584 220.858 290.005 220.858H356.864C357.764 220.858 358.565 220.279 358.846 219.421L376.45 165.951C376.895 164.597 375.889 163.205 374.466 163.205Z" fill="#541A8A"/>
<path d="M279.385 224.595H273.69C273.372 224.595 273.115 224.337 273.115 224.019V223.613C273.115 223.295 273.372 223.036 273.69 223.036H279.385C279.703 223.036 279.961 223.295 279.961 223.613V224.019C279.961 224.337 279.703 224.595 279.385 224.595Z" stroke="#0061FE" stroke-width="0.385417" stroke-miterlimit="10"/>
<path d="M353.908 224.752H348.213C347.895 224.752 347.637 224.493 347.637 224.175V223.77C347.637 223.451 347.895 223.193 348.213 223.193H353.908C354.226 223.193 354.484 223.451 354.484 223.77V224.175C354.484 224.493 354.226 224.752 353.908 224.752Z" stroke="#0061FE" stroke-width="0.385417" stroke-miterlimit="10"/>
<path d="M268.027 224.752H262.331C262.014 224.752 261.756 224.493 261.756 224.175V223.77C261.756 223.451 262.014 223.193 262.331 223.193H268.027C268.344 223.193 268.602 223.451 268.602 223.77V224.175C268.602 224.493 268.344 224.752 268.027 224.752Z" stroke="#0061FE" stroke-width="0.385417" stroke-miterlimit="10"/>
<path d="M283.587 224.752H283.181C282.864 224.752 282.606 224.493 282.606 224.175V223.77C282.606 223.451 282.864 223.193 283.181 223.193H283.587C283.904 223.193 284.162 223.451 284.162 223.77V224.175C284.162 224.493 283.904 224.752 283.587 224.752Z" stroke="#0061FE" stroke-width="0.385417" stroke-miterlimit="10"/>
<path d="M375.693 163.606C375.352 163.357 374.933 163.205 374.466 163.205H307.609C306.709 163.205 305.908 163.784 305.627 164.641L288.23 217.482L375.693 163.606Z" fill="url(#paint24_linear)"/>
<path d="M364.459 167.288L343.298 180.377" stroke="white" stroke-width="0.385417" stroke-miterlimit="10"/>
<path d="M114.349 200.472H54.5845V242.306H114.349V200.472Z" fill="#BB6BD9"/>
<path d="M54.5845 200.472H38.8406V242.306H54.5845V200.472Z" fill="url(#paint25_radial)"/>
<path d="M142.434 192.702H92.6311V242.581H142.434V192.702Z" fill="#541A8A"/>
<path d="M126.398 192.702H76.5948V242.581H126.398V192.702Z" fill="#E294FF"/>
<path d="M96.4042 192.702H87.9141V207.817H96.4042V192.702Z" fill="#FB8F8F"/>
<path d="M225.54 215.144H180.419V246.731H225.54V215.144Z" fill="#F2F6FF"/>
<path d="M202.979 215.144H157.858V246.731H202.979V215.144Z" fill="url(#paint26_radial)"/>
<path d="M38.8406 200.472L46.5526 210.446L54.5845 200.472" stroke="white" stroke-width="0.385417" stroke-miterlimit="10"/>
<path d="M39.0018 242.465L46.7138 233.132L54.4234 242.465" stroke="white" stroke-width="0.385417" stroke-miterlimit="10"/>
<path d="M46.7137 233.132V210.607" stroke="white" stroke-width="0.385417" stroke-miterlimit="10"/>
<path d="M202.979 215.144L214.95 224.595L225.54 215.144" stroke="#9B51E0" stroke-width="0.385417" stroke-miterlimit="10"/>
<path d="M202.864 246.846L214.835 239.929L225.424 246.846" stroke="#9B51E0" stroke-width="0.385417" stroke-miterlimit="10"/>
<path d="M214.835 224.482V239.929" stroke="#9B51E0" stroke-width="0.385417" stroke-miterlimit="10"/>
<path d="M85.1884 118.763C84.042 120.278 84.088 122.581 85.2966 124.047C86.6917 125.74 89.224 126.189 90.5408 127.941C91.5445 129.276 91.5882 131.257 90.6444 132.636" stroke="#0061FE" stroke-width="0.385417" stroke-miterlimit="10"/>
<path d="M301.739 87.993C302.692 87.993 303.465 87.2188 303.465 86.2639C303.465 85.3089 302.692 84.5347 301.739 84.5347C300.785 84.5347 300.012 85.3089 300.012 86.2639C300.012 87.2188 300.785 87.993 301.739 87.993Z" stroke="#0061FE" stroke-width="0.385417" stroke-miterlimit="10"/>
<path d="M145.658 135.226L143.435 135.825L144.034 138.051L146.256 137.452L145.658 135.226Z" stroke="#FA404B" stroke-width="0.385417" stroke-miterlimit="10"/>
<path d="M392.894 148.139L390.67 148.738L391.269 150.965L393.493 150.365L392.894 148.139Z" stroke="#0061FE" stroke-width="0.385417" stroke-miterlimit="10"/>
<path d="M321.191 253.301C321.191 253.301 329.479 244.079 341.449 249.151" stroke="#FA404B" stroke-width="0.385417" stroke-miterlimit="10"/>
<path d="M106.637 81.9986L102.954 87.5319" stroke="#FA404B" stroke-width="0.385417" stroke-miterlimit="10"/>
<path d="M84.537 253.301L87.9901 255.837" stroke="#FA404B" stroke-width="0.385417" stroke-miterlimit="10"/>
<path d="M360.948 197.004C361.517 199.7 363.936 201.894 366.669 202.199C367.673 202.309 368.69 202.192 369.694 202.307C371.545 202.522 373.28 203.58 374.321 205.127" stroke="#0061FE" stroke-width="0.385417" stroke-miterlimit="10"/>
</g>
<defs>
<radialGradient id="paint0_radial" cx="0" cy="0" r="1" gradientUnits="userSpaceOnUse" gradientTransform="translate(160.327 76.5038) rotate(13.8353) scale(229.864 140.384)">
<stop stop-color="#EECFF8"/>
<stop offset="0.9011" stop-color="white" stop-opacity="0"/>
</radialGradient>
<radialGradient id="paint1_radial" cx="0" cy="0" r="1" gradientUnits="userSpaceOnUse" gradientTransform="translate(225.741 204.371) scale(156.926 80.7187)">
<stop offset="0.3362" stop-color="#DEF4FF"/>
<stop offset="0.5609" stop-color="#E4F6FF" stop-opacity="0.6615"/>
<stop offset="0.8543" stop-color="#F4FBFF" stop-opacity="0.2196"/>
<stop offset="1" stop-color="white" stop-opacity="0"/>
</radialGradient>
<radialGradient id="paint2_radial" cx="0" cy="0" r="1" gradientUnits="userSpaceOnUse" gradientTransform="translate(250.068 134.486) scale(24.5784 24.6155)">
<stop stop-color="#FA404B"/>
<stop offset="0.025" stop-color="#FA484F" stop-opacity="0.975"/>
<stop offset="0.1916" stop-color="#FC7565" stop-opacity="0.8084"/>
<stop offset="0.3589" stop-color="#FD9B78" stop-opacity="0.6411"/>
<stop offset="0.5244" stop-color="#FEB886" stop-opacity="0.4756"/>
<stop offset="0.6876" stop-color="#FECD91" stop-opacity="0.3124"/>
<stop offset="0.8474" stop-color="#FFDA97" stop-opacity="0.1526"/>
<stop offset="1" stop-color="#FFDE99" stop-opacity="0"/>
</radialGradient>
<radialGradient id="paint3_radial" cx="0" cy="0" r="1" gradientUnits="userSpaceOnUse" gradientTransform="translate(216.918 139.03) scale(40.7133 40.7747)">
<stop stop-color="#FA404B"/>
<stop offset="0.025" stop-color="#FA484F" stop-opacity="0.975"/>
<stop offset="0.1916" stop-color="#FC7565" stop-opacity="0.8084"/>
<stop offset="0.3589" stop-color="#FD9B78" stop-opacity="0.6411"/>
<stop offset="0.5244" stop-color="#FEB886" stop-opacity="0.4756"/>
<stop offset="0.6876" stop-color="#FECD91" stop-opacity="0.3124"/>
<stop offset="0.8474" stop-color="#FFDA97" stop-opacity="0.1526"/>
<stop offset="1" stop-color="#FFDE99" stop-opacity="0"/>
</radialGradient>
<radialGradient id="paint4_radial" cx="0" cy="0" r="1" gradientUnits="userSpaceOnUse" gradientTransform="translate(251.813 107.053) scale(23.1788 23.2137)">
<stop stop-color="#FA404B"/>
<stop offset="0.025" stop-color="#FA484F" stop-opacity="0.975"/>
<stop offset="0.1916" stop-color="#FC7565" stop-opacity="0.8084"/>
<stop offset="0.3589" stop-color="#FD9B78" stop-opacity="0.6411"/>
<stop offset="0.5244" stop-color="#FEB886" stop-opacity="0.4756"/>
<stop offset="0.6876" stop-color="#FECD91" stop-opacity="0.3124"/>
<stop offset="0.8474" stop-color="#FFDA97" stop-opacity="0.1526"/>
<stop offset="1" stop-color="#FFDE99" stop-opacity="0"/>
</radialGradient>
<radialGradient id="paint5_radial" cx="0" cy="0" r="1" gradientUnits="userSpaceOnUse" gradientTransform="translate(201.053 105.385) scale(34.9763 35.029)">
<stop offset="0.0936" stop-color="#241921"/>
<stop offset="1" stop-color="#0144B9" stop-opacity="0"/>
</radialGradient>
<radialGradient id="paint6_radial" cx="0" cy="0" r="1" gradientUnits="userSpaceOnUse" gradientTransform="translate(289.441 183.456) scale(35.8445 35.8987)">
<stop stop-color="#FA404B"/>
<stop offset="0.025" stop-color="#FA484F" stop-opacity="0.975"/>
<stop offset="0.1916" stop-color="#FC7565" stop-opacity="0.8084"/>
<stop offset="0.3589" stop-color="#FD9B78" stop-opacity="0.6411"/>
<stop offset="0.5244" stop-color="#FEB886" stop-opacity="0.4756"/>
<stop offset="0.6876" stop-color="#FECD91" stop-opacity="0.3124"/>
<stop offset="0.8474" stop-color="#FFDA97" stop-opacity="0.1526"/>
<stop offset="1" stop-color="#FFDE99" stop-opacity="0"/>
</radialGradient>
<radialGradient id="paint7_radial" cx="0" cy="0" r="1" gradientUnits="userSpaceOnUse" gradientTransform="translate(276.006 211.487) scale(12.9516 12.9711)">
<stop stop-color="#FA404B"/>
<stop offset="0.025" stop-color="#FA484F" stop-opacity="0.975"/>
<stop offset="0.1916" stop-color="#FC7565" stop-opacity="0.8084"/>
<stop offset="0.3589" stop-color="#FD9B78" stop-opacity="0.6411"/>
<stop offset="0.5244" stop-color="#FEB886" stop-opacity="0.4756"/>
<stop offset="0.6876" stop-color="#FECD91" stop-opacity="0.3124"/>
<stop offset="0.8474" stop-color="#FFDA97" stop-opacity="0.1526"/>
<stop offset="1" stop-color="#FFDE99" stop-opacity="0"/>
</radialGradient>
<radialGradient id="paint8_radial" cx="0" cy="0" r="1" gradientUnits="userSpaceOnUse" gradientTransform="translate(192.782 187.105) scale(42.322 42.3858)">
<stop offset="0.0936" stop-color="#241921"/>
<stop offset="1" stop-color="#0144B9" stop-opacity="0"/>
</radialGradient>
<radialGradient id="paint9_radial" cx="0" cy="0" r="1" gradientUnits="userSpaceOnUse" gradientTransform="translate(208.848 183.313) scale(16.2497 16.2742)">
<stop stop-color="#FA404B"/>
<stop offset="0.025" stop-color="#FA484F"/>
<stop offset="0.1916" stop-color="#FC7565"/>
<stop offset="0.3589" stop-color="#FD9B78"/>
<stop offset="0.5244" stop-color="#FEB886"/>
<stop offset="0.6876" stop-color="#FECD91"/>
<stop offset="0.8474" stop-color="#FFDA97"/>
<stop offset="1" stop-color="#FFDE99"/>
</radialGradient>
<radialGradient id="paint10_radial" cx="0" cy="0" r="1" gradientUnits="userSpaceOnUse" gradientTransform="translate(170.432 167.737) scale(17.1395 17.1653)">
<stop offset="0.0936" stop-color="#241921"/>
<stop offset="1" stop-color="#0144B9" stop-opacity="0"/>
</radialGradient>
<radialGradient id="paint11_radial" cx="0" cy="0" r="1" gradientUnits="userSpaceOnUse" gradientTransform="translate(284.146 196.261) scale(44.229 44.2957)">
<stop offset="0.0936" stop-color="#241921"/>
<stop offset="1" stop-color="#0144B9" stop-opacity="0"/>
</radialGradient>
<radialGradient id="paint12_radial" cx="0" cy="0" r="1" gradientUnits="userSpaceOnUse" gradientTransform="translate(200.624 169.718) scale(40.8074 40.869)">
<stop stop-color="#FB8F8F"/>
<stop offset="1" stop-color="#F9C1DA" stop-opacity="0"/>
</radialGradient>
<radialGradient id="paint13_radial" cx="0" cy="0" r="1" gradientUnits="userSpaceOnUse" gradientTransform="translate(157.727 162.409) scale(32.842 32.8915)">
<stop stop-color="#FB8F8F"/>
<stop offset="1" stop-color="#F9C1DA" stop-opacity="0"/>
</radialGradient>
<radialGradient id="paint14_radial" cx="0" cy="0" r="1" gradientUnits="userSpaceOnUse" gradientTransform="translate(122.004 182.801) scale(95.5097 95.6534)">
<stop stop-color="#FA404B"/>
<stop offset="0.025" stop-color="#FA484F" stop-opacity="0.975"/>
<stop offset="0.1916" stop-color="#FC7565" stop-opacity="0.8084"/>
<stop offset="0.3589" stop-color="#FD9B78" stop-opacity="0.6411"/>
<stop offset="0.5244" stop-color="#FEB886" stop-opacity="0.4756"/>
<stop offset="0.6876" stop-color="#FECD91" stop-opacity="0.3124"/>
<stop offset="0.8474" stop-color="#FFDA97" stop-opacity="0.1526"/>
<stop offset="1" stop-color="#FFDE99" stop-opacity="0"/>
</radialGradient>
<radialGradient id="paint15_radial" cx="0" cy="0" r="1" gradientUnits="userSpaceOnUse" gradientTransform="translate(215.223 184.752) scale(21.3285 21.3606)">
<stop stop-color="#FA404B"/>
<stop offset="0.025" stop-color="#FA484F" stop-opacity="0.975"/>
<stop offset="0.1916" stop-color="#FC7565" stop-opacity="0.8084"/>
<stop offset="0.3589" stop-color="#FD9B78" stop-opacity="0.6411"/>
<stop offset="0.5244" stop-color="#FEB886" stop-opacity="0.4756"/>
<stop offset="0.6876" stop-color="#FECD91" stop-opacity="0.3124"/>
<stop offset="0.8474" stop-color="#FFDA97" stop-opacity="0.1526"/>
<stop offset="1" stop-color="#FFDE99" stop-opacity="0"/>
</radialGradient>
<radialGradient id="paint16_radial" cx="0" cy="0" r="1" gradientUnits="userSpaceOnUse" gradientTransform="translate(272.226 200.304) scale(38.207 38.2646)">
<stop offset="0.0936" stop-color="#241921"/>
<stop offset="1" stop-color="#0144B9" stop-opacity="0"/>
</radialGradient>
<radialGradient id="paint17_radial" cx="0" cy="0" r="1" gradientUnits="userSpaceOnUse" gradientTransform="translate(371.367 96.5031) scale(24.9428 24.9805)">
<stop stop-color="#0061FE"/>
<stop offset="1" stop-color="white"/>
</radialGradient>
<radialGradient id="paint18_radial" cx="0" cy="0" r="1" gradientUnits="userSpaceOnUse" gradientTransform="translate(362.877 102.328) scale(45.2784 45.3468)">
<stop stop-color="#0061FE"/>
<stop offset="1" stop-color="white"/>
</radialGradient>
<radialGradient id="paint19_radial" cx="0" cy="0" r="1" gradientUnits="userSpaceOnUse" gradientTransform="translate(364.04 105.822) scale(35.7473 35.801)">
<stop stop-color="#0061FE"/>
<stop offset="1" stop-color="white"/>
</radialGradient>
<linearGradient id="paint20_linear" x1="318.399" y1="131.407" x2="348.711" y2="140.348" gradientUnits="userSpaceOnUse">
<stop offset="0.1791" stop-color="#F9C1DA"/>
<stop offset="1" stop-color="#EECFF8" stop-opacity="0"/>
</linearGradient>
<radialGradient id="paint21_radial" cx="0" cy="0" r="1" gradientUnits="userSpaceOnUse" gradientTransform="translate(328.979 115.935) scale(19.2328 23.3896)">
<stop stop-color="#0061FE"/>
<stop offset="1" stop-color="white"/>
</radialGradient>
<radialGradient id="paint22_radial" cx="0" cy="0" r="1" gradientUnits="userSpaceOnUse" gradientTransform="translate(351.337 103.459) scale(28.4592 28.5022)">
<stop offset="0.1791" stop-color="#F9C1DA"/>
<stop offset="1" stop-color="#EECFF8" stop-opacity="0"/>
</radialGradient>
<radialGradient id="paint23_radial" cx="0" cy="0" r="1" gradientUnits="userSpaceOnUse" gradientTransform="translate(348.176 198.066) scale(151.948 152.177)">
<stop stop-color="#BB6BD9"/>
<stop offset="0.0281" stop-color="#106CFE" stop-opacity="0.9719"/>
<stop offset="0.1219" stop-color="#BB6BD9" stop-opacity="0.22"/>
<stop offset="0.2211" stop-color="#BB6BD9" stop-opacity="0.4"/>
<stop offset="0.3241" stop-color="#BB6BD9" stop-opacity="0.43"/>
<stop offset="0.4318" stop-color="#BB6BD9" stop-opacity="0.61"/>
<stop offset="0.546" stop-color="#BB6BD9"/>
<stop offset="0.6696" stop-color="#BB6BD9"/>
<stop offset="0.8094" stop-color="#BB6BD9"/>
<stop offset="1" stop-color="#9B51E0"/>
</radialGradient>
<linearGradient id="paint24_linear" x1="288.228" y1="190.342" x2="375.693" y2="190.342" gradientUnits="userSpaceOnUse">
<stop offset="0.1791" stop-color="#BB6BD9"/>
<stop offset="1" stop-color="#9B51E0"/>
</linearGradient>
<radialGradient id="paint25_radial" cx="0" cy="0" r="1" gradientUnits="userSpaceOnUse" gradientTransform="translate(75.4287 166.374) scale(93.257 135.339)">
<stop stop-color="#BB6BD9"/>
<stop offset="1" stop-color="white"/>
</radialGradient>
<radialGradient id="paint26_radial" cx="0" cy="0" r="1" gradientUnits="userSpaceOnUse" gradientTransform="translate(142.328 171.336) scale(100.909 101.061)">
<stop stop-color="#C730FF"/>
<stop offset="1" stop-color="white"/>
</radialGradient>
<clipPath id="clip0">
<rect width="442" height="249" fill="white" transform="translate(5 39)"/>
</clipPath>
</defs>
</svg>
