<svg width="245" height="381" viewBox="0 0 245 381" fill="none" xmlns="http://www.w3.org/2000/svg">
<path opacity="0.3" d="M94.6494 0.618532C97.1704 2.05909 99.1711 5.58044 99.1711 8.46155V85.7713L122.1 99.0164V178.767C122.1 181.648 120.059 182.809 117.578 181.368C115.057 179.928 113.056 176.406 113.056 173.525V104.218L90.0876 91.0134V3.21953C90.0876 0.338425 92.1284 -0.822023 94.6494 0.618532Z" fill="url(#paint0_linear)"/>
<path opacity="0.3" d="M107.134 336.428C109.655 337.868 111.656 336.708 111.656 333.827V275.884L134.585 289.13V251.195C134.585 248.314 132.544 244.792 130.063 243.352C127.542 241.911 125.541 243.072 125.541 245.953V273.444L102.612 260.198V328.585C102.612 331.466 104.653 334.987 107.134 336.428Z" fill="url(#paint1_linear)"/>
<path opacity="0.3" d="M142.388 57.3607C144.909 58.8013 146.909 62.3226 146.909 65.2037V196.734C146.909 199.616 144.869 200.776 142.388 199.335C139.867 197.895 137.866 194.374 137.866 191.492V59.9617C137.866 57.0806 139.907 55.9202 142.388 57.3607Z" fill="url(#paint2_linear)"/>
<path fill-rule="evenodd" clip-rule="evenodd" d="M116.698 329.826C116.698 337.749 112.056 341.51 106.334 338.189C100.612 334.908 95.9697 325.784 95.9697 317.861C95.9697 309.938 100.612 306.177 106.334 309.498C112.056 312.779 116.698 321.903 116.698 329.826Z" fill="#F2C94C"/>
<path opacity="0.3" d="M192.847 123.305C190.326 121.865 188.326 123.025 188.326 125.906V164.961L165.397 151.716V199.694C165.397 202.576 167.438 206.097 169.918 207.538C172.439 208.978 174.44 207.818 174.44 204.937V167.402L197.369 180.647V131.148C197.369 128.267 195.328 124.746 192.847 123.305Z" fill="url(#paint3_linear)"/>
<path fill-rule="evenodd" clip-rule="evenodd" d="M203.011 137.11C203.011 144.953 198.409 148.634 192.767 145.393C187.125 142.112 182.523 133.148 182.523 125.305C182.523 117.462 187.085 113.781 192.767 117.022C198.449 120.303 203.011 129.267 203.011 137.11Z" fill="#F2994A"/>
<path opacity="0.3" d="M236.704 336.868C236.704 333.987 234.663 330.465 232.182 329.025L196.569 308.457V278.646L161.195 258.238C158.674 256.797 156.673 257.958 156.673 260.839C156.673 263.72 158.714 267.241 161.195 268.682L187.525 283.888V313.699L232.222 339.469C234.703 340.91 236.704 339.749 236.704 336.868Z" fill="url(#paint4_linear)"/>
<path opacity="0.3" d="M150.751 380.245C148.23 378.804 146.229 375.283 146.229 372.402V277.565C146.229 274.684 148.27 273.524 150.751 274.964C153.272 276.405 155.273 279.926 155.273 282.807V377.644C155.273 380.525 153.232 381.685 150.751 380.245Z" fill="url(#paint5_linear)"/>
<path fill-rule="evenodd" clip-rule="evenodd" d="M242.226 340.309C242.226 348.232 237.584 351.994 231.862 348.672C226.14 345.391 221.498 336.267 221.498 328.344C221.498 320.421 226.14 316.66 231.862 319.981C237.584 323.262 242.226 332.386 242.226 340.309Z" fill="#F2994A"/>
<path opacity="0.3" d="M20.5808 181.127L85.7259 218.741V339.428L20.5808 301.813V181.127Z" fill="url(#paint6_linear)"/>
<path opacity="0.15" d="M30.9048 257.878L69.7197 280.287V285.048L30.9048 262.64V257.878Z" fill="white"/>
<path opacity="0.15" d="M34.9464 269.602L65.7182 287.368V292.13L34.9464 274.363V269.602Z" fill="white"/>
<path fill-rule="evenodd" clip-rule="evenodd" d="M45.4304 291.09L0.132935 264.92V278.405L45.4704 304.575L45.4304 291.09Z" fill="#F2C94C"/>
<path opacity="0.2" d="M67.2788 230.787L57.1549 238.79L50.3523 230.067L41.4689 237.75L37.9475 235.189L51.0326 224.185L57.6751 232.908L64.9979 227.466L67.2788 230.787Z" fill="white"/>
<path fill-rule="evenodd" clip-rule="evenodd" d="M74.8817 230.587C74.8817 235.108 72.2407 237.229 68.9995 235.349C65.7582 233.468 63.1172 228.306 63.1172 223.784C63.1172 219.262 65.7582 217.142 68.9995 219.022C72.2407 220.903 74.8817 226.105 74.8817 230.587ZM44.5501 239.31C44.5501 243.832 41.909 245.953 38.6678 244.072C35.4265 242.191 32.7855 237.029 32.7855 232.507C32.7855 227.986 35.4265 225.865 38.6678 227.746C41.909 229.626 44.5501 234.788 44.5501 239.31Z" fill="#F2C94C"/>
<path opacity="0.2" d="M244.467 260.038L182.523 224.265V256.517L244.467 292.291V260.038Z" fill="url(#paint7_linear)"/>
<path opacity="0.15" d="M198.369 241.23L217.017 251.995V255.876L198.369 245.072V241.23Z" fill="white"/>
<path opacity="0.15" d="M198.409 248.994L238.104 271.883V275.804L198.409 252.916V248.994Z" fill="white"/>
<path fill-rule="evenodd" clip-rule="evenodd" d="M195.128 242.352C195.128 244.993 193.567 246.273 191.607 245.153C189.646 244.032 188.085 240.951 188.085 238.31C188.085 235.669 189.646 234.389 191.607 235.509C193.567 236.629 195.128 239.711 195.128 242.352Z" fill="#F2994A"/>
<path opacity="0.2" d="M85.5258 161.4L23.5819 125.626V157.878L85.5258 193.652V161.4Z" fill="url(#paint8_linear)"/>
<path opacity="0.15" d="M39.428 142.594L58.0752 153.358V157.239L39.428 146.475V142.594Z" fill="white"/>
<path opacity="0.15" d="M39.4681 150.356L79.1634 173.245V177.167L39.4681 154.278V150.356Z" fill="white"/>
<path fill-rule="evenodd" clip-rule="evenodd" d="M36.1869 143.713C36.1869 146.354 34.6263 147.635 32.6655 146.514C30.7048 145.394 29.1442 142.312 29.1442 139.671C29.1442 137.03 30.7048 135.75 32.6655 136.87C34.5863 137.991 36.1869 141.072 36.1869 143.713Z" fill="#F2994A"/>
<path opacity="0.2" d="M167.357 231.508C167.357 251.115 155.873 260.399 141.748 252.236C127.582 244.072 116.138 221.544 116.138 201.936C116.138 182.329 127.622 173.045 141.748 181.208C155.913 189.371 167.357 211.9 167.357 231.508Z" fill="url(#paint9_linear)"/>
<g opacity="0.4">
<path opacity="0.4" d="M131.663 221.783C132.344 221.583 132.704 220.863 132.704 219.623C132.704 218.342 132.344 217.222 131.663 216.301C130.943 215.381 129.903 214.501 128.542 213.74C128.102 213.5 127.622 213.22 127.102 212.98C126.582 212.7 126.141 212.46 125.741 212.3V219.182L128.262 220.623C129.863 221.543 130.983 221.904 131.663 221.783ZM128.942 226.505L125.701 224.625V232.868C126.101 233.148 126.501 233.428 126.902 233.668C127.342 233.948 127.822 234.228 128.342 234.548C129.903 235.429 131.143 235.869 132.104 235.789C133.064 235.749 133.544 234.869 133.544 233.228C133.544 231.787 133.144 230.507 132.344 229.426C131.543 228.346 130.423 227.346 128.942 226.505Z" fill="white"/>
<path opacity="0.4" d="M129.823 189.211C115.658 181.048 104.213 190.332 104.213 209.939C104.213 229.547 115.698 252.075 129.823 260.238C143.988 268.402 155.433 259.118 155.433 239.51C155.433 219.903 143.948 197.374 129.823 189.211ZM136.145 242.432C134.785 242.952 132.904 242.672 130.503 241.591V246.393L125.581 243.552V238.79C125.221 238.59 124.901 238.35 124.541 238.11C123.3 237.27 122.02 236.269 120.659 235.109V204.137C121.7 204.457 122.86 204.937 124.141 205.537C124.621 205.737 125.101 205.978 125.581 206.218V201.456L130.503 204.297L130.463 209.179C130.863 209.499 131.264 209.779 131.624 210.099C132.864 211.1 133.945 212.22 134.825 213.42C135.705 214.621 136.386 215.981 136.866 217.422C137.386 218.862 137.626 220.423 137.626 222.104C137.626 224.665 136.746 226.185 134.985 226.625C136.466 228.226 137.466 229.827 137.986 231.467C138.506 233.068 138.786 234.749 138.786 236.389C138.786 239.751 137.906 241.751 136.145 242.432Z" fill="white"/>
</g>
<defs>
<linearGradient id="paint0_linear" x1="107.146" y1="32.0879" x2="57.3885" y2="118.302" gradientUnits="userSpaceOnUse">
<stop stop-color="white"/>
<stop offset="1" stop-color="white" stop-opacity="0"/>
</linearGradient>
<linearGradient id="paint1_linear" x1="115.611" y1="322.812" x2="147.936" y2="266.807" gradientUnits="userSpaceOnUse">
<stop stop-color="white"/>
<stop offset="1" stop-color="white" stop-opacity="0"/>
</linearGradient>
<linearGradient id="paint2_linear" x1="142.501" y1="79.0116" x2="99.718" y2="153.113" gradientUnits="userSpaceOnUse">
<stop stop-color="white"/>
<stop offset="1" stop-color="white" stop-opacity="0"/>
</linearGradient>
<linearGradient id="paint3_linear" x1="186.384" y1="104.27" x2="143.791" y2="178.06" gradientUnits="userSpaceOnUse">
<stop stop-color="white"/>
<stop offset="1" stop-color="white" stop-opacity="0"/>
</linearGradient>
<linearGradient id="paint4_linear" x1="248.431" y1="298.859" x2="163.259" y2="298.85" gradientUnits="userSpaceOnUse">
<stop stop-color="white"/>
<stop offset="1" stop-color="white" stop-opacity="0"/>
</linearGradient>
<linearGradient id="paint5_linear" x1="150.603" y1="363.148" x2="181.511" y2="309.684" gradientUnits="userSpaceOnUse">
<stop stop-color="white"/>
<stop offset="1" stop-color="white" stop-opacity="0"/>
</linearGradient>
<linearGradient id="paint6_linear" x1="59.8509" y1="191.76" x2="14.0219" y2="271.157" gradientUnits="userSpaceOnUse">
<stop stop-color="white"/>
<stop offset="1" stop-color="white" stop-opacity="0"/>
</linearGradient>
<linearGradient id="paint7_linear" x1="219.288" y1="246.175" x2="205.912" y2="269.347" gradientUnits="userSpaceOnUse">
<stop stop-color="white"/>
<stop offset="1" stop-color="white" stop-opacity="0"/>
</linearGradient>
<linearGradient id="paint8_linear" x1="60.3468" y1="147.536" x2="46.9704" y2="170.709" gradientUnits="userSpaceOnUse">
<stop stop-color="white"/>
<stop offset="1" stop-color="white" stop-opacity="0"/>
</linearGradient>
<linearGradient id="paint9_linear" x1="144.027" y1="187.424" x2="132.637" y2="252.283" gradientUnits="userSpaceOnUse">
<stop stop-color="white"/>
<stop offset="1" stop-color="white" stop-opacity="0"/>
</linearGradient>
</defs>
</svg>
