<svg width="399" height="485" viewBox="0 0 399 485" fill="none" xmlns="http://www.w3.org/2000/svg">
<path opacity="0.3" d="M228.415 191.741L380.828 279.778V359.211L241.884 278.907L228.466 283.312L228.415 191.741Z" fill="url(#paint0_linear)"/>
<path fill-rule="evenodd" clip-rule="evenodd" d="M259.399 236.246C259.399 242.802 255.507 245.874 250.744 243.109C245.981 240.343 242.089 232.815 242.089 226.259C242.089 219.704 245.981 216.631 250.744 219.397C255.507 222.111 259.399 229.691 259.399 236.246Z" fill="#F2994A"/>
<path opacity="0.15" d="M267.594 233.685L300.985 252.993V259.958L267.594 240.65V233.685Z" fill="white"/>
<path opacity="0.15" d="M267.594 247.667L367.308 305.283V312.248L267.594 254.632V247.667Z" fill="white"/>
<path opacity="0.15" d="M267.594 261.597L345.593 306.666V313.631L267.594 268.562V261.597Z" fill="white"/>
<path opacity="0.3" d="M117.69 85.7788L203.525 135.303V294.323L117.69 244.799V85.7788Z" fill="url(#paint1_linear)"/>
<path opacity="0.15" d="M126.14 180.167L195.074 219.96V226.925L126.14 187.132V180.167Z" fill="white"/>
<path opacity="0.15" d="M130.954 196.504L190.209 230.715V237.68L130.954 203.469V196.504Z" fill="white"/>
<path fill-rule="evenodd" clip-rule="evenodd" d="M155.998 224.979L96.2825 190.512V208.283L155.998 242.75V224.979Z" fill="#F2C94C"/>
<path fill-rule="evenodd" clip-rule="evenodd" d="M170.389 148.26C170.389 155.942 165.934 159.578 160.454 156.403C154.974 153.228 150.518 144.368 150.518 136.634C150.518 128.952 154.974 125.316 160.454 128.491C165.934 131.769 170.389 140.578 170.389 148.26ZM160.454 162.6C151.594 157.427 144.27 162.293 142.99 173.406C142.785 175.352 144.219 177.913 146.011 178.937L174.896 195.838C176.689 196.862 178.123 196.043 177.918 193.84C176.638 181.191 169.314 167.772 160.454 162.6Z" fill="#F2C94C"/>
<path opacity="0.3" d="M177.252 276.244L263.087 325.768V484.788L177.252 435.264V276.244Z" fill="url(#paint2_linear)"/>
<path opacity="0.15" d="M185.651 370.632L254.585 410.425V417.39L185.651 377.597V370.632Z" fill="white"/>
<path opacity="0.15" d="M190.465 386.969L249.72 421.18V428.145L190.465 393.934V386.969Z" fill="white"/>
<path fill-rule="evenodd" clip-rule="evenodd" d="M284.341 455.135L224.625 420.668V438.439L284.341 472.906V455.135Z" fill="#F2994A"/>
<path fill-rule="evenodd" clip-rule="evenodd" d="M229.9 338.725C229.9 346.407 225.445 350.043 219.965 346.868C214.485 343.642 210.029 334.833 210.029 327.1C210.029 319.417 214.485 315.781 219.965 318.957C225.445 322.183 229.9 331.043 229.9 338.725ZM219.965 353.065C211.105 347.893 203.781 352.758 202.501 363.871C202.296 365.817 203.73 368.378 205.522 369.402L234.407 386.303C236.2 387.327 237.633 386.508 237.429 384.306C236.148 371.656 228.825 358.238 219.965 353.065Z" fill="#F2994A"/>
<path opacity="0.3" d="M152.413 262.365L0 174.328V253.761L138.995 334.013L152.464 353.936L152.413 262.365Z" fill="url(#paint3_linear)"/>
<path fill-rule="evenodd" clip-rule="evenodd" d="M121.429 271.072C121.429 277.627 125.321 285.155 130.084 287.921C134.847 290.687 138.739 287.614 138.739 281.058C138.739 274.503 134.847 266.974 130.084 264.209C125.321 261.443 121.429 264.516 121.429 271.072Z" fill="#F2C94C"/>
<path opacity="0.15" d="M113.234 259.037L79.8428 239.78V246.745L113.234 266.053V259.037Z" fill="white"/>
<path opacity="0.15" d="M113.234 273.018L13.5205 215.402V222.367L113.234 279.983V273.018Z" fill="white"/>
<path opacity="0.15" d="M113.234 286.999L35.2354 241.931V248.896L113.234 293.964V286.999Z" fill="white"/>
<path opacity="0.4" d="M377.96 66.3173C291.511 16.3836 220.835 75.5359 220.835 199.679L198.762 186.927C198.813 46.7023 278.758 -21.5149 377.96 35.7425V66.3173Z" fill="url(#paint4_linear)"/>
<path opacity="0.4" d="M305.851 248.844C305.851 193.738 338.116 167.67 377.909 190.614V160.039C325.927 130.028 283.778 164.085 283.778 236.092L305.851 248.844Z" fill="url(#paint5_linear)"/>
<path opacity="0.4" d="M262.831 223.443C262.831 135.457 314.352 93.8708 377.807 130.54V99.9653C302.163 56.2797 240.758 105.855 240.758 210.69L262.831 223.443Z" fill="url(#paint6_linear)"/>
<path opacity="0.4" d="M356.962 278.293C368.537 285.002 377.909 277.371 377.909 261.341C377.909 245.311 368.537 226.874 356.962 220.165C345.388 213.456 336.016 221.087 336.016 237.117C336.016 253.198 345.388 271.584 356.962 278.293Z" fill="url(#paint7_linear)"/>
<path opacity="0.07" d="M398.446 51.4655C311.945 1.53174 241.321 60.6841 241.321 184.827L219.248 172.075C219.299 31.8505 299.244 -36.3667 398.446 20.8907V51.4655Z" fill="url(#paint8_linear)"/>
<path opacity="0.07" d="M326.336 233.993C326.336 178.886 358.601 152.818 398.395 175.762V145.188C346.412 115.176 304.263 149.233 304.263 221.24L326.336 233.993Z" fill="url(#paint9_linear)"/>
<path opacity="0.07" d="M283.317 208.59C283.317 120.604 334.838 79.0185 398.292 115.688V85.113C322.649 41.4274 261.243 91.0026 261.243 195.838L283.317 208.59Z" fill="url(#paint10_linear)"/>
<path opacity="0.07" d="M377.448 263.441C389.022 270.15 398.394 262.519 398.394 246.489C398.394 230.459 389.022 212.022 377.448 205.313C365.873 198.604 356.501 206.235 356.501 222.265C356.501 238.346 365.873 256.732 377.448 263.441Z" fill="url(#paint11_linear)"/>
<path opacity="0.2" d="M310.358 342.976C313.431 344.718 315.889 349.02 315.889 352.553V368.174L326.234 374.115C329.307 375.856 331.765 380.158 331.765 383.743C331.765 387.277 329.307 388.711 326.234 386.969L315.889 381.028V396.649C315.889 400.183 313.431 401.617 310.358 399.875C307.285 398.134 304.827 393.832 304.827 390.247V374.627L294.481 368.686C291.408 366.945 288.95 362.643 288.95 359.109C288.95 355.575 291.408 354.141 294.481 355.882L304.827 361.823V346.203C304.827 342.669 307.285 341.235 310.358 342.976Z" fill="url(#paint12_linear)"/>
<path opacity="0.2" d="M66.3223 119.888L80.5598 147.851C82.5059 151.692 82.1986 155.533 79.8428 156.455C77.4869 157.376 74.0044 154.969 72.0583 151.128L71.9046 150.77V181.806C71.9046 185.339 69.4463 186.773 66.3735 185.032C63.3006 183.24 60.8424 178.989 60.8424 175.455V144.419L60.6887 144.573C58.7426 146.161 55.2088 144.522 52.9042 140.885C50.5483 137.249 50.241 133.05 52.1872 131.462L66.3223 119.888Z" fill="url(#paint13_linear)"/>
<defs>
<linearGradient id="paint0_linear" x1="295.782" y1="194.325" x2="315.333" y2="353.718" gradientUnits="userSpaceOnUse">
<stop stop-color="white"/>
<stop offset="1" stop-color="white" stop-opacity="0"/>
</linearGradient>
<linearGradient id="paint1_linear" x1="169.436" y1="99.7721" x2="109.058" y2="204.371" gradientUnits="userSpaceOnUse">
<stop stop-color="white"/>
<stop offset="1" stop-color="white" stop-opacity="0"/>
</linearGradient>
<linearGradient id="paint2_linear" x1="228.996" y1="290.248" x2="168.621" y2="394.85" gradientUnits="userSpaceOnUse">
<stop stop-color="white"/>
<stop offset="1" stop-color="white" stop-opacity="0"/>
</linearGradient>
<linearGradient id="paint3_linear" x1="107.176" y1="230.525" x2="42.1171" y2="281.439" gradientUnits="userSpaceOnUse">
<stop stop-color="white"/>
<stop offset="1" stop-color="white" stop-opacity="0"/>
</linearGradient>
<linearGradient id="paint4_linear" x1="344.326" y1="12.3393" x2="219.881" y2="157.547" gradientUnits="userSpaceOnUse">
<stop stop-color="white"/>
<stop offset="1" stop-color="white" stop-opacity="0"/>
</linearGradient>
<linearGradient id="paint5_linear" x1="415.609" y1="79.6297" x2="294.13" y2="221.376" gradientUnits="userSpaceOnUse">
<stop stop-color="white"/>
<stop offset="1" stop-color="white" stop-opacity="0"/>
</linearGradient>
<linearGradient id="paint6_linear" x1="384.973" y1="46.2011" x2="259.396" y2="192.731" gradientUnits="userSpaceOnUse">
<stop stop-color="white"/>
<stop offset="1" stop-color="white" stop-opacity="0"/>
</linearGradient>
<linearGradient id="paint7_linear" x1="406.952" y1="117.314" x2="309.687" y2="230.806" gradientUnits="userSpaceOnUse">
<stop stop-color="white"/>
<stop offset="1" stop-color="white" stop-opacity="0"/>
</linearGradient>
<linearGradient id="paint8_linear" x1="364.812" y1="-2.51251" x2="240.366" y2="142.695" gradientUnits="userSpaceOnUse">
<stop stop-color="white"/>
<stop offset="1" stop-color="white" stop-opacity="0"/>
</linearGradient>
<linearGradient id="paint9_linear" x1="436.093" y1="64.7791" x2="314.615" y2="206.526" gradientUnits="userSpaceOnUse">
<stop stop-color="white"/>
<stop offset="1" stop-color="white" stop-opacity="0"/>
</linearGradient>
<linearGradient id="paint10_linear" x1="405.459" y1="31.3488" x2="279.881" y2="177.879" gradientUnits="userSpaceOnUse">
<stop stop-color="white"/>
<stop offset="1" stop-color="white" stop-opacity="0"/>
</linearGradient>
<linearGradient id="paint11_linear" x1="427.437" y1="102.462" x2="330.173" y2="215.953" gradientUnits="userSpaceOnUse">
<stop stop-color="white"/>
<stop offset="1" stop-color="white" stop-opacity="0"/>
</linearGradient>
<linearGradient id="paint12_linear" x1="316.121" y1="362.97" x2="296.942" y2="378.105" gradientUnits="userSpaceOnUse">
<stop stop-color="white"/>
<stop offset="1" stop-color="white" stop-opacity="0"/>
</linearGradient>
<linearGradient id="paint13_linear" x1="68.5997" y1="148.089" x2="58.0744" y2="153.956" gradientUnits="userSpaceOnUse">
<stop stop-color="white"/>
<stop offset="1" stop-color="white" stop-opacity="0"/>
</linearGradient>
</defs>
</svg>
