<svg width="72" height="72" viewBox="0 0 72 72" fill="none" xmlns="http://www.w3.org/2000/svg">
<circle cx="36" cy="36" r="36" fill="url(#paint0_linear_824_38)"/>
<path d="M38.3993 19.6881C39.8265 19.1391 41.4065 19.1391 42.8336 19.6881L49.9584 22.426C51.1523 22.8871 51.9387 24.0317 51.9387 25.3101V41.3259C51.9387 41.4783 51.9264 41.6306 51.9037 41.7788C51.7106 39.5554 50.7212 37.4764 49.1176 35.9242C47.5139 34.372 45.4038 33.4509 43.1753 33.3304C42.6035 32.1675 41.614 31.2632 40.4044 30.7983L33.2796 28.0604C32.0116 27.5721 30.6424 27.4052 29.2942 27.5745V25.3101C29.2943 24.6858 29.4836 24.0762 29.8371 23.5617C30.1906 23.0472 30.6918 22.652 31.2746 22.428L38.3973 19.6881H38.3993ZM48.0068 24.7131C47.9584 24.5868 47.8857 24.4713 47.7927 24.3732C47.6996 24.275 47.5882 24.1962 47.4647 24.1411C47.3412 24.0861 47.2081 24.0559 47.0729 24.0523C46.9377 24.0487 46.8032 24.0718 46.677 24.1202L40.9829 26.3106C40.745 26.402 40.4817 26.402 40.2438 26.3106L34.5518 24.1223C34.4256 24.0737 34.291 24.0506 34.1558 24.054C34.0206 24.0575 33.8874 24.0876 33.7638 24.1426C33.6402 24.1975 33.5287 24.2763 33.4355 24.3743C33.3424 24.4724 33.2695 24.5879 33.221 24.7141C33.1724 24.8404 33.1492 24.9749 33.1527 25.1101C33.1562 25.2454 33.1863 25.3785 33.2412 25.5021C33.2962 25.6257 33.375 25.7373 33.473 25.8304C33.5711 25.9236 33.6866 25.9965 33.8128 26.045L39.5069 28.2333C40.2204 28.5077 41.0104 28.5077 41.724 28.2333L47.418 26.045C47.6727 25.9469 47.878 25.7517 47.9888 25.5024C48.0995 25.253 48.1068 24.9698 48.0089 24.7151L48.0068 24.7131ZM40.8223 33.5033C40.5024 33.157 40.1073 32.8887 39.6674 32.719L32.5406 29.981C31.1135 29.4321 29.5335 29.4321 28.1064 29.981L20.9816 32.719C20.3985 32.943 19.8971 33.3386 19.5436 33.8535C19.19 34.3684 19.0009 34.9784 19.0012 35.603V45.4431C19.0013 46.0674 19.1906 46.677 19.5441 47.1915C19.8977 47.706 20.3989 48.1013 20.9816 48.3252L28.1043 51.0651C29.532 51.6146 31.1129 51.6146 32.5406 51.0651L36.5425 49.5253C35.5571 48.6569 34.7682 47.5884 34.2283 46.3911C33.6883 45.1938 33.4099 43.8951 33.4114 42.5817C33.4114 41.0563 33.7819 39.6173 34.4324 38.3472L31.3528 39.535V44.6609C31.3528 44.9338 31.2443 45.1956 31.0513 45.3887C30.8583 45.5817 30.5965 45.6902 30.3235 45.6902C30.0505 45.6902 29.7887 45.5817 29.5957 45.3887C29.4026 45.1956 29.2942 44.9338 29.2942 44.6609V39.535L23.5198 37.3117C23.3937 37.263 23.2784 37.19 23.1805 37.0968C23.0826 37.0036 23.0041 36.892 22.9493 36.7684C22.8945 36.6448 22.8647 36.5116 22.8613 36.3765C22.858 36.2414 22.8814 36.1069 22.93 35.9808C22.9787 35.8547 23.0517 35.7394 23.145 35.6415C23.2382 35.5436 23.3498 35.465 23.4733 35.4103C23.5969 35.3555 23.7301 35.3256 23.8652 35.3223C24.0004 35.319 24.1348 35.3423 24.2609 35.391L30.3235 37.7234L36.386 35.391C36.5517 35.3269 36.7312 35.307 36.9069 35.3334C38.0487 34.4219 39.3907 33.7947 40.8223 33.5033V33.5033ZM48.4473 46.8944C49.5382 45.4356 50.036 43.6177 49.8406 41.8066C49.6452 39.9955 48.771 38.3257 47.394 37.1332C46.017 35.9406 44.2394 35.3139 42.419 35.3792C40.5986 35.4444 38.8704 36.1968 37.5824 37.4849C36.2943 38.7729 35.5419 40.5011 35.4767 42.3215C35.4114 44.1419 36.0381 45.9195 37.2306 47.2965C38.4232 48.6735 40.093 49.5477 41.9041 49.7431C43.7152 49.9385 45.5331 49.4407 46.9919 48.3499L52.2413 53.5993C52.3369 53.695 52.4504 53.7709 52.5753 53.8228C52.7002 53.8746 52.8341 53.9013 52.9693 53.9014C53.1046 53.9015 53.2385 53.875 53.3635 53.8233C53.4885 53.7716 53.6021 53.6959 53.6978 53.6003C53.7935 53.5047 53.8694 53.3913 53.9213 53.2663C53.9731 53.1414 53.9998 53.0075 53.9999 52.8723C54 52.737 53.9735 52.6031 53.9218 52.4781C53.8702 52.3531 53.7944 52.2395 53.6988 52.1438L48.4494 46.8944H48.4473ZM47.8215 42.5817C47.8215 43.9466 47.2793 45.2556 46.3142 46.2208C45.349 47.1859 44.04 47.7282 42.675 47.7282C41.3101 47.7282 40.0011 47.1859 39.0359 46.2208C38.0708 45.2556 37.5286 43.9466 37.5286 42.5817C37.5286 41.2167 38.0708 39.9077 39.0359 38.9426C40.0011 37.9774 41.3101 37.4352 42.675 37.4352C44.04 37.4352 45.349 37.9774 46.3142 38.9426C47.2793 39.9077 47.8215 41.2167 47.8215 42.5817V42.5817Z" fill="black"/>
<path d="M38.3993 19.6881C39.8265 19.1391 41.4065 19.1391 42.8336 19.6881L49.9584 22.426C51.1523 22.8871 51.9387 24.0317 51.9387 25.3101V41.3259C51.9387 41.4783 51.9264 41.6306 51.9037 41.7788C51.7106 39.5554 50.7212 37.4764 49.1176 35.9242C47.5139 34.372 45.4038 33.4509 43.1753 33.3304C42.6035 32.1675 41.614 31.2632 40.4044 30.7983L33.2796 28.0604C32.0116 27.5721 30.6424 27.4052 29.2942 27.5745V25.3101C29.2943 24.6858 29.4836 24.0762 29.8371 23.5617C30.1906 23.0472 30.6918 22.652 31.2746 22.428L38.3973 19.6881H38.3993ZM48.0068 24.7131C47.9584 24.5868 47.8857 24.4713 47.7927 24.3732C47.6996 24.275 47.5882 24.1962 47.4647 24.1411C47.3412 24.0861 47.2081 24.0559 47.0729 24.0523C46.9377 24.0487 46.8032 24.0718 46.677 24.1202L40.9829 26.3106C40.745 26.402 40.4817 26.402 40.2438 26.3106L34.5518 24.1223C34.4256 24.0737 34.291 24.0506 34.1558 24.054C34.0206 24.0575 33.8874 24.0876 33.7638 24.1426C33.6402 24.1975 33.5287 24.2763 33.4355 24.3743C33.3424 24.4724 33.2695 24.5879 33.221 24.7141C33.1724 24.8404 33.1492 24.9749 33.1527 25.1101C33.1562 25.2454 33.1863 25.3785 33.2412 25.5021C33.2962 25.6257 33.375 25.7373 33.473 25.8304C33.5711 25.9236 33.6866 25.9965 33.8128 26.045L39.5069 28.2333C40.2204 28.5077 41.0104 28.5077 41.724 28.2333L47.418 26.045C47.6727 25.9469 47.878 25.7517 47.9888 25.5024C48.0995 25.253 48.1068 24.9698 48.0089 24.7151L48.0068 24.7131ZM40.8223 33.5033C40.5024 33.157 40.1073 32.8887 39.6674 32.719L32.5406 29.981C31.1135 29.4321 29.5335 29.4321 28.1064 29.981L20.9816 32.719C20.3985 32.943 19.8971 33.3386 19.5436 33.8535C19.19 34.3684 19.0009 34.9784 19.0012 35.603V45.4431C19.0013 46.0674 19.1906 46.677 19.5441 47.1915C19.8977 47.706 20.3989 48.1013 20.9816 48.3252L28.1043 51.0651C29.532 51.6146 31.1129 51.6146 32.5406 51.0651L36.5425 49.5253C35.5571 48.6569 34.7682 47.5884 34.2283 46.3911C33.6883 45.1938 33.4099 43.8951 33.4114 42.5817C33.4114 41.0563 33.7819 39.6173 34.4324 38.3472L31.3528 39.535V44.6609C31.3528 44.9338 31.2443 45.1956 31.0513 45.3887C30.8583 45.5817 30.5965 45.6902 30.3235 45.6902C30.0505 45.6902 29.7887 45.5817 29.5957 45.3887C29.4026 45.1956 29.2942 44.9338 29.2942 44.6609V39.535L23.5198 37.3117C23.3937 37.263 23.2784 37.19 23.1805 37.0968C23.0826 37.0036 23.0041 36.892 22.9493 36.7684C22.8945 36.6448 22.8647 36.5116 22.8613 36.3765C22.858 36.2414 22.8814 36.1069 22.93 35.9808C22.9787 35.8547 23.0517 35.7394 23.145 35.6415C23.2382 35.5436 23.3498 35.465 23.4733 35.4103C23.5969 35.3555 23.7301 35.3256 23.8652 35.3223C24.0004 35.319 24.1348 35.3423 24.2609 35.391L30.3235 37.7234L36.386 35.391C36.5517 35.3269 36.7312 35.307 36.9069 35.3334C38.0487 34.4219 39.3907 33.7947 40.8223 33.5033V33.5033ZM48.4473 46.8944C49.5382 45.4356 50.036 43.6177 49.8406 41.8066C49.6452 39.9955 48.771 38.3257 47.394 37.1332C46.017 35.9406 44.2394 35.3139 42.419 35.3792C40.5986 35.4444 38.8704 36.1968 37.5824 37.4849C36.2943 38.7729 35.5419 40.5011 35.4767 42.3215C35.4114 44.1419 36.0381 45.9195 37.2306 47.2965C38.4232 48.6735 40.093 49.5477 41.9041 49.7431C43.7152 49.9385 45.5331 49.4407 46.9919 48.3499L52.2413 53.5993C52.3369 53.695 52.4504 53.7709 52.5753 53.8228C52.7002 53.8746 52.8341 53.9013 52.9693 53.9014C53.1046 53.9015 53.2385 53.875 53.3635 53.8233C53.4885 53.7716 53.6021 53.6959 53.6978 53.6003C53.7935 53.5047 53.8694 53.3913 53.9213 53.2663C53.9731 53.1414 53.9998 53.0075 53.9999 52.8723C54 52.737 53.9735 52.6031 53.9218 52.4781C53.8702 52.3531 53.7944 52.2395 53.6988 52.1438L48.4494 46.8944H48.4473ZM47.8215 42.5817C47.8215 43.9466 47.2793 45.2556 46.3142 46.2208C45.349 47.1859 44.04 47.7282 42.675 47.7282C41.3101 47.7282 40.0011 47.1859 39.0359 46.2208C38.0708 45.2556 37.5286 43.9466 37.5286 42.5817C37.5286 41.2167 38.0708 39.9077 39.0359 38.9426C40.0011 37.9774 41.3101 37.4352 42.675 37.4352C44.04 37.4352 45.349 37.9774 46.3142 38.9426C47.2793 39.9077 47.8215 41.2167 47.8215 42.5817V42.5817Z" fill="url(#paint1_linear_824_38)"/>
<defs>
<linearGradient id="paint0_linear_824_38" x1="36" y1="0" x2="36" y2="72" gradientUnits="userSpaceOnUse">
<stop stop-color="#8808FC"/>
<stop offset="1" stop-color="#9525FA" stop-opacity="0.67"/>
</linearGradient>
<linearGradient id="paint1_linear_824_38" x1="36.5006" y1="19.2764" x2="36.5006" y2="53.9014" gradientUnits="userSpaceOnUse">
<stop offset="0.128125" stop-color="#FFF7F9"/>
<stop offset="1" stop-color="#DDB8FF"/>
</linearGradient>
</defs>
</svg>
