<svg width="72" height="72" viewBox="0 0 72 72" fill="none" xmlns="http://www.w3.org/2000/svg">
<circle cx="36" cy="36" r="36" fill="url(#paint0_linear_731_804)"/>
<path d="M39.4518 16H33.3389L36.396 22.2789L39.4518 16Z" fill="black"/>
<path d="M39.4518 16H33.3389L36.396 22.2789L39.4518 16Z" fill="url(#paint1_linear_731_804)"/>
<path d="M44.2358 16.627L43.8254 23.6354L49.5292 19.767L44.2358 16.627Z" fill="black"/>
<path d="M44.2358 16.627L43.8254 23.6354L49.5292 19.767L44.2358 16.627Z" fill="url(#paint2_linear_731_804)"/>
<path d="M28.5545 16.627L23.2605 19.767L28.9637 23.6354L28.5545 16.627Z" fill="black"/>
<path d="M28.5545 16.627L23.2605 19.767L28.9637 23.6354L28.5545 16.627Z" fill="url(#paint3_linear_731_804)"/>
<path d="M54.8816 40.1672C54.8601 39.8854 54.8392 39.6169 54.824 39.3642C54.6941 37.1798 54.7967 30.4766 54.798 30.4088C54.798 28.7394 53.7802 27.303 51.9404 27.4581C51.4654 25.2839 49.5293 24.6905 48.4545 25.4593C47.5691 23.4833 44.246 23.6353 43.5392 25.7614C41.8919 24.9286 40.199 26.5316 40.199 28.6653V35.7136C39.4327 34.8941 38.5568 34.4501 37.6486 34.4501C37.045 34.4501 36.4852 34.6541 36.0222 35.0328C35.5523 34.5458 34.9569 34.2671 34.3097 34.2671C33.4338 34.2671 32.587 34.7326 31.8238 35.6129V28.6653C31.8238 25.7203 29.1138 25.1034 28.2651 25.7203C27.4937 23.7607 24.8033 23.4637 23.5683 25.4593C22.3504 24.8494 20.4517 25.5024 20.0824 27.4588C18.4142 27.1453 17.2248 28.74 17.2248 30.3898C17.2261 30.4772 17.4066 37.131 17.1989 39.3648C16.9113 42.4644 16.7923 44.6551 17.8645 47.431C18.2299 48.3765 18.8493 49.2068 19.648 49.8769C20.1154 51.7934 19.919 53.2627 19.9165 53.276L19.812 54.0005H29.1967L29.9473 53.9986L29.8206 53.2583C29.8181 53.2443 29.6033 51.8833 30.0188 49.982C31.4077 48.9237 32.5129 47.4069 33.2083 45.512C33.4832 44.7659 33.8036 44.0015 34.1444 43.1921C34.4496 42.4656 35.969 39.2438 35.969 39.2438C35.969 39.2438 37.5732 42.4656 37.8785 43.1921C38.2186 44.0015 38.5397 44.7659 38.8139 45.5126C39.5106 47.4063 40.6151 48.9237 42.0047 49.982C42.4195 51.8833 42.2048 53.2431 42.2029 53.2564L42.0705 54.0005H52.2102L52.1063 53.276C52.1038 53.2614 51.9037 51.8073 52.3749 49.8769C53.1741 49.2062 53.7929 48.3765 54.1583 47.431C55.2299 44.6544 55.0285 42.0609 54.8816 40.1672ZM28.5026 52.7339H20.5897C20.603 52.2715 20.61 51.1721 20.2933 50.2221C21.3219 51.0334 22.5683 51.687 24.8812 51.687C26.2137 51.687 27.4589 51.3969 28.5792 50.8598C28.5006 51.4812 28.4749 52.1081 28.5026 52.7339V52.7339ZM33.8733 40.4985C33.2723 42.0749 32.5598 43.6107 32.0202 45.0756C30.6211 48.8832 27.0212 51.1594 24.2479 51.1594C21.6499 51.1594 19.3687 49.1384 18.5599 47.0421C17.437 44.1332 17.9994 41.2756 18.1115 39.3895C18.2451 37.1317 18.4123 32.6553 18.3553 30.4107C18.3256 29.2403 19.3243 27.9167 20.4719 28.4316V36.9619L21.237 37.5712V28.1953C21.237 26.2548 22.9913 25.9774 23.5677 26.6107V36.9429L24.3296 37.5706V26.7703C24.3296 24.572 27.538 24.4732 27.538 26.7735V36.9436L28.2258 37.556L28.2423 26.8926C28.9149 26.2592 30.5584 26.7697 30.5584 28.6659V39.0773C27.697 38.9493 23.5632 41.0564 24.1826 45.6811C24.1826 41.1191 28.141 40.0577 30.3545 40.0577C31.1728 40.0577 31.402 38.791 31.5224 38.2286C32.366 34.257 35.0032 35.022 35.2198 36.0132C34.9747 36.4407 35.0019 36.9436 35.0811 37.3267C35.1153 37.5395 35.1748 37.746 35.2514 37.9461C34.8727 38.6821 34.2508 39.5111 33.8733 40.4985V40.4985ZM51.4331 52.7339H43.5209C43.5424 52.2779 43.5386 51.6344 43.4436 50.8598C44.5985 51.4104 45.8628 51.6931 47.1423 51.687C49.1518 51.687 50.7345 51.2316 51.8017 50.3215C51.4654 51.2709 51.4198 52.2715 51.4331 52.7339V52.7339ZM53.6213 47.0358C52.8125 49.1321 50.2988 51.1594 47.7009 51.1594C44.9275 51.1594 41.5271 48.9003 40.1712 45.0769C38.2838 39.7543 35.4528 37.5642 36.6492 35.7231C37.4358 34.5128 39.5176 34.8346 40.4378 38.4237C40.5803 38.9804 40.9812 40.0577 41.6671 40.0577C43.8806 40.0577 47.8383 41.1191 47.8383 45.6811C48.4583 41.0564 44.3239 38.9493 41.4632 39.0773V28.6653C41.4632 27.2244 42.4258 26.1161 43.671 26.7583V37.575L44.4443 36.9429V26.5955C44.6609 24.6518 47.4222 24.731 47.7389 26.5316V37.5712L48.4596 36.9436V26.5119C49.3722 25.5816 51.0493 26.3137 51.0493 27.7982V37.6244L51.7498 36.9968L51.7422 28.6292C52.7903 28.2137 53.9183 29.0054 53.898 30.2125C53.898 30.2125 53.8828 37.0196 54.0171 39.2774C54.1298 41.1635 54.7448 44.1269 53.6213 47.0358" fill="black"/>
<path d="M54.8816 40.1672C54.8601 39.8854 54.8392 39.6169 54.824 39.3642C54.6941 37.1798 54.7967 30.4766 54.798 30.4088C54.798 28.7394 53.7802 27.303 51.9404 27.4581C51.4654 25.2839 49.5293 24.6905 48.4545 25.4593C47.5691 23.4833 44.246 23.6353 43.5392 25.7614C41.8919 24.9286 40.199 26.5316 40.199 28.6653V35.7136C39.4327 34.8941 38.5568 34.4501 37.6486 34.4501C37.045 34.4501 36.4852 34.6541 36.0222 35.0328C35.5523 34.5458 34.9569 34.2671 34.3097 34.2671C33.4338 34.2671 32.587 34.7326 31.8238 35.6129V28.6653C31.8238 25.7203 29.1138 25.1034 28.2651 25.7203C27.4937 23.7607 24.8033 23.4637 23.5683 25.4593C22.3504 24.8494 20.4517 25.5024 20.0824 27.4588C18.4142 27.1453 17.2248 28.74 17.2248 30.3898C17.2261 30.4772 17.4066 37.131 17.1989 39.3648C16.9113 42.4644 16.7923 44.6551 17.8645 47.431C18.2299 48.3765 18.8493 49.2068 19.648 49.8769C20.1154 51.7934 19.919 53.2627 19.9165 53.276L19.812 54.0005H29.1967L29.9473 53.9986L29.8206 53.2583C29.8181 53.2443 29.6033 51.8833 30.0188 49.982C31.4077 48.9237 32.5129 47.4069 33.2083 45.512C33.4832 44.7659 33.8036 44.0015 34.1444 43.1921C34.4496 42.4656 35.969 39.2438 35.969 39.2438C35.969 39.2438 37.5732 42.4656 37.8785 43.1921C38.2186 44.0015 38.5397 44.7659 38.8139 45.5126C39.5106 47.4063 40.6151 48.9237 42.0047 49.982C42.4195 51.8833 42.2048 53.2431 42.2029 53.2564L42.0705 54.0005H52.2102L52.1063 53.276C52.1038 53.2614 51.9037 51.8073 52.3749 49.8769C53.1741 49.2062 53.7929 48.3765 54.1583 47.431C55.2299 44.6544 55.0285 42.0609 54.8816 40.1672ZM28.5026 52.7339H20.5897C20.603 52.2715 20.61 51.1721 20.2933 50.2221C21.3219 51.0334 22.5683 51.687 24.8812 51.687C26.2137 51.687 27.4589 51.3969 28.5792 50.8598C28.5006 51.4812 28.4749 52.1081 28.5026 52.7339V52.7339ZM33.8733 40.4985C33.2723 42.0749 32.5598 43.6107 32.0202 45.0756C30.6211 48.8832 27.0212 51.1594 24.2479 51.1594C21.6499 51.1594 19.3687 49.1384 18.5599 47.0421C17.437 44.1332 17.9994 41.2756 18.1115 39.3895C18.2451 37.1317 18.4123 32.6553 18.3553 30.4107C18.3256 29.2403 19.3243 27.9167 20.4719 28.4316V36.9619L21.237 37.5712V28.1953C21.237 26.2548 22.9913 25.9774 23.5677 26.6107V36.9429L24.3296 37.5706V26.7703C24.3296 24.572 27.538 24.4732 27.538 26.7735V36.9436L28.2258 37.556L28.2423 26.8926C28.9149 26.2592 30.5584 26.7697 30.5584 28.6659V39.0773C27.697 38.9493 23.5632 41.0564 24.1826 45.6811C24.1826 41.1191 28.141 40.0577 30.3545 40.0577C31.1728 40.0577 31.402 38.791 31.5224 38.2286C32.366 34.257 35.0032 35.022 35.2198 36.0132C34.9747 36.4407 35.0019 36.9436 35.0811 37.3267C35.1153 37.5395 35.1748 37.746 35.2514 37.9461C34.8727 38.6821 34.2508 39.5111 33.8733 40.4985V40.4985ZM51.4331 52.7339H43.5209C43.5424 52.2779 43.5386 51.6344 43.4436 50.8598C44.5985 51.4104 45.8628 51.6931 47.1423 51.687C49.1518 51.687 50.7345 51.2316 51.8017 50.3215C51.4654 51.2709 51.4198 52.2715 51.4331 52.7339V52.7339ZM53.6213 47.0358C52.8125 49.1321 50.2988 51.1594 47.7009 51.1594C44.9275 51.1594 41.5271 48.9003 40.1712 45.0769C38.2838 39.7543 35.4528 37.5642 36.6492 35.7231C37.4358 34.5128 39.5176 34.8346 40.4378 38.4237C40.5803 38.9804 40.9812 40.0577 41.6671 40.0577C43.8806 40.0577 47.8383 41.1191 47.8383 45.6811C48.4583 41.0564 44.3239 38.9493 41.4632 39.0773V28.6653C41.4632 27.2244 42.4258 26.1161 43.671 26.7583V37.575L44.4443 36.9429V26.5955C44.6609 24.6518 47.4222 24.731 47.7389 26.5316V37.5712L48.4596 36.9436V26.5119C49.3722 25.5816 51.0493 26.3137 51.0493 27.7982V37.6244L51.7498 36.9968L51.7422 28.6292C52.7903 28.2137 53.9183 29.0054 53.898 30.2125C53.898 30.2125 53.8828 37.0196 54.0171 39.2774C54.1298 41.1635 54.7448 44.1269 53.6213 47.0358" fill="url(#paint4_linear_731_804)"/>
<defs>
<linearGradient id="paint0_linear_731_804" x1="36" y1="0" x2="36" y2="72" gradientUnits="userSpaceOnUse">
<stop stop-color="#8808FC"/>
<stop offset="1" stop-color="#9525FA" stop-opacity="0.67"/>
</linearGradient>
<linearGradient id="paint1_linear_731_804" x1="36.3953" y1="16" x2="36.3953" y2="22.2789" gradientUnits="userSpaceOnUse">
<stop offset="0.128125" stop-color="#FFF7F9"/>
<stop offset="1" stop-color="#DDB8FF"/>
</linearGradient>
<linearGradient id="paint2_linear_731_804" x1="46.6773" y1="16.627" x2="46.6773" y2="23.6354" gradientUnits="userSpaceOnUse">
<stop offset="0.128125" stop-color="#FFF7F9"/>
<stop offset="1" stop-color="#DDB8FF"/>
</linearGradient>
<linearGradient id="paint3_linear_731_804" x1="26.1121" y1="16.627" x2="26.1121" y2="23.6354" gradientUnits="userSpaceOnUse">
<stop offset="0.128125" stop-color="#FFF7F9"/>
<stop offset="1" stop-color="#DDB8FF"/>
</linearGradient>
<linearGradient id="paint4_linear_731_804" x1="35.9999" y1="24.0674" x2="35.9999" y2="54.0005" gradientUnits="userSpaceOnUse">
<stop offset="0.128125" stop-color="#FFF7F9"/>
<stop offset="1" stop-color="#DDB8FF"/>
</linearGradient>
</defs>
</svg>
