<svg width="72" height="72" viewBox="0 0 72 72" fill="none" xmlns="http://www.w3.org/2000/svg">
<circle cx="36" cy="36" r="36" fill="url(#paint0_linear_824_87)"/>
<path d="M53.2469 36.4244C55.6413 31.8631 50.7744 28.7 44.4113 27.1488C44.8901 26.0606 45.0288 24.6363 43.6788 23.2763C41.9476 21.5356 43.0982 19 43.0982 19C43.0982 19 39.4644 22.3519 41.7588 24.6631C42.6051 25.515 43.0457 26.2631 43.2563 26.8887C41.4997 26.5267 39.721 26.2816 37.9319 26.155C38.4663 24.7025 38.5182 22.8781 36.8344 21.1312C34.5294 18.7369 36.0644 15.25 36.0644 15.25C36.0644 15.25 31.2188 19.8588 34.2782 23.0363C35.3951 24.195 35.9832 25.215 36.2682 26.07C34.3719 26.0131 32.5469 26.0962 30.9257 26.3231C31.1188 25.3887 30.9576 24.3144 29.9269 23.2769C28.1957 21.5363 29.3469 19 29.3469 19C29.3469 19 25.7126 22.3519 28.0076 24.6631C28.7263 25.3869 29.1476 26.0331 29.3894 26.5962C29.1157 26.6562 28.8501 26.7212 28.5944 26.7919C20.6932 26.0525 17.2469 27.685 18.8213 30.8875C16.0738 33.635 17.1063 36.7706 20.5444 39.17C22.3382 46.5581 22.8001 52.75 36.3101 52.75C48.3651 52.75 50.0307 47.8188 51.5238 41.5075C56.0038 40.6156 55.0494 38.4681 53.2469 36.4244V36.4244ZM52.1301 35.6863C50.6294 38.8863 44.1169 41.295 36.3101 41.295C28.5038 41.295 21.9913 38.8863 20.4901 35.6863C20.4582 35.5913 20.4276 35.4925 20.3969 35.3963C21.1119 33.5825 23.4357 32.0088 26.6994 30.955C25.9326 31.6963 25.7732 32.8031 27.7913 33.1912C28.3688 33.3025 29.9544 32.9175 29.2613 30.95C29.1644 30.675 29.0063 30.4906 28.8119 30.3794C31.0544 29.8663 33.6001 29.5706 36.3101 29.5706C36.6138 29.5706 36.9119 29.5812 37.2113 29.5881C35.6476 30.1431 34.3719 31.8531 37.5651 32.3575C38.2701 32.4687 40.2057 32.0837 39.3594 30.1162C39.2855 29.9409 39.167 29.7879 39.0157 29.6725C42.0076 29.8925 44.7182 30.4688 46.9094 31.2994C44.9826 31.1919 42.8451 32.3794 46.2682 34.0513C47.0026 34.41 49.2338 34.7394 48.9269 32.5669C48.9047 32.4099 48.8493 32.2595 48.7644 32.1256C50.5163 33.0487 51.7382 34.1681 52.2226 35.3963L52.1301 35.6863Z" fill="black"/>
<path d="M53.2469 36.4244C55.6413 31.8631 50.7744 28.7 44.4113 27.1488C44.8901 26.0606 45.0288 24.6363 43.6788 23.2763C41.9476 21.5356 43.0982 19 43.0982 19C43.0982 19 39.4644 22.3519 41.7588 24.6631C42.6051 25.515 43.0457 26.2631 43.2563 26.8887C41.4997 26.5267 39.721 26.2816 37.9319 26.155C38.4663 24.7025 38.5182 22.8781 36.8344 21.1312C34.5294 18.7369 36.0644 15.25 36.0644 15.25C36.0644 15.25 31.2188 19.8588 34.2782 23.0363C35.3951 24.195 35.9832 25.215 36.2682 26.07C34.3719 26.0131 32.5469 26.0962 30.9257 26.3231C31.1188 25.3887 30.9576 24.3144 29.9269 23.2769C28.1957 21.5363 29.3469 19 29.3469 19C29.3469 19 25.7126 22.3519 28.0076 24.6631C28.7263 25.3869 29.1476 26.0331 29.3894 26.5962C29.1157 26.6562 28.8501 26.7212 28.5944 26.7919C20.6932 26.0525 17.2469 27.685 18.8213 30.8875C16.0738 33.635 17.1063 36.7706 20.5444 39.17C22.3382 46.5581 22.8001 52.75 36.3101 52.75C48.3651 52.75 50.0307 47.8188 51.5238 41.5075C56.0038 40.6156 55.0494 38.4681 53.2469 36.4244V36.4244ZM52.1301 35.6863C50.6294 38.8863 44.1169 41.295 36.3101 41.295C28.5038 41.295 21.9913 38.8863 20.4901 35.6863C20.4582 35.5913 20.4276 35.4925 20.3969 35.3963C21.1119 33.5825 23.4357 32.0088 26.6994 30.955C25.9326 31.6963 25.7732 32.8031 27.7913 33.1912C28.3688 33.3025 29.9544 32.9175 29.2613 30.95C29.1644 30.675 29.0063 30.4906 28.8119 30.3794C31.0544 29.8663 33.6001 29.5706 36.3101 29.5706C36.6138 29.5706 36.9119 29.5812 37.2113 29.5881C35.6476 30.1431 34.3719 31.8531 37.5651 32.3575C38.2701 32.4687 40.2057 32.0837 39.3594 30.1162C39.2855 29.9409 39.167 29.7879 39.0157 29.6725C42.0076 29.8925 44.7182 30.4688 46.9094 31.2994C44.9826 31.1919 42.8451 32.3794 46.2682 34.0513C47.0026 34.41 49.2338 34.7394 48.9269 32.5669C48.9047 32.4099 48.8493 32.2595 48.7644 32.1256C50.5163 33.0487 51.7382 34.1681 52.2226 35.3963L52.1301 35.6863Z" fill="url(#paint1_linear_824_87)"/>
<path d="M32.1482 37.0256C34.1688 37.0256 35.5163 35.1987 36.5719 34.4837C38.0469 33.4837 41.7557 33.0937 38.4894 33.015C35.3913 32.9406 31.5663 35.4556 29.01 35.2825C24.7775 34.995 29.1125 37.0256 32.1482 37.0256" fill="black"/>
<path d="M32.1482 37.0256C34.1688 37.0256 35.5163 35.1987 36.5719 34.4837C38.0469 33.4837 41.7557 33.0937 38.4894 33.015C35.3913 32.9406 31.5663 35.4556 29.01 35.2825C24.7775 34.995 29.1125 37.0256 32.1482 37.0256" fill="url(#paint2_linear_824_87)"/>
<path d="M36.5143 40.7581C37.228 40.8956 39.1899 40.4194 38.3318 37.9862C37.3624 35.2331 31.4943 39.7919 36.5143 40.7581Z" fill="black"/>
<path d="M36.5143 40.7581C37.228 40.8956 39.1899 40.4194 38.3318 37.9862C37.3624 35.2331 31.4943 39.7919 36.5143 40.7581Z" fill="url(#paint3_linear_824_87)"/>
<path d="M25.4044 34.7362C24.7225 33.7737 23.7338 32.5531 23.3244 33.1887C22.765 34.0581 22.5888 35.8075 22.995 35.885C26.18 36.4956 25.9569 35.5156 25.4044 34.7362" fill="black"/>
<path d="M25.4044 34.7362C24.7225 33.7737 23.7338 32.5531 23.3244 33.1887C22.765 34.0581 22.5888 35.8075 22.995 35.885C26.18 36.4956 25.9569 35.5156 25.4044 34.7362" fill="url(#paint4_linear_824_87)"/>
<path d="M43.92 35.1262C44.4944 34.415 43.3475 32.7031 42.6113 33.0025C41.4588 33.4712 40.7944 33.1537 40.2882 33.865C39.1025 35.5306 43.1394 36.0919 43.92 35.1262Z" fill="black"/>
<path d="M43.92 35.1262C44.4944 34.415 43.3475 32.7031 42.6113 33.0025C41.4588 33.4712 40.7944 33.1537 40.2882 33.865C39.1025 35.5306 43.1394 36.0919 43.92 35.1262Z" fill="url(#paint5_linear_824_87)"/>
<path d="M43.5611 37.1644C42.7349 36.8 42.9299 38.0206 41.7093 37.0412C40.8355 36.34 38.9555 38.1087 40.1955 39.31C41.5755 40.6469 41.943 39.3762 42.523 39.4831C43.7018 39.7 45.7286 38.1206 43.5611 37.1644Z" fill="black"/>
<path d="M43.5611 37.1644C42.7349 36.8 42.9299 38.0206 41.7093 37.0412C40.8355 36.34 38.9555 38.1087 40.1955 39.31C41.5755 40.6469 41.943 39.3762 42.523 39.4831C43.7018 39.7 45.7286 38.1206 43.5611 37.1644Z" fill="url(#paint6_linear_824_87)"/>
<path d="M29.8225 37.5818C29.3919 37.1581 28.8144 37.6693 28.4881 38.2931C28.165 38.1343 27.9019 38.0975 27.9019 38.0975C27.655 37.3937 26.9206 36.9112 26.9206 36.9112C26.9206 36.9112 26.9875 37.6431 27.0844 38C26.2731 37.7118 26.2481 36.2618 26.2481 36.2618C26.2481 36.2618 25.7037 36.5875 25.7531 37.1406C24.86 36.42 24.0994 36.7568 24.0994 36.7568C24.0994 36.7568 25.2325 37.3943 25.3887 37.8243C24.7525 37.8737 24.3812 38.0937 24.165 38.6056C24.1656 38.61 25.4225 38.0075 26.3525 38.4425C25.9856 38.7425 26.1681 39.4918 26.1681 39.4918C27.0337 38.5743 27.725 38.6725 28.2781 38.8368C28.2112 39.1175 28.2156 39.3737 28.3344 39.5293C29.2937 40.7906 32.6356 40.5068 33.5331 39.5743C34.62 38.4462 31.6 39.3312 29.8225 37.5818" fill="black"/>
<path d="M29.8225 37.5818C29.3919 37.1581 28.8144 37.6693 28.4881 38.2931C28.165 38.1343 27.9019 38.0975 27.9019 38.0975C27.655 37.3937 26.9206 36.9112 26.9206 36.9112C26.9206 36.9112 26.9875 37.6431 27.0844 38C26.2731 37.7118 26.2481 36.2618 26.2481 36.2618C26.2481 36.2618 25.7037 36.5875 25.7531 37.1406C24.86 36.42 24.0994 36.7568 24.0994 36.7568C24.0994 36.7568 25.2325 37.3943 25.3887 37.8243C24.7525 37.8737 24.3812 38.0937 24.165 38.6056C24.1656 38.61 25.4225 38.0075 26.3525 38.4425C25.9856 38.7425 26.1681 39.4918 26.1681 39.4918C27.0337 38.5743 27.725 38.6725 28.2781 38.8368C28.2112 39.1175 28.2156 39.3737 28.3344 39.5293C29.2937 40.7906 32.6356 40.5068 33.5331 39.5743C34.62 38.4462 31.6 39.3312 29.8225 37.5818" fill="url(#paint7_linear_824_87)"/>
<path d="M32.1832 32.8312C31.8989 33.4025 31.897 33.8337 32.2257 34.2825C32.2301 34.2837 32.3582 32.8962 33.2089 32.3212C33.2782 32.79 34.0145 33.0175 34.0145 33.0175C33.4257 30.9325 35.1445 30.8237 35.1364 30.0756C34.2251 30.1525 33.7076 30.815 33.7076 30.815C32.977 30.6656 32.1851 31.0475 32.1851 31.0475C32.1851 31.0475 32.8482 31.3656 33.2039 31.4662C32.5401 32.0144 31.2826 31.2912 31.2826 31.2912C31.2826 31.2912 31.2826 31.9262 31.7826 32.1669C30.7057 32.5637 30.6045 33.3887 30.6045 33.3887C30.6045 33.3887 31.7332 32.7444 32.1832 32.8312" fill="black"/>
<path d="M32.1832 32.8312C31.8989 33.4025 31.897 33.8337 32.2257 34.2825C32.2301 34.2837 32.3582 32.8962 33.2089 32.3212C33.2782 32.79 34.0145 33.0175 34.0145 33.0175C33.4257 30.9325 35.1445 30.8237 35.1364 30.0756C34.2251 30.1525 33.7076 30.815 33.7076 30.815C32.977 30.6656 32.1851 31.0475 32.1851 31.0475C32.1851 31.0475 32.8482 31.3656 33.2039 31.4662C32.5401 32.0144 31.2826 31.2912 31.2826 31.2912C31.2826 31.2912 31.2826 31.9262 31.7826 32.1669C30.7057 32.5637 30.6045 33.3887 30.6045 33.3887C30.6045 33.3887 31.7332 32.7444 32.1832 32.8312" fill="url(#paint8_linear_824_87)"/>
<path d="M48.1524 35.6788C48.4111 35.1875 48.0336 34.6769 48.0336 34.6769C48.0336 34.6769 47.453 36.0063 46.5936 35.9606C46.8199 35.6681 47.1636 35.0181 47.1636 35.0181C47.1636 35.0181 46.2999 35.1825 45.8011 35.7369C45.8011 35.7369 44.9911 35.5125 44.2136 35.9925C44.6524 36.5988 46.0986 35.6631 46.8655 37.6894C46.8655 37.6894 47.3217 37.0688 47.0986 36.6506C48.1249 36.6063 49.0536 37.645 49.0567 37.6413C49.053 37.085 48.7955 36.74 48.2261 36.45C48.5361 36.1131 49.8274 35.96 49.8274 35.96C49.8274 35.96 49.2549 35.3569 48.1524 35.6788" fill="black"/>
<path d="M48.1524 35.6788C48.4111 35.1875 48.0336 34.6769 48.0336 34.6769C48.0336 34.6769 47.453 36.0063 46.5936 35.9606C46.8199 35.6681 47.1636 35.0181 47.1636 35.0181C47.1636 35.0181 46.2999 35.1825 45.8011 35.7369C45.8011 35.7369 44.9911 35.5125 44.2136 35.9925C44.6524 36.5988 46.0986 35.6631 46.8655 37.6894C46.8655 37.6894 47.3217 37.0688 47.0986 36.6506C48.1249 36.6063 49.0536 37.645 49.0567 37.6413C49.053 37.085 48.7955 36.74 48.2261 36.45C48.5361 36.1131 49.8274 35.96 49.8274 35.96C49.8274 35.96 49.2549 35.3569 48.1524 35.6788" fill="url(#paint9_linear_824_87)"/>
<defs>
<linearGradient id="paint0_linear_824_87" x1="36" y1="0" x2="36" y2="72" gradientUnits="userSpaceOnUse">
<stop stop-color="#8808FC"/>
<stop offset="1" stop-color="#9525FA" stop-opacity="0.67"/>
</linearGradient>
<linearGradient id="paint1_linear_824_87" x1="36.0001" y1="15.25" x2="36.0001" y2="52.75" gradientUnits="userSpaceOnUse">
<stop offset="0.128125" stop-color="#FFF7F9"/>
<stop offset="1" stop-color="#DDB8FF"/>
</linearGradient>
<linearGradient id="paint2_linear_824_87" x1="33.5217" y1="33.0134" x2="33.5217" y2="37.0256" gradientUnits="userSpaceOnUse">
<stop offset="0.128125" stop-color="#FFF7F9"/>
<stop offset="1" stop-color="#DDB8FF"/>
</linearGradient>
<linearGradient id="paint3_linear_824_87" x1="36.5269" y1="37.1141" x2="36.5269" y2="40.7796" gradientUnits="userSpaceOnUse">
<stop offset="0.128125" stop-color="#FFF7F9"/>
<stop offset="1" stop-color="#DDB8FF"/>
</linearGradient>
<linearGradient id="paint4_linear_824_87" x1="24.2532" y1="33.0129" x2="24.2532" y2="36.0761" gradientUnits="userSpaceOnUse">
<stop offset="0.128125" stop-color="#FFF7F9"/>
<stop offset="1" stop-color="#DDB8FF"/>
</linearGradient>
<linearGradient id="paint5_linear_824_87" x1="42.0737" y1="32.9677" x2="42.0737" y2="35.5986" gradientUnits="userSpaceOnUse">
<stop offset="0.128125" stop-color="#FFF7F9"/>
<stop offset="1" stop-color="#DDB8FF"/>
</linearGradient>
<linearGradient id="paint6_linear_824_87" x1="42.1517" y1="36.8818" x2="42.1517" y2="39.9263" gradientUnits="userSpaceOnUse">
<stop offset="0.128125" stop-color="#FFF7F9"/>
<stop offset="1" stop-color="#DDB8FF"/>
</linearGradient>
<linearGradient id="paint7_linear_824_87" x1="28.9313" y1="36.2618" x2="28.9313" y2="40.3769" gradientUnits="userSpaceOnUse">
<stop offset="0.128125" stop-color="#FFF7F9"/>
<stop offset="1" stop-color="#DDB8FF"/>
</linearGradient>
<linearGradient id="paint8_linear_824_87" x1="32.8704" y1="30.0756" x2="32.8704" y2="34.2825" gradientUnits="userSpaceOnUse">
<stop offset="0.128125" stop-color="#FFF7F9"/>
<stop offset="1" stop-color="#DDB8FF"/>
</linearGradient>
<linearGradient id="paint9_linear_824_87" x1="47.0205" y1="34.6769" x2="47.0205" y2="37.6894" gradientUnits="userSpaceOnUse">
<stop offset="0.128125" stop-color="#FFF7F9"/>
<stop offset="1" stop-color="#DDB8FF"/>
</linearGradient>
</defs>
</svg>
