<svg width="72" height="72" viewBox="0 0 72 72" fill="none" xmlns="http://www.w3.org/2000/svg">
<circle cx="36" cy="36" r="36" fill="url(#paint0_linear_824_45)"/>
<path d="M38 38H37V32.5C37 32.2237 36.7763 32 36.5 32H35.6513C35.355 32 35.0656 32.0875 34.8194 32.2519L33.8612 32.8906C33.8066 32.927 33.7597 32.9738 33.7231 33.0283C33.6866 33.0829 33.6611 33.1441 33.6482 33.2084C33.6354 33.2728 33.6353 33.3391 33.648 33.4035C33.6608 33.4679 33.6861 33.5291 33.7225 33.5837L34.2775 34.4156C34.3139 34.4703 34.3607 34.5172 34.4152 34.5538C34.4697 34.5903 34.5309 34.6158 34.5953 34.6286C34.6597 34.6415 34.726 34.6416 34.7904 34.6289C34.8548 34.6161 34.916 34.5908 34.9706 34.5544L35 34.535V38H34C33.7237 38 33.5 38.2237 33.5 38.5V39.5C33.5 39.7763 33.7237 40 34 40H38C38.2763 40 38.5 39.7763 38.5 39.5V38.5C38.5 38.2237 38.2763 38 38 38ZM54 24H18C16.8956 24 16 24.8956 16 26V46C16 47.1044 16.8956 48 18 48H54C55.1044 48 56 47.1044 56 46V26C56 24.8956 55.1044 24 54 24ZM19 45V41C21.2094 41 23 42.7906 23 45H19ZM19 31V27H23C23 29.2094 21.2094 31 19 31ZM36 43C32.6862 43 30 39.8656 30 36C30 32.1337 32.6862 29 36 29C39.3138 29 42 32.1337 42 36C42 39.8669 39.3125 43 36 43ZM53 45H49C49 42.7906 50.7906 41 53 41V45ZM53 31C50.7906 31 49 29.2094 49 27H53V31Z" fill="black"/>
<path d="M38 38H37V32.5C37 32.2237 36.7763 32 36.5 32H35.6513C35.355 32 35.0656 32.0875 34.8194 32.2519L33.8612 32.8906C33.8066 32.927 33.7597 32.9738 33.7231 33.0283C33.6866 33.0829 33.6611 33.1441 33.6482 33.2084C33.6354 33.2728 33.6353 33.3391 33.648 33.4035C33.6608 33.4679 33.6861 33.5291 33.7225 33.5837L34.2775 34.4156C34.3139 34.4703 34.3607 34.5172 34.4152 34.5538C34.4697 34.5903 34.5309 34.6158 34.5953 34.6286C34.6597 34.6415 34.726 34.6416 34.7904 34.6289C34.8548 34.6161 34.916 34.5908 34.9706 34.5544L35 34.535V38H34C33.7237 38 33.5 38.2237 33.5 38.5V39.5C33.5 39.7763 33.7237 40 34 40H38C38.2763 40 38.5 39.7763 38.5 39.5V38.5C38.5 38.2237 38.2763 38 38 38ZM54 24H18C16.8956 24 16 24.8956 16 26V46C16 47.1044 16.8956 48 18 48H54C55.1044 48 56 47.1044 56 46V26C56 24.8956 55.1044 24 54 24ZM19 45V41C21.2094 41 23 42.7906 23 45H19ZM19 31V27H23C23 29.2094 21.2094 31 19 31ZM36 43C32.6862 43 30 39.8656 30 36C30 32.1337 32.6862 29 36 29C39.3138 29 42 32.1337 42 36C42 39.8669 39.3125 43 36 43ZM53 45H49C49 42.7906 50.7906 41 53 41V45ZM53 31C50.7906 31 49 29.2094 49 27H53V31Z" fill="url(#paint1_linear_824_45)"/>
<defs>
<linearGradient id="paint0_linear_824_45" x1="36" y1="0" x2="36" y2="72" gradientUnits="userSpaceOnUse">
<stop stop-color="#8808FC"/>
<stop offset="1" stop-color="#9525FA" stop-opacity="0.67"/>
</linearGradient>
<linearGradient id="paint1_linear_824_45" x1="36" y1="24" x2="36" y2="48" gradientUnits="userSpaceOnUse">
<stop offset="0.128125" stop-color="#FFF7F9"/>
<stop offset="1" stop-color="#DDB8FF"/>
</linearGradient>
</defs>
</svg>
