<svg width="72" height="72" viewBox="0 0 72 72" fill="none" xmlns="http://www.w3.org/2000/svg">
<circle cx="36" cy="36" r="36" fill="url(#paint0_linear_824_121)"/>
<path d="M49.3333 20.6666V40.6666H52.6666V17.3333H29.3333V20.6666H49.3333Z" fill="black"/>
<path d="M49.3333 20.6666V40.6666H52.6666V17.3333H29.3333V20.6666H49.3333Z" fill="url(#paint1_linear_824_121)"/>
<path fill-rule="evenodd" clip-rule="evenodd" d="M19.3333 27.3333V50.6666H42.6666V27.3333H19.3333ZM39.3333 30.6666H22.6666V47.3333H39.3333V30.6666Z" fill="black"/>
<path fill-rule="evenodd" clip-rule="evenodd" d="M19.3333 27.3333V50.6666H42.6666V27.3333H19.3333ZM39.3333 30.6666H22.6666V47.3333H39.3333V30.6666Z" fill="url(#paint2_linear_824_121)"/>
<path d="M44.3333 25.6666H24.3333V22.3333H47.6666V45.6666H44.3333V25.6666Z" fill="black"/>
<path d="M44.3333 25.6666H24.3333V22.3333H47.6666V45.6666H44.3333V25.6666Z" fill="url(#paint3_linear_824_121)"/>
<defs>
<linearGradient id="paint0_linear_824_121" x1="36" y1="0" x2="36" y2="72" gradientUnits="userSpaceOnUse">
<stop stop-color="#8808FC"/>
<stop offset="1" stop-color="#9525FA" stop-opacity="0.67"/>
</linearGradient>
<linearGradient id="paint1_linear_824_121" x1="40.9999" y1="17.3333" x2="40.9999" y2="40.6666" gradientUnits="userSpaceOnUse">
<stop offset="0.128125" stop-color="#FFF7F9"/>
<stop offset="1" stop-color="#DDB8FF"/>
</linearGradient>
<linearGradient id="paint2_linear_824_121" x1="30.9999" y1="27.3333" x2="30.9999" y2="50.6666" gradientUnits="userSpaceOnUse">
<stop offset="0.128125" stop-color="#FFF7F9"/>
<stop offset="1" stop-color="#DDB8FF"/>
</linearGradient>
<linearGradient id="paint3_linear_824_121" x1="35.9999" y1="22.3333" x2="35.9999" y2="45.6666" gradientUnits="userSpaceOnUse">
<stop offset="0.128125" stop-color="#FFF7F9"/>
<stop offset="1" stop-color="#DDB8FF"/>
</linearGradient>
</defs>
</svg>
