<svg width="72" height="72" viewBox="0 0 72 72" fill="none" xmlns="http://www.w3.org/2000/svg">
<circle cx="36" cy="36" r="36" fill="url(#paint0_linear_824_125)"/>
<path d="M42.6853 44.982L41.7786 37.723C41.6501 36.6948 41.1504 35.749 40.3735 35.0634C39.5966 34.3778 38.596 33.9996 37.5598 34H34.4375C33.4018 34.0003 32.4018 34.3788 31.6255 35.0643C30.8492 35.7499 30.3499 36.6953 30.2215 37.723L29.3134 44.982C29.2635 45.3808 29.2991 45.7857 29.4177 46.1697C29.5364 46.5537 29.7354 46.908 30.0015 47.2092C30.2676 47.5104 30.5947 47.7516 30.9611 47.9167C31.3276 48.0817 31.725 48.167 32.1269 48.1667H39.8732C40.275 48.1668 40.6722 48.0814 41.0385 47.9162C41.4048 47.7511 41.7317 47.5099 41.9977 47.2087C42.2636 46.9075 42.4625 46.5532 42.581 46.1693C42.6996 45.7854 42.7351 45.3807 42.6853 44.982V44.982Z" stroke="black" stroke-width="3" stroke-linecap="round" stroke-linejoin="round"/>
<path d="M42.6853 44.982L41.7786 37.723C41.6501 36.6948 41.1504 35.749 40.3735 35.0634C39.5966 34.3778 38.596 33.9996 37.5598 34H34.4375C33.4018 34.0003 32.4018 34.3788 31.6255 35.0643C30.8492 35.7499 30.3499 36.6953 30.2215 37.723L29.3134 44.982C29.2635 45.3808 29.2991 45.7857 29.4177 46.1697C29.5364 46.5537 29.7354 46.908 30.0015 47.2092C30.2676 47.5104 30.5947 47.7516 30.9611 47.9167C31.3276 48.0817 31.725 48.167 32.1269 48.1667H39.8732C40.275 48.1668 40.6722 48.0814 41.0385 47.9162C41.4048 47.7511 41.7317 47.5099 41.9977 47.2087C42.2636 46.9075 42.4625 46.5532 42.581 46.1693C42.6996 45.7854 42.7351 45.3807 42.6853 44.982V44.982Z" stroke="url(#paint1_linear_824_125)" stroke-width="3" stroke-linecap="round" stroke-linejoin="round"/>
<path d="M36 28.3333C38.3472 28.3333 40.25 26.4305 40.25 24.0833C40.25 21.7361 38.3472 19.8333 36 19.8333C33.6528 19.8333 31.75 21.7361 31.75 24.0833C31.75 26.4305 33.6528 28.3333 36 28.3333Z" stroke="black" stroke-width="3"/>
<path d="M36 28.3333C38.3472 28.3333 40.25 26.4305 40.25 24.0833C40.25 21.7361 38.3472 19.8333 36 19.8333C33.6528 19.8333 31.75 21.7361 31.75 24.0833C31.75 26.4305 33.6528 28.3333 36 28.3333Z" stroke="url(#paint2_linear_824_125)" stroke-width="3"/>
<path d="M24.6666 32.5833C26.2314 32.5833 27.4999 31.3148 27.4999 29.75C27.4999 28.1852 26.2314 26.9166 24.6666 26.9166C23.1018 26.9166 21.8333 28.1852 21.8333 29.75C21.8333 31.3148 23.1018 32.5833 24.6666 32.5833Z" stroke="black" stroke-width="3"/>
<path d="M24.6666 32.5833C26.2314 32.5833 27.4999 31.3148 27.4999 29.75C27.4999 28.1852 26.2314 26.9166 24.6666 26.9166C23.1018 26.9166 21.8333 28.1852 21.8333 29.75C21.8333 31.3148 23.1018 32.5833 24.6666 32.5833Z" stroke="url(#paint3_linear_824_125)" stroke-width="3"/>
<path d="M47.3333 32.5833C48.8981 32.5833 50.1667 31.3148 50.1667 29.75C50.1667 28.1852 48.8981 26.9166 47.3333 26.9166C45.7685 26.9166 44.5 28.1852 44.5 29.75C44.5 31.3148 45.7685 32.5833 47.3333 32.5833Z" stroke="black" stroke-width="3"/>
<path d="M47.3333 32.5833C48.8981 32.5833 50.1667 31.3148 50.1667 29.75C50.1667 28.1852 48.8981 26.9166 47.3333 26.9166C45.7685 26.9166 44.5 28.1852 44.5 29.75C44.5 31.3148 45.7685 32.5833 47.3333 32.5833Z" stroke="url(#paint4_linear_824_125)" stroke-width="3"/>
<path d="M24.6667 36.8333H24.2332C23.5625 36.8332 22.9135 37.0711 22.4017 37.5045C21.8899 37.938 21.5484 38.539 21.4381 39.2006L20.9663 42.0339C20.8986 42.4398 20.9202 42.8557 21.0295 43.2524C21.1388 43.6492 21.3332 44.0174 21.5992 44.3314C21.8652 44.6454 22.1964 44.8977 22.5698 45.0707C22.9433 45.2438 23.3499 45.3334 23.7614 45.3333H28.9167" stroke="black" stroke-width="3" stroke-linecap="round" stroke-linejoin="round"/>
<path d="M24.6667 36.8333H24.2332C23.5625 36.8332 22.9135 37.0711 22.4017 37.5045C21.8899 37.938 21.5484 38.539 21.4381 39.2006L20.9663 42.0339C20.8986 42.4398 20.9202 42.8557 21.0295 43.2524C21.1388 43.6492 21.3332 44.0174 21.5992 44.3314C21.8652 44.6454 22.1964 44.8977 22.5698 45.0707C22.9433 45.2438 23.3499 45.3334 23.7614 45.3333H28.9167" stroke="url(#paint5_linear_824_125)" stroke-width="3" stroke-linecap="round" stroke-linejoin="round"/>
<path d="M47.3333 36.8333H47.7668C48.4375 36.8332 49.0864 37.0711 49.5983 37.5045C50.1101 37.938 50.4515 38.539 50.5618 39.2006L51.0336 42.0339C51.1013 42.4398 51.0797 42.8557 50.9704 43.2524C50.8612 43.6492 50.6667 44.0174 50.4007 44.3314C50.1347 44.6454 49.8035 44.8977 49.4301 45.0707C49.0567 45.2438 48.65 45.3334 48.2385 45.3333H43.0833" stroke="black" stroke-width="3" stroke-linecap="round" stroke-linejoin="round"/>
<path d="M47.3333 36.8333H47.7668C48.4375 36.8332 49.0864 37.0711 49.5983 37.5045C50.1101 37.938 50.4515 38.539 50.5618 39.2006L51.0336 42.0339C51.1013 42.4398 51.0797 42.8557 50.9704 43.2524C50.8612 43.6492 50.6667 44.0174 50.4007 44.3314C50.1347 44.6454 49.8035 44.8977 49.4301 45.0707C49.0567 45.2438 48.65 45.3334 48.2385 45.3333H43.0833" stroke="url(#paint6_linear_824_125)" stroke-width="3" stroke-linecap="round" stroke-linejoin="round"/>
<defs>
<linearGradient id="paint0_linear_824_125" x1="36" y1="0" x2="36" y2="72" gradientUnits="userSpaceOnUse">
<stop stop-color="#8808FC"/>
<stop offset="1" stop-color="#9525FA" stop-opacity="0.67"/>
</linearGradient>
<linearGradient id="paint1_linear_824_125" x1="35.9993" y1="34" x2="35.9993" y2="48.1667" gradientUnits="userSpaceOnUse">
<stop offset="0.128125" stop-color="#FFF7F9"/>
<stop offset="1" stop-color="#DDB8FF"/>
</linearGradient>
<linearGradient id="paint2_linear_824_125" x1="36" y1="19.8333" x2="36" y2="28.3333" gradientUnits="userSpaceOnUse">
<stop offset="0.128125" stop-color="#FFF7F9"/>
<stop offset="1" stop-color="#DDB8FF"/>
</linearGradient>
<linearGradient id="paint3_linear_824_125" x1="24.6666" y1="26.9166" x2="24.6666" y2="32.5833" gradientUnits="userSpaceOnUse">
<stop offset="0.128125" stop-color="#FFF7F9"/>
<stop offset="1" stop-color="#DDB8FF"/>
</linearGradient>
<linearGradient id="paint4_linear_824_125" x1="47.3333" y1="26.9166" x2="47.3333" y2="32.5833" gradientUnits="userSpaceOnUse">
<stop offset="0.128125" stop-color="#FFF7F9"/>
<stop offset="1" stop-color="#DDB8FF"/>
</linearGradient>
<linearGradient id="paint5_linear_824_125" x1="24.9222" y1="36.8333" x2="24.9222" y2="45.3333" gradientUnits="userSpaceOnUse">
<stop offset="0.128125" stop-color="#FFF7F9"/>
<stop offset="1" stop-color="#DDB8FF"/>
</linearGradient>
<linearGradient id="paint6_linear_824_125" x1="47.0777" y1="36.8333" x2="47.0777" y2="45.3333" gradientUnits="userSpaceOnUse">
<stop offset="0.128125" stop-color="#FFF7F9"/>
<stop offset="1" stop-color="#DDB8FF"/>
</linearGradient>
</defs>
</svg>
