<svg width="72" height="72" viewBox="0 0 72 72" fill="none" xmlns="http://www.w3.org/2000/svg">
<circle cx="36" cy="36" r="36" fill="url(#paint0_linear_824_80)"/>
<path d="M52.625 50.625H43.125V19.75H52.625V50.625ZM45.5 48.25H50.25V22.125H45.5V48.25Z" fill="black"/>
<path d="M52.625 50.625H43.125V19.75H52.625V50.625ZM45.5 48.25H50.25V22.125H45.5V48.25Z" fill="url(#paint1_linear_824_80)"/>
<path d="M40.75 50.625H31.25V29.25H40.75V50.625ZM33.625 48.25H38.375V31.625H33.625V48.25Z" fill="black"/>
<path d="M40.75 50.625H31.25V29.25H40.75V50.625ZM33.625 48.25H38.375V31.625H33.625V48.25Z" fill="url(#paint2_linear_824_80)"/>
<path d="M28.875 50.625H19.375V36.375H28.875V50.625Z" fill="black"/>
<path d="M28.875 50.625H19.375V36.375H28.875V50.625Z" fill="url(#paint3_linear_824_80)"/>
<defs>
<linearGradient id="paint0_linear_824_80" x1="36" y1="0" x2="36" y2="72" gradientUnits="userSpaceOnUse">
<stop stop-color="#8808FC"/>
<stop offset="1" stop-color="#9525FA" stop-opacity="0.67"/>
</linearGradient>
<linearGradient id="paint1_linear_824_80" x1="47.875" y1="19.75" x2="47.875" y2="50.625" gradientUnits="userSpaceOnUse">
<stop offset="0.128125" stop-color="#FFF7F9"/>
<stop offset="1" stop-color="#DDB8FF"/>
</linearGradient>
<linearGradient id="paint2_linear_824_80" x1="36" y1="29.25" x2="36" y2="50.625" gradientUnits="userSpaceOnUse">
<stop offset="0.128125" stop-color="#FFF7F9"/>
<stop offset="1" stop-color="#DDB8FF"/>
</linearGradient>
<linearGradient id="paint3_linear_824_80" x1="24.125" y1="36.375" x2="24.125" y2="50.625" gradientUnits="userSpaceOnUse">
<stop offset="0.128125" stop-color="#FFF7F9"/>
<stop offset="1" stop-color="#DDB8FF"/>
</linearGradient>
</defs>
</svg>
