<svg width="72" height="72" viewBox="0 0 72 72" fill="none" xmlns="http://www.w3.org/2000/svg">
<circle cx="36" cy="36" r="36" fill="url(#paint0_linear_824_117)"/>
<path d="M38.7476 17H27.5C26.3728 17 25.2918 17.4478 24.4948 18.2448C23.6978 19.0418 23.25 20.1228 23.25 21.25V46.75C23.25 47.8772 23.6978 48.9582 24.4948 49.7552C25.2918 50.5522 26.3728 51 27.5 51H44.5C45.6272 51 46.7082 50.5522 47.5052 49.7552C48.3022 48.9582 48.75 47.8772 48.75 46.75V27.0024C48.7499 26.4388 48.5259 25.8984 48.1274 25.5L40.25 17.6226C39.8516 17.2241 39.3112 17.0001 38.7476 17V17ZM39.1875 24.4375V20.1875L45.5625 26.5625H41.3125C40.7489 26.5625 40.2084 26.3386 39.8099 25.9401C39.4114 25.5416 39.1875 25.0011 39.1875 24.4375ZM33.1227 33.2477C33.2215 33.149 33.3388 33.0706 33.4679 33.0171C33.597 32.9637 33.7353 32.9362 33.875 32.9362C34.0147 32.9362 34.153 32.9637 34.2821 33.0171C34.4112 33.0706 34.5285 33.149 34.6273 33.2477C34.726 33.3465 34.8044 33.4638 34.8579 33.5929C34.9113 33.722 34.9388 33.8603 34.9388 34C34.9388 34.1397 34.9113 34.278 34.8579 34.4071C34.8044 34.5362 34.726 34.6535 34.6273 34.7523L31.1274 38.25L34.6273 41.7477C34.8268 41.9473 34.9388 42.2179 34.9388 42.5C34.9388 42.7821 34.8268 43.0527 34.6273 43.2523C34.4277 43.4518 34.1571 43.5638 33.875 43.5638C33.5929 43.5638 33.3223 43.4518 33.1227 43.2523L28.8727 39.0023C28.7738 38.9036 28.6953 38.7863 28.6417 38.6572C28.5882 38.5281 28.5606 38.3898 28.5606 38.25C28.5606 38.1102 28.5882 37.9719 28.6417 37.8428C28.6953 37.7137 28.7738 37.5964 28.8727 37.4977L33.1227 33.2477V33.2477ZM38.8773 33.2477L43.1273 37.4977C43.2262 37.5964 43.3047 37.7137 43.3583 37.8428C43.4118 37.9719 43.4394 38.1102 43.4394 38.25C43.4394 38.3898 43.4118 38.5281 43.3583 38.6572C43.3047 38.7863 43.2262 38.9036 43.1273 39.0023L38.8773 43.2523C38.6777 43.4518 38.4071 43.5638 38.125 43.5638C37.8429 43.5638 37.5723 43.4518 37.3727 43.2523C37.1732 43.0527 37.0612 42.7821 37.0612 42.5C37.0612 42.2179 37.1732 41.9473 37.3727 41.7477L40.8726 38.25L37.3727 34.7523C37.274 34.6535 37.1956 34.5362 37.1421 34.4071C37.0887 34.278 37.0612 34.1397 37.0612 34C37.0612 33.8603 37.0887 33.722 37.1421 33.5929C37.1956 33.4638 37.274 33.3465 37.3727 33.2477C37.4715 33.149 37.5888 33.0706 37.7179 33.0171C37.847 32.9637 37.9853 32.9362 38.125 32.9362C38.2647 32.9362 38.403 32.9637 38.5321 33.0171C38.6612 33.0706 38.7785 33.149 38.8773 33.2477V33.2477Z" fill="black"/>
<path d="M38.7476 17H27.5C26.3728 17 25.2918 17.4478 24.4948 18.2448C23.6978 19.0418 23.25 20.1228 23.25 21.25V46.75C23.25 47.8772 23.6978 48.9582 24.4948 49.7552C25.2918 50.5522 26.3728 51 27.5 51H44.5C45.6272 51 46.7082 50.5522 47.5052 49.7552C48.3022 48.9582 48.75 47.8772 48.75 46.75V27.0024C48.7499 26.4388 48.5259 25.8984 48.1274 25.5L40.25 17.6226C39.8516 17.2241 39.3112 17.0001 38.7476 17V17ZM39.1875 24.4375V20.1875L45.5625 26.5625H41.3125C40.7489 26.5625 40.2084 26.3386 39.8099 25.9401C39.4114 25.5416 39.1875 25.0011 39.1875 24.4375ZM33.1227 33.2477C33.2215 33.149 33.3388 33.0706 33.4679 33.0171C33.597 32.9637 33.7353 32.9362 33.875 32.9362C34.0147 32.9362 34.153 32.9637 34.2821 33.0171C34.4112 33.0706 34.5285 33.149 34.6273 33.2477C34.726 33.3465 34.8044 33.4638 34.8579 33.5929C34.9113 33.722 34.9388 33.8603 34.9388 34C34.9388 34.1397 34.9113 34.278 34.8579 34.4071C34.8044 34.5362 34.726 34.6535 34.6273 34.7523L31.1274 38.25L34.6273 41.7477C34.8268 41.9473 34.9388 42.2179 34.9388 42.5C34.9388 42.7821 34.8268 43.0527 34.6273 43.2523C34.4277 43.4518 34.1571 43.5638 33.875 43.5638C33.5929 43.5638 33.3223 43.4518 33.1227 43.2523L28.8727 39.0023C28.7738 38.9036 28.6953 38.7863 28.6417 38.6572C28.5882 38.5281 28.5606 38.3898 28.5606 38.25C28.5606 38.1102 28.5882 37.9719 28.6417 37.8428C28.6953 37.7137 28.7738 37.5964 28.8727 37.4977L33.1227 33.2477V33.2477ZM38.8773 33.2477L43.1273 37.4977C43.2262 37.5964 43.3047 37.7137 43.3583 37.8428C43.4118 37.9719 43.4394 38.1102 43.4394 38.25C43.4394 38.3898 43.4118 38.5281 43.3583 38.6572C43.3047 38.7863 43.2262 38.9036 43.1273 39.0023L38.8773 43.2523C38.6777 43.4518 38.4071 43.5638 38.125 43.5638C37.8429 43.5638 37.5723 43.4518 37.3727 43.2523C37.1732 43.0527 37.0612 42.7821 37.0612 42.5C37.0612 42.2179 37.1732 41.9473 37.3727 41.7477L40.8726 38.25L37.3727 34.7523C37.274 34.6535 37.1956 34.5362 37.1421 34.4071C37.0887 34.278 37.0612 34.1397 37.0612 34C37.0612 33.8603 37.0887 33.722 37.1421 33.5929C37.1956 33.4638 37.274 33.3465 37.3727 33.2477C37.4715 33.149 37.5888 33.0706 37.7179 33.0171C37.847 32.9637 37.9853 32.9362 38.125 32.9362C38.2647 32.9362 38.403 32.9637 38.5321 33.0171C38.6612 33.0706 38.7785 33.149 38.8773 33.2477V33.2477Z" fill="url(#paint1_linear_824_117)"/>
<defs>
<linearGradient id="paint0_linear_824_117" x1="36" y1="0" x2="36" y2="72" gradientUnits="userSpaceOnUse">
<stop stop-color="#8808FC"/>
<stop offset="1" stop-color="#9525FA" stop-opacity="0.67"/>
</linearGradient>
<linearGradient id="paint1_linear_824_117" x1="36" y1="17" x2="36" y2="51" gradientUnits="userSpaceOnUse">
<stop offset="0.128125" stop-color="#FFF7F9"/>
<stop offset="1" stop-color="#DDB8FF"/>
</linearGradient>
</defs>
</svg>
