<svg width="72" height="72" viewBox="0 0 72 72" fill="none" xmlns="http://www.w3.org/2000/svg">
<circle cx="36" cy="36" r="36" fill="url(#paint0_linear_731_798)"/>
<path d="M52.843 33.248C52.9991 32.8804 53.04 32.4759 52.9603 32.0857C52.8806 31.6954 52.6841 31.337 52.3955 31.0558L42.0831 21L39.1668 23.8438L45.9585 30.4665H20.0002V34.4888H50.9373C51.3452 34.4889 51.7439 34.3711 52.0831 34.1502C52.4224 33.9294 52.6868 33.6154 52.843 33.248V33.248ZM20.157 39.752C20.0008 40.1196 19.96 40.5241 20.0397 40.9143C20.1194 41.3046 20.3159 41.663 20.6045 41.9442L30.9169 52L33.8332 49.1562L27.0415 42.5335H52.9998V38.5112H22.0627C21.6548 38.5108 21.2559 38.6285 20.9166 38.8494C20.5774 39.0703 20.313 39.3845 20.157 39.752V39.752Z" fill="black"/>
<path d="M52.843 33.248C52.9991 32.8804 53.04 32.4759 52.9603 32.0857C52.8806 31.6954 52.6841 31.337 52.3955 31.0558L42.0831 21L39.1668 23.8438L45.9585 30.4665H20.0002V34.4888H50.9373C51.3452 34.4889 51.7439 34.3711 52.0831 34.1502C52.4224 33.9294 52.6868 33.6154 52.843 33.248V33.248ZM20.157 39.752C20.0008 40.1196 19.96 40.5241 20.0397 40.9143C20.1194 41.3046 20.3159 41.663 20.6045 41.9442L30.9169 52L33.8332 49.1562L27.0415 42.5335H52.9998V38.5112H22.0627C21.6548 38.5108 21.2559 38.6285 20.9166 38.8494C20.5774 39.0703 20.313 39.3845 20.157 39.752V39.752Z" fill="url(#paint1_linear_731_798)"/>
<defs>
<linearGradient id="paint0_linear_731_798" x1="36" y1="0" x2="36" y2="72" gradientUnits="userSpaceOnUse">
<stop stop-color="#8808FC"/>
<stop offset="1" stop-color="#9525FA" stop-opacity="0.67"/>
</linearGradient>
<linearGradient id="paint1_linear_731_798" x1="36.5" y1="21" x2="36.5" y2="52" gradientUnits="userSpaceOnUse">
<stop offset="0.128125" stop-color="#FFF7F9"/>
<stop offset="1" stop-color="#DDB8FF"/>
</linearGradient>
</defs>
</svg>
