<svg width="72" height="72" viewBox="0 0 72 72" fill="none" xmlns="http://www.w3.org/2000/svg">
<circle cx="36" cy="36" r="36" fill="url(#paint0_linear_824_103)"/>
<path d="M19.3334 45.6667V27.3333H17.6667V24H22.6667V20.6667C22.6667 20.2246 22.8423 19.8007 23.1549 19.4882C23.4675 19.1756 23.8914 19 24.3334 19H47.6667C48.1088 19 48.5327 19.1756 48.8453 19.4882C49.1578 19.8007 49.3334 20.2246 49.3334 20.6667V24H54.3334V27.3333H52.6667V45.6667H54.3334V49H17.6667V45.6667H19.3334ZM37.6667 45.6667V34H34.3334V45.6667H37.6667ZM29.3334 45.6667V34H26.0001V45.6667H29.3334ZM46.0001 45.6667V34H42.6667V45.6667H46.0001ZM26.0001 22.3333V24H46.0001V22.3333H26.0001Z" fill="black"/>
<path d="M19.3334 45.6667V27.3333H17.6667V24H22.6667V20.6667C22.6667 20.2246 22.8423 19.8007 23.1549 19.4882C23.4675 19.1756 23.8914 19 24.3334 19H47.6667C48.1088 19 48.5327 19.1756 48.8453 19.4882C49.1578 19.8007 49.3334 20.2246 49.3334 20.6667V24H54.3334V27.3333H52.6667V45.6667H54.3334V49H17.6667V45.6667H19.3334ZM37.6667 45.6667V34H34.3334V45.6667H37.6667ZM29.3334 45.6667V34H26.0001V45.6667H29.3334ZM46.0001 45.6667V34H42.6667V45.6667H46.0001ZM26.0001 22.3333V24H46.0001V22.3333H26.0001Z" fill="url(#paint1_linear_824_103)"/>
<defs>
<linearGradient id="paint0_linear_824_103" x1="36" y1="0" x2="36" y2="72" gradientUnits="userSpaceOnUse">
<stop stop-color="#8808FC"/>
<stop offset="1" stop-color="#9525FA" stop-opacity="0.67"/>
</linearGradient>
<linearGradient id="paint1_linear_824_103" x1="36.0001" y1="19" x2="36.0001" y2="49" gradientUnits="userSpaceOnUse">
<stop offset="0.128125" stop-color="#FFF7F9"/>
<stop offset="1" stop-color="#DDB8FF"/>
</linearGradient>
</defs>
</svg>
