<svg width="72" height="72" viewBox="0 0 72 72" fill="none" xmlns="http://www.w3.org/2000/svg">
<circle cx="36" cy="36" r="36" fill="url(#paint0_linear_824_11)"/>
<path d="M51.9903 46.5099C51.5554 39.164 41.8738 35.825 40.9472 35.482C40.9094 35.464 40.9094 35.4279 40.9283 35.3918L50.9125 25.8259V24.7971C50.9125 24.6347 50.7612 24.4903 50.5911 24.4903H32.1922V17L25.4037 18.3537V19.3283H25.7819C25.7819 19.3283 27.4459 19.3283 27.4459 20.9166V24.4722H22.1891C22.0945 24.4722 22 24.5625 22 24.6527V26.9088H27.4648V39.164C27.4648 43.0084 30.0554 45.6796 34.5937 45.3187C35.5581 45.2465 36.4468 44.8855 37.2032 44.4162C37.5435 44.1996 37.7516 43.8567 37.7516 43.4596V42.2504C36.2766 43.1889 35.0286 43.1347 35.0286 43.1347C32.1544 43.1347 32.2111 39.6513 32.2111 39.6513V26.9088H45.4477L35.9173 36.0776C35.8984 37.2869 35.8795 38.2255 35.8795 38.2435C35.8795 38.2796 35.8984 38.2977 35.9362 38.2977C44.6724 39.7055 47.0361 45.1021 47.0361 46.6723C47.0361 46.6723 47.9816 54.307 39.9829 54.8304C39.9829 54.8304 34.745 55.047 33.8184 53.0436C33.7806 52.9714 33.8184 52.8992 33.894 52.8631C34.7639 52.4841 35.3501 51.744 35.3501 50.7514C35.3501 49.2714 34.4046 48.0621 32.4191 48.0621C30.8118 48.0621 29.4881 49.2714 29.4881 50.7514C29.4881 50.7514 28.7318 57.1768 39.964 56.9963C52.7845 56.7797 51.9903 46.5099 51.9903 46.5099Z" fill="url(#paint1_linear_824_11)"/>
<defs>
<linearGradient id="paint0_linear_824_11" x1="36" y1="0" x2="36" y2="72" gradientUnits="userSpaceOnUse">
<stop stop-color="#8808FC"/>
<stop offset="1" stop-color="#9525FA" stop-opacity="0.67"/>
</linearGradient>
<linearGradient id="paint1_linear_824_11" x1="18.9034" y1="13.3831" x2="69.4905" y2="58.8095" gradientUnits="userSpaceOnUse">
<stop stop-color="white"/>
<stop offset="1" stop-color="#D19FFF"/>
</linearGradient>
</defs>
</svg>
