<svg width="72" height="72" viewBox="0 0 72 72" fill="none" xmlns="http://www.w3.org/2000/svg">
<circle cx="36" cy="36" r="36" fill="url(#paint0_linear_731_801)"/>
<path d="M36.18 43.245C36.18 43.443 36.333 43.605 36.5175 43.605H44.8425C45.027 43.605 45.18 43.443 45.18 43.245V41.085C45.18 40.887 45.027 40.725 44.8425 40.725H36.5175C36.333 40.725 36.18 40.887 36.18 41.085V43.245ZM27.4095 43.5195L36.0495 36.2745C36.2205 36.1305 36.2205 35.865 36.0495 35.721L27.4095 28.4805C27.3573 28.4361 27.2936 28.4077 27.2257 28.3985C27.1579 28.3893 27.0888 28.3998 27.0267 28.4287C26.9647 28.4576 26.9122 28.5037 26.8755 28.5616C26.8389 28.6194 26.8196 28.6865 26.82 28.755V31.5765C26.82 31.6845 26.865 31.7835 26.9505 31.851L31.8915 36L26.9505 40.149C26.9103 40.1827 26.8778 40.2246 26.8553 40.272C26.8328 40.3194 26.8207 40.3711 26.82 40.4235V43.245C26.82 43.551 27.1755 43.7175 27.4095 43.5195ZM52.56 18H19.44C18.6435 18 18 18.6435 18 19.44V52.56C18 53.3565 18.6435 54 19.44 54H52.56C53.3565 54 54 53.3565 54 52.56V19.44C54 18.6435 53.3565 18 52.56 18ZM50.76 50.76H21.24V21.24H50.76V50.76Z" fill="black"/>
<path d="M36.18 43.245C36.18 43.443 36.333 43.605 36.5175 43.605H44.8425C45.027 43.605 45.18 43.443 45.18 43.245V41.085C45.18 40.887 45.027 40.725 44.8425 40.725H36.5175C36.333 40.725 36.18 40.887 36.18 41.085V43.245ZM27.4095 43.5195L36.0495 36.2745C36.2205 36.1305 36.2205 35.865 36.0495 35.721L27.4095 28.4805C27.3573 28.4361 27.2936 28.4077 27.2257 28.3985C27.1579 28.3893 27.0888 28.3998 27.0267 28.4287C26.9647 28.4576 26.9122 28.5037 26.8755 28.5616C26.8389 28.6194 26.8196 28.6865 26.82 28.755V31.5765C26.82 31.6845 26.865 31.7835 26.9505 31.851L31.8915 36L26.9505 40.149C26.9103 40.1827 26.8778 40.2246 26.8553 40.272C26.8328 40.3194 26.8207 40.3711 26.82 40.4235V43.245C26.82 43.551 27.1755 43.7175 27.4095 43.5195ZM52.56 18H19.44C18.6435 18 18 18.6435 18 19.44V52.56C18 53.3565 18.6435 54 19.44 54H52.56C53.3565 54 54 53.3565 54 52.56V19.44C54 18.6435 53.3565 18 52.56 18ZM50.76 50.76H21.24V21.24H50.76V50.76Z" fill="url(#paint1_linear_731_801)"/>
<defs>
<linearGradient id="paint0_linear_731_801" x1="36" y1="0" x2="36" y2="72" gradientUnits="userSpaceOnUse">
<stop stop-color="#8808FC"/>
<stop offset="1" stop-color="#9525FA" stop-opacity="0.67"/>
</linearGradient>
<linearGradient id="paint1_linear_731_801" x1="36" y1="18" x2="36" y2="54" gradientUnits="userSpaceOnUse">
<stop offset="0.128125" stop-color="#FFF7F9"/>
<stop offset="1" stop-color="#DDB8FF"/>
</linearGradient>
</defs>
</svg>
