<svg width="72" height="72" viewBox="0 0 72 72" fill="none" xmlns="http://www.w3.org/2000/svg">
<circle cx="36" cy="36" r="36" fill="url(#paint0_linear_731_790)"/>
<path d="M47.6316 19.8C44.6718 19.8 42.2632 22.2228 42.2632 25.2C42.2632 26.1036 42.5065 26.9424 42.8966 27.693L40.8996 30.0366C39.7183 29.2295 38.3228 28.7986 36.8947 28.8C35.5723 28.8 34.3447 29.1888 33.28 29.8188L30.7497 27.2736C31.2523 26.3636 31.5194 25.341 31.5263 24.3C31.5263 20.826 28.7168 18 25.2632 18C21.8095 18 19 20.826 19 24.3C19 27.774 21.8095 30.6 25.2632 30.6C26.3386 30.6 27.3354 30.3012 28.2194 29.8188L30.7497 32.364C30.0942 33.4628 29.7444 34.7186 29.7368 36C29.7368 37.7946 30.4168 39.4182 31.4995 40.6818L28.4717 43.7274L28.5164 43.7724C27.7848 43.4007 26.9775 43.2048 26.1579 43.2C23.1981 43.2 20.7895 45.6228 20.7895 48.6C20.7895 51.5772 23.1981 54 26.1579 54C29.1177 54 31.5263 51.5772 31.5263 48.6C31.5263 47.7432 31.3098 46.9458 30.9573 46.2276L31.002 46.2726L34.4986 42.7554C35.252 43.0254 36.0501 43.2 36.8947 43.2C40.8423 43.2 44.0526 39.9708 44.0526 36C44.0449 34.8818 43.7758 33.7812 43.2671 32.787L45.5093 30.1554C46.1606 30.4398 46.8764 30.6 47.6316 30.6C50.5914 30.6 53 28.1772 53 25.2C53 22.2228 50.5914 19.8 47.6316 19.8V19.8ZM26.1579 50.4C25.6833 50.4 25.2281 50.2104 24.8925 49.8728C24.557 49.5352 24.3684 49.0774 24.3684 48.6C24.3684 48.1226 24.557 47.6648 24.8925 47.3272C25.2281 46.9896 25.6833 46.8 26.1579 46.8C26.6325 46.8 27.0877 46.9896 27.4232 47.3272C27.7588 47.6648 27.9474 48.1226 27.9474 48.6C27.9474 49.0774 27.7588 49.5352 27.4232 49.8728C27.0877 50.2104 26.6325 50.4 26.1579 50.4ZM22.5789 24.3C22.5789 22.8114 23.7833 21.6 25.2632 21.6C26.7431 21.6 27.9474 22.8114 27.9474 24.3C27.9474 25.7886 26.7431 27 25.2632 27C23.7833 27 22.5789 25.7886 22.5789 24.3ZM36.8947 39.6C34.9209 39.6 33.3158 37.9854 33.3158 36C33.3158 34.0146 34.9209 32.4 36.8947 32.4C38.8685 32.4 40.4737 34.0146 40.4737 36C40.4737 37.9854 38.8685 39.6 36.8947 39.6ZM47.6316 27C47.157 27 46.7018 26.8104 46.3662 26.4728C46.0306 26.1352 45.8421 25.6774 45.8421 25.2C45.8421 24.7226 46.0306 24.2648 46.3662 23.9272C46.7018 23.5896 47.157 23.4 47.6316 23.4C48.1062 23.4 48.5613 23.5896 48.8969 23.9272C49.2325 24.2648 49.4211 24.7226 49.4211 25.2C49.4211 25.6774 49.2325 26.1352 48.8969 26.4728C48.5613 26.8104 48.1062 27 47.6316 27Z" fill="black"/>
<path d="M47.6316 19.8C44.6718 19.8 42.2632 22.2228 42.2632 25.2C42.2632 26.1036 42.5065 26.9424 42.8966 27.693L40.8996 30.0366C39.7183 29.2295 38.3228 28.7986 36.8947 28.8C35.5723 28.8 34.3447 29.1888 33.28 29.8188L30.7497 27.2736C31.2523 26.3636 31.5194 25.341 31.5263 24.3C31.5263 20.826 28.7168 18 25.2632 18C21.8095 18 19 20.826 19 24.3C19 27.774 21.8095 30.6 25.2632 30.6C26.3386 30.6 27.3354 30.3012 28.2194 29.8188L30.7497 32.364C30.0942 33.4628 29.7444 34.7186 29.7368 36C29.7368 37.7946 30.4168 39.4182 31.4995 40.6818L28.4717 43.7274L28.5164 43.7724C27.7848 43.4007 26.9775 43.2048 26.1579 43.2C23.1981 43.2 20.7895 45.6228 20.7895 48.6C20.7895 51.5772 23.1981 54 26.1579 54C29.1177 54 31.5263 51.5772 31.5263 48.6C31.5263 47.7432 31.3098 46.9458 30.9573 46.2276L31.002 46.2726L34.4986 42.7554C35.252 43.0254 36.0501 43.2 36.8947 43.2C40.8423 43.2 44.0526 39.9708 44.0526 36C44.0449 34.8818 43.7758 33.7812 43.2671 32.787L45.5093 30.1554C46.1606 30.4398 46.8764 30.6 47.6316 30.6C50.5914 30.6 53 28.1772 53 25.2C53 22.2228 50.5914 19.8 47.6316 19.8V19.8ZM26.1579 50.4C25.6833 50.4 25.2281 50.2104 24.8925 49.8728C24.557 49.5352 24.3684 49.0774 24.3684 48.6C24.3684 48.1226 24.557 47.6648 24.8925 47.3272C25.2281 46.9896 25.6833 46.8 26.1579 46.8C26.6325 46.8 27.0877 46.9896 27.4232 47.3272C27.7588 47.6648 27.9474 48.1226 27.9474 48.6C27.9474 49.0774 27.7588 49.5352 27.4232 49.8728C27.0877 50.2104 26.6325 50.4 26.1579 50.4ZM22.5789 24.3C22.5789 22.8114 23.7833 21.6 25.2632 21.6C26.7431 21.6 27.9474 22.8114 27.9474 24.3C27.9474 25.7886 26.7431 27 25.2632 27C23.7833 27 22.5789 25.7886 22.5789 24.3ZM36.8947 39.6C34.9209 39.6 33.3158 37.9854 33.3158 36C33.3158 34.0146 34.9209 32.4 36.8947 32.4C38.8685 32.4 40.4737 34.0146 40.4737 36C40.4737 37.9854 38.8685 39.6 36.8947 39.6ZM47.6316 27C47.157 27 46.7018 26.8104 46.3662 26.4728C46.0306 26.1352 45.8421 25.6774 45.8421 25.2C45.8421 24.7226 46.0306 24.2648 46.3662 23.9272C46.7018 23.5896 47.157 23.4 47.6316 23.4C48.1062 23.4 48.5613 23.5896 48.8969 23.9272C49.2325 24.2648 49.4211 24.7226 49.4211 25.2C49.4211 25.6774 49.2325 26.1352 48.8969 26.4728C48.5613 26.8104 48.1062 27 47.6316 27Z" fill="url(#paint1_linear_731_790)"/>
<defs>
<linearGradient id="paint0_linear_731_790" x1="36" y1="0" x2="36" y2="72" gradientUnits="userSpaceOnUse">
<stop stop-color="#8808FC"/>
<stop offset="1" stop-color="#9525FA" stop-opacity="0.67"/>
</linearGradient>
<linearGradient id="paint1_linear_731_790" x1="36" y1="18" x2="36" y2="54" gradientUnits="userSpaceOnUse">
<stop offset="0.128125" stop-color="#FFF7F9"/>
<stop offset="1" stop-color="#DDB8FF"/>
</linearGradient>
</defs>
</svg>
