<svg xmlns="http://www.w3.org/2000/svg" xmlns:xlink="http://www.w3.org/1999/xlink" viewBox="0 0 11337.95 10024.83"><defs><style>.cls-1{fill:none;}.cls-2{fill:url(#linear-gradient);}.cls-3{clip-path:url(#clip-path);}.cls-4{fill:url(#linear-gradient-2);}.cls-5{fill:url(#linear-gradient-3);}.cls-6{fill:url(#linear-gradient-4);}.cls-7{fill:url(#linear-gradient-5);}.cls-8{fill:url(#linear-gradient-6);}.cls-9{fill:url(#linear-gradient-7);}.cls-10{fill:url(#linear-gradient-8);}.cls-11{fill:url(#linear-gradient-9);}.cls-12{fill:url(#linear-gradient-10);}.cls-13{fill:url(#linear-gradient-11);}.cls-14{fill:url(#linear-gradient-12);}.cls-15{fill:url(#linear-gradient-13);}</style><linearGradient id="linear-gradient" x1="11658.1" y1="2150.63" x2="-2531.05" y2="9012.5" gradientUnits="userSpaceOnUse"><stop offset="0" stop-color="#5100b4"/><stop offset="1" stop-color="#a537fc"/></linearGradient><clipPath id="clip-path" transform="translate(2551.94 2522.09)"><rect class="cls-1" width="7011.04" height="4674.03"/></clipPath><linearGradient id="linear-gradient-2" x1="4907.42" y1="-208.3" x2="8786.02" y2="-208.3" gradientUnits="userSpaceOnUse"><stop offset="0" stop-color="#3a0bc7"/><stop offset="1" stop-color="#f190fc"/></linearGradient><linearGradient id="linear-gradient-3" x1="4562.5" y1="-636.01" x2="8005.06" y2="-636.01" gradientUnits="userSpaceOnUse"><stop offset="0" stop-color="#4b4bfa"/><stop offset="1" stop-color="#f190fc"/></linearGradient><linearGradient id="linear-gradient-4" x1="9132.52" y1="3885.03" x2="9431.91" y2="3885.03" gradientUnits="userSpaceOnUse"><stop offset="0" stop-color="#764bfa"/><stop offset="1" stop-color="#f190fc"/></linearGradient><linearGradient id="linear-gradient-5" x1="4608.03" y1="599.95" x2="4907.42" y2="599.95" gradientTransform="translate(1817.74 -3188.5) rotate(45)" xlink:href="#linear-gradient-3"/><linearGradient id="linear-gradient-6" x1="-2163.95" y1="2925.56" x2="1278.6" y2="2925.56" gradientUnits="userSpaceOnUse"><stop offset="0" stop-color="#f1d8fc"/><stop offset="1" stop-color="#5530c7"/></linearGradient><linearGradient id="linear-gradient-7" x1="1054.61" y1="5742.41" x2="4093.93" y2="5742.41" gradientUnits="userSpaceOnUse"><stop offset="0" stop-color="#442aff"/><stop offset="1" stop-color="#b690fc"/></linearGradient><linearGradient id="linear-gradient-8" x1="-306.51" y1="5326.91" x2="2783.11" y2="5326.91" gradientUnits="userSpaceOnUse"><stop offset="0" stop-color="#f190fc"/><stop offset="1" stop-color="#764bfa"/></linearGradient><linearGradient id="linear-gradient-9" x1="-2350.94" y1="4912.33" x2="1499.39" y2="4912.33" gradientUnits="userSpaceOnUse"><stop offset="0" stop-color="#f190fc"/><stop offset="1" stop-color="#4441fa"/></linearGradient><linearGradient id="linear-gradient-10" x1="3307.15" y1="6084.05" x2="3606.54" y2="6084.05" xlink:href="#linear-gradient-4"/><linearGradient id="linear-gradient-11" x1="2731.54" y1="4280.82" x2="3030.94" y2="4280.82" xlink:href="#linear-gradient-3"/><linearGradient id="linear-gradient-12" x1="3283.7" y1="5649.93" x2="7162.3" y2="5649.93" gradientTransform="matrix(0, 1, 1, 0, -310.9, 310.9)" gradientUnits="userSpaceOnUse"><stop offset="0" stop-color="#3a52c7"/><stop offset="1" stop-color="#f190fc"/></linearGradient><linearGradient id="linear-gradient-13" x1="8216.05" y1="6702.36" x2="8515.44" y2="6702.36" xlink:href="#linear-gradient-4"/></defs><g id="Layer_2" data-name="Layer 2"><g id="Graphic_Elements" data-name="Graphic Elements"><rect class="cls-2" x="2551.94" y="2522.09" width="7011.04" height="4674.03"/><g class="cls-3"><path class="cls-4" d="M8742.7-802.19l-2.54-2.53a147.93,147.93,0,0,0-209.18,0l-24.83,24.83a147.92,147.92,0,0,1-209.17,0l-2.54-2.53a147.92,147.92,0,0,0-209.18,0L7861.32-558.46a149.69,149.69,0,0,1-211.7,0h0a149.69,149.69,0,0,1,0-211.7l331-331a147.89,147.89,0,0,0,0-209.16l-2.54-2.54a147.92,147.92,0,0,0-209.17,0L7040.53-584.47a149.69,149.69,0,0,1-211.7,0h0a149.71,149.71,0,0,1,0-211.71l728.34-728.34a147.91,147.91,0,0,0,0-209.17l-2.53-2.53a147.92,147.92,0,0,0-209.18,0L5678.34-69.1a149.71,149.71,0,0,0,0,211.7h0a149.71,149.71,0,0,1,0,211.71l-727.08,727.07a149.71,149.71,0,0,0,0,211.71h0a149.69,149.69,0,0,0,211.7,0L5890.05,566a149.69,149.69,0,0,1,211.7,0h0a149.69,149.69,0,0,1,0,211.7L5772.06,1107.4a149.69,149.69,0,0,0,0,211.7h0a149.71,149.71,0,0,0,211.71,0l222.68-222.68a149.69,149.69,0,0,1,211.7,0h0a149.69,149.69,0,0,0,211.7,0l22.32-22.31a149.69,149.69,0,0,1,211.7,0h0a149.69,149.69,0,0,0,211.7,0L8742.7-593A147.91,147.91,0,0,0,8742.7-802.19Z" transform="translate(2551.94 2522.09)"/><path class="cls-5" d="M6283.78-148.73h0a146.39,146.39,0,0,1,0,207L5847.44,494.62a146.39,146.39,0,0,0,0,207h0a146.37,146.37,0,0,1,0,207l-91.54,91.54a146.39,146.39,0,0,0,0,207h0a146.39,146.39,0,0,0,207,0L7434.31-264.2a146.39,146.39,0,0,0,0-207h0a146.37,146.37,0,0,1,0-207l91.53-91.54a146.37,146.37,0,0,0,0-207h0a146.39,146.39,0,0,1,0-207l436.34-436.34a146.37,146.37,0,0,0,0-207h0a146.37,146.37,0,0,0-207,0l-244.85,244.85a146.37,146.37,0,0,1-207,0h0a146.39,146.39,0,0,0-207,0L6777.05-1263a146.37,146.37,0,0,1-207,0h0a146.37,146.37,0,0,1,0-207L6697.8-1597.8a146.37,146.37,0,0,0,0-207h0a146.39,146.39,0,0,1,0-207l260.38-260.38a146.37,146.37,0,0,0,0-207h0a146.37,146.37,0,0,0-207,0l-260.38,260.38a146.39,146.39,0,0,1-207,0h0a146.37,146.37,0,0,0-207,0L4605.38-747.44a146.37,146.37,0,0,0,0,207h0a146.39,146.39,0,0,0,207,0l260.38-260.38a146.37,146.37,0,0,1,207,0h0a146.39,146.39,0,0,1,0,207L5019.4-333.42a146.37,146.37,0,0,0,0,207h0a146.39,146.39,0,0,1,0,207L4891.63,208.36a146.39,146.39,0,0,0,0,207h0a146.37,146.37,0,0,0,207,0L5417.89,96.12a146.39,146.39,0,0,1,207,0h0a146.38,146.38,0,0,0,207,0l244.86-244.86A146.39,146.39,0,0,1,6283.78-148.73Z" transform="translate(2551.94 2522.09)"/><circle class="cls-6" cx="9282.21" cy="3885.03" r="149.7"/><circle class="cls-7" cx="4757.73" cy="599.95" r="149.7" transform="translate(3521.21 6062.03) rotate(-45)"/><path class="cls-8" d="M-830.66,3412.85h0a146.39,146.39,0,0,1,0,207L-1267,4056.2a146.39,146.39,0,0,0,0,207h0a146.39,146.39,0,0,1,0,207l-91.54,91.54a146.39,146.39,0,0,0,0,207h0a146.39,146.39,0,0,0,207,0L319.86,3297.37a146.37,146.37,0,0,0,0-207h0a146.39,146.39,0,0,1,0-207l91.54-91.53a146.37,146.37,0,0,0,0-207h0a146.39,146.39,0,0,1,0-207l436.34-436.34a146.37,146.37,0,0,0,0-207h0a146.37,146.37,0,0,0-207,0L395.88,1979.3a146.37,146.37,0,0,1-207,0h0a146.39,146.39,0,0,0-207,0l-319.25,319.25a146.39,146.39,0,0,1-207,0h0a146.37,146.37,0,0,1,0-207l127.76-127.77a146.37,146.37,0,0,0,0-207h0a146.39,146.39,0,0,1,0-207l260.38-260.38a146.37,146.37,0,0,0,0-207h0a146.39,146.39,0,0,0-207,0l-260.38,260.38a146.37,146.37,0,0,1-207,0h0a146.39,146.39,0,0,0-207,0l-1471.39,1471.4a146.37,146.37,0,0,0,0,207h0a146.39,146.39,0,0,0,207,0l260.38-260.38a146.37,146.37,0,0,1,207,0h0a146.39,146.39,0,0,1,0,207L-2095,3228.16a146.37,146.37,0,0,0,0,207h0a146.39,146.39,0,0,1,0,207l-127.77,127.76a146.39,146.39,0,0,0,0,207h0a146.37,146.37,0,0,0,207,0l319.25-319.25a146.39,146.39,0,0,1,207,0h0a146.37,146.37,0,0,0,207,0l244.86-244.85A146.37,146.37,0,0,1-830.66,3412.85Z" transform="translate(2551.94 2522.09)"/><path class="cls-9" d="M1205.1,6115.18l-106.65,106.66a149.69,149.69,0,0,0,0,211.7h0a149.69,149.69,0,0,0,211.7,0l408.68-408.68a149.69,149.69,0,0,1,211.7,0h0a149.71,149.71,0,0,1,0,211.71l-408.67,408.67a149.69,149.69,0,0,0,0,211.7h0a149.69,149.69,0,0,0,211.7,0l227.26-227.26a149.71,149.71,0,0,1,211.71,0h0a149.69,149.69,0,0,1,0,211.7L1766.71,7247.2a149.69,149.69,0,0,0,0,211.7h0a149.69,149.69,0,0,0,211.7,0L3644.27,5793.05a149.71,149.71,0,0,0,0-211.71h0a149.69,149.69,0,0,1,0-211.7l405.82-405.82a149.69,149.69,0,0,0,0-211.7h0a149.71,149.71,0,0,0-211.71,0l-227.26,227.26a149.69,149.69,0,0,1-211.71,0h0a149.71,149.71,0,0,1,0-211.7L3808.09,4359a149.71,149.71,0,0,0,0-211.71h0a149.69,149.69,0,0,0-211.7,0L3187.71,4556a149.69,149.69,0,0,1-211.7,0h0a149.69,149.69,0,0,1,0-211.7l106.65-106.66a149.69,149.69,0,0,0,0-211.7h0a149.69,149.69,0,0,0-211.7,0L1205.1,5691.78a149.69,149.69,0,0,0,0,211.7h0A149.69,149.69,0,0,1,1205.1,6115.18Z" transform="translate(2551.94 2522.09)"/><path class="cls-10" d="M496.5,6709.7l152.76-152.76a149.69,149.69,0,0,1,211.7,0h0a149.71,149.71,0,0,0,211.71,0L2739.79,4889.81a147.91,147.91,0,0,0,0-209.17l-2.53-2.53a147.91,147.91,0,0,0-209.17,0l-154,154a149.71,149.71,0,0,1-211.71,0h0a149.69,149.69,0,0,1,0-211.7l44.27-44.26a147.91,147.91,0,0,0,0-209.17l-2.54-2.54a147.91,147.91,0,0,1,0-209.17h0a147.89,147.89,0,0,0,0-209.16l-2.53-2.54a147.91,147.91,0,0,0-209.17,0l-167.05,167a147.91,147.91,0,0,1-209.17,0l-2.53-2.53a147.91,147.91,0,0,0-209.17,0L-262.66,5775.24a149.69,149.69,0,0,0,0,211.7h0a149.69,149.69,0,0,0,211.7,0l167.05-167a146.11,146.11,0,0,1,206.63,0l5.07,5.07a146.12,146.12,0,0,1,0,206.64h0a149.69,149.69,0,0,0,0,211.7h0a149.69,149.69,0,0,1,0,211.7l-43,43a149.69,149.69,0,0,0,0,211.7h0A149.71,149.71,0,0,0,496.5,6709.7Z" transform="translate(2551.94 2522.09)"/><path class="cls-11" d="M-1490.17,5326.67l-816.92,816.92a149.69,149.69,0,0,0,0,211.7h0a149.69,149.69,0,0,0,211.7,0l325.48-325.48a149.69,149.69,0,0,1,211.7,0h0a149.71,149.71,0,0,1,0,211.71L-2016,6699.33a149.69,149.69,0,0,0,0,211.7h0a149.71,149.71,0,0,0,211.71,0l94.77-94.77a149.69,149.69,0,0,1,211.7,0h0a149.69,149.69,0,0,0,211.7,0l201.46-201.46a149.69,149.69,0,0,1,211.7,0l5.13,5.12a142.46,142.46,0,0,1,0,201.46h0a149.69,149.69,0,0,0,0,211.7h0a149.69,149.69,0,0,0,211.7,0L1456.61,4920.33a146.1,146.1,0,0,0,0-206.59l-5.13-5.12a146.08,146.08,0,0,1,0-206.58h0a146.07,146.07,0,0,0,0-206.58l-5.12-5.12a146.07,146.07,0,0,0-206.58,0L1033.2,4496.92a146.07,146.07,0,0,1-206.58,0l-5.12-5.12a146.07,146.07,0,0,0-206.58,0l-97.33,97.33a149.71,149.71,0,0,1-211.71,0h0a149.69,149.69,0,0,1,0-211.7l460.38-460.37a146.08,146.08,0,0,0,0-206.58l-5.13-5.13a146.08,146.08,0,0,0-206.58,0l-328,328a149.69,149.69,0,0,1-211.7,0h0a149.69,149.69,0,0,1,0-211.7l819.48-819.48a146.08,146.08,0,0,0,0-206.58l-5.13-5.12a146.08,146.08,0,0,0-206.58,0L-1490.17,4903.27a149.69,149.69,0,0,0,0,211.7h0A149.69,149.69,0,0,1-1490.17,5326.67Z" transform="translate(2551.94 2522.09)"/><circle class="cls-12" cx="3456.85" cy="6084.05" r="149.7"/><circle class="cls-13" cx="2881.24" cy="4280.82" r="149.7"/><path class="cls-14" d="M4745.14,7429.88l-2.53-2.54a147.91,147.91,0,0,1,0-209.17l24.83-24.84a147.92,147.92,0,0,0,0-209.17l-2.54-2.54a147.92,147.92,0,0,1,0-209.18l223.93-223.93a149.69,149.69,0,0,0,0-211.7h0a149.69,149.69,0,0,0-211.7,0l-331,331a147.89,147.89,0,0,1-209.16,0l-2.54-2.54a147.91,147.91,0,0,1,0-209.17l728.34-728.34a149.69,149.69,0,0,0,0-211.7h0a149.71,149.71,0,0,0-211.71,0l-728.34,728.34a147.91,147.91,0,0,1-209.17,0l-2.53-2.53a147.91,147.91,0,0,1,0-209.17L5478.23,4365.53a149.69,149.69,0,0,1,211.7,0h0a149.71,149.71,0,0,0,211.71,0l727.07-727.08a149.69,149.69,0,0,1,211.7,0h0a149.69,149.69,0,0,1,0,211.7l-727.07,727.08a149.69,149.69,0,0,0,0,211.7h0a149.69,149.69,0,0,0,211.7,0l329.69-329.68a149.69,149.69,0,0,1,211.7,0h0a149.69,149.69,0,0,1,0,211.7l-222.68,222.68a149.69,149.69,0,0,0,0,211.7h0a149.69,149.69,0,0,1,0,211.7l-22.32,22.32a149.69,149.69,0,0,0,0,211.7h0a149.69,149.69,0,0,1,0,211.7L4954.31,7429.88A147.91,147.91,0,0,1,4745.14,7429.88Z" transform="translate(2551.94 2522.09)"/><circle class="cls-15" cx="8365.74" cy="6702.36" r="149.7"/></g></g></g></svg>