<svg width="338" height="338" viewBox="0 0 338 338" fill="none" xmlns="http://www.w3.org/2000/svg">
<path opacity="0.3" d="M144.845 0.548699C147.082 1.82661 148.857 4.9504 148.857 7.50623V76.0876L169.197 87.8374V158.584C169.197 161.14 167.386 162.169 165.185 160.891C162.949 159.614 161.174 156.49 161.174 153.934V92.452L140.799 80.7378V2.85604C140.799 0.300216 142.609 -0.729215 144.845 0.548699Z" fill="url(#paint0_linear)"/>
<path opacity="0.3" d="M155.921 298.444C158.157 299.722 159.932 298.693 159.932 296.137V244.736L180.272 256.486V222.834C180.272 220.279 178.462 217.155 176.261 215.877C174.024 214.599 172.25 215.628 172.25 218.184V242.571L151.909 230.821V291.487C151.909 294.043 153.72 297.166 155.921 298.444Z" fill="url(#paint1_linear)"/>
<path opacity="0.3" d="M187.194 50.8846C189.43 52.1626 191.205 55.2863 191.205 57.8422V174.523C191.205 177.079 189.395 178.108 187.194 176.83C184.957 175.552 183.183 172.429 183.183 169.873V53.192C183.183 50.6362 184.993 49.6067 187.194 50.8846Z" fill="url(#paint2_linear)"/>
<path fill-rule="evenodd" clip-rule="evenodd" d="M164.405 292.587C164.405 299.616 160.287 302.953 155.211 300.007C150.135 297.096 146.017 289.002 146.017 281.974C146.017 274.945 150.135 271.608 155.211 274.555C160.287 277.466 164.405 285.559 164.405 292.587Z" fill="#F2C94C"/>
<path fill-rule="evenodd" clip-rule="evenodd" d="M164.405 292.587C164.405 299.616 160.287 302.953 155.211 300.007C150.135 297.096 146.017 289.002 146.017 281.974C146.017 274.945 150.135 271.608 155.211 274.555C160.287 277.466 164.405 285.559 164.405 292.587Z" fill="url(#paint3_linear)"/>
<path opacity="0.3" d="M231.957 109.384C229.72 108.106 227.945 109.135 227.945 111.691V146.337L207.605 134.587V177.149C207.605 179.704 209.416 182.828 211.616 184.106C213.853 185.384 215.628 184.355 215.628 181.799V148.502L235.968 160.252V116.341C235.968 113.785 234.157 110.662 231.957 109.384Z" fill="url(#paint4_linear)"/>
<path fill-rule="evenodd" clip-rule="evenodd" d="M240.973 121.63C240.973 128.587 236.891 131.853 231.885 128.978C226.88 126.067 222.798 118.116 222.798 111.158C222.798 104.201 226.845 100.935 231.885 103.81C236.926 106.721 240.973 114.672 240.973 121.63Z" fill="#F2994A"/>
<path fill-rule="evenodd" clip-rule="evenodd" d="M240.973 121.63C240.973 128.587 236.891 131.853 231.885 128.978C226.88 126.067 222.798 118.116 222.798 111.158C222.798 104.201 226.845 100.935 231.885 103.81C236.926 106.721 240.973 114.672 240.973 121.63Z" fill="url(#paint5_linear)"/>
<path opacity="0.3" d="M270.862 298.835C270.862 296.279 269.052 293.155 266.851 291.877L235.258 273.631V247.186L203.878 229.082C201.642 227.804 199.867 228.833 199.867 231.389C199.867 233.945 201.677 237.069 203.878 238.347L227.235 251.836V278.282L266.886 301.142C269.087 302.42 270.862 301.391 270.862 298.835Z" fill="url(#paint6_linear)"/>
<path opacity="0.3" d="M194.613 337.315C192.377 336.037 190.602 332.913 190.602 330.357V246.228C190.602 243.672 192.412 242.643 194.613 243.921C196.849 245.199 198.624 248.322 198.624 250.878V335.008C198.624 337.563 196.814 338.593 194.613 337.315Z" fill="url(#paint7_linear)"/>
<path fill-rule="evenodd" clip-rule="evenodd" d="M275.761 301.887C275.761 308.916 271.643 312.253 266.567 309.306C261.491 306.396 257.373 298.302 257.373 291.274C257.373 284.245 261.491 280.908 266.567 283.855C271.643 286.765 275.761 294.859 275.761 301.887Z" fill="#F2994A"/>
<path fill-rule="evenodd" clip-rule="evenodd" d="M275.761 301.887C275.761 308.916 271.643 312.253 266.567 309.306C261.491 306.396 257.373 298.302 257.373 291.274C257.373 284.245 261.491 280.908 266.567 283.855C271.643 286.765 275.761 294.859 275.761 301.887Z" fill="url(#paint8_linear)"/>
<path opacity="0.3" d="M79.1392 160.678L136.929 194.045V301.106L79.1392 267.739V160.678Z" fill="url(#paint9_linear)"/>
<path opacity="0.15" d="M88.2979 228.763L122.731 248.641V252.866L88.2979 232.987V228.763Z" fill="white"/>
<path opacity="0.15" d="M91.8831 239.163L119.181 254.924V259.148L91.8831 243.387V239.163Z" fill="white"/>
<path fill-rule="evenodd" clip-rule="evenodd" d="M101.183 258.225L61 235.01V246.972L101.219 270.188L101.183 258.225Z" fill="#F2C94C"/>
<path fill-rule="evenodd" clip-rule="evenodd" d="M101.183 258.225L61 235.01V246.972L101.219 270.188L101.183 258.225Z" fill="url(#paint10_linear)"/>
<path opacity="0.2" d="M120.565 204.731L111.584 211.831L105.549 204.092L97.669 210.908L94.5452 208.636L106.153 198.874L112.045 206.612L118.542 201.785L120.565 204.731Z" fill="white"/>
<path fill-rule="evenodd" clip-rule="evenodd" d="M127.31 204.553C127.31 208.565 124.967 210.446 122.091 208.778C119.216 207.109 116.873 202.53 116.873 198.519C116.873 194.507 119.216 192.626 122.091 194.294C124.967 195.963 127.31 200.578 127.31 204.553ZM100.402 212.292C100.402 216.303 98.0595 218.184 95.1842 216.516C92.3089 214.848 89.9661 210.268 89.9661 206.257C89.9661 202.246 92.3089 200.365 95.1842 202.033C98.0595 203.701 100.402 208.281 100.402 212.292Z" fill="url(#paint11_linear)"/>
<path opacity="0.2" d="M277.748 230.68L222.798 198.945V227.556L277.748 259.291V230.68Z" fill="url(#paint12_linear)"/>
<path opacity="0.15" d="M236.855 213.995L253.397 223.544V226.987L236.855 217.403V213.995Z" fill="white"/>
<path opacity="0.15" d="M236.891 220.883L272.104 241.187V244.666L236.891 224.362V220.883Z" fill="white"/>
<path fill-rule="evenodd" clip-rule="evenodd" d="M233.98 214.99C233.98 217.333 232.595 218.469 230.856 217.475C229.117 216.481 227.732 213.748 227.732 211.405C227.732 209.062 229.117 207.926 230.856 208.92C232.595 209.914 233.98 212.647 233.98 214.99Z" fill="#F2994A"/>
<path fill-rule="evenodd" clip-rule="evenodd" d="M233.98 214.99C233.98 217.333 232.595 218.469 230.856 217.475C229.117 216.481 227.732 213.748 227.732 211.405C227.732 209.062 229.117 207.926 230.856 208.92C232.595 209.914 233.98 212.647 233.98 214.99Z" fill="url(#paint13_linear)"/>
<path opacity="0.2" d="M136.752 143.177L81.8015 111.442V140.053L136.752 171.788V143.177Z" fill="url(#paint14_linear)"/>
<path opacity="0.15" d="M95.8586 126.495L112.401 136.044V139.487L95.8586 129.938V126.495Z" fill="white"/>
<path opacity="0.15" d="M95.8943 133.381L131.108 153.686V157.164L95.8943 136.86V133.381Z" fill="white"/>
<path fill-rule="evenodd" clip-rule="evenodd" d="M92.9834 127.487C92.9834 129.83 91.599 130.966 89.8596 129.972C88.1202 128.978 86.7358 126.245 86.7358 123.902C86.7358 121.559 88.1202 120.423 89.8596 121.417C91.5635 122.411 92.9834 125.144 92.9834 127.487Z" fill="#F2994A"/>
<path fill-rule="evenodd" clip-rule="evenodd" d="M92.9834 127.487C92.9834 129.83 91.599 130.966 89.8596 129.972C88.1202 128.978 86.7358 126.245 86.7358 123.902C86.7358 121.559 88.1202 120.423 89.8596 121.417C91.5635 122.411 92.9834 125.144 92.9834 127.487Z" fill="url(#paint15_linear)"/>
<path opacity="0.2" d="M209.345 205.37C209.345 222.764 199.157 230.999 186.626 223.758C174.06 216.516 163.908 196.531 163.908 179.137C163.908 161.744 174.096 153.508 186.626 160.75C199.192 167.991 209.345 187.976 209.345 205.37Z" fill="url(#paint16_linear)"/>
<g opacity="0.4">
<path opacity="0.4" d="M177.681 196.744C178.284 196.567 178.603 195.928 178.603 194.827C178.603 193.691 178.284 192.697 177.681 191.881C177.042 191.064 176.119 190.283 174.912 189.609C174.521 189.396 174.095 189.148 173.634 188.935C173.172 188.686 172.782 188.473 172.427 188.331V194.437L174.663 195.715C176.083 196.531 177.077 196.85 177.681 196.744ZM175.267 200.933L172.391 199.264V206.577C172.746 206.825 173.101 207.074 173.456 207.287C173.847 207.535 174.273 207.784 174.734 208.068C176.119 208.849 177.219 209.239 178.071 209.168C178.923 209.133 179.349 208.352 179.349 206.896C179.349 205.618 178.994 204.482 178.284 203.524C177.574 202.566 176.58 201.678 175.267 200.933Z" fill="white"/>
<path opacity="0.4" d="M176.048 167.849C163.482 160.608 153.329 168.843 153.329 186.237C153.329 203.631 163.517 223.616 176.048 230.857C188.614 238.099 198.766 229.864 198.766 212.47C198.766 195.076 188.578 175.091 176.048 167.849ZM181.656 215.061C180.45 215.523 178.781 215.274 176.651 214.316V218.575L172.285 216.055V211.831C171.966 211.653 171.682 211.44 171.362 211.227C170.262 210.482 169.126 209.594 167.919 208.565V181.09C168.842 181.374 169.871 181.8 171.007 182.332C171.433 182.51 171.859 182.723 172.285 182.936V178.711L176.651 181.232L176.616 185.563C176.971 185.846 177.326 186.095 177.645 186.379C178.746 187.266 179.704 188.26 180.485 189.325C181.266 190.39 181.869 191.597 182.295 192.875C182.757 194.153 182.97 195.537 182.97 197.028C182.97 199.3 182.189 200.649 180.627 201.039C181.94 202.459 182.828 203.879 183.289 205.335C183.751 206.755 183.999 208.245 183.999 209.701C183.999 212.683 183.218 214.458 181.656 215.061Z" fill="white"/>
</g>
<defs>
<linearGradient id="paint0_linear" x1="155.931" y1="28.4651" x2="111.791" y2="104.945" gradientUnits="userSpaceOnUse">
<stop stop-color="white"/>
<stop offset="1" stop-color="white" stop-opacity="0"/>
</linearGradient>
<linearGradient id="paint1_linear" x1="163.44" y1="286.365" x2="192.116" y2="236.684" gradientUnits="userSpaceOnUse">
<stop stop-color="white"/>
<stop offset="1" stop-color="white" stop-opacity="0"/>
</linearGradient>
<linearGradient id="paint2_linear" x1="187.295" y1="70.0911" x2="149.342" y2="135.826" gradientUnits="userSpaceOnUse">
<stop stop-color="white"/>
<stop offset="1" stop-color="white" stop-opacity="0"/>
</linearGradient>
<linearGradient id="paint3_linear" x1="139.52" y1="269.94" x2="183.242" y2="298.236" gradientUnits="userSpaceOnUse">
<stop stop-color="#FF6AB4"/>
<stop offset="0.455157" stop-color="#DF006F"/>
<stop offset="1" stop-color="#FF6AB4"/>
</linearGradient>
<linearGradient id="paint4_linear" x1="226.223" y1="92.4973" x2="188.438" y2="157.956" gradientUnits="userSpaceOnUse">
<stop stop-color="white"/>
<stop offset="1" stop-color="white" stop-opacity="0"/>
</linearGradient>
<linearGradient id="paint5_linear" x1="216.376" y1="99.2677" x2="259.572" y2="127.246" gradientUnits="userSpaceOnUse">
<stop stop-color="#FF6AB4"/>
<stop offset="0.455157" stop-color="#DF006F"/>
<stop offset="1" stop-color="#FF6AB4"/>
</linearGradient>
<linearGradient id="paint6_linear" x1="281.265" y1="265.117" x2="205.709" y2="265.109" gradientUnits="userSpaceOnUse">
<stop stop-color="white"/>
<stop offset="1" stop-color="white" stop-opacity="0"/>
</linearGradient>
<linearGradient id="paint7_linear" x1="194.482" y1="322.149" x2="221.9" y2="274.72" gradientUnits="userSpaceOnUse">
<stop stop-color="white"/>
<stop offset="1" stop-color="white" stop-opacity="0"/>
</linearGradient>
<linearGradient id="paint8_linear" x1="250.876" y1="279.239" x2="294.598" y2="307.536" gradientUnits="userSpaceOnUse">
<stop stop-color="#FF6AB4"/>
<stop offset="0.455157" stop-color="#DF006F"/>
<stop offset="1" stop-color="#FF6AB4"/>
</linearGradient>
<linearGradient id="paint9_linear" x1="113.976" y1="170.11" x2="73.3208" y2="240.543" gradientUnits="userSpaceOnUse">
<stop stop-color="white"/>
<stop offset="1" stop-color="white" stop-opacity="0"/>
</linearGradient>
<linearGradient id="paint10_linear" x1="46.7894" y1="230.494" x2="107.549" y2="297.967" gradientUnits="userSpaceOnUse">
<stop stop-color="#FF6AB4"/>
<stop offset="0.455157" stop-color="#DF006F"/>
<stop offset="1" stop-color="#FF6AB4"/>
</linearGradient>
<linearGradient id="paint11_linear" x1="76.7714" y1="190.678" x2="113.88" y2="248.107" gradientUnits="userSpaceOnUse">
<stop stop-color="#FF6AB4"/>
<stop offset="0.455157" stop-color="#DF006F"/>
<stop offset="1" stop-color="#FF6AB4"/>
</linearGradient>
<linearGradient id="paint12_linear" x1="255.412" y1="218.382" x2="243.546" y2="238.938" gradientUnits="userSpaceOnUse">
<stop stop-color="white"/>
<stop offset="1" stop-color="white" stop-opacity="0"/>
</linearGradient>
<linearGradient id="paint13_linear" x1="225.525" y1="207.369" x2="240.285" y2="217.025" gradientUnits="userSpaceOnUse">
<stop stop-color="#FF6AB4"/>
<stop offset="0.455157" stop-color="#DF006F"/>
<stop offset="1" stop-color="#FF6AB4"/>
</linearGradient>
<linearGradient id="paint14_linear" x1="114.416" y1="130.879" x2="102.549" y2="151.435" gradientUnits="userSpaceOnUse">
<stop stop-color="white"/>
<stop offset="1" stop-color="white" stop-opacity="0"/>
</linearGradient>
<linearGradient id="paint15_linear" x1="84.5284" y1="119.866" x2="99.2891" y2="129.522" gradientUnits="userSpaceOnUse">
<stop stop-color="#FF6AB4"/>
<stop offset="0.455157" stop-color="#DF006F"/>
<stop offset="1" stop-color="#FF6AB4"/>
</linearGradient>
<linearGradient id="paint16_linear" x1="188.648" y1="166.264" x2="178.545" y2="223.8" gradientUnits="userSpaceOnUse">
<stop stop-color="white"/>
<stop offset="1" stop-color="white" stop-opacity="0"/>
</linearGradient>
</defs>
</svg>
