<svg width="16" height="16" viewBox="0 0 16 16" fill="none" xmlns="http://www.w3.org/2000/svg">
<path fill-rule="evenodd" clip-rule="evenodd" d="M11.9333 2.8C11.747 2.55161 11.5055 2.35 11.2278 2.21115C10.95 2.07229 10.6438 2 10.3333 2H3C2.46957 2 1.96086 2.21071 1.58579 2.58579C1.21071 2.96086 1 3.46957 1 4V12C1 12.5304 1.21071 13.0391 1.58579 13.4142C1.96086 13.7893 2.46957 14 3 14H10.3333C10.6438 14 10.95 13.9277 11.2278 13.7889C11.5055 13.65 11.747 13.4484 11.9333 13.2L14.9333 9.2C15.193 8.85381 15.3333 8.43274 15.3333 8C15.3333 7.56726 15.193 7.14619 14.9333 6.8L11.9333 2.8Z" fill="#9A36F4"/>
</svg>
