<svg width="72" height="72" viewBox="0 0 72 72" fill="none" xmlns="http://www.w3.org/2000/svg">
<circle cx="36" cy="36" r="36" fill="url(#paint0_linear_913_113)"/>
<path d="M17.6665 19.5H32.3332C32.3332 18.5276 32.7195 17.5949 33.4071 16.9073C34.0947 16.2197 35.0274 15.8334 35.9998 15.8334C36.9723 15.8334 37.9049 16.2197 38.5926 16.9073C39.2802 17.5949 39.6665 18.5276 39.6665 19.5H54.3332V23.1667H52.4998V43.3334H41.9582L45.1665 54.3334H41.4998L38.2915 43.3334H33.7082L30.4998 54.3334H26.8332L30.0415 43.3334H19.4998V23.1667H17.6665V19.5ZM23.1665 23.1667V39.6667H48.8332V23.1667H23.1665ZM35.7248 35.725C35.6416 35.8114 35.542 35.8802 35.4318 35.9274C35.3216 35.9747 35.2031 35.9993 35.0832 36C34.8401 36 34.6069 35.9035 34.435 35.7316C34.2631 35.5596 34.1665 35.3265 34.1665 35.0834V27.75C34.1665 27.5069 34.2631 27.2738 34.435 27.1019C34.6069 26.93 34.8401 26.8334 35.0832 26.8334C35.3398 26.8334 35.5598 26.9434 35.7248 27.1084L38.2915 29.6567C38.8782 30.2434 39.4648 30.83 39.4648 31.4167C39.4648 32.0034 38.8782 32.59 38.2915 33.1767L35.7248 35.725V35.725Z" fill="black"/>
<path d="M17.6665 19.5H32.3332C32.3332 18.5276 32.7195 17.5949 33.4071 16.9073C34.0947 16.2197 35.0274 15.8334 35.9998 15.8334C36.9723 15.8334 37.9049 16.2197 38.5926 16.9073C39.2802 17.5949 39.6665 18.5276 39.6665 19.5H54.3332V23.1667H52.4998V43.3334H41.9582L45.1665 54.3334H41.4998L38.2915 43.3334H33.7082L30.4998 54.3334H26.8332L30.0415 43.3334H19.4998V23.1667H17.6665V19.5ZM23.1665 23.1667V39.6667H48.8332V23.1667H23.1665ZM35.7248 35.725C35.6416 35.8114 35.542 35.8802 35.4318 35.9274C35.3216 35.9747 35.2031 35.9993 35.0832 36C34.8401 36 34.6069 35.9035 34.435 35.7316C34.2631 35.5596 34.1665 35.3265 34.1665 35.0834V27.75C34.1665 27.5069 34.2631 27.2738 34.435 27.1019C34.6069 26.93 34.8401 26.8334 35.0832 26.8334C35.3398 26.8334 35.5598 26.9434 35.7248 27.1084L38.2915 29.6567C38.8782 30.2434 39.4648 30.83 39.4648 31.4167C39.4648 32.0034 38.8782 32.59 38.2915 33.1767L35.7248 35.725V35.725Z" fill="url(#paint1_linear_913_113)"/>
<defs>
<linearGradient id="paint0_linear_913_113" x1="36" y1="0" x2="36" y2="72" gradientUnits="userSpaceOnUse">
<stop stop-color="#8808FC"/>
<stop offset="1" stop-color="#9525FA" stop-opacity="0.67"/>
</linearGradient>
<linearGradient id="paint1_linear_913_113" x1="35.9998" y1="15.8334" x2="35.9998" y2="54.3334" gradientUnits="userSpaceOnUse">
<stop offset="0.128125" stop-color="#FFF7F9"/>
<stop offset="1" stop-color="#DDB8FF"/>
</linearGradient>
</defs>
</svg>
