<svg width="72" height="72" viewBox="0 0 72 72" fill="none" xmlns="http://www.w3.org/2000/svg">
<circle cx="36" cy="36" r="36" fill="url(#paint0_linear_911_74)"/>
<path d="M43.8856 22.4H37.98C37.43 22.4 36.9006 22.6063 36.495 22.9775L29.7369 29.165C29.73 29.1719 29.7231 29.1856 29.7163 29.1925C28.575 30.265 28.5956 31.9769 29.5719 33.0425C30.445 33.9981 32.2806 34.2525 33.4288 33.2281C33.4356 33.2213 33.4494 33.2213 33.4563 33.2144L38.9494 28.1819C39.3963 27.7763 40.0975 27.8038 40.5031 28.2506C40.9156 28.6975 40.8813 29.3919 40.4344 29.8044L38.64 31.4475L48.65 39.5738C48.8494 39.7388 49.0281 39.9175 49.1931 40.1031V26.8L45.4394 23.0463C45.0337 22.6338 44.47 22.4 43.8856 22.4V22.4ZM51.4 26.8138V42.2069C51.4 43.4238 52.3831 44.4069 53.6 44.4069H58V26.8138H51.4ZM54.7 42.2069C54.095 42.2069 53.6 41.7119 53.6 41.1069C53.6 40.5019 54.095 40.0069 54.7 40.0069C55.305 40.0069 55.8 40.5019 55.8 41.1069C55.8 41.7119 55.305 42.2069 54.7 42.2069ZM14 44.4H18.4C19.6169 44.4 20.6 43.4169 20.6 42.2V26.8138H14V44.4ZM17.3 40.0069C17.905 40.0069 18.4 40.5019 18.4 41.1069C18.4 41.7119 17.905 42.2069 17.3 42.2069C16.695 42.2069 16.2 41.7119 16.2 41.1069C16.2 40.495 16.695 40.0069 17.3 40.0069ZM47.2681 41.2857L37.0038 32.9531L34.9413 34.8438C32.8994 36.7069 29.7712 36.5282 27.9494 34.5413C26.1 32.52 26.2444 29.3919 28.2519 27.5494L33.8756 22.4H28.1144C27.53 22.4 26.9731 22.6338 26.5606 23.0463L22.8 26.8V42.1931H24.0581L30.28 47.8238C32.1638 49.3569 34.9344 49.0681 36.4675 47.1844L36.4813 47.1706L37.7119 48.2363C38.805 49.13 40.4206 48.9581 41.3075 47.865L43.4663 45.2113L43.8375 45.5138C44.7794 46.2769 46.1681 46.1394 46.9313 45.1906L47.5844 44.3863C48.3544 43.4375 48.21 42.0557 47.2681 41.2857V41.2857Z" fill="black"/>
<path d="M43.8856 22.4H37.98C37.43 22.4 36.9006 22.6063 36.495 22.9775L29.7369 29.165C29.73 29.1719 29.7231 29.1856 29.7163 29.1925C28.575 30.265 28.5956 31.9769 29.5719 33.0425C30.445 33.9981 32.2806 34.2525 33.4288 33.2281C33.4356 33.2213 33.4494 33.2213 33.4563 33.2144L38.9494 28.1819C39.3963 27.7763 40.0975 27.8038 40.5031 28.2506C40.9156 28.6975 40.8813 29.3919 40.4344 29.8044L38.64 31.4475L48.65 39.5738C48.8494 39.7388 49.0281 39.9175 49.1931 40.1031V26.8L45.4394 23.0463C45.0337 22.6338 44.47 22.4 43.8856 22.4V22.4ZM51.4 26.8138V42.2069C51.4 43.4238 52.3831 44.4069 53.6 44.4069H58V26.8138H51.4ZM54.7 42.2069C54.095 42.2069 53.6 41.7119 53.6 41.1069C53.6 40.5019 54.095 40.0069 54.7 40.0069C55.305 40.0069 55.8 40.5019 55.8 41.1069C55.8 41.7119 55.305 42.2069 54.7 42.2069ZM14 44.4H18.4C19.6169 44.4 20.6 43.4169 20.6 42.2V26.8138H14V44.4ZM17.3 40.0069C17.905 40.0069 18.4 40.5019 18.4 41.1069C18.4 41.7119 17.905 42.2069 17.3 42.2069C16.695 42.2069 16.2 41.7119 16.2 41.1069C16.2 40.495 16.695 40.0069 17.3 40.0069ZM47.2681 41.2857L37.0038 32.9531L34.9413 34.8438C32.8994 36.7069 29.7712 36.5282 27.9494 34.5413C26.1 32.52 26.2444 29.3919 28.2519 27.5494L33.8756 22.4H28.1144C27.53 22.4 26.9731 22.6338 26.5606 23.0463L22.8 26.8V42.1931H24.0581L30.28 47.8238C32.1638 49.3569 34.9344 49.0681 36.4675 47.1844L36.4813 47.1706L37.7119 48.2363C38.805 49.13 40.4206 48.9581 41.3075 47.865L43.4663 45.2113L43.8375 45.5138C44.7794 46.2769 46.1681 46.1394 46.9313 45.1906L47.5844 44.3863C48.3544 43.4375 48.21 42.0557 47.2681 41.2857V41.2857Z" fill="url(#paint1_linear_911_74)"/>
<defs>
<linearGradient id="paint0_linear_911_74" x1="36" y1="0" x2="36" y2="72" gradientUnits="userSpaceOnUse">
<stop stop-color="#8808FC"/>
<stop offset="1" stop-color="#9525FA" stop-opacity="0.67"/>
</linearGradient>
<linearGradient id="paint1_linear_911_74" x1="36" y1="22.4" x2="36" y2="48.8096" gradientUnits="userSpaceOnUse">
<stop offset="0.128125" stop-color="#FFF7F9"/>
<stop offset="1" stop-color="#DDB8FF"/>
</linearGradient>
</defs>
</svg>
