<svg width="72" height="72" viewBox="0 0 72 72" fill="none" xmlns="http://www.w3.org/2000/svg">
<circle cx="36" cy="36" r="36" fill="url(#paint0_linear_911_27)"/>
<path d="M49.7502 27.75C49.7507 26.7856 49.4975 25.838 49.0161 25.0023C48.5348 24.1666 47.8421 23.4722 47.0076 22.9887C46.1732 22.5052 45.2263 22.2496 44.2618 22.2475C43.2974 22.2455 42.3494 22.4971 41.5129 22.9771C40.6764 23.4571 39.9809 24.1486 39.496 24.9822C39.0111 25.8159 38.7539 26.7624 38.7503 27.7268C38.7466 28.6912 38.9967 29.6396 39.4752 30.4769C39.9538 31.3142 40.6442 32.0109 41.477 32.4972C41.2802 34.9963 39.7514 35.6769 35.0317 36.6583C33.5055 36.9745 31.944 37.2985 30.502 37.8554V27.0101C31.5505 26.4047 32.37 25.4703 32.8333 24.3517C33.2966 23.2331 33.3779 21.9929 33.0645 20.8234C32.7512 19.654 32.0607 18.6206 31.1001 17.8835C30.1396 17.1465 28.9627 16.7469 27.752 16.7469C26.5412 16.7469 25.3643 17.1465 24.4038 17.8835C23.4432 18.6206 22.7527 19.654 22.4394 20.8234C22.126 21.9929 22.2073 23.2331 22.6706 24.3517C23.1339 25.4703 23.9534 26.4047 25.002 27.0101V44.9899C23.955 45.5945 23.1364 46.5271 22.6728 47.6437C22.2092 48.7602 22.1263 49.9983 22.4371 51.1667C22.7479 52.335 23.4349 53.3684 24.392 54.107C25.3491 54.8456 26.5229 55.2483 27.7318 55.2528C28.9407 55.2573 30.1175 54.8634 31.08 54.1319C32.0426 53.4004 32.7373 52.3722 33.0568 51.2062C33.3763 50.0403 33.3027 48.8015 32.8474 47.6816C32.3921 46.5616 31.5805 45.6229 30.538 45.0106C30.7434 43.4637 31.913 42.9197 36.1463 42.044C38.5036 41.5567 40.9399 41.0523 43.0024 39.728C45.4946 38.1313 46.8292 35.7078 46.9865 32.5187C47.826 32.0372 48.5235 31.3428 49.0088 30.5055C49.4941 29.6682 49.7498 28.7177 49.7502 27.75ZM27.7502 19.5C28.2941 19.5 28.8258 19.6613 29.2781 19.9635C29.7303 20.2656 30.0828 20.6951 30.2909 21.1976C30.499 21.7001 30.5535 22.2531 30.4474 22.7865C30.3413 23.32 30.0794 23.81 29.6948 24.1946C29.3102 24.5791 28.8202 24.8411 28.2867 24.9472C27.7533 25.0533 27.2004 24.9988 26.6979 24.7907C26.1954 24.5825 25.7659 24.2301 25.4637 23.7778C25.1615 23.3256 25.0002 22.7939 25.0002 22.25C25.0002 21.5207 25.29 20.8212 25.8057 20.3055C26.3214 19.7897 27.0209 19.5 27.7502 19.5ZM27.7502 52.5C27.2063 52.5 26.6747 52.3387 26.2224 52.0365C25.7702 51.7344 25.4177 51.3049 25.2096 50.8024C25.0014 50.2999 24.947 49.747 25.0531 49.2135C25.1592 48.6801 25.4211 48.1901 25.8057 47.8055C26.1903 47.4209 26.6803 47.159 27.2137 47.0528C27.7472 46.9467 28.3001 47.0012 28.8026 47.2093C29.3051 47.4175 29.7346 47.77 30.0368 48.2222C30.339 48.6744 30.5002 49.2061 30.5002 49.75C30.5002 50.4794 30.2105 51.1788 29.6948 51.6945C29.1791 52.2103 28.4796 52.5 27.7502 52.5ZM44.2502 30.5C43.7063 30.5 43.1746 30.3387 42.7224 30.0366C42.2702 29.7344 41.9177 29.3049 41.7096 28.8024C41.5014 28.2999 41.447 27.747 41.5531 27.2135C41.6592 26.6801 41.9211 26.1901 42.3057 25.8055C42.6903 25.4209 43.1803 25.159 43.7137 25.0528C44.2472 24.9467 44.8001 25.0012 45.3026 25.2093C45.8051 25.4175 46.2346 25.77 46.5368 26.2222C46.8389 26.6744 47.0002 27.2061 47.0002 27.75C47.0002 28.4794 46.7105 29.1788 46.1948 29.6946C45.679 30.2103 44.9796 30.5 44.2502 30.5Z" fill="black"/>
<path d="M49.7502 27.75C49.7507 26.7856 49.4975 25.838 49.0161 25.0023C48.5348 24.1666 47.8421 23.4722 47.0076 22.9887C46.1732 22.5052 45.2263 22.2496 44.2618 22.2475C43.2974 22.2455 42.3494 22.4971 41.5129 22.9771C40.6764 23.4571 39.9809 24.1486 39.496 24.9822C39.0111 25.8159 38.7539 26.7624 38.7503 27.7268C38.7466 28.6912 38.9967 29.6396 39.4752 30.4769C39.9538 31.3142 40.6442 32.0109 41.477 32.4972C41.2802 34.9963 39.7514 35.6769 35.0317 36.6583C33.5055 36.9745 31.944 37.2985 30.502 37.8554V27.0101C31.5505 26.4047 32.37 25.4703 32.8333 24.3517C33.2966 23.2331 33.3779 21.9929 33.0645 20.8234C32.7512 19.654 32.0607 18.6206 31.1001 17.8835C30.1396 17.1465 28.9627 16.7469 27.752 16.7469C26.5412 16.7469 25.3643 17.1465 24.4038 17.8835C23.4432 18.6206 22.7527 19.654 22.4394 20.8234C22.126 21.9929 22.2073 23.2331 22.6706 24.3517C23.1339 25.4703 23.9534 26.4047 25.002 27.0101V44.9899C23.955 45.5945 23.1364 46.5271 22.6728 47.6437C22.2092 48.7602 22.1263 49.9983 22.4371 51.1667C22.7479 52.335 23.4349 53.3684 24.392 54.107C25.3491 54.8456 26.5229 55.2483 27.7318 55.2528C28.9407 55.2573 30.1175 54.8634 31.08 54.1319C32.0426 53.4004 32.7373 52.3722 33.0568 51.2062C33.3763 50.0403 33.3027 48.8015 32.8474 47.6816C32.3921 46.5616 31.5805 45.6229 30.538 45.0106C30.7434 43.4637 31.913 42.9197 36.1463 42.044C38.5036 41.5567 40.9399 41.0523 43.0024 39.728C45.4946 38.1313 46.8292 35.7078 46.9865 32.5187C47.826 32.0372 48.5235 31.3428 49.0088 30.5055C49.4941 29.6682 49.7498 28.7177 49.7502 27.75ZM27.7502 19.5C28.2941 19.5 28.8258 19.6613 29.2781 19.9635C29.7303 20.2656 30.0828 20.6951 30.2909 21.1976C30.499 21.7001 30.5535 22.2531 30.4474 22.7865C30.3413 23.32 30.0794 23.81 29.6948 24.1946C29.3102 24.5791 28.8202 24.8411 28.2867 24.9472C27.7533 25.0533 27.2004 24.9988 26.6979 24.7907C26.1954 24.5825 25.7659 24.2301 25.4637 23.7778C25.1615 23.3256 25.0002 22.7939 25.0002 22.25C25.0002 21.5207 25.29 20.8212 25.8057 20.3055C26.3214 19.7897 27.0209 19.5 27.7502 19.5ZM27.7502 52.5C27.2063 52.5 26.6747 52.3387 26.2224 52.0365C25.7702 51.7344 25.4177 51.3049 25.2096 50.8024C25.0014 50.2999 24.947 49.747 25.0531 49.2135C25.1592 48.6801 25.4211 48.1901 25.8057 47.8055C26.1903 47.4209 26.6803 47.159 27.2137 47.0528C27.7472 46.9467 28.3001 47.0012 28.8026 47.2093C29.3051 47.4175 29.7346 47.77 30.0368 48.2222C30.339 48.6744 30.5002 49.2061 30.5002 49.75C30.5002 50.4794 30.2105 51.1788 29.6948 51.6945C29.1791 52.2103 28.4796 52.5 27.7502 52.5ZM44.2502 30.5C43.7063 30.5 43.1746 30.3387 42.7224 30.0366C42.2702 29.7344 41.9177 29.3049 41.7096 28.8024C41.5014 28.2999 41.447 27.747 41.5531 27.2135C41.6592 26.6801 41.9211 26.1901 42.3057 25.8055C42.6903 25.4209 43.1803 25.159 43.7137 25.0528C44.2472 24.9467 44.8001 25.0012 45.3026 25.2093C45.8051 25.4175 46.2346 25.77 46.5368 26.2222C46.8389 26.6744 47.0002 27.2061 47.0002 27.75C47.0002 28.4794 46.7105 29.1788 46.1948 29.6946C45.679 30.2103 44.9796 30.5 44.2502 30.5Z" fill="url(#paint1_linear_911_27)"/>
<defs>
<linearGradient id="paint0_linear_911_27" x1="36" y1="0" x2="36" y2="72" gradientUnits="userSpaceOnUse">
<stop stop-color="#8808FC"/>
<stop offset="1" stop-color="#9525FA" stop-opacity="0.67"/>
</linearGradient>
<linearGradient id="paint1_linear_911_27" x1="36.0011" y1="16.7469" x2="36.0011" y2="55.2529" gradientUnits="userSpaceOnUse">
<stop offset="0.128125" stop-color="#FFF7F9"/>
<stop offset="1" stop-color="#DDB8FF"/>
</linearGradient>
</defs>
</svg>
