<svg width="72" height="72" viewBox="0 0 72 72" fill="none" xmlns="http://www.w3.org/2000/svg">
<circle cx="36" cy="36" r="36" fill="url(#paint0_linear_911_42)"/>
<path d="M40.3998 18.4L49.1998 27.2V53.6H22.7998V18.4H40.3998ZM33.7998 42.6L29.3998 38.2L33.7998 33.8L31.5998 31.6L24.9998 38.2L31.5998 44.8L33.7998 42.6ZM40.3998 44.8L46.9998 38.2L40.3998 31.6L38.1998 33.8L42.5998 38.2L38.1998 42.6L40.3998 44.8Z" fill="black"/>
<path d="M40.3998 18.4L49.1998 27.2V53.6H22.7998V18.4H40.3998ZM33.7998 42.6L29.3998 38.2L33.7998 33.8L31.5998 31.6L24.9998 38.2L31.5998 44.8L33.7998 42.6ZM40.3998 44.8L46.9998 38.2L40.3998 31.6L38.1998 33.8L42.5998 38.2L38.1998 42.6L40.3998 44.8Z" fill="url(#paint1_linear_911_42)"/>
<defs>
<linearGradient id="paint0_linear_911_42" x1="36" y1="0" x2="36" y2="72" gradientUnits="userSpaceOnUse">
<stop stop-color="#8808FC"/>
<stop offset="1" stop-color="#9525FA" stop-opacity="0.67"/>
</linearGradient>
<linearGradient id="paint1_linear_911_42" x1="35.9998" y1="18.4" x2="35.9998" y2="53.6" gradientUnits="userSpaceOnUse">
<stop offset="0.128125" stop-color="#FFF7F9"/>
<stop offset="1" stop-color="#DDB8FF"/>
</linearGradient>
</defs>
</svg>
