<svg width="1956" height="1632" viewBox="0 0 1956 1632" fill="none" xmlns="http://www.w3.org/2000/svg">
<path d="M1233.64 254C1233.99 253 1242.25 238.9 1252.92 223.55C1302.54 152.06 1376.12 83.16 1462.41 85.75L1462.47 85.22C1423.47 80.94 1385.23 91.33 1351.68 109.85C1296.32 139.69 1242.38 196.56 1212.87 240.27L1233.64 254Z" fill="#F7CC7F"/>
<path d="M1443.26 125.27L1449.1 85.07L1419.29 57.46C1418.53 56.7522 1417.98 55.8453 1417.7 54.8415C1417.43 53.8378 1417.44 52.7773 1417.74 51.7798C1418.03 50.7823 1418.6 49.8876 1419.38 49.1967C1420.16 48.5058 1421.11 48.0462 1422.14 47.87L1462.14 40.99L1479.14 4.10998C1479.58 3.16874 1480.27 2.36861 1481.14 1.79936C1482.01 1.23011 1483.02 0.914265 1484.06 0.887265C1485.1 0.860265 1486.12 1.12317 1487.02 1.6465C1487.92 2.16982 1488.65 2.93286 1489.14 3.84999L1508.05 39.85L1548.39 44.66C1549.42 44.7835 1550.4 45.194 1551.22 45.8451C1552.03 46.4963 1552.64 47.362 1552.99 48.3444C1553.34 49.3267 1553.4 50.3865 1553.18 51.4037C1552.95 52.4208 1552.45 53.3549 1551.72 54.1L1523.37 83.19L1531.26 123.05C1531.46 124.071 1531.38 125.129 1531.01 126.103C1530.64 127.077 1530.01 127.929 1529.18 128.562C1528.36 129.196 1527.37 129.586 1526.33 129.688C1525.3 129.79 1524.25 129.6 1523.32 129.14L1486.88 111.14L1451.51 131C1450.6 131.51 1449.56 131.754 1448.51 131.702C1447.47 131.651 1446.46 131.307 1445.6 130.71C1444.74 130.113 1444.06 129.287 1443.65 128.325C1443.24 127.363 1443.1 126.305 1443.26 125.27V125.27Z" fill="#F7CC7F"/>
<path d="M658.08 51.68L652.77 71.38L668.7 84.76L661.18 106.42L682.53 115.45L675.11 140.31L693.75 151.05L690.52 176.14L681.03 174.92L683.44 156.16L663.77 144.83L670.91 120.93L649.19 111.75L657.49 87.85L641.94 74.78L646.86 56.52L634.86 50.07L639.39 41.64L658.08 51.68Z" fill="#9BC1F9"/>
<path d="M208.52 1275.63C216.759 1284.83 222.085 1296.26 223.827 1308.48C225.568 1320.71 223.646 1333.17 218.304 1344.3C212.961 1355.43 204.438 1364.73 193.812 1371.02C183.186 1377.3 170.934 1380.3 158.606 1379.62C146.278 1378.95 134.427 1374.63 124.551 1367.22C114.675 1359.81 107.219 1349.64 103.124 1337.99C99.0294 1326.34 98.4804 1313.74 101.547 1301.78C104.613 1289.82 111.156 1279.04 120.35 1270.8C126.456 1265.33 133.58 1261.11 141.316 1258.39C149.052 1255.67 157.248 1254.5 165.436 1254.95C173.623 1255.4 181.642 1257.46 189.035 1261C196.428 1264.55 203.049 1269.52 208.52 1275.63V1275.63Z" fill="#F7CC7F"/>
<path d="M143.77 1346.94C149.692 1353.48 157.962 1357.41 166.773 1357.87C175.585 1358.33 184.22 1355.29 190.791 1349.4C197.363 1343.51 201.335 1335.26 201.841 1326.45C202.347 1317.64 199.344 1308.99 193.49 1302.39L143.77 1346.94Z" fill="#EFEFEF"/>
<path d="M140.57 1119.26L124.26 1110C119.989 1116.81 114.834 1123.03 108.93 1128.49C106.786 1130.44 103.98 1131.5 101.081 1131.46C98.1827 1131.42 95.4079 1130.28 93.3199 1128.27L92.7999 1127.76C91.668 1126.67 90.7729 1125.36 90.1707 1123.92C89.5684 1122.47 89.2721 1120.91 89.3003 1119.34C89.3284 1117.77 89.6805 1116.22 90.3344 1114.8C90.9882 1113.37 91.9297 1112.1 93.0999 1111.05C98.5801 1106.24 103.232 1100.56 106.87 1094.24C112.42 1084.46 112.44 1075.62 105.57 1071.72C99.0499 1068.02 91.8099 1071.18 80.3099 1081.45C63.7099 1096.32 48.0099 1103.99 31.3599 1094.54C16.2499 1085.97 10.4399 1068.61 17.2499 1048.19L0.939941 1039L10.4799 1022.17L25.5899 1030.74C28.7737 1025.55 32.5123 1020.73 36.7399 1016.35C38.8477 1014.22 41.7085 1013.01 44.703 1012.98C47.6975 1012.94 50.5849 1014.09 52.7399 1016.17V1016.17C53.8423 1017.23 54.7191 1018.51 55.318 1019.92C55.9169 1021.33 56.2255 1022.84 56.2255 1024.37C56.2255 1025.91 55.9169 1027.42 55.318 1028.83C54.7191 1030.24 53.8423 1031.52 52.7399 1032.58C48.5216 1036.66 44.9205 1041.33 42.0499 1046.45C35.7199 1057.61 38.4799 1063.95 43.2899 1066.67C48.9499 1069.89 55.9699 1065.92 69.7399 1054.44C88.5399 1038.1 102.66 1035.21 118.11 1043.97C133.4 1052.64 140.31 1070.86 132.55 1092.55L150.06 1102.49L140.57 1119.26Z" fill="#FAE0B2"/>
<path d="M1744.96 430.38L1734.16 457.3L1688.93 444.71L1668.29 482.12L1632.9 478.23L1630.93 496.14L1678.26 501.35L1697.83 465.89L1744.88 478.99L1761.13 438.49L1744.96 430.38Z" fill="#466EB6"/>
<path d="M1666.73 1383.77L1676.2 1360.26C1666.32 1355.75 1657.07 1349.96 1648.7 1343.04C1645.69 1340.52 1643.75 1336.94 1643.29 1333.04C1642.82 1329.13 1643.86 1325.2 1646.2 1322.04L1646.78 1321.25C1648.03 1319.54 1649.63 1318.1 1651.46 1317.04C1653.3 1315.97 1655.33 1315.29 1657.44 1315.05C1659.55 1314.81 1661.68 1315 1663.71 1315.62C1665.74 1316.24 1667.62 1317.28 1669.23 1318.66C1676.66 1325.15 1685.1 1330.36 1694.23 1334.1C1708.33 1339.79 1720.23 1338.23 1724.17 1328.33C1727.96 1318.93 1722.43 1309.8 1706.61 1296.23C1683.72 1276.65 1670.61 1256.99 1680.32 1232.99C1689.09 1211.21 1711.32 1200.31 1739.89 1205.79L1749.37 1182.27L1773.63 1192.05L1764.85 1213.83C1772.37 1217.17 1779.5 1221.31 1786.12 1226.19C1789.36 1228.63 1791.5 1232.26 1792.08 1236.27C1792.66 1240.28 1791.64 1244.37 1789.23 1247.63V1247.63C1788.01 1249.3 1786.46 1250.71 1784.68 1251.77C1782.9 1252.83 1780.92 1253.53 1778.87 1253.81C1776.81 1254.09 1774.72 1253.95 1772.73 1253.4C1770.73 1252.86 1768.86 1251.91 1767.23 1250.63C1761 1245.71 1754.1 1241.72 1746.73 1238.78C1730.64 1232.3 1722.65 1237.14 1719.86 1244.07C1716.57 1252.23 1723.13 1260.92 1740.98 1277.32C1766.24 1299.58 1772.64 1317.98 1763.66 1340.26C1754.79 1362.26 1731.61 1374.81 1701.16 1368.26L1691 1393.55L1666.73 1383.77Z" fill="#96D9C9"/>
<path d="M174.62 738.62L147.09 741.42L137.7 697.61L96.94 696.73L84.55 665.1L68.54 671.37L85.1 713.68L123.73 714.51L133.5 760.08L174.93 755.88L174.62 738.62Z" fill="#50BFA5"/>
<path d="M1487.13 418.27L1504.42 423.98C1504.42 423.98 1531.83 415.09 1534.53 409.51C1537.23 403.93 1537.99 390.37 1541.89 390C1545.79 389.63 1553.32 390.9 1555.12 400.17C1556.42 406.91 1546.56 426.37 1548.12 428.44C1549.12 429.74 1558.93 433.3 1566.12 435.78C1568.46 436.596 1570.54 438.042 1572.11 439.96C1573.68 441.878 1574.7 444.193 1575.04 446.65V446.65C1575.29 448.31 1574.96 450.005 1574.12 451.458C1573.28 452.91 1571.97 454.036 1570.41 454.65L1565.41 456.57L1567 461.7C1567.57 463.542 1567.4 465.534 1566.52 467.252C1565.65 468.969 1564.13 470.278 1562.31 470.9L1558.46 472.19L1559.69 475.32C1560.06 476.274 1560.24 477.296 1560.2 478.32C1560.16 479.344 1559.9 480.349 1559.45 481.27C1559 482.192 1558.37 483.01 1557.59 483.672C1556.8 484.335 1555.89 484.828 1554.91 485.12L1551.55 486.12L1551.69 487.02C1551.97 488.823 1551.57 490.664 1550.57 492.192C1549.58 493.72 1548.05 494.826 1546.29 495.3L1542.95 496.18L1497 481C1492.68 479.57 1488.71 477.261 1485.33 474.22L1470 466.11C1469.2 465.678 1468.58 464.976 1468.26 464.129C1467.93 463.282 1467.92 462.346 1468.22 461.49L1482.4 420.67C1482.72 419.731 1483.39 418.953 1484.28 418.505C1485.16 418.056 1486.18 417.972 1487.13 418.27V418.27Z" fill="#FAE0B2"/>
<path d="M433.41 473.12C433.03 472.04 423.8 456.26 411.89 439.12C356.5 359.32 274.35 282.4 178 285.28L177.93 284.7C221.48 279.92 264.16 291.52 301.62 312.19C363.42 345.51 423.62 408.99 456.62 457.79L433.41 473.12Z" fill="#F7CC7F"/>
<path d="M199.39 329.45L192.88 284.57L226.16 253.75C227.024 252.963 227.649 251.949 227.965 250.824C228.28 249.699 228.272 248.508 227.943 247.387C227.613 246.265 226.975 245.26 226.101 244.484C225.227 243.708 224.152 243.194 223 243L178.29 235.32L159.29 194.15C158.803 193.094 158.03 192.196 157.059 191.557C156.088 190.918 154.957 190.563 153.795 190.533C152.633 190.503 151.485 190.798 150.483 191.386C149.48 191.974 148.661 192.831 148.12 193.86L127 234.05L81.9999 239.41C80.8302 239.531 79.7184 239.98 78.7927 240.705C77.8671 241.43 77.1652 242.403 76.768 243.509C76.3709 244.616 76.2945 245.813 76.5479 246.961C76.8012 248.11 77.3739 249.163 78.1999 250L109.86 282.48L101.05 326.97C100.825 328.111 100.923 329.292 101.333 330.38C101.744 331.467 102.45 332.419 103.372 333.127C104.294 333.835 105.396 334.272 106.553 334.387C107.71 334.502 108.876 334.292 109.92 333.78L150.59 313.71L190.18 335.84C191.2 336.409 192.359 336.681 193.525 336.624C194.692 336.567 195.819 336.184 196.778 335.518C197.738 334.853 198.491 333.931 198.953 332.858C199.415 331.785 199.566 330.605 199.39 329.45V329.45Z" fill="#F7CC7F"/>
<path d="M8.99989 482.1L19.5099 464.34L10.8399 445.62C10.603 445.138 10.5082 444.598 10.5666 444.064C10.6251 443.53 10.8343 443.024 11.17 442.604C11.5056 442.185 11.9537 441.869 12.4619 441.695C12.9701 441.521 13.5175 441.495 14.0399 441.62L34.1699 446.12L49.2999 432.12C49.6927 431.771 50.1749 431.538 50.6926 431.448C51.2102 431.357 51.7428 431.413 52.2307 431.608C52.7186 431.803 53.1426 432.13 53.455 432.553C53.7675 432.975 53.9562 433.476 53.9999 434L55.9299 454.54L73.9299 464.54C74.391 464.798 74.7709 465.18 75.0269 465.643C75.2829 466.105 75.4047 466.63 75.3787 467.157C75.3527 467.685 75.18 468.196 74.8798 468.631C74.5797 469.066 74.1641 469.408 73.6799 469.62L54.7399 477.8L50.7399 498.04C50.6367 498.558 50.3908 499.038 50.0299 499.424C49.669 499.811 49.2074 500.088 48.6971 500.227C48.1868 500.365 47.648 500.358 47.1415 500.207C46.6349 500.055 46.1807 499.766 45.8299 499.37L32.2199 483.9L11.7399 486.36C11.2181 486.413 10.6917 486.321 10.219 486.094C9.74641 485.866 9.346 485.512 9.06224 485.071C8.77849 484.63 8.62247 484.119 8.61147 483.594C8.60046 483.07 8.7349 482.553 8.99989 482.1V482.1Z" fill="#466EB6"/>
<path d="M1949.89 767.27L1924.68 765.23L1921.24 788.55L1896.31 787.64L1890.27 809.53L1871.51 811.9L1872.71 821.4L1897.8 818.23L1903.52 797.49L1929.46 798.43L1932.84 775.5L1955.69 777.34L1949.89 767.27Z" fill="#F48C7F"/>
<path d="M600.34 201.17L598.8 175.92L575.23 175.8L572.62 150.99L550.1 148.1L545.11 129.86L535.87 132.38L542.55 156.79L563.89 159.53L566.61 185.33L589.79 185.45L591.19 208.33L600.34 201.17Z" fill="#F48C7F"/>
<path d="M53.87 946.37L72.92 953.64L87.85 939.15L108.64 948.82L119.78 928.49L143.77 938.39L156.33 920.93L180.97 926.68L178.8 936L160.38 931.7L147.11 950.12L124.05 940.61L112.73 961.29L89.79 950.62L75.21 964.77L57.55 958.02L49.92 969.31L41.98 963.95L53.87 946.37Z" fill="#F7CC7F"/>
<path d="M1203.5 143.42L1202.27 158.78L1177.33 159.52L1172.76 181.76L1154.19 185.37L1156.02 194.76L1180.85 189.94L1185.19 168.87L1211.12 168.1L1212.98 144.99L1203.5 143.42Z" fill="#50BFA5"/>
<path d="M1709.32 145.94C1719.62 155.818 1726.77 168.53 1729.84 182.468C1732.92 196.406 1731.8 210.943 1726.61 224.242C1721.43 237.54 1712.41 249.002 1700.71 257.178C1689.01 265.353 1675.15 269.875 1660.88 270.172C1646.61 270.469 1632.57 266.526 1620.54 258.844C1608.51 251.161 1599.03 240.084 1593.3 227.012C1587.56 213.941 1585.84 199.463 1588.33 185.409C1590.83 171.356 1597.44 158.358 1607.32 148.06C1620.57 134.255 1638.75 126.277 1657.88 125.879C1677.01 125.482 1695.51 132.697 1709.32 145.94V145.94Z" fill="#FFF3D9"/>
<path d="M1708.09 206.27L1677.38 215.71L1667.75 246.36C1667.58 246.918 1667.25 247.415 1666.8 247.797C1666.36 248.178 1665.82 248.427 1665.24 248.517C1664.66 248.606 1664.07 248.532 1663.54 248.303C1663 248.074 1662.54 247.699 1662.2 247.22L1643.73 220.93L1611.61 221.24C1611.03 221.246 1610.45 221.088 1609.96 220.786C1609.46 220.483 1609.05 220.048 1608.79 219.528C1608.53 219.008 1608.41 218.425 1608.46 217.844C1608.51 217.263 1608.72 216.708 1609.07 216.24L1628.37 190.55L1618.15 160.09C1617.96 159.535 1617.93 158.937 1618.06 158.365C1618.2 157.793 1618.49 157.271 1618.91 156.859C1619.33 156.446 1619.85 156.16 1620.43 156.033C1621 155.905 1621.6 155.943 1622.15 156.14L1652.54 166.55L1678.35 147.42C1678.82 147.071 1679.38 146.859 1679.96 146.811C1680.54 146.762 1681.13 146.877 1681.65 147.144C1682.17 147.41 1682.6 147.817 1682.9 148.318C1683.2 148.82 1683.36 149.395 1683.35 149.98L1682.83 182.1L1709 200.73C1709.47 201.07 1709.85 201.536 1710.07 202.076C1710.29 202.615 1710.36 203.207 1710.27 203.783C1710.17 204.359 1709.92 204.898 1709.53 205.337C1709.15 205.777 1708.65 206.1 1708.09 206.27V206.27Z" fill="#FED333"/>
<path d="M1913.8 517.9L1930.73 516.9C1931.16 516.837 1931.57 516.662 1931.91 516.393C1932.26 516.124 1932.52 515.769 1932.69 515.365C1932.85 514.96 1932.91 514.52 1932.85 514.087C1932.79 513.655 1932.62 513.246 1932.35 512.9L1921.57 498.79L1926.22 480.79C1926.36 480.383 1926.39 479.944 1926.29 479.524C1926.19 479.104 1925.97 478.721 1925.66 478.421C1925.35 478.12 1924.97 477.914 1924.54 477.827C1924.12 477.74 1923.68 477.776 1923.28 477.93L1907.52 485.07L1893.47 475C1893.11 474.771 1892.68 474.651 1892.25 474.654C1891.82 474.657 1891.4 474.783 1891.04 475.017C1890.68 475.252 1890.39 475.584 1890.21 475.976C1890.03 476.368 1889.97 476.803 1890.03 477.23L1891.03 495.75L1877.7 507.48C1877.37 507.768 1877.12 508.137 1876.98 508.55C1876.84 508.963 1876.81 509.407 1876.89 509.835C1876.98 510.264 1877.17 510.664 1877.45 510.995C1877.74 511.325 1878.11 511.575 1878.52 511.72L1895 516L1900.81 533.33C1900.93 533.743 1901.16 534.111 1901.49 534.387C1901.82 534.663 1902.22 534.833 1902.65 534.875C1903.08 534.917 1903.51 534.829 1903.88 534.623C1904.26 534.417 1904.57 534.102 1904.76 533.72L1913.8 517.9Z" fill="#F47458"/>
<path d="M624.93 830.63C624.93 830.63 655.27 772.26 659.93 750.83C664.59 729.4 680.45 621.58 679.56 614.55C677.88 601.29 660.47 592.7 663.65 586.8C666.83 580.9 683.32 579.06 688.94 579.57C694.56 580.08 705.86 583.35 710.7 587.33C715.54 591.31 705.26 720.63 702.19 748.47C699.12 776.31 661.44 862.05 661.44 862.05L624.93 830.63Z" fill="#F7A491"/>
<path d="M716.17 584.93C715.5 585.36 712.95 586.11 712.35 586.65L707.69 588.12C707.69 588.12 719.69 587.81 726.75 595.41C724.089 591.139 720.466 587.55 716.17 584.93Z" fill="#F47257"/>
<path d="M1289.62 608.36C1294.32 604.78 1296.71 595.79 1297.72 589.98L1300.1 582.34C1298.29 581.5 1262.62 574.74 1251.81 573.96C1250.6 577.34 1249.94 580.21 1250.19 582.07C1251.39 591 1260.05 648.98 1260.05 648.98L1290.94 650.98C1290.94 650.98 1285.78 616.63 1289.62 608.36Z" fill="#F7A491"/>
<path d="M1290.36 584C1290.36 584 1283.98 586.89 1276.9 595.43C1276.9 595.43 1259.9 583.43 1260.71 579.89C1261.71 575.22 1279.21 584.78 1279.21 584.78L1290.36 584Z" fill="#F47458"/>
<path d="M1441 1431.94C1441 1431.94 1482.57 1461.94 1489.11 1470.85C1498.54 1483.72 1418.69 1507.85 1427.41 1492.73C1429.41 1489.26 1435.16 1477.59 1435.41 1476.44C1436.75 1470.31 1419.81 1453.77 1419.81 1453.77L1441 1431.94Z" fill="#F7A491"/>
<path d="M1405.84 1517.93L1434.07 1478.04C1434.07 1478.04 1451.69 1473.95 1469.78 1453.6C1469.78 1453.6 1486.03 1459.8 1496.03 1473.25C1481.07 1488.79 1465.03 1503.25 1448.03 1516.53C1435.83 1526.7 1421.91 1534.61 1406.93 1539.88C1383.06 1547.94 1405.84 1517.93 1405.84 1517.93Z" fill="#F7CC7F"/>
<path d="M1780.43 692.58C1780.43 692.58 1769.68 710.31 1768.49 709.23C1767.57 708.4 1773.98 699.06 1778.55 687.75C1779.72 684.84 1780.87 681.96 1781.9 679.31C1784.61 672.31 1781.26 668.75 1777.3 675.59C1775.47 678.677 1773.86 681.888 1772.48 685.2C1771.19 688.57 1768.95 691.27 1767.48 693.94C1764.48 699.25 1762.39 703.16 1762.24 702.94C1762.09 702.72 1760.75 703.27 1761.9 700.14C1763.29 696.38 1767.9 689.03 1769.56 683.35C1770.48 680.13 1772.8 673.51 1772.8 673.51C1772.8 673.51 1774.5 662.88 1773.93 662.58C1770.84 660.97 1767.69 667.94 1766.99 672.47C1765.11 675.15 1762.86 682.18 1762.86 682.18C1762.86 682.18 1755.22 695.42 1753.4 694.38C1752.63 693.94 1756.4 685.27 1758.76 676.2C1760.98 667.78 1761.88 658.94 1760.34 658.27C1757.71 657.14 1754.28 666.27 1754.28 666.27C1754.28 666.27 1752.21 672.77 1751.37 674.88C1750.37 677.35 1746.85 684.53 1746.85 684.53C1746.85 684.53 1733.09 708.81 1731.46 707.67C1729.83 706.53 1727.17 702.02 1727.46 700.22C1727.75 698.42 1730.05 695.42 1730.38 693.62C1730.71 691.82 1729.63 689.22 1727.51 688.69C1725.39 688.16 1720.6 696.3 1720.6 696.3C1720.6 696.3 1716.75 702.95 1716.65 708.3C1716.3 726.69 1719.3 725.96 1719.19 728.3C1719.07 731.09 1697.77 761.8 1697.77 761.8L1697.37 762.27L1722.64 780.66C1731.07 766.95 1737.64 756.21 1739.54 752.85C1739.54 752.85 1752.22 742 1759.97 734.93C1767.72 727.86 1772.07 717.68 1773.97 715.35C1778.38 709.013 1782 702.171 1784.78 694.97C1788.79 684.63 1780.43 692.58 1780.43 692.58Z" fill="#F8A492"/>
<path d="M1504.61 1123.94L1498.03 1156.46L1332.75 1306.8L1451.06 1426.53L1419.06 1459.18C1419.06 1459.18 1244.32 1330.87 1238.06 1314.05C1228.36 1288.16 1363.31 1116.69 1363.31 1116.69L1504.61 1123.94Z" fill="#B75742"/>
<path d="M1626.31 1521.85C1626.31 1521.85 1667.88 1551.85 1674.42 1560.76C1683.85 1573.63 1604 1597.76 1612.72 1582.64C1614.72 1579.17 1620.47 1567.5 1620.72 1566.36C1622.06 1560.22 1605.12 1543.68 1605.12 1543.68L1626.31 1521.85Z" fill="#F7A491"/>
<path d="M1591.08 1608L1619.31 1568.11C1619.31 1568.11 1638.06 1564.74 1656.15 1544.39C1656.15 1544.39 1671.28 1549.87 1681.28 1563.32C1666.31 1578.85 1650.28 1593.32 1633.28 1606.6C1621.08 1616.77 1607.16 1624.68 1592.17 1629.95C1568.31 1638 1591.08 1608 1591.08 1608Z" fill="#F7CC7F"/>
<path d="M1499 1139L1501.58 1352.67L1632.86 1517.37L1601.96 1551.72C1601.96 1551.72 1439.39 1416.54 1421.58 1377.72C1410.58 1353.72 1370.29 1126.11 1370.29 1126.11L1499 1139Z" fill="#F47458"/>
<path d="M1365.63 1122.17C1379.07 1091.83 1377.52 874.33 1429.83 823.39C1448.24 826.49 1461.37 828.24 1464.44 829.04C1467.17 851.45 1470.18 933.67 1472.02 1009.04C1473.25 1059.24 1472.02 1111.89 1478.16 1139.64C1482 1156.82 1353.35 1149.89 1365.63 1122.17Z" fill="#FAE0B2"/>
<path d="M1144.09 948.15C1113.51 949.91 1100.64 954.76 1091.23 952.97C1081.82 951.18 1056.75 942.22 1057.23 932.82C1090.82 926.1 1149.48 936.51 1149.48 936.51C1145.42 956.11 1144.09 948.15 1144.09 948.15Z" fill="#F7A491"/>
<path d="M1407.52 830.31C1407.52 830.31 1393.95 896.98 1378.14 908.44C1362.33 919.9 1282.14 960.2 1277.25 959.91C1253 958.51 1137.06 953.78 1137.06 953.78L1140.64 916.6L1271.31 906C1271.31 906 1365.92 844 1378.67 834.19C1387.63 828.54 1407.52 830.31 1407.52 830.31Z" fill="#466EB6"/>
<path d="M1360.37 1136.71C1348.62 1136.71 1344.28 1135.09 1336.45 1132.71C1336.45 1132.71 1331.31 1045.42 1356.35 915.98C1365.79 867.18 1366.05 837.56 1385.35 830.05C1402.75 823.28 1424.04 822.38 1429.84 823.36C1378.59 968.36 1378.42 1079.97 1371.16 1112.36C1367.51 1128.59 1364.34 1136.82 1360.37 1136.71Z" fill="#466EB6"/>
<path d="M1435.24 801.48L1429.87 823.39C1429.87 823.39 1428.64 842.46 1437.5 844.17C1448.18 846.24 1464.04 830.26 1464.04 830.26L1473.23 768.48L1435.24 801.48Z" fill="#F7A491"/>
<path d="M1435.24 801.48L1429.87 823.39C1429.87 823.39 1428.64 842.46 1437.5 844.17C1448.18 846.24 1464.04 830.26 1464.04 830.26L1473.23 768.48L1435.24 801.48Z" fill="#F7A491"/>
<path d="M1473.14 768.76L1435.24 801.48L1431.24 817.84C1445.71 814.36 1466.37 798.42 1473.14 768.76Z" fill="#F47458"/>
<path d="M1435.11 711.92C1425.95 711.92 1417.7 718.25 1414.48 727.4C1410.83 737.72 1408.06 748.331 1406.21 759.12C1402.21 782.87 1415.73 804.62 1427.5 806.36C1439.27 808.1 1467.31 800.3 1473.5 766.64C1476.15 752.21 1479.65 733.29 1467.79 723.35C1458.58 715.62 1445.65 712 1435.11 711.92Z" fill="#F7A491"/>
<path d="M1469.69 792.29C1469.69 792.29 1511.19 755.29 1513 726.41C1514.81 697.53 1488.13 682.04 1465.31 681.24C1455.98 680.87 1446.63 681.352 1437.39 682.68C1414.53 685.56 1399.71 695.68 1404.93 714.42C1411.93 739.57 1459.37 718.35 1469.07 726.16C1477.07 732.6 1464.07 748.09 1471.88 754C1479.19 759.55 1475.46 757.67 1473.04 768.23C1471.4 776.169 1470.28 784.206 1469.69 792.29V792.29Z" fill="#13375B"/>
<path d="M1485.69 758.78C1484.69 765.71 1480.43 770.78 1476.24 770.2C1472.05 769.62 1469.48 763.47 1470.51 756.54C1471.54 749.61 1475.77 744.54 1479.96 745.13C1484.15 745.72 1486.72 751.86 1485.69 758.78Z" fill="#F7A491"/>
<path d="M1296.72 572.36C1293 565.85 1287.44 572.54 1291.04 581.01C1291.13 581.337 1291.13 581.683 1291.04 582.01C1290.11 584.22 1281.48 591.12 1281.48 591.12C1281.48 591.12 1288.4 610.46 1292.28 605.37C1296.16 600.28 1299.12 583.8 1299.12 583.8L1296.72 572.36Z" fill="#F7A491"/>
<path d="M1734.17 770.25L1705.91 742.25C1705.91 742.25 1652.21 819.31 1624.97 832.68C1598.5 845.68 1510.35 840.94 1507.24 840.24C1496.68 837.83 1464.18 828.94 1464.18 828.94C1464.18 828.94 1436.94 1062.78 1472.43 1144.08C1484.01 1170.6 1556.02 1153.02 1556.02 1153.02C1556.02 1153.02 1533.8 1055.65 1532.61 1042.91C1531.48 1030.72 1525.3 934.15 1526.29 933.16C1528.89 930.57 1627.19 909.16 1654.14 888.67C1682.59 867.08 1734.17 770.25 1734.17 770.25Z" fill="#466EB6"/>
<path d="M362 982.45C410.47 1032.96 453 988.2 450.93 988.95C452.59 988.25 463.22 988.3 470.15 988.03C499.02 986.9 525.32 966.21 536.79 938.78C580 933.13 608.25 893.2 595.6 858.64C614.69 834.87 608.81 796.91 590.74 772.64C586.54 732.8 534.49 726.06 498.67 740.01C480.51 747.09 465.05 762.38 457.09 780.92C422.56 780.09 393.09 805.49 385.39 840.85C331.66 855.8 312.52 930.9 362 982.45Z" fill="#FF3B3B"/>
<path d="M673.37 1471.91C669.905 1490.31 664.945 1508.4 658.54 1526C657.97 1527.35 652.54 1532.31 651.94 1533.7C654.85 1566.96 676.04 1586.7 695.94 1600.81C691.63 1584.03 682.02 1564.81 683.26 1561.06C690.218 1538.06 698.909 1515.62 709.26 1493.93C692.75 1492.08 686.85 1482 673.37 1471.91Z" fill="#F7A491"/>
<path d="M612.77 1076.15L497.77 1154.67C497.77 1154.67 553.77 1191.04 572.98 1209.34C592.19 1227.64 694.93 1310.65 696.61 1314.84C697.85 1317.95 687.07 1357.31 662.36 1483.34C673.29 1494.51 697.36 1505.46 711.6 1509.07C741.48 1441.83 775.23 1301.94 771.44 1286.55C765.56 1262.67 612.77 1076.15 612.77 1076.15Z" fill="#355389"/>
<path d="M321.59 1234.18C324.96 1237.47 347.41 1281.18 355.95 1304.59C368.45 1296.72 376.01 1287.34 389.95 1282.04C378.95 1266.1 357.45 1227.73 355.68 1218.6C351.49 1196.93 346.57 1193.74 346.57 1193.74C346.57 1193.74 273.95 1218.31 269.11 1225.2C264.27 1232.09 308 1220.94 321.59 1234.18Z" fill="#F7A491"/>
<path d="M356.55 1223.41C362.18 1223.41 356.06 1197.96 354.77 1192.09C353.32 1185.49 349.49 1183.51 348.54 1183.28C345.97 1182.64 265.25 1209.95 251.61 1219.76C250.53 1220.71 249.578 1221.79 248.78 1222.99C241.31 1236.93 307.85 1239.58 317.43 1233.49C326 1228.07 331.2 1223.34 356.55 1223.41Z" fill="#3C8F7C"/>
<path d="M633.66 1100.71C633.66 1100.71 536.24 1062.35 534.97 1066.43C524.89 1098.92 493.5 1088.43 474.87 1145.66C467.06 1169.66 460.87 1232.89 455.66 1279.81C452.04 1312.05 446.99 1337.89 446.99 1337.89C446.99 1337.89 424.44 1304.53 381.99 1256.7C378.7 1253 344.42 1285.59 344.42 1285.59C412.04 1419.66 461.36 1438.59 472.14 1434.97C520.99 1418.46 585.76 1193.72 585.65 1193.74C593.59 1178.27 633.66 1100.71 633.66 1100.71Z" fill="#466EB6"/>
<path d="M483.31 873.55C483.31 873.55 367 873.4 342.1 872C319.57 870.7 230.18 873 226.69 872.57C223.2 872.14 200.09 833.03 196.25 837.24C192.41 841.45 209.1 856.64 203.94 860.58C198.78 864.52 143.3 855.69 144.04 859.79C145.41 867.47 177.78 866.49 177.75 870.2C177.72 873.91 143.87 868.12 141.58 874.27C139.29 880.42 174.13 876.78 175.52 879.52C176.91 882.26 143.2 887.29 146.65 893.01C148.52 896.12 176.52 887.82 176.38 892.01C176.24 896.2 155.82 905.87 158.33 909.25C160.84 912.63 174.33 898.9 186.21 898.73C198.09 898.56 206.55 892.37 225.46 897.56C234.8 900.12 306.12 908.84 366.37 913.99C428.15 919.27 478.78 920.99 478.78 920.99L483.31 873.55Z" fill="#F7A491"/>
<path d="M655.76 976.94C657.3 958.26 653.63 922.72 652.76 916.52C658.41 897.13 670.42 855.75 674.76 847.61C674.76 847.61 654.51 808.7 633.76 808.97C633.76 808.97 612.59 856.69 596.23 865.22C595.99 865.16 590.44 867.7 588 867.68C572.19 867.57 517 865.89 506.66 865.68L512.46 944.02C534.23 1001.73 530.26 1052.8 526.46 1070.59C524.32 1080.48 620.22 1110.19 634.96 1100.71C635.53 1100.36 652.64 1014.69 655.76 976.94Z" fill="#50BFA5"/>
<path d="M534.75 868.67C524.57 863.8 450.86 866.24 450.86 866.24C450.86 866.24 440.56 917.57 448.86 929.91C448.86 929.91 514.77 939.71 512.86 945.12L534.75 868.67Z" fill="#50BFA5"/>
<path d="M547.6 832.76C547.6 832.76 555.26 859.76 556.6 871.37C557.94 882.98 575.74 919.37 599.91 914.13C624.08 908.89 598.86 875.05 594.13 864.37C589.4 853.69 576.6 810.57 576.6 810.57L547.6 832.76Z" fill="#F7A491"/>
<path d="M582 828.25C579 818.42 576.63 810.57 576.63 810.57L547.63 832.76C547.63 832.76 549.04 837.76 550.76 844.3C566.09 846.38 576.59 839 582 828.25Z" fill="#F47257"/>
<path d="M526.54 752C518.313 757.287 512.242 765.336 509.42 774.7C504.98 790.12 510.87 829.7 544 838.7C577.13 847.7 591 816.2 583.81 791.77C576.62 767.34 561.42 736.55 526.54 752Z" fill="#F7A491"/>
<path d="M587.79 782.26C587.24 788.86 583.68 793.95 579.84 793.63C576 793.31 573.33 787.7 573.84 781.1C574.35 774.5 577.95 769.42 581.84 769.74C585.73 770.06 588.34 775.67 587.79 782.26Z" fill="#F7A491"/>
<path d="M658.29 1526.83C656.2 1521.59 635.16 1538.28 630.2 1541.66C624.62 1545.47 624.2 1549.75 624.34 1550.72C624.7 1553.28 678.24 1619.22 693.89 1628.33C695.626 1629.08 697.553 1629.27 699.4 1628.86C708.1 1625.51 693.94 1571.56 682.52 1560.91C675.14 1554 667.66 1550.38 658.29 1526.83Z" fill="#3C8F7C"/>
<path d="M530.37 750C530.37 750 525.04 794.29 510.86 802.48C496.68 810.67 502.96 830.18 502.96 830.18C502.96 830.18 489.33 784.8 500.42 770C511.51 755.2 530.37 750 530.37 750Z" fill="#FF3B3B"/>
<path d="M519.42 808.66C523.42 814.36 523.42 821.15 519.61 823.83C515.8 826.51 509.42 824.05 505.46 818.35C501.5 812.65 501.46 805.86 505.27 803.18C509.08 800.5 515.46 803 519.42 808.66Z" fill="#F7A491"/>
<path d="M1119.72 390.63C1101.65 394.19 1029.42 490.97 1029.42 490.97L1026.88 497.66C1026.88 497.66 1157.55 483.13 1162.28 477.55C1175.06 462.47 1134.58 387.71 1119.72 390.63ZM1030.34 493C1054.18 462.52 1108.51 418 1120.25 408.57C1130.73 419.26 1146.53 450.83 1148.61 465.09C1133.6 468.21 1068.46 488.42 1030.34 493Z" fill="#82C7E6"/>
<path d="M944.68 407.15C909.13 383.96 899.37 384.15 889.01 390.01C878.65 395.87 840.46 450.68 857.53 467.78C874.6 484.88 1010 497.06 1010 497.06L1013.06 488.77C1013.06 488.77 980.22 430.34 944.68 407.15ZM881.06 461.75C873.16 453.87 892.82 421.06 901.78 414.08C904.07 412.79 995.17 470.77 1007.88 490.56C957 485.06 888.41 468.28 881.06 461.75V461.75Z" fill="#82C7E6"/>
<path d="M1018.72 472.98H1011.09C1003.54 472.98 997.42 479.1 997.42 486.65V509.07C997.42 516.62 1003.54 522.74 1011.09 522.74H1018.72C1026.27 522.74 1032.39 516.62 1032.39 509.07V486.65C1032.39 479.1 1026.27 472.98 1018.72 472.98Z" fill="#82C7E6"/>
<path d="M1300 498.08L680.53 496.22C676.651 496.209 672.815 497.038 669.286 498.649C665.758 500.26 662.619 502.615 660.087 505.554C657.554 508.492 655.687 511.944 654.614 515.671C653.541 519.399 653.287 523.315 653.87 527.15L663.46 590.36L694.51 590.3L713.22 908.41C713.699 916.608 717.293 924.313 723.265 929.949C729.238 935.585 737.138 938.726 745.35 938.73H1239.79L1260.36 589.13L1289.61 589.07L1300 498.08Z" fill="#B32323"/>
<path d="M684.24 597.81L684.38 590.17C678.45 587.85 671.45 588.6 667.99 587.66L659.69 581.54C657.94 580.78 655.48 582.69 655.5 584.59C655.52 586.49 657.85 590.09 659.03 591.03C659.03 591.03 673.89 603.27 679.11 607.03C681.7 608.87 689.83 613.84 689.83 613.84L694.57 604.97L684.24 597.81Z" fill="#F7A491"/>
<path d="M1250.33 938.73H870.81L850.49 504.67H1301.4L1282.49 908.55C1281.7 925.43 1267.54 938.73 1250.33 938.73Z" fill="#FF3B3B"/>
<path d="M1320 589.28L830.5 590.58L819.32 496.4L1298.85 498.23C1302.57 498.244 1306.25 499.032 1309.65 500.542C1313.06 502.053 1316.11 504.254 1318.62 507.006C1321.12 509.757 1323.03 513 1324.22 516.528C1325.41 520.056 1325.85 523.792 1325.52 527.5L1320 589.28Z" fill="#FF3B3B"/>
<path d="M830.52 590.58L1297.4 589.28L845.32 613.96L830.52 590.58Z" fill="#B32323"/>
<path d="M1027.19 497.13H1014.2V590.15H1027.19V497.13Z" fill="#82C7E6"/>
<path d="M676.16 314.7C713.531 329.371 751.71 341.895 790.51 352.21C802.22 355.32 821.62 364.21 832.4 356.29C838 352.19 840.35 346.02 837.06 339.45C831.06 327.45 812.36 326.56 800.56 323.45C764.56 313.87 724.35 301.32 684.41 286.28C676.92 283.46 668.16 289.12 666.06 296.38C663.66 304.63 668.68 311.83 676.16 314.73V314.7Z" fill="#DEF0F8"/>
<path d="M952.92 248.26C940.17 150.57 941 150.32 935.59 141.1C930.04 131.65 914.84 132.95 911.84 143.88C908.84 154.81 909.56 152.97 923.37 255.71C924.47 263.88 934.52 268.61 941.87 266.76C950.63 264.56 954 256.46 952.92 248.26Z" fill="#DEF0F8"/>
<path d="M1110 260.81C1119.65 247.794 1127.86 233.776 1134.5 219C1140.71 205.25 1152.07 185 1141.42 171.38C1139.13 168.45 1133.74 167.06 1130.29 168.25C1115.84 173.25 1113.08 193.49 1107.29 206.15C1100.89 219.934 1093.31 233.145 1084.66 245.64C1080.17 252.22 1083.2 261.95 1089.76 265.87C1097.15 270.29 1105.22 267.2 1109.98 260.78L1110 260.81Z" fill="#DEF0F8"/>
<path d="M1327.45 335.06C1331.82 329.06 1328.15 321.28 1323.02 317.44C1312.44 309.55 1293.78 316.83 1282.25 320.01C1268.86 323.796 1255.79 328.655 1243.18 334.54C1235.88 337.89 1233.86 348.25 1237.58 354.82C1241.92 362.5 1250.41 363.52 1257.85 360.42C1306.46 340.18 1316.66 349.87 1327.45 335.06Z" fill="#DEF0F8"/>
<path d="M847.464 788.993V782.441C841.961 781.817 837.48 779.888 834.02 776.655C830.559 773.421 828.772 769.082 828.659 763.636H840.146C840.259 765.905 840.94 767.891 842.188 769.592C843.493 771.294 845.251 772.457 847.464 773.081V755.127C846.953 754.957 846.414 754.787 845.847 754.617C845.337 754.446 844.798 754.276 844.23 754.106C839.635 752.518 836.118 750.476 833.679 747.98C831.297 745.484 830.105 742.165 830.105 738.024C830.049 733.146 831.637 729.231 834.87 726.282C838.104 723.275 842.302 721.545 847.464 721.091V714.199H853.165V721.176C858.27 721.687 862.383 723.474 865.503 726.537C868.68 729.543 870.353 733.429 870.523 738.194H858.866C858.809 736.549 858.27 735.046 857.249 733.684C856.285 732.266 854.923 731.274 853.165 730.706V746.533C853.619 746.703 854.072 746.873 854.526 747.044C854.98 747.157 855.434 747.299 855.888 747.469C858.837 748.49 861.532 749.681 863.971 751.043C866.41 752.404 868.368 754.219 869.842 756.489C871.317 758.701 872.055 761.566 872.055 765.083C872.055 768.032 871.317 770.784 869.842 773.336C868.424 775.889 866.297 778.016 863.461 779.718C860.681 781.363 857.249 782.299 853.165 782.526V788.993H847.464ZM841.507 737.258C841.507 739.073 842.046 740.548 843.124 741.683C844.202 742.761 845.649 743.697 847.464 744.491V730.366C845.705 730.706 844.259 731.472 843.124 732.663C842.046 733.855 841.507 735.386 841.507 737.258ZM860.483 765.848C860.483 763.579 859.802 761.792 858.44 760.488C857.079 759.183 855.32 758.077 853.165 757.169V773.336C855.434 772.996 857.221 772.173 858.525 770.869C859.83 769.564 860.483 767.891 860.483 765.848ZM901.043 782.611C897.129 782.611 893.584 781.93 890.407 780.569C887.23 779.151 884.678 776.995 882.749 774.102C880.82 771.209 879.799 767.579 879.686 763.211H890.407C890.464 766.104 891.4 768.543 893.215 770.528C895.087 772.457 897.696 773.421 901.043 773.421C904.22 773.421 906.659 772.542 908.361 770.784C910.063 769.025 910.914 766.813 910.914 764.147C910.914 761.027 909.779 758.673 907.51 757.084C905.298 755.439 902.433 754.617 898.916 754.617H894.491V745.682H899.001C901.894 745.682 904.305 745.001 906.234 743.64C908.162 742.279 909.127 740.265 909.127 737.599C909.127 735.386 908.389 733.628 906.914 732.323C905.496 730.962 903.511 730.281 900.958 730.281C898.179 730.281 895.995 731.103 894.406 732.748C892.875 734.394 892.024 736.407 891.853 738.79H881.217C881.444 733.287 883.344 728.948 886.918 725.771C890.549 722.594 895.229 721.006 900.958 721.006C905.042 721.006 908.474 721.743 911.254 723.218C914.09 724.637 916.218 726.537 917.636 728.919C919.111 731.302 919.848 733.94 919.848 736.833C919.848 740.18 918.912 743.016 917.04 745.342C915.225 747.611 912.956 749.142 910.233 749.937C913.58 750.617 916.303 752.262 918.402 754.872C920.5 757.425 921.55 760.658 921.55 764.572C921.55 767.862 920.756 770.869 919.167 773.592C917.579 776.315 915.253 778.498 912.19 780.144C909.183 781.789 905.468 782.611 901.043 782.611ZM956.667 782.611C951.164 782.611 946.456 781.335 942.542 778.782C938.628 776.173 935.593 772.571 933.437 767.976C931.338 763.324 930.289 757.935 930.289 751.809C930.289 745.739 931.338 740.378 933.437 735.727C935.593 731.075 938.628 727.473 942.542 724.92C946.456 722.311 951.164 721.006 956.667 721.006C962.169 721.006 966.878 722.311 970.792 724.92C974.706 727.473 977.712 731.075 979.811 735.727C981.967 740.378 983.045 745.739 983.045 751.809C983.045 757.935 981.967 763.324 979.811 767.976C977.712 772.571 974.706 776.173 970.792 778.782C966.878 781.335 962.169 782.611 956.667 782.611ZM956.667 772.826C961.148 772.826 964.807 770.954 967.643 767.21C970.48 763.466 971.898 758.332 971.898 751.809C971.898 745.285 970.48 740.151 967.643 736.407C964.807 732.663 961.148 730.791 956.667 730.791C952.129 730.791 948.441 732.663 945.605 736.407C942.825 740.151 941.436 745.285 941.436 751.809C941.436 758.332 942.825 763.466 945.605 767.21C948.441 770.954 952.129 772.826 956.667 772.826ZM985.486 791.461L990.336 770.273H1000.89L992.633 791.461H985.486ZM1034.2 782.611C1028.69 782.611 1023.98 781.335 1020.07 778.782C1016.16 776.173 1013.12 772.571 1010.97 767.976C1008.87 763.324 1007.82 757.935 1007.82 751.809C1007.82 745.739 1008.87 740.378 1010.97 735.727C1013.12 731.075 1016.16 727.473 1020.07 724.92C1023.98 722.311 1028.69 721.006 1034.2 721.006C1039.7 721.006 1044.41 722.311 1048.32 724.92C1052.23 727.473 1055.24 731.075 1057.34 735.727C1059.5 740.378 1060.57 745.739 1060.57 751.809C1060.57 757.935 1059.5 763.324 1057.34 767.976C1055.24 772.571 1052.23 776.173 1048.32 778.782C1044.41 781.335 1039.7 782.611 1034.2 782.611ZM1034.2 772.826C1038.68 772.826 1042.34 770.954 1045.17 767.21C1048.01 763.466 1049.43 758.332 1049.43 751.809C1049.43 745.285 1048.01 740.151 1045.17 736.407C1042.34 732.663 1038.68 730.791 1034.2 730.791C1029.66 730.791 1025.97 732.663 1023.13 736.407C1020.35 740.151 1018.96 745.285 1018.96 751.809C1018.96 758.332 1020.35 763.466 1023.13 767.21C1025.97 770.954 1029.66 772.826 1034.2 772.826ZM1094.61 782.611C1089.1 782.611 1084.39 781.335 1080.48 778.782C1076.57 776.173 1073.53 772.571 1071.38 767.976C1069.28 763.324 1068.23 757.935 1068.23 751.809C1068.23 745.739 1069.28 740.378 1071.38 735.727C1073.53 731.075 1076.57 727.473 1080.48 724.92C1084.39 722.311 1089.1 721.006 1094.61 721.006C1100.11 721.006 1104.82 722.311 1108.73 724.92C1112.64 727.473 1115.65 731.075 1117.75 735.727C1119.91 740.378 1120.98 745.739 1120.98 751.809C1120.98 757.935 1119.91 763.324 1117.75 767.976C1115.65 772.571 1112.64 776.173 1108.73 778.782C1104.82 781.335 1100.11 782.611 1094.61 782.611ZM1094.61 772.826C1099.09 772.826 1102.75 770.954 1105.58 767.21C1108.42 763.466 1109.84 758.332 1109.84 751.809C1109.84 745.285 1108.42 740.151 1105.58 736.407C1102.75 732.663 1099.09 730.791 1094.61 730.791C1090.07 730.791 1086.38 732.663 1083.54 736.407C1080.76 740.151 1079.37 745.285 1079.37 751.809C1079.37 758.332 1080.76 763.466 1083.54 767.21C1086.38 770.954 1090.07 772.826 1094.61 772.826ZM1155.02 782.611C1149.51 782.611 1144.81 781.335 1140.89 778.782C1136.98 776.173 1133.94 772.571 1131.79 767.976C1129.69 763.324 1128.64 757.935 1128.64 751.809C1128.64 745.739 1129.69 740.378 1131.79 735.727C1133.94 731.075 1136.98 727.473 1140.89 724.92C1144.81 722.311 1149.51 721.006 1155.02 721.006C1160.52 721.006 1165.23 722.311 1169.14 724.92C1173.06 727.473 1176.06 731.075 1178.16 735.727C1180.32 740.378 1181.39 745.739 1181.39 751.809C1181.39 757.935 1180.32 763.324 1178.16 767.976C1176.06 772.571 1173.06 776.173 1169.14 778.782C1165.23 781.335 1160.52 782.611 1155.02 782.611ZM1155.02 772.826C1159.5 772.826 1163.16 770.954 1165.99 767.21C1168.83 763.466 1170.25 758.332 1170.25 751.809C1170.25 745.285 1168.83 740.151 1165.99 736.407C1163.16 732.663 1159.5 730.791 1155.02 730.791C1150.48 730.791 1146.79 732.663 1143.95 736.407C1141.17 740.151 1139.79 745.285 1139.79 751.809C1139.79 758.332 1141.17 763.466 1143.95 767.21C1146.79 770.954 1150.48 772.826 1155.02 772.826Z" fill="#FFA3A3"/>
<path d="M1068.12 589.71H1051.88V939.38H1068.12V589.71Z" fill="#82C7E6"/>
</svg>
