<svg width="503" height="503" viewBox="0 0 503 503" fill="none" xmlns="http://www.w3.org/2000/svg">
<path opacity="0.3" d="M281.465 199.196L437.916 289.565V371.102L295.291 288.671L281.518 293.192L281.465 199.196Z" fill="url(#paint0_linear)"/>
<path fill-rule="evenodd" clip-rule="evenodd" d="M313.271 244.88C313.271 251.609 309.275 254.763 304.386 251.924C299.497 249.085 295.502 241.357 295.502 234.628C295.502 227.899 299.497 224.745 304.386 227.584C309.275 230.37 313.271 238.151 313.271 244.88Z" fill="#A365FF"/>
<path fill-rule="evenodd" clip-rule="evenodd" d="M313.271 244.88C313.271 251.609 309.275 254.763 304.386 251.924C299.497 249.085 295.502 241.357 295.502 234.628C295.502 227.899 299.497 224.745 304.386 227.584C309.275 230.37 313.271 238.151 313.271 244.88Z" fill="url(#paint1_linear)"/>
<path fill-rule="evenodd" clip-rule="evenodd" d="M313.271 244.88C313.271 251.609 309.275 254.763 304.386 251.924C299.497 249.085 295.502 241.357 295.502 234.628C295.502 227.899 299.497 224.745 304.386 227.584C309.275 230.37 313.271 238.151 313.271 244.88Z" fill="url(#paint2_linear)"/>
<path opacity="0.15" d="M321.682 242.251L355.958 262.07V269.22L321.682 249.401V242.251Z" fill="white"/>
<path opacity="0.15" d="M321.682 256.603L424.037 315.745V322.895L321.682 263.753V256.603Z" fill="white"/>
<path opacity="0.15" d="M321.682 270.902L401.747 317.165V324.314L321.682 278.052V270.902Z" fill="white"/>
<path opacity="0.3" d="M167.808 90.4268L255.916 141.263V304.495L167.808 253.659V90.4268Z" fill="url(#paint3_linear)"/>
<path opacity="0.15" d="M176.482 187.315L247.242 228.162V235.312L176.482 194.465V187.315Z" fill="white"/>
<path opacity="0.15" d="M181.423 204.085L242.247 239.202V246.352L181.423 211.234V204.085Z" fill="white"/>
<path fill-rule="evenodd" clip-rule="evenodd" d="M207.13 233.314L145.833 197.934V216.176L207.13 251.556V233.314Z" fill="#A365FF"/>
<path fill-rule="evenodd" clip-rule="evenodd" d="M207.13 233.314L145.833 197.934V216.176L207.13 251.556V233.314Z" fill="url(#paint4_linear)"/>
<path fill-rule="evenodd" clip-rule="evenodd" d="M207.13 233.314L145.833 197.934V216.176L207.13 251.556V233.314Z" fill="url(#paint5_linear)"/>
<path fill-rule="evenodd" clip-rule="evenodd" d="M221.903 154.563C221.903 162.449 217.329 166.181 211.704 162.922C206.079 159.662 201.505 150.568 201.505 142.629C201.505 134.744 206.079 131.011 211.704 134.271C217.329 137.635 221.903 146.677 221.903 154.563ZM211.704 169.283C202.609 163.973 195.092 168.967 193.777 180.375C193.567 182.373 195.039 185.001 196.879 186.053L226.529 203.401C228.369 204.453 229.841 203.611 229.631 201.351C228.316 188.366 220.799 174.592 211.704 169.283Z" fill="url(#paint6_linear)"/>
<path opacity="0.3" d="M228.947 285.937L317.056 336.773V500.005L228.947 449.169V285.937Z" fill="url(#paint7_linear)"/>
<path opacity="0.15" d="M237.568 382.825L308.329 423.672V430.822L237.568 389.974V382.825Z" fill="white"/>
<path opacity="0.15" d="M242.51 399.595L303.335 434.712V441.862L242.51 406.744V399.595Z" fill="white"/>
<path fill-rule="evenodd" clip-rule="evenodd" d="M338.873 469.567L277.575 434.187V452.429L338.873 487.809V469.567Z" fill="url(#paint8_linear)"/>
<path fill-rule="evenodd" clip-rule="evenodd" d="M338.873 469.567L277.575 434.187V452.429L338.873 487.809V469.567Z" fill="url(#paint9_linear)"/>
<path fill-rule="evenodd" clip-rule="evenodd" d="M282.99 350.073C282.99 357.959 278.416 361.692 272.791 358.432C267.166 355.12 262.592 346.078 262.592 338.14C262.592 330.254 267.166 326.522 272.791 329.781C278.416 333.093 282.99 342.188 282.99 350.073ZM272.791 364.793C263.696 359.484 256.179 364.478 254.864 375.886C254.654 377.883 256.126 380.512 257.966 381.563L287.616 398.912C289.456 399.963 290.928 399.122 290.718 396.861C289.403 383.876 281.886 370.103 272.791 364.793Z" fill="#A365FF"/>
<path fill-rule="evenodd" clip-rule="evenodd" d="M282.99 350.073C282.99 357.959 278.416 361.692 272.791 358.432C267.166 355.12 262.592 346.078 262.592 338.14C262.592 330.254 267.166 326.522 272.791 329.781C278.416 333.093 282.99 342.188 282.99 350.073ZM272.791 364.793C263.696 359.484 256.179 364.478 254.864 375.886C254.654 377.883 256.126 380.512 257.966 381.563L287.616 398.912C289.456 399.963 290.928 399.122 290.718 396.861C289.403 383.876 281.886 370.103 272.791 364.793Z" fill="url(#paint10_linear)"/>
<path fill-rule="evenodd" clip-rule="evenodd" d="M282.99 350.073C282.99 357.959 278.416 361.692 272.791 358.432C267.166 355.12 262.592 346.078 262.592 338.14C262.592 330.254 267.166 326.522 272.791 329.781C278.416 333.093 282.99 342.188 282.99 350.073ZM272.791 364.793C263.696 359.484 256.179 364.478 254.864 375.886C254.654 377.883 256.126 380.512 257.966 381.563L287.616 398.912C289.456 399.963 290.928 399.122 290.718 396.861C289.403 383.876 281.886 370.103 272.791 364.793Z" fill="url(#paint11_linear)"/>
<path opacity="0.3" d="M203.45 271.69L47 181.321V262.858L189.677 345.237L203.503 365.687L203.45 271.69Z" fill="url(#paint12_linear)"/>
<path fill-rule="evenodd" clip-rule="evenodd" d="M171.645 280.628C171.645 287.357 175.641 295.085 180.53 297.923C185.419 300.762 189.414 297.608 189.414 290.879C189.414 284.15 185.419 276.422 180.53 273.583C175.641 270.744 171.645 273.899 171.645 280.628Z" fill="#A365FF"/>
<path fill-rule="evenodd" clip-rule="evenodd" d="M171.645 280.628C171.645 287.357 175.641 295.085 180.53 297.923C185.419 300.762 189.414 297.608 189.414 290.879C189.414 284.15 185.419 276.422 180.53 273.583C175.641 270.744 171.645 273.899 171.645 280.628Z" fill="url(#paint13_linear)"/>
<path fill-rule="evenodd" clip-rule="evenodd" d="M171.645 280.628C171.645 287.357 175.641 295.085 180.53 297.923C185.419 300.762 189.414 297.608 189.414 290.879C189.414 284.15 185.419 276.422 180.53 273.583C175.641 270.744 171.645 273.899 171.645 280.628Z" fill="url(#paint14_linear)"/>
<path opacity="0.15" d="M163.234 268.274L128.958 248.507V255.657L163.234 275.476V268.274Z" fill="white"/>
<path opacity="0.15" d="M163.234 282.625L60.8787 223.483V230.633L163.234 289.775V282.625Z" fill="white"/>
<path opacity="0.15" d="M163.234 296.977L83.1687 250.715V257.864L163.234 304.127V296.977Z" fill="white"/>
<path opacity="0.4" d="M434.972 70.4496C346.232 19.1932 273.685 79.9123 273.685 207.344L251.027 194.254C251.079 50.315 333.142 -19.7092 434.972 39.0649V70.4496Z" fill="url(#paint15_linear)"/>
<path opacity="0.4" d="M360.952 257.812C360.952 201.246 394.071 174.487 434.919 198.039V166.654C381.56 135.848 338.294 170.807 338.294 244.722L360.952 257.812Z" fill="url(#paint16_linear)"/>
<path opacity="0.4" d="M316.793 231.737C316.793 141.421 369.679 98.7332 434.814 136.374V104.989C357.168 60.1462 294.135 111.035 294.135 218.647L316.793 231.737Z" fill="url(#paint17_linear)"/>
<path opacity="0.4" d="M413.417 288.04C425.298 294.927 434.919 287.094 434.919 270.639C434.919 254.185 425.298 235.259 413.417 228.372C401.536 221.486 391.916 229.319 391.916 245.773C391.916 262.281 401.536 281.153 413.417 288.04Z" fill="url(#paint18_linear)"/>
<path opacity="0.07" d="M456 55.2045C367.208 3.94806 294.713 64.6672 294.713 192.099L272.055 179.009C272.108 35.0699 354.171 -34.9543 456 23.8198V55.2045Z" fill="url(#paint19_linear)"/>
<path opacity="0.07" d="M381.981 242.567C381.981 186.001 415.1 159.242 455.948 182.794V151.409C402.588 120.603 359.323 155.562 359.323 229.477L381.981 242.567Z" fill="url(#paint20_linear)"/>
<path opacity="0.07" d="M337.821 216.491C337.821 126.175 390.707 83.4873 455.842 121.128V89.7432C378.195 44.9004 315.163 95.7889 315.163 203.401L337.821 216.491Z" fill="url(#paint21_linear)"/>
<path opacity="0.07" d="M434.446 272.795C446.327 279.681 455.948 271.848 455.948 255.394C455.948 238.939 446.327 220.014 434.446 213.127C422.565 206.24 412.945 214.073 412.945 230.528C412.945 247.035 422.565 265.908 434.446 272.795Z" fill="url(#paint22_linear)"/>
<path opacity="0.2" d="M365.579 354.437C368.733 356.225 371.256 360.641 371.256 364.268V380.302L381.875 386.4C385.03 388.188 387.553 392.604 387.553 396.284C387.553 399.911 385.03 401.383 381.875 399.596L371.256 393.497V409.531C371.256 413.159 368.733 414.631 365.579 412.843C362.424 411.056 359.901 406.64 359.901 402.96V386.926L349.282 380.828C346.127 379.04 343.604 374.625 343.604 370.997C343.604 367.37 346.127 365.898 349.282 367.685L359.901 373.783V357.749C359.901 354.122 362.424 352.65 365.579 354.437Z" fill="url(#paint23_linear)"/>
<path opacity="0.2" d="M115.079 125.439L129.694 154.143C131.692 158.085 131.376 162.028 128.958 162.974C126.54 163.921 122.965 161.45 120.967 157.507L120.809 157.139V188.997C120.809 192.624 118.286 194.096 115.132 192.309C111.978 190.469 109.454 186.106 109.454 182.478V150.62L109.296 150.778C107.299 152.408 103.671 150.725 101.306 146.993C98.8874 143.26 98.572 138.95 100.57 137.32L115.079 125.439Z" fill="url(#paint24_linear)"/>
<defs>
<linearGradient id="paint0_linear" x1="350.616" y1="201.848" x2="370.686" y2="365.463" gradientUnits="userSpaceOnUse">
<stop stop-color="white"/>
<stop offset="1" stop-color="white" stop-opacity="0"/>
</linearGradient>
<linearGradient id="paint1_linear" x1="304.386" y1="226.541" x2="323.853" y2="284.774" gradientUnits="userSpaceOnUse">
<stop stop-color="#8C3EFF"/>
<stop offset="1" stop-color="#F9F5FF"/>
</linearGradient>
<linearGradient id="paint2_linear" x1="300.853" y1="226.409" x2="308.228" y2="257.331" gradientUnits="userSpaceOnUse">
<stop stop-color="#4DDFD2"/>
<stop offset="1" stop-color="#3FAECA"/>
</linearGradient>
<linearGradient id="paint3_linear" x1="220.924" y1="104.791" x2="158.947" y2="212.16" gradientUnits="userSpaceOnUse">
<stop stop-color="white"/>
<stop offset="1" stop-color="white" stop-opacity="0"/>
</linearGradient>
<linearGradient id="paint4_linear" x1="176.481" y1="197.934" x2="201.35" y2="324.409" gradientUnits="userSpaceOnUse">
<stop stop-color="#8C3EFF"/>
<stop offset="1" stop-color="#F9F5FF"/>
</linearGradient>
<linearGradient id="paint5_linear" x1="164.291" y1="197.667" x2="173.414" y2="262.7" gradientUnits="userSpaceOnUse">
<stop stop-color="#4DDFD2"/>
<stop offset="1" stop-color="#3FAECA"/>
</linearGradient>
<linearGradient id="paint6_linear" x1="204.566" y1="132.74" x2="229.715" y2="212.293" gradientUnits="userSpaceOnUse">
<stop stop-color="#4DDFD2"/>
<stop offset="1" stop-color="#3FAECA"/>
</linearGradient>
<linearGradient id="paint7_linear" x1="282.062" y1="300.312" x2="220.087" y2="407.684" gradientUnits="userSpaceOnUse">
<stop stop-color="white"/>
<stop offset="1" stop-color="white" stop-opacity="0"/>
</linearGradient>
<linearGradient id="paint8_linear" x1="308.224" y1="434.187" x2="333.092" y2="560.662" gradientUnits="userSpaceOnUse">
<stop stop-color="#8C3EFF"/>
<stop offset="1" stop-color="#F9F5FF"/>
</linearGradient>
<linearGradient id="paint9_linear" x1="296.034" y1="433.919" x2="305.157" y2="498.952" gradientUnits="userSpaceOnUse">
<stop stop-color="#4DDFD2"/>
<stop offset="1" stop-color="#3FAECA"/>
</linearGradient>
<linearGradient id="paint10_linear" x1="272.791" y1="328.603" x2="336.994" y2="473.499" gradientUnits="userSpaceOnUse">
<stop stop-color="#8C3EFF"/>
<stop offset="1" stop-color="#F9F5FF"/>
</linearGradient>
<linearGradient id="paint11_linear" x1="265.653" y1="328.25" x2="290.802" y2="407.803" gradientUnits="userSpaceOnUse">
<stop stop-color="#4DDFD2"/>
<stop offset="1" stop-color="#3FAECA"/>
</linearGradient>
<linearGradient id="paint12_linear" x1="157.015" y1="239.007" x2="90.2327" y2="291.27" gradientUnits="userSpaceOnUse">
<stop stop-color="white"/>
<stop offset="1" stop-color="white" stop-opacity="0"/>
</linearGradient>
<linearGradient id="paint13_linear" x1="180.53" y1="272.54" x2="199.996" y2="330.773" gradientUnits="userSpaceOnUse">
<stop stop-color="#8C3EFF"/>
<stop offset="1" stop-color="#F9F5FF"/>
</linearGradient>
<linearGradient id="paint14_linear" x1="176.996" y1="272.408" x2="184.371" y2="303.33" gradientUnits="userSpaceOnUse">
<stop stop-color="#4DDFD2"/>
<stop offset="1" stop-color="#3FAECA"/>
</linearGradient>
<linearGradient id="paint15_linear" x1="400.447" y1="15.0418" x2="272.705" y2="164.096" gradientUnits="userSpaceOnUse">
<stop stop-color="white"/>
<stop offset="1" stop-color="white" stop-opacity="0"/>
</linearGradient>
<linearGradient id="paint16_linear" x1="473.617" y1="84.1151" x2="348.921" y2="229.616" gradientUnits="userSpaceOnUse">
<stop stop-color="white"/>
<stop offset="1" stop-color="white" stop-opacity="0"/>
</linearGradient>
<linearGradient id="paint17_linear" x1="442.171" y1="49.8007" x2="313.268" y2="200.212" gradientUnits="userSpaceOnUse">
<stop stop-color="white"/>
<stop offset="1" stop-color="white" stop-opacity="0"/>
</linearGradient>
<linearGradient id="paint18_linear" x1="464.731" y1="122.797" x2="364.89" y2="239.295" gradientUnits="userSpaceOnUse">
<stop stop-color="white"/>
<stop offset="1" stop-color="white" stop-opacity="0"/>
</linearGradient>
<linearGradient id="paint19_linear" x1="421.475" y1="-0.203323" x2="293.733" y2="148.851" gradientUnits="userSpaceOnUse">
<stop stop-color="white"/>
<stop offset="1" stop-color="white" stop-opacity="0"/>
</linearGradient>
<linearGradient id="paint20_linear" x1="494.645" y1="68.8707" x2="369.949" y2="214.372" gradientUnits="userSpaceOnUse">
<stop stop-color="white"/>
<stop offset="1" stop-color="white" stop-opacity="0"/>
</linearGradient>
<linearGradient id="paint21_linear" x1="463.198" y1="34.5549" x2="334.294" y2="184.966" gradientUnits="userSpaceOnUse">
<stop stop-color="white"/>
<stop offset="1" stop-color="white" stop-opacity="0"/>
</linearGradient>
<linearGradient id="paint22_linear" x1="485.76" y1="107.551" x2="385.92" y2="224.049" gradientUnits="userSpaceOnUse">
<stop stop-color="white"/>
<stop offset="1" stop-color="white" stop-opacity="0"/>
</linearGradient>
<linearGradient id="paint23_linear" x1="371.495" y1="374.96" x2="351.808" y2="390.497" gradientUnits="userSpaceOnUse">
<stop stop-color="white"/>
<stop offset="1" stop-color="white" stop-opacity="0"/>
</linearGradient>
<linearGradient id="paint24_linear" x1="117.417" y1="154.387" x2="106.613" y2="160.41" gradientUnits="userSpaceOnUse">
<stop stop-color="white"/>
<stop offset="1" stop-color="white" stop-opacity="0"/>
</linearGradient>
</defs>
</svg>
