<svg width="2700" height="867" viewBox="0 0 2700 867" fill="none" xmlns="http://www.w3.org/2000/svg">
<path d="M1338.51 195.809H1171.78V613.612H1130.83V195.809H964.521V163.76H1338.51V195.809ZM1492.58 620.256C1461.77 620.256 1433.91 613.221 1409.43 599.151C1384.94 585.081 1365.1 565.539 1351.6 540.526C1337.67 515.512 1330.91 487.372 1330.91 456.496V443.208C1330.91 411.159 1337.67 382.237 1351.17 356.442C1364.68 330.647 1383.25 310.323 1407.31 295.863C1431.38 281.402 1457.55 273.585 1485.41 273.585C1529.3 273.585 1563.92 287.264 1589.67 315.014C1615.41 342.763 1628.08 380.674 1628.08 428.747V449.461H1370.17V456.496C1370.17 494.407 1381.99 526.065 1405.2 551.078C1428.84 576.483 1458.39 588.989 1493.85 588.989C1515.37 588.989 1533.95 585.472 1550.41 578.046C1566.87 571.011 1581.65 559.286 1595.15 543.261L1620.06 560.849C1591.35 600.323 1548.72 620.256 1492.58 620.256V620.256ZM1485.41 304.852C1455.44 304.852 1430.11 315.014 1409.43 335.337C1388.74 355.66 1376.5 383.019 1371.86 417.412H1588.4V413.504C1587.13 381.456 1577.43 355.27 1558.85 334.946C1540.28 314.623 1515.8 304.852 1485.41 304.852V304.852ZM1746.27 582.736H1980.96V614.003H1696.88V586.644L1915.96 311.496H1703.64V279.447H1966.19V307.197L1746.27 582.736ZM2038.37 441.644C2038.37 409.596 2045.12 380.674 2058.63 354.879C2072.14 329.084 2091.13 309.151 2115.62 294.69C2140.1 280.229 2167.96 273.194 2199.19 273.194C2247.31 273.194 2286.15 288.828 2316.12 320.094C2346.09 351.361 2360.86 392.79 2360.86 444.38V452.197C2360.86 484.636 2354.11 513.558 2340.6 539.353C2327.09 565.148 2308.1 585.081 2283.62 599.151C2259.13 613.221 2231.27 620.256 2200.04 620.256C2152.34 620.256 2113.08 604.623 2083.11 573.356C2053.14 542.089 2038.37 500.66 2038.37 449.07V441.644ZM2078.47 451.806C2078.47 491.671 2089.87 524.501 2111.82 550.297C2134.19 576.092 2163.31 588.598 2199.62 588.598C2235.49 588.598 2265.04 575.701 2287.41 550.297C2309.79 524.501 2320.76 490.89 2320.76 448.679V441.644C2320.76 416.24 2315.7 392.79 2305.57 371.294C2295.43 350.189 2281.08 333.774 2262.51 322.049C2243.94 310.323 2222.83 304.461 2199.19 304.461C2163.74 304.461 2134.61 317.359 2111.82 343.154C2089.44 368.949 2078.05 402.952 2078.05 444.771L2078.47 451.806ZM2659.72 528.801C2659.72 510.431 2651.7 495.58 2635.65 484.636C2619.61 473.693 2595.98 464.704 2563.47 458.45C2530.97 452.197 2506.49 444.771 2488.76 436.954C2471.03 428.747 2457.95 418.976 2449.5 407.251C2441.06 395.526 2436.42 381.456 2436.42 364.65C2436.42 338.073 2448.24 316.577 2472.3 299.38C2495.94 282.183 2526.75 273.585 2563.9 273.585C2604 273.585 2636.5 282.965 2660.98 301.334C2685.46 319.704 2697.71 343.935 2697.71 373.639H2657.6C2657.6 354.097 2648.74 337.682 2631.01 324.784C2613.28 311.887 2590.91 305.243 2563.9 305.243C2537.73 305.243 2516.62 310.714 2500.58 321.267C2484.54 332.21 2476.52 346.28 2476.52 363.477C2476.52 380.283 2483.27 393.181 2496.36 402.17C2509.44 411.159 2533.93 419.757 2568.96 427.574C2604 435.391 2630.17 443.208 2647.9 451.806C2665.2 460.404 2678.29 470.957 2686.73 483.073C2695.17 495.189 2699.39 510.04 2699.39 527.237C2699.39 555.377 2687.15 578.046 2662.67 594.852C2638.19 611.658 2606.11 620.256 2566.43 620.256C2524.22 620.256 2490.03 610.876 2464.28 592.116C2438.11 573.356 2425.02 549.515 2425.02 520.593H2465.12C2466.81 542.089 2476.52 558.895 2494.67 571.011C2512.82 583.127 2536.88 588.989 2566.85 588.989C2594.71 588.989 2617.08 583.127 2634.39 572.183C2651.27 560.458 2659.72 545.997 2659.72 528.801V528.801ZM669.467 639.016C659.758 479.946 443.638 407.642 422.954 400.216C422.11 399.825 422.11 399.043 422.532 398.261L645.406 191.119V168.841C645.406 165.323 642.029 162.197 638.23 162.197H227.517V0L75.9798 29.3127V50.4178H84.422C84.422 50.4178 121.568 50.4178 121.568 84.8113V161.806H4.2211C2.11055 161.806 0 163.76 0 165.714V214.569H121.99V479.946C121.99 563.194 179.819 621.038 281.125 613.221C302.653 611.658 322.492 603.841 339.376 593.679C346.974 588.989 351.618 581.563 351.618 572.965V546.779C318.693 567.102 290.834 565.93 290.834 565.93C226.673 565.93 227.939 490.499 227.939 490.499V214.569H523.416L310.673 413.113C310.251 439.299 309.829 459.623 309.829 460.014C309.829 460.795 310.251 461.186 311.095 461.186C506.11 491.671 558.874 608.531 558.874 642.534C558.874 642.534 579.979 807.857 401.427 819.191C401.427 819.191 284.502 823.881 263.819 780.499C262.975 778.935 263.819 777.372 265.507 776.59C284.924 768.383 298.01 752.359 298.01 730.863C298.01 698.814 276.904 672.628 232.583 672.628C196.703 672.628 167.156 698.814 167.156 730.863C167.156 730.863 150.271 870 401.005 866.092C687.195 861.402 669.467 639.016 669.467 639.016V639.016Z" fill="white"/>
</svg>
