<svg width="72" height="72" viewBox="0 0 72 72" fill="none" xmlns="http://www.w3.org/2000/svg">
<circle cx="36" cy="36" r="36" fill="url(#paint0_linear_704_434)"/>
<path d="M53.4734 26H18.5265C17.9094 26 17.3177 26.2431 16.8814 26.6758C16.4451 27.1085 16.2 27.6953 16.2 28.3073V50.6927C16.2 51.3047 16.4451 51.8915 16.8814 52.3242C17.3177 52.7569 17.9094 53 18.5265 53H53.4734C54.0905 53 54.6822 52.7569 55.1185 52.3242C55.5548 51.8915 55.7999 51.3047 55.7999 50.6927V28.3073C55.7999 27.6953 55.5548 27.1085 55.1185 26.6758C54.6822 26.2431 54.0905 26 53.4734 26V26ZM43.6477 40.5186L31.5573 45.8695C31.3691 45.9535 31.1626 45.9894 30.9568 45.974C30.751 45.9586 30.5523 45.8923 30.3789 45.7813C30.2055 45.6703 30.0628 45.5181 29.9639 45.3384C29.8649 45.1588 29.8129 44.9574 29.8125 44.7527V34.0509C29.8129 33.8462 29.8649 33.6449 29.9639 33.4652C30.0628 33.2856 30.2055 33.1333 30.3789 33.0223C30.5523 32.9113 30.751 32.8451 30.9568 32.8297C31.1626 32.8143 31.3691 32.8502 31.5573 32.9341L43.6477 38.2727C43.8673 38.3688 44.054 38.526 44.1851 38.7254C44.3161 38.9248 44.3859 39.1577 44.3859 39.3957C44.3859 39.6337 44.3161 39.8666 44.1851 40.0659C44.054 40.2653 43.8673 40.4226 43.6477 40.5186V40.5186Z" fill="url(#paint1_linear_704_434)"/>
<path d="M50.4 17.9C50.4 17.6613 50.2735 17.4324 50.0485 17.2636C49.8235 17.0948 49.5182 17 49.2 17H22.8C22.4817 17 22.1765 17.0948 21.9514 17.2636C21.7264 17.4324 21.6 17.6613 21.6 17.9V18.8H50.4V17.9Z" fill="url(#paint2_linear_704_434)"/>
<path d="M53.0999 22.4C53.0999 22.1613 52.9746 21.9324 52.7516 21.7636C52.5286 21.5948 52.2261 21.5 51.9106 21.5H20.9892C20.6738 21.5 20.3713 21.5948 20.1483 21.7636C19.9252 21.9324 19.7999 22.1613 19.7999 22.4V23.3H53.0999V22.4Z" fill="url(#paint3_linear_704_434)"/>
<defs>
<linearGradient id="paint0_linear_704_434" x1="36" y1="0" x2="36" y2="72" gradientUnits="userSpaceOnUse">
<stop stop-color="#8808FC"/>
<stop offset="1" stop-color="#9525FA" stop-opacity="0.67"/>
</linearGradient>
<linearGradient id="paint1_linear_704_434" x1="36" y1="26" x2="36" y2="53" gradientUnits="userSpaceOnUse">
<stop offset="0.128125" stop-color="#FFF7F9"/>
<stop offset="1" stop-color="#DDB8FF"/>
</linearGradient>
<linearGradient id="paint2_linear_704_434" x1="36" y1="17" x2="36" y2="18.8" gradientUnits="userSpaceOnUse">
<stop offset="0.128125" stop-color="#FFF7F9"/>
<stop offset="1" stop-color="#DDB8FF"/>
</linearGradient>
<linearGradient id="paint3_linear_704_434" x1="36.4499" y1="21.5" x2="36.4499" y2="23.3" gradientUnits="userSpaceOnUse">
<stop offset="0.128125" stop-color="#FFF7F9"/>
<stop offset="1" stop-color="#DDB8FF"/>
</linearGradient>
</defs>
</svg>
