<svg width="72" height="72" viewBox="0 0 72 72" fill="none" xmlns="http://www.w3.org/2000/svg">
<circle cx="36" cy="36" r="36" fill="url(#paint0_linear_704_446)"/>
<path fill-rule="evenodd" clip-rule="evenodd" d="M25.5588 30.0111C24.2102 30.1538 23.1515 31.1926 23.0147 32.5073C22.9951 32.6958 22.9951 53.302 23.0147 53.4905C23.2156 55.4213 25.3367 56.5655 27.1382 55.715C27.5286 55.5307 27.8815 55.2572 28.1339 54.9435C28.269 54.7755 33.9861 46.5872 34.027 46.503C34.2306 46.0843 33.7561 45.584 33.297 45.7331C33.1674 45.7752 33.2557 45.7035 30.3158 48.156C28.7864 49.4318 27.5095 50.4894 27.4784 50.506C27.3789 50.5593 27.2728 50.5301 27.2023 50.4303L27.1719 50.3872L27.1753 43.0522C27.1787 35.7402 27.1788 35.7172 27.2057 35.6824C27.2659 35.6046 27.4001 35.5699 27.4892 35.609C27.5091 35.6178 31.1569 39.8153 35.9573 45.3532C40.5955 50.704 44.4297 55.1223 44.4777 55.1716C44.912 55.6175 45.5703 55.9212 46.2446 55.9868C46.4252 56.0044 47.2146 56.0044 47.3959 55.9869C48.7734 55.8536 49.8497 54.8161 49.9855 53.4905C50.005 53.301 50.0048 32.694 49.9853 32.5073C49.7246 30.0017 46.3691 29.0886 44.8029 31.0971C44.6527 31.2898 38.9702 39.4311 38.9426 39.4933C38.7338 39.963 39.2729 40.4608 39.7456 40.2349C39.8201 40.1994 39.9362 40.1095 40.2731 39.8268C40.5107 39.6274 41.7165 38.6157 42.9527 37.5785C44.1889 36.5414 45.2614 35.6415 45.336 35.5788C45.5473 35.4013 45.6561 35.3897 45.7661 35.5328L45.7943 35.5695L45.7977 42.9133L45.8011 50.257L45.7707 50.3001C45.7046 50.3937 45.5735 50.4327 45.4806 50.3864C45.4545 50.3734 42.3038 46.7483 36.9985 40.6273C32.1286 35.0087 28.5031 30.8366 28.4285 30.7652C28.0217 30.3762 27.4967 30.1231 26.9017 30.0291C26.7399 30.0036 25.7549 29.9903 25.5588 30.0111Z" fill="url(#paint1_linear_704_446)"/>
<path d="M36.5 9L36.1901 9.08864L23.8139 12.9962L21 13.8705L22.6386 14.365V22.5291C22.0475 22.8529 21.6485 23.4435 21.6485 24.1339C21.6485 24.6288 21.8571 25.1035 22.2285 25.4534C22.5999 25.8034 23.1035 26 23.6287 26C24.1539 26 24.6576 25.8034 25.0289 25.4534C25.4003 25.1035 25.6089 24.6288 25.6089 24.1339C25.6089 23.4435 25.2099 22.8529 24.6188 22.5291V15.0088L26.599 15.6199V20.4018C26.599 21.1668 27.0941 21.8013 27.6822 22.2398C28.2703 22.6756 29.001 22.9835 29.8782 23.2597C31.6347 23.8102 33.9495 24.1339 36.5 24.1339C39.0505 24.1339 41.3653 23.8111 43.1218 23.2587C43.999 22.9835 44.7297 22.6756 45.3178 22.2389C45.9059 21.8013 46.401 21.1668 46.401 20.4018V15.6199L49.1861 14.7447L52 13.8705L49.1851 12.9953L36.8089 9.08864L36.5 9ZM36.5 10.9547L45.7822 13.8705L36.5 16.7862L27.2178 13.8705L36.5 10.9547ZM28.5792 16.2619L36.1911 18.6523L36.5 18.74L36.8099 18.6514L44.4208 16.2609V20.4018C44.4208 20.4111 44.4248 20.5193 44.1109 20.7516C43.798 20.9849 43.2366 21.2788 42.502 21.5102C41.0347 21.9702 38.8713 22.2678 36.5 22.2678C34.1287 22.2678 31.9653 21.9711 30.497 21.5093C29.7644 21.2788 29.202 20.984 28.8891 20.7516C28.5743 20.5184 28.5792 20.4111 28.5792 20.4018V16.2609V16.2619Z" fill="url(#paint2_linear_704_446)"/>
<defs>
<linearGradient id="paint0_linear_704_446" x1="36" y1="0" x2="36" y2="72" gradientUnits="userSpaceOnUse">
<stop stop-color="#8808FC"/>
<stop offset="1" stop-color="#9525FA" stop-opacity="0.67"/>
</linearGradient>
<linearGradient id="paint1_linear_704_446" x1="20.213" y1="27.649" x2="52.5158" y2="67.8131" gradientUnits="userSpaceOnUse">
<stop stop-color="white"/>
<stop offset="1" stop-color="#D19FFF"/>
</linearGradient>
<linearGradient id="paint2_linear_704_446" x1="17.8002" y1="7.4628" x2="34.1737" y2="43.2117" gradientUnits="userSpaceOnUse">
<stop stop-color="white"/>
<stop offset="1" stop-color="#D19FFF"/>
</linearGradient>
</defs>
</svg>
