<svg width="72" height="72" viewBox="0 0 72 72" fill="none" xmlns="http://www.w3.org/2000/svg">
<circle cx="36" cy="36" r="36" fill="url(#paint0_linear_824_27)"/>
<path d="M46.9932 49.6569C46.6888 44.5148 39.9117 42.1775 39.2631 41.9374C39.2366 41.9248 39.2366 41.8995 39.2498 41.8743L46.2388 35.1781V34.458C46.2388 34.3443 46.1329 34.2432 46.0137 34.2432H33.1345V29L28.3826 29.9476V30.6298H28.6473C28.6473 30.6298 29.8121 30.6298 29.8121 31.7416V34.2306H26.1324C26.0662 34.2306 26 34.2937 26 34.3569V35.9362H29.8254V44.5148C29.8254 47.2059 31.6388 49.0757 34.8156 48.8231C35.4906 48.7725 36.1128 48.5198 36.6422 48.1914C36.8805 48.0397 37.0261 47.7997 37.0261 47.5217V46.6752C35.9936 47.3322 35.12 47.2943 35.12 47.2943C33.1081 47.2943 33.1478 44.8559 33.1478 44.8559V35.9362H42.4134L35.7421 42.3544C35.7289 43.2008 35.7157 43.8578 35.7157 43.8705C35.7157 43.8957 35.7289 43.9084 35.7554 43.9084C41.8707 44.8938 43.5253 48.6715 43.5253 49.7706C43.5253 49.7706 44.1871 55.1149 38.588 55.4813C38.588 55.4813 34.9215 55.6329 34.2729 54.2305C34.2464 54.18 34.2729 54.1294 34.3258 54.1042C34.9347 53.8388 35.345 53.3208 35.345 52.626C35.345 51.5899 34.6832 50.7435 33.2934 50.7435C32.1683 50.7435 31.2417 51.5899 31.2417 52.626C31.2417 52.626 30.7122 57.1237 38.5748 56.9974C47.5492 56.8458 46.9932 49.6569 46.9932 49.6569Z" fill="url(#paint1_linear_824_27)"/>
<path d="M36.5 9L36.1901 9.08864L23.8139 12.9962L21 13.8705L22.6386 14.365V22.5291C22.0475 22.8529 21.6485 23.4435 21.6485 24.1339C21.6485 24.6288 21.8571 25.1035 22.2285 25.4534C22.5999 25.8034 23.1035 26 23.6287 26C24.1539 26 24.6576 25.8034 25.0289 25.4534C25.4003 25.1035 25.6089 24.6288 25.6089 24.1339C25.6089 23.4435 25.2099 22.8529 24.6188 22.5291V15.0088L26.599 15.6199V20.4018C26.599 21.1668 27.0941 21.8013 27.6822 22.2398C28.2703 22.6756 29.001 22.9835 29.8782 23.2597C31.6347 23.8102 33.9495 24.1339 36.5 24.1339C39.0505 24.1339 41.3653 23.8111 43.1218 23.2587C43.999 22.9835 44.7297 22.6756 45.3178 22.2389C45.9059 21.8013 46.401 21.1668 46.401 20.4018V15.6199L49.1861 14.7447L52 13.8705L49.1851 12.9953L36.8089 9.08864L36.5 9ZM36.5 10.9547L45.7822 13.8705L36.5 16.7862L27.2178 13.8705L36.5 10.9547ZM28.5792 16.2619L36.1911 18.6523L36.5 18.74L36.8099 18.6514L44.4208 16.2609V20.4018C44.4208 20.4111 44.4248 20.5193 44.1109 20.7516C43.798 20.9849 43.2366 21.2788 42.502 21.5102C41.0347 21.9702 38.8713 22.2678 36.5 22.2678C34.1287 22.2678 31.9653 21.9711 30.497 21.5093C29.7644 21.2788 29.202 20.984 28.8891 20.7516C28.5743 20.5184 28.5792 20.4111 28.5792 20.4018V16.2609V16.2619Z" fill="url(#paint2_linear_824_27)"/>
<defs>
<linearGradient id="paint0_linear_824_27" x1="36" y1="0" x2="36" y2="72" gradientUnits="userSpaceOnUse">
<stop stop-color="#8808FC"/>
<stop offset="1" stop-color="#9525FA" stop-opacity="0.67"/>
</linearGradient>
<linearGradient id="paint1_linear_824_27" x1="23.8324" y1="26.4681" x2="59.2433" y2="58.2667" gradientUnits="userSpaceOnUse">
<stop stop-color="white"/>
<stop offset="1" stop-color="#D19FFF"/>
</linearGradient>
<linearGradient id="paint2_linear_824_27" x1="17.8002" y1="7.4628" x2="34.1737" y2="43.2117" gradientUnits="userSpaceOnUse">
<stop stop-color="white"/>
<stop offset="1" stop-color="#D19FFF"/>
</linearGradient>
</defs>
</svg>
