<svg width="72" height="72" viewBox="0 0 72 72" fill="none" xmlns="http://www.w3.org/2000/svg">
<circle cx="36" cy="36" r="36" fill="url(#paint0_linear_704_435)"/>
<path d="M48.4444 19.6H41.0133C40.2667 17.512 38.3111 16 36 16C33.6889 16 31.7333 17.512 30.9867 19.6H23.5556C21.6 19.6 20 21.22 20 23.2V48.4C20 50.38 21.6 52 23.5556 52H48.4444C50.4 52 52 50.38 52 48.4V23.2C52 21.22 50.4 19.6 48.4444 19.6ZM36 19.6C36.9778 19.6 37.7778 20.41 37.7778 21.4C37.7778 22.39 36.9778 23.2 36 23.2C35.0222 23.2 34.2222 22.39 34.2222 21.4C34.2222 20.41 35.0222 19.6 36 19.6ZM36 26.8C38.9511 26.8 41.3333 29.212 41.3333 32.2C41.3333 35.188 38.9511 37.6 36 37.6C33.0489 37.6 30.6667 35.188 30.6667 32.2C30.6667 29.212 33.0489 26.8 36 26.8ZM46.6667 48.4H25.3333V45.88C25.3333 42.28 32.4444 40.3 36 40.3C39.5556 40.3 46.6667 42.28 46.6667 45.88V48.4Z" fill="black"/>
<path d="M48.4444 19.6H41.0133C40.2667 17.512 38.3111 16 36 16C33.6889 16 31.7333 17.512 30.9867 19.6H23.5556C21.6 19.6 20 21.22 20 23.2V48.4C20 50.38 21.6 52 23.5556 52H48.4444C50.4 52 52 50.38 52 48.4V23.2C52 21.22 50.4 19.6 48.4444 19.6ZM36 19.6C36.9778 19.6 37.7778 20.41 37.7778 21.4C37.7778 22.39 36.9778 23.2 36 23.2C35.0222 23.2 34.2222 22.39 34.2222 21.4C34.2222 20.41 35.0222 19.6 36 19.6ZM36 26.8C38.9511 26.8 41.3333 29.212 41.3333 32.2C41.3333 35.188 38.9511 37.6 36 37.6C33.0489 37.6 30.6667 35.188 30.6667 32.2C30.6667 29.212 33.0489 26.8 36 26.8ZM46.6667 48.4H25.3333V45.88C25.3333 42.28 32.4444 40.3 36 40.3C39.5556 40.3 46.6667 42.28 46.6667 45.88V48.4Z" fill="url(#paint1_linear_704_435)"/>
<defs>
<linearGradient id="paint0_linear_704_435" x1="36" y1="0" x2="36" y2="72" gradientUnits="userSpaceOnUse">
<stop stop-color="#8808FC"/>
<stop offset="1" stop-color="#9525FA" stop-opacity="0.67"/>
</linearGradient>
<linearGradient id="paint1_linear_704_435" x1="36" y1="16" x2="36" y2="52" gradientUnits="userSpaceOnUse">
<stop offset="0.128125" stop-color="#FFF7F9"/>
<stop offset="1" stop-color="#DDB8FF"/>
</linearGradient>
</defs>
</svg>
