<svg width="40" height="40" viewBox="0 0 40 40" fill="none" xmlns="http://www.w3.org/2000/svg">
<g clip-path="url(#clip0)">
<path d="M20 40C31.0457 40 40 31.0457 40 20C40 8.9543 31.0457 0 20 0C8.9543 0 0 8.9543 0 20C0 31.0457 8.9543 40 20 40Z" fill="white"/>
<g filter="url(#filter0_d)">
<path d="M31 13.1308C30.1905 13.4922 29.3206 13.7364 28.4076 13.8463C29.3396 13.2839 30.0552 12.3934 30.3922 11.3323C29.5062 11.8616 28.5369 12.2346 27.5261 12.435C26.7027 11.5519 25.5297 11 24.2315 11C21.7388 11 19.7178 13.0346 19.7178 15.544C19.7178 15.9002 19.7577 16.247 19.8347 16.5796C16.0835 16.3901 12.7577 14.581 10.5315 11.8318C10.1431 12.5029 9.92048 13.2836 9.92048 14.1163C9.92048 15.6928 10.7174 17.0836 11.9284 17.8985C11.2116 17.8759 10.5107 17.681 9.88395 17.3301C9.8837 17.3491 9.8837 17.3682 9.8837 17.3873C9.8837 19.5889 11.4395 21.4256 13.5042 21.843C12.8396 22.025 12.1424 22.0517 11.466 21.9209C12.0403 23.7262 13.7072 25.0399 15.6822 25.0767C14.1375 26.2954 12.1913 27.0219 10.0767 27.0219C9.71234 27.0219 9.35312 27.0004 9 26.9584C10.9974 28.2477 13.3699 29 15.9188 29C24.221 29 28.7608 22.0758 28.7608 16.071C28.7608 15.8739 28.7565 15.6779 28.7478 15.4831C29.6314 14.84 30.3941 14.0434 31 13.1308Z" fill="#55ACEE"/>
</g>
</g>
<defs>
<filter id="filter0_d" x="-1" y="5" width="42" height="38" filterUnits="userSpaceOnUse" color-interpolation-filters="sRGB">
<feFlood flood-opacity="0" result="BackgroundImageFix"/>
<feColorMatrix in="SourceAlpha" type="matrix" values="0 0 0 0 0 0 0 0 0 0 0 0 0 0 0 0 0 0 127 0" result="hardAlpha"/>
<feOffset dy="4"/>
<feGaussianBlur stdDeviation="5"/>
<feComposite in2="hardAlpha" operator="out"/>
<feColorMatrix type="matrix" values="0 0 0 0 0 0 0 0 0 0 0 0 0 0 0 0 0 0 0.1 0"/>
<feBlend mode="normal" in2="BackgroundImageFix" result="effect1_dropShadow"/>
<feBlend mode="normal" in="SourceGraphic" in2="effect1_dropShadow" result="shape"/>
</filter>
<clipPath id="clip0">
<rect width="40" height="40" fill="white"/>
</clipPath>
</defs>
</svg>
