<svg width="859" height="868" viewBox="0 0 859 868" fill="none" xmlns="http://www.w3.org/2000/svg">
<path d="M116.553 300.66V546.482L0.550781 479.644V91.1489L89.2395 142.241L116.553 300.66Z" fill="#1F4298"/>
<path d="M272.723 456.507L116.554 546.481V300.659L272.723 210.685V456.507Z" fill="#0289B4"/>
<path d="M245.409 52.2673L156.721 0.853516L0.55127 91.1489L89.24 142.241L245.409 52.2673Z" fill="#FA6969"/>
<path d="M245.409 52.2671L272.723 210.686L116.553 300.66L89.2397 142.241L245.409 52.2671Z" fill="#E02F36"/>
<path d="M219.38 219.04L131.013 270.132L124.265 229.965L114.946 176.945L110.769 152.523L167.645 119.425L198.815 101.431L219.38 219.04Z" fill="#7A1C1C"/>
<path d="M255.049 157.343L242.838 86.6493L241.231 77.3306L208.134 96.2894L212.311 121.032L221.309 174.053L228.378 213.898L261.476 194.94L255.049 157.343Z" fill="#F5E9D7"/>
<path d="M216.167 120.069L212.311 98.5398L238.339 83.437L257.298 193.013L231.269 207.794L216.167 120.069Z" fill="#A8A094"/>
<path d="M238.019 104.645L219.381 115.57L216.489 100.467L235.448 89.542L238.019 104.645Z" fill="#534741"/>
<path d="M244.765 144.491L226.128 155.416L220.022 121.033L238.66 110.108L244.765 144.491Z" fill="#F5F5F5"/>
<path d="M248.944 168.912L230.306 179.516L227.093 161.522L245.73 150.596L248.944 168.912Z" fill="#F5F5F5"/>
<path d="M231.27 185.622L234.162 201.688L252.799 190.763L250.228 174.696L231.27 185.622Z" fill="#F5E9D7"/>
<path d="M249.907 185.621L249.585 183.372L234.482 192.048L234.804 194.297L249.907 185.621Z" fill="#534741"/>
<path d="M219.381 219.04L131.014 270.133L124.266 229.966L114.947 176.945L130.692 167.948L180.821 196.868L219.381 219.04Z" fill="#BA2B2B"/>
<path d="M180.82 197.189L124.265 229.965L114.946 176.945L110.769 152.523L167.645 119.426L180.82 196.868V197.189Z" fill="#29D3E2"/>
<path d="M211.99 279.451L156.398 311.585V286.52L211.99 254.065V279.451Z" fill="#F5E9D7"/>
<path d="M204.921 276.238L163.469 300.017V289.413L204.921 265.634V276.238Z" fill="#534741"/>
<path d="M63.0973 88.6349L56.4183 81.23L58.0661 80.2477L63.1256 86.2919L61.3616 78.2831L63.0574 77.2721L68.3334 83.1872L66.3048 75.3361L67.9646 74.3467L70.1333 84.4403L68.3051 85.5302L63.3311 80.0532L64.9134 87.5522L63.0973 88.6349ZM73.5342 82.4129L69.0803 73.6815L74.5768 70.4048L75.2322 71.6895L71.2752 74.0485L72.4968 76.4434L76.093 74.2995L76.7292 75.5468L73.1331 77.6907L74.4183 80.2103L78.3753 77.8513L79.0307 79.1361L73.5342 82.4129ZM80.4875 78.2676L76.0336 69.5363L79.4133 67.5215C80.2873 67.0004 81.0609 66.8157 81.7343 66.9673C82.4115 67.1059 82.9176 67.5036 83.2527 68.1605C83.5326 68.7094 83.6131 69.2361 83.4941 69.7408C83.3789 70.2324 83.1466 70.6584 82.797 71.0186C83.329 70.8315 83.8532 70.8444 84.3695 71.0571C84.8816 71.2615 85.2712 71.6257 85.5385 72.1495C85.8905 72.8397 85.9405 73.5528 85.6885 74.2886C85.4365 75.0244 84.8694 75.6553 83.9874 76.1811L80.4875 78.2676ZM79.4437 72.2856L81.0554 71.3248C81.4884 71.0667 81.7681 70.7644 81.8946 70.4179C82.0211 70.0714 81.9868 69.7069 81.7916 69.3243C81.605 68.9585 81.3424 68.7409 81.0038 68.6716C80.669 68.5893 80.2731 68.6843 79.8161 68.9568L78.2285 69.9032L79.4437 72.2856ZM81.3653 76.0526L83.0852 75.0273C83.5422 74.7548 83.8399 74.4364 83.9781 74.072C84.1202 73.6945 84.0894 73.3062 83.8858 72.907C83.678 72.4996 83.3824 72.2583 82.999 72.1832C82.6156 72.1081 82.1994 72.2044 81.7504 72.4721L80.0546 73.4831L81.3653 76.0526ZM90.9056 72.252C90.3524 72.5818 89.8004 72.7807 89.2495 72.8489C88.6945 72.9087 88.1725 72.8078 87.6835 72.5462C87.1946 72.2846 86.7788 71.8385 86.4361 71.2077L87.9515 70.3043C88.1759 70.7236 88.4906 71.0023 88.8956 71.1404C89.3045 71.2654 89.7454 71.1869 90.2185 70.9048C90.6675 70.6371 90.9465 70.3027 91.0556 69.9015C91.1646 69.5003 91.1195 69.1043 90.9201 68.7135C90.6868 68.2561 90.3504 68.0067 89.9109 67.965C89.4752 67.9103 89.0088 68.0311 88.5116 68.3275L87.8862 68.7003L87.2181 67.3906L87.8556 67.0106C88.2645 66.7668 88.5544 66.4639 88.7252 66.1018C88.896 65.7397 88.8817 65.3632 88.6824 64.9724C88.517 64.6481 88.2812 64.4524 87.9752 64.3855C87.6729 64.3054 87.3414 64.3729 86.9806 64.588C86.5877 64.8222 86.3405 65.1269 86.239 65.5019C86.1455 65.8721 86.1758 66.239 86.3299 66.6026L84.8265 67.4988C84.4471 66.6731 84.3912 65.8768 84.6588 65.11C84.9345 64.3384 85.4772 63.7112 86.287 63.2284C86.8643 62.8843 87.4046 62.7032 87.9078 62.6851C88.4147 62.654 88.8575 62.7533 89.2361 62.9831C89.6227 63.2081 89.9242 63.5326 90.1406 63.9567C90.3908 64.4473 90.4706 64.942 90.3799 65.4406C90.293 65.9262 90.0868 66.342 89.7613 66.6878C90.2853 66.5056 90.7932 66.5173 91.285 66.7229C91.7725 66.9203 92.1627 67.3058 92.4553 67.8796C92.7014 68.3619 92.8139 68.8695 92.793 69.4025C92.7721 69.9355 92.6067 70.4517 92.2967 70.9509C91.9948 71.4454 91.5311 71.8791 90.9056 72.252Z" fill="black"/>
<path d="M263.083 336.328L116.554 420.839V453.937L263.083 369.425V336.328Z" fill="#F5F5F5"/>
<path d="M263.083 377.78L116.554 462.291V479.001L263.083 394.489V377.78Z" fill="#F5F5F5"/>
<path d="M116.553 420.839V453.936L0.550781 259.85V227.073L116.553 420.839Z" fill="#B3B3B3"/>
<path d="M116.553 462.612V479L0.550781 284.914V268.525L116.553 462.612Z" fill="#B3B3B3"/>
<path d="M195.601 229.003L167.645 245.391L135.19 226.432L163.146 210.365L195.601 229.003Z" fill="#A8A094"/>
<path d="M140.974 226.433L145.472 223.862L149.65 226.433L145.151 229.003L140.974 226.433Z" fill="#F5F5F5"/>
<path d="M147.081 223.219L151.258 220.648L155.435 222.898L151.258 225.468L147.081 223.219Z" fill="#F5F5F5"/>
<path d="M152.863 219.684L157.362 217.113L161.539 219.684L157.041 222.255L152.863 219.684Z" fill="#F5F5F5"/>
<path d="M158.647 216.471L163.146 213.9L172.786 219.363L168.608 221.934L158.647 216.471Z" fill="#F23D3D"/>
<path d="M146.759 229.646L151.257 227.075L155.435 229.646L150.936 232.217L146.759 229.646Z" fill="#F5F5F5"/>
<path d="M152.542 226.433L157.041 223.862L161.219 226.111L156.72 228.682L152.542 226.433Z" fill="#F5F5F5"/>
<path d="M158.327 222.897L162.826 220.327L167.003 222.897L162.505 225.468L158.327 222.897Z" fill="#F5F5F5"/>
<path d="M164.432 219.684L168.61 217.113L172.787 219.363L168.61 221.933L164.432 219.684Z" fill="#F23D3D"/>
<path d="M152.221 232.859L156.719 230.289L160.897 232.859L156.398 235.43L152.221 232.859Z" fill="#F5F5F5"/>
<path d="M158.327 229.646L162.505 227.075L166.682 229.325L162.505 231.895L158.327 229.646Z" fill="#F5F5F5"/>
<path d="M164.11 226.111L168.609 223.54L172.786 226.111L168.288 228.681L164.11 226.111Z" fill="#F5F5F5"/>
<path d="M169.894 222.897L174.393 220.327L178.57 222.576L174.071 225.147L169.894 222.897Z" fill="#F5E9D7"/>
<path d="M158.005 236.071L162.504 233.822L166.681 236.071L162.183 238.642L158.005 236.071Z" fill="#F5F5F5"/>
<path d="M163.789 232.859L168.287 230.289L172.465 232.538L167.966 235.109L163.789 232.859Z" fill="#F5F5F5"/>
<path d="M169.574 229.324L174.072 226.753L178.25 229.324L173.751 231.895L169.574 229.324Z" fill="#F5F5F5"/>
<path d="M175.679 226.111L179.857 223.54L184.034 225.789L179.857 228.36L175.679 226.111Z" fill="#F5E9D7"/>
<path d="M163.467 239.606L167.966 237.035L172.143 239.285L167.645 241.855L163.467 239.606Z" fill="#29D3E2"/>
<path d="M169.574 236.073L173.751 233.502L177.928 236.073L173.751 238.322L169.574 236.073Z" fill="#F5E9D7"/>
<path d="M175.357 232.537L185.64 226.753L189.818 229.003L179.535 235.108L175.357 232.537Z" fill="#F5F5F5"/>
<path d="M181.141 229.324L185.64 226.753L189.817 229.003L185.318 231.573L181.141 229.324Z" fill="#F5F5F5"/>
<path d="M158.969 144.491L157.684 137.743L121.373 158.951L122.337 165.699L158.969 144.491Z" fill="#F5F5F5"/>
<path d="M123.302 169.554L124.266 176.302L147.724 162.806L146.438 156.058L123.302 169.554Z" fill="#F5F5F5"/>
<path d="M162.824 166.02L161.539 159.271L125.228 180.158L126.192 186.906L162.824 166.02Z" fill="#F5F5F5"/>
<path d="M166.681 187.228L165.396 180.48L129.085 201.367L130.049 208.115L166.681 187.228Z" fill="#F5F5F5"/>
<path d="M229.984 265.633L220.022 271.739L202.027 272.703L191.102 276.88L185.318 281.057C184.997 281.379 184.675 281.7 184.354 282.343L183.711 283.949L182.426 285.235C181.462 286.199 181.141 287.163 181.462 288.448L180.498 290.376C180.177 291.662 181.783 292.626 182.747 291.983L184.675 290.376L188.853 288.448L196.565 286.52L204.277 289.412C204.277 289.412 204.598 291.019 204.598 291.34C202.991 293.59 199.135 296.803 199.135 296.803L196.886 298.088C195.601 300.016 195.922 302.266 198.171 301.623L201.706 300.338L213.917 294.232L223.878 285.235L236.732 278.808L229.984 265.633Z" fill="#FFB294"/>
<path d="M274.65 589.541C274.65 589.541 273.686 597.896 290.716 599.824C307.747 602.073 316.102 599.824 316.102 599.824C316.102 599.824 328.955 604.001 336.346 600.788C343.737 597.574 341.809 595.325 341.809 595.325C341.166 586.649 338.917 577.973 334.418 569.618L314.817 562.228L311.925 575.402L297.143 580.865C296.822 580.865 276.578 582.15 274.65 589.541Z" fill="black"/>
<path d="M300.035 491.534V528.487C299.071 528.487 298.107 528.487 297.143 528.166C287.503 526.881 286.539 522.061 279.791 520.775C272.4 519.169 273.364 521.097 256.012 518.526C238.338 516.277 235.125 505.994 242.837 501.816C250.549 497.639 265.973 498.924 265.973 498.924L274.328 496.675L280.112 495.068L284.611 485.107L290.073 487.356L300.035 491.534Z" fill="black"/>
<path d="M315.458 396.417L314.494 419.875L318.672 503.422C307.104 504.065 303.569 504.386 300.034 504.065C296.178 503.743 292.644 502.779 289.43 501.173C288.466 500.851 287.502 500.209 286.538 499.887C284.289 498.602 282.361 496.995 280.111 495.067C272.399 466.79 272.721 437.548 266.294 396.417C265.651 393.204 265.973 389.669 267.258 386.456L271.757 374.245L287.824 331.186L308.71 338.255L326.705 344.361L334.096 346.932L315.458 396.417Z" fill="#182B3B"/>
<path d="M288.467 360.107C288.467 360.107 269.509 420.518 279.791 468.397C279.791 468.397 298.108 538.127 305.498 567.369C307.426 575.081 314.496 580.865 322.529 580.865C325.742 580.865 328.956 580.865 332.169 580.222C338.274 579.258 342.452 573.795 342.452 567.369C341.809 548.41 338.917 502.137 323.814 464.863L338.917 391.598C351.128 379.708 357.233 363.642 347.915 336.649L288.467 360.107Z" fill="#534741"/>
<path d="M218.094 272.061C220.343 277.524 223.235 281.701 228.698 283.951C228.698 283.951 263.081 272.383 291.68 254.066L313.852 204.902L288.466 197.19L273.042 234.465L218.094 272.061Z" fill="#D4EEFF"/>
<path d="M354.661 334.72C352.09 356.571 328.633 366.854 314.494 369.103C313.53 369.425 312.566 369.425 311.602 369.746C296.821 373.281 269.507 379.386 269.186 358.821C269.186 357.857 269.186 356.892 269.186 355.928V294.553C264.687 270.132 264.687 247.317 271.756 223.217C276.898 212.613 282.039 200.723 296.178 192.368C329.276 178.551 346.628 225.466 342.45 245.068C338.273 264.669 344.057 305.8 352.09 327.008C352.733 329.9 353.697 332.471 354.661 334.72Z" fill="#D4EEFF"/>
<path d="M279.468 217.434L271.756 195.583L300.034 182.729L306.461 195.583C308.71 203.938 282.682 222.896 279.468 217.434Z" fill="#FFB294"/>
<path d="M277.862 203.938L265.009 201.046C262.117 200.403 259.868 198.475 258.582 195.583C255.69 188.514 253.12 172.768 254.084 161.521C256.012 144.169 274.97 139.349 286.539 142.563C298.107 145.776 308.711 154.131 309.353 169.233C310.317 184.015 299.392 196.226 299.392 196.226L277.862 203.938Z" fill="#FFB294"/>
<path d="M253.762 167.305C253.762 167.305 256.654 172.768 263.724 176.945C265.009 177.588 265.973 179.195 266.294 180.48L267.58 185.943L273.042 190.763L274.006 193.976C274.97 196.868 277.541 199.117 280.754 199.439C285.575 199.76 293.287 199.117 304.212 193.012C304.212 193.012 318.029 174.374 307.425 156.058C296.821 137.742 276.577 139.67 269.829 141.92C263.081 143.848 246.05 153.488 253.762 167.305Z" fill="black"/>
<path d="M273.685 181.443C274.007 182.086 274.328 183.05 274.328 183.693C274.649 185.942 274.649 188.513 274.328 191.083C274.007 192.047 274.007 193.011 273.364 193.654C272.721 194.297 271.757 194.939 270.793 194.618C269.508 194.297 268.865 193.011 268.544 191.726C267.901 189.477 266.616 185.621 267.58 183.05C268.223 180.801 271.757 178.23 273.685 181.443Z" fill="#FFB294"/>
<path opacity="0.5" d="M314.494 395.454L313.852 396.739L293.929 433.693L290.073 487.356L289.109 500.53C288.788 500.53 287.824 500.209 286.538 499.888C283.646 499.245 279.147 497.96 274.327 496.674L280.111 495.068C272.399 466.79 272.721 437.549 266.294 396.418C265.651 393.204 265.973 389.669 267.258 386.456L271.757 374.245C269.829 367.819 268.865 361.392 268.865 355.929C268.865 356.893 268.865 357.857 268.865 358.821C269.186 379.065 296.5 373.281 311.281 369.747L314.494 395.454Z" fill="#4D5865"/>
<path opacity="0.3" d="M311.602 369.746C296.821 373.281 269.507 379.387 269.186 358.821C269.186 357.857 269.186 356.893 269.186 355.929V344.361L310.96 273.667L308.71 338.577V343.397L309.674 351.43L311.602 369.746Z" fill="#227FBC"/>
<path d="M244.443 362.677C243.8 362.677 233.517 375.531 233.517 375.531L222.592 383.885L212.952 398.667L211.345 405.094V410.556C211.345 414.091 214.559 413.77 214.88 411.199L215.523 418.268C215.844 421.16 218.415 421.16 219.057 418.268L220.343 409.914L222.592 420.196C223.235 422.767 226.448 422.124 226.127 419.554L224.841 413.448L228.055 406.7L227.412 413.448L228.697 417.947C229.983 420.518 232.232 419.232 231.589 416.019L230.947 412.163L236.409 404.772C238.016 402.523 238.98 400.274 239.623 397.703L240.908 391.597L244.443 384.528L249.263 369.425L244.443 362.677Z" fill="#FFB294"/>
<path d="M276.256 266.599L270.151 314.799C260.511 334.079 245.087 354.324 233.197 375.532L246.051 386.778C262.76 374.568 280.434 353.359 298.428 331.187L310.961 273.99C320.279 238.321 280.434 240.571 276.256 266.599Z" fill="#D4EEFF"/>
<path d="M428.891 577.651C416.68 580.221 414.752 589.861 419.251 597.895L433.068 617.496C438.21 626.494 445.279 630.671 454.276 629.064C462.31 625.851 463.595 620.388 461.346 613.962L457.811 603.679L452.67 575.401L428.891 577.651Z" fill="black"/>
<path d="M464.238 603.037C460.382 615.89 435.318 615.569 433.711 598.217L426.963 548.731L425.678 538.127L411.86 480.608L408.968 468.076L416.038 433.05L467.451 430.801C467.451 430.801 463.274 517.24 462.953 521.418C469.701 543.911 465.845 573.153 464.238 603.037Z" fill="#25435C"/>
<path d="M464.238 603.037C460.382 615.89 435.318 615.569 433.711 598.217L426.963 548.731L425.678 538.127L411.86 480.608L408.968 468.076L416.038 433.05L467.451 430.801C467.451 430.801 463.274 517.24 462.953 521.418C469.701 543.911 465.845 573.153 464.238 603.037Z" fill="#1B3440"/>
<path d="M428.891 622.639C433.711 630.994 431.462 644.812 428.57 651.238C419.894 654.452 412.824 655.094 407.683 651.56C391.295 650.596 382.297 652.845 373.943 650.274C364.945 647.704 358.84 645.133 354.341 636.136C352.734 632.28 354.984 624.568 362.375 623.603C375.871 622.961 388.081 621.997 394.829 618.462L406.398 597.254L427.284 613.963L428.891 622.639Z" fill="black"/>
<path d="M436.603 629.708C427.927 643.847 397.4 638.705 395.15 625.531L389.366 581.829L387.117 564.156L381.012 536.199C376.834 503.744 377.477 476.752 379.405 450.081L433.068 425.017C432.104 432.408 430.819 440.12 429.855 447.189C428.891 453.616 428.248 459.721 427.284 466.148C426.963 468.076 426.963 469.683 426.641 471.611C425.356 482.536 424.392 493.14 423.749 502.78C423.107 513.706 425.035 523.346 425.356 531.701C436.924 565.762 437.567 597.253 436.603 629.708Z" fill="#284D5E"/>
<path opacity="0.5" d="M433.389 424.695C432.425 432.086 431.14 439.798 430.176 446.867C429.212 453.294 428.569 459.4 427.605 465.826C427.284 467.754 427.284 469.361 426.963 471.289L394.186 496.675C394.186 496.675 389.045 577.009 389.366 581.829L387.117 564.155L381.012 536.199C376.834 503.744 377.477 476.752 379.405 450.081L433.389 424.695Z" fill="#1E3A47"/>
<path d="M497.336 308.371L495.087 330.543C494.123 336.649 490.588 361.07 486.411 363.319C477.092 368.461 454.599 380.029 446.887 380.993L452.671 322.51L476.771 272.06C490.91 275.595 497.015 288.448 497.336 308.371Z" fill="#29ABE2"/>
<path opacity="0.5" d="M482.233 363.32C474.843 367.498 463.596 378.102 455.884 378.102L461.025 332.793L486.089 309.336L482.233 363.32Z" fill="#1390BA"/>
<path d="M473.879 371.676C473.558 392.241 477.414 419.555 477.414 419.555C474.843 437.871 441.745 452.974 411.219 454.58C406.72 454.902 402.221 454.58 398.044 454.259C388.725 453.295 380.049 450.724 373.301 446.226C372.98 445.904 372.337 445.583 372.016 445.261C366.553 441.405 364.303 434.336 366.231 427.909C370.409 414.413 378.121 386.136 378.764 367.498C378.764 365.57 378.764 363.963 378.764 362.357C377.8 340.506 376.836 325.403 381.656 313.835C383.262 309.658 385.833 305.802 389.368 302.267C389.368 302.267 412.825 283.308 424.072 273.025C446.565 264.671 460.062 267.241 476.128 270.776C476.128 270.776 487.054 274.632 485.768 304.516C485.447 320.904 474.2 351.11 473.879 371.676Z" fill="#29ABE2"/>
<path d="M405.113 215.185C391.617 216.47 388.082 221.933 389.046 234.143C385.833 240.891 394.509 255.994 398.686 265.313C399.971 267.884 402.221 272.061 408.005 271.418C409.933 271.74 410.897 273.668 411.539 275.596C412.825 279.13 412.503 283.629 412.503 283.629C428.57 282.344 441.745 278.809 446.886 267.562L439.496 261.457L427.606 215.506H405.113V215.185Z" fill="#FFB294"/>
<path d="M436.604 222.575C437.889 225.467 438.853 229.001 440.138 232.536C443.03 241.855 440.138 262.099 440.138 262.099C436.925 265.955 427.927 270.132 422.143 270.132C418.609 270.132 413.789 264.991 412.503 261.778L408.326 252.138L400.614 250.852C400.614 250.852 399.329 247.639 397.722 245.068C397.079 244.104 396.758 243.14 396.115 242.498C407.041 241.855 418.287 236.714 427.927 230.287C430.498 228.68 434.354 226.431 436.604 222.575Z" fill="black"/>
<path d="M388.403 238.964C385.51 235.75 384.868 220.969 395.793 210.686C403.827 203.938 416.037 204.581 425.035 208.758C430.498 211.329 434.354 215.828 436.282 220.326C434.032 224.182 430.498 228.681 427.284 230.288C417.965 236.714 406.397 241.856 395.472 242.498C392.901 238 390.331 238.964 388.403 238.964Z" fill="#284D5E"/>
<path d="M402.862 253.423C402.22 252.138 401.898 250.531 401.898 249.246C401.898 247.96 401.898 246.675 402.862 246.032C403.826 245.39 405.112 245.39 406.076 246.032C407.04 246.675 407.682 247.639 408.325 248.603C409.932 251.495 410.253 254.708 409.61 257.922C409.289 258.886 408.968 259.85 408.004 259.85C407.04 259.85 406.397 259.207 405.754 258.564C404.148 256.636 402.862 254.387 401.898 252.138L402.862 253.423Z" fill="#FFB294"/>
<path d="M403.827 293.27L405.112 280.416C405.755 275.596 408.325 269.491 412.824 268.205C425.999 264.992 438.21 254.388 440.78 248.925C444.958 257.923 449.456 265.635 455.562 269.169L437.567 284.915L403.827 293.27Z" fill="#29ABE2"/>
<path opacity="0.5" d="M410.253 340.828C412.181 371.997 381.976 414.414 391.616 443.655L398.364 454.581C389.045 453.617 380.369 451.046 373.621 446.547C373.3 446.226 372.657 445.905 372.336 445.583C366.873 441.727 364.624 434.658 366.552 428.231C370.729 414.735 378.441 386.457 379.084 367.82L410.253 340.828Z" fill="#1390BA"/>
<path d="M369.766 417.947C383.904 418.911 386.154 409.593 390.974 396.097L410.254 345.004V344.683C413.789 332.151 408.647 321.225 401.257 315.763C394.83 310.943 386.796 309.979 381.976 315.12C381.012 316.405 380.048 317.691 379.406 319.297V319.619C377.156 329.901 374.907 337.614 372.658 343.719C365.588 363.963 359.804 363.963 355.306 371.354C353.056 374.888 351.449 380.03 349.843 389.349C350.164 389.67 349.2 416.341 369.766 417.947Z" fill="#29ABE2"/>
<path d="M439.495 227.074C434.997 237.357 406.076 249.246 390.974 246.033C389.046 245.712 387.76 244.426 386.796 242.498C385.832 240.249 384.868 237.036 384.868 233.822C384.868 232.216 386.153 231.573 386.796 231.252C386.796 231.573 386.796 232.216 387.439 232.216C407.683 231.894 422.786 226.753 432.426 215.506C433.39 214.221 433.069 213.9 432.426 213.257C433.39 213.257 435.639 214.542 436.282 215.185C438.21 217.756 439.817 220.648 440.138 223.861C440.138 225.146 439.817 226.11 439.495 227.074Z" fill="#1B3440"/>
<path opacity="0.5" d="M355.626 371.355L360.768 380.673L372.979 343.72C365.909 363.964 360.125 363.964 355.626 371.355Z" fill="#1390BA"/>
<path d="M600.164 651.558C600.164 651.558 610.447 668.268 603.699 680.8C603.699 680.8 592.131 690.119 583.133 676.623C583.133 676.623 582.491 666.019 574.457 662.163C566.424 658.307 561.925 643.846 566.745 636.456C571.886 629.065 592.131 642.24 592.131 642.24L600.164 651.558Z" fill="#E02F36"/>
<path d="M456.206 692.368C458.455 702.972 470.345 705.543 486.733 707.471C508.262 709.72 520.152 702.33 517.902 696.867C513.725 685.299 521.758 657.664 521.758 657.664C529.149 639.026 530.113 619.746 529.149 605.286C528.185 589.862 525.293 579.579 525.293 579.579L549.715 524.309L554.535 548.088C554.535 548.088 565.139 595.967 573.172 614.605C581.206 633.242 580.242 642.882 580.242 642.882C580.242 642.882 572.208 644.489 572.851 648.666C573.494 652.844 583.134 663.769 586.026 665.055C604.02 673.088 601.771 658.628 601.771 658.628C601.771 658.628 597.594 647.702 596.951 624.245C597.915 604.001 596.951 587.934 593.738 575.081C591.167 564.155 586.668 555.8 581.206 549.695C581.206 549.695 581.206 549.695 591.167 511.456C591.167 510.813 591.488 510.171 591.488 509.528C602.092 469.682 582.812 441.405 582.812 441.405L526.9 445.582L513.404 478.037L502.478 532.022L494.445 571.224C494.445 571.224 496.052 594.682 497.658 625.53C497.98 631.957 498.301 638.705 498.622 645.453C500.55 685.62 489.625 686.905 489.625 686.905C478.057 694.296 455.563 688.833 456.206 692.368Z" fill="#FFB294"/>
<path d="M518.224 696.546C518.224 696.546 523.365 702.33 518.224 714.541C518.224 714.541 514.368 721.289 495.73 714.541C495.73 714.541 472.273 717.754 460.383 710.364C453.635 706.186 451.065 700.402 450.101 696.225C449.458 693.654 451.707 691.083 454.278 691.083H469.059C471.952 707.793 513.083 704.258 518.224 696.546Z" fill="#E02F36"/>
<path opacity="0.5" d="M494.767 571.224C494.767 571.224 496.373 594.681 497.98 625.53C497.98 625.53 510.191 596.288 517.903 594.039C525.615 591.789 529.471 604.964 529.471 604.964C528.507 589.54 525.615 579.257 525.615 579.257L550.036 523.988L554.856 547.766C554.856 547.766 565.461 595.645 573.494 614.283C573.494 614.283 573.815 604.643 577.993 587.612C582.17 570.581 594.059 574.759 594.059 574.759C591.489 563.833 586.99 555.479 581.527 549.373C581.527 549.373 581.527 549.373 591.489 511.134L581.206 498.602L512.44 504.707L503.121 532.021L494.767 571.224Z" fill="#FFB294"/>
<path d="M580.884 362.677L590.524 382.6L599.521 400.916C599.521 400.916 610.768 436.263 612.696 449.117C618.801 456.507 623.621 449.117 623.621 449.117C624.264 422.446 618.159 398.988 618.159 398.988C608.84 340.184 585.704 341.79 585.704 341.79L580.884 362.677Z" fill="#FFB294"/>
<path d="M614.946 443.011L610.126 452.009L609.804 458.757L612.696 465.826C613.982 467.754 615.588 468.075 615.588 465.505L615.267 461.327L617.195 457.793L630.048 466.469L637.76 473.538C642.259 476.43 643.544 476.109 642.58 473.538L634.868 459.399L622.336 448.153L621.372 440.441L614.303 439.477L614.946 443.011Z" fill="#FFB294"/>
<path opacity="0.5" d="M590.845 382.6L599.843 400.916C599.843 400.916 611.089 436.263 613.017 449.117C613.017 449.117 613.017 405.736 597.915 378.423L590.845 382.6Z" fill="#FFB294"/>
<path d="M488.661 568.976C499.587 588.578 524.329 583.757 539.432 581.187C573.172 574.76 585.383 546.161 585.383 546.161C595.023 522.704 597.915 502.459 597.594 486.393C597.273 455.544 585.383 438.835 585.383 438.835L522.401 448.154C522.401 448.154 519.188 453.938 514.368 465.184C510.512 474.503 505.371 487.357 500.551 503.424C498.623 509.208 497.337 515.313 496.052 520.776C495.409 524.31 494.445 527.524 493.802 531.058V531.38C491.232 544.876 489.625 557.408 488.661 568.976Z" fill="#534741"/>
<path opacity="0.5" d="M493.801 531.378C503.12 503.743 522.4 478.037 522.4 478.037L520.472 465.183H514.367C510.511 474.502 505.369 487.355 500.549 503.422C498.621 509.206 497.336 515.312 496.051 520.774C496.051 521.096 493.801 531.057 493.801 531.378Z" fill="#4D5865"/>
<path d="M514.689 430.8C519.188 446.224 511.154 468.397 511.154 468.397C511.154 468.397 512.118 474.502 522.401 478.358C528.507 480.607 538.147 481.893 553.249 480.607C589.56 477.073 591.81 452.33 591.81 452.33C585.704 442.69 592.452 412.805 597.915 385.813C602.093 364.605 599.522 348.217 590.524 343.718C583.776 340.184 575.1 341.147 568.995 345.646C562.247 350.788 538.147 362.034 538.147 362.034C538.147 362.034 532.684 365.569 527.864 373.924C518.545 387.42 505.049 388.384 501.193 404.772C498.944 414.412 502.157 420.839 506.013 425.016C509.869 428.872 514.689 430.8 514.689 430.8Z" fill="#E02F36"/>
<path d="M531.399 368.141L528.829 348.218L555.821 334.4L563.533 349.503C566.104 354.645 541.361 368.141 531.399 368.141Z" fill="#FFB294"/>
<path d="M507.62 331.508C509.548 334.079 511.155 337.613 512.44 341.469C514.368 347.896 515.011 354.644 515.011 356.572C515.011 356.893 515.011 357.215 515.011 357.215C517.903 357.857 549.715 364.605 560.319 350.788C571.566 336.328 566.746 322.189 566.746 322.189C566.746 321.868 566.746 321.225 566.746 320.904C568.995 287.164 533.005 288.449 533.005 288.449C495.409 291.662 501.193 324.117 507.62 331.508Z" fill="#722811"/>
<path d="M511.155 468.397C511.155 468.397 512.119 474.503 522.402 478.359C519.188 451.045 534.934 411.2 534.934 411.2L507.62 413.77C507.62 413.77 506.978 417.948 506.014 424.696C509.87 428.873 514.69 430.48 514.69 430.48C519.188 445.904 511.155 468.397 511.155 468.397Z" fill="#7A1C1C"/>
<path d="M533.006 397.703C533.006 397.703 542.325 416.983 522.402 425.98C502.479 434.978 475.487 440.762 469.06 431.122C461.027 419.232 497.016 374.888 497.016 374.888C500.872 373.924 504.728 373.602 507.62 378.422L496.374 405.093C508.906 395.453 524.972 385.171 533.006 397.703Z" fill="#FFB294"/>
<path opacity="0.5" d="M488.661 568.975C499.587 588.576 524.329 583.756 539.432 581.186C573.172 574.759 585.383 546.16 585.383 546.16C595.023 522.703 597.915 502.458 597.594 486.392C596.63 488.962 566.103 578.615 488.661 568.975Z" fill="#4D5865"/>
<path opacity="0.5" d="M512.118 341.469C514.046 347.896 514.689 354.644 514.689 356.572L515.01 357.215C517.902 357.857 549.393 364.606 559.997 350.788C571.244 336.328 566.424 322.189 566.424 322.189C566.424 321.868 566.424 321.225 566.424 320.904C565.46 347.575 526.9 364.927 512.118 341.469Z" fill="#722811"/>
<path d="M506.334 371.997L495.408 359.465L514.688 336.007H515.974L528.184 346.29L506.334 371.997Z" fill="#1A1A1A"/>
<path d="M504.085 382.601L507.62 378.745L517.26 369.426L520.795 361.714L522.401 353.681C522.401 353.359 522.401 353.038 522.08 352.717C521.759 352.395 521.437 352.395 521.116 352.395H520.795C520.152 352.395 519.509 352.717 519.509 353.359L516.939 358.822L513.082 363.642L510.19 361.714L508.262 354.645L505.692 346.933L508.262 343.719H506.334L503.121 344.362C502.478 344.362 501.836 345.005 501.514 345.647L500.872 347.254L498.944 347.897C497.98 348.218 497.337 349.182 497.337 350.146V351.431L495.088 352.717C494.445 353.038 493.802 354.002 493.802 354.645V357.858L493.16 361.071L496.373 370.069L497.658 374.567L494.445 382.28L500.872 384.85L504.085 382.601Z" fill="#FFB294"/>
<path d="M691.101 685.62C678.891 688.19 676.963 697.83 681.461 705.864L695.279 725.465C700.42 734.463 707.489 738.64 716.487 737.033C724.52 733.499 725.806 728.357 723.556 721.93L720.022 711.648L714.559 683.37L691.101 685.62Z" fill="black"/>
<path d="M722.592 710.684C718.735 723.537 693.671 723.216 692.065 705.864L685.317 656.057L684.031 645.453L670.214 587.933L667.322 575.401L676.641 569.939L713.273 548.73C715.201 558.049 716.486 570.581 717.129 586.005C717.772 598.859 717.771 613.319 717.771 629.386C724.198 652.201 724.198 680.8 722.592 710.684Z" fill="#284D5E"/>
<path d="M641.294 742.818C645.793 751.494 642.58 765.311 639.366 771.417C630.369 773.987 623.3 774.309 618.48 770.453C602.091 768.525 593.094 770.131 584.739 767.239C576.063 764.026 569.958 761.134 566.102 751.815C564.495 747.638 567.387 740.247 574.778 739.604C588.274 739.926 600.485 739.604 607.554 736.712L620.408 716.147L640.33 734.142L641.294 742.818Z" fill="black"/>
<path d="M683.711 549.052C681.14 556.122 678.569 563.191 675.999 570.26C673.749 576.366 671.821 582.15 669.893 588.255C665.716 600.466 661.86 612.355 658.968 623.281C656.076 633.885 653.827 643.525 652.22 651.558C654.148 685.941 650.292 718.396 642.58 749.566C631.012 761.777 604.341 750.851 604.984 737.676L609.804 676.944L611.732 652.201C614.302 620.068 618.48 590.505 625.87 564.798L683.711 549.052Z" fill="#284D5E"/>
<path opacity="0.5" d="M716.487 586.327L688.53 606.25C688.53 606.25 684.675 654.129 684.996 656.057L683.71 645.453L669.893 587.934C665.716 600.145 661.86 612.034 658.968 622.96L629.405 634.528L609.803 676.944L611.731 652.201C614.302 620.068 618.479 590.505 625.87 564.798L683.71 549.052C681.14 556.122 678.569 563.191 675.998 570.26L712.631 549.052L716.487 586.327Z" fill="#1E3A47"/>
<path d="M728.055 519.489C728.055 519.81 728.055 549.052 728.055 549.052L723.557 562.226L718.415 567.689L703.312 559.334L701.384 532.985L712.952 519.81H728.055V519.489Z" fill="#FFB294"/>
<path d="M743.801 471.932C742.837 493.783 739.623 513.063 732.875 529.13C729.341 532.664 726.127 534.271 723.557 534.914C719.379 535.556 715.844 533.628 712.631 530.415L716.809 478.359L717.13 476.431L707.811 452.009C708.775 427.909 710.703 406.379 728.698 417.947C738.338 430.801 742.194 450.081 743.801 471.932Z" fill="#FBB03B"/>
<path d="M730.625 495.389L723.556 534.914C719.379 535.556 715.844 533.628 712.63 530.415L716.808 478.358L730.625 441.405C730.304 461.649 732.875 482.536 730.625 495.389Z" fill="#EBDDCC"/>
<path d="M718.736 511.778C718.415 531.701 722.271 558.05 722.271 558.05C720.022 575.724 687.567 590.505 658.004 592.112C644.186 592.754 630.69 590.505 621.372 584.4C621.05 584.078 620.729 583.757 620.086 583.436C614.945 579.58 612.696 572.832 614.624 566.726C619.122 552.266 627.798 521.097 626.834 503.423C625.228 474.503 624.585 458.115 637.117 445.261C637.117 445.261 659.611 426.945 670.857 416.984C692.708 408.95 705.883 411.2 721.307 414.734C721.307 414.734 731.911 418.59 730.626 447.189C729.662 462.613 718.736 491.855 718.736 511.778Z" fill="#FBB03B"/>
<path d="M665.396 414.09L654.47 406.378C649.329 403.165 648.365 392.882 648.043 385.491L647.722 370.067L651.257 360.427L687.568 361.713L694.637 386.455L688.211 409.913L665.396 414.09Z" fill="#FFB294"/>
<path d="M659.932 425.018L661.86 405.095L685.317 398.668L694.957 411.521C687.567 421.161 675.034 424.696 659.932 425.018Z" fill="#FFB294"/>
<path d="M650.936 433.371L658.326 423.088C674.072 422.124 689.496 415.055 692.709 408.949L701.064 412.805L683.712 427.908L650.936 433.371Z" fill="#F5F5F5"/>
<path d="M642.258 441.405C642.258 441.405 672.464 440.441 694.315 428.23C705.24 422.125 705.883 415.377 705.883 415.377C706.526 412.485 701.063 409.593 695.921 410.557C692.708 422.768 665.716 427.588 654.148 429.194L642.258 441.405Z" fill="#FBB03B"/>
<path d="M647.72 372.318L656.396 380.672C657.682 381.958 658.646 383.886 658.646 385.814L659.288 393.526L664.108 397.703L663.787 405.415C663.787 405.415 671.499 416.019 686.281 410.557C696.563 407.022 694.957 405.094 698.17 387.42C700.419 376.174 700.419 365.248 690.137 356.572C680.497 348.539 659.931 348.86 651.898 356.251C647.399 360.107 644.507 367.176 647.72 372.318Z" fill="black"/>
<path d="M665.715 392.241C666.679 393.848 666.679 395.776 666.679 397.704C666.679 399.31 666.358 401.238 665.394 402.524C664.43 403.809 662.18 404.452 660.895 403.488C658.967 402.202 657.682 395.133 658.324 392.562C658.967 388.385 664.109 389.028 665.715 392.241Z" fill="#FFB294"/>
<path d="M618.479 569.617L613.659 592.111C613.337 598.859 612.695 604.964 613.98 609.784C615.908 613.319 616.872 615.89 619.443 618.46C621.049 619.103 622.335 619.424 622.977 619.424L624.584 621.031L629.725 622.638H636.473C640.651 623.28 640.972 619.746 638.08 618.46L634.224 615.89L631.332 611.391C631.332 611.391 633.903 601.751 633.581 596.931C632.939 592.111 629.725 585.041 629.725 585.041L631.653 571.867L618.479 569.617Z" fill="#FFB294"/>
<path d="M662.181 532.342L658.004 592.111C644.186 592.753 630.69 590.504 621.372 584.399L632.94 546.802L659.932 479.322L662.181 532.342Z" fill="#EBDDCC"/>
<path d="M611.41 581.508C611.41 585.685 627.476 598.538 634.867 589.862C643.222 569.618 649.97 552.266 654.147 533.307L659.61 489.605C662.502 468.719 653.183 449.117 636.474 446.225C616.23 459.4 629.404 490.248 625.548 525.595L611.41 581.508Z" fill="#FBB03B"/>
<path d="M843.417 622.637L841.489 627.457L835.383 632.277L831.849 639.668L830.885 643.845C830.885 646.737 833.455 646.416 833.777 644.488L834.098 642.56L836.99 639.989L837.954 652.2L834.098 663.768L836.669 666.018L846.952 661.84L851.45 655.414V631.956V624.887L843.417 622.637Z" fill="#FFB294"/>
<path d="M717.131 841.468H725.807C734.162 841.146 740.267 838.897 742.516 833.113C744.123 824.437 744.123 815.439 742.516 806.442C736.411 781.056 733.519 749.244 732.234 714.54L755.37 645.774L797.143 662.483L760.19 738.64C771.758 764.026 763.082 798.087 760.832 834.719L764.367 844.038L763.082 854.642L717.131 858.177L711.025 847.252L717.131 841.468Z" fill="#FFB294"/>
<path d="M711.347 841.467C702.028 841.788 702.35 847.894 703.635 852.714C705.884 858.819 713.597 863.96 720.345 863.96C728.057 863.96 747.015 865.888 747.015 865.888C754.085 868.78 758.905 867.816 765.332 865.888C767.902 857.855 768.545 850.786 764.046 844.038C759.548 855.606 740.589 856.891 723.237 854.32C719.381 853.678 715.525 849.179 717.774 845.966C719.381 843.716 721.951 842.11 725.486 841.146H711.347V841.467Z" fill="#29ABE2"/>
<path d="M804.855 830.863C800.678 829.578 797.143 829.899 794.251 833.434L791.038 838.254L804.534 849.822H818.351L824.457 843.717L821.565 828.614C825.421 785.876 842.451 755.671 824.457 722.573V677.586L797.786 684.977L800.999 728.357C804.534 760.491 809.354 821.223 804.855 830.863Z" fill="#FFB294"/>
<path d="M824.135 841.467C822.207 845.644 814.174 848.537 806.14 846.93C798.75 843.716 795.215 840.824 793.287 836.004C795.536 833.112 799.714 831.184 804.534 830.863L805.498 828.292L799.714 825.079C793.608 822.508 789.752 824.115 786.86 828.935C784.611 837.611 787.503 843.395 793.287 846.93L802.284 853.678C805.819 862.033 809.675 866.531 816.423 865.567C823.814 864.603 826.706 861.39 827.027 854.963C826.706 850.143 826.385 844.68 824.135 841.467Z" fill="#29ABE2"/>
<path d="M832.812 717.753C828.956 726.108 796.18 732.856 768.866 733.499C748.622 733.82 731.27 730.928 729.984 722.573C736.732 660.555 756.334 653.486 758.262 620.067C758.262 617.818 758.583 615.247 758.262 612.676L810.64 592.753L830.241 606.249C845.023 636.134 837.311 672.123 832.812 717.753Z" fill="#E02F36"/>
<path d="M768.866 733.177C748.622 733.498 731.27 730.606 729.984 722.251C736.732 660.233 756.334 653.164 758.262 619.745L789.11 630.671C745.73 648.344 747.336 703.292 768.866 733.177Z" fill="#962024"/>
<path d="M841.488 627.457C844.702 613.961 841.488 595.645 841.488 574.758L833.455 547.445L838.918 510.812C851.45 513.062 855.306 541.982 857.877 574.758C861.733 588.897 854.663 607.213 851.771 627.457H841.488Z" fill="#FFB294"/>
<path d="M834.097 608.5C824.778 623.281 809.354 631.315 787.825 631.315C778.827 631.315 768.866 630.029 757.94 627.459C756.655 608.5 760.511 592.754 756.976 577.33C756.976 577.33 756.012 576.045 754.405 574.117C750.549 568.654 743.801 557.407 746.693 544.554C749.264 533.307 765.331 524.952 765.331 524.952C765.331 524.952 783.968 513.384 797.786 507.922C811.282 502.459 838.596 509.528 838.596 509.528C838.596 509.528 846.629 515.634 843.094 534.592C838.596 558.693 827.349 570.582 827.027 582.15C826.063 592.754 833.776 607.536 834.097 608.5Z" fill="#29ABE2"/>
<path opacity="0.5" d="M789.11 630.993C780.113 630.993 768.866 629.707 757.94 627.137C756.655 608.178 760.511 592.432 756.977 577.008C756.977 577.008 756.012 575.723 754.406 573.795L771.437 547.767C785.897 582.15 786.861 594.682 784.611 610.748C782.362 625.851 789.11 630.993 789.11 630.993Z" fill="#1390BA"/>
<path d="M774.651 496.674L779.471 517.24C788.79 524.631 814.818 516.597 810.319 505.35L802.607 487.034L774.651 496.674Z" fill="#FFB294"/>
<path d="M767.902 447.51C767.902 447.51 741.874 465.505 776.257 507.921C776.257 507.921 800.035 518.525 811.282 499.245C822.529 479.643 824.778 451.366 804.213 440.762C783.326 429.836 765.653 435.62 767.902 447.51Z" fill="black"/>
<path d="M774.651 496.674L779.471 517.24C788.79 524.631 814.818 516.597 810.319 505.35L802.607 487.034L774.651 496.674Z" fill="#FFB294"/>
<path d="M767.902 447.51C767.902 447.51 741.874 465.505 776.257 507.921C776.257 507.921 800.035 518.525 811.282 499.245C822.529 479.643 824.778 451.366 804.213 440.762C783.326 429.836 765.653 435.62 767.902 447.51Z" fill="black"/>
<path d="M746.051 556.122L754.406 593.718L737.054 654.129L747.337 657.664C756.655 636.456 771.437 618.14 776.899 598.217C777.221 581.829 774.971 564.155 770.794 545.518C766.617 527.523 741.231 532.986 746.051 556.122Z" fill="#FFB294"/>
<path d="M741.875 644.167L737.055 654.128L731.271 675.337C731.271 680.478 732.235 685.619 733.842 691.082L735.448 695.581C735.77 696.545 736.412 697.187 737.376 697.509H737.698L738.34 699.115C738.662 699.758 738.983 700.079 739.626 700.079C740.59 700.079 741.554 699.437 741.554 698.473V697.509L742.196 697.187C743.482 696.545 744.446 695.259 744.124 693.974L743.482 683.37C746.374 678.229 749.266 673.087 749.587 669.231C749.908 665.054 748.944 660.876 747.659 656.699L751.194 644.81L741.875 644.167Z" fill="#FFB294"/>
</svg>
