<svg width="42" height="45" viewBox="0 0 42 45" fill="none" xmlns="http://www.w3.org/2000/svg">
<path d="M21 40C32.0457 40 41 31.0457 41 20C41 8.9543 32.0457 0 21 0C9.9543 0 1 8.9543 1 20C1 31.0457 9.9543 40 21 40Z" fill="white"/>
<g filter="url(#filter0_d)">
<path d="M15.8148 27.6986L16.1744 27.8845C17.6732 28.8136 19.3516 29.2472 21.0302 29.2472C26.3054 29.2472 30.6216 24.7872 30.6216 19.336C30.6216 16.7344 29.6024 14.1946 27.8041 12.3362C26.0057 10.4778 23.6078 9.4248 21.0302 9.4248C15.7549 9.4248 11.4387 13.8849 11.4987 19.398C11.4987 21.2563 12.0382 23.0528 12.9373 24.6013L13.1771 24.9731L12.218 28.6278L15.8148 27.6986Z" fill="#00E676"/>
<path d="M28.8231 11.345C26.785 9.177 23.9675 8 21.0901 8C14.9756 8 10.06 13.1414 10.1199 19.3979C10.1199 21.3801 10.6594 23.3005 11.5586 25.0349L10 30.9197L15.8148 29.3711C17.4333 30.3003 19.2317 30.7339 21.0302 30.7339C27.0847 30.7339 32.0003 25.5924 32.0003 19.3361C32.0003 16.3007 30.8613 13.4512 28.8232 11.345H28.8231ZM21.0901 28.8137C19.4715 28.8137 17.853 28.3801 16.4742 27.5129L16.1145 27.327L12.6377 28.2562L13.5368 24.7253L13.2971 24.3536C10.6594 19.9556 11.9183 14.1326 16.2344 11.4069C20.5505 8.68139 26.1256 9.98226 28.7632 14.4423C31.4008 18.9024 30.1419 24.6633 25.8259 27.3889C24.447 28.3181 22.7686 28.8136 21.0901 28.8136V28.8137ZM26.3653 21.9378L25.7059 21.6281C25.7059 21.6281 24.7469 21.1945 24.1474 20.8847C24.0874 20.8847 24.0275 20.8227 23.9675 20.8227C23.7876 20.8227 23.6678 20.8847 23.5479 20.9467C23.5479 20.9467 23.488 21.0086 22.6487 21.9997C22.5887 22.1236 22.4688 22.1856 22.349 22.1856H22.289C22.2291 22.1856 22.1092 22.1236 22.0492 22.0617L21.7495 21.9378C21.0901 21.6281 20.4906 21.2563 20.011 20.7608C19.8911 20.6369 19.7113 20.5131 19.5914 20.3892C19.1718 19.9556 18.7521 19.4599 18.4525 18.9024L18.3925 18.7786C18.3326 18.7166 18.3326 18.6547 18.2726 18.5308C18.2726 18.4069 18.2726 18.283 18.3326 18.2211C18.3326 18.2211 18.5724 17.9113 18.7521 17.7255C18.8721 17.6016 18.932 17.4158 19.0519 17.2919C19.1718 17.106 19.2317 16.8583 19.1718 16.6724C19.1119 16.3627 18.3925 14.6902 18.2127 14.3185C18.0927 14.1327 17.9729 14.0708 17.7931 14.0088H17.1337C17.0137 14.0088 16.8939 14.0708 16.7739 14.0708L16.714 14.1327C16.5941 14.1946 16.4742 14.3185 16.3543 14.3804C16.2344 14.5044 16.1744 14.6282 16.0546 14.7521C15.6349 15.3096 15.3952 15.991 15.3952 16.6724C15.3952 17.1679 15.515 17.6636 15.6949 18.0972L15.7549 18.283C16.2944 19.4599 17.0137 20.5131 17.9729 21.4422L18.2127 21.69C18.3925 21.8758 18.5724 21.9997 18.6922 22.1855C19.9511 23.3006 21.3898 24.1059 23.0084 24.5395C23.1882 24.6014 23.428 24.6014 23.6079 24.6634H24.2073C24.507 24.6634 24.8667 24.5395 25.1065 24.4156C25.2863 24.2917 25.4062 24.2917 25.5261 24.1678L25.646 24.0439C25.7659 23.92 25.8858 23.8581 26.0057 23.7342C26.1256 23.6103 26.2455 23.4865 26.3054 23.3625C26.4253 23.1147 26.4852 22.805 26.5452 22.4953V22.0617C26.5452 22.0617 26.4852 21.9997 26.3653 21.9378V21.9378Z" fill="white"/>
</g>
<defs>
<filter id="filter0_d" x="0" y="2" width="42.0003" height="42.9197" filterUnits="userSpaceOnUse" color-interpolation-filters="sRGB">
<feFlood flood-opacity="0" result="BackgroundImageFix"/>
<feColorMatrix in="SourceAlpha" type="matrix" values="0 0 0 0 0 0 0 0 0 0 0 0 0 0 0 0 0 0 127 0" result="hardAlpha"/>
<feOffset dy="4"/>
<feGaussianBlur stdDeviation="5"/>
<feComposite in2="hardAlpha" operator="out"/>
<feColorMatrix type="matrix" values="0 0 0 0 0 0 0 0 0 0 0 0 0 0 0 0 0 0 0.1 0"/>
<feBlend mode="normal" in2="BackgroundImageFix" result="effect1_dropShadow"/>
<feBlend mode="normal" in="SourceGraphic" in2="effect1_dropShadow" result="shape"/>
</filter>
</defs>
</svg>
