<svg width="64" height="64" viewBox="0 0 64 64" fill="none" xmlns="http://www.w3.org/2000/svg">
<g clip-path="url(#clip0)">
<path d="M18 27.8C19.5 26.6 21.1 25.4 23.1 24.7C25.4 23.9 28.1 24 30.6 24.6C33 25.2 35.3 26.2 37.5 27.1C43.8 29.9 50.1 32.7 56.4 35.5C57.8 36.1 59.2 36.8 60.2 37.7C62 39.5 62 42.1 60.7 44.2C59.4 46.3 57.2 47.9 54.8 49.2C52.4 50.6 49.9 51.8 47.8 53.4C45.8 54.9 44.3 56.7 42.4 58.2C36.5 62.8 26.7 64 19.3 61.1C13.9 59 9.99999 55.1 6.29999 51.4C3.59999 48.7 0.799988 45.7 0.799988 42.3C0.799988 39 3.59999 36.1 7.49999 34.9C11.6 33.8 14.8 30.3 18 27.8Z" fill="url(#paint0_linear)"/>
<path d="M0.700012 22.8L2.60001 20.9L4.30001 22.6" stroke="#FF9D23" stroke-width="1.345" stroke-miterlimit="10" stroke-linecap="round" stroke-linejoin="round"/>
<path d="M60.8 41.3L62.5 39.6L64 41.1" stroke="#9495FA" stroke-width="1.229" stroke-miterlimit="10" stroke-linecap="round" stroke-linejoin="round"/>
<path d="M2.5 32L0 34.5" stroke="#9495FA" stroke-width="1.345" stroke-miterlimit="10" stroke-linecap="round" stroke-linejoin="round"/>
<path d="M60.7 23.7L58 26.2999" stroke="#FF4B4D" stroke-width="1.229" stroke-miterlimit="10" stroke-linecap="round" stroke-linejoin="round"/>
<path d="M27.3 58.1L24.6 60.7" stroke="#0000DB" stroke-width="1.229" stroke-miterlimit="10" stroke-linecap="round" stroke-linejoin="round"/>
<path d="M51.9 58.1L49.2 60.7" stroke="#FF4B4D" stroke-width="1.229" stroke-miterlimit="10" stroke-linecap="round" stroke-linejoin="round"/>
<path d="M35.7 15H15.1C11.6 15 8.79999 17.9 8.79999 21.4V41.4C8.79999 44.9 11.6 47.8 15.1 47.8H15.2L15.4 52.8C15.5 54 16.9 54.7 17.9 54L26.6 47.8H49.3C52.8 47.8 55.6 44.9 55.6 41.4V21.4C55.6 17.9 52.8 15 49.3 15H41.6H35.7V15Z" fill="#9495FA" stroke="#0000DB" stroke-width="1.295" stroke-miterlimit="10" stroke-linecap="round" stroke-linejoin="round"/>
<path d="M19.6 31.3H44.7" stroke="white" stroke-width="1.295" stroke-miterlimit="10" stroke-linecap="round" stroke-linejoin="round"/>
<path d="M19.6 38.5H44.7" stroke="white" stroke-width="1.295" stroke-miterlimit="10" stroke-linecap="round" stroke-linejoin="round"/>
<path d="M19.6 24.2H44.7" stroke="white" stroke-width="1.295" stroke-miterlimit="10" stroke-linecap="round" stroke-linejoin="round"/>
<path d="M49.5 4.10004L48 6.00004L44.6 3.40004L46.1 1.50004C46.4 1.10004 47.1 1.00004 47.5 1.30004L49.3 2.60004C49.7 3.00004 49.8 3.60004 49.5 4.10004Z" fill="#FF9D23" stroke="#0000DB" stroke-width="1.295" stroke-miterlimit="10" stroke-linecap="round" stroke-linejoin="round"/>
<path d="M36.6 21.1L32.1 23.4L33.2 18.5L36.6 21.1Z" fill="#FED3BE" stroke="#0000DB" stroke-width="1.295" stroke-miterlimit="10" stroke-linecap="round" stroke-linejoin="round"/>
<path d="M48 6L39.3 17.5L38.3 18.8L36.6 21.1L33.2 18.5L34.9 16.2L35.9 14.9L44.6 3.5L48 6Z" fill="#F86C66" stroke="#0000DB" stroke-width="1.295" stroke-miterlimit="10" stroke-linecap="round" stroke-linejoin="round"/>
</g>
<defs>
<linearGradient id="paint0_linear" x1="21.427" y1="25.386" x2="41.034" y2="59.347" gradientUnits="userSpaceOnUse">
<stop stop-color="white" stop-opacity="0.25"/>
<stop offset="1" stop-color="#FF9D23" stop-opacity="0.8"/>
</linearGradient>
<clipPath id="clip0">
<rect width="64" height="64" fill="white"/>
</clipPath>
</defs>
</svg>
