<svg xmlns="http://www.w3.org/2000/svg" xmlns:xlink="http://www.w3.org/1999/xlink" width="16" height="16"><defs><linearGradient xlink:href="#a" id="b" x1="-722.917" y1="1119.862" x2="-715.624" y2="1119.862" gradientUnits="userSpaceOnUse" gradientTransform="translate(726.917 -75.5)"/><linearGradient id="a"><stop offset="0" stop-color="#fcd635"/><stop offset="1" stop-color="#f7a928"/></linearGradient></defs><path d="M5.399 1037.11L4 1042.786c0 .081.082.163.164.163H6.14c.082 0 .164.081.082.164l-2.139 4.524c-.082.081 0 .245.083.245h1.974c.082 0 .164.081.082.163l-1.563 3.702c-.082.081.083.163.165.081l6.416-6.17c.083-.08.083-.245-.082-.245H8.936c-.165 0-.165-.08-.165-.163l2.14-4.525c.082-.08 0-.163-.083-.163H8.689l.987-3.455c0-.081-.082-.245-.247-.245H5.728c-.165 0-.247.081-.33.245z" fill="url(#b)" transform="translate(0 -1036.362)"/></svg>