<svg width="128" height="128" viewBox="0 0 128 128" fill="none" xmlns="http://www.w3.org/2000/svg">
<path d="M8 43C12.4183 43 16 39.4183 16 35C16 30.5817 12.4183 27 8 27C3.58172 27 0 30.5817 0 35C0 39.4183 3.58172 43 8 43Z" fill="#919CFF"/>
<path d="M58 112C62.4183 112 66 108.418 66 104C66 99.5817 62.4183 96 58 96C53.5817 96 50 99.5817 50 104C50 108.418 53.5817 112 58 112Z" fill="#919CFF"/>
<path d="M52 70C56.4183 70 60 66.4183 60 62C60 57.5817 56.4183 54 52 54C47.5817 54 44 57.5817 44 62C44 66.4183 47.5817 70 52 70Z" fill="#919CFF"/>
<path d="M84 90C88.4183 90 92 86.4183 92 82C92 77.5817 88.4183 74 84 74C79.5817 74 76 77.5817 76 82C76 86.4183 79.5817 90 84 90Z" fill="#919CFF"/>
<path d="M111 106C115.418 106 119 102.418 119 98C119 93.5817 115.418 90 111 90C106.582 90 103 93.5817 103 98C103 102.418 106.582 106 111 106Z" fill="#919CFF"/>
<path d="M16 99C20.4183 99 24 95.4183 24 91C24 86.5817 20.4183 83 16 83C11.5817 83 8 86.5817 8 91C8 95.4183 11.5817 99 16 99Z" fill="#919CFF"/>
<path d="M120 58C124.418 58 128 54.4183 128 50C128 45.5817 124.418 42 120 42C115.582 42 112 45.5817 112 50C112 54.4183 115.582 58 120 58Z" fill="#919CFF"/>
<path d="M96 32C100.418 32 104 28.4183 104 24C104 19.5817 100.418 16 96 16C91.5817 16 88 19.5817 88 24C88 28.4183 91.5817 32 96 32Z" fill="#919CFF"/>
<path d="M93.208 89.683L99.808 93.706C100.289 92.4522 100.977 91.288 101.844 90.262L95.218 86.224C94.7463 87.4814 94.0669 88.6506 93.208 89.683V89.683ZM109.77 56.24L105.226 60.189L100.264 35.203C99.0096 35.6823 97.6833 35.946 96.341 35.983L101.748 63.211L91.172 72.401C92.2506 73.2035 93.1878 74.1802 93.945 75.291L102.645 67.731L106.453 86.901C107.696 86.3937 109.017 86.1002 110.358 86.033L106.123 64.708L112.385 59.267C111.351 58.4103 110.467 57.3873 109.77 56.24V56.24ZM68.18 97.68L75.98 90.901C74.9795 90.0039 74.1359 88.946 73.484 87.771L65.538 94.676C66.5794 95.5232 67.4723 96.5381 68.18 97.679V97.68ZM85.707 30.138L59.381 52.558C60.4388 53.3864 61.351 54.3854 62.08 55.514L88.295 33.188C87.2688 32.3222 86.3942 31.2914 85.707 30.138V30.138ZM75.11 73.968L63.069 66.628C62.5453 67.8647 61.8179 69.0049 60.917 70.001L72.945 77.332C73.4736 76.0976 74.2054 74.9605 75.11 73.968ZM16.812 43.118L40.796 57.737C41.2729 56.4819 41.9571 55.3157 42.82 54.287L19.006 39.77C18.4671 41.0004 17.7259 42.1317 16.813 43.117L16.812 43.118ZM33.818 74.329L24.346 82.397C25.3111 83.3354 26.1122 84.4289 26.716 85.632L36.178 77.574L49.353 95.701C50.2827 94.7328 51.3676 93.9267 52.563 93.316L39.233 74.973L43.998 70.916C42.9965 70.0208 42.1516 68.9646 41.498 67.791L36.875 71.728L16.4 43.557C15.4396 44.4959 14.329 45.2676 13.114 45.84L33.818 74.329Z" fill="#919CFF"/>
</svg>
