<svg width="48" height="48" viewBox="0 0 48 48" fill="none" xmlns="http://www.w3.org/2000/svg">
<path d="M47 3V9H1V3C1 2.46957 1.21071 1.96086 1.58579 1.58579C1.96086 1.21071 2.46957 1 3 1H45C45.5304 1 46.0391 1.21071 46.4142 1.58579C46.7893 1.96086 47 2.46957 47 3Z" fill="#6FABE6"/>
<path d="M47 3V7H10C8.4087 7 6.88258 6.36786 5.75736 5.24264C4.63214 4.11742 4 2.5913 4 1H45C45.5304 1 46.0391 1.21071 46.4142 1.58579C46.7893 1.96086 47 2.46957 47 3Z" fill="#82BCF4"/>
<path d="M47 9V45C47 45.5304 46.7893 46.0391 46.4142 46.4142C46.0391 46.7893 45.5304 47 45 47H3C2.46957 47 1.96086 46.7893 1.58579 46.4142C1.21071 46.0391 1 45.5304 1 45V9H47Z" fill="#DAD7E5"/>
<path d="M47 9V45H40C30.4611 44.971 21.3212 41.1688 14.5762 34.4238C7.83118 27.6788 4.02901 18.5389 4 9H47Z" fill="#EDEBF2"/>
<path d="M4.99999 6.00004C4.79454 5.9959 4.59535 5.92856 4.42953 5.80719C4.26371 5.68582 4.1393 5.51631 4.07324 5.32172C4.00718 5.12713 4.00267 4.91692 4.06032 4.71968C4.11798 4.52244 4.235 4.34775 4.39546 4.21938C4.55593 4.091 4.75204 4.01518 4.95713 4.00223C5.16222 3.98928 5.36631 4.03983 5.54165 4.14699C5.71699 4.25416 5.85506 4.41274 5.93707 4.60116C6.01908 4.78958 6.04105 4.99869 5.99999 5.20004C5.95324 5.42932 5.82757 5.63494 5.64485 5.78111C5.46213 5.92729 5.23394 6.00476 4.99999 6.00004Z" fill="#F26674"/>
<path d="M8 4.99996C8.01313 4.86864 8.052 4.74119 8.11439 4.62489C8.17678 4.50859 8.26146 4.40571 8.3636 4.32214C8.46575 4.23857 8.58335 4.17593 8.70971 4.13781C8.83606 4.09969 8.96868 4.08683 9.1 4.09996C9.23132 4.11309 9.35877 4.15196 9.47507 4.21435C9.59137 4.27673 9.69425 4.36142 9.77782 4.46356C9.86139 4.56571 9.92403 4.68331 9.96215 4.80966C10.0003 4.93601 10.0131 5.06864 10 5.19996C9.97348 5.46517 9.84269 5.70899 9.6364 5.87778C9.43011 6.04656 9.16522 6.12648 8.9 6.09996C8.63478 6.07344 8.39097 5.94264 8.22218 5.73635C8.0534 5.53006 7.97348 5.26517 8 4.99996V4.99996Z" fill="#FFDE76"/>
<path d="M13 6C12.7348 6 12.4804 5.89464 12.2929 5.70711C12.1054 5.51957 12 5.26522 12 5C12 4.80222 12.0586 4.60888 12.1685 4.44443C12.2784 4.27998 12.4346 4.15181 12.6173 4.07612C12.8 4.00043 13.0011 3.98063 13.1951 4.01922C13.3891 4.0578 13.5673 4.15304 13.7071 4.29289C13.847 4.43275 13.9422 4.61093 13.9808 4.80491C14.0194 4.99889 13.9996 5.19996 13.9239 5.38268C13.8482 5.56541 13.72 5.72159 13.5556 5.83147C13.3911 5.94135 13.1978 6 13 6Z" fill="#B5E08C"/>
<path d="M34 26.25V36C34 36.5304 33.7893 37.0391 33.4142 37.4142C33.0391 37.7893 32.5304 38 32 38H16C15.4696 38 14.9609 37.7893 14.5858 37.4142C14.2107 37.0391 14 36.5304 14 36V26.25C21.8 29.18 10 24.77 24 30L34 26.25Z" fill="#374F68"/>
<path d="M34 26.25V36H18C17.4696 36 16.9609 35.7893 16.5858 35.4142C16.2107 35.0391 16 34.5304 16 34V27L24 30L34 26.25Z" fill="#425B72"/>
<path d="M8.91 31L9 24.74C9 24.4748 9.10536 24.2204 9.2929 24.0329C9.48043 23.8453 9.73479 23.74 10 23.74C10.2652 23.74 10.5196 23.8453 10.7071 24.0329C10.8946 24.2204 11 24.4748 11 24.74L10.91 31C10.91 31.2652 10.8046 31.5196 10.6171 31.7071C10.4296 31.8946 10.1752 32 9.91 32C9.64479 32 9.39043 31.8946 9.2029 31.7071C9.01536 31.5196 8.91 31.2652 8.91 31Z" fill="#FFDE76"/>
<path d="M40 24L24 30L8 24L24 18L40 24Z" fill="#374F68"/>
<path d="M37.33 23L24 28L10.67 23L24 18L37.33 23Z" fill="#425B72"/>
<path d="M45 0H3C2.20435 0 1.44129 0.31607 0.87868 0.87868C0.31607 1.44129 0 2.20435 0 3L0 45C0 45.7956 0.31607 46.5587 0.87868 47.1213C1.44129 47.6839 2.20435 48 3 48H45C45.7956 48 46.5587 47.6839 47.1213 47.1213C47.6839 46.5587 48 45.7956 48 45V3C48 2.20435 47.6839 1.44129 47.1213 0.87868C46.5587 0.31607 45.7956 0 45 0V0ZM2 3C2 2.73478 2.10536 2.48043 2.29289 2.29289C2.48043 2.10536 2.73478 2 3 2H45C45.2652 2 45.5196 2.10536 45.7071 2.29289C45.8946 2.48043 46 2.73478 46 3V8H2V3ZM46 45C46 45.2652 45.8946 45.5196 45.7071 45.7071C45.5196 45.8946 45.2652 46 45 46H3C2.73478 46 2.48043 45.8946 2.29289 45.7071C2.10536 45.5196 2 45.2652 2 45V10H46V45Z" fill="black"/>
<path d="M5.38 4.07998C5.14218 4.00755 4.8859 4.0263 4.66115 4.13259C4.4364 4.23887 4.2593 4.42506 4.16439 4.65484C4.06948 4.88462 4.06357 5.14152 4.1478 5.37542C4.23204 5.60933 4.40038 5.80347 4.62 5.91998C4.85783 5.99241 5.11411 5.97366 5.33885 5.86738C5.5636 5.7611 5.7407 5.57491 5.83561 5.34512C5.93052 5.11534 5.93644 4.85845 5.8522 4.62454C5.76796 4.39064 5.59962 4.19649 5.38 4.07998ZM8.8 3.99998C8.63664 4.02775 8.48274 4.09568 8.35213 4.19766C8.22152 4.29965 8.11831 4.43249 8.05176 4.58425C7.98521 4.73601 7.95742 4.90192 7.97088 5.06708C7.98435 5.23224 8.03864 5.39147 8.12889 5.53045C8.21913 5.66942 8.3425 5.7838 8.4879 5.86328C8.6333 5.94277 8.79617 5.98488 8.96187 5.98582C9.12758 5.98677 9.29092 5.94652 9.43722 5.8687C9.58351 5.79088 9.70818 5.67792 9.8 5.53998C9.9082 5.37745 9.96645 5.1868 9.96756 4.99155C9.96868 4.7963 9.91261 4.60499 9.80627 4.44124C9.69994 4.27748 9.54799 4.14843 9.36917 4.07002C9.19035 3.99161 8.99249 3.96726 8.8 3.99998ZM12.29 4.28998C12.1017 4.47829 11.9959 4.73368 11.9959 4.99998C11.9959 5.26628 12.1017 5.52168 12.29 5.70998C12.4783 5.89829 12.7337 6.00407 13 6.00407C13.2663 6.00407 13.5217 5.89829 13.71 5.70998C13.8983 5.52168 14.0041 5.26628 14.0041 4.99998C14.0041 4.73368 13.8983 4.47829 13.71 4.28998C13.5217 4.10168 13.2663 3.99589 13 3.99589C12.7337 3.99589 12.4783 4.10168 12.29 4.28998V4.28998ZM7.65 24.94L8.98 25.44L8.91 31C8.91 31.2652 9.01536 31.5196 9.2029 31.7071C9.39043 31.8946 9.64479 32 9.91 32C10.1752 32 10.4296 31.8946 10.6171 31.7071C10.8046 31.5196 10.91 31.2652 10.91 31L11 26.18L13 26.94V36C13 36.7956 13.3161 37.5587 13.8787 38.1213C14.4413 38.6839 15.2044 39 16 39H32C32.7957 39 33.5587 38.6839 34.1213 38.1213C34.6839 37.5587 35 36.7956 35 36V26.94C40.64 24.83 41 24.94 41 24C41 23.06 41.39 23.45 24.35 17.06C23.85 16.88 25.12 16.51 7.65 23.06C7.45695 23.13 7.29015 23.2579 7.17228 23.426C7.05441 23.5942 6.99118 23.7946 6.99118 24C6.99118 24.2054 7.05441 24.4057 7.17228 24.5739C7.29015 24.7421 7.45695 24.8699 7.65 24.94V24.94ZM33 36C33 36.2652 32.8946 36.5196 32.7071 36.7071C32.5196 36.8946 32.2652 37 32 37H16C15.7348 37 15.4804 36.8946 15.2929 36.7071C15.1054 36.5196 15 36.2652 15 36V27.69C24.39 31.22 23.74 31 24 31C24.26 31 23.52 31.25 33 27.69V36ZM24 19.07L37.15 24L24 28.93L10.85 24L24 19.07Z" fill="black"/>
</svg>
