<svg width="64" height="64" viewBox="0 0 64 64" fill="none" xmlns="http://www.w3.org/2000/svg">
<path d="M40 44.9C37.6 44.9 35.7 46.8 35.7 49.2C35.7 51.6 37.6 53.5 40 53.5C42.4 53.5 44.3 51.6 44.3 49.2C44.3 46.8 42.4 44.9 40 44.9ZM40 51.5C38.7 51.5 37.7 50.4 37.7 49.2C37.7 47.9 38.8 46.8 40 46.8C41.3 46.8 42.4 47.9 42.4 49.2C42.4 50.4 41.3 51.5 40 51.5Z" fill="#2B2E63"/>
<path d="M42.4 49.2001C42.4 50.5001 41.3 51.5 40 51.5C38.7 51.5 37.7 50.4001 37.7 49.2001C37.7 47.9001 38.8 46.8 40 46.8C41.3 46.8 42.4 47.9001 42.4 49.2001Z" fill="#FFE5AB"/>
<path d="M28.7 44.9C26.3 44.9 24.4 46.8 24.4 49.2C24.4 51.6 26.3 53.5 28.7 53.5C31.1 53.5 33 51.6 33 49.2C33 46.8 31.1 44.9 28.7 44.9ZM28.7 51.5C27.4 51.5 26.4 50.4 26.4 49.2C26.4 47.9 27.4 46.8 28.7 46.8C30 46.8 31.1 47.9 31.1 49.2C31.1 50.4 30 51.5 28.7 51.5Z" fill="#2B2E63"/>
<path d="M31.1 49.2001C31.1 50.5001 30.1 51.5 28.7 51.5C27.4 51.5 26.4 50.4001 26.4 49.2001C26.4 47.9001 27.4 46.8 28.7 46.8C30 46.8 31.1 47.9001 31.1 49.2001Z" fill="#FFE5AB"/>
<path d="M51.3 54.4C49.2 54.4 47.2 55.2 45.7 56.6C44.2 55.3 42.2 54.4 40 54.4C37.8 54.4 35.9 55.2 34.4 56.6C32.9 55.2 30.9 54.4 28.8 54.4C24.1 54.4 20.3 58.2 20.3 62.9C20.3 63.5 20.8 64 21.4 64H32.7H47.4H58.7C59.3 64 59.8 63.5 59.8 62.9C59.8 58.2 56 54.4 51.3 54.4ZM31.6 61.7H22.6C23.1 58.8 25.7 56.6 28.7 56.6C30.3 56.6 31.7 57.2 32.9 58.2C32.2 59.3 31.8 60.5 31.6 61.7ZM33.9 61.7C34.4 58.8 37 56.6 40 56.6C43 56.6 45.6 58.8 46.1 61.7H33.9ZM48.4 61.7C48.2 60.4 47.8 59.2 47.1 58.2C48.2 57.2 49.7 56.6 51.3 56.6C54.3 56.6 56.9 58.8 57.4 61.7H48.4Z" fill="#2B2E63"/>
<path d="M32.9 58.2C32.2 59.2 31.8 60.4 31.6 61.7H22.6C23.1 58.8 25.7 56.6 28.7 56.6C30.3 56.6 31.7 57.2 32.9 58.2Z" fill="#51BF9F"/>
<path d="M57.4 61.7H48.4C48.2 60.4 47.8 59.2 47.1 58.2C48.2 57.2 49.7 56.6 51.3 56.6C54.3 56.6 56.9 58.8 57.4 61.7Z" fill="#4EBDE5"/>
<path d="M46.1 61.7H33.9C34.4 58.8 37 56.6 40 56.6C43 56.6 45.6 58.8 46.1 61.7Z" fill="#F26E61"/>
<path d="M24 60.7H31.8C31.7 61 31.7 61.4 31.6 61.7H22.6C23.1 58.8 25.7 56.6 28.7 56.6C30.2 56.6 31.7 57.2 32.9 58.2C32.7 58.5 32.6 58.7 32.4 59L31.5 58.5C30.7 58 29.7 57.7 28.6 57.7C26.6 57.6 24.8 58.9 24 60.7Z" fill="#3DA580"/>
<path d="M57.4 61.7H48.4C48.4 61.4 48.3 61 48.2 60.7H56C55.2 58.9 53.3 57.6 51.2 57.6C50.2 57.6 49.2 57.9 48.4 58.4L47.6 59C47.5 58.7 47.3 58.4 47.1 58.2C48.2 57.2 49.7 56.6 51.2 56.6C54.3 56.6 56.9 58.8 57.4 61.7Z" fill="#36A9DB"/>
<path d="M40 56.6C37 56.6 34.4 58.8 33.9 61.7H46.1C45.6 58.8 43.1 56.6 40 56.6ZM40 57.6C42.1 57.6 43.9 58.9 44.8 60.7H35.3C36.1 58.9 37.9 57.6 40 57.6Z" fill="#E15E5A"/>
<path d="M51.3 44.9C48.9 44.9 47 46.8 47 49.2C47 51.6 48.9 53.5 51.3 53.5C53.7 53.5 55.6 51.6 55.6 49.2C55.6 46.8 53.7 44.9 51.3 44.9ZM51.3 51.5C50 51.5 48.9 50.4 48.9 49.2C48.9 47.9 50 46.8 51.3 46.8C52.6 46.8 53.6 47.9 53.6 49.2C53.6 50.4 52.6 51.5 51.3 51.5Z" fill="#2B2E63"/>
<path d="M53.6 49.2001C53.6 50.5001 52.6 51.5 51.3 51.5C50 51.5 48.9 50.4001 48.9 49.2001C48.9 47.9001 50 46.8 51.3 46.8C52.6 46.8 53.6 47.9001 53.6 49.2001Z" fill="#FFE5AB"/>
<path d="M12.8 11.5C10.5 11.5 8.60001 13.4 8.60001 15.7C8.60001 18 10.5 19.9 12.8 19.9C15.1 19.9 17 18 17 15.7C17 13.4 15.1 11.5 12.8 11.5ZM12.8 18.1C11.5 18.1 10.5 17.1 10.5 15.8C10.5 14.5 11.5 13.5 12.8 13.5C14.1 13.5 15.1 14.5 15.1 15.8C15.1 17.1 14.1 18.1 12.8 18.1Z" fill="#2B2E63"/>
<path d="M15.1 15.8C15.1 17.1 14.1 18.1 12.8 18.1C11.5 18.1 10.5 17.1 10.5 15.8C10.5 14.5 11.5 13.5 12.8 13.5C14.1 13.5 15.1 14.5 15.1 15.8Z" fill="#FFE5AB"/>
<path d="M40 46.8C38.7 46.8 37.6 47.9 37.6 49.2C37.6 50.5 38.7 51.5 40 51.5C41.3 51.5 42.4 50.4 42.4 49.2C42.4 47.9 41.3 46.8 40 46.8ZM40 50.5C39.3 50.5 38.6 49.9 38.6 49.2C38.6 48.4 39.2 47.8 40 47.8C40.8 47.8 41.4 48.4 41.4 49.2C41.4 49.9 40.8 50.5 40 50.5ZM28.7 46.8C27.4 46.8 26.4 47.9 26.4 49.2C26.4 50.5 27.4 51.5 28.7 51.5C30 51.5 31.1 50.4 31.1 49.2C31.1 47.9 30 46.8 28.7 46.8ZM28.7 50.5C28 50.5 27.4 49.9 27.4 49.2C27.4 48.4 28 47.8 28.7 47.8C29.4 47.8 30.1 48.4 30.1 49.2C30.1 49.9 29.5 50.5 28.7 50.5ZM51.3 46.8C50 46.8 48.9 47.9 48.9 49.2C48.9 50.5 50 51.5 51.3 51.5C52.6 51.5 53.7 50.4 53.7 49.2C53.6 47.9 52.6 46.8 51.3 46.8ZM51.3 50.5C50.5 50.5 49.9 49.9 49.9 49.2C49.9 48.4 50.5 47.8 51.3 47.8C52 47.8 52.7 48.4 52.7 49.2C52.6 49.9 52 50.5 51.3 50.5ZM12.8 13.5C11.5 13.5 10.5 14.5 10.5 15.8C10.5 17.1 11.5 18.1 12.8 18.1C14.1 18.1 15.1 17.1 15.1 15.8C15.1 14.5 14.1 13.5 12.8 13.5ZM12.8 17.1C12.1 17.1 11.5 16.5 11.5 15.8C11.5 15.1 12.1 14.5 12.8 14.5C13.5 14.5 14.1 15.1 14.1 15.8C14.1 16.5 13.5 17.1 12.8 17.1Z" fill="#F0D39A"/>
<path d="M56.1 0H23.9C22 0 20.4 1.6 20.4 3.5V21.8L19.7 22.1C18.8 22.4 18.6 22.4 17.7 21.9C16.9 21.5 16.1 21.3 15.2 21.3H10.1C6.80001 21.3 4.20001 23.9 4.20001 27.2V34.3C4.20001 35 4.50001 35.7 5.00001 36.2C5.60001 36.8 6.30001 37.1 7.20001 37C7.40001 37 7.50001 37 7.70001 36.9V46.3C7.70001 48 9.10001 49.5 10.9 49.5C11.8 49.5 12.5 49.2 13.1 48.6C13.7 49.2 14.5 49.5 15.3 49.5C17 49.5 18.5 48.1 18.5 46.4L18.7 28.4C19.4 28.3 20 28.1 20.6 27.9C20.7 29.7 22.2 31.2 24 31.2H36.2L30.9 40.6C30.6 41.1 30.8 41.7 31.3 41.9C31.4 42 31.6 42 31.8 42C32.1 42 32.5 41.8 32.6 41.5L38.3 31H41.8L47.6 41.3C47.8 41.6 48.1 41.8 48.4 41.8C48.6 41.8 48.7 41.8 48.9 41.7C49.4 41.4 49.5 40.8 49.3 40.4L44 31H56.2C58.1 31 59.7 29.4 59.7 27.5V3.5C59.6 1.6 58 0 56.1 0ZM19.8 26C19.2 26.3 18.4 26.5 17.7 26.5C17.4 26.5 17.2 26.6 17 26.8C16.8 27 16.7 27.2 16.7 27.5L16.5 46.4C16.5 47.1 16 47.6 15.3 47.6C15 47.6 14.7 47.5 14.4 47.2C14.2 47 14 46.7 14 46.3V37.8C14 37.3 13.6 36.8 13 36.8C12.5 36.8 12 37.2 12 37.8V46.3C12 47 11.4 47.5 10.8 47.5C10.1 47.5 9.60001 47 9.60001 46.3V27.1C9.60001 26.6 9.20001 26.1 8.60001 26.1C8.10001 26.1 7.60001 26.5 7.60001 27.1V34.2C7.60001 34.6 7.30001 35 6.90001 35.1C6.70001 35.1 6.50001 35 6.30001 34.9C6.20001 34.8 6.10001 34.6 6.10001 34.4V27.3C6.10001 25.1 7.90001 23.3 10.1 23.3H15.2C15.8 23.3 16.3 23.4 16.9 23.7C18.2 24.3 18.9 24.4 20.4 23.9H20.5L26.7 21.1C26.9 21 27.1 21.1 27.2 21.1C27.3 21.1 27.5 21.2 27.5 21.5C27.6 21.8 27.4 22 27.2 22.2L19.8 26ZM57.7 27.6C57.7 28.4 57 29.1 56.2 29.1H23.9C23.1 29.1 22.4 28.4 22.4 27.6V26.9L28.1 24C29.1 23.5 29.7 22.3 29.4 21.1C29.2 20.4 28.7 19.8 28.1 19.4C27.5 19 26.7 19.1 26 19.4L22.5 21V3.5C22.5 2.6 23.2 2 24 2H56.2C57 2 57.7 2.7 57.7 3.5V27.6Z" fill="#2B2E63"/>
<path d="M57.7 3.50001V27.6C57.7 28.4 57 29.1 56.2 29.1H23.9C23.1 29.1 22.4 28.4 22.4 27.6V26.9L28.1 24C29.1 23.5 29.7 22.3 29.4 21.1C29.2 20.4 28.7 19.8 28.1 19.4C27.5 19 26.7 19.1 26 19.4L22.5 21V3.50001C22.5 2.60001 23.2 2.00001 24 2.00001H56.2C57 1.90001 57.7 2.60001 57.7 3.50001Z" fill="#EDEDED"/>
<path d="M57.7 3.50001V27.6C57.7 28.4 57 29.1 56.2 29.1H23.9C23 29.1 22.4 28.4 22.4 27.6V26.9L24.2 26V27.7H56.2V3.60001H23.9V20.4L22.4 21.1V3.50001C22.4 2.60001 23.1 2.00001 23.9 2.00001H56.1C57 1.90001 57.7 2.60001 57.7 3.50001Z" fill="#D6D6D6"/>
<path d="M27.1 22.2L19.8 26C19.2 26.3 18.4 26.5 17.7 26.5C17.4 26.5 17.2 26.6 17 26.8C16.8 27 16.7 27.2 16.7 27.5L16.5 46.4C16.5 47.1 16 47.6 15.3 47.6C15 47.6 14.7 47.5 14.4 47.2C14.2 47 14 46.7 14 46.3V37.8C14 37.3 13.6 36.8 13 36.8C12.5 36.8 12 37.2 12 37.8V46.3C12 47 11.4 47.5 10.8 47.5C10.1 47.5 9.60001 47 9.60001 46.3V27.1C9.60001 26.6 9.20001 26.1 8.60001 26.1C8.10001 26.1 7.60001 26.5 7.60001 27.1V34.2C7.60001 34.6 7.30001 35 6.90001 35.1C6.70001 35.1 6.50001 35 6.30001 34.9C6.20001 34.8 6.10001 34.6 6.10001 34.4V27.3C6.10001 25.1 7.90001 23.3 10.1 23.3H15.2C15.8 23.3 16.3 23.4 16.9 23.7C18.2 24.3 18.9 24.4 20.4 23.9H20.5L26.7 21.1C26.9 21 27.1 21.1 27.2 21.1C27.3 21.1 27.5 21.2 27.5 21.5C27.5 21.8 27.4 22.1 27.1 22.2Z" fill="#4EBDE5"/>
<path d="M12.1 45.8V46.2C12.1 46.9 11.5 47.4 10.9 47.4C10.3 47.4 9.70001 46.9 9.70001 46.2V45.7C9.90001 46.1 10.4 46.4 10.9 46.4C11.3 46.5 11.8 46.2 12.1 45.8ZM16.5 45.8V46.3C16.5 47 16 47.5 15.3 47.5C15 47.5 14.7 47.4 14.4 47.1C14.2 46.9 14 46.6 14 46.2V45.6C14.1 45.8 14.2 45.9 14.4 46C14.6 46.2 14.9 46.4 15.3 46.4C15.7 46.5 16.2 46.2 16.5 45.8ZM27.2 22.2C27.2 22.2 27.1 22.2 27.2 22.2C27.1 22.1 26.9 22.1 26.7 22.2L20.5 25H20.4C18.9 25.5 18.2 25.4 16.9 24.8C16.3 24.5 15.8 24.4 15.2 24.4H10.1C7.90001 24.4 6.20001 26.2 6.20001 28.4V27.4C6.20001 25.2 8.00001 23.4 10.1 23.4H15.2C15.8 23.4 16.3 23.5 16.9 23.8C18.2 24.4 18.9 24.5 20.4 24H20.5L26.7 21.2C26.9 21.1 27.1 21.2 27.2 21.2C27.3 21.2 27.5 21.4 27.5 21.6C27.5 21.8 27.4 22 27.2 22.2Z" fill="#36A9DB"/>
</svg>
