<svg width="50" height="50" viewBox="0 0 50 50" fill="none" xmlns="http://www.w3.org/2000/svg">
<path d="M25.667 15.7818L8.59893 25.6936L2.83121 22.361C2.73155 22.304 2.63186 22.2971 2.56775 22.3398L19.6288 12.4207C19.7 12.3849 19.7925 12.3922 19.8994 12.4492L25.667 15.7818Z" fill="#FED44C"/>
<path d="M27.3546 22.7667L10.2936 32.6859C10.3862 32.6289 10.4289 32.4936 10.3862 32.3014L8.9621 26.2061C8.91225 25.9995 8.76983 25.793 8.59894 25.6936L25.667 15.7817C25.8308 15.8742 25.9732 16.0807 26.0231 16.2873L27.4472 22.3895C27.497 22.5748 27.4543 22.7097 27.3546 22.7667Z" fill="#F2BC36"/>
<path d="M8.60214 25.6948C8.77034 25.7919 8.91093 25.9986 8.96044 26.2051L10.3867 32.3029C10.4632 32.6244 10.2805 32.8017 10.0305 32.6573L1.37438 27.6597C1.11979 27.5127 0.94328 27.1281 1.01681 26.8932L2.4729 22.4596C2.52341 22.3107 2.66925 22.2694 2.83291 22.3639L8.60214 25.6948Z" fill="#F9C73A"/>
<path d="M19.231 15.2691L19.094 15.3491L18.656 15.0961L18.415 15.2371L18.806 15.4631L18.671 15.5411L18.279 15.3151L17.917 15.5261L17.768 15.4401L18.645 14.9301L19.231 15.2691Z" fill="#F2BC36"/>
<path d="M19.5704 15.4071C19.5705 15.4288 19.5581 15.4457 19.5351 15.4591C19.5102 15.4736 19.481 15.4808 19.4455 15.4796C19.41 15.4808 19.3808 15.4735 19.3556 15.459C19.3326 15.4457 19.3199 15.4288 19.3198 15.4071C19.3197 15.3877 19.3321 15.3708 19.3571 15.3563C19.38 15.3429 19.4091 15.3357 19.4447 15.3345C19.4802 15.3356 19.5116 15.3417 19.5346 15.355C19.5597 15.3695 19.5703 15.3877 19.5704 15.4071ZM19.8989 15.8836C19.9743 15.9271 20.0142 15.9767 20.0124 16.0312C20.0128 16.0844 19.9692 16.1364 19.8838 16.186L19.4738 16.4243L19.3334 16.3432L19.6998 16.1304C19.8225 16.059 19.8326 15.9925 19.7299 15.9332C19.6817 15.9054 19.6232 15.8909 19.5522 15.8884C19.4854 15.886 19.4208 15.9041 19.3604 15.9393L18.9982 16.1497L18.8558 16.0675L19.5239 15.6792L19.6664 15.7614L19.5435 15.8328C19.6062 15.8207 19.6688 15.8207 19.7335 15.8292C19.7983 15.8401 19.8528 15.857 19.8989 15.8836Z" fill="#F2BC36"/>
<path d="M18.51 15.868L19.178 15.48L19.319 15.561L18.65 15.949L18.51 15.868Z" fill="#F2BC36"/>
<path d="M20.6655 16.6855L20.5698 16.7411L20.0419 16.4363C19.9982 16.4666 19.9816 16.5029 19.9923 16.5428C20.003 16.5851 20.0366 16.6214 20.089 16.6516C20.1728 16.7 20.2647 16.7218 20.3587 16.7158L20.353 16.8137C20.2069 16.8161 20.0751 16.7835 19.9578 16.7157C19.8635 16.6613 19.8151 16.5972 19.8105 16.5222C19.808 16.4485 19.8577 16.3807 19.964 16.319C20.068 16.2585 20.1847 16.2295 20.3142 16.232C20.4437 16.2344 20.5546 16.2622 20.6467 16.3154C20.7368 16.3674 20.7852 16.4291 20.7961 16.498C20.8047 16.5658 20.7634 16.6286 20.6655 16.6855ZM20.1521 16.3723L20.5376 16.5948C20.5938 16.5621 20.6208 16.5271 20.6143 16.4896C20.6078 16.4521 20.5805 16.417 20.5302 16.3879C20.4779 16.3577 20.4151 16.3408 20.342 16.3347C20.2688 16.3287 20.2063 16.3408 20.1521 16.3723ZM15.427 17.2057C15.3919 17.2552 15.3379 17.3036 15.2608 17.3483C15.1838 17.3931 15.1109 17.4258 15.042 17.4464C14.9754 17.4657 14.9107 17.4766 14.8543 17.4778C14.7395 17.479 14.6412 17.456 14.5595 17.4089C14.4799 17.3629 14.4294 17.3049 14.4145 17.2383L14.571 17.2202C14.5731 17.2383 14.5838 17.2588 14.6005 17.2807C14.6153 17.3036 14.6343 17.3217 14.6552 17.3338C14.7222 17.3725 14.7932 17.3871 14.8705 17.3786C14.9456 17.3714 15.0227 17.346 15.0997 17.3012C15.0622 17.3036 15.0162 17.2988 14.9661 17.2891C14.9138 17.2806 14.8677 17.2637 14.8279 17.2407C14.7609 17.202 14.7273 17.1561 14.7249 17.104C14.7266 17.0521 14.7619 17.0048 14.8348 16.9625C14.9096 16.919 14.991 16.8984 15.0871 16.9008C15.179 16.9033 15.2647 16.9262 15.3381 16.9685C15.4596 17.0387 15.4871 17.1174 15.427 17.2057ZM15.1014 17.2274C15.1516 17.2298 15.1974 17.2202 15.2349 17.1984C15.2745 17.1754 15.2932 17.15 15.2908 17.1174C15.2927 17.0847 15.2717 17.0581 15.2277 17.0327C15.1858 17.0085 15.1398 16.9964 15.0896 16.994C15.0374 16.9928 14.9937 17.0036 14.9542 17.0266C14.9167 17.0484 14.8959 17.075 14.894 17.1028C14.8921 17.1331 14.9131 17.1597 14.9571 17.1851C15.001 17.2105 15.0472 17.225 15.1014 17.2274ZM17.7085 18.5229C17.6733 18.5724 17.6193 18.6208 17.5423 18.6656C17.4653 18.7103 17.3923 18.743 17.3235 18.7636C17.2569 18.7829 17.1921 18.7938 17.1358 18.795C17.0209 18.7962 16.9227 18.7733 16.841 18.7261C16.7613 18.6801 16.7109 18.6221 16.696 18.5555L16.8524 18.5374C16.8546 18.5555 16.8653 18.576 16.882 18.5979C16.8968 18.6208 16.9157 18.6389 16.9367 18.651C17.0037 18.6897 17.0747 18.7043 17.152 18.6958C17.2271 18.6886 17.3042 18.6632 17.3812 18.6184C17.3436 18.6208 17.2977 18.616 17.2475 18.6063C17.1953 18.5978 17.1492 18.5809 17.1094 18.5579C17.0424 18.5192 17.0087 18.4732 17.0063 18.4212C17.0081 18.3693 17.0434 18.322 17.1162 18.2797C17.1911 18.2362 17.2724 18.2156 17.3686 18.218C17.4605 18.2205 17.5462 18.2434 17.6196 18.2858C17.7411 18.3559 17.7685 18.4346 17.7085 18.5229ZM17.3829 18.5446C17.4331 18.547 17.4789 18.5374 17.5164 18.5156C17.5559 18.4926 17.5746 18.4672 17.5723 18.4346C17.5742 18.4019 17.5511 18.3741 17.5092 18.3499C17.4673 18.3257 17.4212 18.3136 17.3711 18.3112C17.3189 18.31 17.2752 18.3208 17.2356 18.3438C17.1982 18.3656 17.1753 18.391 17.1755 18.42C17.1736 18.4503 17.1945 18.4769 17.2385 18.5023C17.2825 18.5277 17.3286 18.5422 17.3829 18.5446ZM16.5466 18.3729C16.5676 18.385 16.5802 18.3995 16.5803 18.4189C16.5804 18.4358 16.57 18.4515 16.5472 18.4648C16.5263 18.4769 16.4992 18.483 16.4679 18.4841C16.4366 18.4829 16.4094 18.4769 16.3884 18.4648C16.3654 18.4515 16.3549 18.4358 16.3548 18.4188C16.3567 18.4007 16.3671 18.385 16.388 18.3728C16.4108 18.3596 16.4379 18.3535 16.4671 18.3535C16.4985 18.3523 16.5236 18.3596 16.5466 18.3729ZM16.7553 17.9725C16.7222 18.0233 16.6661 18.0705 16.5891 18.1152C16.5121 18.16 16.4391 18.1927 16.3703 18.2132C16.3036 18.2326 16.241 18.2447 16.1825 18.2447C16.0677 18.2459 15.9715 18.2241 15.8898 18.1769C15.8081 18.1297 15.7598 18.0729 15.7427 18.0051L15.9013 17.9882C15.9035 18.0064 15.912 18.0257 15.9287 18.0475C15.9436 18.0704 15.9625 18.0886 15.9834 18.1007C16.0505 18.1394 16.1215 18.1539 16.2008 18.1466C16.276 18.1394 16.3509 18.1128 16.43 18.0693C16.3904 18.0705 16.3465 18.0668 16.2964 18.0571C16.2441 18.0487 16.1981 18.0318 16.1562 18.0076C16.0891 17.9689 16.0555 17.9229 16.0552 17.8721C16.0548 17.8189 16.0902 17.7717 16.163 17.7293C16.2379 17.6858 16.3213 17.6665 16.4153 17.6676C16.5093 17.6713 16.593 17.693 16.6684 17.7366C16.7878 17.8056 16.8174 17.8854 16.7553 17.9725ZM16.4297 17.9943C16.4819 17.9979 16.5278 17.9882 16.5653 17.9664C16.6048 17.9435 16.6214 17.9168 16.6211 17.8854C16.623 17.8528 16.6 17.8249 16.5581 17.8007C16.5162 17.7765 16.468 17.7633 16.4179 17.7609C16.3657 17.7596 16.3219 17.7705 16.2824 17.7935C16.2449 17.8153 16.2242 17.8419 16.2244 17.8709C16.2203 17.8999 16.2434 17.9278 16.2853 17.952C16.3293 17.9774 16.3754 17.9918 16.4297 17.9943ZM16.0911 17.5891C16.0581 17.6399 16.002 17.687 15.925 17.7318C15.8479 17.7765 15.775 17.8092 15.7062 17.8298C15.6395 17.8491 15.5748 17.86 15.5184 17.8613C15.4036 17.8625 15.3053 17.8395 15.2257 17.7935C15.144 17.7463 15.0956 17.6895 15.0786 17.6217L15.2372 17.6048C15.2373 17.6218 15.2479 17.6423 15.2646 17.6641C15.2795 17.687 15.2984 17.7052 15.3193 17.7173C15.3864 17.756 15.4574 17.7705 15.5346 17.762C15.6098 17.7548 15.6868 17.7294 15.7638 17.6847C15.7263 17.6871 15.6824 17.6834 15.6302 17.6725C15.5779 17.6641 15.534 17.6484 15.4921 17.6242C15.425 17.5855 15.3914 17.5395 15.389 17.4875C15.3907 17.4355 15.4261 17.3883 15.4989 17.3459C15.5738 17.3024 15.6572 17.2831 15.7512 17.2843C15.8452 17.2879 15.9289 17.3097 16.0043 17.3532C16.1237 17.4221 16.1533 17.502 16.0911 17.5891ZM15.7656 17.6108C15.8178 17.6144 15.8637 17.6048 15.9011 17.583C15.9407 17.56 15.9573 17.5334 15.957 17.502C15.9568 17.4681 15.9358 17.4415 15.8939 17.4173C15.852 17.3931 15.8039 17.3798 15.7537 17.3774C15.7016 17.3762 15.6578 17.3871 15.6183 17.41C15.5808 17.4318 15.5601 17.4584 15.5602 17.4874C15.5562 17.5165 15.5772 17.5431 15.6212 17.5685C15.6652 17.5939 15.7113 17.6084 15.7656 17.6108ZM20.5008 17.4705L20.7103 17.5915L19.3387 18.3886L19.1292 18.2676L19.277 18.1817C19.0912 18.1999 18.926 18.1672 18.7773 18.0814C18.6516 18.0088 18.5885 17.9192 18.5899 17.8116C18.5893 17.7028 18.666 17.6048 18.8201 17.5153C18.9719 17.427 19.143 17.3834 19.3309 17.3858C19.5168 17.3871 19.6778 17.427 19.8097 17.5032C19.9417 17.5794 19.9924 17.6737 19.9617 17.7838L20.5008 17.4705ZM19.3056 18.0704C19.4204 18.0692 19.5268 18.0414 19.6204 17.987C19.7141 17.9325 19.7638 17.8697 19.7697 17.8007C19.7756 17.7318 19.7377 17.6713 19.656 17.6241C19.5722 17.5757 19.4676 17.554 19.3444 17.5552C19.2233 17.5576 19.1149 17.5866 19.0212 17.6411C18.9276 17.6955 18.8799 17.7572 18.8803 17.8274C18.8827 17.8963 18.9248 17.9544 19.0065 18.0015C19.0903 18.0499 19.1886 18.0729 19.3056 18.0704Z" fill="#F2BC36"/>
<path d="M19.46 16.869L18.088 17.667L17.878 17.546L19.25 16.748L19.46 16.869Z" fill="#F2BC36"/>
<path d="M18.3443 16.8283C18.3448 16.9421 18.2744 17.0413 18.1329 17.1235C17.9914 17.2057 17.8204 17.2468 17.624 17.2469C17.4278 17.2469 17.2542 17.2021 17.1055 17.1162C16.9567 17.0304 16.881 16.9312 16.8782 16.8163C16.8776 16.7025 16.9481 16.6034 17.0896 16.5211C17.2311 16.4389 17.4021 16.3978 17.5984 16.3977C17.7968 16.399 17.9703 16.4413 18.1191 16.5272C18.2678 16.6131 18.3436 16.7147 18.3443 16.8283ZM17.6044 17.086C17.7213 17.086 17.8276 17.0582 17.9234 17.0025C18.0192 16.9469 18.0668 16.8852 18.0685 16.8163C18.0682 16.7485 18.0239 16.6868 17.9339 16.6348C17.8438 16.5828 17.7372 16.5574 17.6202 16.5574C17.5012 16.5586 17.3949 16.5864 17.2991 16.6421C17.2033 16.6977 17.1556 16.7594 17.156 16.8272C17.1544 16.8961 17.1985 16.9578 17.2886 17.0098C17.3787 17.0618 17.4854 17.0872 17.6044 17.086ZM17.2015 15.6212C17.39 15.7301 17.491 15.851 17.5063 15.9853L17.2225 16.0143C17.2159 15.9599 17.1948 15.9139 17.159 15.874C17.1233 15.8341 17.0729 15.7954 17.0038 15.7555C16.8718 15.6793 16.7213 15.6405 16.5459 15.6381C16.3725 15.6345 16.2161 15.6745 16.0788 15.7542C15.9413 15.8341 15.875 15.9236 15.8777 16.0216C15.8824 16.1207 15.9455 16.2054 16.0691 16.2768C16.1927 16.3482 16.3225 16.3917 16.4584 16.4098L16.8143 16.203L17.0343 16.33L16.5909 16.5876C16.3341 16.5937 16.0915 16.5308 15.8631 16.3989C15.6704 16.2877 15.5715 16.1582 15.5686 16.0119C15.5656 15.8631 15.6589 15.7337 15.8504 15.6224C16.0439 15.5099 16.2691 15.4543 16.5302 15.4555C16.7891 15.4579 17.015 15.5135 17.2015 15.6212Z" fill="#F2BC36"/>
<path d="M5.93601 21.402L4.91901 21.993L4.75601 21.899L5.61901 21.397L5.41201 21.277L5.56601 21.188L5.93601 21.402Z" fill="#F2BC36"/>
<path d="M7.73799 21.4151L7.25699 21.6951L7.16799 21.6431L7.24699 21.2811L6.89499 21.4861L6.81299 21.4381L7.29399 21.1591L7.37599 21.2061L7.29799 21.5761L7.65599 21.3681L7.73799 21.4151Z" fill="#F2BC36"/>
<path d="M6.77832 22.0264C6.7526 22.1215 6.65965 22.2156 6.49927 22.3088C6.33899 22.4019 6.17679 22.4561 6.01276 22.4713C5.84713 22.4875 5.69427 22.4542 5.55432 22.3734C5.41602 22.2936 5.35811 22.2051 5.38543 22.1092C5.41115 22.0141 5.50419 21.92 5.66447 21.8268C5.82484 21.7336 5.98696 21.6795 6.15098 21.6643C6.31669 21.6481 6.46947 21.6814 6.60778 21.7612C6.74774 21.842 6.80573 21.9304 6.77832 22.0264ZM5.99395 22.3373C6.10384 22.3192 6.2152 22.2774 6.32968 22.2109C6.44426 22.1443 6.51609 22.0796 6.54526 22.0169C6.57603 21.9533 6.5479 21.8971 6.46063 21.8467C6.37501 21.7973 6.27801 21.7812 6.16655 21.7983C6.05666 21.8164 5.94366 21.8572 5.83077 21.9228C5.71788 21.9884 5.6477 22.054 5.61693 22.1177C5.58772 22.1823 5.61594 22.2384 5.70156 22.2879C5.78882 22.3382 5.88574 22.3544 5.99395 22.3373ZM9.53223 23.7604L9.69689 23.8554L9.02291 24.2471C8.88543 24.327 8.74453 24.365 8.60334 24.3612C8.45891 24.3574 8.32906 24.3222 8.21216 24.2547C8.09526 24.1872 8.02591 24.1055 8.00398 24.0076L8.20402 23.981C8.22252 24.0579 8.27213 24.1188 8.34951 24.1635C8.42689 24.2081 8.50908 24.2329 8.59285 24.2357C8.67978 24.2386 8.7634 24.2148 8.85171 24.1635L8.94987 24.1064C8.88102 24.1197 8.81041 24.1207 8.73653 24.1102C8.66424 24.0988 8.60016 24.0769 8.54417 24.0446C8.44043 23.9847 8.39241 23.9154 8.39528 23.8355C8.4014 23.7556 8.45846 23.6843 8.56478 23.6225C8.6711 23.5607 8.79393 23.5275 8.93017 23.5246C9.06966 23.5218 9.18966 23.5493 9.29339 23.6092C9.39547 23.6681 9.43685 23.7414 9.41764 23.8269L9.53223 23.7604ZM8.94612 24.0285C9.03148 24.0266 9.10853 24.0066 9.17553 23.9676C9.24103 23.9296 9.27687 23.884 9.2815 23.8336C9.28449 23.7822 9.25305 23.7376 9.18719 23.6995C9.12132 23.6615 9.04574 23.6444 8.95874 23.6492C8.87183 23.6539 8.79642 23.6748 8.73261 23.7119C8.66889 23.749 8.6346 23.7918 8.62672 23.8421C8.62044 23.8916 8.65023 23.9353 8.71774 23.9743C8.78362 24.0123 8.86085 24.0303 8.94612 24.0285ZM8.79204 23.1891C8.76632 23.2841 8.67337 23.3782 8.51299 23.4714C8.35271 23.5646 8.19051 23.6188 8.02648 23.634C7.86085 23.6501 7.70799 23.6169 7.56803 23.5361C7.42973 23.4562 7.37183 23.3678 7.39915 23.2718C7.42487 23.1767 7.51791 23.0826 7.6782 22.9894C7.83857 22.8962 8.00068 22.8421 8.16471 22.8269C8.33043 22.8107 8.4832 22.844 8.6215 22.9238C8.76146 23.0046 8.81944 23.093 8.79204 23.1891ZM8.00767 23.4999C8.11757 23.4818 8.22892 23.44 8.34341 23.3735C8.45799 23.3069 8.52982 23.2423 8.55899 23.1795C8.58976 23.1159 8.56163 23.0597 8.47436 23.0094C8.38874 22.9599 8.29174 22.9438 8.18029 22.9609C8.0704 22.979 7.9574 23.0199 7.84451 23.0855C7.73162 23.1511 7.66144 23.2167 7.63066 23.2803C7.60144 23.345 7.62967 23.4011 7.71528 23.4505C7.80255 23.5009 7.89946 23.517 8.00767 23.4999Z" fill="#F2BC36"/>
<path d="M9.984 22.712L9.911 22.755L9.764 22.67L9.357 22.907L9.276 22.86L9.683 22.623L9.537 22.539L9.61 22.496L9.984 22.712Z" fill="#F2BC36"/>
<path d="M9.581 22.4789L8.93 22.6609L8.85 22.6139L9.078 22.3629L9.073 22.3599L8.64 22.4929L8.56 22.4469L8.873 22.0699L8.96 22.1209L8.737 22.3909L9.189 22.2529L9.263 22.2949L9.025 22.5579L9.492 22.4279L9.581 22.4789Z" fill="#F2BC36"/>
<path d="M8.654 21.9441L8.58 21.9861L8.434 21.9021L8.026 22.1391L7.944 22.0911L8.351 21.8541L8.205 21.7701L8.278 21.7271L8.654 21.9441Z" fill="#F2BC36"/>
<path d="M7.78438 22.6072C7.75866 22.7023 7.6657 22.7964 7.50533 22.8896C7.34505 22.9827 7.18285 23.0369 7.01883 23.0521C6.8532 23.0683 6.70198 23.036 6.56203 22.9552C6.42207 22.8744 6.36582 22.7869 6.39314 22.6909C6.41886 22.5958 6.51191 22.5017 6.67219 22.4086C6.83256 22.3154 6.99467 22.2612 7.1587 22.246C7.32441 22.2298 7.47554 22.2622 7.6155 22.343C7.75545 22.4238 7.81179 22.5112 7.78438 22.6072ZM7.00001 22.9181C7.1099 22.9 7.22126 22.8582 7.33574 22.7917C7.45032 22.7251 7.52215 22.6604 7.55132 22.5977C7.58209 22.5341 7.55396 22.4779 7.46834 22.4285C7.38272 22.3791 7.28407 22.362 7.17426 22.38C7.06272 22.3972 6.95138 22.439 6.83849 22.5046C6.7256 22.5702 6.65377 22.6348 6.62464 22.6994C6.59378 22.7631 6.62365 22.8202 6.70927 22.8696C6.79488 22.919 6.8918 22.9352 7.00001 22.9181Z" fill="#F2BC36"/>
<path d="M8.21099 21.6879L8.13399 21.7329L7.87699 21.5839L7.75099 21.6579L7.98199 21.7909L7.90999 21.8329L7.67899 21.6989L7.54999 21.7749L7.81499 21.9279L7.73799 21.9719L7.39099 21.7719L7.87199 21.4919L8.21099 21.6879Z" fill="#F2BC36"/>
<path d="M23.013 17.605L23.178 18.162L22.837 17.692L22.225 18.819L22.425 17.552L21.868 17.717L22.338 17.375L21.211 16.764L22.477 16.964L22.312 16.407L22.654 16.877L23.266 15.75L23.066 17.016L23.623 16.851L23.153 17.193L24.28 17.805L23.013 17.605Z" fill="white"/>
<path d="M9.408 25.926L9.489 26.199L9.321 25.968L9.02 26.522L9.119 25.9L8.845 25.981L9.076 25.813L8.522 25.513L9.144 25.611L9.063 25.337L9.231 25.568L9.532 25.015L9.433 25.637L9.707 25.556L9.476 25.723L10.03 26.024L9.408 25.926Z" fill="white"/>
<path d="M36.433 22.3149L19.3649 32.2268L13.5972 28.8942C13.4975 28.8372 13.3978 28.8303 13.3337 28.873L30.3947 18.9539C30.4659 18.9181 30.5585 18.9254 30.6653 18.9824L36.433 22.3149Z" fill="#FED44C"/>
<path d="M38.1206 29.3L21.0596 39.2191C21.1522 39.1621 21.1949 39.0268 21.1522 38.8346L19.7281 32.7393C19.6782 32.5328 19.5358 32.3262 19.3649 32.2268L36.433 22.3149C36.5968 22.4074 36.7392 22.614 36.789 22.8205L38.2131 28.9227C38.263 29.1081 38.2203 29.243 38.1206 29.3Z" fill="#F2BC36"/>
<path d="M19.3681 32.228C19.5363 32.3251 19.6769 32.5318 19.7264 32.7383L21.1526 38.8361C21.2291 39.1576 21.0465 39.3349 20.7965 39.1905L12.1403 34.1929C11.8858 34.0459 11.7092 33.6613 11.7828 33.4264L13.2389 28.9928C13.2894 28.8439 13.4352 28.8026 13.5989 28.8971L19.3681 32.228Z" fill="#F9C73A"/>
<path d="M29.997 21.802L29.86 21.882L29.422 21.629L29.181 21.77L29.572 21.996L29.437 22.075L29.045 21.848L28.683 22.059L28.534 21.973L29.411 21.464L29.997 21.802Z" fill="#F2BC36"/>
<path d="M30.1216 21.9922C30.0766 21.9662 30.0699 21.9203 30.123 21.8895C30.146 21.8761 30.1751 21.8689 30.2106 21.8677C30.2462 21.8688 30.2775 21.8749 30.3006 21.8882C30.409 21.9508 30.2495 22.0661 30.1216 21.9922ZM30.6498 22.7192L30.2398 22.9575L30.0994 22.8764L30.4657 22.6636C30.7415 22.5033 30.3545 22.3399 30.1263 22.4725L29.7642 22.6829L29.6217 22.6007L30.2899 22.2124L30.4324 22.2946L30.3095 22.366C30.617 22.3065 30.9727 22.5315 30.6498 22.7192Z" fill="#F2BC36"/>
<path d="M29.276 22.4009L29.944 22.0129L30.085 22.0939L29.416 22.4819L29.276 22.4009Z" fill="#F2BC36"/>
<path d="M31.3358 23.2743L30.8078 22.9695C30.6417 23.0845 30.8908 23.264 31.1247 23.249L31.1189 23.3469C30.9172 23.3502 30.5886 23.2527 30.5765 23.0554C30.574 22.9817 30.6237 22.9139 30.7299 22.8522C30.8339 22.7917 30.9507 22.7627 31.0802 22.7652C31.2097 22.7676 31.3205 22.7954 31.4127 22.8486C31.5028 22.9006 31.5512 22.9623 31.562 23.0312C31.5795 23.1679 31.4362 23.1994 31.3358 23.2743ZM30.9181 22.9055L31.3035 23.128C31.4837 23.0233 31.3191 22.8855 31.1079 22.8679C31.0348 22.8619 30.9723 22.874 30.9181 22.9055ZM25.808 23.9796C25.7413 23.9989 25.6766 24.0098 25.6203 24.011C25.5054 24.0122 25.4071 23.9892 25.3254 23.9421C25.2458 23.8961 25.1954 23.8381 25.1805 23.7715L25.3369 23.7534C25.3391 23.7715 25.3497 23.792 25.3665 23.8139C25.3813 23.8368 25.4002 23.8549 25.4212 23.867C25.4882 23.9057 25.5592 23.9203 25.6365 23.9118C25.7116 23.9046 25.7886 23.8792 25.8657 23.8344C25.8281 23.8368 25.7822 23.832 25.732 23.8223C25.6798 23.8138 25.6337 23.7969 25.5939 23.7739C25.5269 23.7352 25.4932 23.6893 25.4908 23.6373C25.4926 23.5853 25.5279 23.538 25.6007 23.4957C26.0201 23.252 26.6363 23.732 25.808 23.9796ZM25.8674 23.7606C26.2467 23.7788 25.9829 23.4071 25.7201 23.5598C25.6826 23.5816 25.6619 23.6082 25.66 23.636C25.658 23.6663 25.679 23.6929 25.723 23.7183C25.767 23.7437 25.8131 23.7582 25.8674 23.7606ZM28.4744 25.0561C28.4393 25.1056 28.3853 25.154 28.3083 25.1988C28.2313 25.2435 28.1583 25.2762 28.0895 25.2968C28.0228 25.3161 27.9581 25.327 27.9017 25.3282C27.7869 25.3294 27.6886 25.3065 27.6069 25.2593C27.5273 25.2133 27.4768 25.1553 27.4619 25.0887L27.6184 25.0706C27.6332 25.1938 27.8665 25.3147 28.1471 25.1516C28.1096 25.154 28.0636 25.1492 28.0135 25.1395C27.9612 25.131 27.9152 25.1141 27.8754 25.0911C27.8083 25.0524 27.7747 25.0064 27.7723 24.9544C27.774 24.9025 27.8094 24.8552 27.8822 24.8129C27.9571 24.7694 28.0384 24.7488 28.1345 24.7512C28.2264 24.7536 28.3122 24.7766 28.3855 24.8189C28.507 24.8891 28.5345 24.9678 28.4744 25.0561ZM28.1489 25.0778C28.2256 25.0815 28.3437 25.0441 28.3382 24.9678C28.3426 24.8929 28.2134 24.8481 28.137 24.8444C28.0639 24.8427 27.941 24.8847 27.9415 24.9532C27.9395 24.9835 27.9605 25.0101 28.0045 25.0355C28.0485 25.0609 28.0946 25.0754 28.1489 25.0778ZM27.3126 24.9061C27.3335 24.9182 27.3462 24.9327 27.3462 24.9521C27.3463 24.969 27.336 24.9847 27.3132 24.998C27.2923 25.0101 27.2651 25.0162 27.2339 25.0173C27.2026 25.0161 27.1753 25.0101 27.1544 24.998C27.0523 24.9391 27.204 24.8434 27.3126 24.9061ZM27.5212 24.5057C27.3206 24.8138 26.5991 24.8985 26.5087 24.5384L26.6672 24.5214C26.6815 24.6398 26.9004 24.7652 27.196 24.6025C26.4854 24.6238 26.9256 23.9761 27.4344 24.2698C27.5538 24.3388 27.5834 24.4186 27.5212 24.5057ZM27.1956 24.5275C27.275 24.5329 27.3877 24.4975 27.3871 24.4186C27.389 24.386 27.3659 24.3581 27.324 24.3339C27.0482 24.1747 26.8013 24.5098 27.1956 24.5275Z" fill="#F2BC36"/>
<path d="M25.9917 24.3268C25.91 24.2796 25.8616 24.2228 25.8446 24.155L26.0031 24.1381C26.0037 24.2413 26.233 24.3904 26.5298 24.2179C25.8345 24.2623 26.2433 23.5822 26.7702 23.8865C27.1599 24.1114 26.3972 24.5609 25.9917 24.3268ZM26.5315 24.1441C26.898 24.1694 26.6657 23.7797 26.3843 23.9433C26.2481 24.0224 26.3737 24.137 26.5315 24.1441ZM31.2668 24.0038L31.4763 24.1247L30.1046 24.9219L29.8951 24.8009L30.0429 24.715C29.7618 24.7425 29.3524 24.6109 29.3559 24.3449C29.3543 24.0804 29.812 23.9155 30.0969 23.9191C30.2828 23.9203 30.4437 23.9603 30.5757 24.0365C30.7077 24.1127 30.7584 24.207 30.7277 24.3171L31.2668 24.0038ZM30.0716 24.6037C30.4308 24.6 30.7005 24.3182 30.4219 24.1574C30.134 23.9911 29.6452 24.1478 29.6462 24.3606C29.6524 24.5306 29.8997 24.6073 30.0716 24.6037Z" fill="#F2BC36"/>
<path d="M30.226 23.403L28.854 24.2L28.644 24.079L30.016 23.282L30.226 23.403Z" fill="#F2BC36"/>
<path d="M27.8715 23.6494C27.1743 23.2469 28.1981 22.6638 28.885 23.0604C29.5759 23.4593 28.5642 24.0494 27.8715 23.6494ZM28.3704 23.6192C28.9242 23.6192 29.0208 23.0903 28.3861 23.0906C27.7904 23.0965 27.7601 23.6252 28.3704 23.6192ZM27.9675 22.1544C28.156 22.2632 28.257 22.3842 28.2723 22.5185L27.9885 22.5475C27.9819 22.493 27.9608 22.4471 27.925 22.4072C27.8893 22.3672 27.8389 22.3286 27.7698 22.2887C27.6378 22.2125 27.4873 22.1737 27.3118 22.1713C27.1385 22.1677 26.9821 22.2076 26.8448 22.2874C26.7073 22.3673 26.641 22.4568 26.6437 22.5548C26.6484 22.6539 26.7115 22.7386 26.8351 22.81C26.9587 22.8813 27.0885 22.9249 27.2243 22.943L27.5803 22.7361L27.8003 22.8631L27.3569 23.1208C27.1001 23.1269 26.8575 23.064 26.6291 22.9321C26.4364 22.8209 26.3375 22.6914 26.3346 22.5451C26.3316 22.3963 26.4249 22.2669 26.6164 22.1556C26.8099 22.0431 27.0351 21.9875 27.2962 21.9887C27.5551 21.9911 27.781 22.0467 27.9675 22.1544Z" fill="#F2BC36"/>
<path d="M16.702 27.9349L15.685 28.5259L15.522 28.4319L16.385 27.9299L16.178 27.8109L16.332 27.7209L16.702 27.9349Z" fill="#F2BC36"/>
<path d="M18.504 27.948L18.023 28.228L17.934 28.177L18.013 27.814L17.661 28.019L17.579 27.971L18.06 27.692L18.142 27.739L18.064 28.109L18.422 27.901L18.504 27.948Z" fill="#F2BC36"/>
<path d="M17.5443 28.5596C17.5186 28.6547 17.4256 28.7488 17.2653 28.842C17.105 28.9351 16.9428 28.9893 16.7788 29.0045C16.6131 29.0207 16.4603 28.9874 16.3203 28.9066C16.182 28.8268 16.1241 28.7383 16.1514 28.6424C16.1771 28.5473 16.2702 28.4532 16.4305 28.36C16.5908 28.2668 16.753 28.2127 16.917 28.1975C17.0827 28.1813 17.2355 28.2146 17.3738 28.2944C17.5137 28.3752 17.5717 28.4636 17.5443 28.5596ZM16.7599 28.8705C16.8698 28.8524 16.9812 28.8106 17.0957 28.7441C17.2103 28.6775 17.2821 28.6128 17.3113 28.5501C17.342 28.4865 17.3139 28.4303 17.2266 28.3799C17.141 28.3305 17.044 28.3144 16.9325 28.3315C16.8226 28.3496 16.7097 28.3904 16.5968 28.456C16.4839 28.5216 16.4137 28.5872 16.3829 28.6509C16.3537 28.7155 16.3819 28.7716 16.4676 28.8211C16.5548 28.8714 16.6517 28.8876 16.7599 28.8705ZM20.2982 30.2936L20.4629 30.3886L19.7889 30.7803C19.6514 30.8602 19.5105 30.8982 19.3693 30.8944C19.2249 30.8906 19.0951 30.8554 18.9782 30.7879C18.8612 30.7204 18.7919 30.6387 18.77 30.5408L18.97 30.5142C18.9885 30.5912 19.0381 30.652 19.1155 30.6967C19.1929 30.7413 19.2751 30.7661 19.3589 30.7689C19.4458 30.7718 19.5294 30.748 19.6177 30.6967L19.7159 30.6396C19.647 30.6529 19.5764 30.6539 19.5025 30.6434C19.4302 30.632 19.3661 30.6101 19.3102 30.5778C19.2064 30.5179 19.1584 30.4486 19.1613 30.3687C19.1674 30.2888 19.2245 30.2175 19.3308 30.1557C19.4371 30.0939 19.5599 30.0607 19.6962 30.0578C19.8357 30.055 19.9557 30.0825 20.0594 30.1424C20.1615 30.2014 20.2029 30.2746 20.1836 30.3601L20.2982 30.2936ZM19.7121 30.5617C19.7975 30.5598 19.8745 30.5398 19.9415 30.5008C20.007 30.4628 20.0429 30.4172 20.0475 30.3668C20.0505 30.3154 20.019 30.2708 19.9532 30.2327C19.8873 30.1947 19.8117 30.1776 19.7247 30.1824C19.6378 30.1871 19.5624 30.208 19.4986 30.2451C19.4349 30.2822 19.4006 30.325 19.3927 30.3753C19.3864 30.4248 19.4162 30.4685 19.4837 30.5075C19.5496 30.5455 19.6268 30.5635 19.7121 30.5617ZM19.558 29.7223C19.5323 29.8173 19.4394 29.9114 19.279 30.0046C19.1187 30.0978 18.9565 30.152 18.7925 30.1672C18.6268 30.1833 18.474 30.1501 18.334 30.0692C18.1957 29.9894 18.1378 29.901 18.1651 29.805C18.1909 29.7099 18.2839 29.6158 18.4442 29.5226C18.6046 29.4294 18.7667 29.3753 18.9307 29.3601C19.0964 29.3439 19.2492 29.3772 19.3875 29.457C19.5275 29.5378 19.5854 29.6262 19.558 29.7223ZM18.7737 30.0331C18.8836 30.015 18.9949 29.9732 19.1094 29.9067C19.224 29.8401 19.2958 29.7755 19.325 29.7127C19.3558 29.6491 19.3276 29.5929 19.2403 29.5426C19.1547 29.4931 19.0577 29.477 18.9463 29.4941C18.8364 29.5122 18.7234 29.5531 18.6105 29.6187C18.4976 29.6843 18.4274 29.7499 18.3966 29.8135C18.3674 29.8782 18.3957 29.9343 18.4813 29.9837C18.5685 30.0341 18.6654 30.0502 18.7737 30.0331Z" fill="#F2BC36"/>
<path d="M20.75 29.2451L20.677 29.2881L20.53 29.2031L20.123 29.4401L20.042 29.3931L20.449 29.1571L20.303 29.0721L20.376 29.0291L20.75 29.2451Z" fill="#F2BC36"/>
<path d="M20.347 29.012L19.696 29.194L19.616 29.147L19.844 28.896L19.839 28.893L19.406 29.026L19.326 28.98L19.639 28.603L19.726 28.654L19.503 28.925L19.955 28.786L20.029 28.829L19.791 29.091L20.258 28.961L20.347 29.012Z" fill="#F2BC36"/>
<path d="M19.42 28.477L19.346 28.52L19.2 28.435L18.792 28.672L18.71 28.624L19.117 28.388L18.971 28.303L19.044 28.26L19.42 28.477Z" fill="#F2BC36"/>
<path d="M18.5504 29.1404C18.5246 29.2355 18.4317 29.3296 18.2713 29.4228C18.111 29.5159 17.9488 29.5701 17.7848 29.5853C17.6192 29.6015 17.468 29.5692 17.328 29.4884C17.188 29.4076 17.1318 29.3201 17.1591 29.2241C17.1848 29.129 17.2779 29.0349 17.4382 28.9418C17.5985 28.8486 17.7606 28.7944 17.9247 28.7792C18.0904 28.763 18.2415 28.7954 18.3815 28.8762C18.5214 28.957 18.5778 29.0444 18.5504 29.1404ZM17.766 29.4513C17.8759 29.4332 17.9872 29.3914 18.1017 29.3249C18.2163 29.2583 18.2881 29.1936 18.3173 29.1309C18.3481 29.0672 18.3199 29.0111 18.2343 28.9617C18.1487 28.9122 18.05 28.8952 17.9402 28.9132C17.8287 28.9303 17.7173 28.9722 17.6045 29.0378C17.4916 29.1034 17.4197 29.168 17.3906 29.2326C17.3597 29.2963 17.3896 29.3534 17.4752 29.4028C17.5609 29.4522 17.6578 29.4684 17.766 29.4513Z" fill="#F2BC36"/>
<path d="M18.977 28.221L18.9 28.266L18.643 28.118L18.517 28.191L18.748 28.324L18.676 28.366L18.445 28.233L18.316 28.308L18.581 28.461L18.504 28.505L18.157 28.305L18.638 28.025L18.977 28.221Z" fill="#F2BC36"/>
<path d="M33.779 24.138L33.944 24.695L33.603 24.225L32.991 25.352L33.191 24.085L32.634 24.251L33.104 23.909L31.977 23.297L33.243 23.497L33.078 22.94L33.42 23.41L34.032 22.283L33.832 23.549L34.389 23.384L33.919 23.726L35.046 24.338L33.779 24.138Z" fill="white"/>
<path d="M20.174 32.459L20.255 32.733L20.087 32.502L19.786 33.055L19.885 32.433L19.611 32.514L19.842 32.346L19.288 32.046L19.91 32.144L19.829 31.87L19.997 32.101L20.298 31.548L20.199 32.17L20.473 32.089L20.242 32.257L20.796 32.557L20.174 32.459Z" fill="white"/>
<path d="M47.199 28.8482L30.1309 38.76L24.3631 35.4274C24.2635 35.3704 24.1638 35.3635 24.0997 35.4062L41.1607 25.4871C41.2319 25.4513 41.3244 25.4586 41.4313 25.5156L47.199 28.8482Z" fill="#FED44C"/>
<path d="M48.8865 35.8332L31.8256 45.7523C31.9181 45.6953 31.9609 45.56 31.9181 45.3678L30.494 39.2725C30.4442 39.066 30.3017 38.8594 30.1309 38.76L47.199 28.8481C47.3628 28.9406 47.5051 29.1472 47.555 29.3537L48.9791 35.4559C49.029 35.6412 48.9862 35.7761 48.8865 35.8332Z" fill="#F2BC36"/>
<path d="M30.1341 38.7612C30.3023 38.8583 30.4429 39.065 30.4924 39.2715L31.9186 45.3693C31.9951 45.6908 31.8125 45.8681 31.5624 45.7237L22.9063 40.7261C22.6517 40.5791 22.4752 40.1945 22.5487 39.9596L24.0048 35.526C24.0553 35.3771 24.2012 35.3359 24.3648 35.4303L30.1341 38.7612Z" fill="#F9C73A"/>
<path d="M40.763 28.3351L40.626 28.4151L40.188 28.1631L39.947 28.3031L40.338 28.5291L40.203 28.6081L39.811 28.3811L39.449 28.5921L39.3 28.5061L40.177 27.9971L40.763 28.3351Z" fill="#F2BC36"/>
<path d="M41.1023 28.4734C41.1024 28.4952 41.09 28.5121 41.0671 28.5255C41.0421 28.54 41.013 28.5472 40.9774 28.546C40.9419 28.5472 40.9127 28.5399 40.8875 28.5254C40.8645 28.5121 40.8518 28.4952 40.8517 28.4734C40.8516 28.4541 40.864 28.4371 40.889 28.4226C40.9119 28.4093 40.9411 28.4021 40.9766 28.4009C41.0121 28.402 41.0435 28.4081 41.0665 28.4214C41.0917 28.4359 41.1022 28.454 41.1023 28.4734ZM41.4308 28.95C41.5062 28.9935 41.5461 29.0431 41.5443 29.0976C41.5447 29.1508 41.5011 29.2028 41.4157 29.2524L41.0057 29.4907L40.8654 29.4096L41.2317 29.1967C41.3544 29.1254 41.3645 29.0589 41.2618 28.9996C41.2136 28.9718 41.1551 28.9573 41.0841 28.9548C41.0174 28.9524 40.9527 28.9705 40.8923 29.0056L40.5302 29.2161L40.3877 29.1338L41.0559 28.7456L41.1983 28.8278L41.0755 28.8992C41.1381 28.8871 41.2007 28.8871 41.2654 28.8956C41.3302 28.9065 41.3847 28.9234 41.4308 28.95Z" fill="#F2BC36"/>
<path d="M40.042 28.934L40.71 28.546L40.851 28.627L40.182 29.015L40.042 28.934Z" fill="#F2BC36"/>
<path d="M42.1974 29.7519L42.1017 29.8075L41.5738 29.5027C41.5301 29.5329 41.5135 29.5693 41.5242 29.6092C41.5349 29.6515 41.5685 29.6878 41.6209 29.718C41.7047 29.7664 41.7967 29.7882 41.8906 29.7822L41.8849 29.8801C41.7388 29.8825 41.607 29.8499 41.4897 29.7821C41.3955 29.7277 41.347 29.6636 41.3424 29.5886C41.3399 29.5149 41.3896 29.4471 41.4959 29.3854C41.5999 29.3249 41.7167 29.2959 41.8461 29.2984C41.9756 29.3008 42.0865 29.3286 42.1787 29.3818C42.2688 29.4338 42.3172 29.4955 42.328 29.5644C42.3367 29.6322 42.2953 29.695 42.1974 29.7519ZM41.684 29.4387L42.0695 29.6612C42.1258 29.6285 42.1527 29.5935 42.1462 29.556C42.1397 29.5185 42.1124 29.4834 42.0622 29.4543C42.0098 29.4241 41.947 29.4072 41.8739 29.4011C41.8007 29.3951 41.7382 29.4072 41.684 29.4387ZM36.959 30.2721C36.9238 30.3216 36.8698 30.37 36.7928 30.4148C36.7158 30.4595 36.6428 30.4922 36.574 30.5128C36.5073 30.5321 36.4426 30.543 36.3862 30.5442C36.2714 30.5454 36.1731 30.5225 36.0914 30.4753C36.0118 30.4293 35.9613 30.3713 35.9464 30.3047L36.1029 30.2866C36.1051 30.3047 36.1157 30.3253 36.1324 30.3471C36.1472 30.37 36.1662 30.3882 36.1871 30.4002C36.2542 30.439 36.3252 30.4535 36.4024 30.445C36.4776 30.4378 36.5546 30.4124 36.6316 30.3676C36.5941 30.37 36.5481 30.3652 36.498 30.3555C36.4457 30.3471 36.3997 30.3301 36.3598 30.3072C36.2928 30.2684 36.2592 30.2225 36.2568 30.1705C36.2585 30.1185 36.2938 30.0713 36.3667 30.0289C36.4416 29.9854 36.5229 29.9649 36.619 29.9672C36.7109 29.9697 36.7966 29.9926 36.87 30.035C36.9915 30.1051 37.019 30.1838 36.959 30.2721ZM36.6334 30.2938C36.6835 30.2962 36.7294 30.2866 36.7669 30.2648C36.8064 30.2418 36.8251 30.2164 36.8228 30.1838C36.8247 30.1511 36.8037 30.1245 36.7597 30.0991C36.7178 30.0749 36.6717 30.0628 36.6216 30.0604C36.5694 30.0592 36.5256 30.07 36.4861 30.093C36.4486 30.1148 36.4279 30.1414 36.426 30.1692C36.424 30.1995 36.445 30.2261 36.489 30.2515C36.533 30.2769 36.5791 30.2914 36.6334 30.2938ZM39.2404 31.5893C39.2053 31.6388 39.1513 31.6872 39.0742 31.732C38.9972 31.7767 38.9243 31.8094 38.8554 31.83C38.7888 31.8493 38.7241 31.8602 38.6677 31.8614C38.5529 31.8626 38.4546 31.8397 38.3729 31.7925C38.2933 31.7465 38.2428 31.6885 38.2279 31.6219L38.3844 31.6038C38.3866 31.6219 38.3972 31.6424 38.4139 31.6643C38.4287 31.6872 38.4477 31.7053 38.4686 31.7174C38.5356 31.7561 38.6066 31.7707 38.6839 31.7622C38.759 31.755 38.8361 31.7296 38.9131 31.6848C38.8756 31.6872 38.8296 31.6824 38.7795 31.6727C38.7272 31.6642 38.6811 31.6473 38.6413 31.6243C38.5743 31.5856 38.5407 31.5396 38.5383 31.4876C38.54 31.4357 38.5753 31.3884 38.6482 31.3461C38.723 31.3026 38.8043 31.282 38.9005 31.2844C38.9924 31.2869 39.0781 31.3098 39.1515 31.3522C39.273 31.4223 39.3005 31.501 39.2404 31.5893ZM38.9148 31.611C38.965 31.6134 39.0108 31.6038 39.0483 31.582C39.0878 31.559 39.1066 31.5336 39.1042 31.501C39.1061 31.4683 39.083 31.4405 39.0411 31.4163C38.9992 31.3921 38.9532 31.38 38.903 31.3776C38.8508 31.3764 38.8071 31.3872 38.7676 31.4102C38.7301 31.432 38.7072 31.4574 38.7074 31.4864C38.7055 31.5167 38.7265 31.5433 38.7705 31.5687C38.8144 31.5941 38.8606 31.6086 38.9148 31.611ZM38.0786 31.4393C38.0995 31.4514 38.1122 31.4659 38.1122 31.4853C38.1123 31.5022 38.1019 31.5179 38.0791 31.5312C38.0582 31.5433 38.0311 31.5494 37.9999 31.5506C37.9685 31.5493 37.9413 31.5433 37.9204 31.5312C37.8973 31.5179 37.8868 31.5022 37.8867 31.4852C37.8887 31.4671 37.899 31.4514 37.9199 31.4392C37.9427 31.426 37.9698 31.4199 37.9991 31.4199C38.0305 31.4187 38.0555 31.426 38.0786 31.4393ZM38.2872 31.0389C38.2541 31.0897 38.198 31.1369 38.121 31.1816C38.044 31.2264 37.971 31.2591 37.9022 31.2796C37.8356 31.299 37.7729 31.3111 37.7145 31.3111C37.5996 31.3123 37.5034 31.2905 37.4217 31.2433C37.34 31.1962 37.2917 31.1393 37.2747 31.0716L37.4332 31.0546C37.4354 31.0728 37.4439 31.0921 37.4607 31.1139C37.4755 31.1369 37.4944 31.155 37.5154 31.1671C37.5824 31.2058 37.6534 31.2204 37.7328 31.2131C37.8079 31.2058 37.8829 31.1792 37.962 31.1357C37.9223 31.1369 37.8784 31.1333 37.8283 31.1236C37.7761 31.1151 37.73 31.0982 37.6881 31.074C37.621 31.0353 37.5874 30.9893 37.5871 30.9385C37.5868 30.8853 37.6221 30.8381 37.6949 30.7958C37.7698 30.7523 37.8532 30.7329 37.9472 30.7341C38.0412 30.7377 38.1249 30.7595 38.2003 30.803C38.3197 30.872 38.3493 30.9518 38.2872 31.0389ZM37.9616 31.0607C38.0139 31.0643 38.0597 31.0546 38.0972 31.0328C38.1367 31.0099 38.1533 30.9832 38.1531 30.9518C38.155 30.9192 38.1319 30.8913 38.09 30.8671C38.0481 30.8429 38 30.8297 37.9498 30.8273C37.8976 30.826 37.8539 30.8369 37.8143 30.8599C37.7768 30.8817 37.7561 30.9083 37.7563 30.9373C37.7522 30.9663 37.7753 30.9942 37.8172 31.0184C37.8612 31.0438 37.9073 31.0582 37.9616 31.0607ZM37.6231 30.6555C37.59 30.7063 37.5339 30.7534 37.4569 30.7982C37.3799 30.8429 37.3069 30.8756 37.2381 30.8962C37.1714 30.9155 37.1067 30.9265 37.0504 30.9277C36.9355 30.9289 36.8372 30.9059 36.7576 30.8599C36.6759 30.8128 36.6275 30.7559 36.6105 30.6881L36.7691 30.6712C36.7692 30.6882 36.7798 30.7087 36.7966 30.7305C36.8114 30.7535 36.8303 30.7716 36.8513 30.7837C36.9183 30.8224 36.9893 30.8369 37.0666 30.8284C37.1417 30.8212 37.2188 30.7958 37.2958 30.7511C37.2582 30.7535 37.2143 30.7498 37.1621 30.7389C37.1099 30.7305 37.0659 30.7148 37.024 30.6906C36.957 30.6519 36.9233 30.6059 36.9209 30.5539C36.9227 30.5019 36.958 30.4547 37.0308 30.4123C37.1057 30.3688 37.1891 30.3495 37.2831 30.3507C37.3771 30.3543 37.4608 30.3761 37.5362 30.4196C37.6556 30.4885 37.6852 30.5684 37.6231 30.6555ZM37.2975 30.6772C37.3497 30.6809 37.3956 30.6712 37.4331 30.6494C37.4726 30.6265 37.4892 30.5998 37.489 30.5684C37.4888 30.5345 37.4678 30.5079 37.4259 30.4837C37.384 30.4595 37.3358 30.4462 37.2857 30.4438C37.2335 30.4426 37.1897 30.4535 37.1502 30.4764C37.1127 30.4982 37.092 30.5248 37.0922 30.5539C37.0881 30.5829 37.1091 30.6095 37.1531 30.6349C37.1971 30.6603 37.2432 30.6748 37.2975 30.6772ZM42.0327 30.5369L42.2423 30.6579L40.8706 31.455L40.6611 31.334L40.8089 31.2481C40.6231 31.2663 40.458 31.2336 40.3092 31.1478C40.1835 31.0752 40.1204 30.9857 40.1219 30.878C40.1212 30.7692 40.198 30.6712 40.352 30.5817C40.5039 30.4934 40.6749 30.4498 40.8629 30.4523C41.0487 30.4535 41.2097 30.4934 41.3417 30.5696C41.4737 30.6458 41.5244 30.7401 41.4937 30.8502L42.0327 30.5369ZM40.8375 31.1368C40.9524 31.1356 41.0587 31.1078 41.1523 31.0534C41.246 30.9989 41.2958 30.9361 41.3016 30.8671C41.3075 30.7982 41.2696 30.7377 41.1879 30.6905C41.1041 30.6421 40.9996 30.6204 40.8764 30.6216C40.7552 30.624 40.6469 30.653 40.5531 30.7075C40.4595 30.7619 40.4119 30.8236 40.4122 30.8938C40.4147 30.9627 40.4568 31.0207 40.5385 31.0679C40.6223 31.1163 40.7205 31.1393 40.8375 31.1368Z" fill="#F2BC36"/>
<path d="M40.992 29.9361L39.62 30.7331L39.41 30.6121L40.782 29.8151L40.992 29.9361Z" fill="#F2BC36"/>
<path d="M39.8762 29.8946C39.8768 30.0083 39.8063 30.1075 39.6648 30.1898C39.5233 30.272 39.3523 30.3131 39.156 30.3132C38.9597 30.3131 38.7862 30.2684 38.6374 30.1825C38.4887 30.0966 38.4129 29.9974 38.4102 29.8826C38.4096 29.7688 38.48 29.6696 38.6215 29.5874C38.763 29.5052 38.934 29.4641 39.1304 29.464C39.3287 29.4652 39.5023 29.5076 39.651 29.5935C39.7997 29.6793 39.8755 29.7809 39.8762 29.8946ZM39.1363 30.1523C39.2532 30.1523 39.3596 30.1245 39.4553 30.0688C39.5511 30.0132 39.5988 29.9515 39.6004 29.8826C39.6001 29.8148 39.5559 29.7531 39.4658 29.7011C39.3757 29.6491 39.2691 29.6237 39.1521 29.6237C39.0331 29.6249 38.9268 29.6527 38.831 29.7084C38.7353 29.764 38.6876 29.8257 38.688 29.8934C38.6863 29.9623 38.7305 30.0241 38.8206 30.0761C38.9106 30.1281 39.0173 30.1534 39.1363 30.1523ZM38.7334 28.6875C38.922 28.7963 39.0229 28.9173 39.0382 29.0516L38.7545 29.0806C38.7479 29.0261 38.7267 28.9802 38.691 28.9403C38.6553 28.9003 38.6049 28.8617 38.5357 28.8218C38.4038 28.7456 38.2532 28.7068 38.0778 28.7044C37.9045 28.7008 37.748 28.7407 37.6107 28.8205C37.4733 28.9004 37.4069 28.9899 37.4096 29.0879C37.4144 29.187 37.4775 29.2717 37.6011 29.3431C37.7247 29.4144 37.8544 29.458 37.9903 29.4761L38.3462 29.2692L38.5662 29.3962L38.1229 29.6539C37.866 29.6599 37.6234 29.5971 37.395 29.4652C37.2023 29.3539 37.1034 29.2245 37.1005 29.0781C37.0976 28.9294 37.1908 28.8 37.3823 28.6887C37.5759 28.5762 37.8011 28.5206 38.0621 28.5217C38.3211 28.5242 38.547 28.5798 38.7334 28.6875Z" fill="#F2BC36"/>
<path d="M27.468 34.468L26.451 35.06L26.288 34.965L27.151 34.463L26.944 34.344L27.098 34.254L27.468 34.468Z" fill="#F2BC36"/>
<path d="M29.27 34.4821L28.789 34.7611L28.7 34.7101L28.779 34.3471L28.427 34.5521L28.345 34.5041L28.826 34.2251L28.908 34.2721L28.83 34.6421L29.188 34.4341L29.27 34.4821Z" fill="#F2BC36"/>
<path d="M28.3102 35.0929C28.2845 35.1879 28.1916 35.282 28.0312 35.3752C27.8709 35.4683 27.7087 35.5226 27.5447 35.5378C27.3791 35.5539 27.2262 35.5207 27.0862 35.4399C26.9479 35.36 26.89 35.2716 26.9174 35.1756C26.9431 35.0805 27.0361 34.9864 27.1964 34.8932C27.3568 34.8 27.5189 34.7459 27.6829 34.7307C27.8486 34.7145 28.0014 34.7478 28.1397 34.8276C28.2797 34.9084 28.3377 34.9968 28.3102 35.0929ZM27.5259 35.4037C27.6358 35.3856 27.7471 35.3438 27.8616 35.2773C27.9762 35.2107 28.048 35.1461 28.0772 35.0833C28.108 35.0197 28.0798 34.9635 27.9926 34.9132C27.9069 34.8637 27.8099 34.8476 27.6985 34.8647C27.5886 34.8828 27.4756 34.9236 27.3627 34.9892C27.2498 35.0549 27.1796 35.1204 27.1489 35.1841C27.1196 35.2488 27.1479 35.3049 27.2335 35.3543C27.3207 35.4047 27.4177 35.4208 27.5259 35.4037ZM31.0642 36.8268L31.2288 36.9218L30.5548 37.3135C30.4174 37.3934 30.2765 37.4314 30.1353 37.4276C29.9908 37.4238 29.861 37.3886 29.7441 37.3212C29.6272 37.2537 29.5578 37.1719 29.5359 37.074L29.736 37.0474C29.7545 37.1244 29.8041 37.1852 29.8814 37.2299C29.9588 37.2746 30.041 37.2993 30.1248 37.3021C30.2117 37.305 30.2953 37.2812 30.3836 37.2299L30.4818 37.1728C30.4129 37.1861 30.3423 37.1871 30.2685 37.1766C30.1962 37.1652 30.1321 37.1434 30.0761 37.111C29.9724 37.0512 29.9243 36.9818 29.9272 36.9019C29.9333 36.822 29.9904 36.7507 30.0967 36.689C30.203 36.6272 30.3259 36.5939 30.4621 36.5911C30.6016 36.5882 30.7216 36.6157 30.8253 36.6756C30.9274 36.7346 30.9688 36.8078 30.9496 36.8934L31.0642 36.8268ZM30.478 37.0949C30.5634 37.093 30.6405 37.073 30.7075 37.0341C30.773 36.996 30.8088 36.9504 30.8134 36.9C30.8164 36.8487 30.785 36.804 30.7191 36.766C30.6532 36.7279 30.5777 36.7108 30.4907 36.7156C30.4038 36.7203 30.3283 36.7413 30.2645 36.7783C30.2008 36.8154 30.1665 36.8582 30.1586 36.9085C30.1524 36.958 30.1822 37.0017 30.2497 37.0407C30.3155 37.0787 30.3928 37.0968 30.478 37.0949ZM30.324 36.2555C30.2982 36.3506 30.2053 36.4446 30.0449 36.5378C29.8846 36.631 29.7224 36.6852 29.5584 36.7004C29.3928 36.7165 29.2399 36.6833 29.1 36.6025C28.9617 36.5226 28.9038 36.4342 28.9311 36.3382C28.9568 36.2431 29.0498 36.149 29.2101 36.0559C29.3705 35.9627 29.5326 35.9085 29.6966 35.8933C29.8624 35.8771 30.0151 35.9104 30.1534 35.9903C30.2934 36.0711 30.3514 36.1595 30.324 36.2555ZM29.5396 36.5663C29.6495 36.5483 29.7608 36.5064 29.8753 36.4399C29.9899 36.3733 30.0617 36.3087 30.0909 36.246C30.1217 36.1823 30.0936 36.1262 30.0063 36.0758C29.9207 36.0263 29.8237 36.0102 29.7122 36.0273C29.6023 36.0454 29.4893 36.0863 29.3764 36.1519C29.2635 36.2175 29.1934 36.2831 29.1626 36.3467C29.1334 36.4114 29.1616 36.4675 29.2472 36.5169C29.3345 36.5673 29.4314 36.5834 29.5396 36.5663Z" fill="#F2BC36"/>
<path d="M31.516 35.778L31.443 35.821L31.296 35.736L30.889 35.973L30.808 35.926L31.215 35.69L31.069 35.605L31.142 35.562L31.516 35.778Z" fill="#F2BC36"/>
<path d="M31.113 35.5451L30.462 35.7271L30.382 35.6801L30.61 35.4291L30.605 35.4261L30.172 35.5601L30.092 35.5131L30.405 35.1361L30.492 35.1871L30.269 35.4581L30.721 35.3191L30.795 35.3621L30.557 35.6241L31.024 35.4941L31.113 35.5451Z" fill="#F2BC36"/>
<path d="M30.186 35.0101L30.112 35.0531L29.966 34.9681L29.558 35.2051L29.476 35.1571L29.883 34.9211L29.737 34.8361L29.81 34.7931L30.186 35.0101Z" fill="#F2BC36"/>
<path d="M29.3163 35.6736C29.2906 35.7687 29.1976 35.8628 29.0372 35.956C28.877 36.0491 28.7148 36.1033 28.5507 36.1185C28.3851 36.1347 28.2339 36.1024 28.0939 36.0216C27.954 35.9408 27.8977 35.8533 27.925 35.7573C27.9508 35.6622 28.0438 35.5681 28.2041 35.475C28.3645 35.3818 28.5266 35.3276 28.6906 35.3124C28.8563 35.2962 29.0074 35.3286 29.1474 35.4094C29.2874 35.4902 29.3437 35.5776 29.3163 35.6736ZM28.5319 35.9845C28.6418 35.9664 28.7532 35.9246 28.8676 35.8581C28.9822 35.7915 29.0541 35.7268 29.0832 35.6641C29.114 35.6004 29.0859 35.5443 29.0002 35.4949C28.9146 35.4455 28.816 35.4284 28.7062 35.4464C28.5946 35.4636 28.4833 35.5054 28.3704 35.571C28.2575 35.6366 28.1857 35.7012 28.1565 35.7658C28.1257 35.8295 28.1555 35.8866 28.2412 35.936C28.3268 35.9854 28.4237 36.0016 28.5319 35.9845Z" fill="#F2BC36"/>
<path d="M29.743 34.7541L29.666 34.7991L29.409 34.6511L29.283 34.7241L29.514 34.8571L29.442 34.8991L29.211 34.7661L29.082 34.8411L29.347 34.9941L29.27 35.0391L28.923 34.8381L29.404 34.5591L29.743 34.7541Z" fill="#F2BC36"/>
<path d="M44.545 30.671L44.71 31.228L44.369 30.758L43.757 31.885L43.957 30.618L43.4 30.784L43.87 30.442L42.743 29.83L44.009 30.03L43.844 29.473L44.186 29.943L44.798 28.816L44.598 30.083L45.155 29.917L44.685 30.259L45.812 30.871L44.545 30.671Z" fill="white"/>
<path d="M30.94 38.9921L31.021 39.2661L30.853 39.0351L30.552 39.5881L30.651 38.9661L30.377 39.0471L30.608 38.8791L30.054 38.5791L30.676 38.6771L30.595 38.4041L30.763 38.6341L31.064 38.0811L30.965 38.7031L31.239 38.6221L31.008 38.7901L31.562 39.0901L30.94 38.9921Z" fill="white"/>
<path d="M31.8291 11.7733L14.761 21.6852L8.99323 18.3526C8.89357 18.2956 8.79387 18.2886 8.72977 18.3314L25.7908 8.41224C25.862 8.37643 25.9545 8.38373 26.0614 8.44075L31.8291 11.7733Z" fill="#FED44C"/>
<path d="M33.5166 18.7583L16.4557 28.6775C16.5482 28.6205 16.591 28.4852 16.5482 28.2929L15.1241 22.1976C15.0743 21.9911 14.9318 21.7846 14.761 21.6852L31.8291 11.7733C31.9929 11.8658 32.1352 12.0723 32.1851 12.2789L33.6092 18.3811C33.6591 18.5664 33.6163 18.7013 33.5166 18.7583Z" fill="#F2BC36"/>
<path d="M14.7642 21.6864C14.9324 21.7835 15.073 21.9901 15.1225 22.1967L16.5487 28.2945C16.6252 28.616 16.4426 28.7933 16.1925 28.6489L7.53643 23.6513C7.28184 23.5043 7.10533 23.1197 7.17886 22.8848L8.63495 18.4511C8.68546 18.3023 8.8313 18.261 8.99496 18.3555L14.7642 21.6864Z" fill="#F9C73A"/>
<path d="M25.393 11.261L25.256 11.341L24.818 11.088L24.577 11.228L24.968 11.454L24.833 11.533L24.441 11.307L24.079 11.517L23.93 11.431L24.807 10.922L25.393 11.261Z" fill="#F2BC36"/>
<path d="M25.7324 11.3986C25.7325 11.4204 25.7201 11.4373 25.6972 11.4506C25.6722 11.4651 25.6431 11.4724 25.6075 11.4712C25.572 11.4724 25.5428 11.4651 25.5177 11.4506C25.4946 11.4373 25.4819 11.4204 25.4818 11.3986C25.4818 11.3792 25.4942 11.3623 25.5191 11.3478C25.542 11.3345 25.5712 11.3273 25.6067 11.326C25.6423 11.3272 25.6736 11.3333 25.6967 11.3466C25.7218 11.3611 25.7324 11.3792 25.7324 11.3986ZM26.0609 11.8752C26.1363 11.9187 26.1763 11.9683 26.1745 12.0227C26.1748 12.0759 26.1312 12.128 26.0459 12.1776L25.6359 12.4158L25.4955 12.3348L25.8618 12.1219C25.9846 12.0506 25.9946 11.9841 25.892 11.9248C25.8438 11.897 25.7853 11.8824 25.7143 11.88C25.6475 11.8776 25.5828 11.8957 25.5224 11.9308L25.1603 12.1413L25.0178 12.059L25.686 11.6707L25.8285 11.753L25.7056 11.8244C25.7682 11.8123 25.8308 11.8123 25.8956 11.8208C25.9604 11.8316 26.0148 11.8486 26.0609 11.8752Z" fill="#F2BC36"/>
<path d="M24.672 11.8591L25.34 11.4711L25.481 11.5521L24.812 11.9401L24.672 11.8591Z" fill="#F2BC36"/>
<path d="M26.8275 12.6771L26.7319 12.7327L26.2039 12.4279C26.1602 12.4581 26.1436 12.4945 26.1543 12.5344C26.1651 12.5767 26.1987 12.613 26.251 12.6432C26.3348 12.6916 26.4268 12.7134 26.5207 12.7073L26.515 12.8053C26.3689 12.8077 26.2372 12.775 26.1199 12.7073C26.0256 12.6529 25.9771 12.5888 25.9725 12.5138C25.97 12.44 26.0197 12.3723 26.126 12.3106C26.23 12.2501 26.3468 12.2211 26.4762 12.2235C26.6057 12.2259 26.7166 12.2537 26.8088 12.3069C26.8989 12.359 26.9473 12.4206 26.9581 12.4896C26.9668 12.5573 26.9254 12.6202 26.8275 12.6771ZM26.3141 12.3638L26.6996 12.5864C26.7559 12.5537 26.7828 12.5186 26.7763 12.4811C26.7699 12.4436 26.7426 12.4085 26.6923 12.3795C26.6399 12.3493 26.5771 12.3324 26.504 12.3263C26.4309 12.3203 26.3683 12.3323 26.3141 12.3638ZM21.5891 13.1972C21.5539 13.2468 21.4999 13.2952 21.4229 13.3399C21.3459 13.3847 21.2729 13.4174 21.2041 13.4379C21.1374 13.4573 21.0727 13.4682 21.0163 13.4694C20.9015 13.4706 20.8032 13.4476 20.7215 13.4004C20.6419 13.3545 20.5914 13.2964 20.5765 13.2299L20.733 13.2118C20.7352 13.2299 20.7458 13.2504 20.7625 13.2722C20.7774 13.2952 20.7963 13.3133 20.8172 13.3254C20.8843 13.3641 20.9553 13.3787 21.0325 13.3702C21.1077 13.3629 21.1847 13.3376 21.2617 13.2928C21.2242 13.2952 21.1782 13.2904 21.1281 13.2807C21.0758 13.2722 21.0298 13.2553 20.99 13.2323C20.9229 13.1936 20.8893 13.1476 20.8869 13.0956C20.8886 13.0437 20.924 12.9964 20.9968 12.9541C21.0717 12.9106 21.153 12.89 21.2491 12.8924C21.341 12.8948 21.4268 12.9178 21.5001 12.9601C21.6216 13.0303 21.6491 13.1089 21.5891 13.1972ZM21.2635 13.219C21.3137 13.2214 21.3595 13.2117 21.397 13.1899C21.4365 13.167 21.4552 13.1415 21.4529 13.1089C21.4548 13.0763 21.4338 13.0496 21.3898 13.0242C21.3479 13 21.3018 12.988 21.2517 12.9856C21.1995 12.9843 21.1557 12.9952 21.1162 13.0182C21.0787 13.04 21.058 13.0666 21.0561 13.0944C21.0541 13.1246 21.0751 13.1513 21.1191 13.1767C21.1631 13.2021 21.2092 13.2165 21.2635 13.219ZM23.8705 14.5144C23.8354 14.564 23.7814 14.6124 23.7044 14.6571C23.6273 14.7019 23.5544 14.7346 23.4856 14.7552C23.4189 14.7745 23.3542 14.7854 23.2978 14.7866C23.183 14.7878 23.0847 14.7648 23.003 14.7176C22.9234 14.6717 22.8729 14.6136 22.858 14.5471L23.0145 14.5289C23.0167 14.5471 23.0273 14.5676 23.044 14.5894C23.0588 14.6124 23.0778 14.6305 23.0987 14.6426C23.1658 14.6813 23.2368 14.6959 23.314 14.6874C23.3892 14.6801 23.4662 14.6547 23.5432 14.61C23.5057 14.6124 23.4597 14.6076 23.4096 14.5979C23.3573 14.5894 23.3113 14.5725 23.2715 14.5495C23.2044 14.5108 23.1708 14.4648 23.1684 14.4128C23.1701 14.3608 23.2055 14.3136 23.2783 14.2713C23.3532 14.2278 23.4345 14.2072 23.5306 14.2096C23.6225 14.212 23.7083 14.235 23.7816 14.2773C23.9031 14.3475 23.9306 14.4261 23.8705 14.5144ZM23.545 14.5362C23.5951 14.5386 23.641 14.5289 23.6784 14.5071C23.718 14.4842 23.7367 14.4587 23.7343 14.4261C23.7362 14.3935 23.7132 14.3656 23.6713 14.3414C23.6294 14.3172 23.5833 14.3052 23.5332 14.3028C23.481 14.3016 23.4372 14.3124 23.3977 14.3354C23.3602 14.3572 23.3374 14.3826 23.3376 14.4116C23.3356 14.4419 23.3566 14.4685 23.4006 14.4939C23.4446 14.5193 23.4907 14.5337 23.545 14.5362ZM22.7087 14.3644C22.7296 14.3765 22.7423 14.391 22.7423 14.4104C22.7424 14.4274 22.7321 14.4431 22.7092 14.4563C22.6884 14.4685 22.6612 14.4745 22.63 14.4757C22.5986 14.4745 22.5714 14.4685 22.5505 14.4564C22.5274 14.4431 22.5169 14.4273 22.5168 14.4104C22.5188 14.3923 22.5291 14.3766 22.55 14.3644C22.5728 14.3512 22.6 14.3451 22.6292 14.3451C22.6606 14.3439 22.6856 14.3511 22.7087 14.3644ZM22.9173 13.9641C22.8842 14.0149 22.8282 14.062 22.7511 14.1068C22.6741 14.1515 22.6011 14.1842 22.5323 14.2048C22.4657 14.2241 22.403 14.2363 22.3446 14.2362C22.2297 14.2375 22.1336 14.2157 22.0519 14.1685C21.9702 14.1213 21.9218 14.0645 21.9048 13.9967L22.0633 13.9798C22.0655 13.9979 22.0741 14.0173 22.0908 14.0391C22.1056 14.062 22.1245 14.0802 22.1455 14.0923C22.2125 14.131 22.2835 14.1455 22.3629 14.1382C22.438 14.131 22.513 14.1044 22.5921 14.0609C22.5525 14.0621 22.5086 14.0584 22.4584 14.0487C22.4062 14.0403 22.3601 14.0233 22.3182 13.9992C22.2512 13.9604 22.2175 13.9145 22.2172 13.8637C22.2169 13.8105 22.2522 13.7633 22.3251 13.7209C22.3999 13.6774 22.4833 13.6581 22.5774 13.6592C22.6713 13.6629 22.755 13.6846 22.8304 13.7282C22.9499 13.7971 22.9795 13.877 22.9173 13.9641ZM22.5917 13.9858C22.644 13.9894 22.6898 13.9798 22.7273 13.958C22.7668 13.935 22.7834 13.9084 22.7832 13.877C22.7851 13.8443 22.762 13.8165 22.7201 13.7923C22.6782 13.7681 22.6301 13.7548 22.5799 13.7524C22.5277 13.7512 22.484 13.7621 22.4445 13.785C22.407 13.8068 22.3862 13.8334 22.3864 13.8625C22.3824 13.8915 22.4054 13.9194 22.4473 13.9435C22.4913 13.9689 22.5375 13.9834 22.5917 13.9858ZM22.2532 13.5807C22.2201 13.6314 22.164 13.6786 22.087 13.7233C22.01 13.7681 21.937 13.8008 21.8682 13.8214C21.8015 13.8407 21.7368 13.8516 21.6805 13.8528C21.5656 13.854 21.4674 13.831 21.3877 13.7851C21.306 13.7379 21.2577 13.6811 21.2407 13.6133L21.3992 13.5964C21.3993 13.6133 21.4099 13.6338 21.4267 13.6557C21.4415 13.6786 21.4604 13.6967 21.4814 13.7088C21.5484 13.7475 21.6194 13.7621 21.6967 13.7536C21.7718 13.7464 21.8489 13.721 21.9259 13.6762C21.8883 13.6786 21.8444 13.675 21.7922 13.6641C21.74 13.6556 21.696 13.6399 21.6541 13.6157C21.5871 13.577 21.5534 13.5311 21.551 13.479C21.5528 13.4271 21.5881 13.3798 21.6609 13.3375C21.7358 13.294 21.8192 13.2747 21.9133 13.2758C22.0072 13.2795 22.0909 13.3012 22.1663 13.3448C22.2857 13.4137 22.3153 13.4936 22.2532 13.5807ZM21.9276 13.6024C21.9799 13.606 22.0257 13.5964 22.0632 13.5746C22.1027 13.5516 22.1193 13.525 22.1191 13.4936C22.1189 13.4597 22.0979 13.4331 22.056 13.4089C22.0141 13.3847 21.966 13.3714 21.9158 13.369C21.8636 13.3678 21.8199 13.3786 21.7803 13.4016C21.7429 13.4234 21.7221 13.45 21.7223 13.479C21.7182 13.5081 21.7392 13.5347 21.7832 13.5601C21.8272 13.5855 21.8733 13.6 21.9276 13.6024ZM26.6629 13.4621L26.8724 13.583L25.5007 14.3802L25.2912 14.2592L25.439 14.1733C25.2532 14.1915 25.0881 14.1588 24.9393 14.0729C24.8136 14.0004 24.7505 13.9108 24.752 13.8032C24.7513 13.6944 24.8281 13.5963 24.9821 13.5068C25.134 13.4186 25.305 13.375 25.493 13.3774C25.6788 13.3786 25.8398 13.4186 25.9718 13.4948C26.1038 13.571 26.1545 13.6653 26.1238 13.7754L26.6629 13.4621ZM25.4676 14.062C25.5825 14.0608 25.6888 14.033 25.7824 13.9786C25.8762 13.9241 25.9259 13.8612 25.9318 13.7923C25.9376 13.7233 25.8997 13.6629 25.818 13.6157C25.7342 13.5673 25.6297 13.5455 25.5065 13.5468C25.3854 13.5492 25.277 13.5782 25.1832 13.6326C25.0896 13.687 25.042 13.7487 25.0423 13.8189C25.0448 13.8879 25.0869 13.9459 25.1686 13.9931C25.2524 14.0415 25.3507 14.0645 25.4676 14.062Z" fill="#F2BC36"/>
<path d="M25.622 12.861L24.25 13.658L24.04 13.537L25.412 12.74L25.622 12.861Z" fill="#F2BC36"/>
<path d="M24.5063 12.8198C24.5069 12.9335 24.4365 13.0327 24.295 13.1149C24.1535 13.1972 23.9825 13.2383 23.7861 13.2383C23.5898 13.2383 23.4163 13.1935 23.2675 13.1077C23.1188 13.0218 23.0431 12.9226 23.0403 12.8077C23.0397 12.694 23.1101 12.5948 23.2516 12.5126C23.3931 12.4303 23.5641 12.3892 23.7605 12.3892C23.9589 12.3904 24.1324 12.4327 24.2811 12.5186C24.4299 12.6045 24.5057 12.7061 24.5063 12.8198ZM23.7664 13.0774C23.8833 13.0774 23.9897 13.0496 24.0855 12.994C24.1812 12.9383 24.2289 12.8766 24.2305 12.8077C24.2303 12.7399 24.186 12.6783 24.0959 12.6263C24.0058 12.5743 23.8993 12.5488 23.7822 12.5489C23.6633 12.5501 23.5569 12.5779 23.4611 12.6335C23.3654 12.6892 23.3177 12.7509 23.3181 12.8186C23.3165 12.8875 23.3606 12.9492 23.4507 13.0012C23.5408 13.0532 23.6475 13.0786 23.7664 13.0774ZM23.3635 11.6126C23.5521 11.7215 23.653 11.8424 23.6683 11.9767L23.3846 12.0057C23.378 11.9513 23.3569 11.9053 23.3211 11.8655C23.2854 11.8255 23.235 11.7868 23.1659 11.7469C23.0339 11.6707 22.8834 11.632 22.7079 11.6296C22.5346 11.6259 22.3781 11.6659 22.2408 11.7457C22.1034 11.8255 22.0371 11.9151 22.0397 12.013C22.0445 12.1122 22.1076 12.1969 22.2312 12.2682C22.3548 12.3396 22.4846 12.3831 22.6204 12.4012L22.9763 12.1944L23.1963 12.3214L22.753 12.579C22.4961 12.5851 22.2535 12.5222 22.0252 12.3904C21.8324 12.2791 21.7336 12.1497 21.7307 12.0033C21.7277 11.8546 21.8209 11.7251 22.0125 11.6138C22.206 11.5013 22.4312 11.4457 22.6923 11.4469C22.9512 11.4494 23.1771 11.505 23.3635 11.6126Z" fill="#F2BC36"/>
<path d="M12.098 17.3931L11.081 17.9851L10.918 17.8911L11.781 17.3891L11.574 17.2691L11.728 17.1801L12.098 17.3931Z" fill="#F2BC36"/>
<path d="M13.9 17.407L13.419 17.686L13.331 17.635L13.409 17.273L13.057 17.477L12.975 17.43L13.456 17.15L13.538 17.198L13.46 17.567L13.818 17.359L13.9 17.407Z" fill="#F2BC36"/>
<path d="M12.9404 18.018C12.9147 18.1131 12.8217 18.2072 12.6613 18.3004C12.501 18.3935 12.3388 18.4477 12.1748 18.4629C12.0092 18.4791 11.8563 18.4458 11.7164 18.365C11.5781 18.2852 11.5202 18.1967 11.5475 18.1007C11.5732 18.0057 11.6662 17.9115 11.8265 17.8184C11.9869 17.7252 12.149 17.6711 12.313 17.6558C12.4787 17.6397 12.6315 17.673 12.7698 17.7528C12.9098 17.8336 12.9678 17.922 12.9404 18.018ZM12.156 18.3289C12.2659 18.3108 12.3772 18.269 12.4917 18.2024C12.6063 18.1359 12.6781 18.0712 12.7073 18.0085C12.7381 17.9448 12.7099 17.8887 12.6227 17.8383C12.5371 17.7889 12.4401 17.7728 12.3286 17.7899C12.2187 17.8079 12.1057 17.8488 11.9928 17.9144C11.8799 17.98 11.8097 18.0456 11.779 18.1093C11.7498 18.1739 11.778 18.23 11.8636 18.2794C11.9509 18.3298 12.0478 18.346 12.156 18.3289ZM15.6943 19.7519L15.8589 19.847L15.185 20.2387C15.0475 20.3186 14.9066 20.3566 14.7654 20.3528C14.621 20.349 14.4911 20.3138 14.3742 20.2463C14.2573 20.1788 14.188 20.097 14.166 19.9991L14.3661 19.9725C14.3846 20.0495 14.4342 20.1104 14.5116 20.155C14.5889 20.1997 14.6711 20.2244 14.7549 20.2273C14.8418 20.2301 14.9255 20.2064 15.0138 20.155L15.1119 20.098C15.0431 20.1113 14.9725 20.1123 14.8986 20.1018C14.8263 20.0904 14.7622 20.0685 14.7062 20.0362C14.6025 19.9763 14.5545 19.9069 14.5573 19.8271C14.5635 19.7472 14.6205 19.6759 14.7268 19.6141C14.8332 19.5523 14.956 19.5191 15.0922 19.5162C15.2317 19.5134 15.3517 19.5409 15.4554 19.6008C15.5575 19.6597 15.5989 19.733 15.5797 19.8185L15.6943 19.7519ZM15.1082 20.0201C15.1935 20.0181 15.2706 19.9982 15.3376 19.9592C15.4031 19.9212 15.4389 19.8755 15.4436 19.8252C15.4465 19.7738 15.4151 19.7291 15.3492 19.6911C15.2834 19.6531 15.2078 19.636 15.1208 19.6408C15.0339 19.6455 14.9585 19.6664 14.8947 19.7035C14.8309 19.7405 14.7967 19.7834 14.7888 19.8337C14.7825 19.8831 14.8123 19.9269 14.8798 19.9658C14.9457 20.0039 15.0229 20.0219 15.1082 20.0201ZM14.9541 19.1806C14.9284 19.2757 14.8354 19.3698 14.675 19.463C14.5148 19.5561 14.3526 19.6103 14.1885 19.6255C14.0229 19.6417 13.87 19.6084 13.7301 19.5276C13.5918 19.4478 13.5339 19.3593 13.5612 19.2634C13.5869 19.1683 13.68 19.0742 13.8402 18.981C14.0006 18.8878 14.1627 18.8337 14.3268 18.8185C14.4925 18.8023 14.6452 18.8356 14.7835 18.9154C14.9235 18.9962 14.9815 19.0846 14.9541 19.1806ZM14.1697 19.4915C14.2796 19.4734 14.391 19.4316 14.5055 19.3651C14.62 19.2985 14.6919 19.2339 14.721 19.1711C14.7518 19.1075 14.7237 19.0513 14.6364 19.0009C14.5508 18.9515 14.4538 18.9354 14.3423 18.9525C14.2324 18.9706 14.1194 19.0114 14.0066 19.077C13.8937 19.1427 13.8235 19.2082 13.7927 19.2719C13.7635 19.3366 13.7917 19.3926 13.8773 19.4421C13.9646 19.4924 14.0615 19.5086 14.1697 19.4915Z" fill="#F2BC36"/>
<path d="M16.146 18.703L16.073 18.746L15.926 18.662L15.519 18.898L15.438 18.852L15.845 18.615L15.699 18.53L15.772 18.488L16.146 18.703Z" fill="#F2BC36"/>
<path d="M15.743 18.47L15.092 18.652L15.012 18.605L15.24 18.355L15.235 18.352L14.803 18.485L14.722 18.438L15.035 18.062L15.122 18.112L14.899 18.383L15.351 18.244L15.425 18.287L15.187 18.549L15.654 18.419L15.743 18.47Z" fill="#F2BC36"/>
<path d="M14.816 17.935L14.742 17.978L14.596 17.893L14.188 18.13L14.106 18.083L14.513 17.846L14.367 17.761L14.44 17.719L14.816 17.935Z" fill="#F2BC36"/>
<path d="M13.9464 18.5988C13.9207 18.6939 13.8277 18.788 13.6674 18.8812C13.5071 18.9743 13.3449 19.0285 13.1808 19.0437C13.0152 19.0599 12.864 19.0276 12.724 18.9467C12.5841 18.8659 12.5278 18.7785 12.5552 18.6825C12.5809 18.5874 12.6739 18.4933 12.8342 18.4001C12.9946 18.3069 13.1567 18.2528 13.3207 18.2376C13.4864 18.2214 13.6375 18.2537 13.7775 18.3345C13.9175 18.4153 13.9738 18.5028 13.9464 18.5988ZM13.162 18.9097C13.2719 18.8916 13.3833 18.8498 13.4978 18.7832C13.6123 18.7166 13.6842 18.652 13.7133 18.5893C13.7441 18.5256 13.716 18.4695 13.6304 18.4201C13.5447 18.3706 13.4461 18.3536 13.3363 18.3716C13.2247 18.3887 13.1134 18.4305 13.0005 18.4961C12.8876 18.5618 12.8158 18.6264 12.7867 18.691C12.7558 18.7547 12.7857 18.8117 12.8713 18.8612C12.9569 18.9106 13.0538 18.9268 13.162 18.9097Z" fill="#F2BC36"/>
<path d="M14.373 17.68L14.296 17.724L14.039 17.576L13.913 17.649L14.144 17.782L14.072 17.824L13.841 17.691L13.712 17.766L13.977 17.919L13.9 17.964L13.553 17.763L14.034 17.484L14.373 17.68Z" fill="#F2BC36"/>
<path d="M29.175 13.596L29.34 14.153L28.999 13.683L28.387 14.81L28.587 13.544L28.03 13.709L28.5 13.367L27.373 12.755L28.639 12.955L28.474 12.398L28.816 12.868L29.428 11.741L29.228 13.008L29.785 12.843L29.315 13.184L30.442 13.796L29.175 13.596Z" fill="white"/>
<path d="M15.57 21.917L15.651 22.191L15.483 21.96L15.182 22.514L15.281 21.891L15.007 21.973L15.238 21.805L14.684 21.504L15.306 21.602L15.225 21.329L15.393 21.56L15.694 21.006L15.595 21.628L15.869 21.547L15.638 21.715L16.192 22.015L15.57 21.917Z" fill="white"/>
<path d="M43.6438 18.5565L26.5757 28.4684L20.808 25.1358C20.7084 25.0788 20.6087 25.0718 20.5446 25.1146L37.6056 15.1954C37.6768 15.1596 37.7693 15.1669 37.8762 15.224L43.6438 18.5565Z" fill="#FED44C"/>
<path d="M45.3314 25.5415L28.2705 35.4607C28.363 35.4037 28.4057 35.2684 28.363 35.0761L26.9389 28.9809C26.8891 28.7743 26.7466 28.5678 26.5757 28.4684L43.6438 18.5565C43.8076 18.649 43.95 18.8555 43.9999 19.0621L45.424 25.1643C45.4738 25.3496 45.4311 25.4845 45.3314 25.5415Z" fill="#F2BC36"/>
<path d="M26.579 28.4696C26.7472 28.5667 26.8878 28.7733 26.9373 28.9799L28.3635 35.0777C28.44 35.3992 28.2574 35.5765 28.0073 35.4321L19.3512 30.4345C19.0966 30.2875 18.9201 29.9029 18.9936 29.668L20.4497 25.2343C20.5002 25.0855 20.6461 25.0442 20.8097 25.1387L26.579 28.4696Z" fill="#F9C73A"/>
<path d="M37.208 18.044L37.071 18.124L36.633 17.871L36.391 18.011L36.783 18.238L36.648 18.316L36.256 18.09L35.894 18.3L35.745 18.215L36.622 17.705L37.208 18.044Z" fill="#F2BC36"/>
<path d="M37.5472 18.1818C37.5473 18.2036 37.5349 18.2205 37.512 18.2338C37.487 18.2483 37.4578 18.2556 37.4223 18.2544C37.3868 18.2556 37.3576 18.2483 37.3324 18.2338C37.3094 18.2205 37.2967 18.2036 37.2966 18.1818C37.2965 18.1624 37.3089 18.1455 37.3339 18.131C37.3568 18.1177 37.3859 18.1105 37.4215 18.1093C37.457 18.1104 37.4884 18.1165 37.5114 18.1298C37.5365 18.1443 37.5471 18.1624 37.5472 18.1818ZM37.8757 18.6584C37.9511 18.7019 37.991 18.7515 37.9892 18.8059C37.9896 18.8591 37.946 18.9112 37.8606 18.9608L37.4506 19.199L37.3102 19.118L37.6766 18.9051C37.7993 18.8338 37.8094 18.7673 37.7067 18.708C37.6585 18.6802 37.6 18.6656 37.529 18.6632C37.4622 18.6608 37.3976 18.6789 37.3372 18.714L36.975 18.9245L36.8326 18.8422L37.5008 18.4539L37.6432 18.5362L37.5204 18.6076C37.583 18.5955 37.6456 18.5955 37.7103 18.604C37.7751 18.6148 37.8296 18.6318 37.8757 18.6584Z" fill="#F2BC36"/>
<path d="M36.487 18.6429L37.155 18.2539L37.295 18.3349L36.627 18.7239L36.487 18.6429Z" fill="#F2BC36"/>
<path d="M38.6423 19.4603L38.5467 19.5159L38.0187 19.2111C37.975 19.2413 37.9584 19.2777 37.9691 19.3176C37.9798 19.3599 38.0135 19.3962 38.0658 19.4264C38.1496 19.4748 38.2416 19.4966 38.3355 19.4905L38.3298 19.5885C38.1837 19.5909 38.052 19.5582 37.9346 19.4905C37.8404 19.4361 37.7919 19.372 37.7873 19.297C37.7848 19.2232 37.8345 19.1555 37.9408 19.0938C38.0448 19.0333 38.1616 19.0043 38.291 19.0067C38.4205 19.0092 38.5314 19.0369 38.6236 19.0902C38.7137 19.1422 38.7621 19.2039 38.7729 19.2728C38.7816 19.3406 38.7402 19.4034 38.6423 19.4603ZM38.1289 19.147L38.5144 19.3696C38.5707 19.3369 38.5976 19.3019 38.5911 19.2644C38.5846 19.2269 38.5574 19.1917 38.5071 19.1627C38.4547 19.1325 38.3919 19.1156 38.3188 19.1095C38.2456 19.1035 38.1831 19.1155 38.1289 19.147ZM33.0189 20.2212C32.9522 20.2405 32.8875 20.2514 32.8311 20.2526C32.7163 20.2538 32.618 20.2308 32.5363 20.1837C32.4567 20.1377 32.4062 20.0796 32.3913 20.0131L32.5478 19.995C32.55 20.0131 32.5606 20.0336 32.5773 20.0555C32.5922 20.0784 32.6111 20.0965 32.632 20.1086C32.6991 20.1473 32.7701 20.1619 32.8473 20.1534C32.9225 20.1461 32.9995 20.1208 33.0765 20.076C33.039 20.0784 32.993 20.0736 32.9429 20.0639C32.8906 20.0554 32.8446 20.0385 32.8048 20.0155C32.7377 19.9768 32.7041 19.9308 32.7017 19.8788C32.7034 19.8269 32.7388 19.7796 32.8116 19.7373C33.2545 19.4799 33.821 19.9814 33.0189 20.2212ZM33.0783 20.0022C33.4456 20.0198 33.2074 19.6407 32.931 19.8014C32.7879 19.8845 32.9281 19.9955 33.0783 20.0022ZM35.6853 21.2977C35.5927 21.4282 35.328 21.5652 35.1126 21.5698C34.9978 21.571 34.8995 21.548 34.8178 21.5009C34.7382 21.4549 34.6877 21.3969 34.6728 21.3303L34.8293 21.3122C34.8315 21.3303 34.8421 21.3508 34.8588 21.3727C34.8736 21.3956 34.8926 21.4137 34.9135 21.4258C35.0524 21.506 35.2188 21.4741 35.358 21.3932C34.8732 21.4242 34.8659 20.9809 35.3454 20.9928C35.4373 20.9952 35.523 21.0182 35.5964 21.0605C35.7179 21.1307 35.7454 21.2094 35.6853 21.2977ZM35.3598 21.3194C35.6027 21.331 35.6229 21.0992 35.3479 21.086C35.1021 21.0802 35.0723 21.3065 35.3598 21.3194ZM34.5235 21.1477C34.5444 21.1598 34.5571 21.1742 34.5571 21.1936C34.5572 21.2106 34.5469 21.2263 34.524 21.2396C34.5032 21.2517 34.476 21.2577 34.4448 21.2589C34.4134 21.2577 34.3862 21.2517 34.3653 21.2396C34.3422 21.2263 34.3317 21.2105 34.3316 21.1936C34.3336 21.1755 34.3439 21.1598 34.3648 21.1476C34.3876 21.1344 34.4148 21.1283 34.444 21.1283C34.4754 21.1271 34.5004 21.1344 34.5235 21.1477ZM34.3471 20.988C34.2805 21.0074 34.2178 21.0195 34.1594 21.0195C34.0445 21.0207 33.9484 20.9989 33.8667 20.9517C33.7849 20.9045 33.7366 20.8477 33.7196 20.7799L33.8781 20.763C33.8803 20.7812 33.8888 20.8005 33.9056 20.8223C33.9204 20.8453 33.9393 20.8634 33.9603 20.8755C34.0273 20.9142 34.0983 20.9287 34.1777 20.9215C34.2528 20.9142 34.3278 20.8876 34.4069 20.8441C33.7017 20.8653 34.1274 20.2125 34.6452 20.5114C34.9238 20.6722 34.6372 20.9013 34.3471 20.988ZM34.4065 20.769C34.7734 20.7944 34.5405 20.4048 34.2593 20.5682C34.123 20.6474 34.249 20.762 34.4065 20.769ZM33.4953 20.636C33.3804 20.6372 33.2821 20.6143 33.2025 20.5683C33.1208 20.5211 33.0725 20.4643 33.0554 20.3965L33.214 20.3796C33.2141 20.3965 33.2247 20.4171 33.2415 20.4389C33.2563 20.4618 33.2752 20.48 33.2962 20.492C33.435 20.5722 33.6015 20.5404 33.7407 20.4594C33.6024 20.4683 33.3722 20.4006 33.3658 20.2623C33.3708 20.1138 33.7056 19.9689 33.9811 20.128C34.3056 20.3153 33.8382 20.6287 33.4953 20.636ZM33.7424 20.3856C34.1233 20.4119 33.8609 20.0304 33.5951 20.1848C33.459 20.2639 33.5846 20.3785 33.7424 20.3856ZM38.4777 20.2453L38.6872 20.3662L37.3155 21.1634L37.106 21.0424L37.2538 20.9565C37.068 20.9747 36.9029 20.942 36.7541 20.8561C36.6284 20.7836 36.5653 20.694 36.5668 20.5864C36.5661 20.4776 36.6429 20.3796 36.7969 20.2901C36.9488 20.2018 37.1198 20.1582 37.3078 20.1606C37.4936 20.1618 37.6546 20.2018 37.7866 20.278C37.9186 20.3542 37.9693 20.4485 37.9386 20.5586L38.4777 20.2453ZM37.2824 20.8452C37.3973 20.844 37.5036 20.8162 37.5972 20.7618C37.6909 20.7073 37.7407 20.6445 37.7465 20.5755C37.7524 20.5066 37.7145 20.4461 37.6328 20.3989C37.549 20.3505 37.4445 20.3288 37.3213 20.33C37.2001 20.3324 37.0918 20.3614 36.998 20.4159C36.9044 20.4703 36.8568 20.532 36.8571 20.6021C36.8596 20.6711 36.9017 20.7291 36.9834 20.7763C37.0672 20.8247 37.1654 20.8477 37.2824 20.8452Z" fill="#F2BC36"/>
<path d="M37.436 19.6439L36.065 20.4409L35.855 20.3199L37.227 19.5229L37.436 19.6439Z" fill="#F2BC36"/>
<path d="M36.3211 19.603C36.3217 19.7167 36.2512 19.8159 36.1098 19.8981C35.9683 19.9804 35.7973 20.0215 35.6009 20.0215C35.4046 20.0215 35.2311 19.9767 35.0823 19.8909C34.9336 19.805 34.8579 19.7058 34.8551 19.5909C34.8545 19.4772 34.925 19.378 35.0664 19.2958C35.2079 19.2135 35.3789 19.1724 35.5753 19.1724C35.7737 19.1736 35.9472 19.2159 36.0959 19.3018C36.2446 19.3877 36.3204 19.4893 36.3211 19.603ZM35.5812 19.8606C35.6981 19.8606 35.8045 19.8328 35.9002 19.7772C35.996 19.7215 36.0437 19.6598 36.0453 19.5909C36.045 19.5231 36.0008 19.4615 35.9107 19.4095C35.8206 19.3575 35.714 19.332 35.597 19.3321C35.478 19.3333 35.3717 19.3611 35.2759 19.4167C35.1802 19.4724 35.1325 19.5341 35.1329 19.6018C35.1312 19.6707 35.1754 19.7324 35.2655 19.7844C35.3556 19.8364 35.4623 19.8618 35.5812 19.8606ZM35.1783 18.3958C35.3669 18.5047 35.4678 18.6256 35.4831 18.7599L35.1994 18.7889C35.1928 18.7345 35.1716 18.6885 35.1359 18.6487C35.1002 18.6087 35.0498 18.57 34.9806 18.5301C34.8487 18.4539 34.6982 18.4152 34.5227 18.4128C34.3494 18.4091 34.1929 18.4491 34.0556 18.5289C33.9182 18.6087 33.8519 18.6983 33.8545 18.7962C33.8593 18.8954 33.9224 18.9801 34.046 19.0514C34.1696 19.1228 34.2994 19.1663 34.4352 19.1844L34.7911 18.9776L35.0111 19.1046L34.5678 19.3622C34.3109 19.3683 34.0683 19.3054 33.84 19.1736C33.6472 19.0623 33.5483 18.9329 33.5454 18.7865C33.5425 18.6378 33.6357 18.5083 33.8273 18.397C34.0208 18.2846 34.246 18.2289 34.507 18.2301C34.766 18.2326 34.9919 18.2882 35.1783 18.3958Z" fill="#F2BC36"/>
<path d="M23.913 24.1769L22.896 24.7679L22.733 24.6739L23.596 24.1719L23.389 24.0519L23.543 23.9629L23.913 24.1769Z" fill="#F2BC36"/>
<path d="M25.715 24.19L25.234 24.469L25.145 24.418L25.224 24.056L24.872 24.26L24.79 24.213L25.271 23.933L25.353 23.981L25.275 24.351L25.633 24.142L25.715 24.19Z" fill="#F2BC36"/>
<path d="M24.7552 24.8012C24.7294 24.8963 24.6365 24.9904 24.4761 25.0836C24.3158 25.1767 24.1536 25.2309 23.9896 25.2461C23.824 25.2623 23.6711 25.229 23.5312 25.1482C23.3929 25.0684 23.335 24.9799 23.3623 24.8839C23.388 24.7889 23.481 24.6947 23.6413 24.6016C23.8017 24.5084 23.9638 24.4543 24.1278 24.439C24.2935 24.4229 24.4463 24.4562 24.5846 24.536C24.7246 24.6168 24.7826 24.7052 24.7552 24.8012ZM23.9708 25.1121C24.0807 25.094 24.192 25.0522 24.3065 24.9856C24.4211 24.9191 24.4929 24.8544 24.5221 24.7917C24.5529 24.728 24.5247 24.6719 24.4375 24.6215C24.3519 24.5721 24.2549 24.556 24.1434 24.5731C24.0335 24.5911 23.9205 24.632 23.8076 24.6976C23.6947 24.7632 23.6245 24.8288 23.5938 24.8925C23.5646 24.9571 23.5928 25.0132 23.6784 25.0626C23.7657 25.113 23.8626 25.1292 23.9708 25.1121ZM27.5091 26.5351L27.6737 26.6302L26.9998 27.0219C26.8623 27.1018 26.7214 27.1398 26.5802 27.136C26.4358 27.1322 26.3059 27.097 26.189 27.0295C26.0721 26.962 26.0028 26.8802 25.9808 26.7823L26.1809 26.7557C26.1994 26.8327 26.249 26.8936 26.3264 26.9382C26.4037 26.9829 26.4859 27.0076 26.5697 27.0105C26.6566 27.0133 26.7402 26.9896 26.8286 26.9382L26.9267 26.8812C26.8579 26.8945 26.7872 26.8955 26.7134 26.885C26.6411 26.8736 26.577 26.8517 26.521 26.8194C26.4173 26.7595 26.3692 26.6901 26.3721 26.6103C26.3782 26.5304 26.4353 26.4591 26.5416 26.3973C26.6479 26.3355 26.7708 26.3023 26.907 26.2994C27.0465 26.2966 27.1665 26.3241 27.2702 26.384C27.3723 26.4429 27.4137 26.5162 27.3945 26.6017L27.5091 26.5351ZM26.923 26.8033C27.0083 26.8013 27.0854 26.7814 27.1524 26.7424C27.2179 26.7044 27.2537 26.6587 27.2583 26.6084C27.2613 26.557 27.2299 26.5123 27.164 26.4743C27.0982 26.4363 27.0226 26.4192 26.9356 26.424C26.8487 26.4287 26.7733 26.4496 26.7095 26.4867C26.6457 26.5237 26.6114 26.5666 26.6036 26.6169C26.5973 26.6663 26.6271 26.7101 26.6946 26.749C26.7605 26.7871 26.8377 26.8051 26.923 26.8033ZM26.7689 25.9638C26.7432 26.0589 26.6502 26.153 26.4898 26.2462C26.3296 26.3393 26.1674 26.3935 26.0033 26.4087C25.8377 26.4249 25.6848 26.3916 25.5449 26.3108C25.4066 26.231 25.3487 26.1425 25.376 26.0466C25.4017 25.9515 25.4948 25.8574 25.655 25.7642C25.8154 25.671 25.9775 25.6169 26.1416 25.6017C26.3073 25.5855 26.46 25.6188 26.5983 25.6986C26.7383 25.7794 26.7963 25.8678 26.7689 25.9638ZM25.9845 26.2747C26.0944 26.2566 26.2058 26.2148 26.3202 26.1483C26.4348 26.0817 26.5067 26.017 26.5358 25.9543C26.5666 25.8906 26.5385 25.8345 26.4512 25.7841C26.3656 25.7347 26.2686 25.7186 26.1571 25.7357C26.0472 25.7537 25.9342 25.7946 25.8213 25.8602C25.7085 25.9258 25.6383 25.9914 25.6075 26.0551C25.5783 26.1197 25.6065 26.1758 25.6921 26.2253C25.7794 26.2756 25.8763 26.2918 25.9845 26.2747Z" fill="#F2BC36"/>
<path d="M27.961 25.487L27.887 25.529L27.741 25.445L27.334 25.682L27.253 25.635L27.66 25.398L27.514 25.314L27.587 25.271L27.961 25.487Z" fill="#F2BC36"/>
<path d="M27.558 25.254L26.907 25.435L26.826 25.389L27.055 25.138L27.05 25.135L26.617 25.268L26.537 25.221L26.85 24.845L26.937 24.895L26.714 25.166L27.166 25.027L27.24 25.07L27.002 25.333L27.469 25.202L27.558 25.254Z" fill="#F2BC36"/>
<path d="M26.631 24.719L26.557 24.761L26.41 24.677L26.003 24.913L25.921 24.866L26.328 24.629L26.182 24.545L26.255 24.502L26.631 24.719Z" fill="#F2BC36"/>
<path d="M25.7612 25.382C25.7355 25.4771 25.6425 25.5711 25.4821 25.6643C25.3219 25.7575 25.1597 25.8117 24.9956 25.8269C24.83 25.843 24.6788 25.8107 24.5388 25.7299C24.3989 25.6491 24.3426 25.5617 24.3699 25.4657C24.3957 25.3706 24.4887 25.2765 24.649 25.1833C24.8094 25.0901 24.9715 25.036 25.1355 25.0208C25.3012 25.0046 25.4523 25.0369 25.5923 25.1177C25.7323 25.1985 25.7886 25.286 25.7612 25.382ZM24.9768 25.6929C25.0867 25.6748 25.1981 25.633 25.3125 25.5664C25.4271 25.4998 25.499 25.4352 25.5281 25.3725C25.5589 25.3088 25.5308 25.2527 25.4451 25.2032C25.3595 25.1538 25.2609 25.1367 25.1511 25.1548C25.0395 25.1719 24.9282 25.2137 24.8153 25.2793C24.7024 25.3449 24.6306 25.4096 24.6014 25.4742C24.5706 25.5379 24.6004 25.5949 24.6861 25.6444C24.7717 25.6938 24.8686 25.71 24.9768 25.6929Z" fill="#F2BC36"/>
<path d="M26.188 24.463L26.111 24.507L25.854 24.359L25.728 24.432L25.958 24.566L25.886 24.607L25.656 24.474L25.527 24.549L25.792 24.702L25.715 24.747L25.368 24.546L25.849 24.267L26.188 24.463Z" fill="#F2BC36"/>
<path d="M40.99 20.3789L41.155 20.9369L40.813 20.4669L40.202 21.5939L40.402 20.3269L39.845 20.4919L40.315 20.1499L39.188 19.5389L40.454 19.7389L40.289 19.1809L40.631 19.6519L41.242 18.5249L41.042 19.7909L41.6 19.6259L41.13 19.9679L42.257 20.5789L40.99 20.3789Z" fill="white"/>
<path d="M27.384 28.6999L27.466 28.9739L27.298 28.7429L26.997 29.2969L27.096 28.6749L26.822 28.7559L27.053 28.5879L26.499 28.2879L27.121 28.3859L27.04 28.1119L27.208 28.3429L27.508 27.7889L27.41 28.4119L27.684 28.3299L27.453 28.4979L28.007 28.7989L27.384 28.6999Z" fill="white"/>
<path d="M39.8141 7.60841L22.746 17.5203L16.9783 14.1877C16.8786 14.1307 16.7789 14.1237 16.7148 14.1665L33.7758 4.24732C33.847 4.21151 33.9396 4.21881 34.0464 4.27583L39.8141 7.60841Z" fill="#FED44C"/>
<path d="M41.5017 14.5934L24.4407 24.5126C24.5333 24.4555 24.576 24.3203 24.5333 24.128L23.1092 18.0327C23.0593 17.8262 22.9169 17.6197 22.746 17.5202L39.8141 7.6084C39.9779 7.70088 40.1203 7.90741 40.1701 8.11394L41.5943 14.2162C41.6441 14.4015 41.6014 14.5364 41.5017 14.5934Z" fill="#F2BC36"/>
<path d="M22.7492 17.5215C22.9174 17.6186 23.058 17.8252 23.1075 18.0318L24.5338 24.1295C24.6103 24.4511 24.4276 24.6284 24.1776 24.484L15.5215 19.4864C15.2669 19.3394 15.0904 18.9547 15.1639 18.7198L16.62 14.2862C16.6705 14.1374 16.8163 14.0961 16.98 14.1906L22.7492 17.5215Z" fill="#F9C73A"/>
<path d="M33.378 7.09596L33.241 7.17596L32.803 6.92296L32.562 7.06296L32.953 7.28896L32.818 7.36796L32.426 7.14196L32.064 7.35196L31.916 7.26596L32.792 6.75696L33.378 7.09596Z" fill="#F2BC36"/>
<path d="M33.7175 7.23371C33.7176 7.25549 33.7052 7.2724 33.6823 7.28572C33.6573 7.30022 33.6281 7.30746 33.5926 7.30628C33.5571 7.3075 33.5279 7.30019 33.5027 7.28568C33.4797 7.27238 33.467 7.25548 33.4669 7.23371C33.4668 7.21432 33.4792 7.19741 33.5042 7.18291C33.5271 7.16959 33.5563 7.16235 33.5918 7.16113C33.6273 7.1623 33.6587 7.16836 33.6817 7.18167C33.7068 7.19618 33.7174 7.21432 33.7175 7.23371ZM34.046 7.71025C34.1214 7.75379 34.1613 7.8034 34.1595 7.85784C34.1599 7.91103 34.1163 7.96305 34.0309 8.01266L33.6209 8.25094L33.4805 8.1699L33.8469 7.95702C33.9696 7.88569 33.9797 7.81916 33.877 7.75989C33.8288 7.73207 33.7703 7.71753 33.6993 7.71512C33.6325 7.71267 33.5679 7.73082 33.5075 7.76593L33.1453 7.97637L33.0029 7.89412L33.671 7.50582L33.8135 7.58807L33.6906 7.65947C33.7532 7.64735 33.8158 7.64738 33.8806 7.65586C33.9454 7.66673 33.9999 7.68364 34.046 7.71025Z" fill="#F2BC36"/>
<path d="M32.657 7.69503L33.325 7.30603L33.466 7.38703L32.798 7.77603L32.657 7.69503Z" fill="#F2BC36"/>
<path d="M34.8126 8.51218L34.7169 8.56776L34.189 8.26296C34.1453 8.2932 34.1287 8.32955 34.1394 8.36946C34.1501 8.41176 34.1837 8.44805 34.2361 8.47829C34.3199 8.52667 34.4118 8.54848 34.5058 8.54242L34.5001 8.64038C34.354 8.64277 34.2222 8.61012 34.1049 8.54239C34.0106 8.48796 33.9622 8.42388 33.9576 8.34889C33.9551 8.27511 34.0048 8.20739 34.1111 8.14564C34.2151 8.0852 34.3318 8.05619 34.4613 8.05861C34.5908 8.06103 34.7017 8.08881 34.7938 8.14203C34.8839 8.19404 34.9323 8.25573 34.9432 8.32466C34.9518 8.39242 34.9105 8.45528 34.8126 8.51218ZM34.2992 8.19891L34.6847 8.42147C34.7409 8.38879 34.7679 8.35372 34.7614 8.31622C34.7549 8.27873 34.7276 8.24362 34.6773 8.21459C34.6249 8.18435 34.5622 8.16745 34.4891 8.16137C34.4159 8.15535 34.3534 8.16741 34.2992 8.19891ZM29.5741 9.03231C29.5389 9.08187 29.485 9.13023 29.4079 9.17499C29.3309 9.21975 29.258 9.25245 29.1891 9.27302C29.1225 9.29235 29.0578 9.30326 29.0014 9.30447C28.8866 9.30567 28.7883 9.28269 28.7066 9.23552C28.627 9.18956 28.5765 9.1315 28.5616 9.06494L28.7181 9.04683C28.7202 9.06497 28.7309 9.08549 28.7476 9.10732C28.7624 9.13026 28.7813 9.14839 28.8023 9.16048C28.8693 9.19919 28.9403 9.21375 29.0176 9.20525C29.0927 9.198 29.1698 9.17263 29.2468 9.12788C29.2093 9.13028 29.1633 9.12545 29.1132 9.11574C29.0609 9.10728 29.0148 9.09036 28.975 9.06738C28.908 9.02867 28.8744 8.9827 28.872 8.93069C28.8737 8.87872 28.909 8.83148 28.9819 8.78915C29.0567 8.74564 29.1381 8.72509 29.2342 8.72747C29.3261 8.7299 29.4118 8.75286 29.4852 8.79519C29.6067 8.86534 29.6342 8.94402 29.5741 9.03231ZM29.2485 9.05405C29.2987 9.05645 29.3445 9.04681 29.382 9.02502C29.4215 9.00205 29.4402 8.97662 29.4379 8.944C29.4398 8.91135 29.4188 8.88471 29.3748 8.8593C29.3329 8.83511 29.2869 8.82304 29.2367 8.82064C29.1845 8.81942 29.1408 8.83027 29.1012 8.85324C29.0638 8.87503 29.043 8.90165 29.0411 8.92945C29.0392 8.95972 29.0601 8.98636 29.1041 9.01175C29.1481 9.03716 29.1942 9.05162 29.2485 9.05405ZM31.8556 10.3495C31.8204 10.3991 31.7664 10.4474 31.6894 10.4922C31.6124 10.537 31.5394 10.5697 31.4706 10.5902C31.4039 10.6096 31.3392 10.6205 31.2828 10.6217C31.168 10.6229 31.0697 10.5999 30.988 10.5527C30.9084 10.5068 30.858 10.4487 30.843 10.3821L30.9995 10.364C31.0017 10.3822 31.0123 10.4027 31.0291 10.4245C31.0439 10.4475 31.0628 10.4656 31.0838 10.4777C31.1508 10.5164 31.2218 10.5309 31.2991 10.5224C31.3742 10.5152 31.4513 10.4898 31.5283 10.4451C31.4907 10.4475 31.4448 10.4426 31.3946 10.4329C31.3424 10.4245 31.2963 10.4076 31.2565 10.3846C31.1895 10.3459 31.1558 10.2999 31.1534 10.2479C31.1552 10.1959 31.1905 10.1487 31.2633 10.1063C31.3382 10.0628 31.4195 10.0423 31.5156 10.0447C31.6075 10.0471 31.6933 10.0701 31.7666 10.1124C31.8881 10.1826 31.9156 10.2612 31.8556 10.3495ZM31.53 10.3713C31.5802 10.3737 31.626 10.364 31.6635 10.3422C31.703 10.3193 31.7217 10.2938 31.7194 10.2612C31.7213 10.2286 31.6982 10.2007 31.6563 10.1765C31.6144 10.1523 31.5683 10.1403 31.5182 10.1379C31.466 10.1366 31.4223 10.1475 31.3827 10.1705C31.3452 10.1923 31.3224 10.2177 31.3226 10.2467C31.3206 10.2769 31.3416 10.3036 31.3856 10.329C31.4296 10.3544 31.4757 10.3688 31.53 10.3713ZM30.6937 10.1995C30.7147 10.2116 30.7273 10.2261 30.7274 10.2455C30.7275 10.2624 30.7171 10.2782 30.6943 10.2914C30.6734 10.3036 30.6463 10.3096 30.615 10.3108C30.5837 10.3096 30.5565 10.3036 30.5355 10.2915C30.5125 10.2782 30.502 10.2624 30.5019 10.2455C30.5038 10.2274 30.5142 10.2116 30.5351 10.1995C30.5579 10.1862 30.585 10.1802 30.6142 10.1802C30.6456 10.1789 30.6707 10.1862 30.6937 10.1995ZM30.9023 9.79917C30.8693 9.84994 30.8132 9.8971 30.7362 9.94185C30.6592 9.98661 30.5862 10.0193 30.5174 10.0399C30.4507 10.0592 30.3881 10.0713 30.3296 10.0713C30.2148 10.0725 30.1186 10.0508 30.0369 10.0036C29.9552 9.9564 29.9068 9.89957 29.8898 9.83179L30.0484 9.81488C30.0506 9.83302 30.0591 9.85234 30.0758 9.87417C30.0906 9.89711 30.1096 9.91523 30.1305 9.92733C30.1976 9.96604 30.2686 9.9806 30.3479 9.97331C30.423 9.96606 30.498 9.93948 30.5771 9.89594C30.5375 9.89713 30.4936 9.8935 30.4435 9.8838C30.3912 9.87534 30.3452 9.85842 30.3033 9.83423C30.2362 9.79552 30.2026 9.74954 30.2023 9.69875C30.2019 9.64557 30.2373 9.59833 30.3101 9.556C30.385 9.51249 30.4684 9.49314 30.5624 9.49431C30.6564 9.49795 30.7401 9.5197 30.8155 9.56325C30.9349 9.6322 30.9645 9.71209 30.9023 9.79917ZM30.5768 9.82091C30.629 9.82452 30.6748 9.81487 30.7123 9.79309C30.7519 9.77012 30.7685 9.74348 30.7682 9.71207C30.7701 9.67942 30.7471 9.65157 30.7052 9.62738C30.6633 9.60319 30.6151 9.58991 30.5649 9.58751C30.5128 9.58629 30.469 9.59714 30.4295 9.62011C30.392 9.6419 30.3713 9.66851 30.3715 9.69753C30.3674 9.72659 30.3905 9.75443 30.4324 9.77862C30.4764 9.80402 30.5225 9.81848 30.5768 9.82091ZM30.2382 9.41574C30.2052 9.46651 30.1491 9.51366 30.0721 9.55842C29.995 9.60318 29.9221 9.63588 29.8533 9.65645C29.7866 9.67578 29.7219 9.68669 29.6655 9.6879C29.5507 9.6891 29.4524 9.66612 29.3728 9.62016C29.2911 9.57299 29.2427 9.51614 29.2257 9.44837L29.3843 9.43147C29.3844 9.4484 29.395 9.46892 29.4117 9.49075C29.4265 9.51369 29.4455 9.53182 29.4664 9.54391C29.5334 9.58262 29.6044 9.59718 29.6817 9.58868C29.7568 9.58143 29.8339 9.55607 29.9109 9.51131C29.8734 9.51371 29.8295 9.51008 29.7773 9.49917C29.725 9.49071 29.681 9.475 29.6391 9.45081C29.5721 9.41211 29.5385 9.36613 29.5361 9.31412C29.5378 9.26214 29.5731 9.2149 29.646 9.17258C29.7208 9.12907 29.8043 9.10973 29.8983 9.1109C29.9923 9.11454 30.0759 9.13629 30.1514 9.17983C30.2708 9.24877 30.3004 9.32866 30.2382 9.41574ZM29.9126 9.43748C29.9649 9.44109 30.0107 9.43145 30.0482 9.40966C30.0877 9.38669 30.1044 9.36005 30.1041 9.32864C30.1039 9.29478 30.0829 9.26814 30.041 9.24394C29.9991 9.21975 29.951 9.20647 29.9008 9.20407C29.8486 9.20285 29.8049 9.2137 29.7654 9.23667C29.7279 9.25846 29.7071 9.28507 29.7073 9.31409C29.7033 9.34315 29.7243 9.36978 29.7682 9.39518C29.8122 9.42059 29.8584 9.43504 29.9126 9.43748ZM34.6479 9.29714L34.8574 9.4181L33.4857 10.2152L33.2762 10.0943L33.424 10.0084C33.2382 10.0266 33.0731 9.99387 32.9244 9.908C32.7987 9.83543 32.7356 9.74589 32.737 9.63826C32.7363 9.52943 32.8131 9.43142 32.9671 9.34191C33.119 9.25365 33.2901 9.21007 33.478 9.21249C33.6639 9.2137 33.8248 9.25364 33.9568 9.32985C34.0888 9.40605 34.1395 9.50035 34.1088 9.61043L34.6479 9.29714ZM33.4527 9.89708C33.5675 9.89588 33.6738 9.86806 33.7675 9.81366C33.8612 9.75919 33.9109 9.69632 33.9168 9.62737C33.9227 9.55842 33.8847 9.49794 33.803 9.45077C33.7192 9.40239 33.6147 9.38062 33.4915 9.38183C33.3704 9.38425 33.262 9.41325 33.1683 9.46772C33.0747 9.52212 33.027 9.58382 33.0273 9.654C33.0298 9.72294 33.0719 9.78099 33.1536 9.82817C33.2374 9.87655 33.3357 9.89954 33.4527 9.89708Z" fill="#F2BC36"/>
<path d="M33.607 8.69595L32.235 9.49295L32.026 9.37195L33.397 8.57495L33.607 8.69595Z" fill="#F2BC36"/>
<path d="M32.4914 8.65495C32.4919 8.7687 32.4215 8.86788 32.28 8.95011C32.1385 9.03234 31.9675 9.07346 31.7711 9.0735C31.5749 9.07348 31.4013 9.02873 31.2526 8.94285C31.1038 8.85697 31.0281 8.75778 31.0253 8.6429C31.0248 8.52915 31.0952 8.42997 31.2367 8.34774C31.3782 8.26551 31.5492 8.22439 31.7455 8.22435C31.9439 8.22558 32.1174 8.26793 32.2662 8.35381C32.4149 8.43969 32.4907 8.54128 32.4914 8.65495ZM31.7515 8.91261C31.8684 8.91262 31.9747 8.8848 32.0705 8.82915C32.1663 8.7735 32.2139 8.71181 32.2156 8.6429C32.2153 8.57511 32.171 8.51345 32.081 8.46144C31.9909 8.40943 31.8843 8.384 31.7673 8.38406C31.6483 8.38524 31.5419 8.41306 31.4462 8.46871C31.3504 8.52436 31.3027 8.58605 31.3031 8.65378C31.3015 8.72269 31.3456 8.78441 31.4357 8.83642C31.5258 8.88843 31.6325 8.91379 31.7515 8.91261ZM31.3486 7.44782C31.5371 7.55668 31.6381 7.67762 31.6534 7.81192L31.3696 7.84091C31.363 7.78648 31.3419 7.74053 31.3061 7.70064C31.2705 7.66069 31.22 7.62203 31.1509 7.58211C31.0189 7.50591 30.8684 7.46716 30.693 7.46476C30.5197 7.46111 30.3632 7.50108 30.2259 7.58087C30.0884 7.66073 30.0221 7.75025 30.0248 7.8482C30.0296 7.94737 30.0926 8.03206 30.2162 8.10342C30.3399 8.17478 30.4696 8.2183 30.6055 8.23643L30.9614 8.0296L31.1814 8.1566L30.738 8.41424C30.4812 8.42031 30.2386 8.35742 30.0102 8.22559C29.8175 8.11431 29.7186 7.98489 29.7157 7.83852C29.7127 7.68977 29.806 7.56033 29.9975 7.44903C30.1911 7.33655 30.4163 7.28093 30.6773 7.28212C30.9362 7.28457 31.1621 7.34017 31.3486 7.44782Z" fill="#F2BC36"/>
<path d="M20.083 13.229L19.066 13.82L18.903 13.726L19.766 13.224L19.559 13.104L19.713 13.015L20.083 13.229Z" fill="#F2BC36"/>
<path d="M21.885 13.242L21.404 13.521L21.316 13.47L21.394 13.108L21.042 13.312L20.96 13.265L21.441 12.985L21.523 13.033L21.445 13.403L21.803 13.194L21.885 13.242Z" fill="#F2BC36"/>
<path d="M20.9254 13.8531C20.8997 13.9482 20.8067 14.0422 20.6464 14.1354C20.4861 14.2286 20.3239 14.2828 20.1599 14.298C19.9942 14.3141 19.8414 14.2809 19.7014 14.2001C19.5631 14.1202 19.5052 14.0318 19.5325 13.9358C19.5582 13.8408 19.6513 13.7466 19.8116 13.6535C19.9719 13.5603 20.1341 13.5061 20.2981 13.4909C20.4638 13.4747 20.6166 13.508 20.7549 13.5879C20.8948 13.6687 20.9528 13.7571 20.9254 13.8531ZM20.141 14.164C20.2509 14.1459 20.3623 14.1041 20.4768 14.0375C20.5914 13.9709 20.6632 13.9063 20.6924 13.8436C20.7231 13.7799 20.695 13.7238 20.6077 13.6734C20.5221 13.624 20.4251 13.6078 20.3136 13.6249C20.2037 13.643 20.0908 13.6839 19.9779 13.7495C19.865 13.8151 19.7948 13.8807 19.764 13.9443C19.7348 14.009 19.763 14.0651 19.8487 14.1145C19.9359 14.1649 20.0328 14.1811 20.141 14.164ZM23.6793 15.587L23.844 15.6821L23.17 16.0738C23.0325 16.1536 22.8916 16.1917 22.7504 16.1879C22.606 16.1841 22.4762 16.1489 22.3593 16.0814C22.2424 16.0139 22.173 15.9321 22.1511 15.8342L22.3511 15.8076C22.3696 15.8846 22.4192 15.9454 22.4966 15.9901C22.574 16.0348 22.6562 16.0595 22.74 16.0623C22.8269 16.0652 22.9105 16.0414 22.9988 15.9901L23.097 15.9331C23.0281 15.9464 22.9575 15.9474 22.8836 15.9369C22.8113 15.9255 22.7473 15.9036 22.6913 15.8713C22.5875 15.8114 22.5395 15.742 22.5424 15.6621C22.5485 15.5823 22.6056 15.511 22.7119 15.4492C22.8182 15.3874 22.941 15.3542 23.0773 15.3513C23.2168 15.3484 23.3368 15.376 23.4405 15.4359C23.5426 15.4948 23.584 15.5681 23.5648 15.6536L23.6793 15.587ZM23.0932 15.8551C23.1786 15.8532 23.2556 15.8332 23.3226 15.7943C23.3881 15.7562 23.424 15.7106 23.4286 15.6602C23.4316 15.6089 23.4001 15.5642 23.3343 15.5262C23.2684 15.4882 23.1928 15.4711 23.1058 15.4758C23.0189 15.4806 22.9435 15.5015 22.8797 15.5386C22.816 15.5756 22.7817 15.6184 22.7738 15.6688C22.7675 15.7182 22.7973 15.7619 22.8648 15.8009C22.9307 15.8389 23.0079 15.857 23.0932 15.8551ZM22.9391 15.0157C22.9134 15.1108 22.8205 15.2049 22.6601 15.2981C22.4998 15.3912 22.3376 15.4454 22.1736 15.4606C22.0079 15.4768 21.8551 15.4435 21.7151 15.3627C21.5768 15.2829 21.5189 15.1944 21.5462 15.0984C21.572 15.0034 21.665 14.9092 21.8253 14.8161C21.9857 14.7229 22.1478 14.6687 22.3118 14.6535C22.4775 14.6373 22.6303 14.6706 22.7686 14.7505C22.9086 14.8313 22.9665 14.9197 22.9391 15.0157ZM22.1548 15.3266C22.2647 15.3085 22.376 15.2667 22.4905 15.2002C22.6051 15.1336 22.6769 15.0689 22.7061 15.0062C22.7369 14.9425 22.7087 14.8864 22.6215 14.836C22.5358 14.7866 22.4388 14.7705 22.3274 14.7876C22.2175 14.8056 22.1045 14.8465 21.9916 14.9121C21.8787 14.9777 21.8085 15.0433 21.7778 15.107C21.7485 15.1716 21.7768 15.2277 21.8624 15.2772C21.9496 15.3275 22.0466 15.3437 22.1548 15.3266Z" fill="#F2BC36"/>
<path d="M24.131 14.539L24.058 14.581L23.911 14.497L23.504 14.733L23.423 14.687L23.83 14.45L23.684 14.365L23.758 14.323L24.131 14.539Z" fill="#F2BC36"/>
<path d="M23.728 14.306L23.077 14.487L22.997 14.441L23.225 14.19L23.22 14.187L22.788 14.32L22.707 14.273L23.02 13.897L23.107 13.947L22.884 14.218L23.336 14.079L23.41 14.122L23.172 14.385L23.639 14.254L23.728 14.306Z" fill="#F2BC36"/>
<path d="M22.801 13.77L22.727 13.813L22.581 13.729L22.173 13.965L22.091 13.918L22.498 13.681L22.352 13.596L22.425 13.554L22.801 13.77Z" fill="#F2BC36"/>
<path d="M21.9315 14.4339C21.9057 14.529 21.8128 14.623 21.6524 14.7162C21.4921 14.8094 21.3299 14.8636 21.1659 14.8788C21.0003 14.8949 20.8491 14.8626 20.7091 14.7818C20.5691 14.701 20.5129 14.6135 20.5402 14.5175C20.5659 14.4225 20.659 14.3284 20.8193 14.2352C20.9796 14.142 21.1417 14.0879 21.3058 14.0727C21.4715 14.0565 21.6226 14.0888 21.7626 14.1696C21.9025 14.2504 21.9589 14.3379 21.9315 14.4339ZM21.1471 14.7448C21.257 14.7267 21.3683 14.6849 21.4828 14.6183C21.5974 14.5517 21.6692 14.4871 21.6984 14.4244C21.7292 14.3607 21.701 14.3046 21.6154 14.2551C21.5298 14.2057 21.4311 14.1886 21.3213 14.2067C21.2098 14.2238 21.0985 14.2656 20.9856 14.3312C20.8727 14.3969 20.8008 14.4615 20.7717 14.5261C20.7409 14.5898 20.7707 14.6468 20.8563 14.6963C20.942 14.7457 21.0389 14.7619 21.1471 14.7448Z" fill="#F2BC36"/>
<path d="M22.358 13.515L22.281 13.559L22.024 13.411L21.898 13.484L22.129 13.617L22.057 13.659L21.826 13.526L21.697 13.601L21.962 13.754L21.885 13.799L21.538 13.598L22.019 13.319L22.358 13.515Z" fill="#F2BC36"/>
<path d="M37.16 9.43093L37.326 9.98893L36.984 9.51793L36.372 10.6449L36.572 9.37893L36.015 9.54393L36.485 9.20193L35.358 8.59093L36.624 8.79093L36.459 8.23293L36.801 8.70293L37.413 7.57593L37.213 8.84293L37.77 8.67793L37.3 9.01993L38.427 9.63093L37.16 9.43093Z" fill="white"/>
<path d="M23.555 17.7519L23.636 18.0259L23.468 17.7949L23.168 18.3489L23.266 17.7269L22.992 17.8079L23.223 17.6399L22.669 17.3389L23.292 17.4379L23.21 17.1639L23.378 17.3949L23.679 16.8409L23.58 17.4629L23.854 17.3819L23.623 17.5499L24.177 17.8509L23.555 17.7519Z" fill="white"/>
</svg>
