<svg xmlns="http://www.w3.org/2000/svg" data-name="Layer 1" viewBox="0 0 32 32"><path fill="#82c8ec" d="M23.787 23.866a2.613 2.613 0 011.338-.366h3.75a2.625 2.625 0 012.625 2.625V30.5a1 1 0 01-1 1h-7"/><path fill="#fbde53" d="M8.5 31.5h-7a1 1 0 01-1-1v-4.375A2.625 2.625 0 013.125 23.5h3.75a2.613 2.613 0 011.341.368"/><path fill="#ed456a" d="M17.916 20a6.389 6.389 0 016.389 6.389v2.555A2.556 2.556 0 0121.75 31.5h-11.5a2.556 2.556 0 01-2.556-2.556v-2.555A6.389 6.389 0 0114.084 20"/><path fill="#ffd9aa" d="M17.917 16.444v2.917A1.917 1.917 0 0116 21.278a1.917 1.917 0 01-1.917-1.917v-2.917z"/><circle cx="16" cy="12.972" r="4.472" fill="#57565d"/><path fill="#ffd9aa" d="M20.325 12.473l-4.331-1.23a2 2 0 00-1.295.069l-2.879 1.161-.258.158c-.009.115-.034.224-.034.341a4.472 4.472 0 108.944 0 4.391 4.391 0 00-.046-.454zM28.5 20.5V23a1.5 1.5 0 01-1.5 1.5 1.5 1.5 0 01-1.5-1.5v-2.5z"/><circle cx="27" cy="18" r="3.5" fill="#57565d"/><path fill="#ffd9aa" d="M30.142 17.54l-3-.853a2 2 0 00-1.295.069l-2.057.83-.255.1c-.009.1-.031.206-.031.313a3.5 3.5 0 007 0c0-.116-.023-.225-.034-.338z"/><circle cx="5" cy="18" r="3.5" fill="#57565d"/><path fill="#ffd9aa" d="M5.5 17.09a9.6 9.6 0 01-3.991.82c0 .031-.009.059-.009.09a3.5 3.5 0 007 0c0-.057-.014-.11-.017-.167A8.352 8.352 0 015.5 17.09z"/><path fill="#57565d" d="M1.8 16.1a2.027 2.027 0 01-.8-1.6 2 2 0 013.93-.5"/><path fill="#ffd9aa" d="M6.5 20.5V23A1.5 1.5 0 015 24.5 1.5 1.5 0 013.5 23v-2.5z"/><path d="M29 23.013V21.5a.474.474 0 00-.01-.051 3.982 3.982 0 00-1.241-7.373A.486.486 0 0027.5 14h-.26a.471.471 0 00-.08.016c-.054 0-.105-.016-.16-.016a3.987 3.987 0 00-1.99 7.449.474.474 0 00-.01.051v1.517a3.1 3.1 0 00-.972.209 6.892 6.892 0 00-5.629-3.7c0-.055.016-.107.016-.163v-1.919a.487.487 0 00-.028-.139 4.972 4.972 0 10-4.777 0 .487.487 0 00-.028.139v1.917c0 .056.013.108.016.163a6.892 6.892 0 00-5.629 3.7A3.1 3.1 0 007 23.017V21.5a.474.474 0 00-.01-.051A3.987 3.987 0 009 18c0-.031-.009-.061-.009-.092 0-.007.006-.013.006-.02a.489.489 0 00-.031-.22 3.98 3.98 0 00-3.543-3.624.491.491 0 00-.009-.167 2.495 2.495 0 10-4.056 2.489 3.965 3.965 0 00-.343 1.48.473.473 0 00-.015.082v.016c0 .019-.006.037-.006.056a3.987 3.987 0 002.01 3.449A.474.474 0 003 21.5v1.513a3.122 3.122 0 00-3 3.112V30.5A1.5 1.5 0 001.5 32h7a.5.5 0 00.456-.3 3.022 3.022 0 001.294.3h11.5a3.022 3.022 0 001.294-.3.5.5 0 00.456.3h7a1.5 1.5 0 001.5-1.5v-4.375a3.122 3.122 0 00-3-3.112zM27 15a3 3 0 012.791 1.921l-2.516-.715a2.513 2.513 0 00-1.618.086l-1.432.578A3 3 0 0127 15zm-3 3.038l2.027-.817a1.516 1.516 0 01.973-.053l3 .851a3 3 0 01-6 .019zm4 3.82V23a1 1 0 01-2 0v-1.142a3.591 3.591 0 002 0zM16 9a3.964 3.964 0 013.774 2.8l-3.644-1.038a2.522 2.522 0 00-1.618.086l-2.277.918A3.964 3.964 0 0116 9zm-3.972 3.972v-.046l2.854-1.151a1.517 1.517 0 01.971-.052l4.106 1.166c0 .028.008.054.008.082a3.972 3.972 0 01-7.944 0zm5.389 4.742v1.648a1.417 1.417 0 01-2.833 0v-1.648a4.467 4.467 0 002.833 0zM5 15a3 3 0 012.895 2.254 6.566 6.566 0 01-2.133-.59.5.5 0 00-.522 0 8.3 8.3 0 01-3.173.716A3 3 0 015 15zm-3.5-.5A1.5 1.5 0 013 13a1.487 1.487 0 011.417 1.059A3.975 3.975 0 001.9 15.505a1.494 1.494 0 01-.4-1.005zm.539 3.882a10.24 10.24 0 003.461-.726 9.313 9.313 0 002.471.619 2.984 2.984 0 01-5.934.107zM6 21.858V23a1 1 0 01-2 0v-1.142A3.954 3.954 0 005 22a3.954 3.954 0 001-.142zM1.5 31a.5.5 0 01-.5-.5v-4.375A2.127 2.127 0 013.125 24h.153a1.982 1.982 0 003.459-.028.487.487 0 00.138.028 2.114 2.114 0 01.705.136 6.845 6.845 0 00-.386 2.253v2.555A3.034 3.034 0 008 31zm22.306-2.056A2.058 2.058 0 0121.75 31h-11.5a2.058 2.058 0 01-2.056-2.056v-2.555a5.892 5.892 0 015.693-5.879 2.394 2.394 0 004.226 0 5.892 5.892 0 015.693 5.879zM31 30.5a.5.5 0 01-.5.5H24a3.034 3.034 0 00.81-2.056v-2.555a6.845 6.845 0 00-.386-2.253 2.113 2.113 0 01.701-.136h.153a1.982 1.982 0 003.459-.028.487.487 0 00.138.028A2.127 2.127 0 0131 26.125z"/></svg>