<svg width="67" height="67" viewBox="0 0 67 67" fill="none" xmlns="http://www.w3.org/2000/svg">
<path d="M59.2119 26.4974L64.243 32.5226C64.7079 33.0793 64.7079 33.8887 64.243 34.4454L59.2119 40.4706C58.449 41.3843 58.0791 42.5631 58.1833 43.7489L58.8836 51.7154C58.9487 52.4563 58.4611 53.133 57.7377 53.3057L50.5335 55.0258C49.3173 55.3162 48.2768 56.0995 47.6614 57.1879L43.8973 63.8448C43.5155 64.5201 42.6816 64.7929 41.9745 64.4737L35.3555 61.4861C34.1748 60.9532 32.8217 60.9549 31.6424 61.4909L25.0255 64.498C24.3179 64.8195 23.4818 64.5473 23.0992 63.8707L19.3386 57.2199C18.7232 56.1315 17.6827 55.3482 16.4665 55.0578L9.2617 53.3376C8.53843 53.1649 8.05084 52.4884 8.11578 51.7476L8.81701 43.7482C8.92092 42.5627 8.55106 41.3844 7.78834 40.4709L2.75409 34.442C2.2899 33.8861 2.28919 33.0779 2.75239 32.5212L7.79344 26.4623C8.55301 25.5494 8.92091 24.3732 8.81692 23.1902L8.11704 15.2278C8.05179 14.4853 8.54155 13.8076 9.26696 13.6365L16.4569 11.9408C17.678 11.6528 18.7235 10.868 19.3411 9.77584L23.1027 3.12319C23.4845 2.44785 24.3184 2.17513 25.0255 2.49431L31.6487 5.48379C32.8257 6.01505 34.1743 6.01505 35.3513 5.48379L41.9745 2.49431C42.6816 2.17513 43.5155 2.44785 43.8973 3.12319L47.6614 9.78012C48.2768 10.8685 49.3173 11.6518 50.5335 11.9422L57.7377 13.6623C58.4611 13.835 58.9487 14.5117 58.8836 15.2526L58.1833 23.2191C58.0791 24.4049 58.449 25.5837 59.2119 26.4974Z" stroke="#8E5DFF" stroke-width="3"/>
<path d="M49.0001 46.8571H39.8574V17.1431H49.0001V46.8571ZM42.1431 44.5714H46.7144V19.4288H42.1431V44.5714Z" fill="#8E5DFF"/>
<path d="M37.5715 46.8571H28.4287V26.2859H37.5715V46.8571ZM30.7144 44.5714H35.2858V28.5716H30.7144V44.5714Z" fill="#8E5DFF"/>
<path d="M26.143 46.857H17.0002V33.1428H26.143V46.857Z" fill="#8E5DFF"/>
</svg>
