<svg width="67" height="67" viewBox="0 0 67 67" fill="none" xmlns="http://www.w3.org/2000/svg">
<path d="M59.2119 26.4974L64.243 32.5226C64.7079 33.0793 64.7079 33.8887 64.243 34.4454L59.2119 40.4706C58.449 41.3843 58.0791 42.5631 58.1833 43.7489L58.8836 51.7154C58.9487 52.4563 58.4611 53.133 57.7377 53.3057L50.5335 55.0258C49.3173 55.3162 48.2768 56.0995 47.6614 57.1879L43.8973 63.8448C43.5155 64.5201 42.6816 64.7929 41.9745 64.4737L35.3555 61.4861C34.1748 60.9532 32.8217 60.9549 31.6424 61.4909L25.0255 64.498C24.3179 64.8195 23.4818 64.5473 23.0992 63.8707L19.3386 57.2199C18.7232 56.1315 17.6827 55.3482 16.4665 55.0578L9.2617 53.3376C8.53843 53.1649 8.05084 52.4884 8.11578 51.7476L8.81701 43.7482C8.92092 42.5627 8.55106 41.3844 7.78834 40.4709L2.75409 34.442C2.2899 33.8861 2.28919 33.0779 2.75239 32.5212L7.79344 26.4623C8.55301 25.5494 8.92091 24.3732 8.81692 23.1902L8.11704 15.2278C8.05179 14.4853 8.54155 13.8076 9.26696 13.6365L16.4569 11.9408C17.678 11.6528 18.7235 10.868 19.3411 9.77584L23.1027 3.12319C23.4845 2.44785 24.3184 2.17513 25.0255 2.49431L31.6487 5.48379C32.8257 6.01505 34.1743 6.01505 35.3513 5.48379L41.9745 2.49431C42.6816 2.17513 43.5155 2.44785 43.8973 3.12319L47.6614 9.78012C48.2768 10.8685 49.3173 11.6518 50.5335 11.9422L57.7377 13.6623C58.4611 13.835 58.9487 14.5117 58.8836 15.2526L58.1833 23.2191C58.0791 24.4049 58.449 25.5837 59.2119 26.4974Z" stroke="#8E5DFF" stroke-width="3"/>
<path d="M45.1842 20.5C44.1724 20.5008 43.2024 20.8961 42.4869 21.5992C41.7715 22.3023 41.3692 23.2557 41.3684 24.25C41.3684 24.7855 41.4875 25.294 41.6951 25.7575L38.7111 29.056C37.6974 28.3684 36.4949 28.0001 35.2632 28C34.1337 28 33.0897 28.324 32.1815 28.849L28.7107 25.4395L28.6756 25.474C28.9747 24.877 29.1579 24.2125 29.1579 23.5C29.1579 22.61 28.8893 21.74 28.3862 20.9999C27.8831 20.2599 27.1679 19.6831 26.3312 19.3425C25.4945 19.0019 24.5739 18.9128 23.6856 19.0865C22.7974 19.2601 21.9815 19.6887 21.3411 20.318C20.7008 20.9474 20.2647 21.7492 20.088 22.6221C19.9113 23.495 20.002 24.3998 20.3486 25.2221C20.6951 26.0443 21.282 26.7471 22.035 27.2416C22.788 27.7361 23.6733 28 24.5789 28C25.3039 28 25.9786 27.82 26.5876 27.526L26.5525 27.5605L30.0233 30.97C29.4626 31.885 29.1636 32.9319 29.1579 34C29.1579 35.4955 29.7379 36.8485 30.6613 37.9015L26.728 41.7655C26.2872 41.5921 25.817 41.502 25.3421 41.5C23.2388 41.5 21.5263 43.1815 21.5263 45.25C21.5263 47.3185 23.2388 49 25.3421 49C27.4454 49 29.1579 47.3185 29.1579 45.25C29.1579 44.7685 29.0572 44.311 28.8877 43.8865L33.2194 39.6295C33.862 39.8545 34.5427 40 35.2632 40C38.6302 40 41.3684 37.309 41.3684 34C41.3684 33.046 41.1196 32.1565 40.7152 31.354L43.9464 27.7795C44.3371 27.9115 44.7492 28 45.1842 28C47.289 28 49 26.3185 49 24.25C49 22.1815 47.289 20.5 45.1842 20.5ZM35.2632 37C33.5796 37 32.2105 35.6545 32.2105 34C32.2105 32.3455 33.5796 31 35.2632 31C36.9467 31 38.3158 32.3455 38.3158 34C38.3158 35.6545 36.9467 37 35.2632 37Z" fill="#8E5DFF"/>
</svg>
