<svg width="67" height="67" viewBox="0 0 67 67" fill="none" xmlns="http://www.w3.org/2000/svg">
<path d="M59.2119 26.4974L64.243 32.5226C64.7079 33.0793 64.7079 33.8887 64.243 34.4454L59.2119 40.4706C58.449 41.3843 58.0791 42.5631 58.1833 43.7489L58.8836 51.7154C58.9487 52.4563 58.4611 53.133 57.7377 53.3057L50.5335 55.0258C49.3173 55.3162 48.2768 56.0995 47.6614 57.1879L43.8973 63.8448C43.5155 64.5201 42.6816 64.7929 41.9745 64.4737L35.3555 61.4861C34.1748 60.9532 32.8217 60.9549 31.6424 61.4909L25.0255 64.498C24.3179 64.8195 23.4818 64.5473 23.0992 63.8707L19.3386 57.2199C18.7232 56.1315 17.6827 55.3482 16.4665 55.0578L9.2617 53.3376C8.53843 53.1649 8.05084 52.4884 8.11578 51.7476L8.81701 43.7482C8.92092 42.5627 8.55106 41.3844 7.78834 40.4709L2.75409 34.442C2.2899 33.8861 2.28919 33.0779 2.75239 32.5212L7.79344 26.4623C8.55301 25.5494 8.92091 24.3732 8.81692 23.1902L8.11704 15.2278C8.05179 14.4853 8.54155 13.8076 9.26696 13.6365L16.4569 11.9408C17.678 11.6528 18.7235 10.868 19.3411 9.77584L23.1027 3.12319C23.4845 2.44785 24.3184 2.17513 25.0255 2.49431L31.6487 5.48379C32.8257 6.01505 34.1743 6.01505 35.3513 5.48379L41.9745 2.49431C42.6816 2.17513 43.5155 2.44785 43.8973 3.12319L47.6614 9.78012C48.2768 10.8685 49.3173 11.6518 50.5335 11.9422L57.7377 13.6623C58.4611 13.835 58.9487 14.5117 58.8836 15.2526L58.1833 23.2191C58.0791 24.4049 58.449 25.5837 59.2119 26.4974Z" stroke="#8E5DFF" stroke-width="3"/>
<path d="M37.6471 41.1177C40.0837 41.1177 42.0589 39.1425 42.0589 36.706C42.0589 34.2694 40.0837 32.2942 37.6471 32.2942C35.2105 32.2942 33.2353 34.2694 33.2353 36.706C33.2353 39.1425 35.2105 41.1177 37.6471 41.1177Z" stroke="#8E5DFF" stroke-width="2" stroke-linecap="round" stroke-linejoin="round"/>
<path d="M34.706 40.3823V47L37.6471 44.7941L40.5883 47V40.3823" stroke="#8E5DFF" stroke-width="2" stroke-linecap="round" stroke-linejoin="round"/>
<path d="M30.2941 42.5883H22.9412C22.1611 42.5883 21.413 42.2784 20.8615 41.7268C20.3099 41.1752 20 40.4271 20 39.6471V24.9412C20 23.3235 21.3235 22 22.9412 22H43.5295C44.3095 22 45.0576 22.3099 45.6092 22.8615C46.1608 23.413 46.4706 24.1611 46.4706 24.9412V39.6471C46.4701 40.1629 46.334 40.6694 46.0758 41.116C45.8177 41.5625 45.4467 41.9333 45.0001 42.1912" stroke="#8E5DFF" stroke-width="2" stroke-linecap="round" stroke-linejoin="round"/>
<path d="M24.4117 27.8823H42.0588" stroke="#8E5DFF" stroke-width="2" stroke-linecap="round" stroke-linejoin="round"/>
<path d="M24.4117 32.2942H28.8235" stroke="#8E5DFF" stroke-width="2" stroke-linecap="round" stroke-linejoin="round"/>
<path d="M24.4117 36.7058H27.3529" stroke="#8E5DFF" stroke-width="2" stroke-linecap="round" stroke-linejoin="round"/>
</svg>
