<svg width="67" height="67" viewBox="0 0 67 67" fill="none" xmlns="http://www.w3.org/2000/svg">
<path d="M59.2119 26.4974L64.243 32.5226C64.7079 33.0793 64.7079 33.8887 64.243 34.4454L59.2119 40.4706C58.449 41.3843 58.0791 42.5631 58.1833 43.7489L58.8836 51.7154C58.9487 52.4563 58.4611 53.133 57.7377 53.3057L50.5335 55.0258C49.3173 55.3162 48.2768 56.0995 47.6614 57.1879L43.8973 63.8448C43.5155 64.5201 42.6816 64.7929 41.9745 64.4737L35.3555 61.4861C34.1748 60.9532 32.8217 60.9549 31.6424 61.4909L25.0255 64.498C24.3179 64.8195 23.4818 64.5473 23.0992 63.8707L19.3386 57.2199C18.7232 56.1315 17.6827 55.3482 16.4665 55.0578L9.2617 53.3376C8.53843 53.1649 8.05084 52.4884 8.11578 51.7476L8.81701 43.7482C8.92092 42.5627 8.55106 41.3844 7.78834 40.4709L2.75409 34.442C2.2899 33.8861 2.28919 33.0779 2.75239 32.5212L7.79344 26.4623C8.55301 25.5494 8.92091 24.3732 8.81692 23.1902L8.11704 15.2278C8.05179 14.4853 8.54155 13.8076 9.26696 13.6365L16.4569 11.9408C17.678 11.6528 18.7235 10.868 19.3411 9.77584L23.1027 3.12319C23.4845 2.44785 24.3184 2.17513 25.0255 2.49431L31.6487 5.48379C32.8257 6.01505 34.1743 6.01505 35.3513 5.48379L41.9745 2.49431C42.6816 2.17513 43.5155 2.44785 43.8973 3.12319L47.6614 9.78012C48.2768 10.8685 49.3173 11.6518 50.5335 11.9422L57.7377 13.6623C58.4611 13.835 58.9487 14.5117 58.8836 15.2526L58.1833 23.2191C58.0791 24.4049 58.449 25.5837 59.2119 26.4974Z" stroke="#8E5DFF" stroke-width="3"/>
<path d="M44.1434 36.5714H37.2863V34.2856H44.1434V36.5714Z" fill="#8E5DFF"/>
<path d="M48.7148 45.7142H41.8577V43.4285H48.7148V45.7142Z" fill="#8E5DFF"/>
<path d="M46.4291 41.1429H39.572V38.8572H46.4291V41.1429Z" fill="#8E5DFF"/>
<path d="M33.861 36.5714C33.853 35.6071 33.5958 34.6612 33.1144 33.8256C32.633 32.99 31.9438 32.293 31.1136 31.8023L39.5719 17.1429L37.5947 16L28.9353 31.0011C27.8726 30.7637 26.7672 30.7966 25.7205 31.0966C24.6737 31.3967 23.7189 31.9545 22.9433 32.7189C18.6644 36.8457 18.9959 46.4937 19.0119 46.9029C19.0237 47.198 19.1493 47.477 19.3623 47.6816C19.5754 47.8861 19.8594 48.0002 20.1547 48H37.2873C37.5272 48 37.7609 47.9245 37.9555 47.7843C38.1501 47.644 38.2957 47.4461 38.3715 47.2185C38.4474 46.991 38.4497 46.7453 38.3782 46.5164C38.3066 46.2874 38.1649 46.0868 37.973 45.9429C33.9273 42.9074 33.861 36.6331 33.861 36.5714ZM28.0633 33.1394C28.978 33.1495 29.8536 33.5118 30.508 34.1511C31.1623 34.7903 31.545 35.6572 31.5764 36.5714C31.5764 36.6149 31.5787 36.8091 31.5959 37.1074L24.853 34.1086C25.2972 33.7423 25.8097 33.468 26.3608 33.3016C26.912 33.1353 27.4907 33.0801 28.0633 33.1394V33.1394ZM32.0862 45.7143C31.1727 44.7841 30.5904 43.5794 30.429 42.2857H28.1433C28.2251 43.502 28.6051 44.6795 29.2496 45.7143H26.709C26.239 44.2311 25.9531 42.6958 25.8576 41.1429H23.5719C23.6456 42.6911 23.9006 44.2254 24.3319 45.7143H21.2862C21.3216 43.616 21.6176 38.9806 23.3467 35.9394L31.9559 39.768C32.3695 41.9158 33.2514 43.946 34.5387 45.7143H32.0862Z" fill="#8E5DFF"/>
</svg>
