<svg width="67" height="67" viewBox="0 0 67 67" fill="none" xmlns="http://www.w3.org/2000/svg">
<path d="M59.2119 26.4974L64.243 32.5226C64.7079 33.0793 64.7079 33.8887 64.243 34.4454L59.2119 40.4706C58.449 41.3843 58.0791 42.5631 58.1833 43.7489L58.8836 51.7154C58.9487 52.4563 58.4611 53.133 57.7377 53.3057L50.5335 55.0258C49.3173 55.3162 48.2768 56.0995 47.6614 57.1879L43.8973 63.8448C43.5155 64.5201 42.6816 64.7929 41.9745 64.4737L35.3555 61.4861C34.1748 60.9532 32.8217 60.9549 31.6424 61.4909L25.0255 64.498C24.3179 64.8195 23.4818 64.5473 23.0992 63.8707L19.3386 57.2199C18.7232 56.1315 17.6827 55.3482 16.4665 55.0578L9.2617 53.3376C8.53843 53.1649 8.05084 52.4884 8.11578 51.7476L8.81701 43.7482C8.92092 42.5627 8.55106 41.3844 7.78834 40.4709L2.75409 34.442C2.2899 33.8861 2.28919 33.0779 2.75239 32.5212L7.79344 26.4623C8.55301 25.5494 8.92091 24.3732 8.81692 23.1902L8.11704 15.2278C8.05179 14.4853 8.54155 13.8076 9.26696 13.6365L16.4569 11.9408C17.678 11.6528 18.7235 10.868 19.3411 9.77584L23.1027 3.12319C23.4845 2.44785 24.3184 2.17513 25.0255 2.49431L31.6487 5.48379C32.8257 6.01505 34.1743 6.01505 35.3513 5.48379L41.9745 2.49431C42.6816 2.17513 43.5155 2.44785 43.8973 3.12319L47.6614 9.78012C48.2768 10.8685 49.3173 11.6518 50.5335 11.9422L57.7377 13.6623C58.4611 13.835 58.9487 14.5117 58.8836 15.2526L58.1833 23.2191C58.0791 24.4049 58.449 25.5837 59.2119 26.4974Z" stroke="#8E5DFF" stroke-width="3"/>
<path d="M18.4081 49.1002H43.3996C43.5618 49.1002 43.7155 49.0201 43.8268 48.9088C43.938 48.7976 44.0181 48.6438 44.0181 48.4817V43.6597C44.0181 43.4814 43.9582 43.325 43.8462 43.213C43.7342 43.101 43.5779 43.0412 43.3996 43.0412C43.2213 43.0412 43.065 43.101 42.953 43.213C42.841 43.325 42.7811 43.4814 42.7811 43.6597V47.8632H19.0266V19.1311H42.7811V32.6676C42.7811 32.8458 42.841 33.0022 42.953 33.1142C43.065 33.2262 43.2213 33.286 43.3996 33.286C43.5779 33.286 43.7342 33.2262 43.8462 33.1142C43.9582 33.0022 44.0181 32.8458 44.0181 32.6676V18.5126C44.0181 18.3344 43.9582 18.178 43.8462 18.066C43.7342 17.954 43.5779 17.8941 43.3996 17.8941H18.4081C18.2299 17.8941 18.0735 17.954 17.9615 18.066C17.8495 18.178 17.7896 18.3344 17.7896 18.5126V48.4817C17.7896 48.6599 17.8495 48.8163 17.9615 48.9283C18.0735 49.0403 18.2299 49.1002 18.4081 49.1002Z" fill="#8E5DFF" stroke="#8E5DFF" stroke-width="0.2"/>
<path d="M23.206 25.5191L23.2059 25.5187L23.1978 25.5215C21.1872 26.2093 19.8637 28.062 19.8637 30.1788C19.8637 30.3571 19.9236 30.5134 20.0356 30.6255C20.1476 30.7375 20.3039 30.7973 20.4822 30.7973H29.0892C29.4537 30.7973 29.7138 30.4924 29.6558 30.1694C29.6519 28.0565 28.3294 26.2083 26.3217 25.5215L26.3218 25.5211L26.3136 25.5191C26.1946 25.4893 26.0712 25.4883 25.9531 25.5277C25.8352 25.567 25.7289 25.6444 25.6406 25.7613C25.401 26.0477 25.0672 26.1901 24.7338 26.1901C24.3993 26.1901 24.0728 26.0476 23.8869 25.7727C23.7515 25.5107 23.4342 25.462 23.206 25.5191ZM22.3525 22.9199C22.3525 24.2714 23.4342 25.3531 24.7857 25.3531C26.1372 25.3531 27.2189 24.2714 27.2189 22.9199C27.2189 21.5684 26.1372 20.4867 24.7857 20.4867C23.4342 20.4867 22.3525 21.5684 22.3525 22.9199ZM23.5895 22.868C23.5895 22.1974 24.115 21.6718 24.7857 21.6718C25.4538 21.6718 25.9819 22.2466 25.9819 22.868C25.9819 23.5387 25.4564 24.0643 24.7857 24.0643C24.115 24.0643 23.5895 23.5387 23.5895 22.868ZM28.4561 29.5603H21.167C21.3481 28.3678 22.1172 27.3255 23.2562 26.8248C23.643 27.2296 24.2182 27.4271 24.7857 27.4271C25.4083 27.4271 25.936 27.2264 26.3623 26.8238C27.4584 27.325 28.2724 28.3692 28.4561 29.5603Z" fill="#8E5DFF" stroke="#8E5DFF" stroke-width="0.2"/>
<path d="M32.252 22.4495H40.2369C40.5447 22.4495 40.8553 22.2037 40.8553 21.831C40.8553 21.6527 40.7955 21.4964 40.6835 21.3844C40.5715 21.2724 40.4151 21.2125 40.2369 21.2125H32.252C32.0738 21.2125 31.9174 21.2724 31.8054 21.3844C31.6934 21.4964 31.6335 21.6527 31.6335 21.831C31.6335 22.0093 31.6934 22.1656 31.8054 22.2776C31.9174 22.3896 32.0738 22.4495 32.252 22.4495ZM32.252 26.4419H40.2369C40.5447 26.4419 40.8553 26.1961 40.8553 25.8234C40.8553 25.6451 40.7955 25.4888 40.6835 25.3768C40.5715 25.2648 40.4151 25.2049 40.2369 25.2049H32.252C32.0738 25.2049 31.9174 25.2648 31.8054 25.3768C31.6934 25.4888 31.6335 25.6451 31.6335 25.8234C31.6335 26.0017 31.6934 26.158 31.8054 26.27C31.9174 26.382 32.0738 26.4419 32.252 26.4419ZM32.252 30.4343H40.2369C40.5447 30.4343 40.8553 30.1885 40.8553 29.8158C40.8553 29.6375 40.7955 29.4812 40.6835 29.3692C40.5715 29.2572 40.4151 29.1973 40.2369 29.1973H32.252C32.0738 29.1973 31.9174 29.2572 31.8054 29.3692C31.6934 29.4812 31.6335 29.6375 31.6335 29.8158C31.6335 29.9941 31.6934 30.1504 31.8054 30.2624C31.9174 30.3745 32.0738 30.4343 32.252 30.4343ZM20.4822 34.4267H35.0001C35.3079 34.4267 35.6185 34.1809 35.6185 33.8082C35.6185 33.63 35.5587 33.4736 35.4467 33.3616C35.3347 33.2496 35.1783 33.1897 35.0001 33.1897H20.4822C20.3039 33.1897 20.1476 33.2496 20.0356 33.3616C19.9236 33.4736 19.8637 33.63 19.8637 33.8082C19.8637 33.9865 19.9236 34.1428 20.0356 34.2549C20.1476 34.3669 20.3039 34.4267 20.4822 34.4267ZM20.4822 38.471H33.8075C33.9858 38.471 34.1421 38.4111 34.2541 38.2991C34.3661 38.1871 34.426 38.0308 34.426 37.8525C34.426 37.6742 34.3661 37.5179 34.2541 37.4059C34.1421 37.2939 33.9858 37.234 33.8075 37.234H20.4822C20.3039 37.234 20.1476 37.2939 20.0356 37.4059C19.9236 37.5179 19.8637 37.6742 19.8637 37.8525C19.8637 38.0308 19.9236 38.1871 20.0356 38.2991C20.1476 38.4111 20.3039 38.471 20.4822 38.471ZM20.4822 42.4634H35.0001C35.3079 42.4634 35.6185 42.2176 35.6185 41.8449C35.6185 41.6666 35.5587 41.5103 35.4467 41.3983C35.3347 41.2863 35.1783 41.2264 35.0001 41.2264H20.4822C20.3039 41.2264 20.1476 41.2863 20.0356 41.3983C19.9236 41.5103 19.8637 41.6666 19.8637 41.8449C19.8637 42.0232 19.9236 42.1795 20.0356 42.2915C20.1476 42.4035 20.3039 42.4634 20.4822 42.4634ZM20.4822 46.4558H40.2369C40.5447 46.4558 40.8553 46.21 40.8553 45.8373C40.8553 45.659 40.7955 45.5027 40.6835 45.3907C40.5715 45.2787 40.4151 45.2188 40.2369 45.2188H20.4822C20.3039 45.2188 20.1476 45.2787 20.0356 45.3907C19.9236 45.5027 19.8637 45.659 19.8637 45.8373C19.8637 46.0156 19.9236 46.1719 20.0356 46.2839C20.1476 46.396 20.3039 46.4558 20.4822 46.4558Z" fill="#8E5DFF" stroke="#8E5DFF" stroke-width="0.2"/>
<path d="M46.4192 42.6475L46.4261 42.6417L46.432 42.6347C46.4954 42.5586 46.5634 42.481 46.6331 42.4014C46.8387 42.1669 47.0589 41.9157 47.2181 41.638C48.8491 39.1624 48.5331 35.8454 46.4266 33.7382C45.2659 32.5252 43.684 31.8934 41.9998 31.8934C40.3136 31.8934 38.7333 32.5783 37.5745 33.7366C36.3614 34.8974 35.7297 36.4793 35.7297 38.1635C35.7297 39.8494 36.3626 41.3784 37.5737 42.5896C38.7852 43.801 40.3662 44.4336 41.9998 44.4336C43.2105 44.4336 44.3703 44.1175 45.4245 43.4323L45.4245 43.4324L45.4281 43.4298C45.7941 43.1684 46.1076 42.9072 46.4181 42.6484L46.4192 42.6475ZM38.441 34.6047C39.4071 33.6387 40.6778 33.1304 41.9998 33.1304C43.3218 33.1304 44.5925 33.6387 45.5585 34.6047C47.2369 36.2832 47.5409 38.9267 46.2201 40.9079C46.0159 41.2142 45.8126 41.4682 45.5585 41.7223C45.3823 41.8985 45.185 42.0473 44.991 42.1937C44.9064 42.2575 44.8225 42.3208 44.7413 42.3856C42.7584 43.6539 40.1169 43.3981 38.441 41.7223C37.475 40.7562 36.9667 39.4855 36.9667 38.1635C36.9667 36.8415 37.475 35.5708 38.441 34.6047Z" fill="#8E5DFF" stroke="#8E5DFF" stroke-width="0.2"/>
<path d="M44.7439 42.3837L44.7357 42.3892L44.7287 42.3962C44.7258 42.3991 44.7228 42.402 44.7199 42.405C44.6253 42.4993 44.4992 42.6252 44.4923 42.8135C44.4355 43.0036 44.501 43.1899 44.6229 43.3132L48.5092 47.6658C48.5093 47.666 48.5094 47.6661 48.5095 47.6662C48.8898 48.1007 49.4348 48.374 50.0362 48.374H50.088C50.6871 48.374 51.1786 48.1545 51.6105 47.7226C51.9939 47.3392 52.2102 46.7945 52.2102 46.2001C52.2102 45.5987 51.9368 45.0537 51.5024 44.6733C51.5022 44.6732 51.5021 44.6731 51.502 44.673L47.1474 40.785L47.1374 40.7761L47.1255 40.7701C47.0124 40.7136 46.8414 40.6559 46.666 40.6559C46.4686 40.6559 46.3382 40.7865 46.2411 40.8837C46.2382 40.8867 46.2352 40.8896 46.2323 40.8925L46.2253 40.8995L46.2198 40.9078C46.0156 41.2141 45.8123 41.4681 45.5583 41.7221C45.3043 41.9762 45.0503 42.1795 44.7439 42.3837ZM49.494 46.866L49.4943 46.8657L49.4885 46.8593L46.0258 42.9892L46.1923 42.8228L46.4256 42.5895L46.6589 42.3561L46.8253 42.1897L50.6954 45.6524L50.6952 45.6527L50.7021 45.6579C50.8791 45.7906 50.9732 46.0171 50.9732 46.2519V46.2618L50.9751 46.2715C51.0203 46.4975 50.927 46.768 50.7539 46.8978C50.5602 47.0431 50.3215 47.137 50.088 47.137C49.8532 47.137 49.6268 47.043 49.494 46.866Z" fill="#8E5DFF" stroke="#8E5DFF" stroke-width="0.2"/>
</svg>
