<svg width="67" height="67" viewBox="0 0 67 67" fill="none" xmlns="http://www.w3.org/2000/svg">
<path d="M59.2119 26.4974L64.243 32.5226C64.7079 33.0793 64.7079 33.8887 64.243 34.4454L59.2119 40.4706C58.449 41.3843 58.0791 42.5631 58.1833 43.7489L58.8836 51.7154C58.9487 52.4563 58.4611 53.133 57.7377 53.3057L50.5335 55.0258C49.3173 55.3162 48.2768 56.0995 47.6614 57.1879L43.8973 63.8448C43.5155 64.5201 42.6816 64.7929 41.9745 64.4737L35.3555 61.4861C34.1748 60.9532 32.8217 60.9549 31.6424 61.4909L25.0255 64.498C24.3179 64.8195 23.4818 64.5473 23.0992 63.8707L19.3386 57.2199C18.7232 56.1315 17.6827 55.3482 16.4665 55.0578L9.2617 53.3376C8.53843 53.1649 8.05084 52.4884 8.11578 51.7476L8.81701 43.7482C8.92092 42.5627 8.55106 41.3844 7.78834 40.4709L2.75409 34.442C2.2899 33.8861 2.28919 33.0779 2.75239 32.5212L7.79344 26.4623C8.55301 25.5494 8.92091 24.3732 8.81692 23.1902L8.11704 15.2278C8.05179 14.4853 8.54155 13.8076 9.26696 13.6365L16.4569 11.9408C17.678 11.6528 18.7235 10.868 19.3411 9.77584L23.1027 3.12319C23.4845 2.44785 24.3184 2.17513 25.0255 2.49431L31.6487 5.48379C32.8257 6.01505 34.1743 6.01505 35.3513 5.48379L41.9745 2.49431C42.6816 2.17513 43.5155 2.44785 43.8973 3.12319L47.6614 9.78012C48.2768 10.8685 49.3173 11.6518 50.5335 11.9422L57.7377 13.6623C58.4611 13.835 58.9487 14.5117 58.8836 15.2526L58.1833 23.2191C58.0791 24.4049 58.449 25.5837 59.2119 26.4974Z" stroke="#8E5DFF" stroke-width="3"/>
<path d="M28.8073 23.6433L23.239 22.0515C22.809 21.9285 22.3563 21.907 21.9166 21.9887C21.4769 22.0705 21.0622 22.2532 20.7051 22.5224C20.3481 22.7917 20.0584 23.1402 19.8589 23.5405C19.6594 23.9408 19.5556 24.3819 19.5557 24.8292V41.9314C19.5556 42.559 19.76 43.1697 20.1379 43.6708C20.5158 44.172 21.0466 44.5364 21.6501 44.709L28.8073 46.7544C29.3672 46.9142 29.9623 46.9011 30.5147 46.7168L37.4856 44.3942C38.0379 44.2099 38.633 44.1968 39.1929 44.3566L44.7627 45.9484C45.1926 46.0711 45.6451 46.0924 46.0846 46.0105C46.5241 45.9287 46.9386 45.7459 47.2955 45.4767C47.6524 45.2074 47.9419 44.859 48.1413 44.4589C48.3407 44.0587 48.4445 43.6178 48.4446 43.1707V26.0685C48.4446 25.4408 48.2402 24.8302 47.8623 24.329C47.4844 23.8279 46.9536 23.4634 46.3501 23.2908L39.1914 21.2455C38.6315 21.0857 38.0364 21.0988 37.4841 21.283L30.5147 23.6057C29.9623 23.79 29.3672 23.8031 28.8073 23.6433Z" stroke="#8E5DFF" stroke-width="3" stroke-linecap="round" stroke-linejoin="round"/>
<path d="M29.6668 23.8889V47" stroke="#8E5DFF" stroke-width="3" stroke-linejoin="round"/>
<path d="M38.3334 21V44.1111" stroke="#8E5DFF" stroke-width="3" stroke-linejoin="round"/>
</svg>
