<?xml version="1.0" standalone="no"?>
<!DOCTYPE svg PUBLIC "-//W3C//DTD SVG 20010904//EN"
 "http://www.w3.org/TR/2001/REC-SVG-20010904/DTD/svg10.dtd">
<svg version="1.0" xmlns="http://www.w3.org/2000/svg"
 width="130.000000pt" height="130.000000pt" viewBox="0 0 130.000000 130.000000"
 preserveAspectRatio="xMidYMid meet">
<metadata>
Created by potrace 1.14, written by Peter Selinger 2001-2017
</metadata>
<g transform="translate(0.000000,130.000000) scale(0.100000,-0.100000)"
fill="#000000" stroke="none">
<path d="M834 1171 c-130 -50 -206 -156 -214 -296 -1 -16 -1 -32 0 -35 0 -3 3
-22 5 -42 2 -20 13 -54 24 -76 l20 -39 -23 -22 c-12 -11 -28 -21 -35 -21 -7 0
-10 -4 -6 -9 3 -5 -5 -13 -17 -17 -23 -7 -33 -14 -79 -57 -16 -15 -32 -27 -35
-27 -12 0 -194 -142 -194 -151 0 -5 -3 -8 -7 -8 -22 4 -33 -2 -27 -13 4 -7 -7
-2 -25 11 -38 28 -83 36 -121 23 -34 -12 -70 -42 -70 -59 0 -7 -4 -13 -9 -13
-5 0 -7 -23 -6 -51 3 -54 27 -90 75 -113 76 -35 183 35 174 114 -9 79 -8 101
5 97 5 -1 30 15 55 35 24 21 48 38 52 38 4 0 17 11 29 24 13 14 26 22 29 19 3
-4 6 -1 6 5 0 6 9 13 20 17 11 3 33 19 49 35 16 16 31 26 35 23 3 -4 6 -2 6 4
0 6 19 22 43 36 23 14 50 34 61 45 l18 21 37 -36 c20 -19 54 -46 76 -58 110
-65 270 -46 362 44 37 35 83 104 88 131 2 10 8 33 13 51 5 19 8 43 7 54 -2 11
-4 36 -6 55 -2 19 -9 46 -16 59 -6 14 -10 28 -7 33 3 4 0 8 -5 8 -6 0 -11 4
-11 10 0 13 -67 101 -76 99 -3 0 -17 8 -30 20 -13 11 -24 18 -24 15 0 -4 -7
-1 -15 6 -8 7 -15 9 -15 6 0 -4 -10 -1 -22 6 -32 18 -145 17 -194 -1z"/>
</g>
</svg>
